<svg width="24" height="24" viewBox="0 0 24 24" fill="none" xmlns="http://www.w3.org/2000/svg">
<path d="M2 16L22 16M2 6L8 6M7 4L8.64645 5.64645C8.84171 5.84171 8.84171 6.15829 8.64645 6.35355L7 8M22 15.2V16.8C22 17.9201 22 18.4802 21.782 18.908C21.5903 19.2843 21.2843 19.5903 20.908 19.782C20.4802 20 19.9201 20 18.8 20H5.2C4.0799 20 3.51984 20 3.09202 19.782C2.7157 19.5903 2.40973 19.2843 2.21799 18.908C2 18.4802 2 17.9201 2 16.8L2 15.2C2 14.0799 2 13.5198 2.21799 13.092C2.40973 12.7157 2.71569 12.4097 3.09202 12.218C3.51984 12 4.0799 12 5.2 12L18.8 12C19.9201 12 20.4802 12 20.908 12.218C21.2843 12.4097 21.5903 12.7157 21.782 13.092C22 13.5198 22 14.0799 22 15.2ZM22 6C22 4.89543 21.1046 4 20 4L14 4C12.8954 4 12 4.89543 12 6C12 7.10457 12.8954 8 14 8L20 8C21.1046 8 22 7.10457 22 6Z" stroke="black" stroke-width="2" stroke-linecap="round"/>
</svg>
