<svg width="24" height="24" viewBox="0 0 24 24" fill="none" xmlns="http://www.w3.org/2000/svg">
<path d="M4 21H5M5 21V6.2C5 5.07989 5 4.51984 5.21799 4.09202C5.40973 3.71569 5.71569 3.40973 6.09202 3.21799C6.51984 3 7.07989 3 8.2 3H15.8C16.9201 3 17.4802 3 17.908 3.21799C18.2843 3.40973 18.5903 3.71569 18.782 4.09202C19 4.51984 19 5.0799 19 6.2V21M5 21H10M19 21H14M19 21H20M10 21V16.6C10 16.0399 10 15.7599 10.109 15.546C10.2049 15.3578 10.3578 15.2049 10.546 15.109C10.7599 15 11.0399 15 11.6 15H12.4C12.9601 15 13.2401 15 13.454 15.109C13.6422 15.2049 13.7951 15.3578 13.891 15.546C14 15.7599 14 16.0399 14 16.6V21M10 21H14" stroke="black" stroke-width="2" stroke-linecap="round"/>
<path d="M9 7H10" stroke="black" stroke-width="2" stroke-linecap="round"/>
<path d="M9 11H10" stroke="black" stroke-width="2" stroke-linecap="round"/>
<path d="M14 7H15" stroke="black" stroke-width="2" stroke-linecap="round"/>
<path d="M14 11H15" stroke="black" stroke-width="2" stroke-linecap="round"/>
</svg>
