<svg viewBox="0 0 24 24" fill="none" xmlns="http://www.w3.org/2000/svg">
<path d="M16.4268 17.9447L15.8239 17.1469L16.4268 17.9447ZM19.6029 16.7978C20.0435 16.4648 20.1308 15.8377 19.7978 15.3971C19.4648 14.9565 18.8377 14.8692 18.3971 15.2022L19.6029 16.7978ZM16.0732 17.9447L16.6761 17.1469L16.0732 17.9447ZM15.6029 16.3358C15.1623 16.0028 14.5352 16.0901 14.2022 16.5307C13.8692 16.9713 13.9565 17.5984 14.3971 17.9314L15.6029 16.3358ZM4.64018 4.36692L5.28037 3.5987L4.64018 4.36692ZM7.71963 6.93313L8.35982 6.16491V6.16491L7.71963 6.93313ZM10.2804 6.93313L10.9206 7.70135L10.2804 6.93313ZM13.7196 4.06707L13.0794 3.29885V3.29885L13.7196 4.06707ZM16.2804 4.06707L15.6402 4.83529V4.83529L16.2804 4.06707ZM19.5607 6.80071L18.9206 7.56894L18.9206 7.56894L19.5607 6.80071ZM7.71963 19.9331L8.35982 19.1649L8.35982 19.1649L7.71963 19.9331ZM3.71963 16.5998L3.07945 17.368H3.07945L3.71963 16.5998ZM19.2804 10C19.2804 10.5523 19.7281 11 20.2804 11C20.8327 11 21.2804 10.5523 21.2804 10H19.2804ZM17.0297 18.7425L19.6029 16.7978L18.3971 15.2022L15.8239 17.1469L17.0297 18.7425ZM16.6761 17.1469L15.6029 16.3358L14.3971 17.9314L15.4703 18.7425L16.6761 17.1469ZM15.8239 17.1469C15.9769 17.0312 16.1346 17 16.25 17C16.3654 17 16.5231 17.0312 16.6761 17.1469L15.4703 18.7425C15.721 18.9319 16.0067 19 16.25 19C16.4933 19 16.779 18.9319 17.0297 18.7425L15.8239 17.1469ZM4 5.13514L7.07945 7.70135L8.35982 6.16491L5.28037 3.5987L4 5.13514ZM10.9206 7.70135L14.3598 4.83529L13.0794 3.29885L9.64018 6.1649L10.9206 7.70135ZM15.6402 4.83529L18.9206 7.56894L20.2009 6.03249L16.9206 3.29885L15.6402 4.83529ZM8.35982 19.1649L4.35981 15.8316L3.07945 17.368L7.07945 20.7013L8.35982 19.1649ZM4 15.0633V5.13514H2V15.0633H4ZM4.35982 15.8316C4.13182 15.6416 4 15.3601 4 15.0633H2C2 15.9537 2.39547 16.798 3.07945 17.368L4.35982 15.8316ZM14.3598 4.83529C14.7307 4.52626 15.2693 4.52626 15.6402 4.83529L16.9206 3.29885C15.808 2.37174 14.192 2.37174 13.0794 3.29885L14.3598 4.83529ZM7.07945 7.70135C8.19199 8.62846 9.80802 8.62846 10.9206 7.70135L9.64018 6.1649C9.26934 6.47394 8.73066 6.47394 8.35982 6.16491L7.07945 7.70135ZM5.28037 3.5987C3.97771 2.51315 2 3.43947 2 5.13514H4V5.13514L5.28037 3.5987ZM9 19.3967C8.77179 19.3967 8.54536 19.3195 8.35982 19.1649L7.07944 20.7013C7.6356 21.1648 8.31869 21.3967 9 21.3967V19.3967ZM8 8.0001V20.0001H10V8.0001H8ZM19.2804 8.33716V10H21.2804V8.33716H19.2804ZM18.9206 7.56894C19.1485 7.75893 19.2804 8.04038 19.2804 8.33716H21.2804C21.2804 7.44682 20.8849 6.60247 20.2009 6.03249L18.9206 7.56894ZM21 17C21 19.2091 19.2091 21 17 21V23C20.3137 23 23 20.3137 23 17H21ZM17 21C14.7909 21 13 19.2091 13 17H11C11 20.3137 13.6863 23 17 23V21ZM13 17C13 14.7909 14.7909 13 17 13V11C13.6863 11 11 13.6863 11 17H13ZM17 13C19.2091 13 21 14.7909 21 17H23C23 13.6863 20.3137 11 17 11V13Z" fill="black"/>
</svg>
