<svg width="24" height="24" viewBox="0 0 24 24" fill="none" xmlns="http://www.w3.org/2000/svg">
<path d="M20.2804 7.40041L16.2804 4.06707C15.5387 3.449 14.4613 3.449 13.7196 4.06707L10.2804 6.93313C9.53868 7.5512 8.46132 7.5512 7.71963 6.93313L4.64018 4.36692C3.98886 3.82415 3 4.2873 3 5.13514V15.0633C3 15.6569 3.26365 16.2198 3.71963 16.5998L7.71963 19.9331C8.09048 20.2422 8.54524 20.3967 9 20.3967M9 8.0001V20.0001M21 14.0001C21 16.2092 18 20.0001 17 20.0001C16 20.0001 13 16.2092 13 14.0001C13 11.791 14.7909 10.0001 17 10.0001C19.2091 10.0001 21 11.791 21 14.0001Z" stroke="black" stroke-width="2" stroke-linecap="round"/>
</svg>
