<svg viewBox="0 0 800 800" fill="none" xmlns="http://www.w3.org/2000/svg">
  <path d="M400.939 72.1875C186.436 72.1875 18.3853 340.091 2.48535 570.592C69.7969 687.416 232.117 731.328 400.939 731.328C569.75 731.328 732.081 687.416 799.36 570.592C783.46 340.091 615.431 72.1875 400.939 72.1875Z" fill="#CEEEFC"/>
  <path d="M743.314 515.685C743.314 515.685 695.94 413.264 647.784 353.506C599.596 293.726 540.75 228.629 505.955 228.629C471.181 228.629 373.969 400.75 329.373 400.75C284.766 400.75 255.584 322.726 206.743 322.726C151.88 322.726 64.7176 510.877 64.7176 510.877L58.8135 542.775C58.8135 542.775 89.094 677.029 405.888 677.029C722.693 677.029 748.014 544.978 748.014 544.978L743.314 515.685Z" fill="#3BCE53"/>
  <path d="M334.333 474.204C285.136 474.204 259.913 425.658 246.238 395.692C233.941 368.7 225.814 326.08 196.921 324.886C200.351 323.529 203.65 322.726 206.743 322.726C255.584 322.726 284.767 400.75 329.373 400.75C373.969 400.75 471.181 228.629 505.955 228.629C512.51 228.629 519.891 230.941 527.9 235.054C521.974 234.273 514.377 234.815 508.527 240.687C497.283 251.931 395.242 474.204 334.333 474.204Z" fill="#39B44D"/>
</svg>
