<svg width="24" height="24" viewBox="0 0 24 24" fill="none" xmlns="http://www.w3.org/2000/svg">
<path d="M18.454 3.10899C18.9461 3.35973 19.5483 3.16407 19.799 2.67198C20.0497 2.17989 19.8541 1.57771 19.362 1.32698L18.454 3.10899ZM18.908 21.782L19.362 22.673L19.362 22.673L18.908 21.782ZM19.782 20.908L20.673 21.362V21.362L19.782 20.908ZM5.09202 21.782L4.63803 22.673H4.63803L5.09202 21.782ZM4.21799 20.908L3.32698 21.362L3.32698 21.362L4.21799 20.908ZM4.58711 7.41289L5.29422 8.12L4.58711 7.41289ZM9.41421 2.58579L10.1213 3.29289L10.1213 3.29289L9.41421 2.58579ZM20 8L21 8.0016V8H20ZM4.01919 20L3.01919 20.0016L3.01924 20.0313L3.02105 20.0609L4.01919 20ZM19.9808 20L20.979 20.0609L20.9808 20.0313L20.9808 20.0016L19.9808 20ZM4.00133 8.8303H5.00133L5.00133 8.8287L4.00133 8.8303ZM1.42654 18.1808C0.974088 18.4975 0.864054 19.121 1.18077 19.5735C1.49748 20.0259 2.12101 20.1359 2.57346 19.8192L1.42654 18.1808ZM22.5735 5.81923C23.0259 5.50252 23.1359 4.87899 22.8192 4.42654C22.5025 3.97409 21.879 3.86405 21.4265 4.18077L22.5735 5.81923ZM3.00133 13C3.00133 13.5523 3.44904 14 4.00133 14C4.55361 14 5.00133 13.5523 5.00133 13H3.00133ZM7.2 23H16.8V21H7.2V23ZM16.8 3C17.3766 3 17.7488 3.00078 18.0322 3.02393C18.3038 3.04612 18.4045 3.0838 18.454 3.10899L19.362 1.32698C18.9836 1.13419 18.5904 1.06287 18.195 1.03057C17.8114 0.999222 17.3436 1 16.8 1V3ZM16.8 23C17.3436 23 17.8114 23.0008 18.195 22.9694C18.5904 22.9371 18.9836 22.8658 19.362 22.673L18.454 20.891C18.4045 20.9162 18.3038 20.9539 18.0322 20.9761C17.7488 20.9992 17.3766 21 16.8 21V23ZM19.362 22.673C19.9265 22.3854 20.3854 21.9265 20.673 21.362L18.891 20.454C18.7951 20.6422 18.6422 20.7951 18.454 20.891L19.362 22.673ZM7.2 21C6.62346 21 6.25118 20.9992 5.96784 20.9761C5.69617 20.9539 5.59545 20.9162 5.54601 20.891L4.63803 22.673C5.01641 22.8658 5.40964 22.9371 5.80498 22.9694C6.18865 23.0008 6.65646 23 7.2 23V21ZM5.54601 20.891C5.35785 20.7951 5.20487 20.6422 5.10899 20.454L3.32698 21.362C3.6146 21.9265 4.07354 22.3854 4.63803 22.673L5.54601 20.891ZM16.8 1H10.8284V3H16.8V1ZM5.29422 8.12L10.1213 3.29289L8.70711 1.87868L3.88 6.70578L5.29422 8.12ZM3.02105 20.0609C3.04806 20.5033 3.11359 20.9432 3.32698 21.362L5.10899 20.454C5.08035 20.3978 5.03822 20.2811 5.01733 19.9391L3.02105 20.0609ZM18.9827 19.9391C18.9618 20.2811 18.9196 20.3978 18.891 20.454L20.673 21.362C20.8864 20.9432 20.9519 20.5033 20.979 20.0609L18.9827 19.9391ZM19 7.9984L18.9808 19.9984L20.9808 20.0016L21 8.0016L19 7.9984ZM10.8284 1C10.0328 1 9.26971 1.31607 8.70711 1.87868L10.1213 3.29289C10.3089 3.10536 10.5632 3 10.8284 3V1ZM3.88 6.70578C3.31622 7.26957 3.00005 8.03459 3.00133 8.8319L5.00133 8.8287C5.0009 8.56293 5.10629 8.30792 5.29422 8.12L3.88 6.70578ZM20.5735 7.21923L22.5735 5.81923L21.4265 4.18077L19.4265 5.58077L20.5735 7.21923ZM21 8V6.4H19V8H21ZM2.57346 19.8192L4.5888 18.4085L3.44187 16.77L1.42654 18.1808L2.57346 19.8192ZM4.5888 18.4085L20.5735 7.21923L19.4265 5.58077L3.44187 16.77L4.5888 18.4085ZM3.01534 17.5909L3.01919 20.0016L5.01919 19.9984L5.01533 17.5877L3.01534 17.5909ZM3.00133 8.8303V13H5.00133V8.8303H3.00133Z" fill="black"/>
</svg>
