<svg width="24" height="24" viewBox="0 0 24 24" fill="none" xmlns="http://www.w3.org/2000/svg">
<path d="M6 3H21C22.1046 3 23 3.89543 23 5V17M6 10H9M6 13H9M6 16H9M5.2 20H16.8C17.9201 20 18.4802 20 18.908 19.782C19.2843 19.5903 19.5903 19.2843 19.782 18.908C20 18.4802 20 17.9201 20 16.8V9.2C20 8.07989 20 7.51984 19.782 7.09202C19.5903 6.71569 19.2843 6.40973 18.908 6.21799C18.4802 6 17.9201 6 16.8 6H5.2C4.0799 6 3.51984 6 3.09202 6.21799C2.71569 6.40973 2.40973 6.71569 2.21799 7.09202C2 7.51984 2 8.07989 2 9.2V16.8C2 17.9201 2 18.4802 2.21799 18.908C2.40973 19.2843 2.71569 19.5903 3.09202 19.782C3.51984 20 4.07989 20 5.2 20ZM12.8 14H15.2C15.48 14 15.62 14 15.727 13.9455C15.8211 13.8976 15.8976 13.8211 15.9455 13.727C16 13.62 16 13.48 16 13.2V10.8C16 10.52 16 10.38 15.9455 10.273C15.8976 10.1789 15.8211 10.1024 15.727 10.0545C15.62 10 15.48 10 15.2 10H12.8C12.52 10 12.38 10 12.273 10.0545C12.1789 10.1024 12.1024 10.1789 12.0545 10.273C12 10.38 12 10.52 12 10.8V13.2C12 13.48 12 13.62 12.0545 13.727C12.1024 13.8211 12.1789 13.8976 12.273 13.9455C12.38 14 12.52 14 12.8 14Z" stroke="black" stroke-width="2" stroke-linecap="round"/>
</svg>
