<svg width="24" height="24" viewBox="0 0 24 24" fill="none" xmlns="http://www.w3.org/2000/svg">
<path d="M15.1615 18L12.5691 20.5872C11.7872 21.3675 10.5209 21.3662 9.74065 20.5844L2.58437 13.4137C1.80484 12.6327 1.80526 11.3678 2.58532 10.5872L5.16613 8.00468M15.1615 18L20.5862 12.586C20.9622 12.2108 21.1735 11.7015 21.1734 11.1704L21.1734 3.99999C21.1734 2.89542 20.278 2 19.1734 2H11.9957C11.465 2 10.9561 2.21089 10.581 2.58625L5.16613 8.00468M15.1615 18L5.16613 8.00468M15.7982 6.62494H16.5482M15.7982 7.37494H16.5482M17.1735 7C17.1735 7.55228 16.7257 8 16.1735 8C15.6212 8 15.1735 7.55228 15.1735 7C15.1735 6.44772 15.6212 6 16.1735 6C16.7257 6 17.1735 6.44772 17.1735 7Z" stroke="black" stroke-width="2" stroke-linecap="round"/>
</svg>
