<svg width="24" height="24" viewBox="0 0 24 24" fill="none" xmlns="http://www.w3.org/2000/svg">
<path d="M9.99963 10L13.9996 14M6.99963 13L10.9996 17M15.6244 7.62494H16.3744M15.6244 8.37494H16.3744M18.9996 3H12.6507C11.5893 3 10.5715 3.42179 9.8213 4.17251L2.41149 11.5872C1.63144 12.3678 1.63101 13.6327 2.41054 14.4137L9.56682 21.5844C10.3471 22.3662 11.6134 22.3675 12.3952 21.5872L19.8252 14.1721C20.5771 13.4217 20.9996 12.403 20.9996 11.3408L20.9996 4.99999C20.9996 3.89542 20.1041 3 18.9996 3ZM16.9996 8C16.9996 8.55228 16.5519 9 15.9996 9C15.4473 9 14.9996 8.55228 14.9996 8C14.9996 7.44772 15.4473 7 15.9996 7C16.5519 7 16.9996 7.44772 16.9996 8Z" stroke="black" stroke-width="2" stroke-linecap="round"/>
</svg>
