<svg width="24" height="24" viewBox="0 0 24 24" fill="none" xmlns="http://www.w3.org/2000/svg">
<g clip-path="url(#clip0_71_13013)">
<path d="M23 12C23 18.0751 18.0751 23 12 23C5.92487 23 1 18.0751 1 12C1 5.92487 5.92487 1 12 1C18.0751 1 23 5.92487 23 12Z" stroke="black" stroke-width="2"/>
<path d="M17 14.9451V9.05489C17 7.66228 15.2674 7.02135 14.3611 8.0787L12.9524 9.72223C11.8289 11.0329 11.8289 12.9671 12.9524 14.2778L14.3611 15.9213C15.2674 16.9786 17 16.3377 17 14.9451Z" stroke="black" stroke-width="2"/>
<path d="M12 14.9451V9.05489C12 7.66228 10.2674 7.02135 9.36112 8.0787L7.11564 10.6984C6.47366 11.4474 6.47366 12.5526 7.11564 13.3016L9.36112 15.9213C10.2674 16.9786 12 16.3377 12 14.9451Z" stroke="black" stroke-width="2"/>
<path d="M1 12C1 18.0751 5.92487 23 12 23C18.0751 23 23 18.0751 23 12C23 5.92487 18.0751 1 12 1C5.92487 1 1 5.92487 1 12Z" stroke="black" stroke-width="2"/>
</g>
<defs>
<clipPath id="clip0_71_13013">
<rect width="24" height="24" fill="white"/>
</clipPath>
</defs>
</svg>
