<svg width="25" height="24" viewBox="0 0 25 24" fill="none" xmlns="http://www.w3.org/2000/svg">
  <path d="M17 9.76393C17.6137 10.3133 18 11.1115 18 12C18 12.8885 17.6137 13.6868 17 14.2361M18.9689 7.50002C20.2144 8.59943 21 10.2079 21 11.9999C21 13.7919 20.2144 15.4004 18.9689 16.4998M21 5.29152C22.8412 6.93948 24 9.33434 24 11.9998C24 14.6653 22.8412 17.0602 21 18.7082M3 16H4C4.55228 16 5 15.5522 5 15V8.99996C5 8.44767 4.55228 7.99996 4 7.99996H3C1.89543 7.99996 1 8.89539 1 9.99996V14C1 15.1045 1.89543 16 3 16ZM5.55279 7.72356L11.5528 4.72356C12.2177 4.39111 13 4.87461 13 5.61799V18.3819C13 19.1253 12.2177 19.6088 11.5528 19.2763L5.55279 16.2763C5.214 16.107 5 15.7607 5 15.3819V8.61799C5 8.23922 5.214 7.89295 5.55279 7.72356Z" stroke="currentColor" stroke-width="2" stroke-linecap="round"/>
</svg>
