<svg width="24" height="24" viewBox="0 0 24 24" fill="none" xmlns="http://www.w3.org/2000/svg">
<path d="M14 14V9.99996M8 16H9C9.55228 16 10 15.5522 10 15V8.99996C10 8.44767 9.55228 7.99996 9 7.99996H8C6.89543 7.99996 6 8.89539 6 9.99996V14C6 15.1045 6.89543 16 8 16ZM10.5528 7.72356L16.5528 4.72356C17.2177 4.39111 18 4.87461 18 5.61799V18.3819C18 19.1253 17.2177 19.6088 16.5528 19.2763L10.5528 16.2763C10.214 16.107 10 15.7607 10 15.3819V8.61799C10 8.23922 10.214 7.89295 10.5528 7.72356Z" stroke="black" stroke-width="2" stroke-linecap="round"/>
</svg>
