<svg width="24" height="24" viewBox="0 0 24 24" fill="none" xmlns="http://www.w3.org/2000/svg">
<path d="M10 5H14M11.6248 12.6249H12.3748M11.6248 13.3749H12.3748M7.2 22H16.8C17.9201 22 18.4802 22 18.908 21.782C19.2843 21.5903 19.5903 21.2843 19.782 20.908C20 20.4802 20 19.9201 20 18.8V5.2C20 4.07989 20 3.51984 19.782 3.09202C19.5903 2.71569 19.2843 2.40973 18.908 2.21799C18.4802 2 17.9201 2 16.8 2H7.2C6.0799 2 5.51984 2 5.09202 2.21799C4.71569 2.40973 4.40973 2.71569 4.21799 3.09202C4 3.51984 4 4.0799 4 5.2V18.8C4 19.9201 4 20.4802 4.21799 20.908C4.40973 21.2843 4.71569 21.5903 5.09202 21.782C5.51984 22 6.07989 22 7.2 22ZM17 13C17 15.7614 14.7614 18 12 18C9.23858 18 7 15.7614 7 13C7 10.2386 9.23858 8 12 8C14.7614 8 17 10.2386 17 13ZM13 13C13 13.5523 12.5523 14 12 14C11.4477 14 11 13.5523 11 13C11 12.4477 11.4477 12 12 12C12.5523 12 13 12.4477 13 13Z" stroke="black" stroke-width="2" stroke-linecap="round"/>
</svg>
