<svg viewBox="0 0 24 24" fill="none" xmlns="http://www.w3.org/2000/svg">
  <path d="M16.3043 9.92344C16.8914 10.4489 17.2609 11.2125 17.2609 12.0623C17.2609 12.9122 16.8914 13.6758 16.3043 14.2012M18.1876 7.75795C19.379 8.80957 20.1305 10.3481 20.1305 12.0622C20.1305 13.7763 19.379 15.3148 18.1876 16.3665M20.1304 5.64548C21.8916 7.22179 23 9.51253 23 12.0621C23 14.6117 21.8916 16.9025 20.1304 18.4788M2.91304 15.8883H3.86957C4.39784 15.8883 4.82609 15.4601 4.82609 14.9318V9.19268C4.82609 8.66441 4.39784 8.23616 3.86957 8.23616H2.91304C1.8565 8.23616 1 9.09266 1 10.1492V13.9753C1 15.0318 1.8565 15.8883 2.91304 15.8883ZM5.35484 7.97178L11.094 5.10222C11.73 4.78422 12.4783 5.2467 12.4783 5.95776V18.1667C12.4783 18.8778 11.73 19.3403 11.094 19.0223L5.35484 16.1527C5.03078 15.9907 4.82609 15.6595 4.82609 15.2972V8.82732C4.82609 8.46502 5.03078 8.13381 5.35484 7.97178Z" stroke="currentColor" stroke-width="2" stroke-linecap="round"/>
</svg>
