<svg viewBox="0 0 24 24" fill="none" xmlns="http://www.w3.org/2000/svg">
<path d="M15 13C15.5523 13 16 12.5523 16 12C16 11.4477 15.5523 11 15 11V13ZM9 11C8.44772 11 8 11.4477 8 12C8 12.5523 8.44772 13 9 13V11ZM11 15C11 15.5523 11.4477 16 12 16C12.5523 16 13 15.5523 13 15H11ZM13 9C13 8.44772 12.5523 8 12 8C11.4477 8 11 8.44772 11 9H13ZM3.09202 18.782L3.54601 17.891H3.54601L3.09202 18.782ZM2.21799 17.908L1.32698 18.362L2.21799 17.908ZM21.782 17.908L22.673 18.362L22.673 18.362L21.782 17.908ZM20.908 18.782L21.362 19.673L20.908 18.782ZM20.908 5.21799L21.362 4.32698V4.32698L20.908 5.21799ZM21.782 6.09202L22.673 5.63803V5.63803L21.782 6.09202ZM3.09202 5.21799L3.54601 6.10899L3.54601 6.10899L3.09202 5.21799ZM2.21799 6.09202L3.10899 6.54601L3.10899 6.54601L2.21799 6.09202ZM6.8 21.4L7.4 22.2L7.4 22.2L6.8 21.4ZM9.14667 19.64L9.74667 20.44L9.74667 20.44L9.14667 19.64ZM10.283 19.0372L10.4748 20.0186H10.4748L10.283 19.0372ZM9.79592 19.1995L9.36055 18.2992H9.36055L9.79592 19.1995ZM15 11L9 11V13H15V11ZM13 15V9H11V15H13ZM5.2 6H18.8V4H5.2V6ZM21 8.2V15.8H23V8.2H21ZM3 15.8V8.2H1V15.8H3ZM5.2 18C4.62345 18 4.25117 17.9992 3.96784 17.9761C3.69617 17.9539 3.59545 17.9162 3.54601 17.891L2.63803 19.673C3.01641 19.8658 3.40963 19.9371 3.80497 19.9694C4.18864 20.0008 4.65645 20 5.2 20V18ZM1 15.8C1 16.3436 0.999222 16.8114 1.03057 17.195C1.06287 17.5904 1.13419 17.9836 1.32698 18.362L3.10899 17.454C3.0838 17.4045 3.04612 17.3038 3.02393 17.0322C3.00078 16.7488 3 16.3766 3 15.8H1ZM3.54601 17.891C3.35785 17.7951 3.20487 17.6422 3.10899 17.454L1.32698 18.362C1.6146 18.9265 2.07354 19.3854 2.63803 19.673L3.54601 17.891ZM21 15.8C21 16.3766 20.9992 16.7488 20.9761 17.0322C20.9539 17.3038 20.9162 17.4045 20.891 17.454L22.673 18.362C22.8658 17.9836 22.9371 17.5904 22.9694 17.195C23.0008 16.8114 23 16.3436 23 15.8H21ZM18.8 20C19.3436 20 19.8114 20.0008 20.195 19.9694C20.5904 19.9371 20.9836 19.8658 21.362 19.673L20.454 17.891C20.4045 17.9162 20.3038 17.9539 20.0322 17.9761C19.7488 17.9992 19.3766 18 18.8 18V20ZM20.891 17.454C20.7951 17.6422 20.6422 17.7951 20.454 17.891L21.362 19.673C21.9265 19.3854 22.3854 18.9265 22.673 18.362L20.891 17.454ZM18.8 6C19.3766 6 19.7488 6.00078 20.0322 6.02393C20.3038 6.04612 20.4045 6.0838 20.454 6.10899L21.362 4.32698C20.9836 4.13419 20.5904 4.06287 20.195 4.03057C19.8114 3.99922 19.3436 4 18.8 4V6ZM23 8.2C23 7.65645 23.0008 7.18864 22.9694 6.80497C22.9371 6.40963 22.8658 6.01641 22.673 5.63803L20.891 6.54601C20.9162 6.59545 20.9539 6.69617 20.9761 6.96784C20.9992 7.25117 21 7.62345 21 8.2H23ZM20.454 6.10899C20.6422 6.20487 20.7951 6.35785 20.891 6.54601L22.673 5.63803C22.3854 5.07354 21.9265 4.6146 21.362 4.32698L20.454 6.10899ZM5.2 4C4.65645 4 4.18864 3.99922 3.80497 4.03057C3.40963 4.06287 3.01641 4.13419 2.63803 4.32698L3.54601 6.10899C3.59545 6.0838 3.69617 6.04612 3.96784 6.02393C4.25117 6.00078 4.62345 6 5.2 6V4ZM3 8.2C3 7.62345 3.00078 7.25117 3.02393 6.96784C3.04612 6.69617 3.0838 6.59545 3.10899 6.54601L1.32698 5.63803C1.13419 6.01641 1.06287 6.40963 1.03057 6.80497C0.999222 7.18864 1 7.65645 1 8.2H3ZM2.63803 4.32698C2.07354 4.6146 1.6146 5.07354 1.32698 5.63803L3.10899 6.54601C3.20487 6.35785 3.35785 6.20487 3.54601 6.10899L2.63803 4.32698ZM5 19.8V21H7V19.8H5ZM18.8 18H11.0667V20H18.8V18ZM7.4 22.2L9.74667 20.44L8.54667 18.84L6.2 20.6L7.4 22.2ZM11.0667 18C10.7089 18 10.3981 17.9957 10.0911 18.0557L10.4748 20.0186C10.5479 20.0043 10.6329 20 11.0667 20V18ZM9.74667 20.44C10.0937 20.1797 10.1642 20.1322 10.2313 20.0997L9.36055 18.2992C9.07895 18.4354 8.83288 18.6253 8.54667 18.84L9.74667 20.44ZM10.0911 18.0557C9.83814 18.1052 9.5926 18.187 9.36055 18.2992L10.2313 20.0997C10.3086 20.0623 10.3905 20.0351 10.4748 20.0186L10.0911 18.0557ZM5 21C5 22.2361 6.41115 22.9416 7.4 22.2L6.2 20.6C6.52961 20.3528 7 20.588 7 21H5ZM5.2 20C5.08954 20 5 19.9105 5 19.8H7C7 18.8059 6.19411 18 5.2 18V20Z" fill="black"/>
</svg>
