<svg viewBox="0 0 24 24" fill="none" xmlns="http://www.w3.org/2000/svg">
<path d="M2 12H4M20 12H22M12 12.7732V11.2269M12 12.7732C12 12.9173 12.0622 13.0545 12.1707 13.1494L16.683 17.0977C17.9762 18.2292 20 17.3108 20 15.5925V8.40758C20 6.68926 17.9762 5.7709 16.683 6.90242L12.1707 10.8506C12.0622 10.9456 12 11.0827 12 11.2269M12 12.7732C12 12.9173 11.9378 13.0545 11.8293 13.1494L7.31701 17.0977C6.02384 18.2292 4 17.3108 4 15.5925V8.40758C4 6.68926 6.02384 5.7709 7.31701 6.90242L11.8293 10.8506C11.9378 10.9456 12 11.0827 12 11.2269" stroke="black" stroke-width="2" stroke-linecap="round"/>
</svg>
