<svg width="24" height="24" viewBox="0 0 24 24" fill="none" xmlns="http://www.w3.org/2000/svg">
<path d="M11.9995 8V4M7.67748 4H16.3216C17.292 4 18.1225 4.69671 18.2911 5.65243L20.5852 18.6524C20.8014 19.8771 19.8593 21 18.6157 21H16.5905C15.6592 21 14.8512 20.3572 14.6418 19.4497L13.4611 14.3335C13.1033 12.7833 10.8957 12.7833 10.5379 14.3335L9.35727 19.4497C9.14786 20.3572 8.3398 21 7.40849 21H5.38336C4.13976 21 3.19767 19.8771 3.41379 18.6524L5.70791 5.65243C5.87657 4.69671 6.707 4 7.67748 4Z" stroke="black" stroke-width="2" stroke-linecap="round"/>
</svg>
