<svg viewBox="0 0 24 24" fill="none" xmlns="http://www.w3.org/2000/svg">
<path d="M12.0004 4V8M5.76592 4H18.2348C19.2434 4 20.0942 4.75107 20.2193 5.75193L21.7193 17.7519C21.8686 18.9456 20.9378 20 19.7348 20H15.6946C14.7169 20 13.8826 19.2932 13.7218 18.3288L13.1648 14.9864C13.0699 14.4172 12.5774 14 12.0004 14C11.4233 14 10.9308 14.4172 10.836 14.9864L10.2789 18.3288C10.1182 19.2932 9.28378 20 8.3061 20H4.26592C3.06292 20 2.13215 18.9456 2.28136 17.7519L3.78136 5.75193C3.90647 4.75107 4.75727 4 5.76592 4Z" stroke="black" stroke-width="2" stroke-linecap="round"/>
</svg>
