<svg viewBox="0 0 24 24" fill="none" xmlns="http://www.w3.org/2000/svg">
<path d="M21.4283 8.86146C22.3627 9.86329 22.0878 11.197 21.0668 11.9969C22.0874 12.7965 22.3518 14.1128 21.4266 15.1322C20.5014 16.1517 18.9288 16.2758 17.8235 15.4892L17.5534 15.2513C17.2179 14.956 17.0502 14.8083 16.8599 14.7031C16.6912 14.6097 16.5098 14.5412 16.3215 14.4998C16.1092 14.4531 15.8857 14.4531 15.4388 14.4531H8.56125C8.11431 14.4531 7.89084 14.4531 7.6785 14.4998C7.49016 14.5412 7.30881 14.6097 7.14007 14.7031C6.94982 14.8083 6.7821 14.956 6.44665 15.2513L6.1765 15.4892C5.07122 16.2758 3.49855 16.1517 2.5734 15.1322C1.64824 14.1128 1.91264 12.7965 2.9332 11.9969C1.91221 11.197 1.63728 9.86329 2.57173 8.86146C3.50618 7.85964 5.06894 7.71889 6.17465 8.50601L6.44665 8.74549C6.7821 9.04083 6.94982 9.1885 7.14007 9.29375C7.30881 9.38711 7.49016 9.45557 7.6785 9.49701C7.89084 9.54373 8.11431 9.54373 8.56125 9.54373H15.4388C15.8857 9.54373 16.1092 9.54373 16.3215 9.49701C16.5098 9.45557 16.6912 9.38711 16.8599 9.29375C17.0502 9.1885 17.2179 9.04083 17.5534 8.74549L17.8254 8.50601C18.9311 7.71889 20.4938 7.85964 21.4283 8.86146Z" stroke="currentColor" stroke-width="2" stroke-linecap="round" stroke-linejoin="round"/>
</svg>
