<svg width="24" height="24" viewBox="0 0 24 24" fill="none" xmlns="http://www.w3.org/2000/svg">
<path d="M18 14C18 17.866 15.3137 21 12 21C8.68629 21 6 17.866 6 14M18 14C18 10.134 15.3137 7 12 7M18 14H21M6 14C6 10.134 8.68629 7 12 7M6 14H3M12 7V14.446M15.874 8C15.9562 7.68038 16 7.3453 16 7C16 4.79086 14.2091 3 12 3C9.79086 3 8 4.79086 8 7C8 7.3453 8.04375 7.68038 8.12602 8M18 10L20 8M18 18L20 20M6 10L4 8M6 18L4 20M12 14.446C12 14.8085 12.0985 15.1642 12.285 15.475L15 20M12 14.446C12 14.8085 11.9015 15.1642 11.715 15.475L9 20" stroke="black" stroke-width="2" stroke-linecap="round"/>
</svg>
