<svg width="24" height="24" viewBox="0 0 24 24" fill="none" xmlns="http://www.w3.org/2000/svg">
<path d="M16 4C16.5523 4 17 3.55228 17 3C17 2.44772 16.5523 2 16 2V4ZM8 2C7.44772 2 7 2.44772 7 3C7 3.55228 7.44772 4 8 4V2ZM20.9641 12.8197L21.5516 13.6289C21.6303 13.5717 21.7003 13.5034 21.7593 13.426L20.9641 12.8197ZM19.4478 13.3858L19.3551 12.3901C19.3309 12.3924 19.3069 12.3955 19.283 12.3995L19.4478 13.3858ZM20.0417 5.77392L19.527 6.63126L19.5275 6.63155L20.0417 5.77392ZM3.03594 12.8197L2.24073 13.426C2.29972 13.5034 2.36968 13.5717 2.4484 13.6289L3.03594 12.8197ZM4.55218 13.3858L4.717 12.3995C4.6931 12.3955 4.66905 12.3924 4.64492 12.3901L4.55218 13.3858ZM3.95826 5.77392L4.47254 6.63155L4.47302 6.63126L3.95826 5.77392ZM19.9755 13.0777C19.6696 12.6179 19.0489 12.4931 18.589 12.799C18.1292 13.1049 18.0044 13.7256 18.3103 14.1855L19.9755 13.0777ZM18.4286 18.642L18.6251 19.6226C18.856 19.5763 19.0632 19.45 19.2101 19.2659L18.4286 18.642ZM5.68969 14.1855C5.99558 13.7256 5.87079 13.1049 5.41095 12.799C4.95112 12.4931 4.33037 12.6179 4.02448 13.0777L5.68969 14.1855ZM5.57143 18.642L4.78992 19.2659C4.93685 19.45 5.14401 19.5763 5.37492 19.6226L5.57143 18.642ZM12.959 8.41116C12.6338 8.85755 12.732 9.48305 13.1784 9.80825C13.6248 10.1335 14.2503 10.0352 14.5755 9.58884L12.959 8.41116ZM13.9504 12.9752C13.3988 13.0026 12.9738 13.472 13.0012 14.0236C13.0286 14.5752 13.498 15.0001 14.0496 14.9727L13.9504 12.9752ZM14.3195 16.9574C13.7962 16.7809 13.2289 17.0621 13.0524 17.5854C12.876 18.1088 13.1571 18.6761 13.6805 18.8525L14.3195 16.9574ZM10.3593 18.8391C10.8823 18.6617 11.1626 18.0939 10.9852 17.5709C10.8078 17.0479 10.2401 16.7677 9.71703 16.945L10.3593 18.8391ZM9.95036 14.9727C10.502 15.0001 10.9714 14.5752 10.9988 14.0236C11.0262 13.472 10.6012 13.0026 10.0496 12.9752L9.95036 14.9727ZM9.42449 9.58884C9.74969 10.0352 10.3752 10.1335 10.8216 9.80825C11.268 9.48305 11.3662 8.85755 11.041 8.41116L9.42449 9.58884ZM13 14C13 15.8099 12.6477 17.4496 12.2423 18.6233C12.0388 19.2125 11.8307 19.6587 11.6642 19.9383C11.5787 20.0819 11.5229 20.1498 11.5056 20.1679C11.4969 20.177 11.5203 20.1498 11.577 20.1145C11.6265 20.0838 11.7762 20 12 20V22C12.2863 22 12.5063 21.8917 12.6327 21.8132C12.7664 21.7301 12.8733 21.6318 12.9534 21.5477C13.1139 21.3793 13.2572 21.1721 13.3826 20.9616C13.638 20.5327 13.8987 19.9537 14.1327 19.2762C14.6023 17.9164 15 16.0561 15 14H13ZM12 20C12.2238 20 12.3735 20.0838 12.423 20.1145C12.4797 20.1498 12.5031 20.177 12.4944 20.1679C12.4771 20.1498 12.4213 20.0819 12.3358 19.9383C12.1693 19.6587 11.9612 19.2125 11.7577 18.6233C11.3523 17.4496 11 15.8099 11 14H9C9 16.0561 9.39766 17.9164 9.86729 19.2762C10.1013 19.9537 10.362 20.5327 10.6174 20.9616C10.7428 21.1721 10.8861 21.3793 11.0466 21.5477C11.1267 21.6318 11.2336 21.7301 11.3673 21.8132C11.4937 21.8917 11.7137 22 12 22V20ZM11 14C11 12.1901 11.3523 10.5504 11.7577 9.3767C11.9612 8.78746 12.1693 8.34133 12.3358 8.06174C12.4213 7.91808 12.4771 7.85025 12.4944 7.83212C12.5031 7.82295 12.4797 7.85021 12.423 7.88547C12.3735 7.91623 12.2238 8 12 8V6C11.7137 6 11.4937 6.10826 11.3673 6.18681C11.2336 6.26987 11.1267 6.36823 11.0466 6.45231C10.8861 6.62068 10.7428 6.82789 10.6174 7.03844C10.362 7.4673 10.1013 8.04629 9.86729 8.7238C9.39766 10.0836 9 11.9439 9 14H11ZM12 8C11.7762 8 11.6265 7.91623 11.577 7.88547C11.5203 7.85021 11.4969 7.82295 11.5056 7.83212C11.5229 7.85025 11.5787 7.91808 11.6642 8.06174C11.8307 8.34133 12.0388 8.78746 12.2423 9.3767C12.6477 10.5504 13 12.1901 13 14H15C15 11.9439 14.6023 10.0836 14.1327 8.7238C13.8987 8.04629 13.638 7.4673 13.3826 7.03844C13.2572 6.82789 13.1139 6.62068 12.9534 6.45231C12.8733 6.36823 12.7664 6.26987 12.6327 6.18681C12.5063 6.10826 12.2863 6 12 6V8ZM13 7C13 5.34315 14.3431 4 16 4V2C13.2386 2 11 4.23858 11 7H13ZM13 7C13 4.23858 10.7614 2 8 2V4C9.65685 4 11 5.34315 11 7H13ZM20.3765 12.0105C20.0864 12.2211 19.7327 12.355 19.3551 12.3901L19.5406 14.3815C20.2669 14.3139 20.9642 14.0554 21.5516 13.6289L20.3765 12.0105ZM19.5275 6.63155C20.7551 7.36772 21.0697 8.48461 20.9883 9.64293C20.9026 10.8645 20.3747 11.9434 20.1688 12.2134L21.7593 13.426C22.2136 12.8301 22.8718 11.3739 22.9834 9.78297C23.0996 8.12876 22.6228 6.15568 20.556 4.9163L19.5275 6.63155ZM2.4484 13.6289C3.03585 14.0554 3.73308 14.3139 4.45944 14.3815L4.64492 12.3901C4.26732 12.355 3.91359 12.2211 3.62348 12.0105L2.4484 13.6289ZM3.44398 4.9163C1.37715 6.15568 0.900444 8.12876 1.01656 9.78297C1.12824 11.3739 1.78639 12.8301 2.24073 13.426L3.83116 12.2134C3.62533 11.9434 3.0974 10.8645 3.01165 9.64293C2.93034 8.48461 3.24488 7.36772 4.47254 6.63155L3.44398 4.9163ZM18.3103 14.1855C18.7345 14.8231 18.8644 16.4933 17.6471 18.0182L19.2101 19.2659C20.8499 17.2119 20.9798 14.5875 19.9755 13.0777L18.3103 14.1855ZM4.02448 13.0777C3.02017 14.5875 3.15009 17.2119 4.78992 19.2659L6.35293 18.0182C5.13562 16.4933 5.26554 14.8231 5.68969 14.1855L4.02448 13.0777ZM14.5755 9.58884C15.1974 8.73528 16.1015 7.68461 17.0767 7.01978C18.0608 6.34883 18.8541 6.22723 19.527 6.63126L20.5565 4.91659C18.8908 3.91645 17.1946 4.51874 15.95 5.3673C14.6964 6.22198 13.6327 7.48643 12.959 8.41116L14.5755 9.58884ZM19.283 12.3995C17.5199 12.6941 15.739 12.8863 13.9504 12.9752L14.0496 14.9727C15.9152 14.88 17.773 14.6796 19.6126 14.3722L19.283 12.3995ZM18.2321 17.6615C17.8325 17.7416 17.1863 17.694 16.4031 17.5343C15.6514 17.3809 14.8904 17.1499 14.3195 16.9574L13.6805 18.8525C14.2919 19.0587 15.1392 19.3176 16.0033 19.4939C16.8358 19.6637 17.8128 19.7854 18.6251 19.6226L18.2321 17.6615ZM5.37492 19.6226C6.19538 19.787 7.18466 19.6613 8.02501 19.4881C8.89766 19.3082 9.75112 19.0453 10.3593 18.8391L9.71703 16.945C9.14899 17.1376 8.3816 17.3725 7.6212 17.5293C6.82849 17.6927 6.17252 17.7426 5.76794 17.6615L5.37492 19.6226ZM4.38736 14.3722C6.227 14.6796 8.08484 14.88 9.95036 14.9727L10.0496 12.9752C8.26105 12.8863 6.48013 12.6941 4.717 12.3995L4.38736 14.3722ZM11.041 8.41116C10.3673 7.48643 9.30356 6.22198 8.04999 5.3673C6.80539 4.51874 5.10923 3.91645 3.4435 4.91659L4.47302 6.63126C5.14593 6.22723 5.93925 6.34883 6.92334 7.01978C7.89847 7.68461 8.80265 8.73528 9.42449 9.58884L11.041 8.41116Z" fill="black"/>
</svg>
