<svg width="24" height="24" viewBox="0 0 24 24" fill="none" xmlns="http://www.w3.org/2000/svg">
<path d="M20 13C20 17.4182 16.4183 21 12 21C7.58172 21 4 17.4182 4 13M20 13C20 8.58169 16.4183 4.99997 12 4.99997C7.58172 4.99997 4 8.58169 4 13M20 13H22M4 13H2M15 4.99997L18.1984 3.08091C18.9205 2.64769 19.822 3.24625 19.7029 4.07982L19 8.99997M9 4.99997L5.80157 3.08091C5.07953 2.64769 4.17804 3.24625 4.29712 4.07982L5 8.99997M9 11V12M15 11V12M11 14H13M10.5 17C11.3284 17 12 16.3284 12 15.5M12 15.5C12 16.3284 12.6716 17 13.5 17M12 15.5V14M4 15L2 16M20 15L22 16" stroke="black" stroke-width="2" stroke-linecap="round"/>
</svg>
