<svg width="24" height="24" viewBox="0 0 24 24" fill="none" xmlns="http://www.w3.org/2000/svg">
<path d="M21 6.47446C20.2511 5.41092 19.3184 4.48609 18.2481 3.74613C17.5346 3.25284 16.5844 3.41559 15.9711 4.02896L15 5.00004M3 6.47446C3.74895 5.41092 4.68165 4.48609 5.75193 3.74613C6.46544 3.25284 7.41555 3.41559 8.02892 4.02896L9 5.00004M9 11V12M15 11V12M11 14H13M10.5 17C11.3284 17 12 16.3285 12 15.5M12 15.5C12 16.3285 12.6716 17 13.5 17M12 15.5V14M20 13C20 17.4183 16.4183 21 12 21C7.58172 21 4 17.4183 4 13C4 8.58176 7.58172 5.00004 12 5.00004C16.4183 5.00004 20 8.58176 20 13Z" stroke="black" stroke-width="2" stroke-linecap="round"/>
</svg>
