<svg width="24" height="24" viewBox="0 0 24 24" fill="none" xmlns="http://www.w3.org/2000/svg">
<path d="M12.0041 18.6826L12.7728 18.043L12.0041 17.1192L11.2354 18.043L12.0041 18.6826ZM16.7072 19.192L16.0473 18.4407L16.7072 19.192ZM17.2415 14.1032L16.4438 14.7063L17.2415 14.1032ZM6.76674 14.1032L7.56445 14.7063H7.56445L6.76674 14.1032ZM7.30104 19.192L6.65144 19.9523L7.30104 19.192ZM13.8094 10.8037L13.4483 11.7363V11.7363L13.8094 10.8037ZM10.1989 10.8037L10.5599 11.7363L10.5599 11.7363L10.1989 10.8037ZM4.62476 8.62494C4.07247 8.62494 3.62476 9.07265 3.62476 9.62494C3.62476 10.1772 4.07247 10.6249 4.62476 10.6249V8.62494ZM5.37476 10.6249C5.92704 10.6249 6.37476 10.1772 6.37476 9.62494C6.37476 9.07265 5.92704 8.62494 5.37476 8.62494V10.6249ZM4.62476 9.37494C4.07247 9.37494 3.62476 9.82265 3.62476 10.3749C3.62476 10.9272 4.07247 11.3749 4.62476 11.3749V9.37494ZM5.37476 11.3749C5.92704 11.3749 6.37476 10.9272 6.37476 10.3749C6.37476 9.82265 5.92704 9.37494 5.37476 9.37494V11.3749ZM8.62476 5.62494C8.07247 5.62494 7.62476 6.07265 7.62476 6.62494C7.62476 7.17722 8.07247 7.62494 8.62476 7.62494V5.62494ZM9.37476 7.62494C9.92704 7.62494 10.3748 7.17722 10.3748 6.62494C10.3748 6.07265 9.92704 5.62494 9.37476 5.62494V7.62494ZM8.62476 6.37494C8.07247 6.37494 7.62476 6.82265 7.62476 7.37494C7.62476 7.92722 8.07247 8.37494 8.62476 8.37494V6.37494ZM9.37476 8.37494C9.92704 8.37494 10.3748 7.92722 10.3748 7.37494C10.3748 6.82265 9.92704 6.37494 9.37476 6.37494V8.37494ZM13.6248 4.62494C13.0725 4.62494 12.6248 5.07265 12.6248 5.62494C12.6248 6.17722 13.0725 6.62494 13.6248 6.62494V4.62494ZM14.3748 6.62494C14.927 6.62494 15.3748 6.17722 15.3748 5.62494C15.3748 5.07265 14.927 4.62494 14.3748 4.62494V6.62494ZM13.6248 5.37494C13.0725 5.37494 12.6248 5.82265 12.6248 6.37494C12.6248 6.92722 13.0725 7.37494 13.6248 7.37494V5.37494ZM14.3748 7.37494C14.927 7.37494 15.3748 6.92722 15.3748 6.37494C15.3748 5.82265 14.927 5.37494 14.3748 5.37494V7.37494ZM18.6248 8.62494C18.0725 8.62494 17.6248 9.07265 17.6248 9.62494C17.6248 10.1772 18.0725 10.6249 18.6248 10.6249V8.62494ZM19.3748 10.6249C19.927 10.6249 20.3748 10.1772 20.3748 9.62494C20.3748 9.07265 19.927 8.62494 19.3748 8.62494V10.6249ZM18.6248 9.37494C18.0725 9.37494 17.6248 9.82265 17.6248 10.3749C17.6248 10.9272 18.0725 11.3749 18.6248 11.3749V9.37494ZM19.3748 11.3749C19.927 11.3749 20.3748 10.9272 20.3748 10.3749C20.3748 9.82265 19.927 9.37494 19.3748 9.37494V11.3749ZM11.2354 19.3223C12.726 21.1136 15.3644 21.7023 17.3671 19.9433L16.0473 18.4407C15.0439 19.322 13.6815 19.1351 12.7728 18.043L11.2354 19.3223ZM17.3671 19.9433C19.263 18.2781 19.536 15.4801 18.0392 13.5002L16.4438 14.7063C17.3077 15.849 17.1574 17.4656 16.0473 18.4407L17.3671 19.9433ZM5.96903 13.5002C4.48076 15.4689 4.70642 18.2904 6.65144 19.9523L7.95063 18.4317C6.83792 17.481 6.69204 15.8603 7.56445 14.7063L5.96903 13.5002ZM6.65144 19.9523C8.6698 21.6768 11.2746 21.1228 12.7728 19.3223L11.2354 18.043C10.3344 19.1258 8.99 19.3198 7.95063 18.4317L6.65144 19.9523ZM18.0392 13.5002C16.6811 11.7037 15.8119 10.5067 14.1704 9.87119L13.4483 11.7363C14.4586 12.1274 14.9935 12.7879 16.4438 14.7063L18.0392 13.5002ZM7.56445 14.7063C9.01468 12.7879 9.54961 12.1274 10.5599 11.7363L9.8378 9.87119C8.19631 10.5067 7.3271 11.7037 5.96903 13.5002L7.56445 14.7063ZM14.1704 9.87119C13.5465 9.62964 12.7371 9.53514 12.0041 9.53514C11.2711 9.53514 10.4617 9.62964 9.8378 9.87119L10.5599 11.7363C10.861 11.6197 11.3944 11.5351 12.0041 11.5351C12.6138 11.5351 13.1472 11.6197 13.4483 11.7363L14.1704 9.87119ZM5 10H5V12C6.10457 12 7 11.1046 7 10H5ZM5 10H5H3C3 11.1046 3.89543 12 5 12V10ZM5 10H5V8C3.89543 8 3 8.89543 3 10H5ZM5 10H5H7C7 8.89543 6.10457 8 5 8V10ZM4.62476 10.6249H5.37476V8.62494H4.62476V10.6249ZM4.62476 11.3749H5.37476V9.37494H4.62476V11.3749ZM9 7H9V9C10.1046 9 11 8.10457 11 7H9ZM9 7H9H7C7 8.10457 7.89543 9 9 9V7ZM9 7H9V5C7.89543 5 7 5.89543 7 7H9ZM9 7H9H11C11 5.89543 10.1046 5 9 5V7ZM8.62476 7.62494H9.37476V5.62494H8.62476V7.62494ZM8.62476 8.37494H9.37476V6.37494H8.62476V8.37494ZM14 6V8C15.1046 8 16 7.10457 16 6H14ZM14 6H12C12 7.10457 12.8954 8 14 8V6ZM14 6V4C12.8954 4 12 4.89543 12 6H14ZM14 6H16C16 4.89543 15.1046 4 14 4V6ZM13.6248 6.62494H14.3748V4.62494H13.6248V6.62494ZM13.6248 7.37494H14.3748V5.37494H13.6248V7.37494ZM19 10V12C20.1046 12 21 11.1046 21 10H19ZM19 10H17C17 11.1046 17.8954 12 19 12V10ZM19 10V8C17.8954 8 17 8.89543 17 10H19ZM19 10H21C21 8.89543 20.1046 8 19 8V10ZM18.6248 10.6249H19.3748V8.62494H18.6248V10.6249ZM18.6248 11.3749H19.3748V9.37494H18.6248V11.3749Z" fill="black"/>
</svg>
