<svg width="24" height="24" viewBox="0 0 24 24" fill="none" xmlns="http://www.w3.org/2000/svg">
<path d="M3 12H21M10 3H14M12 15V17M16 15L15 17M8 15L9 17M5.54415 7.36754L4.18417 11.4475C4.06389 11.8083 4.049 12.196 4.14125 12.565L5.62127 18.4851C5.84385 19.3754 6.64382 20 7.56155 20H16.4384C17.3562 20 18.1561 19.3754 18.3787 18.4851L19.8587 12.565C19.951 12.196 19.9361 11.8083 19.8158 11.4475L18.4558 7.36754C18.1836 6.55086 17.4193 6 16.5585 6H7.44152C6.58066 6 5.81638 6.55086 5.54415 7.36754Z" stroke="black" stroke-width="2" stroke-linecap="round"/>
</svg>
