<svg width="24" height="24" viewBox="0 0 24 24" fill="none" xmlns="http://www.w3.org/2000/svg">
<path d="M10 7L9.87868 6.87868C9.31607 6.31607 9 5.55301 9 4.75736V4M14 7L14.1213 6.87868C14.6839 6.31607 15 5.55301 15 4.75736V4M19 4L19.5331 6.13238C19.8176 7.27039 19.4127 8.46981 18.4968 9.2026L15 11.9996C16.2144 12.9118 17 14.3642 17 16C17 18.7614 14.7614 21 12 21C9.23858 21 7 18.7614 7 16C7 14.3643 7.78565 12.9122 9 12L5.50325 9.2026C4.58727 8.46981 4.1824 7.27039 4.4669 6.13238L5 4M19 21L19.4399 19.436C19.7771 18.237 19.3384 16.9544 18.3376 16.213L17 15.2222M5 21L4.56011 19.436C4.22291 18.237 4.66157 16.9544 5.66238 16.213L7 15.2222M16 13H18.2918C18.7575 13 19.2169 13.1084 19.6334 13.3167L21 14M8 13H5.7082C5.24247 13 4.78313 13.1084 4.36656 13.3167L3 14M15 10C15 11.6569 13.6569 13 12 13C10.3431 13 9 11.6569 9 10C9 8.34315 10.3431 7 12 7C13.6569 7 15 8.34315 15 10Z" stroke="black" stroke-width="2" stroke-linecap="round"/>
</svg>
