<svg width="24" height="24" viewBox="0 0 24 24" fill="none" xmlns="http://www.w3.org/2000/svg">
<path d="M21.6963 12.7337L20.7024 12.6232L21.6963 12.7337ZM21 19V20H21.895L21.9939 19.1105L21 19ZM13 19L12.0513 19.3163L12.2792 20H13V19ZM12.4733 17.4199L13.422 17.1037L12.4733 17.4199ZM10.6613 15.3307L10.2141 16.2251H10.2141L10.6613 15.3307ZM9.87548 14.9378L9.42827 15.8322H9.42827L9.87548 14.9378ZM11.9764 11.3176L12.5311 10.4856L11.9764 11.3176ZM13 12L12.4453 12.8321L14 13.8686V12H13ZM17 9.00005H16V9.81985L16.8039 9.98063L17 9.00005ZM19.303 9.46064L19.1068 10.4412L19.303 9.46064ZM8.93774 12.1246L8.04331 11.6773L8.93774 12.1246ZM4 7.00005C4 6.44776 3.55228 6.00005 3 6.00005C2.44772 6.00005 2 6.44776 2 7.00005H4ZM4.98806 10.503L4.74552 9.53289H4.74552L4.98806 10.503ZM7.24254 10.9702C7.77833 10.8362 8.10409 10.2933 7.97014 9.75751C7.83619 9.22171 7.29326 8.89595 6.75746 9.0299L7.24254 10.9702ZM3.14473 10.2375L4 9.71927L4 9.71927L3.14473 10.2375ZM3.70472 10.6747L3.40943 11.6301H3.40943L3.70472 10.6747ZM7.89898 7.0001C7.89898 7.55239 8.34669 8.0001 8.89898 8.0001C9.45126 8.0001 9.89898 7.55239 9.89898 7.00011L7.89898 7.0001ZM8.89898 5.07946L7.89898 5.07946V5.07946L8.89898 5.07946ZM6.91464 3.52631L7.15485 4.49703H7.15485L6.91464 3.52631ZM4.75978 3.02938C4.22367 3.16205 3.89661 3.7042 4.02927 4.24032C4.16194 4.77643 4.70409 5.10349 5.2402 4.97082L4.75978 3.02938ZM8.75462 3.79531L7.89898 4.31289V4.31289L8.75462 3.79531ZM8.19587 3.35798L7.89898 4.31289L7.89898 4.31289L8.19587 3.35798ZM20.7024 12.6232L20.0061 18.8896L21.9939 19.1105L22.6901 12.8441L20.7024 12.6232ZM13.9487 18.6838L13.422 17.1037L11.5246 17.7362L12.0513 19.3163L13.9487 18.6838ZM11.1085 14.4363L10.3227 14.0434L9.42827 15.8322L10.2141 16.2251L11.1085 14.4363ZM11.4217 12.1497L12.4453 12.8321L13.5547 11.168L12.5311 10.4856L11.4217 12.1497ZM14 12V6.00005H12V12H14ZM16 6.00005V9.00005H18V6.00005H16ZM19.4991 8.48006L17.1961 8.01946L16.8039 9.98063L19.1068 10.4412L19.4991 8.48006ZM21 18L13 18V20L21 20V18ZM18 6.00005C18 4.34319 16.6569 3.00005 15 3.00005V5.00005C15.5523 5.00005 16 5.44776 16 6.00005H18ZM14 6.00005C14 5.44776 14.4477 5.00005 15 5.00005V3.00005C13.3431 3.00005 12 4.34319 12 6.00005H14ZM10.3227 14.0434C9.78087 13.7724 9.56126 13.1136 9.83217 12.5718L8.04331 11.6773C7.27842 13.2071 7.89849 15.0673 9.42827 15.8322L10.3227 14.0434ZM13.422 17.1037C13.0351 15.943 12.2029 14.9835 11.1085 14.4363L10.2141 16.2251C10.834 16.5351 11.3054 17.0786 11.5246 17.7362L13.422 17.1037ZM12.5311 10.4856C10.9811 9.45229 8.87636 10.0113 8.04331 11.6773L9.83217 12.5718C10.1272 11.9817 10.8727 11.7837 11.4217 12.1497L12.5311 10.4856ZM22.6901 12.8441C22.9193 10.782 21.5336 8.88696 19.4991 8.48006L19.1068 10.4412C20.1241 10.6447 20.8169 11.5922 20.7024 12.6232L22.6901 12.8441ZM2 7.00005V8.9508H4V7.00005H2ZM5.23059 11.4732L7.24254 10.9702L6.75746 9.0299L4.74552 9.53289L5.23059 11.4732ZM2 8.9508C2 9.28171 1.99908 9.59574 2.02198 9.85462C2.04555 10.121 2.10146 10.4453 2.28947 10.7556L4 9.71927C4.04327 9.79068 4.02682 9.82101 4.0142 9.67836C4.00092 9.52827 4 9.31841 4 8.9508H2ZM4.74552 9.53289C4.38889 9.62205 4.18508 9.67205 4.03624 9.69557C3.89479 9.71793 3.92022 9.69461 4 9.71927L3.40943 11.6301C3.75606 11.7372 4.08434 11.7128 4.34843 11.6711C4.60513 11.6305 4.90957 11.5534 5.23059 11.4732L4.74552 9.53289ZM2.28947 10.7556C2.54317 11.1744 2.94166 11.4855 3.40943 11.6301L4 9.71927L4 9.71927L2.28947 10.7556ZM9.89898 7.00011L9.89898 5.07947L7.89898 5.07946L7.89898 7.0001L9.89898 7.00011ZM6.67443 2.55559L4.75978 3.02938L5.2402 4.97082L7.15485 4.49703L6.67443 2.55559ZM9.89898 5.07947C9.89898 4.7493 9.8999 4.43587 9.87705 4.17743C9.85354 3.91148 9.79773 3.58766 9.61026 3.27774L7.89898 4.31289C7.85587 4.24162 7.87225 4.21138 7.88482 4.35359C7.89806 4.50331 7.89898 4.71263 7.89898 5.07946L9.89898 5.07947ZM7.15485 4.49703C7.51095 4.40891 7.71436 4.35952 7.86288 4.33641C8.00394 4.31446 7.97852 4.33762 7.89898 4.31289L8.49276 2.40306C8.14688 2.29553 7.81913 2.31914 7.55532 2.3602C7.29896 2.4001 6.99493 2.47628 6.67443 2.55559L7.15485 4.49703ZM9.61026 3.27774C9.3572 2.85938 8.95965 2.54822 8.49276 2.40306L7.89898 4.31289V4.31289L9.61026 3.27774Z" fill="black"/>
</svg>
