<svg viewBox="0 0 24 24" fill="none" xmlns="http://www.w3.org/2000/svg">
<path d="M17 14C15.3431 14 14 15.3431 14 17C14 18.6569 15.3431 20 17 20C18.6569 20 20 18.6569 20 17C20 15.3431 18.6569 14 17 14ZM17 14C17.3163 9.57145 15.152 6.10183 13.3259 4.1846C12.9774 3.81868 12.4205 4.20545 12.5263 4.69957C13.0487 7.13788 12.9072 10.8743 9 14M10 17C10 18.6569 8.65685 20 7 20C5.34315 20 4 18.6569 4 17C4 15.3431 5.34315 14 7 14C8.65685 14 10 15.3431 10 17ZM12 7C12 8.65685 10.465 10 8.57143 10C7.06403 10 5.05958 8.09881 4.30473 7.3234C4.12738 7.14121 4.12738 6.85879 4.30473 6.6766C5.05958 5.90119 7.06403 4 8.57143 4C10.465 4 12 5.34315 12 7Z" stroke="black" stroke-width="2" stroke-linecap="round"/>
</svg>
