<svg viewBox="0 0 24 24" fill="none" xmlns="http://www.w3.org/2000/svg">
<path d="M12 6V2M6.59904 21H17.401C17.6492 21 17.8599 20.8178 17.8957 20.5722L18.9166 13.5722C18.9606 13.2705 18.7267 13 18.4218 13H5.57821C5.27334 13 5.03945 13.2705 5.08344 13.5722L6.10427 20.5722C6.1401 20.8178 6.35077 21 6.59904 21ZM4.75 13C3.7835 13 3 12.2165 3 11.25C3 8.35051 5.3505 6 8.25 6H15.75C18.6495 6 21 8.35051 21 11.25C21 12.2165 20.2165 13 19.25 13H4.75Z" stroke="currentColor" stroke-width="2" stroke-linecap="round"/>
</svg>
