<svg viewBox="0 0 24 24" fill="none" xmlns="http://www.w3.org/2000/svg">
<path d="M14 5H19M14 9H19M14 15H19M14 19H19M7 10C6.06812 10 5.60218 10 5.23463 9.84776C4.74458 9.64477 4.35523 9.25542 4.15224 8.76537C4 8.39782 4 7.93188 4 7C4 6.06812 4 5.60218 4.15224 5.23463C4.35523 4.74458 4.74458 4.35523 5.23463 4.15224C5.60218 4 6.06812 4 7 4C7.93188 4 8.39782 4 8.76537 4.15224C9.25542 4.35523 9.64477 4.74458 9.84776 5.23463C10 5.60218 10 6.06812 10 7C10 7.93188 10 8.39782 9.84776 8.76537C9.64477 9.25542 9.25542 9.64477 8.76537 9.84776C8.39782 10 7.93188 10 7 10ZM7 20C6.06812 20 5.60218 20 5.23463 19.8478C4.74458 19.6448 4.35523 19.2554 4.15224 18.7654C4 18.3978 4 17.9319 4 17C4 16.0681 4 15.6022 4.15224 15.2346C4.35523 14.7446 4.74458 14.3552 5.23463 14.1522C5.60218 14 6.06812 14 7 14C7.93188 14 8.39782 14 8.76537 14.1522C9.25542 14.3552 9.64477 14.7446 9.84776 15.2346C10 15.6022 10 16.0681 10 17C10 17.9319 10 18.3978 9.84776 18.7654C9.64477 19.2554 9.25542 19.6448 8.76537 19.8478C8.39782 20 7.93188 20 7 20Z" stroke="black" stroke-width="2" stroke-linecap="round"/>
</svg>
