<svg viewBox="0 0 24 24" fill="none" xmlns="http://www.w3.org/2000/svg">
<path d="M20 8.0001V16.0235C20 16.8801 20 17.3084 19.8365 17.6355C19.6927 17.9233 19.4632 18.1573 19.181 18.3039C18.8601 18.4706 18.4401 18.4706 17.6 18.4706C17.2686 18.4706 17 18.7392 17 19.0706V19.994C17 20.3095 16.6384 20.4882 16.3878 20.2966L14.8605 19.1286C14.5414 18.8846 14.3817 18.7625 14.2054 18.6758C14.049 18.5989 13.8831 18.5428 13.7121 18.5088C13.5194 18.4706 13.3185 18.4706 12.9167 18.4706H8.99998M4.4 4.76471H14.6C15.4401 4.76471 15.8601 4.76471 16.181 4.93141C16.4632 5.07804 16.6927 5.31201 16.8365 5.59978C17 5.92694 17 6.35522 17 7.21177V13.0235C17 13.8801 17 14.3084 16.8365 14.6355C16.6927 14.9233 16.4632 15.1573 16.181 15.3039C15.8601 15.4706 15.4401 15.4706 14.6 15.4706H9.08331C8.68149 15.4706 8.48058 15.4706 8.28786 15.5088C8.11685 15.5428 7.95101 15.5989 7.79456 15.6758C7.61825 15.7625 7.45864 15.8846 7.13947 16.1286L5.61221 17.2966C5.3616 17.4882 5 17.3095 5 16.994V16.0706C5 15.7392 4.73137 15.4706 4.4 15.4706C3.55992 15.4706 3.13988 15.4706 2.81901 15.3039C2.53677 15.1573 2.3073 14.9233 2.16349 14.6355C2 14.3084 2 13.8801 2 13.0235V7.21177C2 6.35522 2 5.92694 2.16349 5.59978C2.3073 5.31201 2.53677 5.07804 2.81901 4.93141C3.13988 4.76471 3.55992 4.76471 4.4 4.76471Z" stroke="black" stroke-width="2" stroke-linecap="round"/>
</svg>
