<svg viewBox="0 0 24 24" fill="none" xmlns="http://www.w3.org/2000/svg">
<path d="M20 5V19M4 5L4 19M14.4 4L9.6 4C9.03995 4 8.75992 4 8.54601 4.10899C8.35785 4.20487 8.20487 4.35785 8.10899 4.54601C8 4.75992 8 5.03995 8 5.6L8 18.4C8 18.9601 8 19.2401 8.10899 19.454C8.20487 19.6422 8.35785 19.7951 8.54601 19.891C8.75992 20 9.03995 20 9.6 20H14.4C14.9601 20 15.2401 20 15.454 19.891C15.6422 19.7951 15.7951 19.6422 15.891 19.454C16 19.2401 16 18.9601 16 18.4L16 5.6C16 5.03995 16 4.75992 15.891 4.54601C15.7951 4.35785 15.6422 4.20487 15.454 4.10899C15.2401 4 14.9601 4 14.4 4Z" stroke="black" stroke-width="2" stroke-linecap="round"/>
</svg>
