<svg viewBox="0 0 24 24" fill="none" xmlns="http://www.w3.org/2000/svg">
  <path d="M17 9.73684C16 9.73684 15 10.0684 14.2222 10.6211V9.73684H9.77778V23H12H14.2222V15.8158C14.2222 14.9316 15 14.1579 15.8889 14.1579C16.7778 14.1579 17.5556 14.9316 17.5556 15.8158V23H22V14.7105C22 11.9474 19.7778 9.73684 17 9.73684Z" stroke="currentColor" stroke-width="2" stroke-miterlimit="10" stroke-linecap="round" stroke-linejoin="round"/>
  <path d="M6.44444 9.73684H2V23H6.44444V9.73684Z" stroke="currentColor" stroke-width="2" stroke-miterlimit="10" stroke-linecap="round" stroke-linejoin="round"/>
  <path d="M4.22222 6.42105C5.44952 6.42105 6.44444 5.43137 6.44444 4.21053C6.44444 2.98969 5.44952 2 4.22222 2C2.99492 2 2 2.98969 2 4.21053C2 5.43137 2.99492 6.42105 4.22222 6.42105Z" stroke="currentColor" stroke-width="2" stroke-miterlimit="10" stroke-linecap="round" stroke-linejoin="round"/>
</svg>
