<svg width="24" height="24" viewBox="0 0 24 24" fill="none" xmlns="http://www.w3.org/2000/svg">
<path d="M13.2928 12.7074C13.6833 13.0979 14.3165 13.0979 14.707 12.7074C15.0976 12.3168 15.0976 11.6837 14.707 11.2932L13.2928 12.7074ZM10.7067 7.29283C10.3162 6.90231 9.68302 6.90231 9.29249 7.29283C8.90197 7.68336 8.90197 8.31652 9.29249 8.70705L10.7067 7.29283ZM9.29257 11.2932C8.90205 11.6837 8.90205 12.3168 9.29257 12.7074C9.6831 13.0979 10.3163 13.0979 10.7068 12.7074L9.29257 11.2932ZM14.7071 8.70705C15.0976 8.31652 15.0976 7.68336 14.7071 7.29283C14.3166 6.90231 13.6834 6.90231 13.2929 7.29283L14.7071 8.70705ZM21.782 15.9079L22.673 16.3619L22.673 16.3619L21.782 15.9079ZM20.908 16.782L21.362 17.673L20.908 16.782ZM20.908 3.21793L21.362 2.32692V2.32692L20.908 3.21793ZM21.782 4.09196L22.673 3.63797V3.63797L21.782 4.09196ZM3.09202 3.21793L3.54601 4.10893L3.54601 4.10893L3.09202 3.21793ZM2.21799 4.09196L3.10899 4.54595L3.10899 4.54595L2.21799 4.09196ZM3.20734 20.386L3.78423 21.2029L3.78437 21.2028L3.20734 20.386ZM7.16989 17.5864L6.59286 16.7697H6.59286L7.16989 17.5864ZM2.09027 20.4775L2.90973 19.9044L2.90973 19.9044L2.09027 20.4775ZM3.10335 20.4483L2.65661 19.5536L2.6566 19.5536L3.10335 20.4483ZM2.42692 20.6856L2.28076 21.6748H2.28076L2.42692 20.6856ZM3.16983 20.4119L2.63063 19.5697L2.63054 19.5698L3.16983 20.4119ZM3.14376 20.4275L2.65674 19.5541L2.65668 19.5541L3.14376 20.4275ZM8.26828 17.0339L8.45176 18.0169L8.45176 18.0169L8.26828 17.0339ZM7.80048 17.1825L8.21786 18.0912L8.21786 18.0912L7.80048 17.1825ZM14.707 11.2932L10.7067 7.29283L9.29249 8.70705L13.2928 12.7074L14.707 11.2932ZM10.7068 12.7074L14.7071 8.70705L13.2929 7.29283L9.29257 11.2932L10.7068 12.7074ZM5.2 3.99994H18.8V1.99994H5.2V3.99994ZM21 6.19994V13.7999H23V6.19994H21ZM21 13.7999C21 14.3765 20.9992 14.7488 20.9761 15.0321C20.9539 15.3038 20.9162 15.4045 20.891 15.4539L22.673 16.3619C22.8658 15.9835 22.9371 15.5903 22.9694 15.195C23.0008 14.8113 23 14.3435 23 13.7999H21ZM18.8 17.9999C19.3436 17.9999 19.8114 18.0007 20.195 17.9694C20.5904 17.9371 20.9836 17.8658 21.362 17.673L20.454 15.8909C20.4045 15.9161 20.3038 15.9538 20.0322 15.976C19.7488 15.9992 19.3766 15.9999 18.8 15.9999V17.9999ZM20.891 15.4539C20.7951 15.6421 20.6422 15.7951 20.454 15.8909L21.362 17.673C21.9265 17.3853 22.3854 16.9264 22.673 16.3619L20.891 15.4539ZM18.8 3.99994C19.3766 3.99994 19.7488 4.00072 20.0322 4.02387C20.3038 4.04606 20.4045 4.08374 20.454 4.10893L21.362 2.32692C20.9836 2.13413 20.5904 2.06281 20.195 2.03051C19.8114 1.99916 19.3436 1.99994 18.8 1.99994V3.99994ZM23 6.19994C23 5.65639 23.0008 5.18858 22.9694 4.80491C22.9371 4.40957 22.8658 4.01635 22.673 3.63797L20.891 4.54595C20.9162 4.59539 20.9539 4.69611 20.9761 4.96777C20.9992 5.25111 21 5.62339 21 6.19994H23ZM20.454 4.10893C20.6422 4.2048 20.7951 4.35779 20.891 4.54595L22.673 3.63797C22.3854 3.07348 21.9265 2.61454 21.362 2.32692L20.454 4.10893ZM5.2 1.99994C4.65645 1.99994 4.18864 1.99916 3.80497 2.03051C3.40963 2.06281 3.01641 2.13413 2.63803 2.32692L3.54601 4.10893C3.59545 4.08374 3.69617 4.04606 3.96784 4.02387C4.25117 4.00072 4.62345 3.99994 5.2 3.99994V1.99994ZM3 6.19994C3 5.62339 3.00078 5.25111 3.02393 4.96777C3.04612 4.69611 3.0838 4.59539 3.10899 4.54595L1.32698 3.63797C1.13419 4.01635 1.06287 4.40957 1.03057 4.80491C0.999222 5.18858 1 5.65639 1 6.19994H3ZM2.63803 2.32692C2.07354 2.61454 1.6146 3.07348 1.32698 3.63797L3.10899 4.54595C3.20487 4.35779 3.35785 4.20481 3.54601 4.10893L2.63803 2.32692ZM18.8 15.9999H9.01639V17.9999H18.8V15.9999ZM3.78437 21.2028L7.74692 18.4031L6.59286 16.7697L2.63031 19.5693L3.78437 21.2028ZM1 19.7055C1 19.9003 0.999003 20.1153 1.01545 20.295C1.03176 20.4732 1.0748 20.7704 1.27082 21.0506L2.90973 19.9044C2.96386 19.9817 2.98927 20.0514 3.00042 20.0908C3.01028 20.1257 3.00955 20.1392 3.00712 20.1127C3.00477 20.087 3.00251 20.0442 3.00126 19.9717C3.00003 19.8996 3 19.8152 3 19.7055H1ZM2.6566 19.5536C2.56941 19.5971 2.50231 19.6303 2.44576 19.657C2.38865 19.6839 2.35586 19.6976 2.33782 19.7044C2.31922 19.7114 2.33421 19.7041 2.37166 19.6975C2.41332 19.6901 2.48435 19.6832 2.57308 19.6963L2.28076 21.6748C2.60412 21.7226 2.87711 21.6385 3.04307 21.5759C3.20801 21.5138 3.38921 21.4233 3.55009 21.3429L2.6566 19.5536ZM1.27082 21.0506C1.50729 21.3887 1.8726 21.6145 2.28076 21.6748L2.57308 19.6963C2.70913 19.7164 2.8309 19.7916 2.90973 19.9044L1.27082 21.0506ZM3 19.7055V6.19994H1V19.7055H3ZM2.63045 19.5692C2.62566 19.5726 2.62242 19.5749 2.61967 19.5768C2.61697 19.5787 2.6159 19.5795 2.61571 19.5796C2.61558 19.5797 2.62157 19.5755 2.63063 19.5697L3.70904 21.2541C3.7421 21.2329 3.77315 21.2107 3.78423 21.2029L2.63045 19.5692ZM3.55008 21.3429C3.56287 21.3365 3.59646 21.32 3.63084 21.3009L2.65668 19.5541C2.66568 19.5491 2.6721 19.5458 2.6725 19.5456C2.67253 19.5456 2.67224 19.5458 2.67153 19.5461C2.67082 19.5465 2.66983 19.547 2.66844 19.5477C2.66547 19.5492 2.66191 19.5509 2.65661 19.5536L3.55008 21.3429ZM2.63054 19.5698C2.63917 19.5643 2.64785 19.5591 2.65674 19.5541L3.63077 21.3009C3.6573 21.2861 3.68349 21.2704 3.70913 21.254L2.63054 19.5698ZM9.01639 15.9999C8.67508 15.9999 8.37861 15.996 8.0848 16.0509L8.45176 18.0169C8.52177 18.0038 8.60276 17.9999 9.01639 17.9999V15.9999ZM7.74692 18.4031C8.08472 18.1645 8.15315 18.1209 8.21786 18.0912L7.38311 16.2737C7.1115 16.3985 6.87159 16.5728 6.59286 16.7697L7.74692 18.4031ZM8.0848 16.0509C7.84264 16.0961 7.60696 16.1709 7.3831 16.2737L8.21786 18.0912C8.29248 18.0569 8.37104 18.032 8.45176 18.0169L8.0848 16.0509Z" fill="black"/>
</svg>
