<svg width="24" height="24" viewBox="0 0 24 24" fill="none" xmlns="http://www.w3.org/2000/svg">
<path d="M15.0164 12C15.5687 12 16.0164 11.5523 16.0164 11C16.0164 10.4477 15.5687 10 15.0164 10V12ZM9.01639 10C8.4641 10 8.01639 10.4477 8.01639 11C8.01639 11.5523 8.4641 12 9.01639 12V10ZM21.782 16.908L22.673 17.362L22.673 17.362L21.782 16.908ZM20.908 17.782L21.362 18.673L20.908 17.782ZM20.908 4.21799L21.362 3.32698V3.32698L20.908 4.21799ZM21.782 5.09202L22.673 4.63803V4.63803L21.782 5.09202ZM3.09202 4.21799L3.54601 5.10899H3.54601L3.09202 4.21799ZM2.21799 5.09202L3.10899 5.54601V5.54601L2.21799 5.09202ZM3.20734 21.3861L3.78426 22.2029L3.78437 22.2028L3.20734 21.3861ZM7.16989 18.5865L6.59287 17.7698L6.59286 17.7698L7.16989 18.5865ZM2.09027 21.4776L2.90973 20.9044L2.90973 20.9044L2.09027 21.4776ZM3.10335 21.4483L2.65661 20.5536L2.6566 20.5537L3.10335 21.4483ZM2.42692 21.6856L2.28076 22.6749H2.28076L2.42692 21.6856ZM3.16983 21.412L2.63068 20.5697L2.63054 20.5698L3.16983 21.412ZM3.14376 21.4276L2.65674 20.5542L2.65668 20.5542L3.14376 21.4276ZM8.26828 18.034L8.45176 19.017L8.45176 19.017L8.26828 18.034ZM7.80048 18.1825L8.21786 19.0913L8.21786 19.0913L7.80048 18.1825ZM15.0164 10H9.01639V12H15.0164V10ZM5.2 5H18.8V3H5.2V5ZM21 7.2V14.8H23V7.2H21ZM21 14.8C21 15.3766 20.9992 15.7488 20.9761 16.0322C20.9539 16.3038 20.9162 16.4045 20.891 16.454L22.673 17.362C22.8658 16.9836 22.9371 16.5904 22.9694 16.195C23.0008 15.8114 23 15.3436 23 14.8H21ZM18.8 19C19.3436 19 19.8114 19.0008 20.195 18.9694C20.5904 18.9371 20.9836 18.8658 21.362 18.673L20.454 16.891C20.4045 16.9162 20.3038 16.9539 20.0322 16.9761C19.7488 16.9992 19.3766 17 18.8 17V19ZM20.891 16.454C20.7951 16.6422 20.6422 16.7951 20.454 16.891L21.362 18.673C21.9265 18.3854 22.3854 17.9265 22.673 17.362L20.891 16.454ZM18.8 5C19.3766 5 19.7488 5.00078 20.0322 5.02393C20.3038 5.04612 20.4045 5.0838 20.454 5.10899L21.362 3.32698C20.9836 3.13419 20.5904 3.06287 20.195 3.03057C19.8114 2.99922 19.3436 3 18.8 3V5ZM23 7.2C23 6.65645 23.0008 6.18864 22.9694 5.80497C22.9371 5.40963 22.8658 5.01641 22.673 4.63803L20.891 5.54601C20.9162 5.59545 20.9539 5.69617 20.9761 5.96784C20.9992 6.25117 21 6.62345 21 7.2H23ZM20.454 5.10899C20.6422 5.20487 20.7951 5.35785 20.891 5.54601L22.673 4.63803C22.3854 4.07354 21.9265 3.6146 21.362 3.32698L20.454 5.10899ZM5.2 3C4.65645 3 4.18864 2.99922 3.80497 3.03057C3.40963 3.06287 3.01641 3.13419 2.63803 3.32698L3.54601 5.10899C3.59545 5.0838 3.69617 5.04612 3.96784 5.02393C4.25117 5.00078 4.62345 5 5.2 5V3ZM3 7.2C3 6.62345 3.00078 6.25117 3.02393 5.96784C3.04612 5.69617 3.0838 5.59545 3.10899 5.54601L1.32698 4.63803C1.13419 5.01641 1.06287 5.40963 1.03057 5.80497C0.999222 6.18864 1 6.65645 1 7.2H3ZM2.63803 3.32698C2.07354 3.6146 1.6146 4.07354 1.32698 4.63803L3.10899 5.54601C3.20487 5.35785 3.35785 5.20487 3.54601 5.10899L2.63803 3.32698ZM18.8 17H9.01639V19H18.8V17ZM3.78437 22.2028L7.74692 19.4032L6.59286 17.7698L2.63031 20.5694L3.78437 22.2028ZM1 20.7056C1 20.9004 0.999003 21.1154 1.01545 21.295C1.03176 21.4733 1.0748 21.7704 1.27082 22.0507L2.90973 20.9044C2.96386 20.9818 2.98927 21.0514 3.00042 21.0909C3.01028 21.1258 3.00955 21.1393 3.00712 21.1127C3.00477 21.0871 3.00251 21.0443 3.00126 20.9717C3.00003 20.8997 3 20.8153 3 20.7056H1ZM2.6566 20.5537C2.56941 20.5972 2.50231 20.6304 2.44576 20.657C2.38865 20.6839 2.35586 20.6977 2.33782 20.7045C2.31922 20.7115 2.33421 20.7042 2.37166 20.6975C2.41332 20.6902 2.48435 20.6832 2.57308 20.6964L2.28076 22.6749C2.60412 22.7226 2.87711 22.6385 3.04307 22.576C3.20801 22.5138 3.38921 22.4233 3.55009 22.343L2.6566 20.5537ZM1.27082 22.0507C1.50729 22.3888 1.8726 22.6146 2.28076 22.6749L2.57308 20.6964C2.70913 20.7165 2.8309 20.7917 2.90973 20.9044L1.27082 22.0507ZM3 20.7056V7.2H1V20.7056H3ZM2.63042 20.5693C2.62554 20.5727 2.62228 20.575 2.61951 20.577C2.61821 20.5779 2.61728 20.5786 2.6166 20.579C2.61593 20.5795 2.61564 20.5797 2.61565 20.5797C2.61584 20.5796 2.62182 20.5754 2.63068 20.5697L3.70899 22.2542C3.74215 22.2329 3.77291 22.2109 3.78426 22.2029L2.63042 20.5693ZM3.55008 22.343C3.56287 22.3366 3.59646 22.3201 3.63084 22.3009L2.65668 20.5542C2.66568 20.5492 2.6721 20.5459 2.6725 20.5457C2.67253 20.5457 2.67224 20.5458 2.67153 20.5462C2.67082 20.5465 2.66983 20.547 2.66844 20.5477C2.66547 20.5492 2.66191 20.551 2.65661 20.5536L3.55008 22.343ZM2.63054 20.5698C2.63917 20.5643 2.64785 20.5591 2.65674 20.5542L3.63077 22.301C3.6573 22.2862 3.68349 22.2705 3.70913 22.2541L2.63054 20.5698ZM9.01639 17C8.67508 17 8.37861 16.9961 8.0848 17.0509L8.45176 19.017C8.52177 19.0039 8.60276 19 9.01639 19V17ZM7.74692 19.4032C8.08474 19.1645 8.15314 19.121 8.21786 19.0913L7.38311 17.2738C7.1115 17.3985 6.87161 17.5728 6.59287 17.7698L7.74692 19.4032ZM8.0848 17.0509C7.84264 17.0961 7.60696 17.171 7.3831 17.2738L8.21786 19.0913C8.29248 19.057 8.37104 19.032 8.45176 19.017L8.0848 17.0509Z" fill="black"/>
</svg>
