<svg viewBox="0 0 24 24" fill="none" xmlns="http://www.w3.org/2000/svg">
<path d="M18.8 5H5.2C4.07989 5 3.51984 5 3.09202 5.21799C2.71569 5.40973 2.40973 5.71569 2.21799 6.09202C2 6.51984 2 7.0799 2 8.2V15.8C2 16.9201 2 17.4802 2.21799 17.908C2.40973 18.2843 2.71569 18.5903 3.09202 18.782C3.51984 19 4.0799 19 5.2 19C5.64183 19 6 19.3582 6 19.8V21C6 21.412 6.47038 21.6472 6.8 21.4L9.14667 19.64C9.46328 19.4025 9.62159 19.2838 9.79592 19.1995C9.95062 19.1247 10.1143 19.0701 10.283 19.0372C10.473 19 10.6709 19 11.0667 19H18.8C19.9201 19 20.4802 19 20.908 18.782C21.2843 18.5903 21.5903 18.2843 21.782 17.908C22 17.4802 22 16.9201 22 15.8V8.2C22 7.0799 22 6.51984 21.782 6.09202C21.5903 5.71569 21.2843 5.40973 20.908 5.21799C20.4802 5 19.9201 5 18.8 5Z" stroke="currentColor" stroke-width="2"/>
</svg>
