<svg width="24" height="24" viewBox="0 0 24 24" fill="none" xmlns="http://www.w3.org/2000/svg">
<path d="M6 18C6.55228 18 7 17.5523 7 17C7 16.4477 6.55228 16 6 16V18ZM18 16C17.4477 16 17 16.4477 17 17C17 17.5523 17.4477 18 18 18V16ZM2.21799 15.908L3.10899 15.454L3.10899 15.454L2.21799 15.908ZM3.09202 16.782L3.54601 15.891H3.54601L3.09202 16.782ZM21.782 15.908L20.891 15.454L20.891 15.454L21.782 15.908ZM20.908 16.782L21.362 17.673L20.908 16.782ZM20.908 4.21799L21.362 3.32698V3.32698L20.908 4.21799ZM21.782 5.09202L20.891 5.54601L20.891 5.54601L21.782 5.09202ZM3.09202 4.21799L2.63803 3.32698L2.63803 3.32698L3.09202 4.21799ZM2.21799 5.09202L1.32698 4.63803L1.32698 4.63803L2.21799 5.09202ZM11 16C11 15.4477 10.5523 15 10 15C9.44772 15 9 15.4477 9 16H11ZM10.7236 20.6382L11.1708 21.5326L10.7236 20.6382ZM11.7764 20.1118L12.2236 21.0062H12.2236L11.7764 20.1118ZM12.2236 20.1118L11.7764 21.0062H11.7764L12.2236 20.1118ZM13.2764 20.6382L12.8292 21.5326L12.8292 21.5326L13.2764 20.6382ZM15 16C15 15.4477 14.5523 15 14 15C13.4477 15 13 15.4477 13 16H15ZM16.7071 3.29289C16.3166 2.90237 15.6834 2.90237 15.2929 3.29289C14.9024 3.68342 14.9024 4.31658 15.2929 4.70711L16.7071 3.29289ZM21.2929 10.7071C21.6834 11.0976 22.3166 11.0976 22.7071 10.7071C23.0976 10.3166 23.0976 9.68342 22.7071 9.29289L21.2929 10.7071ZM8.70711 4.70711C9.09763 4.31658 9.09763 3.68342 8.70711 3.29289C8.31658 2.90237 7.68342 2.90237 7.29289 3.29289L8.70711 4.70711ZM1.29289 9.29289C0.902369 9.68342 0.902369 10.3166 1.29289 10.7071C1.68342 11.0976 2.31658 11.0976 2.70711 10.7071L1.29289 9.29289ZM5.2 5H18.8V3H5.2V5ZM21 7.2V13.8H23V7.2H21ZM3 13.8V7.2H1V13.8H3ZM6 16H5.2V18H6V16ZM18.8 16H18V18H18.8V16ZM1 13.8C1 14.3436 0.999222 14.8114 1.03057 15.195C1.06287 15.5904 1.13419 15.9836 1.32698 16.362L3.10899 15.454C3.0838 15.4045 3.04612 15.3038 3.02393 15.0322C3.00078 14.7488 3 14.3766 3 13.8H1ZM5.2 16C4.62345 16 4.25117 15.9992 3.96784 15.9761C3.69617 15.9539 3.59545 15.9162 3.54601 15.891L2.63803 17.673C3.01641 17.8658 3.40963 17.9371 3.80497 17.9694C4.18864 18.0008 4.65645 18 5.2 18V16ZM1.32698 16.362C1.6146 16.9265 2.07354 17.3854 2.63803 17.673L3.54601 15.891C3.35785 15.7951 3.20487 15.6422 3.10899 15.454L1.32698 16.362ZM21 13.8C21 14.3766 20.9992 14.7488 20.9761 15.0322C20.9539 15.3038 20.9162 15.4045 20.891 15.454L22.673 16.362C22.8658 15.9836 22.9371 15.5904 22.9694 15.195C23.0008 14.8114 23 14.3436 23 13.8H21ZM18.8 18C19.3436 18 19.8114 18.0008 20.195 17.9694C20.5904 17.9371 20.9836 17.8658 21.362 17.673L20.454 15.891C20.4045 15.9162 20.3038 15.9539 20.0322 15.9761C19.7488 15.9992 19.3766 16 18.8 16V18ZM20.891 15.454C20.7951 15.6422 20.6422 15.7951 20.454 15.891L21.362 17.673C21.9265 17.3854 22.3854 16.9265 22.673 16.362L20.891 15.454ZM18.8 5C19.3766 5 19.7488 5.00078 20.0322 5.02393C20.3038 5.04612 20.4045 5.0838 20.454 5.10899L21.362 3.32698C20.9836 3.13419 20.5904 3.06287 20.195 3.03057C19.8114 2.99922 19.3436 3 18.8 3V5ZM23 7.2C23 6.65645 23.0008 6.18864 22.9694 5.80497C22.9371 5.40963 22.8658 5.01641 22.673 4.63803L20.891 5.54601C20.9162 5.59545 20.9539 5.69617 20.9761 5.96784C20.9992 6.25117 21 6.62345 21 7.2H23ZM20.454 5.10899C20.6422 5.20487 20.7951 5.35785 20.891 5.54601L22.673 4.63803C22.3854 4.07354 21.9265 3.6146 21.362 3.32698L20.454 5.10899ZM5.2 3C4.65645 3 4.18864 2.99922 3.80497 3.03057C3.40963 3.06287 3.01641 3.13419 2.63803 3.32698L3.54601 5.10899C3.59545 5.0838 3.69617 5.04612 3.96784 5.02393C4.25117 5.00078 4.62345 5 5.2 5V3ZM3 7.2C3 6.62345 3.00078 6.25117 3.02393 5.96784C3.04612 5.69617 3.0838 5.59545 3.10899 5.54601L1.32698 4.63803C1.13419 5.01641 1.06287 5.40963 1.03057 5.80497C0.999222 6.18864 1 6.65645 1 7.2H3ZM2.63803 3.32698C2.07354 3.6146 1.6146 4.07354 1.32698 4.63803L3.10899 5.54601C3.20487 5.35785 3.35785 5.20487 3.54601 5.10899L2.63803 3.32698ZM15 12C15 13.6569 13.6569 15 12 15V17C14.7614 17 17 14.7614 17 12H15ZM12 15C10.3431 15 9 13.6569 9 12H7C7 14.7614 9.23858 17 12 17V15ZM9 12C9 10.3431 10.3431 9 12 9V7C9.23858 7 7 9.23858 7 12H9ZM12 9C13.6569 9 15 10.3431 15 12H17C17 9.23858 14.7614 7 12 7V9ZM9 16V20.191H11V16H9ZM11.1708 21.5326L12.2236 21.0062L11.3292 19.2174L10.2764 19.7438L11.1708 21.5326ZM11.7764 21.0062L12.8292 21.5326L13.7236 19.7438L12.6708 19.2174L11.7764 21.0062ZM15 20.191V16H13V20.191H15ZM12.8292 21.5326C13.8265 22.0313 15 21.3061 15 20.191H13C13 19.8193 13.3912 19.5775 13.7236 19.7438L12.8292 21.5326ZM12.2236 21.0062C12.0828 21.0766 11.9172 21.0766 11.7764 21.0062L12.6708 19.2174C12.2485 19.0062 11.7515 19.0062 11.3292 19.2174L12.2236 21.0062ZM9 20.191C9 21.3061 10.1735 22.0313 11.1708 21.5326L10.2764 19.7438C10.6088 19.5775 11 19.8193 11 20.191H9ZM15.2929 4.70711L21.2929 10.7071L22.7071 9.29289L16.7071 3.29289L15.2929 4.70711ZM7.29289 3.29289L1.29289 9.29289L2.70711 10.7071L8.70711 4.70711L7.29289 3.29289Z" fill="black"/>
</svg>
