<svg viewBox="0 0 24 24" fill="none" xmlns="http://www.w3.org/2000/svg">
<path d="M20.7623 18.7625L21.7303 18.5114L20.7623 18.7625ZM20.5287 17.8621L19.5608 18.1132L19.5608 18.1133L20.5287 17.8621ZM3.47126 17.8622L2.5033 17.611L2.5033 17.611L3.47126 17.8622ZM3.23769 18.7625L4.20565 19.0136L3.23769 18.7625ZM4.28457 16.586L3.90927 15.6591H3.90927L4.28457 16.586ZM3.8021 16.949L4.59176 17.5626L4.59176 17.5626L3.8021 16.949ZM20.1979 16.949L19.4082 17.5626L20.1979 16.949ZM19.7154 16.586L20.0907 15.6591L19.7154 16.586ZM20.4522 20.8371L19.9479 19.9735L20.4522 20.8371ZM20.9628 20.2069L21.915 20.5123V20.5123L20.9628 20.2069ZM3.54784 20.8371L4.05207 19.9735H4.05207L3.54784 20.8371ZM3.03723 20.2069L3.98946 19.9015H3.98946L3.03723 20.2069ZM11.1644 2.26981L10.7303 1.36894L10.7303 1.36894L11.1644 2.26981ZM4.32854 5.56369L4.76262 6.46456H4.76262L4.32854 5.56369ZM3.4929 7.97963L2.60525 8.44017H2.60525L3.4929 7.97963ZM3.69598 8.37107L4.58363 7.91054L4.58363 7.91054L3.69598 8.37107ZM20.304 8.37107L19.4164 7.91054L19.4164 7.91054L20.304 8.37107ZM20.5071 7.97963L19.6195 7.5191V7.5191L20.5071 7.97963ZM19.6715 5.56369L20.1056 4.66282L19.6715 5.56369ZM12.8356 2.26981L13.2697 1.36894V1.36894L12.8356 2.26981ZM20.9437 6.86378L21.9437 6.8559L20.9437 6.86378ZM20.7155 6.2039L19.9216 6.812L19.9216 6.812L20.7155 6.2039ZM3.28451 6.2039L2.49065 5.5958L2.49065 5.5958L3.28451 6.2039ZM3.05627 6.86378L2.0563 6.8559L3.05627 6.86378ZM20.0897 8.60455L19.7742 7.6556L19.7742 7.6556L20.0897 8.60455ZM20.1988 8.53957L20.8852 9.26679L20.8852 9.26679L20.1988 8.53957ZM3.91034 8.60455L4.22578 7.6556H4.22578L3.91034 8.60455ZM3.80125 8.53957L3.11484 9.26679L3.11485 9.26679L3.80125 8.53957ZM11.7847 2.0193L11.6067 1.03526L11.7847 2.0193ZM12.2153 2.0193L12.3933 1.03525L12.2153 2.0193ZM5.16078 15.3727C5.16078 15.925 5.6085 16.3727 6.16078 16.3727C6.71307 16.3727 7.16078 15.925 7.16078 15.3727H5.16078ZM7.16078 8.61993C7.16078 8.06764 6.71307 7.61993 6.16078 7.61993C5.6085 7.61993 5.16078 8.06764 5.16078 8.61993H7.16078ZM11 15.3727C11 15.925 11.4477 16.3727 12 16.3727C12.5523 16.3727 13 15.925 13 15.3727H11ZM13 9.74539C13 9.1931 12.5523 8.74539 12 8.74539C11.4477 8.74539 11 9.1931 11 9.74539H13ZM16.8392 15.3727C16.8392 15.925 17.2869 16.3727 17.8392 16.3727C18.3915 16.3727 18.8392 15.925 18.8392 15.3727H16.8392ZM18.8392 9.74539C18.8392 9.1931 18.3915 8.74539 17.8392 8.74539C17.2869 8.74539 16.8392 9.1931 16.8392 9.74539H18.8392ZM5.05045 22H18.9496V20H5.05045V22ZM21.7303 18.5114L21.4967 17.611L19.5608 18.1133L19.7944 19.0136L21.7303 18.5114ZM18.716 15.4982H5.28402V17.4982H18.716V15.4982ZM2.5033 17.611L2.26973 18.5114L4.20565 19.0136L4.43922 18.1133L2.5033 17.611ZM5.28402 15.4982C4.85256 15.4982 4.35102 15.4802 3.90927 15.6591L4.65987 17.5129C4.63296 17.5238 4.63662 17.5139 4.7396 17.5067C4.85434 17.4987 5.00943 17.4982 5.28402 17.4982V15.4982ZM4.43922 18.1133C4.50617 17.8552 4.54335 17.7144 4.57781 17.6132C4.60788 17.525 4.61501 17.5327 4.59176 17.5626L3.01245 16.3355C2.71415 16.7194 2.60629 17.214 2.5033 17.611L4.43922 18.1133ZM3.90927 15.6591C3.55762 15.8015 3.24706 16.0335 3.01245 16.3355L4.59176 17.5626C4.60609 17.5442 4.62861 17.5256 4.65987 17.5129L3.90927 15.6591ZM21.4967 17.6111C21.3937 17.214 21.2859 16.7194 20.9876 16.3355L19.4082 17.5626C19.385 17.5327 19.3921 17.525 19.4222 17.6132C19.4567 17.7144 19.4938 17.8552 19.5608 18.1132L21.4967 17.6111ZM18.716 17.4982C18.9906 17.4982 19.1457 17.4987 19.2604 17.5067C19.3634 17.5139 19.367 17.5238 19.3401 17.5129L20.0907 15.6591C19.649 15.4802 19.1474 15.4982 18.716 15.4982V17.4982ZM20.9876 16.3355C20.7529 16.0335 20.4424 15.8015 20.0907 15.6591L19.3401 17.5129C19.3714 17.5256 19.3939 17.5442 19.4082 17.5626L20.9876 16.3355ZM18.9496 22C19.3397 22 19.6959 22.0009 19.9871 21.976C20.2845 21.9507 20.629 21.8918 20.9564 21.7007L19.9479 19.9735C19.9963 19.9453 19.9974 19.9679 19.8172 19.9833C19.6308 19.9991 19.3751 20 18.9496 20V22ZM19.7943 19.0136C19.8981 19.4134 19.9578 19.6474 19.986 19.8199C20.013 19.9844 19.9881 19.9714 20.0105 19.9015L21.915 20.5123C22.0338 20.142 22.0075 19.7881 21.9597 19.4963C21.9131 19.2123 21.8244 18.8743 21.7303 18.5114L19.7943 19.0136ZM20.9564 21.7007C21.4083 21.4368 21.7532 21.0167 21.915 20.5123L20.0105 19.9015C20.0035 19.9235 19.9851 19.9519 19.9479 19.9735L20.9564 21.7007ZM5.05045 20C4.62488 20 4.36917 19.9991 4.1828 19.9833C4.00257 19.9679 4.00367 19.9453 4.05207 19.9735L3.04361 21.7007C3.37098 21.8918 3.71551 21.9507 4.0129 21.976C4.30415 22.0009 4.66026 22 5.05045 22V20ZM2.26973 18.5114C2.17558 18.8743 2.08689 19.2123 2.04033 19.4963C1.99246 19.7881 1.96625 20.142 2.085 20.5123L3.98946 19.9015C4.0119 19.9714 3.98699 19.9844 4.01397 19.8199C4.04225 19.6474 4.10195 19.4134 4.20565 19.0136L2.26973 18.5114ZM4.05207 19.9735C4.01494 19.9519 3.99654 19.9235 3.98946 19.9015L2.085 20.5123C2.24677 21.0167 2.59171 21.4368 3.04361 21.7007L4.05207 19.9735ZM4.11381 9.61993H19.8862V7.61993H4.11381V9.61993ZM10.7303 1.36894L3.89445 4.66282L4.76262 6.46456L11.5984 3.17068L10.7303 1.36894ZM2.60525 8.44017L2.80834 8.8316L4.58363 7.91054L4.38054 7.5191L2.60525 8.44017ZM21.1917 8.8316L21.3947 8.44016L19.6195 7.5191L19.4164 7.91054L21.1917 8.8316ZM20.1056 4.66282L13.2697 1.36894L12.4016 3.17068L19.2374 6.46456L20.1056 4.66282ZM21.3947 8.44017C21.5332 8.17334 21.6662 7.91882 21.7589 7.6965C21.856 7.46347 21.9463 7.18254 21.9437 6.8559L19.9438 6.87166C19.9433 6.81521 19.9615 6.81032 19.9129 6.92673C19.8599 7.05384 19.7735 7.22215 19.6195 7.5191L21.3947 8.44017ZM19.2374 6.46456C19.5445 6.61255 19.7213 6.69859 19.8458 6.77134C19.9614 6.83888 19.951 6.85034 19.9216 6.812L21.5093 5.5958C21.3135 5.34008 21.0736 5.17238 20.855 5.04463C20.6453 4.92209 20.3834 4.79671 20.1056 4.66282L19.2374 6.46456ZM21.9437 6.8559C21.9401 6.39796 21.786 5.95691 21.5093 5.5958L19.9216 6.812C19.938 6.83333 19.9436 6.85427 19.9438 6.87166L21.9437 6.8559ZM3.89445 4.66282C3.61657 4.79671 3.35466 4.92209 3.14499 5.04463C2.92642 5.17238 2.68654 5.34008 2.49065 5.5958L4.07837 6.812C4.04901 6.85034 4.03864 6.83888 4.1542 6.77134C4.27866 6.69859 4.4555 6.61255 4.76262 6.46456L3.89445 4.66282ZM4.38054 7.5191C4.22647 7.22215 4.14007 7.05384 4.08706 6.92673C4.03852 6.81032 4.05669 6.81521 4.05624 6.87166L2.0563 6.8559C2.05373 7.18254 2.14396 7.46347 2.24113 7.6965C2.33385 7.91882 2.46682 8.17334 2.60525 8.44017L4.38054 7.5191ZM2.49065 5.5958C2.21405 5.95691 2.05991 6.39796 2.0563 6.8559L4.05624 6.87166C4.05638 6.85427 4.06204 6.83333 4.07837 6.812L2.49065 5.5958ZM19.8862 9.61993C19.9207 9.61993 20.1685 9.63214 20.4051 9.55349L19.7742 7.6556C19.864 7.62577 19.9338 7.62077 19.9499 7.6198C19.9568 7.61939 19.957 7.6196 19.9439 7.61975C19.9306 7.61991 19.9141 7.61993 19.8862 7.61993V9.61993ZM19.4164 7.91054C19.4038 7.93471 19.3967 7.94845 19.3909 7.95927C19.3852 7.96991 19.3858 7.96831 19.3903 7.96086C19.4008 7.94338 19.4403 7.8804 19.5123 7.81236L20.8852 9.26679C21.0725 9.08994 21.1779 8.85803 21.1917 8.8316L19.4164 7.91054ZM20.4051 9.55349C20.5823 9.49458 20.7467 9.39748 20.8852 9.26679L19.5123 7.81235C19.589 7.74003 19.6788 7.68732 19.7742 7.6556L20.4051 9.55349ZM4.11381 7.61993C4.08591 7.61993 4.06937 7.61991 4.0561 7.61975C4.04299 7.6196 4.04317 7.61939 4.05011 7.6198C4.06618 7.62077 4.13605 7.62577 4.22578 7.6556L3.5949 9.55349C3.8315 9.63214 4.07927 9.61993 4.11381 9.61993V7.61993ZM2.80834 8.8316C2.82204 8.85801 2.92748 9.08994 3.11484 9.26679L4.48766 7.81236C4.55975 7.8804 4.59917 7.94339 4.6097 7.96086C4.61418 7.96831 4.6148 7.96992 4.6091 7.95927C4.60332 7.94845 4.59617 7.93471 4.58363 7.91054L2.80834 8.8316ZM4.22578 7.6556C4.3212 7.68732 4.41103 7.74003 4.48765 7.81235L3.11485 9.26679C3.25331 9.39748 3.41766 9.49458 3.5949 9.55349L4.22578 7.6556ZM11.5984 3.17068C11.7606 3.09254 11.8486 3.05048 11.9158 3.0223C11.9735 2.99812 11.9787 3.00044 11.9626 3.00334L11.6067 1.03526C11.281 1.09415 10.9865 1.24546 10.7303 1.36894L11.5984 3.17068ZM13.2697 1.36894C13.0135 1.24546 12.719 1.09415 12.3933 1.03525L12.0374 3.00334C12.0214 3.00044 12.0265 2.99812 12.0842 3.0223C12.1514 3.05048 12.2394 3.09254 12.4016 3.17068L13.2697 1.36894ZM11.9626 3.00334C11.9872 2.99889 12.0128 2.99889 12.0374 3.00334L12.3933 1.03525C12.1333 0.988248 11.8667 0.988248 11.6067 1.03526L11.9626 3.00334ZM7.16078 15.3727V8.61993H5.16078V15.3727H7.16078ZM13 15.3727V9.74539H11V15.3727H13ZM18.8392 15.3727V9.74539H16.8392V15.3727H18.8392Z" fill="black"/>
</svg>
