<svg width="24" height="24" viewBox="0 0 24 24" fill="none" xmlns="http://www.w3.org/2000/svg">
<path d="M2 19C2 19.5523 2.44772 20 3 20C3.55229 20 4 19.5523 4 19H2ZM4 5C4 4.44772 3.55228 4 3 4C2.44772 4 2 4.44772 2 5L4 5ZM20 19C20 19.5523 20.4477 20 21 20C21.5523 20 22 19.5523 22 19H20ZM22 5C22 4.44772 21.5523 4 21 4C20.4477 4 20 4.44772 20 5H22ZM9.70711 9.70711C10.0976 9.31658 10.0976 8.68342 9.70711 8.29289C9.31658 7.90237 8.68342 7.90237 8.29289 8.29289L9.70711 9.70711ZM7.13137 10.8686L7.83848 11.5757V11.5757L7.13137 10.8686ZM7.13137 13.1314L6.42426 13.8385L6.42426 13.8385L7.13137 13.1314ZM8.29289 15.7071C8.68342 16.0976 9.31658 16.0976 9.70711 15.7071C10.0976 15.3166 10.0976 14.6834 9.70711 14.2929L8.29289 15.7071ZM6.46316 11.691L7.41422 12L6.46316 11.691ZM6.46316 12.309L7.41422 12L6.46316 12.309ZM15.7071 8.29289C15.3166 7.90237 14.6834 7.90237 14.2929 8.29289C13.9024 8.68342 13.9024 9.31658 14.2929 9.70711L15.7071 8.29289ZM16.8686 10.8686L17.5757 10.1615L16.8686 10.8686ZM16.8686 13.1314L17.5757 13.8385L17.5757 13.8385L16.8686 13.1314ZM14.2929 14.2929C13.9024 14.6834 13.9024 15.3166 14.2929 15.7071C14.6834 16.0976 15.3166 16.0976 15.7071 15.7071L14.2929 14.2929ZM17.5368 11.691L16.5858 12V12L17.5368 11.691ZM17.5368 12.309L16.5858 12L17.5368 12.309ZM8 11C7.44772 11 7 11.4477 7 12C7 12.5523 7.44772 13 8 13V11ZM16 13C16.5523 13 17 12.5523 17 12C17 11.4477 16.5523 11 16 11V13ZM4 19L4 5L2 5L2 19H4ZM22 19V5H20V19H22ZM8.29289 8.29289L6.42427 10.1615L7.83848 11.5757L9.70711 9.70711L8.29289 8.29289ZM6.42426 13.8385L8.29289 15.7071L9.70711 14.2929L7.83848 12.4243L6.42426 13.8385ZM6.42427 10.1615C6.23793 10.3479 6.05509 10.5296 5.91424 10.6955C5.76581 10.8704 5.60624 11.0922 5.5121 11.382L7.41422 12C7.39427 12.0614 7.3708 12.0701 7.43892 11.9899C7.51462 11.9007 7.6288 11.7854 7.83848 11.5757L6.42427 10.1615ZM7.83848 12.4243C7.62881 12.2146 7.51463 12.0993 7.43892 12.0101C7.3708 11.9299 7.39427 11.9386 7.41422 12L5.5121 12.618C5.60624 12.9077 5.76581 13.1296 5.91424 13.3045C6.05509 13.4704 6.23792 13.6521 6.42426 13.8385L7.83848 12.4243ZM5.5121 11.382C5.38159 11.7837 5.38159 12.2163 5.5121 12.618L7.41422 12V12L5.5121 11.382ZM14.2929 9.70711L16.1615 11.5757L17.5757 10.1615L15.7071 8.29289L14.2929 9.70711ZM16.1615 12.4243L14.2929 14.2929L15.7071 15.7071L17.5757 13.8385L16.1615 12.4243ZM16.1615 11.5757C16.3712 11.7854 16.4854 11.9007 16.5611 11.9899C16.6292 12.0701 16.6057 12.0614 16.5858 12L18.4879 11.382C18.3938 11.0922 18.2342 10.8704 18.0858 10.6955C17.9449 10.5296 17.7621 10.3479 17.5757 10.1615L16.1615 11.5757ZM17.5757 13.8385C17.7621 13.6521 17.9449 13.4704 18.0858 13.3045C18.2342 13.1296 18.3938 12.9077 18.4879 12.618L16.5858 12C16.6057 11.9386 16.6292 11.9299 16.5611 12.0101C16.4854 12.0993 16.3712 12.2146 16.1615 12.4243L17.5757 13.8385ZM16.5858 12V12L18.4879 12.618C18.6184 12.2163 18.6184 11.7837 18.4879 11.382L16.5858 12ZM8 13H16V11H8V13Z" fill="black"/>
</svg>
