<svg width="24" height="24" viewBox="0 0 24 24" fill="none" xmlns="http://www.w3.org/2000/svg">
<path d="M18.9755 13L21.7371 10.3081C22.0339 10.0188 21.8701 9.51483 21.46 9.45524L15.4939 8.58831C15.3311 8.56465 15.1903 8.46236 15.1175 8.31479L12.4493 2.9086C12.2659 2.53698 11.736 2.53698 11.5526 2.9086L8.88448 8.31479C8.81165 8.46236 8.67087 8.56465 8.50802 8.58831L2.54193 9.45524C2.13182 9.51483 1.96806 10.0188 2.26482 10.3081L6.58192 14.5162C6.69977 14.6311 6.75354 14.7966 6.72572 14.9588L5.70659 20.9008C5.63654 21.3092 6.06525 21.6207 6.43207 21.4279L11.7683 18.6224C11.914 18.5458 12.088 18.5458 12.2336 18.6224L14.001 19.5516M18.001 18L20.001 20M20.001 20L22.001 22M20.001 20L22.001 18M20.001 20L18.001 22" stroke="black" stroke-width="2" stroke-miterlimit="10" stroke-linecap="round"/>
</svg>
