<svg width="24" height="24" viewBox="0 0 24 24" fill="none" xmlns="http://www.w3.org/2000/svg">
<path d="M18.8622 12.3701L21.6238 9.6782C21.9206 9.38893 21.7568 8.88495 21.3467 8.82535L15.3806 7.95843C15.2178 7.93477 15.077 7.83248 15.0042 7.68491L12.3361 2.27872C12.1526 1.90709 11.6227 1.90709 11.4393 2.27872L8.7712 7.68491C8.69837 7.83248 8.55759 7.93477 8.39473 7.95843L2.42865 8.82535C2.01854 8.88495 1.85478 9.38893 2.15154 9.6782L6.46864 13.8863C6.58648 14.0012 6.64026 14.1667 6.61244 14.3289L5.59331 20.2709C5.52326 20.6793 5.95197 20.9908 6.31879 20.798L11.655 17.9925C11.8007 17.916 11.9747 17.916 12.1204 17.9925L13.8877 18.9217M17.8877 19.3701H21.8877" stroke="black" stroke-width="2" stroke-miterlimit="10" stroke-linecap="round"/>
</svg>
