<svg width="24" height="24" viewBox="0 0 24 24" fill="none" xmlns="http://www.w3.org/2000/svg">
<path fill-rule="evenodd" clip-rule="evenodd" d="M14.5992 16.1501C15.9142 16.1501 17.3484 15.1899 17.3484 13.5538V10.4464C17.3484 8.81029 15.9142 7.8501 14.5992 7.8501C13.2842 7.8501 11.8501 8.81029 11.8501 10.4464V13.5538C11.8501 15.1899 13.2842 16.1501 14.5992 16.1501ZM13.5928 10.5566V13.4436C13.5928 13.9981 14.0525 14.4506 14.6102 14.4506C15.134 14.4506 15.6056 13.9991 15.6056 13.4436V10.5566C15.6056 9.94889 15.1589 9.54955 14.6102 9.54955C14.0377 9.54955 13.5928 9.95072 13.5928 10.5566Z" fill="black"/>
<path d="M11.6281 13.4216C11.6281 15.0572 10.317 16.1501 8.82389 16.1501C7.88843 16.1501 6.97934 15.7116 6.4854 14.9703C6.42753 14.8835 6.3501 14.7007 6.3501 14.5015C6.3501 14.0566 6.71298 13.6683 7.19393 13.6683C7.47328 13.6683 7.67713 13.7899 7.81155 13.9378C8.13592 14.2937 8.42904 14.4617 8.82389 14.4617C9.43389 14.4617 9.86333 14.0229 9.86333 13.4216C9.86333 13.183 9.78263 12.9252 9.60911 12.7289C9.43873 12.5363 9.16972 12.3925 8.76883 12.3925H7.39217C6.87925 12.3925 6.50886 12.0025 6.54875 11.5041L6.73589 8.79464C6.76232 8.3752 7.07037 7.99335 7.5794 7.99335H10.3437C10.8011 7.99335 11.1876 8.38014 11.1876 8.83756C11.1876 9.30755 10.7995 9.68178 10.3437 9.68178H8.40043L8.31488 10.7261H8.96707C10.6276 10.7261 11.6281 12.0861 11.6281 13.4216Z" fill="black"/>
<path fill-rule="evenodd" clip-rule="evenodd" d="M11.9674 1C11.3182 1 10.645 1.18712 10.062 1.62472L8.62644 2.70228C8.38356 2.88458 8.12397 2.98863 7.78943 3.03328L7.78222 3.03424L6.01769 3.29586C4.61739 3.49163 3.54454 4.5968 3.31375 5.98267L3.31205 5.99288L3.04955 7.79903L3.04919 7.80155C3.01002 8.07597 2.8867 8.3855 2.69894 8.67325L1.64022 10.086C0.794676 11.2143 0.776679 12.7852 1.64578 13.9051L2.71689 15.3344C2.89915 15.5776 3.00325 15.8377 3.04791 16.1729L3.04955 16.1846L3.31008 17.9772C3.50495 19.3781 4.60887 20.4531 5.99534 20.6843L6.00556 20.686L7.81027 20.9488L7.81279 20.9491C8.08657 20.9883 8.3956 21.1115 8.68302 21.2994L10.0946 22.3589C11.2226 23.2056 12.7933 23.2236 13.9128 22.3534L15.3409 21.2814C15.5838 21.0991 15.8434 20.995 16.1779 20.9504L16.1897 20.9488L17.9769 20.6886L17.981 20.688C19.3819 20.4927 20.4554 19.3873 20.6863 18.001L20.688 17.9908L20.9505 16.1846L20.9508 16.1821C20.99 15.9077 21.1133 15.5982 21.3011 15.3104L22.3598 13.8976C23.2072 12.7668 23.2234 11.1914 22.3484 10.0711L22.3473 10.0697L21.2132 8.61037C21.0338 8.36897 20.9311 8.11048 20.8868 7.77815L20.8852 7.76638L20.6252 5.97776L20.6247 5.97386C20.4298 4.57296 19.3259 3.49796 17.9394 3.26669L17.9292 3.26498L16.1245 3.00226L16.122 3.0019C15.8477 2.96269 15.5381 2.83907 15.2503 2.6507L13.8727 1.62472L13.8711 1.62349C13.2885 1.18677 12.6159 1 11.9674 1ZM11.2626 3.22425C11.4627 3.0741 11.703 3 11.9674 3C12.2317 3 12.4721 3.0741 12.6721 3.22425L12.6751 3.22649L14.0988 4.28686L14.1204 4.30123C14.6096 4.62768 15.2051 4.8909 15.8376 4.98158L15.8389 4.98177L17.6192 5.24094C18.1842 5.33889 18.5766 5.76229 18.6439 6.25081L18.645 6.25811L18.9052 8.04858C18.9917 8.69049 19.2137 9.27731 19.6174 9.81601L19.6226 9.82303L20.7699 11.2993L20.7718 11.3017C21.0702 11.6834 21.0861 12.2622 20.7593 12.6983L19.666 14.1572L19.6506 14.1803C19.3245 14.6699 19.0616 15.2656 18.9711 15.8982L18.9709 15.8995L18.7119 17.6813C18.6139 18.2481 18.1902 18.6401 17.7034 18.7074L17.6961 18.7084L15.907 18.9688C15.2652 19.0554 14.6787 19.2778 14.1403 19.6819L12.6965 20.7656L12.6884 20.7719C12.3077 21.0702 11.7304 21.086 11.2953 20.7594L9.83749 19.6652L9.81439 19.6498C9.32529 19.3235 8.73006 19.0603 8.09782 18.9695L8.09586 18.9692L6.3155 18.7101C5.75048 18.6121 5.35813 18.1887 5.2908 17.7002L5.28977 17.6929L5.02955 15.9025C4.9431 15.2606 4.72107 14.6737 4.31736 14.135L3.23453 12.6901L3.22821 12.682C2.92977 12.3003 2.91393 11.7214 3.24069 11.2854L4.334 9.82646L4.34939 9.80337C4.67552 9.31377 4.93839 8.71805 5.02893 8.08547L5.02912 8.08417L5.28808 6.30236C5.38615 5.73561 5.80977 5.34353 6.29662 5.27632L6.30654 5.2749L8.06162 5.01468C8.70288 4.92797 9.28905 4.70565 9.82707 4.30181L11.2626 3.22425Z" fill="black"/>
</svg>
