<svg width="24" height="24" viewBox="0 0 24 24" fill="none" xmlns="http://www.w3.org/2000/svg">
<path d="M20.4176 9.21633L19.6174 9.81601L19.6226 9.82303L19.628 9.82996L20.4176 9.21633ZM19.8956 7.9102L20.8869 7.77814L20.8852 7.76638L19.8956 7.9102ZM19.6346 6.11429L18.6439 6.25082L18.645 6.25811L19.6346 6.11429ZM17.7749 4.25306L17.9394 3.26669L17.9292 3.26498L17.9189 3.26349L17.7749 4.25306ZM15.9804 3.99184L16.1245 3.00226L16.122 3.0019L15.9804 3.99184ZM14.6754 3.46939L14.078 4.27139L14.0988 4.28686L14.1204 4.30123L14.6754 3.46939ZM13.2724 2.42449L12.6721 3.22426L12.6751 3.22649L13.2724 2.42449ZM10.6623 2.42449L10.062 1.62472V1.62472L10.6623 2.42449ZM9.22675 3.50204L9.82707 4.30181L9.22675 3.50204ZM7.9217 4.02449L7.78943 3.03328L7.78222 3.03424L7.77503 3.0353L7.9217 4.02449ZM6.15987 4.28571L6.29662 5.27637L6.30654 5.2749L6.15987 4.28571ZM4.30016 6.14694L3.31375 5.98267L3.31205 5.99288L3.31056 6.00311L4.30016 6.14694ZM4.03915 7.94286L3.04955 7.79903L3.04919 7.80155L4.03915 7.94286ZM3.51713 9.24898L4.31736 9.84867L4.334 9.82646L4.34939 9.80337L3.51713 9.24898ZM2.44046 10.6857L3.24069 11.2854H3.24069L2.44046 10.6857ZM2.44046 13.298L3.24069 12.6983L3.23453 12.6901L3.22821 12.682L2.44046 13.298ZM3.51713 14.7347L2.71689 15.3344H2.71689L3.51713 14.7347ZM4.03915 16.0408L3.04784 16.1729L3.04955 16.1846L4.03915 16.0408ZM4.30016 17.8367L5.29083 17.7002L5.28977 17.6929L4.30016 17.8367ZM6.15987 19.698L5.99534 20.6843L6.00556 20.686L6.01581 20.6875L6.15987 19.698ZM7.95432 19.9592L7.81027 20.9488L7.81279 20.9491L7.95432 19.9592ZM9.25938 20.4816L9.85969 19.6819L9.83749 19.6652L9.81439 19.6498L9.25938 20.4816ZM10.6949 21.5592L11.2953 20.7594L10.6949 21.5592ZM13.3051 21.5592L12.7047 20.7594L12.6965 20.7656L12.6884 20.7719L13.3051 21.5592ZM14.7406 20.4816L15.3409 21.2814L14.7406 20.4816ZM16.0457 19.9592L16.178 20.9505L16.1897 20.9488L16.0457 19.9592ZM17.8401 19.698L17.7034 18.7073L17.6961 18.7084L17.8401 19.698ZM19.6998 17.8367L20.6863 18.001L20.688 17.9908L20.6894 17.9806L19.6998 17.8367ZM19.9608 16.0408L20.9505 16.1846L20.9508 16.1821L19.9608 16.0408ZM20.4829 14.7347L19.6826 14.135L19.666 14.1572L19.6506 14.1803L20.4829 14.7347ZM21.5595 13.298L22.3598 13.8976H22.3598L21.5595 13.298ZM21.5595 10.6857L20.7699 11.2993L20.7718 11.3017L21.5595 10.6857ZM11.9973 9.83832L11.2435 10.4954C11.4334 10.7133 11.7082 10.8383 11.9973 10.8383C12.2863 10.8383 12.5612 10.7133 12.7511 10.4954L11.9973 9.83832ZM8.50568 12.7525L9.28961 12.1317L8.50568 12.7525ZM15.4888 12.7525L14.7049 12.1317L15.4888 12.7525ZM11.7888 15.8849L11.1329 16.6397L11.7888 15.8849ZM11.9401 15.9919L11.6591 16.9516L11.9401 15.9919ZM12.2057 15.8849L11.5497 15.13L12.2057 15.8849ZM12.0544 15.9919L12.3354 16.9516L12.0544 15.9919ZM21.2179 8.61664C21.0356 8.37344 20.9315 8.11336 20.8868 7.77815L18.9044 8.04226C18.9902 8.68664 19.2124 9.27554 19.6174 9.81601L21.2179 8.61664ZM20.8852 7.76638L20.6242 5.97046L18.645 6.25811L18.906 8.05403L20.8852 7.76638ZM20.6252 5.97776C20.4319 4.57495 19.3272 3.49818 17.9394 3.26669L17.6103 5.23943C18.1801 5.33448 18.5763 5.75974 18.6439 6.25081L20.6252 5.97776ZM17.9189 3.26349L16.1245 3.00227L15.8364 4.98141L17.6308 5.24263L17.9189 3.26349ZM16.122 3.0019C15.8414 2.96179 15.5238 2.83332 15.2304 2.63755L14.1204 4.30123C14.61 4.6279 15.2059 4.89127 15.8389 4.98177L16.122 3.0019ZM15.2727 2.66739L13.8698 1.62249L12.6751 3.22649L14.078 4.27139L15.2727 2.66739ZM13.8727 1.62472C13.2898 1.18712 12.6166 1 11.9674 1V3C12.2317 3 12.4721 3.0741 12.6721 3.22425L13.8727 1.62472ZM11.9674 1C11.3182 1 10.645 1.18712 10.062 1.62472L11.2626 3.22425C11.4627 3.0741 11.703 3 11.9674 3V1ZM10.062 1.62472L8.62644 2.70228L9.82707 4.30181L11.2626 3.22425L10.062 1.62472ZM8.62644 2.70228C8.38356 2.88458 8.12397 2.98863 7.78943 3.03328L8.05397 5.0157C8.69822 4.92973 9.28691 4.70725 9.82707 4.30181L8.62644 2.70228ZM7.77503 3.0353L6.0132 3.29653L6.30654 5.2749L8.06836 5.01368L7.77503 3.0353ZM6.02312 3.29511C4.62016 3.48878 3.54484 4.595 3.31375 5.98267L5.28658 6.31121C5.38175 5.73969 5.80724 5.34388 6.29662 5.27632L6.02312 3.29511ZM3.31056 6.00311L3.04955 7.79903L5.02875 8.08668L5.28977 6.29076L3.31056 6.00311ZM3.04919 7.80155C3.00904 8.08277 2.88054 8.40085 2.68487 8.69459L4.34939 9.80337C4.67574 9.31343 4.93875 8.71723 5.02912 8.08417L3.04919 7.80155ZM2.71689 8.64929L1.64022 10.086L3.24069 11.2854L4.31736 9.84867L2.71689 8.64929ZM1.64022 10.086C0.792435 11.2173 0.776589 12.7936 1.65271 13.914L3.22821 12.682C2.92977 12.3003 2.91393 11.7214 3.24069 11.2854L1.64022 10.086ZM1.64022 13.8976L2.71689 15.3344L4.31736 14.135L3.24069 12.6983L1.64022 13.8976ZM2.71689 15.3344C2.89915 15.5776 3.00325 15.8377 3.04791 16.1729L5.03039 15.9088C4.94455 15.2644 4.72239 14.6755 4.31736 14.135L2.71689 15.3344ZM3.04955 16.1846L3.31056 17.9806L5.28977 17.6929L5.02875 15.897L3.04955 16.1846ZM3.30953 17.9733C3.50286 19.3761 4.60755 20.4528 5.99534 20.6843L6.3244 18.7116C5.7546 18.6165 5.35848 18.1913 5.2908 17.7002L3.30953 17.9733ZM6.01581 20.6875L7.81027 20.9488L8.09838 18.9696L6.30392 18.7084L6.01581 20.6875ZM7.81279 20.9491C8.09336 20.9892 8.41094 21.1177 8.70437 21.3135L9.81439 19.6498C9.32478 19.3231 8.72882 19.0597 8.09586 18.9692L7.81279 20.9491ZM8.65907 21.2814L10.0946 22.3589L11.2953 20.7594L9.85969 19.6819L8.65907 21.2814ZM10.0946 22.3589C11.2255 23.2078 12.8016 23.2237 13.9217 22.3464L12.6884 20.7719C12.3077 21.0702 11.7304 21.086 11.2953 20.7594L10.0946 22.3589ZM13.9054 22.3589L15.3409 21.2814L14.1403 19.6819L12.7047 20.7594L13.9054 22.3589ZM15.3409 21.2814C15.5838 21.0991 15.8434 20.995 16.1779 20.9504L15.9134 18.968C15.2692 19.0539 14.6805 19.2764 14.1403 19.6819L15.3409 21.2814ZM16.1897 20.9488L17.9842 20.6875L17.6961 18.7084L15.9016 18.9696L16.1897 20.9488ZM17.9769 20.6886C19.3798 20.4949 20.4552 19.3887 20.6863 18.001L18.7134 17.6725C18.6182 18.244 18.1928 18.6398 17.7034 18.7074L17.9769 20.6886ZM20.6894 17.9806L20.9505 16.1846L18.9712 15.897L18.7102 17.6929L20.6894 17.9806ZM20.9508 16.1821C20.991 15.9009 21.1195 15.5828 21.3151 15.2891L19.6506 14.1803C19.3243 14.6702 19.0612 15.2664 18.9709 15.8995L20.9508 16.1821ZM21.2831 15.3344L22.3598 13.8976L20.7593 12.6983L19.6826 14.135L21.2831 15.3344ZM22.3598 13.8976C23.2076 12.7663 23.2234 11.1901 22.3473 10.0697L20.7718 11.3017C21.0702 11.6834 21.0861 12.2622 20.7593 12.6983L22.3598 13.8976ZM22.3491 10.0721L21.2072 8.6027L19.628 9.82996L20.7699 11.2993L22.3491 10.0721ZM12.7511 9.18122C11.655 7.92381 9.70726 7.50044 8.2194 8.74788L9.50436 10.2805C10.0205 9.84772 10.7401 9.91794 11.2435 10.4954L12.7511 9.18122ZM8.2194 8.74788C6.80974 9.92976 6.59288 11.9479 7.72175 13.3733L9.28961 12.1317C8.8447 11.5699 8.90998 10.7788 9.50436 10.2805L8.2194 8.74788ZM16.2728 13.3733C17.3926 11.9594 17.2156 9.92261 15.7647 8.73924L14.5006 10.2891C15.0881 10.7683 15.1589 11.5584 14.7049 12.1317L16.2728 13.3733ZM15.7647 8.73924C14.27 7.5202 12.347 7.91528 11.2435 9.18122L12.7511 10.4954C13.247 9.92647 13.9568 9.84564 14.5006 10.2891L15.7647 8.73924ZM7.72175 13.3733C8.10436 13.8565 8.82017 14.549 9.46974 15.1507C10.1388 15.7703 10.8049 16.3547 11.1329 16.6397L12.4448 15.13C12.1238 14.8511 11.4755 14.2824 10.8288 13.6833C10.1625 13.0663 9.56125 12.4746 9.28961 12.1317L7.72175 13.3733ZM12.8616 16.6397C13.1896 16.3547 13.8558 15.7703 14.5248 15.1507C15.1743 14.549 15.8902 13.8565 16.2728 13.3733L14.7049 12.1317C14.4333 12.4746 13.832 13.0663 13.1658 13.6833C12.519 14.2824 11.8707 14.8511 11.5497 15.13L12.8616 16.6397ZM11.1329 16.6397C11.1574 16.661 11.2189 16.7154 11.2815 16.7616C11.3562 16.8168 11.4831 16.9001 11.6591 16.9516L12.221 15.0322C12.3547 15.0713 12.4423 15.1326 12.4701 15.1531C12.4828 15.1625 12.4884 15.1676 12.4814 15.1616C12.4742 15.1556 12.4646 15.1473 12.4448 15.13L11.1329 16.6397ZM11.5497 15.13C11.5299 15.1473 11.5203 15.1556 11.5132 15.1616C11.5061 15.1676 11.5117 15.1625 11.5244 15.1531C11.5522 15.1326 11.6398 15.0713 11.7735 15.0322L12.3354 16.9516C12.5114 16.9001 12.6383 16.8168 12.713 16.7616C12.7756 16.7154 12.8371 16.661 12.8616 16.6397L11.5497 15.13ZM11.6591 16.9516C11.8795 17.0161 12.115 17.0161 12.3354 16.9516L11.7735 15.0322C11.92 14.9893 12.0745 14.9893 12.221 15.0322L11.6591 16.9516Z" fill="black"/>
</svg>
