<svg viewBox="0 0 24 24" fill="none" xmlns="http://www.w3.org/2000/svg">
<path d="M10 21.9999C14.2503 21.9999 17.7265 18.6853 17.9846 14.5C18.0016 14.2244 17.7761 13.9999 17.5 13.9999H10.5C10.2239 13.9999 10 13.7761 10 13.4999V6.49993C10 6.22379 9.77553 5.99831 9.49991 6.01531C5.31459 6.27345 2 9.74961 2 13.9999C2 18.4182 5.58172 21.9999 10 21.9999Z" stroke="black" stroke-width="2"/>
<path d="M21.9846 9.49984C21.7367 5.47991 18.52 2.26325 14.5001 2.01531C14.2245 1.99831 14 2.22379 14 2.49993V9.49993C14 9.77607 14.2239 9.99993 14.5 9.99993L21.5 9.99993C21.7761 9.99993 22.0016 9.77546 21.9846 9.49984Z" stroke="black" stroke-width="2"/>
</svg>
