<svg viewBox="0 0 24 24" fill="none" xmlns="http://www.w3.org/2000/svg">
<path d="M17.6009 19.5387L15.2076 14.1829C15.0935 13.9276 15.2109 13.6285 15.4681 13.5189L20.9641 11.1775C21.2156 11.0704 21.5083 11.1845 21.6006 11.4418C21.8559 12.1535 22 12.9276 22 13.7183C22 16.3679 20.4962 18.6484 18.2435 19.7805C18.0009 19.9024 17.7116 19.7866 17.6009 19.5387Z" stroke="black" stroke-width="2"/>
<path d="M14 2.48439V9.20605C14 9.57016 14.3767 9.81217 14.7079 9.66079L20.5618 6.9847C20.8064 6.87289 20.9202 6.58669 20.8029 6.34465C19.6151 3.89156 17.2614 2.18583 14.4999 2.00106C14.2244 1.98262 14 2.20825 14 2.48439Z" stroke="black" stroke-width="2"/>
<path d="M2 13.9844C2 18.4027 5.58172 21.9844 10 21.9844C10.8998 21.9844 11.7649 21.8359 12.5721 21.562C12.8335 21.4733 12.955 21.1796 12.8501 20.9243L10.0375 14.0757C10.0127 14.0154 10 13.9509 10 13.8857V6.48444C10 6.2083 9.77553 5.98282 9.49991 5.99982C5.31459 6.25796 2 9.73412 2 13.9844Z" stroke="black" stroke-width="2"/>
</svg>
