<svg width="24" height="24" viewBox="0 0 24 24" fill="none" xmlns="http://www.w3.org/2000/svg">
<path d="M12 2C17.5228 2 22 6.47715 22 12C22 16.4292 19.1204 20.1859 15.1312 21.5C14.1462 21.8245 13.0936 22 12 22C10.1786 22 8.47087 21.513 7 20.6622M12 2C8.41135 2 5.26421 3.89033 3.5 6.72958C3.15446 7.28567 2.86197 7.87817 2.62961 8.5M12 2V11.7321C12 11.9076 11.9538 12.08 11.8661 12.232L7 20.6622M7 20.6622C4.85503 19.4214 3.21371 17.4067 2.4578 15C2.16035 14.053 2 13.0452 2 12C2 10.7687 2.22255 9.58934 2.62961 8.5M2.62961 8.5L7.3148 10.25L11.7299 11.8991" stroke="black" stroke-width="2" stroke-linecap="round"/>
</svg>
