<svg viewBox="0 0 24 24" fill="none" xmlns="http://www.w3.org/2000/svg">
  <path d="M1.07144 7.07273C1.1256 5.88936 1.31088 5.12616 1.56146 4.47833L1.56483 4.46938C1.81314 3.81015 2.20214 3.21295 2.70473 2.71934L2.71178 2.71242L2.71871 2.70537C3.21272 2.20212 3.81014 1.81351 4.46879 1.56586L4.48015 1.56152C5.12651 1.31015 5.88822 1.12555 7.07257 1.07141M1.07144 7.07273C1.01451 8.33709 1 8.72903 1 12.0073C1 15.2862 1.01371 15.6772 1.07141 16.9419M1.07144 7.07273V7.39166M7.07257 1.07141C8.33723 1.01371 8.72903 1 12.0072 1C15.2854 1 15.677 1.0145 16.9413 1.07142M7.07257 1.07141H7.39232M1.07141 16.9419C1.12555 18.1263 1.31015 18.8879 1.56152 19.5343L1.56586 19.5457M1.07141 16.9419L1.0908 17.044M1.07141 16.9419V16.6222M1.07144 7.39166C1.07587 7.29033 1.08064 7.18471 1.08574 7.07238C1.14508 5.77763 1.36519 5.02113 1.57499 4.48456C1.84651 3.78383 2.19046 3.25507 2.71594 2.72741C3.21541 2.21505 3.8226 1.82022 4.49349 1.57151C5.02768 1.36432 5.78218 1.14488 7.07205 1.08575C7.18473 1.08064 7.29068 1.07585 7.39232 1.07141M1.07144 7.39166C1.02458 8.46313 1.01451 9.0542 1.01451 12.0073C1.01451 14.9593 1.02458 15.5512 1.07141 16.6222M1.07144 7.39166L1.07141 16.6222M1.56586 19.5457C1.81351 20.2043 2.20212 20.8017 2.70537 21.2958L2.71241 21.3027L2.71932 21.3097C3.21295 21.8123 3.81017 22.2014 4.46941 22.4496L4.47925 22.4533C5.1262 22.7042 5.88828 22.8889 7.07257 22.9431M1.56586 19.5457L1.55102 19.4675M1.55102 19.4675L1.0908 17.044M1.55102 19.4675C1.35555 18.9512 1.15429 18.2306 1.0908 17.044M1.55102 19.4675C1.55787 19.4856 1.56472 19.5035 1.57156 19.5211C1.81943 20.1893 2.21218 20.7944 2.72158 21.2928C3.21981 21.8021 3.82464 22.1948 4.49266 22.4427C5.02874 22.6514 5.78412 22.8697 7.07238 22.9288C8.37245 22.9879 8.77411 23 12.0072 23C15.2404 23 15.6424 22.9879 16.9425 22.9288C18.2323 22.8696 18.9867 22.6502 19.521 22.443C20.1893 22.1952 20.7946 21.8024 21.2929 21.2928C21.8022 20.7945 22.1948 20.1898 22.4427 19.5218C22.6515 18.9857 22.8697 18.2304 22.9287 16.9421C22.9878 15.642 23 15.2395 23 12.0073C23 8.77493 22.9878 8.37212 22.9287 7.07205C22.8693 5.77546 22.6479 5.01983 22.4397 4.48516C22.1676 3.78267 21.8225 3.25137 21.2921 2.72094C20.7627 2.19262 20.2329 1.84733 19.5298 1.57494C18.9932 1.36516 18.2371 1.1451 16.9425 1.08575C16.8298 1.08064 16.724 1.07587 16.6224 1.07142M1.0908 17.044C1.08901 17.0105 1.08733 16.9767 1.08575 16.9424C1.08064 16.8298 1.07585 16.7238 1.07141 16.6222M16.6224 1.07142H16.9413M16.6224 1.07142L7.39232 1.07141M16.6224 1.07142C15.5514 1.02459 14.9596 1.01451 12.0072 1.01451C9.0551 1.01451 8.46321 1.02458 7.39232 1.07141M16.9413 1.07142C18.1249 1.12556 18.8882 1.31082 19.5362 1.56143L19.5451 1.56483C20.2043 1.81314 20.8015 2.20214 21.2951 2.70473L21.3019 2.71171L21.309 2.71857C21.8117 3.21221 22.2006 3.80958 22.4487 4.469L22.4529 4.48015C22.7043 5.12651 22.889 5.88822 22.943 7.07257M22.943 16.9419C22.889 18.1262 22.7043 18.8883 22.4534 19.5352L22.4497 19.545C22.2013 20.2043 21.8123 20.8015 21.3097 21.2951L21.3026 21.302L21.2958 21.3091C20.8017 21.8123 20.2044 22.2009 19.5457 22.4486L19.5343 22.453C18.888 22.7044 18.1262 22.8889 16.9419 22.9431M10.0495 16.7336C10.6702 16.9906 11.3354 17.123 12.0072 17.123C13.364 17.123 14.6653 16.584 15.6247 15.6246C16.584 14.6652 17.123 13.364 17.123 12.0073C17.123 10.6505 16.584 9.34924 15.6247 8.38985C14.6653 7.43046 13.364 6.89147 12.0072 6.89147C11.3354 6.89147 10.6702 7.0238 10.0495 7.2809C9.4288 7.53798 8.86489 7.91481 8.38986 8.38985C7.91482 8.86489 7.538 9.42885 7.2809 10.0495C7.02381 10.6701 6.89149 11.3355 6.89149 12.0073C6.89149 12.6791 7.02381 13.3443 7.2809 13.9649C7.538 14.5857 7.91482 15.1496 8.38986 15.6246C8.86489 16.0996 9.4288 16.4765 10.0495 16.7336ZM8.37846 8.37845C9.34092 7.41603 10.6462 6.87536 12.0072 6.87536C13.3683 6.87536 14.6736 7.41603 15.636 8.37845C16.5985 9.34087 17.1391 10.6462 17.1391 12.0073C17.1391 13.3683 16.5985 14.6736 15.636 15.636C14.6736 16.5984 13.3683 17.1391 12.0072 17.1391C10.6462 17.1391 9.34092 16.5984 8.37846 15.636C7.41605 14.6736 6.87537 13.3683 6.87537 12.0073C6.87537 10.6462 7.41605 9.34087 8.37846 8.37845ZM20.0288 5.68054C20.0288 6.0701 19.874 6.44371 19.5987 6.71917C19.3232 6.99463 18.9496 7.14938 18.5601 7.14938C18.1704 7.14938 17.7969 6.99463 17.5214 6.71917C17.246 6.44371 17.0912 6.0701 17.0912 5.68054C17.0912 5.29098 17.246 4.91737 17.5214 4.64192C17.7969 4.36646 18.1704 4.2117 18.5601 4.2117C18.9496 4.2117 19.3232 4.36646 19.5987 4.64192C19.874 4.91737 20.0288 5.29098 20.0288 5.68054Z" stroke="currentColor" stroke-width="2" stroke-linejoin="round"/>
</svg>
