<svg viewBox="0 0 24 24" fill="none" xmlns="http://www.w3.org/2000/svg">
  <path fill-rule="evenodd" clip-rule="evenodd" d="M16.3245 0.00672577L1.56898 1.00889C0.685126 1.06893 0 1.77579 0 2.62767V16.9046C0 17.705 0.276973 18.4827 0.787286 19.1151L3.96881 23.0579C4.48321 23.6953 5.29271 24.0463 6.1302 23.9951L22.5072 22.9922C23.3466 22.9408 24 22.2713 24 21.4627V5.23118C24 4.73089 23.7461 4.2621 23.3196 3.97533L18.1354 0.488464C17.607 0.133114 16.9677 -0.0369562 16.3245 0.00672577ZM2.30068 2.85037C2.09545 2.69921 2.19312 2.38433 2.45093 2.36593L16.4238 1.36893C16.869 1.33717 17.3114 1.45912 17.6714 1.71288L20.475 3.68879C20.5814 3.76381 20.5315 3.92575 20.3997 3.93288L5.60249 4.73344C5.15468 4.75767 4.71266 4.6268 4.3566 4.36457L2.30068 2.85037ZM4.90843 7.24316C4.90843 6.76493 5.2968 6.36995 5.79341 6.34304L21.4382 5.49545C21.9223 5.46924 22.3297 5.83951 22.3297 6.30558V20.3604C22.3297 20.8377 21.9427 21.2323 21.4471 21.2603L5.90128 22.1402C5.36265 22.1708 4.90843 21.759 4.90843 21.2403V7.24316Z" fill="currentColor"/>
  <path d="M7.60612 9.77187V9.58497C7.60612 9.11117 7.9876 8.71823 8.47926 8.68557L12.0603 8.44769L17.0127 15.7025V9.33517L15.738 9.16607V9.07737C15.738 8.59796 16.1281 8.20246 16.6261 8.17706L19.8845 8.01105V8.47751C19.8845 8.69642 19.7208 8.88378 19.4965 8.92151L18.7123 9.05347V19.3651L17.7283 19.7017C16.9061 19.983 15.9909 19.6819 15.5202 18.9754L10.7124 11.7582V18.6467L12.1921 18.9283L12.1716 19.0649C12.1069 19.4926 11.7357 19.8161 11.2867 19.836L7.60612 19.999C7.55746 19.539 7.90398 19.1276 8.38203 19.0776L8.8662 19.027V9.84227L7.60612 9.77187Z" fill="currentColor"/>
</svg>
