<svg viewBox="0 0 24 24" fill="none" xmlns="http://www.w3.org/2000/svg">
  <path d="M12 22C17.5229 22 22 17.5229 22 12C22 6.47717 17.5229 2 12 2C6.47715 2 2 6.47717 2 12C2 13.2856 2.24258 14.5145 2.68446 15.6435C2.85052 16.0677 2.92176 16.5267 2.84609 16.976L2.12963 21.2304C2.06619 21.607 2.39305 21.9339 2.76973 21.8705L7.02401 21.154C7.47332 21.0784 7.93233 21.1496 8.35664 21.3156C9.48558 21.7575 10.7145 22 12 22Z" stroke="currentColor" stroke-width="2" stroke-linecap="round"/>
  <path d="M9.5155 10.0625C9.9644 10.9975 10.5763 11.8737 11.3514 12.6487C12.1263 13.4237 13.0025 14.0357 13.9376 14.4846C14.018 14.5232 14.0582 14.5424 14.1091 14.5573C14.2899 14.61 14.5119 14.5722 14.665 14.4625C14.7081 14.4317 14.7451 14.3948 14.8187 14.321C15.0442 14.0956 15.157 13.9829 15.2703 13.9091C15.6979 13.6311 16.249 13.6311 16.6766 13.9091C16.79 13.9829 16.9028 14.0956 17.1283 14.321L17.2539 14.4468C17.5966 14.7895 17.7681 14.9609 17.8611 15.145C18.0463 15.5111 18.0463 15.9433 17.8611 16.3094C17.7681 16.4934 17.5966 16.6649 17.2539 17.0076L17.1523 17.1093C16.8106 17.4509 16.6399 17.6217 16.4077 17.7521C16.1499 17.8968 15.7497 18.001 15.4543 18C15.1879 17.9993 15.0058 17.9476 14.6417 17.8443C12.6854 17.289 10.8392 16.2412 9.29903 14.7011C7.75885 13.1609 6.71109 11.3147 6.15579 9.35823C6.05246 8.99417 6.0008 8.81215 6.00001 8.54581C5.99913 8.25026 6.10318 7.85006 6.24794 7.59239C6.37838 7.36018 6.54918 7.18938 6.89077 6.84779L6.99245 6.74611C7.33522 6.40335 7.5066 6.23197 7.69067 6.13887C8.05674 5.95371 8.48904 5.95371 8.8551 6.13887C9.03917 6.23197 9.21054 6.40335 9.55331 6.74611L9.679 6.8718C9.9045 7.09729 10.0172 7.21003 10.0909 7.32341C10.3689 7.75095 10.3689 8.30214 10.0909 8.72969C10.0172 8.84307 9.9045 8.95581 9.679 9.18129C9.60528 9.25502 9.56841 9.29189 9.53756 9.33499C9.4279 9.48812 9.39004 9.71016 9.44275 9.89097C9.45758 9.94185 9.47689 9.98205 9.5155 10.0625Z" stroke="currentColor" stroke-width="2" stroke-linecap="round"/>
</svg>
