<svg viewBox="0 0 24 24" fill="none" xmlns="http://www.w3.org/2000/svg">
  <path d="M9.22252 10.7239C9.63401 11.581 10.195 12.3842 10.9054 13.0946C11.6158 13.805 12.419 14.366 13.2761 14.7775C13.3498 14.8129 13.3867 14.8306 13.4333 14.8442C13.599 14.8925 13.8026 14.8578 13.943 14.7573C13.9825 14.729 14.0163 14.6952 14.0838 14.6276C14.2905 14.4209 14.3939 14.3176 14.4978 14.25C14.8897 13.9952 15.395 13.9952 15.7869 14.25C15.8908 14.3176 15.9942 14.4209 16.2009 14.6276L16.3161 14.7428C16.6303 15.057 16.7874 15.2141 16.8727 15.3828C17.0424 15.7184 17.0424 16.1147 16.8727 16.4502C16.7874 16.619 16.6303 16.7761 16.3161 17.0903L16.2229 17.1835C15.9097 17.4966 15.7532 17.6531 15.5403 17.7727C15.3041 17.9054 14.9373 18.0008 14.6664 18C14.4222 17.9993 14.2554 17.9519 13.9216 17.8572C12.1282 17.3482 10.4359 16.3877 9.0241 14.9759C7.61226 13.5641 6.65184 11.8718 6.14281 10.0784C6.04809 9.74464 6.00073 9.57778 6.00001 9.33364C5.9992 9.06273 6.0946 8.69588 6.22728 8.45968C6.34686 8.24682 6.50342 8.09026 6.81655 7.77713L6.90974 7.68393C7.22394 7.36973 7.38105 7.21263 7.54977 7.12729C7.88533 6.95757 8.2816 6.95757 8.61716 7.12729C8.78588 7.21263 8.94298 7.36973 9.25718 7.68393L9.3724 7.79915C9.57909 8.00584 9.68244 8.10919 9.75001 8.21311C10.0048 8.60503 10.0048 9.11028 9.75001 9.5022C9.68244 9.60612 9.57909 9.70947 9.3724 9.91616C9.30481 9.98375 9.27102 10.0175 9.24274 10.057C9.14222 10.1974 9.10752 10.401 9.15583 10.5667C9.16943 10.6133 9.18713 10.6502 9.22252 10.7239Z" stroke="currentColor" stroke-width="2"/>
</svg>
