<svg viewBox="0 0 24 24" fill="none" xmlns="http://www.w3.org/2000/svg">
  <path d="M22.7753 7.55926C22.7753 7.55926 22.5625 5.93926 21.9003 5.22978C21.0607 4.29562 20.1266 4.28971 19.695 4.2365C16.6146 4 11.997 4 11.997 4H11.9852C11.9852 4 7.36764 4 4.28729 4.2365C3.85568 4.28971 2.92153 4.29562 2.08197 5.22978C1.42569 5.94518 1.20693 7.55926 1.20693 7.55926C1.20693 7.55926 1 9.45714 1 11.355V13.1346C1 15.0325 1.21876 16.9304 1.21876 16.9304C1.21876 16.9304 1.4316 18.5504 2.09379 19.2599C2.93335 20.194 4.02714 20.1645 4.51787 20.265C6.27976 20.4424 11.997 20.5015 11.997 20.5015C11.997 20.5015 16.6205 20.4956 19.7009 20.2591C20.1325 20.2059 21.0666 20.1999 21.9062 19.2658C22.5625 18.5563 22.7812 16.9363 22.7812 16.9363C22.7812 16.9363 23 15.0384 23 13.1406V11.3609C22.9941 9.45714 22.7753 7.55926 22.7753 7.55926Z" stroke="currentColor" stroke-width="2" stroke-miterlimit="10" stroke-linejoin="round" />
  <path d="M9.24609 8.12093V16.3746L16.1222 12.2478L9.24609 8.12093Z" stroke="currentColor" stroke-width="2" stroke-miterlimit="10" stroke-linejoin="round"/>
</svg>
