<svg viewBox="0 0 24 24" fill="none" xmlns="http://www.w3.org/2000/svg">
<path d="M19.782 3.09202L20.673 2.63803V2.63803L19.782 3.09202ZM18.908 2.21799L19.362 1.32698L19.362 1.32698L18.908 2.21799ZM18.908 21.782L19.362 22.673L19.362 22.673L18.908 21.782ZM19.782 20.908L20.673 21.362L20.673 21.362L19.782 20.908ZM5.09202 21.782L4.63803 22.673H4.63803L5.09202 21.782ZM4.21799 20.908L3.32698 21.362L3.32698 21.362L4.21799 20.908ZM4.58711 7.41289L5.29422 8.12H5.29422L4.58711 7.41289ZM9.41421 2.58579L10.1213 3.29289V3.29289L9.41421 2.58579ZM20 8L21 8.0016V8H20ZM4.01919 20L3.01919 20.0016L3.01924 20.0313L3.02105 20.0609L4.01919 20ZM19.9808 20L20.979 20.0609L20.9808 20.0313L20.9808 20.0016L19.9808 20ZM4.00133 8.8303L3.00133 8.8319L4.00133 8.8303ZM4 12C3.44772 12 3 12.4477 3 13C3 13.5523 3.44772 14 4 14V12ZM20 14C20.5523 14 21 13.5523 21 13C21 12.4477 20.5523 12 20 12V14ZM14.7319 7.68139C15.1082 7.27716 15.0856 6.6444 14.6814 6.26808C14.2772 5.89176 13.6444 5.91438 13.2681 6.31861L14.7319 7.68139ZM12.2357 8.89513L12.9676 9.57652V9.57652L12.2357 8.89513ZM11.7643 8.89513L11.0324 9.57652V9.57652L11.7643 8.89513ZM10.7319 6.31861C10.3556 5.91438 9.72284 5.89176 9.31861 6.26808C8.91438 6.6444 8.89176 7.27716 9.26808 7.68139L10.7319 6.31861ZM9.26808 17.3186C8.89176 17.7228 8.91438 18.3556 9.31861 18.7319C9.72284 19.1082 10.3556 19.0856 10.7319 18.6814L9.26808 17.3186ZM11.7643 16.1049L12.4962 16.7863L11.7643 16.1049ZM12.2357 16.1049L12.9676 15.4235L12.2357 16.1049ZM13.2681 18.6814C13.6444 19.0856 14.2772 19.1082 14.6814 18.7319C15.0856 18.3556 15.1082 17.7228 14.7319 17.3186L13.2681 18.6814ZM7.2 23H16.8V21H7.2V23ZM21 5.2C21 4.65645 21.0008 4.18864 20.9694 3.80497C20.9371 3.40963 20.8658 3.01641 20.673 2.63803L18.891 3.54601C18.9162 3.59545 18.9539 3.69617 18.9761 3.96784C18.9992 4.25117 19 4.62345 19 5.2H21ZM16.8 3C17.3766 3 17.7488 3.00078 18.0322 3.02393C18.3038 3.04612 18.4045 3.0838 18.454 3.10899L19.362 1.32698C18.9836 1.13419 18.5904 1.06287 18.195 1.03057C17.8114 0.999222 17.3436 1 16.8 1V3ZM20.673 2.63803C20.3854 2.07354 19.9265 1.6146 19.362 1.32698L18.454 3.10899C18.6422 3.20487 18.7951 3.35785 18.891 3.54601L20.673 2.63803ZM16.8 23C17.3436 23 17.8114 23.0008 18.195 22.9694C18.5904 22.9371 18.9836 22.8658 19.362 22.673L18.454 20.891C18.4045 20.9162 18.3038 20.9539 18.0322 20.9761C17.7488 20.9992 17.3766 21 16.8 21V23ZM19.362 22.673C19.9265 22.3854 20.3854 21.9265 20.673 21.362L18.891 20.454C18.7951 20.6422 18.6422 20.7951 18.454 20.891L19.362 22.673ZM7.2 21C6.62346 21 6.25118 20.9992 5.96784 20.9761C5.69617 20.9539 5.59545 20.9162 5.54601 20.891L4.63803 22.673C5.01641 22.8658 5.40964 22.9371 5.80498 22.9694C6.18865 23.0008 6.65646 23 7.2 23V21ZM5.54601 20.891C5.35785 20.7951 5.20487 20.6422 5.10899 20.454L3.32698 21.362C3.6146 21.9265 4.07354 22.3854 4.63803 22.673L5.54601 20.891ZM16.8 1H10.8284V3H16.8V1ZM5.29422 8.12L10.1213 3.29289L8.70711 1.87868L3.88 6.70578L5.29422 8.12ZM21 8V5.2H19V8H21ZM3.02105 20.0609C3.04806 20.5033 3.11359 20.9432 3.32698 21.362L5.10899 20.454C5.08035 20.3978 5.03822 20.2811 5.01733 19.9391L3.02105 20.0609ZM18.9827 19.9391C18.9618 20.2811 18.9196 20.3978 18.891 20.454L20.673 21.362C20.8864 20.9432 20.9519 20.5033 20.979 20.0609L18.9827 19.9391ZM3.00133 8.8319L3.01919 20.0016L5.01919 19.9984L5.00133 8.8287L3.00133 8.8319ZM19 7.9984L18.9808 19.9984L20.9808 20.0016L21 8.0016L19 7.9984ZM10.8284 1C10.0328 1 9.26971 1.31607 8.70711 1.87868L10.1213 3.29289C10.3089 3.10536 10.5632 3 10.8284 3V1ZM3.88 6.70578C3.31622 7.26957 3.00005 8.03459 3.00133 8.8319L5.00133 8.8287C5.0009 8.56293 5.10629 8.30792 5.29422 8.12L3.88 6.70578ZM4 14H20V12H4V14ZM13.2681 6.31861L11.5038 8.21374L12.9676 9.57652L14.7319 7.68139L13.2681 6.31861ZM12.4962 8.21374L10.7319 6.31861L9.26808 7.68139L11.0324 9.57652L12.4962 8.21374ZM11.5038 8.21374C11.7691 7.92875 12.2309 7.92875 12.4962 8.21374L11.0324 9.57652C11.558 10.1412 12.442 10.1412 12.9676 9.57652L11.5038 8.21374ZM10.7319 18.6814L12.4962 16.7863L11.0324 15.4235L9.26808 17.3186L10.7319 18.6814ZM11.5038 16.7863L13.2681 18.6814L14.7319 17.3186L12.9676 15.4235L11.5038 16.7863ZM12.4962 16.7863C12.2309 17.0712 11.7691 17.0712 11.5038 16.7863L12.9676 15.4235C12.442 14.8588 11.558 14.8588 11.0324 15.4235L12.4962 16.7863Z" fill="currentColor"/>
</svg>
