<svg viewBox="0 0 24 24" fill="none" xmlns="http://www.w3.org/2000/svg">
<path d="M19.782 3.09202L20.673 2.63803V2.63803L19.782 3.09202ZM16.8 2V3V2ZM18.908 2.21799L19.362 1.32698L19.362 1.32698L18.908 2.21799ZM18.908 21.782L19.362 22.673L19.362 22.673L18.908 21.782ZM19.782 20.908L20.673 21.362L20.673 21.362L19.782 20.908ZM5.09202 21.782L4.63803 22.673H4.63803L5.09202 21.782ZM4.21799 20.908L5.10899 20.454L5.10899 20.454L4.21799 20.908ZM4.58579 8.41417L3.87869 7.70706H3.87869L4.58579 8.41417ZM10.4142 2.58578L9.70711 1.87867V1.87867L10.4142 2.58578ZM7.2 23H16.8V21H7.2V23ZM21 18.8V5.2H19V18.8H21ZM21 5.2C21 4.65645 21.0008 4.18864 20.9694 3.80497C20.9371 3.40963 20.8658 3.01641 20.673 2.63803L18.891 3.54601C18.9162 3.59545 18.9539 3.69617 18.9761 3.96784C18.9992 4.25117 19 4.62345 19 5.2H21ZM16.8 3C17.3766 3 17.7488 3.00078 18.0322 3.02393C18.3038 3.04612 18.4045 3.0838 18.454 3.10899L19.362 1.32698C18.9836 1.13419 18.5904 1.06287 18.195 1.03057C17.8114 0.999222 17.3436 1 16.8 1V3ZM20.673 2.63803C20.3854 2.07354 19.9265 1.6146 19.362 1.32698L18.454 3.10899C18.6422 3.20487 18.7951 3.35785 18.891 3.54601L20.673 2.63803ZM16.8 23C17.3436 23 17.8114 23.0008 18.195 22.9694C18.5904 22.9371 18.9836 22.8658 19.362 22.673L18.454 20.891C18.4045 20.9162 18.3038 20.9539 18.0322 20.9761C17.7488 20.9992 17.3766 21 16.8 21V23ZM19 18.8C19 19.3766 18.9992 19.7488 18.9761 20.0322C18.9539 20.3038 18.9162 20.4045 18.891 20.454L20.673 21.362C20.8658 20.9836 20.9371 20.5904 20.9694 20.195C21.0008 19.8114 21 19.3435 21 18.8H19ZM19.362 22.673C19.9265 22.3854 20.3854 21.9265 20.673 21.362L18.891 20.454C18.7951 20.6421 18.6422 20.7951 18.454 20.891L19.362 22.673ZM7.2 21C6.62346 21 6.25118 20.9992 5.96784 20.9761C5.69617 20.9539 5.59545 20.9162 5.54601 20.891L4.63803 22.673C5.01641 22.8658 5.40964 22.9371 5.80498 22.9694C6.18865 23.0008 6.65646 23 7.2 23V21ZM3 18.8C3 19.3436 2.99922 19.8114 3.03057 20.195C3.06287 20.5904 3.13419 20.9836 3.32698 21.362L5.10899 20.454C5.0838 20.4045 5.04612 20.3038 5.02393 20.0322C5.00078 19.7488 5 19.3766 5 18.8H3ZM5.54601 20.891C5.35785 20.7951 5.20487 20.6422 5.10899 20.454L3.32698 21.362C3.6146 21.9265 4.07354 22.3854 4.63803 22.673L5.54601 20.891ZM3 9.82838V18.8H5V9.82838H3ZM16.8 1H11.8284V3H16.8V1ZM5.2929 9.12127L11.1213 3.29289L9.70711 1.87867L3.87869 7.70706L5.2929 9.12127ZM5 10H9.92308V8H5V10ZM12 7.92307V3H10V7.92307H12ZM9.92308 10C11.0701 10 12 9.07012 12 7.92307H10C10 7.96557 9.96555 8 9.92308 8V10ZM11.8284 1C11.3956 1 10.9723 1.09357 10.5858 1.26945L11.4142 3.08982C11.5431 3.03116 11.6841 3 11.8284 3V1ZM10.5858 1.26945C10.2619 1.41687 9.96362 1.62216 9.70711 1.87867L11.1213 3.29289C11.2068 3.20737 11.3062 3.13897 11.4142 3.08982L10.5858 1.26945ZM12 3V2.17964H10V3H12ZM5 9.82838C5 9.68411 5.03116 9.54309 5.08982 9.41418L3.26943 8.58582C3.09356 8.97229 3 9.39553 3 9.82838H5ZM5.08982 9.41418C5.13897 9.30617 5.20737 9.2068 5.2929 9.12127L3.87869 7.70706C3.62216 7.96358 3.41685 8.26185 3.26943 8.58582L5.08982 9.41418ZM5 8H4.17962V10H5V8Z" fill="black"/>
</svg>
