<svg viewBox="0 0 24 24" fill="none" xmlns="http://www.w3.org/2000/svg">
<g clip-path="url(#clip0_9_1470)">
<path d="M1 9C1 6.19974 1 4.79961 1.54497 3.73005C2.02433 2.78924 2.78924 2.02433 3.73005 1.54497C4.79961 1 6.19974 1 9 1H15C17.8003 1 19.2004 1 20.27 1.54497C21.2108 2.02433 21.9757 2.78924 22.455 3.73005C23 4.79961 23 6.19974 23 9V15C23 17.8003 23 19.2004 22.455 20.27C21.9757 21.2108 21.2108 21.9757 20.27 22.455C19.2004 23 17.8003 23 15 23H9C6.19974 23 4.79961 23 3.73005 22.455C2.78924 21.9757 2.02433 21.2108 1.54497 20.27C1 19.2004 1 17.8003 1 15V9Z" stroke="black" stroke-width="2"/>
<path d="M12 7C10.3431 7 9 8.34315 9 10C9 10.7604 9.28288 11.4547 9.74914 11.9834C9.89017 12.1433 9.94462 12.368 9.86209 12.5646L8.58234 15.6129C8.30567 16.2719 8.78965 17 9.50438 17H14.4956C15.2104 17 15.6943 16.2719 15.4177 15.6129L14.1379 12.5646C14.0554 12.368 14.1098 12.1433 14.2509 11.9834C14.7171 11.4547 15 10.7604 15 10C15 8.34315 13.6569 7 12 7Z" stroke="black" stroke-width="2"/>
</g>
<defs>
<clipPath id="clip0_9_1470">
<rect width="24" height="24" fill="white"/>
</clipPath>
</defs>
</svg>
