<svg viewBox="0 0 24 24" fill="none" xmlns="http://www.w3.org/2000/svg">
<path d="M7.2 22V21V22ZM16.8 22V23V22ZM20 18.8H19H20ZM20 5.2H21H20ZM19.782 3.09202L20.673 2.63803V2.63803L19.782 3.09202ZM16.8 2V1V2ZM18.908 2.21799L19.362 1.32698L19.362 1.32698L18.908 2.21799ZM18.908 21.782L19.362 22.673L18.908 21.782ZM19.782 20.908L18.891 20.454L19.782 20.908ZM5.09202 21.782L5.54601 20.891L5.09202 21.782ZM4 18.8H3H4ZM4.21799 20.908L5.10899 20.454H5.10899L4.21799 20.908ZM5 8C5 7.44772 4.55228 7 4 7C3.44772 7 3 7.44772 3 8H5ZM10 1C9.44771 1 9 1.44772 9 2C9 2.55229 9.44771 3 10 3V1ZM4.17071 7.82929L3.46361 7.12218L4.17071 7.82929ZM9.82929 2.17071L10.5364 2.87782L9.82929 2.17071ZM4.24142 8L4.24142 9L4.24142 8ZM9 8V7V8ZM10 7H9H10ZM10 2.24142H11V2.24142L10 2.24142ZM8 11C7.44772 11 7 11.4477 7 12C7 12.5523 7.44772 13 8 13V11ZM16 13C16.5523 13 17 12.5523 17 12C17 11.4477 16.5523 11 16 11V13ZM14 7C13.4477 7 13 7.44772 13 8C13 8.55229 13.4477 9 14 9V7ZM16 9C16.5523 9 17 8.55229 17 8C17 7.44772 16.5523 7 16 7V9ZM8 15C7.44772 15 7 15.4477 7 16C7 16.5523 7.44772 17 8 17V15ZM16 17C16.5523 17 17 16.5523 17 16C17 15.4477 16.5523 15 16 15V17ZM7.2 23H16.8V21H7.2V23ZM21 18.8V5.2H19V18.8H21ZM21 5.2C21 4.65645 21.0008 4.18864 20.9694 3.80497C20.9371 3.40963 20.8658 3.01641 20.673 2.63803L18.891 3.54601C18.9162 3.59545 18.9539 3.69617 18.9761 3.96784C18.9992 4.25117 19 4.62345 19 5.2H21ZM16.8 3C17.3766 3 17.7488 3.00078 18.0322 3.02393C18.3038 3.04612 18.4045 3.0838 18.454 3.10899L19.362 1.32698C18.9836 1.13419 18.5904 1.06287 18.195 1.03057C17.8114 0.999222 17.3436 1 16.8 1V3ZM20.673 2.63803C20.3854 2.07354 19.9265 1.6146 19.362 1.32698L18.454 3.10899C18.6422 3.20487 18.7951 3.35785 18.891 3.54601L20.673 2.63803ZM16.8 23C17.3436 23 17.8114 23.0008 18.195 22.9694C18.5904 22.9371 18.9836 22.8658 19.362 22.673L18.454 20.891C18.4045 20.9162 18.3038 20.9539 18.0322 20.9761C17.7488 20.9992 17.3766 21 16.8 21V23ZM19 18.8C19 19.3766 18.9992 19.7488 18.9761 20.0322C18.9539 20.3038 18.9162 20.4045 18.891 20.454L20.673 21.362C20.8658 20.9836 20.9371 20.5904 20.9694 20.195C21.0008 19.8114 21 19.3435 21 18.8H19ZM19.362 22.673C19.9265 22.3854 20.3854 21.9265 20.673 21.362L18.891 20.454C18.7951 20.6422 18.6422 20.7951 18.454 20.891L19.362 22.673ZM7.2 21C6.62345 21 6.25117 20.9992 5.96784 20.9761C5.69617 20.9539 5.59545 20.9162 5.54601 20.891L4.63803 22.673C5.01641 22.8658 5.40963 22.9371 5.80497 22.9694C6.18865 23.0008 6.65645 23 7.2 23V21ZM3 18.8C3 19.3436 2.99922 19.8114 3.03057 20.195C3.06287 20.5904 3.13419 20.9836 3.32698 21.362L5.10899 20.454C5.0838 20.4045 5.04612 20.3038 5.02393 20.0322C5.00078 19.7488 5 19.3766 5 18.8H3ZM5.54601 20.891C5.35785 20.7951 5.20487 20.6422 5.10899 20.454L3.32698 21.362C3.6146 21.9265 4.07354 22.3854 4.63803 22.673L5.54601 20.891ZM3 8L3 18.8H5L5 8H3ZM16.8 1L10 1V3L16.8 3V1ZM4.87782 8.5364L10.5364 2.87782L9.12218 1.46361L3.46361 7.12218L4.87782 8.5364ZM4.24142 9L9 9V7L4.24142 7L4.24142 9ZM11 7V2.24142H9V7H11ZM9 9C10.1046 9 11 8.10457 11 7H9H9V9ZM10.5364 2.87782C9.96943 3.44478 9 3.04324 9 2.24142L11 2.24142C11 1.26142 9.81514 0.770647 9.12218 1.46361L10.5364 2.87782ZM3.46361 7.12218C2.77064 7.81515 3.26143 9 4.24142 9L4.24142 7C5.04324 7 5.44479 7.96943 4.87782 8.5364L3.46361 7.12218ZM8 13H16V11H8V13ZM14 9H16V7H14V9ZM8 17H16V15H8V17Z" fill="currentColor"/>
</svg>
