<svg width="24" height="24" viewBox="0 0 24 24" fill="none" xmlns="http://www.w3.org/2000/svg">
<path d="M3 21H4M21 21H20M4 21V6.2C4 5.07989 4 4.51984 4.21799 4.09202C4.40973 3.71569 4.71569 3.40973 5.09202 3.21799C5.51984 3 6.0799 3 7.2 3H12.8C13.9201 3 14.4802 3 14.908 3.21799C15.2843 3.40973 15.5903 3.71569 15.782 4.09202C16 4.51984 16 5.07989 16 6.2V8M4 21H8M16 21V8M16 21H20M16 21H12M16 8H18.4C18.9601 8 19.2401 8 19.454 8.10899C19.6422 8.20487 19.7951 8.35785 19.891 8.54601C20 8.75992 20 9.03995 20 9.6V21M10 7V11M8 9H12M8 21V16.6C8 16.0399 8 15.7599 8.10899 15.546C8.20487 15.3578 8.35785 15.2049 8.54601 15.109C8.75992 15 9.03995 15 9.6 15H10.4C10.9601 15 11.2401 15 11.454 15.109C11.6422 15.2049 11.7951 15.3578 11.891 15.546C12 15.7599 12 16.0399 12 16.6V21M8 21H12" stroke="black" stroke-width="2" stroke-linecap="round"/>
</svg>
