<svg width="24" height="24" viewBox="0 0 24 24" fill="none" xmlns="http://www.w3.org/2000/svg">
<path d="M3.73005 22.455L4.18404 21.564H4.18404L3.73005 22.455ZM1.54497 20.27L2.43597 19.816H2.43597L1.54497 20.27ZM22.455 20.27L21.564 19.816V19.816L22.455 20.27ZM20.27 22.455L19.816 21.564H19.816L20.27 22.455ZM20.27 1.54497L19.816 2.43597V2.43597L20.27 1.54497ZM22.455 3.73005L21.564 4.18404V4.18404L22.455 3.73005ZM3.73005 1.54497L4.18404 2.43597L3.73005 1.54497ZM1.54497 3.73005L2.43597 4.18404L1.54497 3.73005ZM6 6C5.44772 6 5 6.44772 5 7C5 7.55228 5.44772 8 6 8V6ZM7.63768 8.11444L6.64369 8.22395L7.63768 8.11444ZM8.14956 12.7606L7.15557 12.8701L8.14956 12.7606ZM16.0892 12.9339L17.0576 13.1833L16.0892 12.9339ZM16.9602 9.55194L15.9918 9.30253L16.9602 9.55194ZM8.27234 6.99306C7.72006 6.99306 7.27234 7.44077 7.27234 7.99306C7.27234 8.54534 7.72006 8.99306 8.27234 8.99306V6.99306ZM8.28797 15.1406C7.73568 15.1406 7.28797 15.5883 7.28797 16.1406C7.28797 16.6929 7.73568 17.1406 8.28797 17.1406V15.1406ZM8.76137 17.1406C9.31365 17.1406 9.76137 16.6929 9.76137 16.1406C9.76137 15.5883 9.31365 15.1406 8.76137 15.1406V17.1406ZM8.28797 15.6093C7.73568 15.6093 7.28797 16.0571 7.28797 16.6093C7.28797 17.1616 7.73568 17.6093 8.28797 17.6093V15.6093ZM8.76137 17.6093C9.31365 17.6093 9.76137 17.1616 9.76137 16.6093C9.76137 16.0571 9.31365 15.6093 8.76137 15.6093V17.6093ZM15.2312 15.1406C14.6789 15.1406 14.2312 15.5883 14.2312 16.1406C14.2312 16.6929 14.6789 17.1406 15.2312 17.1406V15.1406ZM15.7046 17.1406C16.2569 17.1406 16.7046 16.6929 16.7046 16.1406C16.7046 15.5883 16.2569 15.1406 15.7046 15.1406V17.1406ZM15.2312 15.6093C14.6789 15.6093 14.2312 16.0571 14.2312 16.6093C14.2312 17.1616 14.6789 17.6093 15.2312 17.6093V15.6093ZM15.7046 17.6093C16.2569 17.6093 16.7046 17.1616 16.7046 16.6093C16.7046 16.0571 16.2569 15.6093 15.7046 15.6093V17.6093ZM9 2H15V0H9V2ZM22 9V15H24V9H22ZM15 22H9V24H15V22ZM2 15V9H0V15H2ZM9 22C7.58337 22 6.58104 21.9992 5.79744 21.9352C5.02552 21.8721 4.55435 21.7527 4.18404 21.564L3.27606 23.346C3.9753 23.7023 4.73898 23.8554 5.63458 23.9286C6.51851 24.0008 7.61637 24 9 24V22ZM0 15C0 16.3836 -0.000777721 17.4815 0.071442 18.3654C0.144616 19.261 0.297677 20.0247 0.653961 20.7239L2.43597 19.816C2.24729 19.4457 2.12787 18.9745 2.0648 18.2026C2.00078 17.419 2 16.4166 2 15H0ZM4.18404 21.564C3.43139 21.1805 2.81947 20.5686 2.43597 19.816L0.653961 20.7239C1.2292 21.8529 2.14708 22.7708 3.27606 23.346L4.18404 21.564ZM22 15C22 16.4166 21.9992 17.419 21.9352 18.2026C21.8721 18.9745 21.7527 19.4457 21.564 19.816L23.346 20.7239C23.7023 20.0247 23.8554 19.261 23.9286 18.3654C24.0008 17.4815 24 16.3836 24 15H22ZM15 24C16.3836 24 17.4815 24.0008 18.3654 23.9286C19.261 23.8554 20.0247 23.7023 20.7239 23.346L19.816 21.564C19.4457 21.7527 18.9745 21.8721 18.2026 21.9352C17.419 21.9992 16.4166 22 15 22V24ZM21.564 19.816C21.1805 20.5686 20.5686 21.1805 19.816 21.564L20.7239 23.346C21.8529 22.7708 22.7708 21.8529 23.346 20.7239L21.564 19.816ZM15 2C16.4166 2 17.419 2.00078 18.2026 2.0648C18.9745 2.12787 19.4457 2.24729 19.816 2.43597L20.7239 0.653961C20.0247 0.297677 19.261 0.144616 18.3654 0.071442C17.4815 -0.000777721 16.3836 0 15 0V2ZM24 9C24 7.61637 24.0008 6.51851 23.9286 5.63458C23.8554 4.73898 23.7023 3.9753 23.346 3.27606L21.564 4.18404C21.7527 4.55435 21.8721 5.02552 21.9352 5.79744C21.9992 6.58104 22 7.58337 22 9H24ZM19.816 2.43597C20.5686 2.81947 21.1805 3.43139 21.564 4.18404L23.346 3.27606C22.7708 2.14708 21.8529 1.2292 20.7239 0.653961L19.816 2.43597ZM9 0C7.61637 0 6.51851 -0.000777721 5.63458 0.071442C4.73898 0.144616 3.9753 0.297677 3.27606 0.653961L4.18404 2.43597C4.55435 2.24729 5.02552 2.12787 5.79744 2.0648C6.58104 2.00078 7.58337 2 9 2V0ZM2 9C2 7.58337 2.00078 6.58104 2.0648 5.79744C2.12787 5.02552 2.24729 4.55435 2.43597 4.18404L0.653961 3.27606C0.297677 3.9753 0.144616 4.73898 0.071442 5.63458C-0.000777721 6.51851 0 7.61637 0 9H2ZM3.27606 0.653961C2.14708 1.2292 1.2292 2.14708 0.653961 3.27606L2.43597 4.18404C2.81947 3.43139 3.43139 2.81947 4.18404 2.43597L3.27606 0.653961ZM6 8H6.38271V6H6V8ZM6.64369 8.22395L7.15557 12.8701L9.14354 12.651L8.63166 8.00493L6.64369 8.22395ZM9.40452 14.875H14.8659V12.875H9.40452V14.875ZM17.0576 13.1833L17.9286 9.80135L15.9918 9.30253L15.1208 12.6845L17.0576 13.1833ZM15.7369 6.99306H8.27234V8.99306H15.7369V6.99306ZM17.9286 9.80135C18.2984 8.36557 17.2011 6.99306 15.7369 6.99306V8.99306C15.9202 8.99306 16.0291 9.1576 15.9918 9.30253L17.9286 9.80135ZM14.8659 14.875C15.8931 14.875 16.7997 14.1846 17.0576 13.1833L15.1208 12.6845C15.0935 12.7905 14.9928 12.875 14.8659 12.875V14.875ZM7.15557 12.8701C7.28213 14.0188 8.25824 14.875 9.40452 14.875V12.875C9.26236 12.875 9.15671 12.7706 9.14354 12.651L7.15557 12.8701ZM6.38271 8C6.52488 8 6.63052 8.10442 6.64369 8.22395L8.63166 8.00493C8.5051 6.8562 7.52899 6 6.38271 6V8ZM8.15603 16.375C8.15603 16.1586 8.33048 16 8.52482 16V18C9.41638 18 10.156 17.2818 10.156 16.375H8.15603ZM8.52482 16C8.71916 16 8.89362 16.1586 8.89362 16.375H6.89362C6.89362 17.2818 7.63327 18 8.52482 18V16ZM8.89362 16.375C8.89362 16.5914 8.71916 16.75 8.52482 16.75V14.75C7.63327 14.75 6.89362 15.4682 6.89362 16.375H8.89362ZM8.52482 16.75C8.33048 16.75 8.15603 16.5914 8.15603 16.375H10.156C10.156 15.4682 9.41638 14.75 8.52482 14.75V16.75ZM8.28797 17.1406H8.76137V15.1406H8.28797V17.1406ZM8.28797 17.6093H8.76137V15.6093H8.28797V17.6093ZM15.0993 16.375C15.0993 16.1586 15.2737 16 15.4681 16V18C16.3596 18 17.0993 17.2818 17.0993 16.375H15.0993ZM15.4681 16C15.6624 16 15.8369 16.1586 15.8369 16.375H13.8369C13.8369 17.2818 14.5765 18 15.4681 18V16ZM15.8369 16.375C15.8369 16.5914 15.6624 16.75 15.4681 16.75V14.75C14.5765 14.75 13.8369 15.4682 13.8369 16.375H15.8369ZM15.4681 16.75C15.2737 16.75 15.0993 16.5914 15.0993 16.375H17.0993C17.0993 15.4682 16.3596 14.75 15.4681 14.75V16.75ZM15.2312 17.1406H15.7046V15.1406H15.2312V17.1406ZM15.2312 17.6093H15.7046V15.6093H15.2312V17.6093Z" fill="black"/>
</svg>
