<svg viewBox="0 0 24 24" fill="none" xmlns="http://www.w3.org/2000/svg">
<path d="M18 15.3332C18 14.956 17.9632 14.5873 17.8929 14.2301C17.7408 13.4575 16.9943 13 16.2069 13H7.79313C7.00576 13 6.25929 13.4575 6.10718 14.2301C6.03685 14.5873 6.00003 14.956 6.00003 15.3332C6.00003 17.0109 6.72862 18.5232 7.89499 19.5873C8.20822 19.8731 8.62853 20 9.05253 20H14.9475C15.3715 20 15.7918 19.8731 16.1051 19.5873C17.2714 18.5232 18 17.0109 18 15.3332Z" stroke="currentColor" stroke-width="2" stroke-linecap="round"/>
<path d="M2.2194 12.3419L4.54418 5.36754C4.81641 4.55086 5.58069 4 6.44155 4H17.5585C18.4194 4 19.1837 4.55086 19.4559 5.36754L21.7807 12.3419C21.8886 12.6657 21.6476 13 21.3063 13H2.69374C2.35246 13 2.11148 12.6657 2.2194 12.3419Z" stroke="currentColor" stroke-width="2" stroke-linecap="round"/>
</svg>
