<svg viewBox="0 0 24 24" fill="none" xmlns="http://www.w3.org/2000/svg">
<path d="M14.3815 8.71034L13.5011 9.18444L13.5011 9.18444L14.3815 8.71034ZM18.4591 16.2829L17.5786 16.757L18.4591 16.2829ZM5.53903 16.2829L4.65856 15.8088H4.65856L5.53903 16.2829ZM9.61655 8.71034L10.497 9.18444L9.61655 8.71034ZM9.88068 8.17359L10.8215 8.5125L10.8215 8.5125L9.88068 8.17359ZM9.97713 7.79105L8.98809 7.64341V7.64341L9.97713 7.79105ZM5.18635 20.6284L4.60579 21.4426H4.60579L5.18635 20.6284ZM4.36321 19.2503L3.37107 19.3755L4.36321 19.2503ZM19.6349 19.2503L20.627 19.3755V19.3755L19.6349 19.2503ZM18.8117 20.6284L18.2312 19.8142H18.2312L18.8117 20.6284ZM14.021 7.79105L15.01 7.64341L15.01 7.6434L14.021 7.79105ZM14.1174 8.17359L15.0582 7.83468L15.0582 7.83467L14.1174 8.17359ZM13.726 3.0545L14.18 2.16349L14.18 2.16349L13.726 3.0545ZM13.9445 3.273L13.0535 3.72699L13.0535 3.727L13.9445 3.273ZM10.2721 3.0545L9.81806 2.16349L9.81806 2.16349L10.2721 3.0545ZM10.0535 3.273L10.9446 3.727L10.9446 3.72699L10.0535 3.273ZM8.99905 2C8.44676 2 7.99905 2.44772 7.99905 3C7.99905 3.55228 8.44676 4 8.99905 4V2ZM14.999 4C15.5513 4 15.999 3.55228 15.999 3C15.999 2.44772 15.5513 2 14.999 2V4ZM6.99905 14C6.44676 14 5.99905 14.4477 5.99905 15C5.99905 15.5523 6.44676 16 6.99905 16V14ZM16.999 16C17.5513 16 17.999 15.5523 17.999 15C17.999 14.4477 17.5513 14 16.999 14V16ZM10.799 4H13.199V2H10.799V4ZM12.999 3.8V7.19322H14.999V3.8H12.999ZM13.5011 9.18444L17.5786 16.757L19.3395 15.8088L15.262 8.23624L13.5011 9.18444ZM15.6416 20H8.35654V22H15.6416V20ZM6.41951 16.757L10.497 9.18444L8.73608 8.23624L4.65856 15.8088L6.41951 16.757ZM10.999 7.19322V3.8H8.99905V7.19322H10.999ZM10.497 9.18444C10.626 8.94485 10.7403 8.73799 10.8215 8.5125L8.93987 7.83467C8.92047 7.88852 8.89216 7.94639 8.73608 8.23624L10.497 9.18444ZM8.99905 7.19322C8.99905 7.52243 8.99654 7.5868 8.98809 7.64341L10.9662 7.93869C11.0016 7.70164 10.999 7.46535 10.999 7.19322H8.99905ZM10.8215 8.5125C10.8885 8.32646 10.937 8.13426 10.9662 7.93869L8.98809 7.64341C8.97836 7.70859 8.9622 7.77266 8.93987 7.83468L10.8215 8.5125ZM8.35654 20C7.4539 20 6.84606 19.999 6.39588 19.9577C5.94246 19.9162 5.80816 19.8436 5.76692 19.8142L4.60579 21.4426C5.08565 21.7848 5.65343 21.8981 6.2133 21.9494C6.77643 22.001 7.49314 22 8.35654 22V20ZM4.65856 15.8088C4.24922 16.569 3.90855 17.1995 3.68703 17.7198C3.46678 18.2371 3.29731 18.7907 3.37107 19.3755L5.35534 19.1252C5.349 19.0749 5.34881 18.9223 5.52718 18.5033C5.70427 18.0874 5.99156 17.5517 6.41951 16.757L4.65856 15.8088ZM5.76692 19.8142C5.53953 19.6521 5.3903 19.4022 5.35534 19.1252L3.37107 19.3755C3.47592 20.2067 3.92361 20.9562 4.60579 21.4426L5.76692 19.8142ZM17.5786 16.757C18.0065 17.5517 18.2938 18.0874 18.4709 18.5033C18.6493 18.9223 18.6491 19.0749 18.6427 19.1252L20.627 19.3755C20.7008 18.7907 20.5313 18.2371 20.3111 17.7198C20.0895 17.1995 19.7489 16.569 19.3395 15.8088L17.5786 16.757ZM15.6416 22C16.505 22 17.2217 22.001 17.7848 21.9494C18.3447 21.8981 18.9124 21.7848 19.3923 21.4426L18.2312 19.8142C18.1899 19.8436 18.0556 19.9162 17.6022 19.9577C17.152 19.999 16.5442 20 15.6416 20V22ZM18.6427 19.1251C18.6078 19.4022 18.4586 19.6521 18.2312 19.8142L19.3923 21.4426C20.0745 20.9562 20.5222 20.2067 20.627 19.3755L18.6427 19.1251ZM12.999 7.19322C12.999 7.46535 12.9965 7.70164 13.0319 7.93869L15.01 7.6434C15.0016 7.5868 14.999 7.52243 14.999 7.19322H12.999ZM15.262 8.23625C15.1059 7.9464 15.0776 7.88852 15.0582 7.83468L13.1766 8.51249C13.2578 8.73798 13.3721 8.94487 13.5011 9.18444L15.262 8.23625ZM13.0319 7.93869C13.0611 8.13425 13.1096 8.32646 13.1766 8.5125L15.0582 7.83467C15.0359 7.77266 15.0197 7.7086 15.01 7.64341L13.0319 7.93869ZM13.199 4C13.2713 4 13.3241 4.00003 13.3688 4.00073C13.4135 4.00143 13.4359 4.00266 13.446 4.00349C13.4558 4.00429 13.4396 4.00363 13.4087 3.99636C13.3747 3.98835 13.3264 3.97318 13.2721 3.9455L14.18 2.16349C13.9621 2.05244 13.7541 2.022 13.6089 2.01013C13.4753 1.99922 13.3226 2 13.199 2V4ZM14.999 3.8C14.999 3.67649 14.9998 3.52371 14.9889 3.39017C14.977 3.24495 14.9466 3.03696 14.8356 2.81901L13.0535 3.727C13.0259 3.67267 13.0107 3.62435 13.0027 3.59032C12.9954 3.55946 12.9948 3.54326 12.9956 3.55303C12.9964 3.56319 12.9976 3.58554 12.9983 3.63028C12.999 3.67499 12.999 3.72771 12.999 3.8H14.999ZM13.2721 3.9455C13.178 3.89757 13.1015 3.82108 13.0535 3.72699L14.8356 2.81902C14.6917 2.53677 14.4623 2.3073 14.18 2.16349L13.2721 3.9455ZM10.799 2C10.6755 2 10.5228 1.99922 10.3892 2.01013C10.244 2.022 10.036 2.05244 9.81806 2.16349L10.726 3.9455C10.6717 3.97318 10.6234 3.98835 10.5894 3.99636C10.5585 4.00363 10.5423 4.00429 10.5521 4.00349C10.5622 4.00266 10.5846 4.00143 10.6293 4.00073C10.674 4.00003 10.7268 4 10.799 4V2ZM10.999 3.8C10.999 3.72771 10.9991 3.67499 10.9998 3.63028C11.0005 3.58554 11.0017 3.56319 11.0025 3.55303C11.0033 3.54326 11.0027 3.55946 10.9954 3.59032C10.9874 3.62435 10.9722 3.67267 10.9446 3.727L9.16254 2.81901C9.05149 3.03696 9.02104 3.24495 9.00918 3.39017C8.99827 3.52371 8.99905 3.67649 8.99905 3.8H10.999ZM9.81806 2.16349C9.53582 2.3073 9.30635 2.53677 9.16254 2.81902L10.9446 3.72699C10.8966 3.82108 10.8201 3.89757 10.726 3.9455L9.81806 2.16349ZM8.99905 4H14.999V2H8.99905V4ZM6.99905 16H16.999V14H6.99905V16Z" fill="currentColor"/>
</svg>
