<svg viewBox="0 0 24 24" fill="none" xmlns="http://www.w3.org/2000/svg">
<path d="M9.13146 11.174C8.49197 9.94334 8.1459 6.69414 9.03992 5.49323L9.65193 4.67077C10.2303 3.89061 11.0574 3.30534 12.0126 3L16.12 3.79397L15.9336 4.0472C15.4617 4.68358 14.8279 5.1969 14.3698 5.843C13.8818 6.61255 13.7066 7.5234 13.8767 8.40587M14.6977 6.26097C15.9415 6.95892 16.9853 7.94216 17.7353 9.12248C18.5645 10.4263 19.0019 11.9248 18.9992 13.4521V17.8763C18.9993 18.1552 18.9421 18.4316 18.8308 18.6893C18.7196 18.947 18.5566 19.1813 18.351 19.3785C18.1454 19.5757 17.9014 19.7321 17.6328 19.8388C17.3642 19.9455 17.0763 20.0001 16.7855 20H13.8841C11.2625 20 8.74821 19.0013 6.89443 17.2229C6.32418 16.6758 5.8308 16.0688 5.42096 15.4172C3.58866 12.5041 4.26601 8.80921 4.79717 5.40901C4.80931 5.32945 4.85117 5.25678 4.91487 5.20454C4.97857 5.15229 5.05985 5.12417 5.14366 5.12502H8.87424" stroke="currentColor" stroke-width="2" stroke-linecap="round" stroke-linejoin="round"/>
</svg>
