<svg viewBox="0 0 24 24" fill="none" xmlns="http://www.w3.org/2000/svg">
<path d="M9 6V8.2C9 8.48003 9 8.62004 8.9455 8.72699C8.89757 8.82108 8.82108 8.89757 8.727 8.9455C8.62004 9 8.48003 9 8.2 9H6C5.06812 9 4.60218 9 4.23463 9.15224C3.74458 9.35523 3.35523 9.74458 3.15224 10.2346C3 10.6022 3 11.0681 3 12C3 12.9319 3 13.3978 3.15224 13.7654C3.35523 14.2554 3.74458 14.6448 4.23463 14.8478C4.60218 15 5.06812 15 6 15H8.2C8.48003 15 8.62004 15 8.727 15.0545C8.82108 15.1024 8.89757 15.1789 8.9455 15.273C9 15.38 9 15.52 9 15.8V18C9 18.9319 9 19.3978 9.15224 19.7654C9.35523 20.2554 9.74458 20.6448 10.2346 20.8478C10.6022 21 11.0681 21 12 21C12.9319 21 13.3978 21 13.7654 20.8478C14.2554 20.6448 14.6448 20.2554 14.8478 19.7654C15 19.3978 15 18.9319 15 18V15.8C15 15.52 15 15.38 15.0545 15.273C15.1024 15.1789 15.1789 15.1024 15.273 15.0545C15.38 15 15.52 15 15.8 15H18C18.9319 15 19.3978 15 19.7654 14.8478C20.2554 14.6448 20.6448 14.2554 20.8478 13.7654C21 13.3978 21 12.9319 21 12C21 11.0681 21 10.6022 20.8478 10.2346C20.6448 9.74458 20.2554 9.35523 19.7654 9.15224C19.3978 9 18.9319 9 18 9H15.8C15.52 9 15.38 9 15.273 8.9455C15.1789 8.89757 15.1024 8.82108 15.0545 8.727C15 8.62004 15 8.48003 15 8.2V6C15 5.06812 15 4.60218 14.8478 4.23463C14.6448 3.74458 14.2554 3.35523 13.7654 3.15224C13.3978 3 12.9319 3 12 3C11.0681 3 10.6022 3 10.2346 3.15224C9.74458 3.35523 9.35523 3.74458 9.15224 4.23463C9 4.60218 9 5.06812 9 6Z" stroke="currentColor" stroke-width="2"/>
</svg>
