<svg viewBox="0 0 24 24" fill="none" xmlns="http://www.w3.org/2000/svg">
<path d="M7.09202 21.782L7.54601 20.891L7.09202 21.782ZM6.21799 20.908L7.10899 20.454L6.21799 20.908ZM17.782 20.908L16.891 20.454L17.782 20.908ZM16.908 21.782L16.454 20.891L16.908 21.782ZM17.6955 7.46927L16.7716 7.85195L17.6955 7.46927ZM10 10C9.44772 10 9 10.4477 9 11C9 11.5523 9.44772 12 10 12V10ZM14 12C14.5523 12 15 11.5523 15 11C15 10.4477 14.5523 10 14 10V12ZM13 9C13 8.44772 12.5523 8 12 8C11.4477 8 11 8.44772 11 9H13ZM11 13C11 13.5523 11.4477 14 12 14C12.5523 14 13 13.5523 13 13H11ZM10 1C9.44772 1 9 1.44772 9 2C9 2.55228 9.44772 3 10 3V1ZM14 3C14.5523 3 15 2.55228 15 2C15 1.44772 14.5523 1 14 1V3ZM7 17C6.44772 17 6 17.4477 6 18C6 18.5523 6.44772 19 7 19V17ZM17 19C17.5523 19 18 18.5523 18 18C18 17.4477 17.5523 17 17 17V19ZM17 11V18.8H19V11H17ZM14.8 21H9.2V23H14.8V21ZM7 18.8V11H5V18.8H7ZM9.2 21C8.62345 21 8.25117 20.9992 7.96784 20.9761C7.69617 20.9539 7.59545 20.9162 7.54601 20.891L6.63803 22.673C7.01641 22.8658 7.40963 22.9371 7.80497 22.9694C8.18864 23.0008 8.65645 23 9.2 23V21ZM5 18.8C5 19.3436 4.99922 19.8114 5.03057 20.195C5.06287 20.5904 5.13419 20.9836 5.32698 21.362L7.10899 20.454C7.0838 20.4045 7.04612 20.3038 7.02393 20.0322C7.00078 19.7488 7 19.3766 7 18.8H5ZM7.54601 20.891C7.35785 20.7951 7.20487 20.6422 7.10899 20.454L5.32698 21.362C5.6146 21.9265 6.07354 22.3854 6.63803 22.673L7.54601 20.891ZM17 18.8C17 19.3766 16.9992 19.7488 16.9761 20.0322C16.9539 20.3038 16.9162 20.4045 16.891 20.454L18.673 21.362C18.8658 20.9836 18.9371 20.5904 18.9694 20.195C19.0008 19.8114 19 19.3436 19 18.8H17ZM14.8 23C15.3436 23 15.8114 23.0008 16.195 22.9694C16.5904 22.9371 16.9836 22.8658 17.362 22.673L16.454 20.891C16.4045 20.9162 16.3038 20.9539 16.0322 20.9761C15.7488 20.9992 15.3766 21 14.8 21V23ZM16.891 20.454C16.7951 20.6422 16.6422 20.7951 16.454 20.891L17.362 22.673C17.9265 22.3854 18.3854 21.9265 18.673 21.362L16.891 20.454ZM12 6C12.9456 6 13.6047 6.00054 14.1206 6.03574C14.6275 6.07033 14.9227 6.135 15.1481 6.22836L15.9134 4.3806C15.4037 4.16948 14.8654 4.08191 14.2567 4.04038C13.6569 3.99946 12.9182 4 12 4V6ZM19 11C19 10.0818 19.0005 9.34307 18.9596 8.74331C18.9181 8.13456 18.8305 7.59628 18.6194 7.08658L16.7716 7.85195C16.865 8.07733 16.9297 8.37254 16.9643 8.87945C16.9995 9.39534 17 10.0544 17 11H19ZM15.1481 6.22836C15.8831 6.53284 16.4672 7.11687 16.7716 7.85195L18.6194 7.08658C18.1119 5.86144 17.1386 4.88807 15.9134 4.3806L15.1481 6.22836ZM12 4C11.0818 4 10.3431 3.99946 9.74331 4.04038C9.13456 4.08191 8.59628 4.16948 8.08658 4.3806L8.85195 6.22836C9.07733 6.135 9.37254 6.07033 9.87945 6.03574C10.3953 6.00054 11.0544 6 12 6V4ZM7 11C7 10.0544 7.00054 9.39534 7.03574 8.87945C7.07033 8.37254 7.135 8.07733 7.22836 7.85195L5.3806 7.08658C5.16948 7.59628 5.08191 8.13456 5.04038 8.74331C4.99946 9.34307 5 10.0818 5 11H7ZM8.08658 4.3806C6.86144 4.88807 5.88807 5.86144 5.3806 7.08658L7.22836 7.85195C7.53284 7.11687 8.11687 6.53284 8.85195 6.22836L8.08658 4.3806ZM10 12H14V10H10V12ZM11 9V13H13V9H11ZM10 3H14V1H10V3ZM7 19H17V17H7V19Z" fill="currentColor"/>
</svg>
