<svg viewBox="0 0 24 24" fill="none" xmlns="http://www.w3.org/2000/svg">
<path d="M12.9998 5C12.9998 4.44772 12.5521 4 11.9998 4C11.4476 4 10.9998 4.44772 10.9998 5L12.9998 5ZM10.9998 19C10.9998 19.5523 11.4476 20 11.9998 20C12.5521 20 12.9998 19.5523 12.9998 19H10.9998ZM19.9998 13C20.5521 13 20.9998 12.5523 20.9998 12C20.9998 11.4477 20.5521 11 19.9998 11V13ZM3.99985 11C3.44756 11 2.99985 11.4477 2.99985 12C2.99985 12.5523 3.44756 13 3.99985 13V11ZM17.2927 14.2929C16.9022 14.6834 16.9022 15.3166 17.2927 15.7071C17.6833 16.0976 18.3164 16.0976 18.707 15.7071L17.2927 14.2929ZM19.8685 13.1314L20.5756 13.8385L19.8685 13.1314ZM19.8685 10.8686L20.5756 10.1615L20.5756 10.1615L19.8685 10.8686ZM18.707 8.29289C18.3164 7.90237 17.6833 7.90237 17.2927 8.29289C16.9022 8.68342 16.9022 9.31658 17.2927 9.70711L18.707 8.29289ZM20.5367 12.309L19.5856 12H19.5856L20.5367 12.309ZM20.5367 11.691L19.5856 12L20.5367 11.691ZM5.29274 15.7071C5.68326 16.0976 6.31643 16.0976 6.70695 15.7071C7.09748 15.3166 7.09748 14.6834 6.70695 14.2929L5.29274 15.7071ZM4.13122 13.1314L3.42411 13.8385H3.42411L4.13122 13.1314ZM4.13122 10.8686L3.42411 10.1615L3.42411 10.1615L4.13122 10.8686ZM6.70696 9.70711C7.09748 9.31658 7.09748 8.68342 6.70696 8.29289C6.31643 7.90237 5.68327 7.90237 5.29274 8.29289L6.70696 9.70711ZM3.46301 12.309L4.41406 12L3.46301 12.309ZM3.46301 11.691L4.41406 12L3.46301 11.691ZM10.9998 5L10.9998 19H12.9998L12.9998 5L10.9998 5ZM19.9998 11L3.99985 11V13L19.9998 13V11ZM18.707 15.7071L20.5756 13.8385L19.1614 12.4243L17.2927 14.2929L18.707 15.7071ZM20.5756 10.1615L18.707 8.29289L17.2927 9.70711L19.1614 11.5757L20.5756 10.1615ZM20.5756 13.8385C20.7619 13.6521 20.9448 13.4704 21.0856 13.3045C21.234 13.1296 21.3936 12.9078 21.4877 12.618L19.5856 12C19.6056 11.9386 19.629 11.9299 19.5609 12.0101C19.4852 12.0993 19.371 12.2146 19.1614 12.4243L20.5756 13.8385ZM19.1614 11.5757C19.371 11.7854 19.4852 11.9007 19.5609 11.9899C19.6291 12.0701 19.6056 12.0614 19.5856 12L21.4877 11.382C21.3936 11.0922 21.234 10.8704 21.0856 10.6955C20.9448 10.5296 20.7619 10.3479 20.5756 10.1615L19.1614 11.5757ZM21.4877 12.618C21.6183 12.2164 21.6183 11.7837 21.4877 11.382L19.5856 12V12L21.4877 12.618ZM6.70695 14.2929L4.83833 12.4243L3.42411 13.8385L5.29274 15.7071L6.70695 14.2929ZM4.83832 11.5757L6.70696 9.70711L5.29274 8.29289L3.42411 10.1615L4.83832 11.5757ZM4.83833 12.4243C4.62865 12.2146 4.51447 12.0993 4.43877 12.0101C4.37064 11.9299 4.39412 11.9386 4.41406 12L2.51195 12.618C2.60608 12.9078 2.76565 13.1296 2.91409 13.3045C3.05494 13.4704 3.23777 13.6521 3.42411 13.8385L4.83833 12.4243ZM3.42411 10.1615C3.23777 10.3479 3.05494 10.5296 2.91409 10.6955C2.76566 10.8704 2.60608 11.0923 2.51195 11.382L4.41406 12C4.39412 12.0614 4.37064 12.0701 4.43877 11.9899C4.51447 11.9007 4.62866 11.7854 4.83833 11.5757L3.42411 10.1615ZM4.41406 12V12L2.51195 11.382C2.38143 11.7837 2.38143 12.2163 2.51195 12.618L4.41406 12Z" fill="black"/>
</svg>
