<svg width="24" height="24" viewBox="0 0 24 24" fill="none" xmlns="http://www.w3.org/2000/svg">
<path d="M19 13C19.5523 13 20 12.5523 20 12C20 11.4477 19.5523 11 19 11V13ZM5 11C4.44772 11 4 11.4477 4 12C4 12.5523 4.44772 13 5 13V11ZM11 20C11 20.5523 11.4477 21 12 21C12.5523 21 13 20.5523 13 20H11ZM13 3.99997C13 3.44768 12.5523 2.99997 12 2.99997C11.4477 2.99997 11 3.44768 11 3.99997L13 3.99997ZM9.70711 17.2929C9.31658 16.9023 8.68342 16.9023 8.29289 17.2929C7.90237 17.6834 7.90237 18.3166 8.29289 18.7071L9.70711 17.2929ZM10.8686 19.8686L11.5757 19.1615L10.8686 19.8686ZM13.1314 19.8686L13.8385 20.5757L13.8385 20.5757L13.1314 19.8686ZM15.7071 18.7071C16.0976 18.3166 16.0976 17.6834 15.7071 17.2929C15.3166 16.9023 14.6834 16.9023 14.2929 17.2929L15.7071 18.7071ZM11.691 20.5368L12 19.5858V19.5858L11.691 20.5368ZM12.309 20.5368L12 19.5858L12.309 20.5368ZM8.29289 5.29286C7.90237 5.68339 7.90237 6.31655 8.29289 6.70708C8.68342 7.0976 9.31658 7.0976 9.70711 6.70708L8.29289 5.29286ZM10.8686 4.13134L10.1615 3.42423V3.42423L10.8686 4.13134ZM13.1314 4.13134L13.8385 3.42423L13.8385 3.42423L13.1314 4.13134ZM14.2929 6.70708C14.6834 7.0976 15.3166 7.0976 15.7071 6.70708C16.0976 6.31655 16.0976 5.68339 15.7071 5.29286L14.2929 6.70708ZM11.691 3.46313L12 4.41418H12L11.691 3.46313ZM12.309 3.46313L12 4.41418L12.309 3.46313ZM19 11H5V13H19V11ZM13 20L13 3.99997L11 3.99997L11 20H13ZM8.29289 18.7071L10.1615 20.5757L11.5757 19.1615L9.70711 17.2929L8.29289 18.7071ZM13.8385 20.5757L15.7071 18.7071L14.2929 17.2929L12.4243 19.1615L13.8385 20.5757ZM10.1615 20.5757C10.3479 20.762 10.5296 20.9449 10.6955 21.0857C10.8704 21.2342 11.0922 21.3937 11.382 21.4879L12 19.5858C12.0614 19.6057 12.0701 19.6292 11.9899 19.561C11.9007 19.4853 11.7854 19.3712 11.5757 19.1615L10.1615 20.5757ZM12.4243 19.1615C12.2146 19.3712 12.0993 19.4853 12.0101 19.561C11.9299 19.6292 11.9386 19.6057 12 19.5858L12.618 21.4879C12.9078 21.3937 13.1296 21.2342 13.3045 21.0857C13.4704 20.9449 13.6521 20.762 13.8385 20.5757L12.4243 19.1615ZM11.382 21.4879C11.7836 21.6184 12.2163 21.6184 12.618 21.4879L12 19.5858H12L11.382 21.4879ZM9.70711 6.70708L11.5757 4.83845L10.1615 3.42423L8.29289 5.29286L9.70711 6.70708ZM12.4243 4.83845L14.2929 6.70708L15.7071 5.29286L13.8385 3.42423L12.4243 4.83845ZM11.5757 4.83845C11.7854 4.62877 11.9007 4.51459 11.9899 4.43889C12.0701 4.37077 12.0614 4.39424 12 4.41418L11.382 2.51207C11.0922 2.60621 10.8704 2.76578 10.6955 2.91421C10.5296 3.05506 10.3479 3.23789 10.1615 3.42423L11.5757 4.83845ZM13.8385 3.42423C13.6521 3.23789 13.4704 3.05506 13.3045 2.91421C13.1296 2.76578 12.9077 2.60621 12.618 2.51207L12 4.41418C11.9386 4.39424 11.9299 4.37076 12.0101 4.43889C12.0993 4.5146 12.2146 4.62878 12.4243 4.83845L13.8385 3.42423ZM12 4.41418H12L12.618 2.51207C12.2163 2.38156 11.7837 2.38156 11.382 2.51207L12 4.41418Z" fill="black"/>
</svg>
