<svg width="24" height="24" viewBox="0 0 24 24" fill="none" xmlns="http://www.w3.org/2000/svg">
<path d="M16 8H16.8C17.9201 8 18.4802 8 18.908 8.21799C19.2843 8.40973 19.5903 8.71569 19.782 9.09202C20 9.51984 20 10.0799 20 11.2V16.8C20 17.9201 20 18.4802 19.782 18.908C19.5903 19.2843 19.2843 19.5903 18.908 19.782C18.4802 20 17.9201 20 16.8 20H11.2C10.0799 20 9.51984 20 9.09202 19.782C8.71569 19.5903 8.40973 19.2843 8.21799 18.908C8 18.4802 8 17.9201 8 16.8V16M7.2 12H8.8C9.92011 12 10.4802 12 10.908 11.782C11.2843 11.5903 11.5903 11.2843 11.782 10.908C12 10.4802 12 9.92011 12 8.8V7.2C12 6.0799 12 5.51984 11.782 5.09202C11.5903 4.71569 11.2843 4.40973 10.908 4.21799C10.4802 4 9.92011 4 8.8 4H7.2C6.0799 4 5.51984 4 5.09202 4.21799C4.71569 4.40973 4.40973 4.71569 4.21799 5.09202C4 5.51984 4 6.07989 4 7.2V8.8C4 9.92011 4 10.4802 4.21799 10.908C4.40973 11.2843 4.71569 11.5903 5.09202 11.782C5.51984 12 6.07989 12 7.2 12Z" stroke="black" stroke-width="2" stroke-linecap="round"/>
</svg>
