<svg viewBox="0 0 24 24" fill="none" xmlns="http://www.w3.org/2000/svg">
<path d="M16 8H16.8C17.9201 8 18.4802 8 18.908 8.21799C19.2843 8.40973 19.5903 8.71569 19.782 9.09202C20 9.51984 20 10.0799 20 11.2V16.8C20 17.9201 20 18.4802 19.782 18.908C19.5903 19.2843 19.2843 19.5903 18.908 19.782C18.4802 20 17.9201 20 16.8 20H11.2C10.0799 20 9.51984 20 9.09202 19.782C8.71569 19.5903 8.40973 19.2843 8.21799 18.908C8 18.4802 8 17.9201 8 16.8V16M8 12C5.79086 12 4 10.2091 4 8C4 5.79086 5.79086 4 8 4C10.2091 4 12 5.79086 12 8C12 10.2091 10.2091 12 8 12Z" stroke="currentColor" stroke-width="2" stroke-linecap="round"/>
</svg>
