<svg viewBox="0 0 24 24" fill="none" xmlns="http://www.w3.org/2000/svg">
<g clip-path="url(#clip0_9_1512)">
<path d="M3.73005 22.455L4.18404 21.564H4.18404L3.73005 22.455ZM1.54497 20.27L2.43597 19.816H2.43597L1.54497 20.27ZM22.455 20.27L21.564 19.816V19.816L22.455 20.27ZM20.27 22.455L19.816 21.564H19.816L20.27 22.455ZM20.27 1.54497L19.816 2.43597V2.43597L20.27 1.54497ZM22.455 3.73005L21.564 4.18404V4.18404L22.455 3.73005ZM3.73005 1.54497L4.18404 2.43597L3.73005 1.54497ZM1.54497 3.73005L2.43597 4.18404L1.54497 3.73005ZM12.1961 6.05901L12.4977 5.10559L12.4977 5.10559L12.1961 6.05901ZM8.87735 9.3154L8.36374 8.45738L8.36374 8.45738L8.87735 9.3154ZM9.96138 10.1763L8.97026 10.3093L8.97026 10.3093L9.96138 10.1763ZM10.1235 10.7886L9.20207 11.1771L10.1235 10.7886ZM12.8872 9.91058L11.8875 9.88488V9.88488L12.8872 9.91058ZM12.076 6.19309L11.1436 6.55434V6.55434L12.076 6.19309ZM9 2H15V0H9V2ZM22 9V15H24V9H22ZM15 22H9V24H15V22ZM2 15V9H0V15H2ZM9 22C7.58337 22 6.58104 21.9992 5.79744 21.9352C5.02552 21.8721 4.55435 21.7527 4.18404 21.564L3.27606 23.346C3.9753 23.7023 4.73898 23.8554 5.63458 23.9286C6.51851 24.0008 7.61637 24 9 24V22ZM0 15C0 16.3836 -0.000777721 17.4815 0.071442 18.3654C0.144616 19.261 0.297677 20.0247 0.653961 20.7239L2.43597 19.816C2.24729 19.4457 2.12787 18.9745 2.0648 18.2026C2.00078 17.419 2 16.4166 2 15H0ZM4.18404 21.564C3.43139 21.1805 2.81947 20.5686 2.43597 19.816L0.653961 20.7239C1.2292 21.8529 2.14708 22.7708 3.27606 23.346L4.18404 21.564ZM22 15C22 16.4166 21.9992 17.419 21.9352 18.2026C21.8721 18.9745 21.7527 19.4457 21.564 19.816L23.346 20.7239C23.7023 20.0247 23.8554 19.261 23.9286 18.3654C24.0008 17.4815 24 16.3836 24 15H22ZM15 24C16.3836 24 17.4815 24.0008 18.3654 23.9286C19.261 23.8554 20.0247 23.7023 20.7239 23.346L19.816 21.564C19.4457 21.7527 18.9745 21.8721 18.2026 21.9352C17.419 21.9992 16.4166 22 15 22V24ZM21.564 19.816C21.1805 20.5686 20.5686 21.1805 19.816 21.564L20.7239 23.346C21.8529 22.7708 22.7708 21.8529 23.346 20.7239L21.564 19.816ZM15 2C16.4166 2 17.419 2.00078 18.2026 2.0648C18.9745 2.12787 19.4457 2.24729 19.816 2.43597L20.7239 0.653961C20.0247 0.297677 19.261 0.144616 18.3654 0.071442C17.4815 -0.000777721 16.3836 0 15 0V2ZM24 9C24 7.61637 24.0008 6.51851 23.9286 5.63458C23.8554 4.73898 23.7023 3.9753 23.346 3.27606L21.564 4.18404C21.7527 4.55435 21.8721 5.02552 21.9352 5.79744C21.9992 6.58104 22 7.58337 22 9H24ZM19.816 2.43597C20.5686 2.81947 21.1805 3.43139 21.564 4.18404L23.346 3.27606C22.7708 2.14708 21.8529 1.2292 20.7239 0.653961L19.816 2.43597ZM9 0C7.61637 0 6.51851 -0.000777721 5.63458 0.071442C4.73898 0.144616 3.9753 0.297677 3.27606 0.653961L4.18404 2.43597C4.55435 2.24729 5.02552 2.12787 5.79744 2.0648C6.58104 2.00078 7.58337 2 9 2V0ZM2 9C2 7.58337 2.00078 6.58104 2.0648 5.79744C2.12787 5.02552 2.24729 4.55435 2.43597 4.18404L0.653961 3.27606C0.297677 3.9753 0.144616 4.73898 0.071442 5.63458C-0.000777721 6.51851 0 7.61637 0 9H2ZM3.27606 0.653961C2.14708 1.2292 1.2292 2.14708 0.653961 3.27606L2.43597 4.18404C2.81947 3.43139 3.43139 2.81947 4.18404 2.43597L3.27606 0.653961ZM16 13C16 15.2091 14.2091 17 12 17V19C15.3137 19 18 16.3137 18 13H16ZM12 17C9.79086 17 8 15.2091 8 13H6C6 16.3137 8.68629 19 12 19V17ZM11.8944 7.01243C14.7216 7.90692 16 10.59 16 13H18C18 9.99142 16.3906 6.33729 12.4977 5.10559L11.8944 7.01243ZM8 13C8 12.6478 8.1159 12.0532 8.38189 11.4597C8.64995 10.8615 9.00814 10.4026 9.39096 10.1734L8.36374 8.45738C7.49499 8.97742 6.91451 9.84354 6.55678 10.6418C6.19699 11.4446 6 12.3177 6 13H8ZM8.97026 10.3093C9.01246 10.6239 9.09083 10.9132 9.20207 11.1771L11.045 10.4002C11.007 10.3101 10.9727 10.1937 10.9525 10.0434L8.97026 10.3093ZM13.8869 9.93628C13.9135 8.90151 13.6804 7.56615 13.0085 5.83184L11.1436 6.55434C11.7511 8.12265 11.9054 9.1889 11.8875 9.88488L13.8869 9.93628ZM9.20207 11.1771C9.45432 11.7754 9.8994 12.2031 10.4548 12.4102C10.9896 12.6095 11.5513 12.5779 12.0339 12.4163C12.9816 12.0992 13.8545 11.1941 13.8869 9.93628L11.8875 9.88488C11.88 10.179 11.6726 10.4282 11.3992 10.5197C11.2713 10.5625 11.1873 10.5488 11.1535 10.5362C11.1404 10.5313 11.0943 10.5171 11.045 10.4002L9.20207 11.1771ZM9.39096 10.1734C9.34496 10.201 9.242 10.2385 9.11071 10.2189C8.99216 10.2011 8.9268 10.1482 8.91149 10.1342C8.89733 10.1212 8.90972 10.1282 8.92942 10.1695C8.94806 10.2086 8.96341 10.2582 8.97026 10.3093L10.9525 10.0434C10.8874 9.55771 10.6657 9.02927 10.2633 8.66018C10.0535 8.46779 9.76569 8.29467 9.407 8.24094C9.03559 8.1853 8.67484 8.27116 8.36374 8.45738L9.39096 10.1734ZM12.4977 5.10559C11.5326 4.80024 10.8434 5.77955 11.1436 6.55434L13.0085 5.83184C13.2486 6.45163 12.7011 7.26764 11.8944 7.01243L12.4977 5.10559Z" fill="currentColor"/>
</g>
<defs>
<clipPath id="clip0_9_1512">
<rect width="24" height="24" fill="white"/>
</clipPath>
</defs>
</svg>
