<svg viewBox="0 0 24 24" fill="none" xmlns="http://www.w3.org/2000/svg">
<path d="M6 7H6.38271C7.02693 7 7.56781 7.48031 7.63768 8.11444L8.14956 12.7606C8.21942 13.3947 8.7603 13.875 9.40452 13.875H14.8659C15.443 13.875 15.9466 13.4876 16.0892 12.9339L16.9602 9.55194C17.1638 8.76159 16.5607 7.99306 15.7369 7.99306H8.27234M8.28797 16.1406H8.76137M8.28797 16.6093H8.76137M15.2312 16.1406H15.7046M15.2312 16.6093H15.7046M23 12C23 18.0751 18.0751 23 12 23C5.92487 23 1 18.0751 1 12C1 5.92487 5.92487 1 12 1C18.0751 1 23 5.92487 23 12ZM9.15603 16.375C9.15603 16.7202 8.87343 17 8.52482 17C8.17622 17 7.89362 16.7202 7.89362 16.375C7.89362 16.0298 8.17622 15.75 8.52482 15.75C8.87343 15.75 9.15603 16.0298 9.15603 16.375ZM16.0993 16.375C16.0993 16.7202 15.8167 17 15.4681 17C15.1195 17 14.8369 16.7202 14.8369 16.375C14.8369 16.0298 15.1195 15.75 15.4681 15.75C15.8167 15.75 16.0993 16.0298 16.0993 16.375Z" stroke="black" stroke-width="2" stroke-linecap="round"/>
</svg>
