<svg width="24" height="24" viewBox="0 0 24 24" fill="none" xmlns="http://www.w3.org/2000/svg">
<path d="M22 11V13M7 11V13M11 11V13M6.2 17H15.8C16.9201 17 17.4802 17 17.908 16.782C18.2843 16.5903 18.5903 16.2843 18.782 15.908C19 15.4802 19 14.9201 19 13.8V10.2C19 9.07989 19 8.51984 18.782 8.09202C18.5903 7.71569 18.2843 7.40973 17.908 7.21799C17.4802 7 16.9201 7 15.8 7H6.2C5.0799 7 4.51984 7 4.09202 7.21799C3.71569 7.40973 3.40973 7.71569 3.21799 8.09202C3 8.51984 3 9.07989 3 10.2V13.8C3 14.9201 3 15.4802 3.21799 15.908C3.40973 16.2843 3.71569 16.5903 4.09202 16.782C4.51984 17 5.07989 17 6.2 17Z" stroke="black" stroke-width="2" stroke-linecap="round"/>
</svg>
