<svg width="24" height="24" viewBox="0 0 24 24" fill="none" xmlns="http://www.w3.org/2000/svg">
<path d="M12 19V20M12 16V13.5M12 10.5V8M12 5V4M19.3598 8.36682L15.9219 11.2318C15.4421 11.6316 15.4421 12.3684 15.9219 12.7682L19.3598 15.6332C20.0111 16.176 21 15.7128 21 14.865V9.13504C21 8.2872 20.0111 7.82405 19.3598 8.36682ZM4.64018 8.36682L8.07814 11.2318C8.55789 11.6316 8.55789 12.3684 8.07813 12.7682L4.64018 15.6332C3.98886 16.176 3 15.7128 3 14.865L3 9.13504C3 8.2872 3.98886 7.82405 4.64018 8.36682Z" stroke="black" stroke-width="2" stroke-linecap="round"/>
</svg>
