<svg width="24" height="24" viewBox="0 0 24 24" fill="none" xmlns="http://www.w3.org/2000/svg">
<path d="M19 12H20M16 12L13.5 12M10.5 12H8M5 12H4M8.36682 4.64018L11.2318 8.07814C11.6316 8.55789 12.3684 8.55789 12.7682 8.07813L15.6332 4.64018C16.176 3.98886 15.7128 3 14.865 3H9.13504C8.2872 3 7.82405 3.98886 8.36682 4.64018ZM8.36682 19.3598L11.2318 15.9219C11.6316 15.4421 12.3684 15.4421 12.7682 15.9219L15.6332 19.3598C16.176 20.0111 15.7128 21 14.865 21H9.13504C8.2872 21 7.82405 20.0111 8.36682 19.3598Z" stroke="black" stroke-width="2" stroke-linecap="round"/>
</svg>
