<svg viewBox="0 0 24 24" fill="none" xmlns="http://www.w3.org/2000/svg">
<path d="M12.0001 12V14.5M12.0001 12L9.83503 10.75M12.0001 12L14.1652 10.75M12.0001 18.25V21.9227M3.4067 16.9611L6.58743 15.125M12.0001 2.07739V5.75004M17.4128 8.87504L20.5932 7.03849M3.40685 7.03868L6.58743 8.87504M17.4128 15.125L20.5934 16.9613M3.33984 14.5V16.7114C3.33984 16.89 3.43514 17.0551 3.58984 17.1444L5.50491 18.25M3.33984 9.50004V7.28872C3.33984 7.11009 3.43514 6.94502 3.58984 6.8557L5.50491 5.75004M9.83503 20.75L11.7501 21.8557C11.9048 21.945 12.0954 21.945 12.2501 21.8557L14.1652 20.75M18.4953 18.25L20.4104 17.1444C20.5651 17.0551 20.6604 16.89 20.6604 16.7114V14.5M20.6604 9.50004V7.28872C20.6604 7.11008 20.5651 6.94502 20.4104 6.8557L18.4953 5.75004M14.1652 3.25004L12.2501 2.14438C12.0954 2.05506 11.9048 2.05506 11.7501 2.14438L9.83503 3.25004" stroke="black" stroke-width="2" stroke-linecap="round"/>
</svg>
