<svg viewBox="0 0 24 24" fill="none" xmlns="http://www.w3.org/2000/svg">
<path d="M17 3.03838V10.5052C17 10.9908 17 11.2336 16.8988 11.3674C16.8106 11.484 16.6757 11.5561 16.5298 11.5649C16.3623 11.5749 16.1603 11.4402 15.7562 11.1708L14.4438 10.2958C14.2834 10.1889 14.2032 10.1355 14.1165 10.1147C14.0399 10.0963 13.9601 10.0963 13.8835 10.1147C13.7968 10.1355 13.7166 10.1889 13.5562 10.2958L12.2438 11.1708C11.8397 11.4402 11.6377 11.5749 11.4702 11.5649C11.3243 11.5561 11.1894 11.484 11.1012 11.3674C11 11.2336 11 10.9908 11 10.5052V3M11 3H9.4C7.15979 3 6.03968 3 5.18404 3.43597C4.43139 3.81947 3.81947 4.43139 3.43597 5.18404C3 6.03968 3 7.15979 3 9.4V14.6C3 16.8402 3 17.9603 3.43597 18.816C3.81947 19.5686 4.43139 20.1805 5.18404 20.564C6.03968 21 7.15979 21 9.4 21H14.6C16.8402 21 17.9603 21 18.816 20.564C19.5686 20.1805 20.1805 19.5686 20.564 18.816C21 17.9603 21 16.8402 21 14.6V9.4C21 7.15979 21 6.03968 20.564 5.18404C20.1805 4.43139 19.5686 3.81947 18.816 3.43597C18.1606 3.10205 17.3501 3.02389 16 3.00559C15.5874 3 15.1244 3 14.6 3H12H11Z" stroke="black" stroke-width="2"/>
</svg>
