<svg viewBox="0 0 24 24" fill="none" xmlns="http://www.w3.org/2000/svg">
<path d="M16.9998 12.0001C16.9998 14.7615 14.7612 17.0001 11.9998 17.0001C9.23835 17.0001 6.99978 14.7615 6.99978 12.0001C6.99978 9.23866 9.23835 7.00009 11.9998 7.00009C14.7612 7.00009 16.9998 9.23866 16.9998 12.0001ZM16.9998 12.0001C16.9998 13.3808 18.1191 14.5001 19.4998 14.5001C20.8805 14.5001 21.9998 13.3808 21.9998 12.0001C21.9998 6.47724 17.5228 2 12 2C6.47715 2 2 6.47715 2 12C2 17.5228 6.47715 22 12 22C14.7614 22 17.2614 20.8807 19.0711 19.0711M16.9998 12.0001V8.00009" stroke="currentColor" stroke-width="2" stroke-linecap="round"/>
</svg>
