<svg viewBox="0 0 24 24" fill="none" xmlns="http://www.w3.org/2000/svg">
<path d="M8.15105 9.77788L11.9999 7.55572M8.15105 9.77788V14.2222M8.15105 9.77788V2.76757M11.9999 7.55572L15.8488 9.77788M11.9999 7.55572L18.0691 4.05165M15.8488 9.77788V14.2222M15.8488 9.77788L21.9186 13.2823M8.15105 14.2222L11.9999 16.4444M8.15105 14.2222L2.08143 10.7178M11.9999 16.4444L15.8488 14.2222M11.9999 16.4444L5.93091 19.9484M15.8488 14.2222V21.2325M18.0691 4.05165C16.3861 2.76461 14.2824 2 12 2C10.636 2 9.33579 2.27309 8.15105 2.76757M18.0691 4.05165C20.4587 5.87901 22 8.7595 22 12C22 12.4345 21.9723 12.8625 21.9186 13.2823M21.9186 13.2823C21.4578 16.8815 19.0838 19.8823 15.8488 21.2325M15.8488 21.2325C14.6641 21.7269 13.364 22 12 22C9.71766 22 7.6139 21.2354 5.93091 19.9484M5.93091 19.9484C3.54135 18.121 2 15.2405 2 12C2 11.5656 2.0277 11.1376 2.08143 10.7178M2.08143 10.7178C2.54209 7.11865 4.91609 4.11777 8.15105 2.76757" stroke="black" stroke-width="2" stroke-linecap="round"/>
</svg>
