<svg width="24" height="26" viewBox="0 0 24 26" fill="none" xmlns="http://www.w3.org/2000/svg">
<path d="M3.73005 22.455L4.18404 21.564H4.18404L3.73005 22.455ZM1.54497 20.27L2.43597 19.816H2.43597L1.54497 20.27ZM22.455 20.27L21.564 19.816V19.816L22.455 20.27ZM20.27 22.455L19.816 21.564H19.816L20.27 22.455ZM22.455 5.73005L21.564 6.18404V6.18404L22.455 5.73005ZM20.27 3.54497L19.816 4.43597V4.43597L20.27 3.54497ZM3.73005 3.54497L4.18404 4.43597L3.73005 3.54497ZM1.54497 5.73005L2.43597 6.18404L1.54497 5.73005ZM17.0191 2.01123C16.467 2.00066 16.0108 2.43972 16.0002 2.99191C15.9896 3.54409 16.4287 4.00029 16.9809 4.01086L17.0191 2.01123ZM16.9809 21.9891C16.4287 21.9997 15.9896 22.4559 16.0002 23.0081C16.0108 23.5603 16.467 23.9993 17.0191 23.9888L16.9809 21.9891ZM12 4C12.5523 4 13 3.55228 13 3C13 2.44772 12.5523 2 12 2V4ZM12 24C12.5523 24 13 23.5523 13 23C13 22.4477 12.5523 22 12 22V24ZM8.80243 9.40325C8.47285 8.96008 7.84642 8.868 7.40325 9.19757C6.96008 9.52715 6.868 10.1536 7.19757 10.5967L8.80243 9.40325ZM9.83664 12.4697L10.6391 11.8729L9.83664 12.4697ZM9.83664 13.5303L10.6391 14.1271V14.1271L9.83664 13.5303ZM7.19757 15.4033C6.868 15.8464 6.96008 16.4729 7.40325 16.8024C7.84642 17.132 8.47285 17.0399 8.80243 16.5967L7.19757 15.4033ZM18 1C18 0.447715 17.5523 0 17 0C16.4477 0 16 0.447715 16 1H18ZM16 25C16 25.5523 16.4477 26 17 26C17.5523 26 18 25.5523 18 25H16ZM22 11V15H24V11H22ZM2 15V11H0V15H2ZM9 22C7.58337 22 6.58104 21.9992 5.79744 21.9352C5.02552 21.8721 4.55435 21.7527 4.18404 21.564L3.27606 23.346C3.9753 23.7023 4.73898 23.8554 5.63458 23.9286C6.51851 24.0008 7.61637 24 9 24V22ZM0 15C0 16.3836 -0.000777721 17.4815 0.071442 18.3654C0.144616 19.261 0.297677 20.0247 0.653961 20.7239L2.43597 19.816C2.24729 19.4457 2.12787 18.9745 2.0648 18.2026C2.00078 17.419 2 16.4166 2 15H0ZM4.18404 21.564C3.43139 21.1805 2.81947 20.5686 2.43597 19.816L0.653961 20.7239C1.2292 21.8529 2.14708 22.7708 3.27606 23.346L4.18404 21.564ZM22 15C22 16.4166 21.9992 17.419 21.9352 18.2026C21.8721 18.9745 21.7527 19.4457 21.564 19.816L23.346 20.7239C23.7023 20.0247 23.8554 19.261 23.9286 18.3654C24.0008 17.4815 24 16.3836 24 15H22ZM21.564 19.816C21.1805 20.5686 20.5686 21.1805 19.816 21.564L20.7239 23.346C21.8529 22.7708 22.7708 21.8529 23.346 20.7239L21.564 19.816ZM24 11C24 9.61637 24.0008 8.51851 23.9286 7.63458C23.8554 6.73898 23.7023 5.9753 23.346 5.27606L21.564 6.18404C21.7527 6.55435 21.8721 7.02552 21.9352 7.79744C21.9992 8.58104 22 9.58337 22 11H24ZM19.816 4.43597C20.5686 4.81947 21.1805 5.43139 21.564 6.18404L23.346 5.27606C22.7708 4.14708 21.8529 3.2292 20.7239 2.65396L19.816 4.43597ZM9 2C7.61637 2 6.51851 1.99922 5.63458 2.07144C4.73898 2.14462 3.9753 2.29768 3.27606 2.65396L4.18404 4.43597C4.55435 4.24729 5.02552 4.12787 5.79744 4.0648C6.58104 4.00078 7.58337 4 9 4V2ZM2 11C2 9.58337 2.00078 8.58104 2.0648 7.79744C2.12787 7.02552 2.24729 6.55435 2.43597 6.18404L0.653961 5.27606C0.297677 5.9753 0.144616 6.73898 0.071442 7.63458C-0.000777721 8.51851 0 9.61637 0 11H2ZM3.27606 2.65396C2.14708 3.2292 1.2292 4.14708 0.653961 5.27606L2.43597 6.18404C2.81947 5.43139 3.43139 4.81947 4.18404 4.43597L3.27606 2.65396ZM16.9809 4.01086C18.524 4.04041 19.2641 4.1548 19.816 4.43597L20.7239 2.65396C19.7199 2.14239 18.5544 2.04062 17.0191 2.01123L16.9809 4.01086ZM17.0191 23.9888C18.5544 23.9594 19.7199 23.8576 20.7239 23.346L19.816 21.564C19.2641 21.8452 18.524 21.9596 16.9809 21.9891L17.0191 23.9888ZM9 4H12V2H9V4ZM12 22H9V24H12V22ZM7.19757 10.5967L9.03421 13.0664L10.6391 11.8729L8.80243 9.40325L7.19757 10.5967ZM9.03421 12.9336L7.19757 15.4033L8.80243 16.5967L10.6391 14.1271L9.03421 12.9336ZM9.03421 13.0664C9.01192 13.0364 9.00405 13.0141 9.00175 13.0065C8.99941 12.9987 9 12.9971 9 13C9 13.0029 8.99941 13.0013 9.00175 12.9935C9.00405 12.9859 9.01191 12.9636 9.03421 12.9336L10.6391 14.1271C10.8978 13.7791 11 13.3677 11 13C11 12.6323 10.8978 12.2209 10.6391 11.8729L9.03421 13.0664ZM16 1V25H18V1H16Z" fill="currentColor"/>
</svg>
