<svg viewBox="0 0 24 24" fill="none" xmlns="http://www.w3.org/2000/svg">
<path d="M9.29289 13.2929C8.90237 13.6834 8.90237 14.3166 9.29289 14.7071C9.68342 15.0976 10.3166 15.0976 10.7071 14.7071L9.29289 13.2929ZM14.7071 10.7071C15.0976 10.3166 15.0976 9.68342 14.7071 9.29289C14.3166 8.90237 13.6834 8.90237 13.2929 9.29289L14.7071 10.7071ZM10.7071 9.29289C10.3166 8.90237 9.68342 8.90237 9.29289 9.29289C8.90237 9.68342 8.90237 10.3166 9.29289 10.7071L10.7071 9.29289ZM13.2929 14.7071C13.6834 15.0976 14.3166 15.0976 14.7071 14.7071C15.0976 14.3166 15.0976 13.6834 14.7071 13.2929L13.2929 14.7071ZM5.18404 20.564L5.63803 19.673L5.18404 20.564ZM3.43597 18.816L4.32698 18.362L3.43597 18.816ZM20.564 18.816L19.673 18.362L20.564 18.816ZM18.816 20.564L18.362 19.673L18.816 20.564ZM18.816 3.43597L18.362 4.32698L18.816 3.43597ZM20.564 5.18404L19.673 5.63803L20.564 5.18404ZM5.18404 3.43597L5.63803 4.32698L5.18404 3.43597ZM3.43597 5.18404L4.32698 5.63803L3.43597 5.18404ZM9.2 19C9.75228 19 10.2 18.5523 10.2 18C10.2 17.4477 9.75228 17 9.2 17V19ZM7.09202 17.782L7.54601 16.891H7.54601L7.09202 17.782ZM7 14.8C7 14.2477 6.55228 13.8 6 13.8C5.44772 13.8 5 14.2477 5 14.8H7ZM6.21799 16.908L5.32698 17.362L6.21799 16.908ZM19 14.8C19 14.2477 18.5523 13.8 18 13.8C17.4477 13.8 17 14.2477 17 14.8H19ZM17.782 16.908L16.891 16.454L17.782 16.908ZM14.8 17C14.2477 17 13.8 17.4477 13.8 18C13.8 18.5523 14.2477 19 14.8 19V17ZM16.908 17.782L16.454 16.891L16.908 17.782ZM14.8 5C14.2477 5 13.8 5.44772 13.8 6C13.8 6.55228 14.2477 7 14.8 7V5ZM16.908 6.21799L17.362 5.32698L16.908 6.21799ZM17 9.2C17 9.75229 17.4477 10.2 18 10.2C18.5523 10.2 19 9.75229 19 9.2H17ZM17.782 7.09202L16.891 7.54601V7.54601L17.782 7.09202ZM9.2 7C9.75229 7 10.2 6.55228 10.2 6C10.2 5.44772 9.75229 5 9.2 5V7ZM7.09202 6.21799L7.54601 7.10899L7.09202 6.21799ZM5 9.2C5 9.75228 5.44772 10.2 6 10.2C6.55228 10.2 7 9.75228 7 9.2H5ZM6.21799 7.09202L7.10899 7.54601L6.21799 7.09202ZM10.7071 14.7071L12.7071 12.7071L11.2929 11.2929L9.29289 13.2929L10.7071 14.7071ZM12.7071 12.7071L14.7071 10.7071L13.2929 9.29289L11.2929 11.2929L12.7071 12.7071ZM9.29289 10.7071L11.2929 12.7071L12.7071 11.2929L10.7071 9.29289L9.29289 10.7071ZM11.2929 12.7071L13.2929 14.7071L14.7071 13.2929L12.7071 11.2929L11.2929 12.7071ZM9.4 4H14.6V2H9.4V4ZM20 9.4V14.6H22V9.4H20ZM14.6 20H9.4V22H14.6V20ZM4 14.6V9.4H2V14.6H4ZM9.4 20C8.26339 20 7.47108 19.9992 6.85424 19.9488C6.24907 19.8994 5.90138 19.8072 5.63803 19.673L4.73005 21.455C5.32234 21.7568 5.96253 21.8826 6.69138 21.9422C7.40855 22.0008 8.2964 22 9.4 22V20ZM2 14.6C2 15.7036 1.99922 16.5914 2.05782 17.3086C2.11737 18.0375 2.24318 18.6777 2.54497 19.27L4.32698 18.362C4.19279 18.0986 4.10062 17.7509 4.05118 17.1458C4.00078 16.5289 4 15.7366 4 14.6H2ZM5.63803 19.673C5.07354 19.3854 4.6146 18.9265 4.32698 18.362L2.54497 19.27C3.02433 20.2108 3.78924 20.9757 4.73005 21.455L5.63803 19.673ZM20 14.6C20 15.7366 19.9992 16.5289 19.9488 17.1458C19.8994 17.7509 19.8072 18.0986 19.673 18.362L21.455 19.27C21.7568 18.6777 21.8826 18.0375 21.9422 17.3086C22.0008 16.5914 22 15.7036 22 14.6H20ZM14.6 22C15.7036 22 16.5914 22.0008 17.3086 21.9422C18.0375 21.8826 18.6777 21.7568 19.27 21.455L18.362 19.673C18.0986 19.8072 17.7509 19.8994 17.1458 19.9488C16.5289 19.9992 15.7366 20 14.6 20V22ZM19.673 18.362C19.3854 18.9265 18.9265 19.3854 18.362 19.673L19.27 21.455C20.2108 20.9757 20.9757 20.2108 21.455 19.27L19.673 18.362ZM14.6 4C15.7366 4 16.5289 4.00078 17.1458 4.05118C17.7509 4.10062 18.0986 4.19279 18.362 4.32698L19.27 2.54497C18.6777 2.24318 18.0375 2.11737 17.3086 2.05782C16.5914 1.99922 15.7036 2 14.6 2V4ZM22 9.4C22 8.2964 22.0008 7.40855 21.9422 6.69138C21.8826 5.96253 21.7568 5.32234 21.455 4.73005L19.673 5.63803C19.8072 5.90138 19.8994 6.24907 19.9488 6.85424C19.9992 7.47108 20 8.26339 20 9.4H22ZM18.362 4.32698C18.9265 4.6146 19.3854 5.07354 19.673 5.63803L21.455 4.73005C20.9757 3.78924 20.2108 3.02433 19.27 2.54497L18.362 4.32698ZM9.4 2C8.2964 2 7.40855 1.99922 6.69138 2.05782C5.96253 2.11737 5.32234 2.24318 4.73005 2.54497L5.63803 4.32698C5.90138 4.19279 6.24907 4.10062 6.85424 4.05118C7.47108 4.00078 8.26339 4 9.4 4V2ZM4 9.4C4 8.26339 4.00078 7.47108 4.05118 6.85424C4.10062 6.24907 4.19279 5.90138 4.32698 5.63803L2.54497 4.73005C2.24318 5.32234 2.11737 5.96253 2.05782 6.69138C1.99922 7.40855 2 8.2964 2 9.4H4ZM4.73005 2.54497C3.78924 3.02433 3.02433 3.78924 2.54497 4.73005L4.32698 5.63803C4.6146 5.07354 5.07354 4.6146 5.63803 4.32698L4.73005 2.54497ZM9.2 17C8.62345 17 8.25117 16.9992 7.96784 16.9761C7.69617 16.9539 7.59545 16.9162 7.54601 16.891L6.63803 18.673C7.01641 18.8658 7.40963 18.9371 7.80497 18.9694C8.18864 19.0008 8.65645 19 9.2 19V17ZM5 14.8C5 15.3436 4.99922 15.8114 5.03057 16.195C5.06287 16.5904 5.13419 16.9836 5.32698 17.362L7.10899 16.454C7.0838 16.4045 7.04612 16.3038 7.02393 16.0322C7.00078 15.7488 7 15.3766 7 14.8H5ZM7.54601 16.891C7.35785 16.7951 7.20487 16.6422 7.10899 16.454L5.32698 17.362C5.6146 17.9265 6.07354 18.3854 6.63803 18.673L7.54601 16.891ZM17 14.8C17 15.3766 16.9992 15.7488 16.9761 16.0322C16.9539 16.3038 16.9162 16.4045 16.891 16.454L18.673 17.362C18.8658 16.9836 18.9371 16.5904 18.9694 16.195C19.0008 15.8114 19 15.3436 19 14.8H17ZM14.8 19C15.3436 19 15.8114 19.0008 16.195 18.9694C16.5904 18.9371 16.9836 18.8658 17.362 18.673L16.454 16.891C16.4045 16.9162 16.3038 16.9539 16.0322 16.9761C15.7488 16.9992 15.3766 17 14.8 17V19ZM16.891 16.454C16.7951 16.6422 16.6422 16.7951 16.454 16.891L17.362 18.673C17.9265 18.3854 18.3854 17.9265 18.673 17.362L16.891 16.454ZM14.8 7C15.3766 7 15.7488 7.00078 16.0322 7.02393C16.3038 7.04612 16.4045 7.0838 16.454 7.10899L17.362 5.32698C16.9836 5.13419 16.5904 5.06287 16.195 5.03057C15.8114 4.99922 15.3436 5 14.8 5V7ZM19 9.2C19 8.65645 19.0008 8.18864 18.9694 7.80497C18.9371 7.40963 18.8658 7.01641 18.673 6.63803L16.891 7.54601C16.9162 7.59545 16.9539 7.69617 16.9761 7.96784C16.9992 8.25117 17 8.62345 17 9.2H19ZM16.454 7.10899C16.6422 7.20487 16.7951 7.35785 16.891 7.54601L18.673 6.63803C18.3854 6.07354 17.9265 5.6146 17.362 5.32698L16.454 7.10899ZM9.2 5C8.65645 5 8.18864 4.99922 7.80497 5.03057C7.40963 5.06287 7.01641 5.13419 6.63803 5.32698L7.54601 7.10899C7.59545 7.0838 7.69617 7.04612 7.96784 7.02393C8.25117 7.00078 8.62345 7 9.2 7V5ZM7 9.2C7 8.62345 7.00078 8.25117 7.02393 7.96784C7.04612 7.69617 7.0838 7.59545 7.10899 7.54601L5.32698 6.63803C5.13419 7.01641 5.06287 7.40963 5.03057 7.80497C4.99922 8.18864 5 8.65645 5 9.2H7ZM6.63803 5.32698C6.07354 5.6146 5.6146 6.07354 5.32698 6.63803L7.10899 7.54601C7.20487 7.35785 7.35785 7.20487 7.54601 7.10899L6.63803 5.32698Z" fill="black"/>
</svg>
