<svg viewBox="0 0 24 24" fill="none" xmlns="http://www.w3.org/2000/svg">
  <path fill-rule="evenodd" clip-rule="evenodd" d="M21.48 0.0681437C21.48 0.0681437 21.482 0.0686911 21.2045 1.02943L21.482 0.0686911C21.7667 0.150931 22.0003 0.35527 22.1198 0.626566C22.7208 1.99201 22.8281 3.51057 22.4352 4.93452C23.4411 6.16395 23.998 7.69807 23.9983 9.29019C23.9985 9.84247 23.5508 10.2903 22.9986 10.2904C22.4463 10.2905 21.9985 9.84292 21.9983 9.29063C21.9981 8.02179 21.4971 6.79667 20.591 5.86997C20.3179 5.59062 20.2324 5.17779 20.3723 4.81297C20.7148 3.9192 20.7583 2.94931 20.5055 2.03837C20.4618 2.04602 20.415 2.05511 20.3651 2.06591C19.7925 2.18968 18.8023 2.5381 17.3398 3.49267C16.8773 3.79453 16.2576 3.66432 15.9558 3.20183C15.6539 2.73934 15.7841 2.11971 16.2466 1.81785C17.8641 0.762119 19.0795 0.297622 19.9426 0.111057C20.3749 0.0176038 20.7175 -0.00577567 20.9751 0.00112691C21.1037 0.00457158 21.21 0.0155323 21.2947 0.0286784C21.337 0.035244 21.3737 0.0423305 21.4049 0.0492439C21.4206 0.0526992 21.4348 0.0561072 21.4476 0.0593795L21.4658 0.0641728L21.4741 0.0664706L21.4781 0.0675911L21.48 0.0681437Z" fill="currentColor"/>
  <path fill-rule="evenodd" clip-rule="evenodd" d="M5.74836 0.111058C6.61142 0.297623 7.8268 0.762121 9.44428 1.81785C9.90677 2.11971 10.037 2.73934 9.73511 3.20183C9.43325 3.66432 8.81362 3.79453 8.35113 3.49267C6.88862 2.53809 5.89837 2.18968 5.32579 2.06591C5.27586 2.05511 5.22908 2.04602 5.1854 2.03838C4.93266 2.9493 4.97609 3.91918 5.31866 4.81297C5.45849 5.17779 5.37304 5.59063 5.0999 5.86998C4.18704 6.80358 3.68561 8.03972 3.69258 9.31779C3.69559 9.87006 3.25033 10.3202 2.69805 10.3232C2.14577 10.3262 1.69562 9.88097 1.69261 9.32869C1.68385 7.72327 2.24142 6.17414 3.25574 4.9345C2.86283 3.51057 2.97012 1.99201 3.57118 0.626546C3.6906 0.355263 3.92421 0.150934 4.20897 0.068694L4.48643 1.02943C4.20897 0.0686941 4.21088 0.0681466 4.21088 0.0681466L4.21281 0.0675939L4.21678 0.0664734L4.22511 0.0641753L4.24332 0.0593817C4.25615 0.0561093 4.27037 0.0527011 4.28598 0.0492456C4.31721 0.0423318 4.35393 0.0352451 4.39621 0.0286792C4.48088 0.0155327 4.58722 0.00457164 4.71579 0.00112697C4.97342 -0.00577579 5.31604 0.0176042 5.74836 0.111058Z" fill="currentColor"/>
  <path d="M3.93715 21.718C5.16341 22.2174 6.50341 22.319 7.8977 22.0766V20.0383C6.66948 20.3125 5.59913 20.2354 4.69145 19.8657C3.61856 19.4288 2.65144 18.5338 1.88978 17.0506C1.6375 16.5593 1.03471 16.3655 0.543412 16.6178C0.0521158 16.8701 -0.141643 17.4729 0.11064 17.9642C1.04128 19.7765 2.33056 21.0638 3.93715 21.718Z" fill="currentColor"/>
  <path fill-rule="evenodd" clip-rule="evenodd" d="M8.6435 1.68835C11.3966 0.961834 14.2981 0.961833 17.0512 1.68835C17.5852 1.82927 17.9038 2.37641 17.7629 2.91041C17.622 3.44442 17.0748 3.76307 16.5408 3.62215C14.1223 2.9839 11.5725 2.9839 9.1538 3.62215C8.6198 3.76307 8.07266 3.44441 7.93175 2.91041C7.79083 2.3764 8.10949 1.82927 8.6435 1.68835Z" fill="currentColor"/>
  <path d="M3.69162 9.32324C3.69162 8.77096 3.2439 8.32324 2.69162 8.32324C2.13933 8.32324 1.69162 8.77096 1.69162 9.32324C1.69162 12.5288 2.70685 14.6584 4.36246 16.0139C5.44667 16.9016 6.73884 17.3996 8.02517 17.6969C8.10641 17.7156 8.18763 17.7336 8.26878 17.7508L8.18046 17.9698C7.95193 18.5805 7.85521 19.2312 7.89672 19.881V22.9999C7.89672 23.5522 8.34444 23.9999 8.89672 23.9999C9.44901 23.9999 9.89672 23.5522 9.89672 22.9999V19.8471C9.89672 19.8231 9.89586 19.7991 9.89412 19.7751C9.86707 19.4006 9.92126 19.0244 10.0537 18.6706C10.1861 18.3165 10.3944 17.9916 10.6665 17.7177C10.9359 17.4467 11.0272 17.0459 10.9019 16.6849C10.7766 16.324 10.4565 16.066 10.0772 16.0201C8.35413 15.8118 6.77569 15.4049 5.62946 14.4665C4.64925 13.6639 3.86681 12.3716 3.71739 10.126L3.71254 10.049C3.69875 9.81726 3.69162 9.57551 3.69162 9.32324Z" fill="currentColor"/>
  <path d="M21.9993 9.48554C21.9993 8.94124 22.4472 8.5 22.9997 8.5C23.5523 8.5 24.0002 8.94124 24.0002 9.48554C24.0002 12.6447 22.9845 14.7436 21.3281 16.0795C20.2434 16.9544 18.9506 17.4451 17.6636 17.7381C17.5824 17.7566 17.5011 17.7743 17.4199 17.7913L17.5083 18.0071C17.7369 18.6089 17.8337 19.2502 17.7922 19.8907V22.9645C17.7922 23.5088 17.3442 23.95 16.7917 23.95C16.2391 23.95 15.7912 23.5088 15.7912 22.9645V19.8573C15.7912 19.8336 15.7921 19.8099 15.7938 19.7863C15.8209 19.4172 15.7667 19.0464 15.6342 18.6977C15.5017 18.3488 15.2933 18.0286 15.021 17.7587C14.7516 17.4915 14.6602 17.0965 14.7856 16.7408C14.9109 16.3851 15.2311 16.1308 15.6106 16.0856C17.3345 15.8803 18.9137 15.4793 20.0605 14.5544C21.0412 13.7635 21.824 12.4899 21.9735 10.2767L21.9783 10.2008C21.9921 9.97242 21.9993 9.73416 21.9993 9.48554Z" fill="currentColor"/>
</svg>
