<svg width="128" height="128" viewBox="0 0 128 128" fill="none" xmlns="http://www.w3.org/2000/svg">
<path d="M118.93 82.5096C118.93 82.5096 111.35 66.1223 103.645 56.561C95.9354 46.9962 86.52 36.5807 80.9528 36.5807C75.389 36.5807 59.8351 64.12 52.6997 64.12C45.5626 64.12 40.8935 51.6362 33.0789 51.6362C24.3008 51.6362 10.3549 81.7403 10.3549 81.7403C9.50501 83.6863 9.16118 84.7903 9.4102 86.844C9.4102 86.844 14.2551 108.325 64.9421 108.325C115.631 108.325 119.682 87.1965 119.682 87.1965C119.945 85.3067 119.755 84.2832 118.93 82.5096Z" fill="#3BCE53"/>
<path d="M53.4932 75.8727C45.6217 75.8727 41.586 68.1053 39.398 63.3107C37.4305 58.992 36.1302 52.1728 31.5073 51.9818C32.0561 51.7647 32.584 51.6362 33.0788 51.6362C40.8934 51.6362 45.5627 64.12 52.6996 64.12C59.835 64.12 75.3889 36.5807 80.9528 36.5807C82.0016 36.5807 83.1825 36.9506 84.464 37.6087C83.5158 37.4837 82.3003 37.5704 81.3643 38.5099C79.5652 40.309 63.2387 75.8727 53.4932 75.8727Z" fill="#39B44D"/>
<path d="M64.1503 11.55C29.8298 11.55 2.9417 54.4146 0.397705 91.2947C11.1676 109.987 37.1388 117.012 64.1503 117.012C91.1601 117.012 117.133 109.987 127.898 91.2947C125.354 54.4146 98.469 11.55 64.1503 11.55Z" fill="url(#paint0_radial_185_16195)" fill-opacity="0.2"/>
<defs>
<radialGradient id="paint0_radial_185_16195" cx="0" cy="0" r="1" gradientUnits="userSpaceOnUse" gradientTransform="translate(55.6801 39.04) rotate(90) scale(21.12 25.5332)">
<stop stop-color="#E7F6FD"/>
<stop offset="1" stop-color="#C2EDFF"/>
</radialGradient>
</defs>
</svg>
