<svg width="512" height="512" viewBox="0 0 512 512" fill="none" xmlns="http://www.w3.org/2000/svg">
<path d="M475.721 330.038C475.721 330.038 445.402 264.489 414.582 226.244C383.741 187.985 346.08 146.323 323.811 146.323C301.556 146.323 239.34 256.48 210.799 256.48C182.25 256.48 163.574 206.545 132.316 206.545C97.2032 206.545 41.4192 326.961 41.4192 326.961C38.0199 334.745 36.6445 339.161 37.6406 347.376C37.6406 347.376 57.0201 433.299 259.768 433.299C462.523 433.299 478.729 348.786 478.729 348.786C479.778 341.227 479.02 337.133 475.721 330.038Z" fill="#3BCE53"/>
<path d="M213.973 303.491C182.487 303.491 166.344 272.421 157.592 253.243C149.722 235.968 144.521 208.691 126.029 207.927C128.225 207.059 130.336 206.545 132.315 206.545C163.574 206.545 182.251 256.48 210.799 256.48C239.34 256.48 301.556 146.323 323.811 146.323C328.006 146.323 332.73 147.802 337.856 150.435C334.063 149.935 329.201 150.282 325.457 154.04C318.261 161.236 252.955 303.491 213.973 303.491Z" fill="#39B44D"/>
<path d="M256.601 46.2C119.319 46.2 11.7666 217.658 1.59064 365.179C44.67 439.946 148.555 468.05 256.601 468.05C364.64 468.05 468.532 439.946 511.59 365.179C501.414 217.658 393.876 46.2 256.601 46.2Z" fill="url(#paint0_radial_185_16220)" fill-opacity="0.2"/>
<defs>
<radialGradient id="paint0_radial_185_16220" cx="0" cy="0" r="1" gradientUnits="userSpaceOnUse" gradientTransform="translate(222.72 156.16) rotate(90) scale(84.48 102.133)">
<stop stop-color="#E7F6FD"/>
<stop offset="1" stop-color="#C2EDFF"/>
</radialGradient>
</defs>
</svg>
