<svg viewBox="0 0 24 24" fill="none" xmlns="http://www.w3.org/2000/svg">
<path d="M5.18404 21.564L5.63803 20.673H5.63803L5.18404 21.564ZM3.43597 19.816L2.54497 20.27L3.43597 19.816ZM18.816 21.564L18.362 20.673H18.362L18.816 21.564ZM20.564 19.816L19.673 19.362L20.564 19.816ZM20.564 8.18404L19.673 8.63803L20.564 8.18404ZM18.816 6.43597L18.362 7.32698H18.362L18.816 6.43597ZM5.18404 6.43597L4.73005 5.54497H4.73005L5.18404 6.43597ZM3.43597 8.18404L2.54497 7.73005H2.54497L3.43597 8.18404ZM7.10557 16.5528C6.85858 17.0468 7.05881 17.6474 7.55279 17.8944C8.04676 18.1414 8.64744 17.9412 8.89443 17.4472L7.10557 16.5528ZM10.4472 13.2236L10.8944 12.3292L10.4472 13.2236ZM13.5528 14.7764L13.1056 15.6708L13.5528 14.7764ZM14.2236 14.5528L13.3292 14.1056V14.1056L14.2236 14.5528ZM16.8944 11.4472C17.1414 10.9532 16.9412 10.3526 16.4472 10.1056C15.9532 9.85858 15.3526 10.0588 15.1056 10.5528L16.8944 11.4472ZM11.8868 5.88686L11.1797 6.59397L11.8868 5.88686ZM9.77773 2.3636C9.3872 1.97308 8.75404 1.97308 8.36351 2.3636C7.97299 2.75413 7.97299 3.38729 8.36351 3.77782L9.77773 2.3636ZM12.113 5.88687L11.406 5.17975L11.4059 5.17975L12.113 5.88687ZM15.7071 3.70712C16.0976 3.3166 16.0976 2.68343 15.7071 2.2929C15.3166 1.90237 14.6834 1.90236 14.2929 2.29288L15.7071 3.70712ZM11.969 5.95369L12.278 5.00263V5.00263L11.969 5.95369ZM12.0308 5.95369L12.3398 6.90475L12.3398 6.90474L12.0308 5.95369ZM9.4 23H14.6V21H9.4V23ZM22 15.6V12.4H20V15.6H22ZM14.6 5H9.4V7H14.6V5ZM2 12.4V15.6H4V12.4H2ZM9.4 21C8.26339 21 7.47108 20.9992 6.85424 20.9488C6.24907 20.8994 5.90138 20.8072 5.63803 20.673L4.73005 22.455C5.32234 22.7568 5.96253 22.8826 6.69138 22.9422C7.40855 23.0008 8.2964 23 9.4 23V21ZM2 15.6C2 16.7036 1.99922 17.5914 2.05782 18.3086C2.11737 19.0375 2.24318 19.6777 2.54497 20.27L4.32698 19.362C4.19279 19.0986 4.10062 18.7509 4.05118 18.1458C4.00078 17.5289 4 16.7366 4 15.6H2ZM5.63803 20.673C5.07354 20.3854 4.6146 19.9265 4.32698 19.362L2.54497 20.27C3.02433 21.2108 3.78924 21.9757 4.73005 22.455L5.63803 20.673ZM14.6 23C15.7036 23 16.5914 23.0008 17.3086 22.9422C18.0375 22.8826 18.6777 22.7568 19.27 22.455L18.362 20.673C18.0986 20.8072 17.7509 20.8994 17.1458 20.9488C16.5289 20.9992 15.7366 21 14.6 21V23ZM20 15.6C20 16.7366 19.9992 17.5289 19.9488 18.1458C19.8994 18.7509 19.8072 19.0986 19.673 19.362L21.455 20.27C21.7568 19.6777 21.8826 19.0375 21.9422 18.3086C22.0008 17.5914 22 16.7036 22 15.6H20ZM19.27 22.455C20.2108 21.9757 20.9757 21.2108 21.455 20.27L19.673 19.362C19.3854 19.9265 18.9265 20.3854 18.362 20.673L19.27 22.455ZM22 12.4C22 11.2964 22.0008 10.4086 21.9422 9.69138C21.8826 8.96253 21.7568 8.32234 21.455 7.73005L19.673 8.63803C19.8072 8.90138 19.8994 9.24907 19.9488 9.85424C19.9992 10.4711 20 11.2634 20 12.4H22ZM14.6 7C15.7366 7 16.5289 7.00078 17.1458 7.05118C17.7509 7.10062 18.0986 7.19279 18.362 7.32698L19.27 5.54497C18.6777 5.24318 18.0375 5.11737 17.3086 5.05782C16.5914 4.99922 15.7036 5 14.6 5V7ZM21.455 7.73005C20.9757 6.78924 20.2108 6.02433 19.27 5.54497L18.362 7.32698C18.9265 7.6146 19.3854 8.07354 19.673 8.63803L21.455 7.73005ZM9.4 5C8.2964 5 7.40855 4.99922 6.69138 5.05782C5.96253 5.11737 5.32234 5.24318 4.73005 5.54497L5.63803 7.32698C5.90138 7.19279 6.24907 7.10062 6.85424 7.05118C7.47108 7.00078 8.26339 7 9.4 7V5ZM4 12.4C4 11.2634 4.00078 10.4711 4.05118 9.85424C4.10062 9.24907 4.19279 8.90138 4.32698 8.63803L2.54497 7.73005C2.24318 8.32234 2.11737 8.96253 2.05782 9.69138C1.99922 10.4086 2 11.2964 2 12.4H4ZM4.73005 5.54497C3.78924 6.02433 3.02433 6.78924 2.54497 7.73005L4.32698 8.63803C4.6146 8.07354 5.07354 7.6146 5.63803 7.32698L4.73005 5.54497ZM8.89443 17.4472L10.6708 13.8944L8.88197 13L7.10557 16.5528L8.89443 17.4472ZM10 14.118L13.1056 15.6708L14 13.882L10.8944 12.3292L10 14.118ZM15.118 15L16.8944 11.4472L15.1056 10.5528L13.3292 14.1056L15.118 15ZM13.1056 15.6708C13.8465 16.0413 14.7476 15.741 15.118 15L13.3292 14.1056C13.4527 13.8586 13.753 13.7585 14 13.882L13.1056 15.6708ZM10.6708 13.8944C10.5473 14.1414 10.247 14.2415 10 14.118L10.8944 12.3292C10.1535 11.9587 9.25245 12.259 8.88197 13L10.6708 13.8944ZM12.5939 5.17976L9.77773 2.3636L8.36351 3.77782L11.1797 6.59397L12.5939 5.17976ZM12.8201 6.59398L15.7071 3.70712L14.2929 2.29288L11.406 5.17975L12.8201 6.59398ZM11.1797 6.59397C11.1878 6.6021 11.2359 6.65128 11.287 6.69468C11.3471 6.74567 11.473 6.84399 11.66 6.90474L12.278 5.00263C12.4422 5.05596 12.5468 5.14068 12.5814 5.17C12.5909 5.17812 12.5981 5.18461 12.6022 5.18843C12.6064 5.19227 12.6089 5.19469 12.609 5.19484C12.6092 5.19499 12.6082 5.19407 12.6054 5.19126C12.6025 5.18836 12.5991 5.18499 12.5939 5.17976L11.1797 6.59397ZM11.4059 5.17975C11.4007 5.18498 11.3974 5.18835 11.3944 5.19125C11.3916 5.19407 11.3906 5.19498 11.3908 5.19483C11.391 5.19468 11.3935 5.19226 11.3976 5.18842C11.4018 5.1846 11.4089 5.17811 11.4185 5.17C11.453 5.14067 11.5577 5.05595 11.7218 5.00263L12.3398 6.90474C12.5268 6.844 12.6528 6.74568 12.7128 6.69469C12.7639 6.65129 12.812 6.60212 12.8201 6.59398L11.4059 5.17975ZM11.66 6.90474C11.8809 6.97652 12.1189 6.97653 12.3398 6.90475L11.7218 5.00263C11.9026 4.9439 12.0973 4.9439 12.278 5.00263L11.66 6.90474Z" fill="currentColor"/>
</svg>
