<svg viewBox="0 0 24 24" fill="none" xmlns="http://www.w3.org/2000/svg">
<path d="M14.8187 21C12.8146 22.3333 10.1855 22.3333 8.18127 21M4.34248 13.1575C4.44674 12.64 4.5 12.1109 4.5 11.5778V9C4.5 5.13401 7.63401 2 11.5 2C12.6603 2 13.7546 2.28229 14.7181 2.78193M17.7181 5.78193C18.2177 6.7454 18.5 7.83973 18.5 9V11.5778C18.5 13.1572 18.9675 14.7013 19.8436 16.0154L19.9818 16.2226C20.2033 16.5549 19.9651 17 19.5657 17H6.5M17.7181 5.78193L20.5 3M17.7181 5.78193L6.5 17M6.5 17L3 20.5" stroke="currentColor" stroke-width="2" stroke-linecap="round"/>
</svg>
