<svg viewBox="0 0 24 24" fill="none" xmlns="http://www.w3.org/2000/svg">
  <path d="M12 13C13.6569 13 15 11.6568 15 9.99999C15 8.34313 13.6569 6.99999 12 6.99999C10.3431 6.99999 9 8.34313 9 9.99999M11.8124 16.3125H12.1874M11.8124 16.6875H12.1874M4.33984 6.42264L11.0001 2.57734C11.6189 2.22007 12.3813 2.22007 13.0001 2.57734L19.6604 6.42264C20.2792 6.7799 20.6604 7.44016 20.6604 8.15469V15.8453C20.6604 16.5598 20.2792 17.2201 19.6604 17.5773L13.0001 21.4226C12.3813 21.7799 11.6189 21.7799 11.0001 21.4226L4.33984 17.5773C3.72104 17.2201 3.33984 16.5598 3.33984 15.8453V8.15469C3.33984 7.44016 3.72104 6.7799 4.33984 6.42264ZM12.5 16.5C12.5 16.7761 12.2761 17 12 17C11.7239 17 11.5 16.7761 11.5 16.5C11.5 16.2238 11.7239 16 12 16C12.2761 16 12.5 16.2238 12.5 16.5Z" stroke="currentColor" stroke-width="2" stroke-linecap="round"/>
</svg>
