<svg viewBox="0 0 24 24" fill="none" xmlns="http://www.w3.org/2000/svg">
<path d="M4 5C3.44772 5 3 5.44772 3 6C3 6.55228 3.44772 7 4 7V5ZM20 7C20.5523 7 21 6.55228 21 6C21 5.44772 20.5523 5 20 5V7ZM7 6C7 6.55228 7.44772 7 8 7C8.55228 7 9 6.55228 9 6H7ZM15 6C15 6.55228 15.4477 7 16 7C16.5523 7 17 6.55228 17 6H15ZM18.8925 18.0357L17.8926 18.0268L18.8925 18.0357ZM18 5.99107L17.8926 18.0268L19.8925 18.0446L20 6.00893L18 5.99107ZM14.8927 21H9V23H14.8927V21ZM4 6V18H6V6H4ZM4 7H5V5H4V7ZM5 7H19V5H5V7ZM19 7H20V5H19V7ZM9 5.55556C9 4.25163 10.2292 3 12 3V1C9.35256 1 7 2.93212 7 5.55556H9ZM12 3C13.7708 3 15 4.25163 15 5.55556H17C17 2.93212 14.6474 1 12 1V3ZM7 5.55556V6H9V5.55556H7ZM15 5.55556V6H17V5.55556H15ZM9 21C7.34314 21 6 19.6569 6 18H4C4 20.7614 6.23857 23 9 23V21ZM17.8926 18.0268C17.8779 19.6731 16.5391 21 14.8927 21V23C17.6367 23 19.868 20.7885 19.8925 18.0446L17.8926 18.0268Z" fill="currentColor"/>
</svg>
