<svg width="24" height="25" viewBox="0 0 24 25" fill="none" xmlns="http://www.w3.org/2000/svg">
<path d="M22.2929 24.3243C22.6834 24.7148 23.3166 24.7148 23.7071 24.3243C24.0976 23.9338 24.0976 23.3006 23.7071 22.9101L22.2929 24.3243ZM5.07152 13.6289C4.86641 14.1416 5.11583 14.7236 5.62861 14.9287C6.14139 15.1338 6.72336 14.8844 6.92848 14.3716L5.07152 13.6289ZM7.7577 9.606L8.68617 9.97739L7.7577 9.606ZM8.52194 9.3917L9.12194 8.5917H9.12193L8.52194 9.3917ZM11.4781 11.6088L12.0781 10.8088L11.4781 11.6088ZM12.2423 11.3945L11.3138 11.0231H11.3138L12.2423 11.3945ZM14.9285 7.37163C15.1336 6.85885 14.8842 6.27688 14.3714 6.07177C13.8586 5.86665 13.2766 6.11607 13.0715 6.62885L14.9285 7.37163ZM18.1176 10.676C18.1176 15.1268 14.5096 18.7348 10.0588 18.7348V20.7348C15.6142 20.7348 20.1176 16.2313 20.1176 10.676H18.1176ZM10.0588 18.7348C5.60806 18.7348 2 15.1268 2 10.676H0C0 16.2313 4.50349 20.7348 10.0588 20.7348V18.7348ZM2 10.676C2 6.22525 5.60806 2.61719 10.0588 2.61719V0.617188C4.50349 0.617188 0 5.12068 0 10.676H2ZM10.0588 2.61719C14.5096 2.61719 18.1176 6.22525 18.1176 10.676H20.1176C20.1176 5.12068 15.6142 0.617188 10.0588 0.617188V2.61719ZM15.8223 17.8537L22.2929 24.3243L23.7071 22.9101L17.2365 16.4395L15.8223 17.8537ZM6.92848 14.3716L8.68617 9.97739L6.82922 9.23461L5.07152 13.6289L6.92848 14.3716ZM7.92194 10.1917L10.8781 12.4088L12.0781 10.8088L9.12194 8.5917L7.92194 10.1917ZM13.1708 11.7659L14.9285 7.37163L13.0715 6.62885L11.3138 11.0231L13.1708 11.7659ZM10.8781 12.4088C11.6677 13.001 12.8042 12.6823 13.1708 11.7659L11.3138 11.0231C11.436 10.7176 11.8149 10.6114 12.0781 10.8088L10.8781 12.4088ZM8.68617 9.97739C8.56398 10.2829 8.18514 10.3891 7.92194 10.1917L9.12193 8.5917C8.33231 7.99948 7.1958 8.31817 6.82922 9.23461L8.68617 9.97739Z" fill="black"/>
</svg>
