<svg viewBox="0 0 24 24" fill="none" xmlns="http://www.w3.org/2000/svg">
<g clip-path="url(#clip0_9_1025)">
<path d="M11.6248 11.6249H12.3748M11.6248 12.3749H12.3748M5.62476 11.6249H6.37476M5.62476 12.3749H6.37476M17.6248 11.6249H18.3748M17.6248 12.3749H18.3748M9 23H15C17.8003 23 19.2004 23 20.27 22.455C21.2108 21.9757 21.9757 21.2108 22.455 20.27C23 19.2004 23 17.8003 23 15V9C23 6.19974 23 4.79961 22.455 3.73005C21.9757 2.78924 21.2108 2.02433 20.27 1.54497C19.2004 1 17.8003 1 15 1H9C6.19974 1 4.79961 1 3.73005 1.54497C2.78924 2.02433 2.02433 2.78924 1.54497 3.73005C1 4.79961 1 6.19974 1 9V15C1 17.8003 1 19.2004 1.54497 20.27C2.02433 21.2108 2.78924 21.9757 3.73005 22.455C4.79961 23 6.19974 23 9 23ZM13 12C13 12.5523 12.5523 13 12 13C11.4477 13 11 12.5523 11 12C11 11.4477 11.4477 11 12 11C12.5523 11 13 11.4477 13 12ZM7 12C7 12.5523 6.55229 13 6 13C5.44772 13 5 12.5523 5 12C5 11.4477 5.44772 11 6 11C6.55229 11 7 11.4477 7 12ZM19 12C19 12.5523 18.5523 13 18 13C17.4477 13 17 12.5523 17 12C17 11.4477 17.4477 11 18 11C18.5523 11 19 11.4477 19 12Z" stroke="black" stroke-width="2" stroke-linecap="round"/>
</g>
<defs>
<clipPath id="clip0_9_1025">
<rect width="24" height="24" fill="white"/>
</clipPath>
</defs>
</svg>
