<svg viewBox="0 0 24 24" fill="none" xmlns="http://www.w3.org/2000/svg">
<path d="M18.4933 20.8071C18.8838 21.1976 19.517 21.1976 19.9075 20.8071C20.298 20.4166 20.298 19.7834 19.9075 19.3929L18.4933 20.8071ZM4.6075 4.09289C4.21697 3.70237 3.58381 3.70237 3.19328 4.09289C2.80276 4.48342 2.80276 5.11658 3.19328 5.50711L4.6075 4.09289ZM19.9075 4.60711C20.298 4.21658 20.298 3.58342 19.9075 3.19289C19.517 2.80237 18.8838 2.80237 18.4933 3.19289L19.9075 4.60711ZM3.19328 18.4929C2.80276 18.8834 2.80276 19.5166 3.19328 19.9071C3.58381 20.2976 4.21697 20.2976 4.6075 19.9071L3.19328 18.4929ZM19.1004 8.4C19.1004 8.95228 19.5481 9.4 20.1004 9.4C20.6527 9.4 21.1004 8.95228 21.1004 8.4H19.1004ZM14.7004 2C14.1481 2 13.7004 2.44772 13.7004 3C13.7004 3.55228 14.1481 4 14.7004 4V2ZM19.9042 3.98282L20.7952 3.52883V3.52883L19.9042 3.98282ZM19.1176 3.19619L19.5716 2.30518L19.1176 3.19619ZM14.7004 20C14.1481 20 13.7004 20.4477 13.7004 21C13.7004 21.5523 14.1481 22 14.7004 22V20ZM17.2204 21V22V21ZM20.1004 18.12H19.1004H20.1004ZM21.1004 15.6C21.1004 15.0477 20.6527 14.6 20.1004 14.6C19.5481 14.6 19.1004 15.0477 19.1004 15.6H21.1004ZM19.1176 20.8038L19.5716 21.6948L19.1176 20.8038ZM19.9042 20.0172L20.7952 20.4712L19.9042 20.0172ZM19.9075 19.3929L4.6075 4.09289L3.19328 5.50711L18.4933 20.8071L19.9075 19.3929ZM18.4933 3.19289L3.19328 18.4929L4.6075 19.9071L19.9075 4.60711L18.4933 3.19289ZM21.1004 8.4V5.88H19.1004V8.4H21.1004ZM17.2204 2H14.7004V4H17.2204V2ZM21.1004 5.88C21.1004 5.39245 21.1012 4.96665 21.0725 4.61633C21.043 4.25434 20.9771 3.88581 20.7952 3.52883L19.0132 4.43681C19.0275 4.46486 19.0597 4.54088 19.0792 4.7792C19.0996 5.02918 19.1004 5.35945 19.1004 5.88H21.1004ZM17.2204 4C17.7409 4 18.0712 4.00078 18.3212 4.0212C18.5595 4.04067 18.6355 4.0729 18.6636 4.08719L19.5716 2.30518C19.2146 2.12329 18.8461 2.05742 18.4841 2.02784C18.1337 1.99922 17.7079 2 17.2204 2V4ZM20.7952 3.52883C20.5268 3.00197 20.0984 2.57363 19.5716 2.30518L18.6636 4.08719C18.8141 4.16389 18.9365 4.28628 19.0132 4.43681L20.7952 3.52883ZM14.7004 22H17.2204V20H14.7004V22ZM21.1004 18.12V15.6H19.1004V18.12H21.1004ZM17.2204 22C17.7079 22 18.1337 22.0008 18.4841 21.9722C18.8461 21.9426 19.2146 21.8767 19.5716 21.6948L18.6636 19.9128C18.6355 19.9271 18.5595 19.9593 18.3212 19.9788C18.0712 19.9992 17.7409 20 17.2204 20V22ZM19.1004 18.12C19.1004 18.6405 19.0996 18.9708 19.0792 19.2208C19.0597 19.4591 19.0275 19.5351 19.0132 19.5632L20.7952 20.4712C20.9771 20.1142 21.043 19.7457 21.0725 19.3837C21.1012 19.0333 21.1004 18.6075 21.1004 18.12H19.1004ZM19.5716 21.6948C20.0984 21.4264 20.5268 20.998 20.7952 20.4712L19.0132 19.5632C18.9365 19.7137 18.8141 19.8361 18.6636 19.9128L19.5716 21.6948Z" fill="black"/>
</svg>
