<svg width="24" height="24" viewBox="0 0 24 24" fill="none" xmlns="http://www.w3.org/2000/svg">
<path d="M10.7059 13.7071C11.0964 13.3166 11.0964 12.6834 10.7059 12.2929C10.3154 11.9024 9.6822 11.9024 9.29167 12.2929L10.7059 13.7071ZM9.29167 17.7071C9.6822 18.0976 10.3154 18.0976 10.7059 17.7071C11.0964 17.3166 11.0964 16.6834 10.7059 16.2929L9.29167 17.7071ZM14.7059 12.2929C14.3154 11.9024 13.6822 11.9024 13.2917 12.2929C12.9011 12.6834 12.9011 13.3166 13.2917 13.7071L14.7059 12.2929ZM13.2917 16.2929C12.9011 16.6834 12.9011 17.3166 13.2917 17.7071C13.6822 18.0976 14.3154 18.0976 14.7059 17.7071L13.2917 16.2929ZM19.7807 3.09202L20.6717 2.63803V2.63803L19.7807 3.09202ZM18.9067 2.21799L19.3606 1.32698L19.3606 1.32698L18.9067 2.21799ZM18.9067 21.782L19.3606 22.673L19.3606 22.673L18.9067 21.782ZM19.7807 20.908L20.6717 21.362L20.6717 21.362L19.7807 20.908ZM5.09069 21.782L4.6367 22.673H4.6367L5.09069 21.782ZM4.21666 20.908L3.32566 21.362L3.32566 21.362L4.21666 20.908ZM4.58579 7.41289L3.87868 6.70578H3.87868L4.58579 7.41289ZM9.41289 2.58579L10.12 3.29289L10.12 3.29289L9.41289 2.58579ZM19.9987 8L20.9987 8.0016V8H19.9987ZM4.01786 20L3.01787 20.0016L3.01791 20.0313L3.01972 20.0609L4.01786 20ZM19.9795 20L20.9776 20.0609L20.9794 20.0313L20.9795 20.0016L19.9795 20ZM4 8.8303L3 8.8319L4 8.8303ZM9.99846 2.17974L9.58416 1.2696L9.58416 1.2696L9.99846 2.17974ZM9.29167 12.2929L7.57452 14.0101L8.98873 15.4243L10.7059 13.7071L9.29167 12.2929ZM7.57452 15.9899L9.29167 17.7071L10.7059 16.2929L8.98873 14.5757L7.57452 15.9899ZM7.57452 14.0101C7.02778 14.5568 7.02778 15.4432 7.57452 15.9899L8.98873 14.5757C9.22304 14.8101 9.22304 15.1899 8.98873 15.4243L7.57452 14.0101ZM13.2917 13.7071L15.0088 15.4243L16.423 14.0101L14.7059 12.2929L13.2917 13.7071ZM15.0088 14.5757L13.2917 16.2929L14.7059 17.7071L16.423 15.9899L15.0088 14.5757ZM15.0088 15.4243C14.7745 15.1899 14.7745 14.8101 15.0088 14.5757L16.423 15.9899C16.9698 15.4432 16.9698 14.5568 16.423 14.0101L15.0088 15.4243ZM7.19868 23H16.7987V21H7.19868V23ZM20.9987 5.2C20.9987 4.65645 20.9995 4.18864 20.9681 3.80497C20.9358 3.40963 20.8645 3.01641 20.6717 2.63803L18.8897 3.54601C18.9149 3.59545 18.9526 3.69617 18.9747 3.96784C18.9979 4.25117 18.9987 4.62345 18.9987 5.2H20.9987ZM16.7987 3C17.3752 3 17.7475 3.00078 18.0308 3.02393C18.3025 3.04612 18.4032 3.0838 18.4527 3.10899L19.3606 1.32698C18.9823 1.13419 18.589 1.06287 18.1937 1.03057C17.81 0.999222 17.3422 1 16.7987 1V3ZM20.6717 2.63803C20.3841 2.07354 19.9251 1.6146 19.3606 1.32698L18.4527 3.10899C18.6408 3.20487 18.7938 3.35785 18.8897 3.54601L20.6717 2.63803ZM16.7987 23C17.3422 23 17.81 23.0008 18.1937 22.9694C18.589 22.9371 18.9823 22.8658 19.3606 22.673L18.4527 20.891C18.4032 20.9162 18.3025 20.9539 18.0308 20.9761C17.7475 20.9992 17.3752 21 16.7987 21V23ZM19.3606 22.673C19.9251 22.3854 20.3841 21.9265 20.6717 21.362L18.8897 20.454C18.7938 20.6422 18.6408 20.7951 18.4527 20.891L19.3606 22.673ZM7.19868 21C6.62213 21 6.24986 20.9992 5.96652 20.9761C5.69484 20.9539 5.59412 20.9162 5.54469 20.891L4.6367 22.673C5.01509 22.8658 5.40831 22.9371 5.80366 22.9694C6.18733 23.0008 6.65513 23 7.19868 23V21ZM5.54469 20.891C5.35652 20.7951 5.20354 20.6422 5.10767 20.454L3.32566 21.362C3.61328 21.9265 4.07222 22.3854 4.6367 22.673L5.54469 20.891ZM16.7987 1H10.8271V3H16.7987V1ZM5.29289 8.12L10.12 3.29289L8.70578 1.87868L3.87868 6.70578L5.29289 8.12ZM20.9987 8V5.2H18.9987V8H20.9987ZM3.01972 20.0609C3.04673 20.5033 3.11226 20.9432 3.32566 21.362L5.10767 20.454C5.07903 20.3978 5.03689 20.2811 5.01601 19.9391L3.01972 20.0609ZM18.9813 19.9391C18.9605 20.2811 18.9183 20.3978 18.8897 20.454L20.6717 21.362C20.8851 20.9432 20.9506 20.5033 20.9776 20.0609L18.9813 19.9391ZM3 8.8319L3.01787 20.0016L5.01786 19.9984L5 8.8287L3 8.8319ZM18.9987 7.9984L18.9795 19.9984L20.9795 20.0016L20.9987 8.0016L18.9987 7.9984ZM10.8271 1C10.3941 1 9.97073 1.09363 9.58416 1.2696L10.4128 3.08987C10.5417 3.03118 10.6828 3 10.8271 3V1ZM9.58416 1.2696C9.26034 1.41701 8.96221 1.62226 8.70578 1.87868L10.12 3.29289C10.2055 3.2074 10.3048 3.13902 10.4128 3.08987L9.58416 1.2696ZM3.87868 6.70578C3.62164 6.96283 3.41603 7.26177 3.26855 7.58646L5.08952 8.41354C5.13869 8.30528 5.20719 8.2057 5.29289 8.12L3.87868 6.70578ZM3.26855 7.58646C3.0926 7.97386 2.99931 8.39812 3 8.8319L5 8.8287C4.99977 8.68411 5.03084 8.54275 5.08952 8.41354L3.26855 7.58646ZM4.17904 9H8.99846V7H4.17904V9ZM10.9985 7V2.17974H8.99846V7H10.9985ZM8.99846 9C10.103 9 10.9985 8.10457 10.9985 7H8.99846H8.99846V9Z" fill="black"/>
</svg>
