<svg viewBox="0 0 24 24" fill="none" xmlns="http://www.w3.org/2000/svg">
<path d="M8.70589 11.2929C8.31536 10.9024 7.6822 10.9024 7.29167 11.2929C6.90115 11.6834 6.90115 12.3166 7.29167 12.7071L8.70589 11.2929ZM10.6452 14.6464L11.3523 13.9393L10.6452 14.6464ZM10.6452 15.3536L11.3523 16.0607L10.6452 15.3536ZM7.29167 17.2929C6.90115 17.6834 6.90115 18.3166 7.29167 18.7071C7.6822 19.0976 8.31536 19.0976 8.70589 18.7071L7.29167 17.2929ZM12.9988 17C12.4465 17 11.9988 17.4477 11.9988 18C11.9988 18.5523 12.4465 19 12.9988 19V17ZM15.9988 19C16.5511 19 16.9988 18.5523 16.9988 18C16.9988 17.4477 16.5511 17 15.9988 17V19ZM19.7807 3.09202L20.6717 2.63803V2.63803L19.7807 3.09202ZM18.9067 2.21799L19.3606 1.32698L19.3606 1.32698L18.9067 2.21799ZM18.9067 21.782L19.3606 22.673L19.3606 22.673L18.9067 21.782ZM19.7807 20.908L20.6717 21.362L20.6717 21.362L19.7807 20.908ZM5.09069 21.782L4.6367 22.673H4.6367L5.09069 21.782ZM4.21666 20.908L3.32566 21.362L3.32566 21.362L4.21666 20.908ZM4.58579 7.41289L3.87868 6.70578H3.87868L4.58579 7.41289ZM9.41289 2.58579L10.12 3.29289L10.12 3.29289L9.41289 2.58579ZM19.9987 8L20.9987 8.0016V8H19.9987ZM4.01786 20L3.01787 20.0016L3.01791 20.0313L3.01972 20.0609L4.01786 20ZM19.9795 20L20.9776 20.0609L20.9794 20.0313L20.9795 20.0016L19.9795 20ZM4 8.8303L3 8.8319L4 8.8303ZM9.99846 2.17974L9.58416 1.2696L9.58416 1.2696L9.99846 2.17974ZM7.29167 12.7071L9.93812 15.3536L11.3523 13.9393L8.70589 11.2929L7.29167 12.7071ZM9.93812 14.6464L7.29167 17.2929L8.70589 18.7071L11.3523 16.0607L9.93812 14.6464ZM9.93812 15.3536C9.74286 15.1583 9.74286 14.8417 9.93812 14.6464L11.3523 16.0607C11.9381 15.4749 11.9381 14.5251 11.3523 13.9393L9.93812 15.3536ZM12.9988 19H15.9988V17H12.9988V19ZM7.19868 23H16.7987V21H7.19868V23ZM20.9987 5.2C20.9987 4.65645 20.9995 4.18864 20.9681 3.80497C20.9358 3.40963 20.8645 3.01641 20.6717 2.63803L18.8897 3.54601C18.9149 3.59545 18.9526 3.69617 18.9747 3.96784C18.9979 4.25117 18.9987 4.62345 18.9987 5.2H20.9987ZM16.7987 3C17.3752 3 17.7475 3.00078 18.0308 3.02393C18.3025 3.04612 18.4032 3.0838 18.4527 3.10899L19.3606 1.32698C18.9823 1.13419 18.589 1.06287 18.1937 1.03057C17.81 0.999222 17.3422 1 16.7987 1V3ZM20.6717 2.63803C20.3841 2.07354 19.9251 1.6146 19.3606 1.32698L18.4527 3.10899C18.6408 3.20487 18.7938 3.35785 18.8897 3.54601L20.6717 2.63803ZM16.7987 23C17.3422 23 17.81 23.0008 18.1937 22.9694C18.589 22.9371 18.9823 22.8658 19.3606 22.673L18.4527 20.891C18.4032 20.9162 18.3025 20.9539 18.0308 20.9761C17.7475 20.9992 17.3752 21 16.7987 21V23ZM19.3606 22.673C19.9251 22.3854 20.3841 21.9265 20.6717 21.362L18.8897 20.454C18.7938 20.6422 18.6408 20.7951 18.4527 20.891L19.3606 22.673ZM7.19868 21C6.62213 21 6.24986 20.9992 5.96652 20.9761C5.69484 20.9539 5.59412 20.9162 5.54469 20.891L4.6367 22.673C5.01509 22.8658 5.40831 22.9371 5.80366 22.9694C6.18733 23.0008 6.65513 23 7.19868 23V21ZM5.54469 20.891C5.35652 20.7951 5.20354 20.6422 5.10767 20.454L3.32566 21.362C3.61328 21.9265 4.07222 22.3854 4.6367 22.673L5.54469 20.891ZM16.7987 1H10.8271V3H16.7987V1ZM5.29289 8.12L10.12 3.29289L8.70578 1.87868L3.87868 6.70578L5.29289 8.12ZM20.9987 8V5.2H18.9987V8H20.9987ZM3.01972 20.0609C3.04673 20.5033 3.11226 20.9432 3.32566 21.362L5.10767 20.454C5.07903 20.3978 5.03689 20.2811 5.01601 19.9391L3.01972 20.0609ZM18.9813 19.9391C18.9605 20.2811 18.9183 20.3978 18.8897 20.454L20.6717 21.362C20.8851 20.9432 20.9506 20.5033 20.9776 20.0609L18.9813 19.9391ZM3 8.8319L3.01787 20.0016L5.01786 19.9984L5 8.8287L3 8.8319ZM18.9987 7.9984L18.9795 19.9984L20.9795 20.0016L20.9987 8.0016L18.9987 7.9984ZM10.8271 1C10.3941 1 9.97073 1.09363 9.58416 1.2696L10.4128 3.08987C10.5417 3.03118 10.6828 3 10.8271 3V1ZM9.58416 1.2696C9.26034 1.41701 8.96221 1.62226 8.70578 1.87868L10.12 3.29289C10.2055 3.2074 10.3048 3.13902 10.4128 3.08987L9.58416 1.2696ZM3.87868 6.70578C3.62164 6.96283 3.41603 7.26177 3.26855 7.58646L5.08952 8.41354C5.13869 8.30528 5.20719 8.2057 5.29289 8.12L3.87868 6.70578ZM3.26855 7.58646C3.0926 7.97386 2.99931 8.39812 3 8.8319L5 8.8287C4.99977 8.68411 5.03084 8.54275 5.08952 8.41354L3.26855 7.58646ZM4.17904 9H8.99846V7H4.17904V9ZM10.9985 7V2.17974H8.99846V7H10.9985ZM8.99846 9C10.103 9 10.9985 8.10457 10.9985 7H8.99846H8.99846V9Z" fill="black"/>
</svg>
