<svg width="24" height="24" viewBox="0 0 24 24" fill="none" xmlns="http://www.w3.org/2000/svg">
<path fill-rule="evenodd" clip-rule="evenodd" d="M8.95624 1.72106e-07H15.0438C16.4068 -7.93413e-06 17.4908 -1.43722e-05 18.3654 0.0714424C19.261 0.144616 20.0247 0.297677 20.7239 0.653961C21.8529 1.2292 22.7708 2.14709 23.346 3.27606C23.7023 3.9753 23.8554 4.73898 23.9286 5.63458C24 6.50916 24 7.59318 24 8.95622V15.0438C24 16.4068 24 17.4908 23.9286 18.3654C23.8554 19.261 23.7023 20.0247 23.346 20.7239C22.7708 21.8529 21.8529 22.7708 20.7239 23.346C20.0247 23.7023 19.261 23.8554 18.3654 23.9286C17.4908 24 16.4068 24 15.0438 24H8.95622C7.59318 24 6.50916 24 5.63458 23.9286C4.73898 23.8554 3.9753 23.7023 3.27606 23.346C2.14709 22.7708 1.2292 21.8529 0.653961 20.7239C0.297677 20.0247 0.144616 19.261 0.0714424 18.3654C-1.43722e-05 17.4908 -7.93413e-06 16.4068 1.72106e-07 15.0438V8.95624C-7.93413e-06 7.5932 -1.43722e-05 6.50917 0.0714424 5.63458C0.144616 4.73898 0.297677 3.9753 0.653961 3.27606C1.2292 2.14708 2.14708 1.2292 3.27606 0.653961C3.9753 0.297677 4.73898 0.144616 5.63458 0.0714424C6.50917 -1.43722e-05 7.5932 -7.93413e-06 8.95624 1.72106e-07ZM5.79744 2.0648C5.02552 2.12787 4.55435 2.24729 4.18404 2.43597C3.43139 2.81947 2.81947 3.43139 2.43597 4.18404C2.24729 4.55435 2.12787 5.02552 2.0648 5.79744C2.00078 6.58104 2 7.58337 2 9V15C2 16.4166 2.00078 17.419 2.0648 18.2026C2.12787 18.9745 2.24729 19.4457 2.43597 19.816C2.81947 20.5686 3.43139 21.1805 4.18404 21.564C4.55435 21.7527 5.02552 21.8721 5.79744 21.9352C6.58104 21.9992 7.58337 22 9 22H15C16.4166 22 17.419 21.9992 18.2026 21.9352C18.9745 21.8721 19.4457 21.7527 19.816 21.564C20.5686 21.1805 21.1805 20.5686 21.564 19.816C21.7527 19.4457 21.8721 18.9745 21.9352 18.2026C21.9992 17.419 22 16.4166 22 15V9C22 7.58337 21.9992 6.58104 21.9352 5.79744C21.8721 5.02552 21.7527 4.55435 21.564 4.18404C21.1805 3.43139 20.5686 2.81947 19.816 2.43597C19.4457 2.24729 18.9745 2.12787 18.2026 2.0648C17.419 2.00078 16.4166 2 15 2H9C7.58337 2 6.58104 2.00078 5.79744 2.0648Z" fill="black"/>
<path d="M6.49381 13.78C6.19343 13.78 5.79601 13.5876 5.55159 13.3296L5.54594 13.3238C5.46432 13.2422 5.28705 13.076 4.97381 13.076C4.52316 13.076 4.15381 13.4393 4.15381 13.888C4.15381 14.078 4.21796 14.226 4.28967 14.3264L4.29166 14.3291C4.7379 14.9392 5.50637 15.404 6.49381 15.404C8.00936 15.404 8.84981 14.4072 8.84981 13.408C8.84981 12.7853 8.63074 12.3351 8.30312 12.0161C7.98566 11.7069 7.5846 11.5391 7.24729 11.4336L6.36952 11.1543C6.17211 11.0903 6.11381 10.9922 6.11381 10.888C6.11381 10.8152 6.14128 10.7616 6.20222 10.7169C6.27148 10.6661 6.39727 10.62 6.58981 10.62C6.8381 10.62 7.05237 10.7108 7.27689 10.8937C7.44352 11.0371 7.61466 11.108 7.82981 11.108C8.28161 11.108 8.63381 10.7355 8.63381 10.296C8.63381 10.0998 8.54963 9.91043 8.46128 9.79524C8.20039 9.44304 7.53376 8.99597 6.58981 8.99597C5.95221 8.99597 5.39946 9.18318 5.00081 9.52114C4.5992 9.86161 4.36981 10.343 4.36981 10.888C4.36981 11.4195 4.5543 11.8402 4.8464 12.1565C5.13302 12.4669 5.51067 12.6636 5.88347 12.782L6.64274 13.0218C6.85474 13.09 6.97299 13.1537 7.03753 13.2137C7.08665 13.2593 7.11381 13.3099 7.11381 13.408C7.11381 13.5222 7.07258 13.5994 6.99581 13.657C6.90881 13.7222 6.7501 13.78 6.49381 13.78Z" fill="black"/>
<path d="M10.6922 15.3H13.1002C13.5459 15.3 13.9122 14.9337 13.9122 14.488C13.9122 14.0312 13.5428 13.676 13.1002 13.676H11.5202V12.956H12.7482C13.1939 12.956 13.5602 12.5897 13.5602 12.144C13.5602 11.6872 13.1908 11.332 12.7482 11.332H11.5202V10.724H13.1002C13.5459 10.724 13.9122 10.3577 13.9122 9.91197C13.9122 9.45524 13.5428 9.09997 13.1002 9.09997H10.6922C10.2254 9.09997 9.84818 9.47139 9.84818 9.93597V14.464C9.84818 14.9286 10.2254 15.3 10.6922 15.3Z" fill="black"/>
<path fill-rule="evenodd" clip-rule="evenodd" d="M19.0837 14.7174C18.6408 15.159 18.0194 15.404 17.3018 15.404C15.9283 15.404 14.8338 14.3977 14.8338 12.952V11.448C14.8338 10.0023 15.9283 8.99597 17.3018 8.99597C18.0194 8.99597 18.6408 9.24089 19.0837 9.68256C19.5265 10.1242 19.7698 10.7417 19.7698 11.448V12.952C19.7698 13.6582 19.5265 14.2758 19.0837 14.7174ZM16.5058 12.976V11.424C16.5058 11.1558 16.6005 10.9603 16.736 10.831C16.8737 10.6994 17.0711 10.62 17.3018 10.62C17.5325 10.62 17.7299 10.6994 17.8676 10.831C18.0031 10.9603 18.0978 11.1558 18.0978 11.424V12.976C18.0978 13.2441 18.0031 13.4397 17.8676 13.569C17.7299 13.7005 17.5325 13.78 17.3018 13.78C17.0711 13.78 16.8737 13.7005 16.736 13.569C16.6005 13.4397 16.5058 13.2441 16.5058 12.976Z" fill="black"/>
</svg>
