<svg viewBox="0 0 24 24" fill="none" xmlns="http://www.w3.org/2000/svg">
  <path d="M5.40902 21C5.17444 21 4.91278 20.9729 4.62406 20.9188C4.35338 20.8827 4.09173 20.8195 3.8391 20.7293C3.60451 20.6391 3.40602 20.5308 3.24361 20.4045C3.0812 20.2602 3 20.0887 3 19.8902C3 19.8361 3.00902 19.5654 3.02707 19.0782C3.06316 18.5729 3.09925 17.9143 3.13534 17.1023C3.18947 16.2722 3.24361 15.3609 3.29774 14.3684C3.36992 13.3579 3.43308 12.3203 3.48722 11.2556C3.5594 10.1729 3.61353 9.13534 3.64962 8.14286C3.70376 7.13233 3.74887 6.22105 3.78496 5.40902C3.82105 4.57895 3.8391 3.91128 3.8391 3.40601C3.8391 3.26165 3.86617 3.16241 3.9203 3.10827C3.99248 3.03609 4.16391 3 4.43459 3C4.68722 3 4.94887 3.02707 5.21955 3.0812C5.50827 3.11729 5.76993 3.18045 6.00451 3.27068C6.25714 3.34286 6.46466 3.45113 6.62707 3.59549C6.78947 3.73985 6.87068 3.90225 6.87068 4.08271C6.87068 4.15489 6.84361 4.48872 6.78947 5.08421C6.73534 5.6797 6.66316 6.47368 6.57293 7.46617C6.50075 8.45865 6.42857 9.59549 6.35639 10.8767H16.8857C16.9579 9.86616 17.012 8.88271 17.0481 7.92632C17.0842 6.96992 17.1113 6.10376 17.1293 5.32782C17.1654 4.53383 17.1835 3.89323 17.1835 3.40601C17.1835 3.26165 17.2105 3.16241 17.2647 3.10827C17.3368 3.03609 17.5083 3 17.7789 3C18.0316 3 18.2932 3.02707 18.5639 3.0812C18.8526 3.11729 19.1233 3.18045 19.3759 3.27068C19.6286 3.34286 19.8271 3.45113 19.9714 3.59549C20.1338 3.73985 20.215 3.90225 20.215 4.08271C20.215 4.15489 20.197 4.43459 20.1609 4.9218C20.1248 5.40902 20.0707 6.05865 19.9985 6.87068C19.9444 7.68271 19.8812 8.61203 19.809 9.65865C19.7368 10.7053 19.6647 11.8331 19.5925 13.0421C19.5203 14.2511 19.4662 15.4962 19.4301 16.7774C19.394 18.0406 19.3759 19.3038 19.3759 20.5669C19.3759 20.7293 19.3308 20.8376 19.2406 20.8917C19.1684 20.9639 19.006 21 18.7534 21C18.5188 21 18.2571 20.9729 17.9684 20.9188C17.6977 20.8827 17.4361 20.8195 17.1835 20.7293C16.9308 20.6391 16.7233 20.5308 16.5609 20.4045C16.4165 20.2602 16.3444 20.0887 16.3444 19.8902C16.3444 19.8361 16.3624 19.4662 16.3985 18.7805C16.4526 18.0947 16.5158 17.2195 16.588 16.1549C16.6602 15.0722 16.7323 13.9173 16.8045 12.6902C16.0105 12.6361 15.1895 12.6 14.3414 12.582C13.5113 12.5459 12.6812 12.5278 11.8511 12.5278C10.0105 12.5278 8.14286 12.591 6.24812 12.7173C6.17594 13.9624 6.11278 15.2526 6.05865 16.588C6.02256 17.9233 6.00451 19.2496 6.00451 20.5669C6.00451 20.7293 5.96842 20.8376 5.89624 20.8917C5.84211 20.9639 5.6797 21 5.40902 21Z" fill="currentColor"/>
</svg>
