<svg viewBox="0 0 24 24" fill="none" xmlns="http://www.w3.org/2000/svg">
  <path d="M10 4C10 3.44772 10.4477 3 11 3H20C20.5523 3 21 3.44772 21 4C21 4.55228 20.5523 5 20 5H11C10.4477 5 10 4.55228 10 4Z" fill="currentColor"/>
  <path d="M10 8C10 7.44772 10.4477 7 11 7H20C20.5523 7 21 7.44772 21 8C21 8.55228 20.5523 9 20 9H11C10.4477 9 10 8.55228 10 8Z" fill="currentColor"/>
  <path d="M11 11C10.4477 11 10 11.4477 10 12C10 12.5523 10.4477 13 11 13H20C20.5523 13 21 12.5523 21 12C21 11.4477 20.5523 11 20 11H11Z" fill="currentColor"/>
  <path d="M10 16C10 15.4477 10.4477 15 11 15H20C20.5523 15 21 15.4477 21 16C21 16.5523 20.5523 17 20 17H11C10.4477 17 10 16.5523 10 16Z" fill="currentColor"/>
  <path d="M11 19C10.4477 19 10 19.4477 10 20C10 20.5523 10.4477 21 11 21H20C20.5523 21 21 20.5523 21 20C21 19.4477 20.5523 19 20 19H11Z" fill="currentColor"/>
  <path d="M4 11C3.44771 11 3 11.4477 3 12C3 12.5523 3.44771 13 4 13H6C6.55228 13 7 12.5523 7 12C7 11.4477 6.55228 11 6 11H4Z" fill="currentColor"/>
  <path d="M4 3C3.44771 3 3 3.44771 3 4C3 4.55229 3.44771 5 4 5H6C6.55228 5 7 4.55229 7 4C7 3.44771 6.55228 3 6 3H4Z" fill="currentColor"/>
  <path d="M4 19C3.44771 19 3 19.4477 3 20C3 20.5523 3.44771 21 4 21H6C6.55228 21 7 20.5523 7 20C7 19.4477 6.55228 19 6 19H4Z" fill="currentColor"/>
</svg>
