<svg viewBox="0 0 24 24" fill="none" xmlns="http://www.w3.org/2000/svg">
<path d="M7 8.00005L11.6464 3.3536C11.8417 3.15834 12.1583 3.15834 12.3536 3.3536L17 8.00005M3 12L12 21M8 16.5L10.9719 13.3796C11.1687 13.1729 11.4983 13.1727 11.6954 13.379L18.5 20.5M18 12C18 12.5523 17.5523 13 17 13C16.4477 13 16 12.5523 16 12C16 11.4478 16.4477 11 17 11C17.5523 11 18 11.4478 18 12ZM6.2 21H17.8C18.9201 21 19.4802 21 19.908 20.7821C20.2843 20.5903 20.5903 20.2844 20.782 19.908C21 19.4802 21 18.9202 21 17.8V11.2C21 10.0799 21 9.51989 20.782 9.09207C20.5903 8.71574 20.2843 8.40978 19.908 8.21803C19.4802 8.00005 18.9201 8.00005 17.8 8.00005H6.2C5.0799 8.00005 4.51984 8.00005 4.09202 8.21803C3.71569 8.40978 3.40973 8.71574 3.21799 9.09207C3 9.51989 3 10.0799 3 11.2V17.8C3 18.9202 3 19.4802 3.21799 19.908C3.40973 20.2844 3.71569 20.5903 4.09202 20.7821C4.51984 21 5.07989 21 6.2 21Z" stroke="currentColor" stroke-width="2" stroke-linecap="round"/>
</svg>
