<svg viewBox="0 0 24 24" fill="none" xmlns="http://www.w3.org/2000/svg">
<path d="M3 11C2.44772 11 2 11.4477 2 12C2 12.5522 2.44772 13 3 13V11ZM21 13C21.5523 13 22 12.5522 22 12C22 11.4477 21.5523 11 21 11V13ZM4.97619 11.783C4.85638 11.2439 4.3222 10.904 3.78307 11.0238C3.24394 11.1436 2.90401 11.6778 3.02381 12.2169L4.97619 11.783ZM5.44315 18.4941L6.41934 18.2772L5.44315 18.4941ZM18.5568 18.4941L19.533 18.7111L19.533 18.7111L18.5568 18.4941ZM20.9762 12.2169C21.096 11.6778 20.7561 11.1436 20.2169 11.0238C19.6778 10.904 19.1436 11.2439 19.0238 11.783L20.9762 12.2169ZM17.1849 20.8377L16.7903 19.9188L16.7903 19.9188L17.1849 20.8377ZM18.0184 20.169L17.207 19.5845L18.0184 20.169ZM5.98161 20.169L5.17024 20.7536H5.17024L5.98161 20.169ZM6.81513 20.8377L6.42053 21.7565L6.42053 21.7565L6.81513 20.8377ZM5 15C4.44772 15 4 15.4477 4 16C4 16.5522 4.44772 17 5 17V15ZM19 17C19.5523 17 20 16.5522 20 16C20 15.4477 19.5523 15 19 15V17ZM6.00772 11.8759C5.93922 12.4239 6.32795 12.9237 6.87597 12.9922C7.42399 13.0607 7.92378 12.672 7.99228 12.124L6.00772 11.8759ZM5.31712 7.01926L6.03639 6.32453L5.31712 7.01926ZM5.66785 6.03977L5.77021 5.04502L5.66785 6.03977ZM11 12C11 12.5522 11.4477 13 12 13C12.5523 13 13 12.5522 13 12H11ZM18.6678 3.73614L17.744 3.3533L17.744 3.3533L18.6678 3.73614ZM16 12C16 12.5522 16.4477 13 17 13C17.5523 13 18 12.5522 18 12H16ZM9.59367 6.48938C9.31168 6.96425 9.46804 7.5778 9.94291 7.85979C10.4178 8.14178 11.0313 7.98542 11.3133 7.51055L9.59367 6.48938ZM18.1902 3.02084L18.1379 2.02221L18.1902 3.02084ZM3 13H21V11H3V13ZM3.02381 12.2169L4.46696 18.7111L6.41934 18.2772L4.97619 11.783L3.02381 12.2169ZM8.56695 22H15.4331V20H8.56695V22ZM19.533 18.7111L20.9762 12.2169L19.0238 11.783L17.5807 18.2772L19.533 18.7111ZM15.4331 22C15.8765 22 16.2627 22.0006 16.584 21.977C16.9178 21.9525 17.249 21.8985 17.5795 21.7565L16.7903 19.9188C16.7428 19.9392 16.656 19.9663 16.4375 19.9824C16.2063 19.9993 15.9056 20 15.4331 20V22ZM17.5807 18.2772C17.4782 18.7385 17.4123 19.0319 17.3456 19.2539C17.2825 19.4638 17.2372 19.5426 17.207 19.5845L18.8298 20.7536C19.04 20.4617 19.1646 20.1502 19.2609 19.8296C19.3537 19.5211 19.4368 19.1439 19.533 18.7111L17.5807 18.2772ZM17.5795 21.7565C18.0795 21.5418 18.5117 21.1951 18.8298 20.7536L17.207 19.5845C17.101 19.7317 16.9569 19.8472 16.7903 19.9188L17.5795 21.7565ZM4.46696 18.7111C4.56316 19.1439 4.64632 19.5211 4.73906 19.8296C4.83542 20.1502 4.95999 20.4617 5.17024 20.7536L6.79297 19.5845C6.76281 19.5426 6.71749 19.4638 6.65441 19.2539C6.58769 19.0319 6.52184 18.7385 6.41934 18.2772L4.46696 18.7111ZM8.56695 20C8.09445 20 7.79369 19.9993 7.56253 19.9824C7.34396 19.9663 7.25716 19.9392 7.20974 19.9188L6.42053 21.7565C6.75103 21.8985 7.08216 21.9525 7.41604 21.977C7.73733 22.0006 8.12352 22 8.56695 22V20ZM5.17024 20.7536C5.48833 21.1951 5.92052 21.5418 6.42053 21.7565L7.20974 19.9188C7.04307 19.8472 6.899 19.7317 6.79297 19.5845L5.17024 20.7536ZM5 17H19V15H5V17ZM7.99228 12.124C8.15303 10.838 7.90847 8.26275 6.03639 6.32453L4.59785 7.71398C5.92653 9.08961 6.11858 10.9891 6.00772 11.8759L7.99228 12.124ZM5.56549 7.03451C6.8431 7.16599 8.22939 7.55594 9.27116 8.33217C10.2672 9.07433 11 10.2015 11 12H13C13 9.54234 11.9464 7.83134 10.4661 6.72842C9.03164 5.65956 7.25185 5.19749 5.77021 5.04502L5.56549 7.03451ZM6.03639 6.32453C6.15557 6.44791 6.15992 6.59341 6.12641 6.69364C6.10658 6.75297 6.05858 6.84527 5.95208 6.92428C5.83329 7.01241 5.68914 7.04724 5.56549 7.03451L5.77021 5.04502C4.95097 4.96072 4.41022 5.51926 4.22961 6.05951C4.05796 6.57293 4.13383 7.23357 4.59785 7.71399L6.03639 6.32453ZM17.744 3.3533C17.0117 5.12024 16 8.42079 16 12H18C18 8.75954 18.9261 5.72494 19.5916 4.11898L17.744 3.3533ZM11.3133 7.51055C12.1126 6.16464 14.1522 4.23371 18.2425 4.01947L18.1379 2.02221C13.3796 2.27144 10.7341 4.56893 9.59367 6.48938L11.3133 7.51055ZM19.5916 4.11898C19.9822 3.17655 19.3283 1.95986 18.1379 2.02221L18.2425 4.01947C18.0376 4.0302 17.8695 3.91905 17.7855 3.79107C17.7056 3.66936 17.6809 3.50557 17.744 3.3533L19.5916 4.11898Z" fill="black"/>
</svg>
