<svg viewBox="0 0 24 24" fill="none" xmlns="http://www.w3.org/2000/svg">
<path d="M9.54601 14.891L10 14L9.54601 14.891ZM9.10899 14.454L10 14L9.10899 14.454ZM14.891 14.454L14 14L14.891 14.454ZM14.454 14.891L14 14L14.454 14.891ZM14.454 9.10899L14 10L14.454 9.10899ZM14.891 9.54601L14 10L14.891 9.54601ZM9.54601 9.10899L10 10L9.54601 9.10899ZM9.10899 9.54601L10 10L9.10899 9.54601ZM1 7C1 7.55228 1.44772 8 2 8C2.55228 8 3 7.55228 3 7H1ZM7 3C7.55228 3 8 2.55228 8 2C8 1.44772 7.55228 1 7 1V3ZM2.10899 2.54601L1.21799 2.09202L1.21799 2.09202L2.10899 2.54601ZM2.54601 2.10899L2.09202 1.21799L2.09202 1.21799L2.54601 2.10899ZM3.70711 2.29289C3.31658 1.90237 2.68342 1.90237 2.29289 2.29289C1.90237 2.68342 1.90237 3.31658 2.29289 3.70711L3.70711 2.29289ZM6.29289 7.70711C6.68342 8.09763 7.31658 8.09763 7.70711 7.70711C8.09763 7.31658 8.09763 6.68342 7.70711 6.29289L6.29289 7.70711ZM3 17C3 16.4477 2.55228 16 2 16C1.44772 16 1 16.4477 1 17H3ZM7 23C7.55228 23 8 22.5523 8 22C8 21.4477 7.55228 21 7 21V23ZM2.10899 21.454L1.21799 21.908H1.21799L2.10899 21.454ZM2.54601 21.891L2.09202 22.782H2.09202L2.54601 21.891ZM2.29289 20.2929C1.90237 20.6834 1.90237 21.3166 2.29289 21.7071C2.68342 22.0976 3.31658 22.0976 3.70711 21.7071L2.29289 20.2929ZM7.70711 17.7071C8.09763 17.3166 8.09763 16.6834 7.70711 16.2929C7.31658 15.9024 6.68342 15.9024 6.29289 16.2929L7.70711 17.7071ZM21 7C21 7.55228 21.4477 8 22 8C22.5523 8 23 7.55228 23 7H21ZM17 1C16.4477 1 16 1.44772 16 2C16 2.55228 16.4477 3 17 3V1ZM21.891 2.54601L22.782 2.09202V2.09202L21.891 2.54601ZM21.454 2.10899L21.908 1.21799V1.21799L21.454 2.10899ZM21.7071 3.70711C22.0976 3.31658 22.0976 2.68342 21.7071 2.29289C21.3166 1.90237 20.6834 1.90237 20.2929 2.29289L21.7071 3.70711ZM16.2929 6.29289C15.9024 6.68342 15.9024 7.31658 16.2929 7.70711C16.6834 8.09763 17.3166 8.09763 17.7071 7.70711L16.2929 6.29289ZM23 17C23 16.4477 22.5523 16 22 16C21.4477 16 21 16.4477 21 17H23ZM17 21C16.4477 21 16 21.4477 16 22C16 22.5523 16.4477 23 17 23V21ZM21.891 21.454L22.782 21.908L21.891 21.454ZM21.454 21.891L21.908 22.782L21.454 21.891ZM20.2929 21.7071C20.6834 22.0976 21.3166 22.0976 21.7071 21.7071C22.0976 21.3166 22.0976 20.6834 21.7071 20.2929L20.2929 21.7071ZM17.7071 16.2929C17.3166 15.9024 16.6834 15.9024 16.2929 16.2929C15.9024 16.6834 15.9024 17.3166 16.2929 17.7071L17.7071 16.2929ZM10.6 10H13.4V8H10.6V10ZM14 10.6V13.4H16V10.6H14ZM13.4 14H10.6V16H13.4V14ZM10 13.4V10.6H8V13.4H10ZM10.6 14C10.3035 14 10.1412 13.9992 10.0246 13.9897C9.91972 13.9811 9.94249 13.9707 10 14L9.09202 15.782C9.36344 15.9203 9.63318 15.9644 9.86177 15.9831C10.0787 16.0008 10.3365 16 10.6 16V14ZM8 13.4C8 13.6635 7.99922 13.9213 8.01695 14.1382C8.03562 14.3668 8.07969 14.6366 8.21799 14.908L10 14C10.0293 14.0575 10.0189 14.0803 10.0103 13.9754C10.0008 13.8588 10 13.6965 10 13.4H8ZM10 14L8.21799 14.908C8.40973 15.2843 8.7157 15.5903 9.09202 15.782L10 14ZM14 13.4C14 13.6965 13.9992 13.8588 13.9897 13.9754C13.9811 14.0803 13.9707 14.0575 14 14L15.782 14.908C15.9203 14.6366 15.9644 14.3668 15.9831 14.1382C16.0008 13.9213 16 13.6635 16 13.4H14ZM13.4 16C13.6635 16 13.9213 16.0008 14.1382 15.9831C14.3668 15.9644 14.6366 15.9203 14.908 15.782L14 14C14.0575 13.9707 14.0803 13.9811 13.9754 13.9897C13.8588 13.9992 13.6965 14 13.4 14V16ZM14 14L14.908 15.782C15.2843 15.5903 15.5903 15.2843 15.782 14.908L14 14ZM13.4 10C13.6965 10 13.8588 10.0008 13.9754 10.0103C14.0803 10.0189 14.0575 10.0293 14 10L14.908 8.21799C14.6366 8.07969 14.3668 8.03562 14.1382 8.01695C13.9213 7.99922 13.6635 8 13.4 8V10ZM16 10.6C16 10.3365 16.0008 10.0787 15.9831 9.86177C15.9644 9.63318 15.9203 9.36344 15.782 9.09202L14 10C13.9707 9.94249 13.9811 9.91972 13.9897 10.0246C13.9992 10.1412 14 10.3035 14 10.6H16ZM14 10L15.782 9.09202C15.5903 8.7157 15.2843 8.40973 14.908 8.21799L14 10ZM10.6 8C10.3365 8 10.0787 7.99922 9.86177 8.01695C9.63318 8.03562 9.36344 8.07969 9.09202 8.21799L10 10C9.94249 10.0293 9.91972 10.0189 10.0246 10.0103C10.1412 10.0008 10.3035 10 10.6 10V8ZM10 10.6C10 10.3035 10.0008 10.1412 10.0103 10.0246C10.0189 9.91972 10.0293 9.94249 10 10L8.21799 9.09202C8.07969 9.36344 8.03562 9.63318 8.01695 9.86177C7.99922 10.0787 8 10.3365 8 10.6H10ZM9.09202 8.21799C8.71569 8.40973 8.40973 8.71569 8.21799 9.09202L10 10L9.09202 8.21799ZM3 7V3.6H1V7H3ZM3.6 3H7V1H3.6V3ZM3 3.6C3 3.30347 3.00078 3.14122 3.0103 3.02463C3.01887 2.91972 3.0293 2.94249 3 3L1.21799 2.09202C1.07969 2.36344 1.03562 2.63318 1.01695 2.86177C0.999222 3.07869 1 3.33647 1 3.6H3ZM3.6 1C3.33647 1 3.07869 0.999222 2.86177 1.01695C2.63318 1.03562 2.36344 1.07969 2.09202 1.21799L3 3C2.94249 3.0293 2.91972 3.01887 3.02463 3.0103C3.14122 3.00078 3.30347 3 3.6 3V1ZM3 3L2.09202 1.21799C1.71569 1.40973 1.40973 1.71569 1.21799 2.09202L3 3ZM2.29289 3.70711L6.29289 7.70711L7.70711 6.29289L3.70711 2.29289L2.29289 3.70711ZM1 17V20.4H3V17H1ZM3.6 23H7V21H3.6V23ZM1 20.4C1 20.6635 0.999222 20.9213 1.01695 21.1382C1.03562 21.3668 1.07969 21.6366 1.21799 21.908L3 21C3.0293 21.0575 3.01887 21.0803 3.0103 20.9754C3.00078 20.8588 3 20.6965 3 20.4H1ZM3.6 21C3.30347 21 3.14122 20.9992 3.02463 20.9897C2.91972 20.9811 2.94249 20.9707 3 21L2.09202 22.782C2.36344 22.9203 2.63318 22.9644 2.86177 22.9831C3.07869 23.0008 3.33647 23 3.6 23V21ZM1.21799 21.908C1.40973 22.2843 1.7157 22.5903 2.09202 22.782L3 21L1.21799 21.908ZM3.70711 21.7071L7.70711 17.7071L6.29289 16.2929L2.29289 20.2929L3.70711 21.7071ZM23 7V3.6H21V7H23ZM20.4 1H17V3H20.4V1ZM23 3.6C23 3.33647 23.0008 3.07869 22.9831 2.86177C22.9644 2.63318 22.9203 2.36344 22.782 2.09202L21 3C20.9707 2.94249 20.9811 2.91972 20.9897 3.02463C20.9992 3.14122 21 3.30347 21 3.6H23ZM20.4 3C20.6965 3 20.8588 3.00078 20.9754 3.0103C21.0803 3.01887 21.0575 3.0293 21 3L21.908 1.21799C21.6366 1.07969 21.3668 1.03562 21.1382 1.01695C20.9213 0.999222 20.6635 1 20.4 1V3ZM22.782 2.09202C22.5903 1.7157 22.2843 1.40973 21.908 1.21799L21 3L22.782 2.09202ZM20.2929 2.29289L16.2929 6.29289L17.7071 7.70711L21.7071 3.70711L20.2929 2.29289ZM21 17V20.4H23V17H21ZM20.4 21H17V23H20.4V21ZM21 20.4C21 20.6965 20.9992 20.8588 20.9897 20.9754C20.9811 21.0803 20.9707 21.0575 21 21L22.782 21.908C22.9203 21.6366 22.9644 21.3668 22.9831 21.1382C23.0008 20.9213 23 20.6635 23 20.4H21ZM20.4 23C20.6635 23 20.9213 23.0008 21.1382 22.9831C21.3668 22.9644 21.6366 22.9203 21.908 22.782L21 21C21.0575 20.9707 21.0803 20.9811 20.9754 20.9897C20.8588 20.9992 20.6965 21 20.4 21V23ZM21 21L21.908 22.782C22.2843 22.5903 22.5903 22.2843 22.782 21.908L21 21ZM21.7071 20.2929L17.7071 16.2929L16.2929 17.7071L20.2929 21.7071L21.7071 20.2929Z" fill="black"/>
</svg>
