<svg viewBox="0 0 24 24" fill="none" xmlns="http://www.w3.org/2000/svg">
<path d="M8 15H16M9.05573 9.88854L9.78885 8.42229C9.92771 8.14458 10 7.83835 10 7.52786V5C10 3.89543 10.8954 3 12 3C13.1046 3 14 3.89543 14 5V7.52786C14 7.83835 14.0723 8.14458 14.2111 8.42229L14.9443 9.88854C15.6385 11.2771 16 12.8082 16 14.3607V20C16 21.1046 15.1046 22 14 22H10C8.89543 22 8 21.1046 8 20V14.3607C8 12.8082 8.36145 11.2771 9.05573 9.88854Z" stroke="currentColor" stroke-width="2" stroke-linecap="round"/>
</svg>
