<svg viewBox="0 0 24 24" fill="none" xmlns="http://www.w3.org/2000/svg">
<path d="M6.29289 12.2929L5.58579 13L7 14.4142L7.70711 13.7071L6.29289 12.2929ZM13.7071 7.70711L14.4142 7L13 5.58579L12.2929 6.29289L13.7071 7.70711ZM7.37485 6.37496C6.82257 6.37496 6.37485 6.82268 6.37485 7.37496C6.37485 7.92725 6.82257 8.37496 7.37485 8.37496V6.37496ZM7.82485 8.37496C8.37714 8.37496 8.82485 7.92725 8.82485 7.37496C8.82485 6.82268 8.37714 6.37496 7.82485 6.37496V8.37496ZM7.37485 6.82496C6.82257 6.82496 6.37485 7.27268 6.37485 7.82496C6.37485 8.37725 6.82257 8.82496 7.37485 8.82496V6.82496ZM7.82485 8.82496C8.37714 8.82496 8.82485 8.37725 8.82485 7.82496C8.82485 7.27268 8.37714 6.82496 7.82485 6.82496V8.82496ZM12.1749 11.175C11.6226 11.175 11.1749 11.6227 11.1749 12.175C11.1749 12.7272 11.6226 13.175 12.1749 13.175V11.175ZM12.6249 13.175C13.1771 13.175 13.6249 12.7272 13.6249 12.175C13.6249 11.6227 13.1771 11.175 12.6249 11.175V13.175ZM12.1749 11.625C11.6226 11.625 11.1749 12.0727 11.1749 12.625C11.1749 13.1772 11.6226 13.625 12.1749 13.625V11.625ZM12.6249 13.625C13.1771 13.625 13.6249 13.1772 13.6249 12.625C13.6249 12.0727 13.1771 11.625 12.6249 11.625V13.625ZM22.2929 23.7071C22.6834 24.0976 23.3166 24.0976 23.7071 23.7071C24.0976 23.3166 24.0976 22.6834 23.7071 22.2929L22.2929 23.7071ZM7.70711 13.7071L13.7071 7.70711L12.2929 6.29289L6.29289 12.2929L7.70711 13.7071ZM7.2 7.6C7.2 7.37909 7.37909 7.2 7.6 7.2V9.2C8.48366 9.2 9.2 8.48365 9.2 7.6H7.2ZM7.6 7.2C7.82091 7.2 8 7.37909 8 7.6H6C6 8.48366 6.71635 9.2 7.6 9.2V7.2ZM8 7.6C8 7.82091 7.82091 8 7.6 8V6C6.71635 6 6 6.71634 6 7.6H8ZM7.6 8C7.37909 8 7.2 7.82091 7.2 7.6H9.2C9.2 6.71635 8.48366 6 7.6 6V8ZM7.37485 8.37496H7.82485V6.37496H7.37485V8.37496ZM7.37485 8.82496H7.82485V6.82496H7.37485V8.82496ZM12 12.4C12 12.1791 12.1791 12 12.4 12V14C13.2837 14 14 13.2837 14 12.4H12ZM12.4 12C12.6209 12 12.8 12.1791 12.8 12.4H10.8C10.8 13.2837 11.5163 14 12.4 14V12ZM12.8 12.4C12.8 12.6209 12.6209 12.8 12.4 12.8V10.8C11.5163 10.8 10.8 11.5163 10.8 12.4H12.8ZM12.4 12.8C12.1791 12.8 12 12.6209 12 12.4H14C14 11.5163 13.2837 10.8 12.4 10.8V12.8ZM12.1749 13.175H12.6249V11.175H12.1749V13.175ZM12.1749 13.625H12.6249V11.625H12.1749V13.625ZM18.1176 10.0588C18.1176 14.5096 14.5096 18.1176 10.0588 18.1176V20.1176C15.6142 20.1176 20.1176 15.6142 20.1176 10.0588H18.1176ZM10.0588 18.1176C5.60806 18.1176 2 14.5096 2 10.0588H0C0 15.6142 4.50349 20.1176 10.0588 20.1176V18.1176ZM2 10.0588C2 5.60806 5.60806 2 10.0588 2V0C4.50349 0 0 4.50349 0 10.0588H2ZM10.0588 2C14.5096 2 18.1176 5.60806 18.1176 10.0588H20.1176C20.1176 4.50349 15.6142 0 10.0588 0V2ZM15.8223 17.2365L22.2929 23.7071L23.7071 22.2929L17.2365 15.8223L15.8223 17.2365Z" fill="currentColor"/>
</svg>
