<svg viewBox="0 0 24 24" fill="none" xmlns="http://www.w3.org/2000/svg">
<path d="M4.45181 19.6505L4.02448 20.5546H4.02448L4.45181 19.6505ZM4.45181 11.3495L4.87913 12.2536H4.87913L4.45181 11.3495ZM5.16145 11.2096L5.32291 10.2227L5.16145 11.2096ZM5.82324 11.6287L6.64648 11.0611L5.82324 11.6287ZM5.16145 19.7904L5.32291 20.7773L5.16145 19.7904ZM5.82324 19.3713L5 18.8036L5 18.8036L5.82324 19.3713ZM19.5482 19.6505L19.9755 20.5546H19.9755L19.5482 19.6505ZM19.5482 11.3495L19.1209 12.2536L19.5482 11.3495ZM18.8385 11.2096L18.6771 10.2227L18.8385 11.2096ZM18.1768 11.6287L17.3535 11.0611L18.1768 11.6287ZM18.8385 19.7904L18.6771 20.7773L18.8385 19.7904ZM18.1768 19.3713L19 18.8036L19 18.8036L18.1768 19.3713ZM4.87913 18.7464C3.82028 18.246 3 17.0175 3 15.5H1C1 17.718 2.20266 19.6935 4.02448 20.5546L4.87913 18.7464ZM3 15.5C3 13.9825 3.82028 12.754 4.87913 12.2536L4.02448 10.4454C2.20266 11.3065 1 13.282 1 15.5H3ZM7 18.4V12.6H5V18.4H7ZM4.87913 12.2536C4.91372 12.2372 4.94024 12.2247 4.96454 12.2135C4.98834 12.2026 5.00507 12.1952 5.01769 12.1899C5.0426 12.1796 5.04152 12.1816 5.02624 12.1853C5.00753 12.1898 4.98772 12.1921 4.97291 12.1923C4.96133 12.1924 4.96718 12.1911 5 12.1964L5.32291 10.2227C5.07017 10.1813 4.82137 10.1774 4.55775 10.2409C4.33251 10.2952 4.13367 10.3938 4.02448 10.4454L4.87913 12.2536ZM7 12.6C7 12.1936 7.03089 11.6185 6.64648 11.0611L5 12.1964C5.00148 12.1986 4.99561 12.19 4.98989 12.1748C4.98464 12.1609 4.98568 12.1577 4.98841 12.1764C4.99166 12.1986 4.99548 12.2385 4.99768 12.3128C4.99991 12.3884 5 12.4767 5 12.6H7ZM5 12.1964C4.98319 12.1937 4.96992 12.1907 4.96052 12.1884C4.95105 12.186 4.94414 12.184 4.93994 12.1826C4.932 12.1801 4.93041 12.1791 4.93516 12.1812C4.93961 12.1831 4.94725 12.1867 4.95754 12.1922C4.96771 12.1977 4.97891 12.2042 4.99044 12.2115C5.00198 12.2188 5.01265 12.2262 5.02194 12.233C5.03133 12.24 5.03785 12.2453 5.0415 12.2485C5.04541 12.2519 5.04385 12.2509 5.03816 12.2448C5.03515 12.2416 5.03031 12.2362 5.02413 12.2287C5.01801 12.2212 5.00967 12.2105 5 12.1964L6.64648 11.0611C6.47686 10.8151 6.23578 10.6329 6.06065 10.522C5.88552 10.411 5.61778 10.2709 5.32291 10.2227L5 12.1964ZM4.02448 20.5546C4.13368 20.6062 4.33251 20.7048 4.55775 20.7591C4.82137 20.8226 5.07017 20.8187 5.32291 20.7773L5 18.8036C4.96718 18.8089 4.96134 18.8076 4.97291 18.8077C4.98772 18.8079 5.00753 18.8102 5.02624 18.8147C5.04152 18.8184 5.0426 18.8204 5.01769 18.8101C5.00507 18.8048 4.98834 18.7974 4.96454 18.7865C4.94024 18.7753 4.91372 18.7628 4.87913 18.7464L4.02448 20.5546ZM5 18.4C5 18.5233 4.99991 18.6116 4.99768 18.6872C4.99548 18.7615 4.99166 18.8014 4.98841 18.8236C4.98568 18.8423 4.98464 18.8391 4.98989 18.8252C4.99561 18.81 5.00148 18.8014 5 18.8036L6.64648 19.9389C7.03089 19.3815 7 18.8064 7 18.4H5ZM5.32291 20.7773C5.61778 20.7291 5.88552 20.589 6.06065 20.478C6.23578 20.3671 6.47686 20.1849 6.64648 19.9389L5 18.8036C5.00967 18.7895 5.01801 18.7788 5.02413 18.7713C5.03031 18.7638 5.03514 18.7584 5.03816 18.7552C5.04385 18.7491 5.04541 18.7481 5.0415 18.7515C5.03785 18.7547 5.03133 18.76 5.02194 18.767C5.01265 18.7738 5.00198 18.7812 4.99044 18.7885C4.97891 18.7958 4.96771 18.8023 4.95754 18.8078C4.94725 18.8133 4.93961 18.8169 4.93517 18.8188C4.93041 18.8209 4.932 18.8199 4.93994 18.8174C4.94414 18.816 4.95105 18.814 4.96052 18.8116C4.96992 18.8093 4.98319 18.8063 5 18.8036L5.32291 20.7773ZM19.9755 20.5546C21.7973 19.6935 23 17.718 23 15.5H21C21 17.0175 20.1797 18.246 19.1209 18.7464L19.9755 20.5546ZM23 15.5C23 13.282 21.7973 11.3065 19.9755 10.4454L19.1209 12.2536C20.1797 12.754 21 13.9825 21 15.5H23ZM19 18.4V12.6H17V18.4H19ZM19.9755 10.4454C19.8663 10.3938 19.6675 10.2952 19.4423 10.2409C19.1786 10.1774 18.9298 10.1813 18.6771 10.2227L19 12.1964C19.0328 12.1911 19.0387 12.1924 19.0271 12.1923C19.0123 12.1921 18.9925 12.1898 18.9738 12.1853C18.9585 12.1816 18.9574 12.1796 18.9823 12.1899C18.9949 12.1952 19.0117 12.2026 19.0355 12.2135C19.0598 12.2247 19.0863 12.2372 19.1209 12.2536L19.9755 10.4454ZM19 12.6C19 12.4767 19.0001 12.3884 19.0023 12.3128C19.0045 12.2385 19.0083 12.1985 19.0116 12.1764C19.0143 12.1577 19.0154 12.1609 19.0101 12.1748C19.0044 12.19 18.9985 12.1986 19 12.1964L17.3535 11.0611C16.9691 11.6185 17 12.1936 17 12.6H19ZM18.6771 10.2227C18.3822 10.2709 18.1145 10.411 17.9394 10.522C17.7642 10.6329 17.5231 10.8151 17.3535 11.0611L19 12.1964C18.9903 12.2105 18.982 12.2212 18.9759 12.2287C18.9697 12.2362 18.9649 12.2416 18.9618 12.2448C18.9561 12.2509 18.9546 12.2519 18.9585 12.2485C18.9621 12.2453 18.9687 12.24 18.9781 12.233C18.9874 12.2262 18.998 12.2188 19.0096 12.2115C19.0211 12.2042 19.0323 12.1977 19.0425 12.1922C19.0527 12.1867 19.0604 12.1831 19.0648 12.1812C19.0696 12.1791 19.068 12.1801 19.0601 12.1826C19.0559 12.184 19.049 12.186 19.0395 12.1884C19.0301 12.1907 19.0168 12.1937 19 12.1964L18.6771 10.2227ZM19.1209 18.7464C19.0863 18.7628 19.0598 18.7753 19.0355 18.7865C19.0117 18.7974 18.9949 18.8048 18.9823 18.8101C18.9574 18.8204 18.9585 18.8184 18.9738 18.8147C18.9925 18.8102 19.0123 18.8079 19.0271 18.8077C19.0387 18.8076 19.0328 18.8089 19 18.8036L18.6771 20.7773C18.9298 20.8187 19.1786 20.8226 19.4423 20.7591C19.6675 20.7048 19.8663 20.6062 19.9755 20.5546L19.1209 18.7464ZM17 18.4C17 18.8064 16.9691 19.3815 17.3535 19.9389L19 18.8036C18.9985 18.8014 19.0044 18.81 19.0101 18.8252C19.0154 18.8391 19.0143 18.8423 19.0116 18.8236C19.0083 18.8015 19.0045 18.7615 19.0023 18.6872C19.0001 18.6116 19 18.5233 19 18.4H17ZM19 18.8036C19.0168 18.8063 19.0301 18.8093 19.0395 18.8116C19.049 18.814 19.0559 18.816 19.0601 18.8174C19.068 18.8199 19.0696 18.8209 19.0648 18.8188C19.0604 18.8169 19.0527 18.8133 19.0425 18.8078C19.0323 18.8023 19.0211 18.7958 19.0096 18.7885C18.998 18.7812 18.9874 18.7738 18.9781 18.767C18.9687 18.76 18.9621 18.7547 18.9585 18.7515C18.9546 18.7481 18.9562 18.7491 18.9618 18.7552C18.9649 18.7584 18.9697 18.7638 18.9759 18.7713C18.982 18.7788 18.9903 18.7895 19 18.8036L17.3535 19.9389C17.5231 20.1849 17.7642 20.3671 17.9394 20.478C18.1145 20.589 18.3822 20.7291 18.6771 20.7773L19 18.8036ZM5 12C5 8.13401 8.13401 5 12 5V3C7.02944 3 3 7.02944 3 12H5ZM12 5C15.866 5 19 8.13401 19 12H21C21 7.02944 16.9706 3 12 3V5Z" fill="black"/>
</svg>
