<svg width="24" height="24" viewBox="0 0 24 24" fill="none" xmlns="http://www.w3.org/2000/svg">
<path d="M12 18C12.5523 18 13 17.5523 13 17C13 16.4477 12.5523 16 12 16V18ZM20 9C20 9.55228 20.4477 10 21 10C21.5523 10 22 9.55228 22 9H20ZM2.21799 15.908L3.10899 15.454L3.10899 15.454L2.21799 15.908ZM3.09202 16.782L3.54601 15.891H3.54601L3.09202 16.782ZM19.908 4.21799L20.362 3.32698V3.32698L19.908 4.21799ZM20.782 5.09202L19.891 5.54601L19.891 5.54601L20.782 5.09202ZM3.09202 4.21799L2.63803 3.32698L2.63803 3.32698L3.09202 4.21799ZM2.21799 5.09202L1.32698 4.63803L1.32698 4.63803L2.21799 5.09202ZM17 16C17 15.4477 16.5523 15 16 15C15.4477 15 15 15.4477 15 16H17ZM16.7236 20.6382L17.1708 21.5326L16.7236 20.6382ZM17.7764 20.1118L18.2236 21.0062L17.7764 20.1118ZM18.2236 20.1118L17.7764 21.0062H17.7764L18.2236 20.1118ZM19.2764 20.6382L18.8292 21.5326L18.8292 21.5326L19.2764 20.6382ZM21 16C21 15.4477 20.5523 15 20 15C19.4477 15 19 15.4477 19 16H21ZM6 8C5.44772 8 5 8.44772 5 9C5 9.55228 5.44772 10 6 10V8ZM11 10C11.5523 10 12 9.55228 12 9C12 8.44772 11.5523 8 11 8V10ZM6 11C5.44772 11 5 11.4477 5 12C5 12.5523 5.44772 13 6 13V11ZM8 13C8.55228 13 9 12.5523 9 12C9 11.4477 8.55228 11 8 11V13ZM5.2 5H17.8V3H5.2V5ZM3 13.8V7.2H1V13.8H3ZM12 16H5.2V18H12V16ZM20 7.2V9H22V7.2H20ZM1 13.8C1 14.3436 0.999222 14.8114 1.03057 15.195C1.06287 15.5904 1.13419 15.9836 1.32698 16.362L3.10899 15.454C3.0838 15.4045 3.04612 15.3038 3.02393 15.0322C3.00078 14.7488 3 14.3766 3 13.8H1ZM5.2 16C4.62345 16 4.25117 15.9992 3.96784 15.9761C3.69617 15.9539 3.59545 15.9162 3.54601 15.891L2.63803 17.673C3.01641 17.8658 3.40963 17.9371 3.80497 17.9694C4.18864 18.0008 4.65645 18 5.2 18V16ZM1.32698 16.362C1.6146 16.9265 2.07354 17.3854 2.63803 17.673L3.54601 15.891C3.35785 15.7951 3.20487 15.6422 3.10899 15.454L1.32698 16.362ZM17.8 5C18.3766 5 18.7488 5.00078 19.0322 5.02393C19.3038 5.04612 19.4045 5.0838 19.454 5.10899L20.362 3.32698C19.9836 3.13419 19.5904 3.06287 19.195 3.03057C18.8114 2.99922 18.3436 3 17.8 3V5ZM22 7.2C22 6.65645 22.0008 6.18864 21.9694 5.80497C21.9371 5.40963 21.8658 5.01641 21.673 4.63803L19.891 5.54601C19.9162 5.59545 19.9539 5.69617 19.9761 5.96784C19.9992 6.25117 20 6.62345 20 7.2H22ZM19.454 5.10899C19.6422 5.20487 19.7951 5.35785 19.891 5.54601L21.673 4.63803C21.3854 4.07354 20.9265 3.6146 20.362 3.32698L19.454 5.10899ZM5.2 3C4.65645 3 4.18864 2.99922 3.80497 3.03057C3.40963 3.06287 3.01641 3.13419 2.63803 3.32698L3.54601 5.10899C3.59545 5.0838 3.69617 5.04612 3.96784 5.02393C4.25117 5.00078 4.62345 5 5.2 5V3ZM3 7.2C3 6.62345 3.00078 6.25117 3.02393 5.96784C3.04612 5.69617 3.0838 5.59545 3.10899 5.54601L1.32698 4.63803C1.13419 5.01641 1.06287 5.40963 1.03057 5.80497C0.999222 6.18864 1 6.65645 1 7.2H3ZM2.63803 3.32698C2.07354 3.6146 1.6146 4.07354 1.32698 4.63803L3.10899 5.54601C3.20487 5.35785 3.35785 5.20487 3.54601 5.10899L2.63803 3.32698ZM21 12C21 13.6569 19.6569 15 18 15V17C20.7614 17 23 14.7614 23 12H21ZM18 15C16.3431 15 15 13.6569 15 12H13C13 14.7614 15.2386 17 18 17V15ZM15 12C15 10.3431 16.3431 9 18 9V7C15.2386 7 13 9.23858 13 12H15ZM18 9C19.6569 9 21 10.3431 21 12H23C23 9.23858 20.7614 7 18 7V9ZM15 16V20.191H17V16H15ZM17.1708 21.5326L18.2236 21.0062L17.3292 19.2174L16.2764 19.7438L17.1708 21.5326ZM17.7764 21.0062L18.8292 21.5326L19.7236 19.7438L18.6708 19.2174L17.7764 21.0062ZM21 20.191V16H19V20.191H21ZM18.8292 21.5326C19.8265 22.0313 21 21.3061 21 20.191H19C19 19.8193 19.3912 19.5775 19.7236 19.7438L18.8292 21.5326ZM18.2236 21.0062C18.0828 21.0766 17.9172 21.0766 17.7764 21.0062L18.6708 19.2174C18.2485 19.0062 17.7515 19.0062 17.3292 19.2174L18.2236 21.0062ZM15 20.191C15 21.3061 16.1735 22.0313 17.1708 21.5326L16.2764 19.7438C16.6088 19.5775 17 19.8193 17 20.191H15ZM6 10H11V8H6V10ZM6 13H8V11H6V13Z" fill="black"/>
</svg>
