<svg viewBox="0 0 24 24" fill="none" xmlns="http://www.w3.org/2000/svg">
  <path d="M1.23979 18.74L2.13928 18.3031L2.13928 18.303L1.23979 18.74ZM2.20122 19.7485L2.67259 18.8665L2.67259 18.8665L2.20122 19.7485ZM22.7602 18.74L21.8607 18.303L21.8607 18.3031L22.7602 18.74ZM21.7988 19.7485L22.2701 20.6304L22.2701 20.6304L21.7988 19.7485ZM21.7988 5.25152L22.2701 4.36959L22.2701 4.36959L21.7988 5.25152ZM22.7602 6.26002L21.8607 6.69695L21.8607 6.69695L22.7602 6.26002ZM2.20122 5.25152L1.72985 4.36959L1.72985 4.36959L2.20122 5.25152ZM1.23979 6.26002L0.340289 5.82309L0.340289 5.82309L1.23979 6.26002ZM13.2276 7C13.2276 6.44772 12.7799 6 12.2276 6C11.6753 6 11.2276 6.44772 11.2276 7H13.2276ZM11.2276 18C11.2276 18.5523 11.6753 19 12.2276 19C12.7799 19 13.2276 18.5523 13.2276 18H11.2276ZM14.077 9.47885C14.3415 9.9637 14.9489 10.1424 15.4337 9.8779C15.9186 9.61343 16.0972 9.006 15.8328 8.52115L14.077 9.47885ZM10.0913 9L10.8095 9.69579L10.8095 9.69579L10.0913 9ZM10.0913 11.5L10.767 10.7628L10.767 10.7628L10.0913 11.5ZM13.8636 13L14.1559 12.0436L14.1218 12.0332L14.087 12.0253L13.8636 13ZM13.3182 17L13.0948 16.0253L13.0601 16.0332L13.026 16.0436L13.3182 17ZM9.91665 15.5909C9.41459 15.3608 8.82105 15.5813 8.59094 16.0833C8.36082 16.5854 8.58128 17.179 9.08335 17.4091L9.91665 15.5909ZM4.52 6H19.48V4H4.52V6ZM22 8.69231V16.3077H24V8.69231H22ZM2 16.3077V8.69231H0V16.3077H2ZM0 16.3077C0 16.9382 -0.000707266 17.4684 0.0329929 17.901C0.0674989 18.344 0.142599 18.7699 0.340289 19.1769L2.13928 18.303C2.09719 18.2164 2.05239 18.0723 2.02695 17.7457C2.00071 17.4088 2 16.9696 2 16.3077H0ZM4.52 19C3.88664 19 3.47469 18.9991 3.16043 18.9722C2.85933 18.9464 2.7393 18.9022 2.67259 18.8665L1.72985 20.6304C2.13374 20.8463 2.55705 20.9278 2.98965 20.9649C3.4091 21.0009 3.92124 21 4.52 21V19ZM0.340289 19.1769C0.640589 19.7951 1.12422 20.3067 1.72985 20.6304L2.67259 18.8665C2.45031 18.7477 2.26082 18.5533 2.13928 18.3031L0.340289 19.1769ZM22 16.3077C22 16.9696 21.9993 17.4088 21.973 17.7457C21.9476 18.0723 21.9028 18.2164 21.8607 18.303L23.6597 19.1769C23.8574 18.7699 23.9325 18.344 23.967 17.901C24.0007 17.4684 24 16.9382 24 16.3077H22ZM19.48 21C20.0788 21 20.5909 21.0009 21.0103 20.9649C21.443 20.9278 21.8663 20.8463 22.2701 20.6304L21.3274 18.8665C21.2607 18.9022 21.1407 18.9464 20.8396 18.9722C20.5253 18.9991 20.1134 19 19.48 19V21ZM21.8607 18.3031C21.7392 18.5533 21.5497 18.7477 21.3274 18.8665L22.2701 20.6304C22.8758 20.3067 23.3594 19.7951 23.6597 19.1769L21.8607 18.3031ZM19.48 6C20.1134 6 20.5253 6.00086 20.8396 6.02779C21.1407 6.05359 21.2607 6.0978 21.3274 6.13346L22.2701 4.36959C21.8663 4.15372 21.443 4.07217 21.0103 4.03509C20.5909 3.99914 20.0788 4 19.48 4V6ZM24 8.69231C24 8.06183 24.0007 7.53163 23.967 7.09896C23.9325 6.65596 23.8574 6.23008 23.6597 5.82309L21.8607 6.69695C21.9028 6.78361 21.9476 6.92766 21.973 7.25428C21.9993 7.59124 22 8.03036 22 8.69231H24ZM21.3274 6.13346C21.5497 6.25226 21.7392 6.44673 21.8607 6.69695L23.6597 5.8231C23.3594 5.20487 22.8758 4.69328 22.2701 4.36959L21.3274 6.13346ZM4.52 4C3.92124 4 3.4091 3.99914 2.98965 4.03509C2.55705 4.07217 2.13374 4.15372 1.72985 4.36959L2.67259 6.13346C2.7393 6.0978 2.85933 6.05359 3.16043 6.02779C3.47469 6.00086 3.88664 6 4.52 6V4ZM2 8.69231C2 8.03035 2.00071 7.59124 2.02695 7.25428C2.05239 6.92766 2.09719 6.78361 2.13928 6.69695L0.340289 5.82309C0.142599 6.23008 0.0674989 6.65596 0.0329929 7.09896C-0.000707266 7.53163 0 8.06183 0 8.69231H2ZM1.72985 4.36959C1.12422 4.69328 0.640589 5.20487 0.340289 5.82309L2.13928 6.69695C2.26082 6.44673 2.45031 6.25226 2.67259 6.13346L1.72985 4.36959ZM19.48 19H4.52V21H19.48V19ZM11.2276 7V8.02129H13.2276V7H11.2276ZM11.2276 8.02129V12.5528H13.2276V8.02129H11.2276ZM11.2276 12.5528V17.1263H13.2276V12.5528H11.2276ZM11.2276 17.1263V18H13.2276V17.1263H11.2276ZM15.8328 8.52115C15.4684 7.85304 14.4324 7 12.7731 7V9C13.7319 9 14.0778 9.4803 14.077 9.47885L15.8328 8.52115ZM12.7731 7C12.5547 7 12.3454 7.00791 12.1441 7.02478L12.3111 9.0178C12.4496 9.00619 12.6027 9 12.7731 9V7ZM12.1441 7.02478C10.9288 7.12663 10.1023 7.55143 9.37301 8.30421L10.8095 9.69579C11.2021 9.29048 11.5776 9.07927 12.3111 9.0178L12.1441 7.02478ZM9.37301 8.30421C8.91638 8.77557 8.56309 9.41559 8.51879 10.1443C8.47238 10.9078 8.77405 11.6491 9.41553 12.2372L10.767 10.7628C10.5357 10.5509 10.508 10.3822 10.5151 10.2657C10.5243 10.1144 10.6074 9.90443 10.8095 9.69579L9.37301 8.30421ZM9.41553 12.2372C10.0665 12.8339 11.1185 13.2432 11.9179 13.5036L12.5373 11.6019C11.7325 11.3398 11.0655 11.0365 10.767 10.7628L9.41553 12.2372ZM11.9179 13.5036C12.6316 13.7361 13.2968 13.896 13.6402 13.9747L14.087 12.0253C13.7674 11.952 13.1684 11.8075 12.5373 11.6019L11.9179 13.5036ZM13.5714 13.9564C13.715 14.0002 13.9797 14.1271 14.1918 14.3319C14.3883 14.5216 14.5 14.7346 14.5 15H16.5C16.5 14.0654 16.0663 13.3617 15.581 12.8931C15.1112 12.4395 14.5578 12.1665 14.1559 12.0436L13.5714 13.9564ZM14.5 15C14.5 15.1476 14.4194 15.3428 14.0953 15.5776C13.774 15.8102 13.3607 15.9643 13.0948 16.0253L13.5416 17.9747C14.0029 17.869 14.6805 17.6231 15.2683 17.1974C15.8533 16.7738 16.5 16.0524 16.5 15H14.5ZM13.026 16.0436C12.9243 16.0747 12.6484 16.1287 12.2334 16.1264L12.2219 18.1263C12.787 18.1296 13.2716 18.0599 13.6104 17.9564L13.026 16.0436ZM12.2334 16.1264C11.6351 16.1229 10.8143 16.0024 9.91665 15.5909L9.08335 17.4091C10.2671 17.9516 11.3726 18.1215 12.2219 18.1263L12.2334 16.1264Z" fill="currentColor"/>
</svg>
