<svg viewBox="0 0 24 24" fill="none" xmlns="http://www.w3.org/2000/svg">
  <path d="M6 8L10 7" stroke="currentColor" stroke-width="2" stroke-linecap="round"/>
  <path d="M18 8L14 7" stroke="currentColor" stroke-width="2" stroke-linecap="round"/>
  <path d="M7 17C7.41667 16 9 14 12 14C15 14 16.5833 16 17 17" stroke="currentColor" stroke-width="2" stroke-linecap="round"/>
  <path d="M8.31238 9.31247H8.68738M8.31238 9.68747H8.68738M9 9.5C9 9.77614 8.77614 10 8.5 10C8.22386 10 8 9.77614 8 9.5C8 9.22386 8.22386 9 8.5 9C8.77614 9 9 9.22386 9 9.5Z" stroke="currentColor" stroke-width="2" stroke-linecap="round"/>
  <path d="M15.3124 9.31247H15.6874M15.3124 9.68747H15.6874M16 9.5C16 9.77614 15.7761 10 15.5 10C15.2239 10 15 9.77614 15 9.5C15 9.22386 15.2239 9 15.5 9C15.7761 9 16 9.22386 16 9.5Z" stroke="currentColor" stroke-width="2" stroke-linecap="round"/>
  <path d="M12 23C18.0751 23 23 18.0751 23 12C23 5.92487 18.0751 1 12 1C5.92487 1 1 5.92487 1 12C1 18.0751 5.92487 23 12 23Z" stroke="currentColor" stroke-width="2" stroke-linecap="round"/>
</svg>
