<svg viewBox="0 0 24 24" fill="none" xmlns="http://www.w3.org/2000/svg">
  <path d="M8.31238 8.31247H8.68738M8.31238 8.68747H8.68738M9 8.5C9 8.77614 8.77614 9 8.5 9C8.22386 9 8 8.77614 8 8.5C8 8.22386 8.22386 8 8.5 8C8.77614 8 9 8.22386 9 8.5Z" stroke="currentColor" stroke-width="2" stroke-linecap="round"/>
  <path d="M15.3124 8.31223H15.6874M15.3124 8.68723H15.6874M16 8.49976C16 8.7759 15.7761 8.99976 15.5 8.99976C15.2239 8.99976 15 8.7759 15 8.49976C15 8.22361 15.2239 7.99976 15.5 7.99976C15.7761 7.99976 16 8.22361 16 8.49976Z" stroke="currentColor" stroke-width="2" stroke-linecap="round"/>
  <path d="M12 17C15 17 16.5833 15 17 14" stroke="currentColor" stroke-width="2" stroke-linecap="round"/>
  <path d="M12 23C18.0751 23 23 18.0751 23 12C23 5.92487 18.0751 1 12 1C5.92487 1 1 5.92487 1 12C1 18.0751 5.92487 23 12 23Z" stroke="currentColor" stroke-width="2" stroke-linecap="round"/>
</svg>
