<svg viewBox="0 0 24 24" fill="none" xmlns="http://www.w3.org/2000/svg">
<path d="M4 6L2.63246 10.1026C2.32131 11.0361 3.01608 12 4 12V12M4 6V4.6C4 4.03995 4 3.75992 4.10899 3.54601C4.20487 3.35785 4.35785 3.20487 4.54601 3.10899C4.75992 3 5.03995 3 5.6 3H18.4C18.9601 3 19.2401 3 19.454 3.10899C19.6422 3.20487 19.7951 3.35785 19.891 3.54601C20 3.75992 20 4.03995 20 4.6V6M4 6H20M20 6L21.3675 10.1026C21.6787 11.0361 20.9839 12 20 12V12M4 12V17.8C4 18.9201 4 19.4802 4.21799 19.908C4.40973 20.2843 4.71569 20.5903 5.09202 20.782C5.51984 21 6.07989 21 7.2 21H12M4 12H12H20M20 12V17.8C20 18.9201 20 19.4802 19.782 19.908C19.5903 20.2843 19.2843 20.5903 18.908 20.782C18.4802 21 17.9201 21 16.8 21H16M16 21H12M16 21V17.6C16 17.0399 16 16.7599 15.891 16.546C15.7951 16.3578 15.6422 16.2049 15.454 16.109C15.2401 16 14.9601 16 14.4 16H13.6C13.0399 16 12.7599 16 12.546 16.109C12.3578 16.2049 12.2049 16.3578 12.109 16.546C12 16.7599 12 17.0399 12 17.6V21M8 16V16.01" stroke="currentColor" stroke-width="2" stroke-linecap="round"/>
</svg>
