<svg viewBox="0 0 24 24" fill="none" xmlns="http://www.w3.org/2000/svg">
<path d="M3 21H4M21 21H20M4 21V6.2C4 5.07989 4 4.51984 4.21799 4.09202C4.40973 3.71569 4.71569 3.40973 5.09202 3.21799C5.51984 3 6.07989 3 7.2 3H10.8C11.9201 3 12.4802 3 12.908 3.21799C13.2843 3.40973 13.5903 3.71569 13.782 4.09202C14 4.51984 14 5.0799 14 6.2V9M4 21H10M14 9H18.4C18.9601 9 19.2401 9 19.454 9.10899C19.6422 9.20487 19.7951 9.35785 19.891 9.54601C20 9.75992 20 10.0399 20 10.6V21M14 9H11.6C11.0399 9 10.7599 9 10.546 9.10899C10.3578 9.20487 10.2049 9.35785 10.109 9.54601C10 9.75992 10 10.0399 10 10.6V21M20 21H14H10M10.5 6V6.01M7.5 6V6.01" stroke="currentColor" stroke-width="2" stroke-linecap="round"/>
<path d="M16.5 12V12.01M13.5 12V12.01" stroke="currentColor" stroke-width="2" stroke-linecap="round"/>
<path d="M16.5 15V15.01M13.5 15V15.01" stroke="currentColor" stroke-width="2" stroke-linecap="round"/>
<path d="M16.5 18V18.01M13.5 18V18.01" stroke="currentColor" stroke-width="2" stroke-linecap="round"/>
</svg>
