<svg viewBox="0 0 24 24" fill="none" xmlns="http://www.w3.org/2000/svg">
<path d="M4 9V9C3.04205 9 2.38701 8.03248 2.74278 7.14305L3.37139 5.57152C3.49211 5.26972 3.55247 5.11882 3.62774 4.99015C3.93333 4.46774 4.45905 4.11181 5.05759 4.0221C5.205 4 5.36753 4 5.69258 4H18.3074C18.6325 4 18.795 4 18.9424 4.0221C19.541 4.11181 20.0667 4.46774 20.3723 4.99015C20.4475 5.11882 20.5079 5.26972 20.6286 5.57152L21.2572 7.14305C21.613 8.03248 20.958 9 20 9V9M4 9V18.4C4 18.9601 4 19.2401 4.10899 19.454C4.20487 19.6422 4.35785 19.7951 4.54601 19.891C4.75992 20 5.03995 20 5.6 20H10.4C10.9601 20 11.2401 20 11.454 19.891C11.6422 19.7951 11.7951 19.6422 11.891 19.454C12 19.2401 12 18.9601 12 18.4V16M4 9H12M12 9H20M12 9V16M20 9V16M20 20V16M12 16H20" stroke="currentColor" stroke-width="2" stroke-linecap="round"/>
</svg>
