<svg width="24" height="24" viewBox="0 0 24 24" fill="none" xmlns="http://www.w3.org/2000/svg">
<path d="M12 2V22M22 12L2 12M9.27273 22H14.7273C17.273 22 18.5458 22 19.5181 21.5046C20.3734 21.0688 21.0688 20.3734 21.5046 19.5181C22 18.5458 22 17.273 22 14.7273V9.27273C22 6.72703 22 5.45419 21.5046 4.48186C21.0688 3.62658 20.3734 2.93121 19.5181 2.49542C18.5458 2 17.273 2 14.7273 2H9.27273C6.72703 2 5.45419 2 4.48186 2.49542C3.62658 2.93121 2.93121 3.62658 2.49542 4.48186C2 5.45419 2 6.72703 2 9.27273V14.7273C2 17.273 2 18.5458 2.49542 19.5181C2.93121 20.3734 3.62658 21.0688 4.48186 21.5046C5.45419 22 6.72703 22 9.27273 22Z" stroke="black" stroke-width="2" stroke-linecap="round"/>
</svg>
