<svg viewBox="0 0 24 24" fill="none" xmlns="http://www.w3.org/2000/svg">
<g clip-path="url(#clip0_9_962)">
<path d="M9 15H15M9 23H15C17.8003 23 19.2004 23 20.27 22.455C21.2108 21.9757 21.9757 21.2108 22.455 20.27C23 19.2004 23 17.8003 23 15V9C23 6.19974 23 4.79961 22.455 3.73005C21.9757 2.78924 21.2108 2.02433 20.27 1.54497C19.2004 1 17.8003 1 15 1H9C6.19974 1 4.79961 1 3.73005 1.54497C2.78924 2.02433 2.02433 2.78924 1.54497 3.73005C1 4.79961 1 6.19974 1 9V15C1 17.8003 1 19.2004 1.54497 20.27C2.02433 21.2108 2.78924 21.9757 3.73005 22.455C4.79961 23 6.19974 23 9 23ZM8.2 19H15.8C16.9201 19 17.4802 19 17.908 18.782C18.2843 18.5903 18.5903 18.2843 18.782 17.908C19 17.4802 19 16.9201 19 15.8V14.2C19 13.0799 19 12.5198 18.782 12.092C18.5903 11.7157 18.2843 11.4097 17.908 11.218C17.4802 11 16.9201 11 15.8 11H8.2C7.07989 11 6.51984 11 6.09202 11.218C5.71569 11.4097 5.40973 11.7157 5.21799 12.092C5 12.5198 5 13.0799 5 14.2V15.8C5 16.9201 5 17.4802 5.21799 17.908C5.40973 18.2843 5.71569 18.5903 6.09202 18.782C6.51984 19 7.07989 19 8.2 19Z" stroke="currentColor" stroke-width="2" stroke-linecap="round"/>
</g>
<defs>
<clipPath id="clip0_9_962">
<rect width="24" height="24" fill="white"/>
</clipPath>
</defs>
</svg>
