<svg viewBox="0 0 24 24" fill="none" xmlns="http://www.w3.org/2000/svg">
<path d="M7.00039 20C5.34354 20 4.00039 18.6569 4.00039 17V14.5612C4.00039 13.9537 3.72421 13.3791 3.24978 12.9995L2.48843 12.3904C2.23823 12.1903 2.23823 11.8097 2.48843 11.6096L3.24978 11.0005C3.72421 10.6209 4.00039 10.0463 4.00039 9.43875V7C4.00039 5.34315 5.34354 4 7.00039 4M17.0004 20C18.6572 20 20.0004 18.6569 20.0004 17V14.5612C20.0004 13.9537 20.2766 13.3791 20.751 12.9995L21.5123 12.3904C21.7626 12.1903 21.7626 11.8097 21.5123 11.6096L20.751 11.0005C20.2766 10.6209 20.0004 10.0463 20.0004 9.43875V7C20.0004 5.34315 18.6572 4 17.0004 4M12.0004 9V12M12.0004 12V15M12.0004 12H15.0004M12.0004 12H9.00039" stroke="black" stroke-width="2" stroke-linecap="round"/>
</svg>
