<svg width="24" height="24" viewBox="0 0 24 24" fill="none" xmlns="http://www.w3.org/2000/svg">
<path d="M5.09202 21.782L5.54601 20.891L5.09202 21.782ZM4.21799 20.908L5.10899 20.454L4.21799 20.908ZM19.782 20.908L18.891 20.454L19.782 20.908ZM18.908 21.782L18.454 20.891L18.908 21.782ZM18.908 2.21799L18.454 3.10899L18.908 2.21799ZM19.782 3.09202L18.891 3.54601L19.782 3.09202ZM5.09202 2.21799L5.54601 3.10899L5.09202 2.21799ZM4.21799 3.09202L5.10899 3.54601L4.21799 3.09202ZM13 6.5C13 5.94772 12.5523 5.5 12 5.5C11.4477 5.5 11 5.94772 11 6.5H13ZM11 21.5C11 22.0523 11.4477 22.5 12 22.5C12.5523 22.5 13 22.0523 13 21.5H11ZM17 8C17 7.44772 16.5523 7 16 7C15.4477 7 15 7.44772 15 8H17ZM15 12C15 12.5523 15.4477 13 16 13C16.5523 13 17 12.5523 17 12H15ZM7.2 3H16.8V1H7.2V3ZM19 5.2V18.8H21V5.2H19ZM16.8 21H7.2V23H16.8V21ZM5 18.8V5.2H3V18.8H5ZM7.2 21C6.62345 21 6.25117 20.9992 5.96784 20.9761C5.69617 20.9539 5.59545 20.9162 5.54601 20.891L4.63803 22.673C5.01641 22.8658 5.40963 22.9371 5.80497 22.9694C6.18864 23.0008 6.65645 23 7.2 23V21ZM3 18.8C3 19.3436 2.99922 19.8114 3.03057 20.195C3.06287 20.5904 3.13419 20.9836 3.32698 21.362L5.10899 20.454C5.0838 20.4045 5.04612 20.3038 5.02393 20.0322C5.00078 19.7488 5 19.3766 5 18.8H3ZM5.54601 20.891C5.35785 20.7951 5.20487 20.6422 5.10899 20.454L3.32698 21.362C3.6146 21.9265 4.07354 22.3854 4.63803 22.673L5.54601 20.891ZM19 18.8C19 19.3766 18.9992 19.7488 18.9761 20.0322C18.9539 20.3038 18.9162 20.4045 18.891 20.454L20.673 21.362C20.8658 20.9836 20.9371 20.5904 20.9694 20.195C21.0008 19.8114 21 19.3436 21 18.8H19ZM16.8 23C17.3436 23 17.8114 23.0008 18.195 22.9694C18.5904 22.9371 18.9836 22.8658 19.362 22.673L18.454 20.891C18.4045 20.9162 18.3038 20.9539 18.0322 20.9761C17.7488 20.9992 17.3766 21 16.8 21V23ZM18.891 20.454C18.7951 20.6422 18.6422 20.7951 18.454 20.891L19.362 22.673C19.9265 22.3854 20.3854 21.9265 20.673 21.362L18.891 20.454ZM16.8 3C17.3766 3 17.7488 3.00078 18.0322 3.02393C18.3038 3.04612 18.4045 3.0838 18.454 3.10899L19.362 1.32698C18.9836 1.13419 18.5904 1.06287 18.195 1.03057C17.8114 0.999222 17.3436 1 16.8 1V3ZM21 5.2C21 4.65645 21.0008 4.18864 20.9694 3.80497C20.9371 3.40963 20.8658 3.01641 20.673 2.63803L18.891 3.54601C18.9162 3.59545 18.9539 3.69617 18.9761 3.96784C18.9992 4.25117 19 4.62345 19 5.2H21ZM18.454 3.10899C18.6422 3.20487 18.7951 3.35785 18.891 3.54601L20.673 2.63803C20.3854 2.07354 19.9265 1.6146 19.362 1.32698L18.454 3.10899ZM7.2 1C6.65645 1 6.18864 0.999222 5.80497 1.03057C5.40963 1.06287 5.01641 1.13419 4.63803 1.32698L5.54601 3.10899C5.59545 3.0838 5.69617 3.04612 5.96784 3.02393C6.25117 3.00078 6.62345 3 7.2 3V1ZM5 5.2C5 4.62345 5.00078 4.25117 5.02393 3.96784C5.04612 3.69617 5.0838 3.59545 5.10899 3.54601L3.32698 2.63803C3.13419 3.01641 3.06287 3.40963 3.03057 3.80497C2.99922 4.18864 3 4.65645 3 5.2H5ZM4.63803 1.32698C4.07354 1.6146 3.6146 2.07354 3.32698 2.63803L5.10899 3.54601C5.20487 3.35785 5.35785 3.20487 5.54601 3.10899L4.63803 1.32698ZM15 2C15 3.65685 13.6569 5 12 5V7C14.7614 7 17 4.76142 17 2H15ZM12 5C10.3431 5 9 3.65685 9 2H7C7 4.76142 9.23858 7 12 7V5ZM11 6.5V21.5H13V6.5H11ZM15 8V12H17V8H15Z" fill="black"/>
</svg>
