<svg width="400" height="400" viewBox="0 0 400 400" fill="none" xmlns="http://www.w3.org/2000/svg">
  <path fill-rule="evenodd" clip-rule="evenodd" d="M207.849 320.768C207.193 321.011 206.526 321.223 205.851 321.403C201.238 322.637 196.268 322.405 191.849 320.707L191.849 234.448V320.746C191.849 320.746 195.17 322.253 199.849 322.253C204.527 322.253 207.849 320.771 207.849 320.771V320.768Z" fill="#f5f5f5"/>
  <path d="M78.227 214.528L184.865 316.243C186.884 318.229 189.273 319.717 191.849 320.707L191.849 234.448C184.324 228.509 173.946 224.714 159.935 222.982H159.849C149.384 221.497 141.514 218.857 135.892 214.815C128.454 209.618 124.735 202.111 124.735 192.541V187.344C119.632 185.694 116 181.075 116 175.713C116 169.031 121.795 163.503 128.8 163.503C135.805 163.503 141.6 169.031 141.6 175.713C141.6 181.157 137.968 185.694 132.865 187.344V192.541C132.865 205.658 141.514 212.67 160.973 215.475C173.6 216.96 183.719 220.177 191.762 225.044V195.447C188.389 193.22 183.978 191.982 178.184 191.157C166.162 189.507 160.108 184.145 160.108 175.318V165.997C154.486 164.677 150.162 159.892 150.162 154.035C150.162 147.353 155.957 141.908 162.962 141.908C169.968 141.908 175.762 147.435 175.762 154.117C175.762 159.975 171.438 164.842 165.816 166.079V175.401C165.816 179.443 167.286 184.228 178.962 185.878C183.978 186.455 188.216 187.61 191.762 189.26V160.213C187.092 157.656 183.978 152.871 183.978 147.344C183.978 139.012 191.07 132.33 199.719 132.33C208.454 132.33 215.459 139.094 215.459 147.344C215.459 152.788 212.346 157.573 207.676 160.213V205.246C211.568 202.936 216.497 201.451 222.551 200.791C231.892 199.389 235.87 196.254 235.87 190.149V176.95C230.162 175.795 225.751 170.846 225.751 164.989C225.751 158.142 231.546 152.615 238.551 152.615C245.557 152.615 251.351 158.142 251.351 164.906C251.351 170.681 247.114 175.465 241.578 176.785V190.067C241.578 198.894 235.438 204.338 223.416 206.071H223.33C216.324 206.896 211.222 208.793 207.589 211.845V217.867L207.503 219.526V247.639C214.422 243.267 223.157 240.215 233.535 238.4L239.849 237.492C258.876 234.605 267.351 227.511 267.351 214.641V191.956C262.076 190.388 258.357 185.604 258.357 180.241C258.357 173.559 264.151 168.032 271.157 168.032C274.616 168.032 277.816 169.352 280.238 171.662C282.573 174.054 283.87 177.107 283.87 180.324C283.87 185.686 280.324 190.223 275.654 191.956V214.724C275.654 224.293 271.935 231.8 264.497 236.997C259.049 240.875 251.524 243.514 241.665 245.082L235.697 245.907C223.589 247.887 214.422 251.599 207.676 257.291V273.312L207.849 279.912V320.768C210.517 319.778 213.01 318.27 215.135 316.243L321.773 214.528C330.076 206.608 330.076 193.574 321.773 185.655L215.135 83.9396C206.832 76.0201 193.168 76.0201 184.865 83.9396L78.227 185.655C69.9243 193.574 69.9243 206.608 78.227 214.528Z" fill="#f5f5f5"/>
  <path d="M199.546 157.656C193.492 157.656 188.562 152.953 188.562 147.179C188.562 141.322 193.492 136.62 199.546 136.62C205.6 136.62 210.53 141.322 210.53 147.096C210.53 152.871 205.6 157.656 199.546 157.656Z" fill="#f5f5f5"/>
  <path d="M162.789 161.707C158.378 161.707 154.746 158.242 154.746 154.035C154.746 149.745 158.378 146.363 162.789 146.363C167.2 146.363 170.832 149.828 170.832 154.035C170.832 158.242 167.114 161.707 162.789 161.707Z" fill="#f5f5f5"/>
  <path d="M128.627 183.219C124.216 183.219 120.584 179.837 120.584 175.548C120.584 171.258 124.216 167.876 128.627 167.876C133.038 167.876 136.67 171.34 136.67 175.548C136.67 179.755 132.951 183.219 128.627 183.219Z" fill="#f5f5f5"/>
  <path d="M230.335 164.989C230.335 160.699 233.968 157.234 238.378 157.234C242.876 157.234 246.422 160.699 246.422 164.989C246.422 169.278 242.789 172.661 238.378 172.661C234.054 172.661 230.335 169.113 230.335 164.989Z" fill="#f5f5f5"/>
  <path d="M271.157 187.996C266.659 187.996 263.114 184.531 263.114 180.324C263.114 176.117 266.746 172.652 271.157 172.652C273.319 172.652 275.395 173.477 276.951 174.879C278.508 176.364 279.2 178.262 279.2 180.241C279.2 184.531 275.568 187.996 271.157 187.996Z" fill="#f5f5f5"/>
</svg>
