<svg viewBox="0 0 24 24" fill="none" xmlns="http://www.w3.org/2000/svg">
<path d="M8.99984 6.99996V17M6.99984 6.99996H13.4998C14.8805 6.99996 15.9998 8.11925 15.9998 9.49996C15.9998 10.8807 14.8805 12 13.4998 12H8.99984H14.4998C15.8805 12 16.9998 13.1192 16.9998 14.5C16.9998 15.8807 15.8805 17 14.4998 17H6.99984M12 7V5M12 19V17M23 12C23 18.0751 18.0751 23 12 23C5.92487 23 1 18.0751 1 12C1 5.92487 5.92487 1 12 1C18.0751 1 23 5.92487 23 12Z" stroke="currentColor" stroke-width="2" stroke-linecap="round"/>
</svg>
