<svg viewBox="0 0 24 24" fill="none" xmlns="http://www.w3.org/2000/svg">
<path d="M4 14H3H4ZM7 22C7 22.5523 7.44772 23 8 23C8.55228 23 9 22.5523 9 22H7ZM9 19C9 18.4477 8.55228 18 8 18C7.44772 18 7 18.4477 7 19H9ZM11 22C11 22.5523 11.4477 23 12 23C12.5523 23 13 22.5523 13 22H11ZM13 19C13 18.4477 12.5523 18 12 18C11.4477 18 11 18.4477 11 19H13ZM15 22C15 22.5523 15.4477 23 16 23C16.5523 23 17 22.5523 17 22H15ZM17 19C17 18.4477 16.5523 18 16 18C15.4477 18 15 18.4477 15 19H17ZM11 9C11 9.55228 11.4477 10 12 10C12.5523 10 13 9.55228 13 9H11ZM13 2C13 1.44772 12.5523 1 12 1C11.4477 1 11 1.44772 11 2H13ZM6 10H18V8H6V10ZM19 11V14H21V11H19ZM20 13H4V15H20V13ZM5 14V11H3V14H5ZM19 14V20H21V14H19ZM18 21H6V23H18V21ZM5 20V14H3V20H5ZM9 22V19H7V22H9ZM13 22V19H11V22H13ZM17 22V19H15V22H17ZM13 9V2H11V9H13ZM19 20C19 20.5523 18.5523 21 18 21V23C19.6569 23 21 21.6569 21 20H19ZM6 21C5.44772 21 5 20.5523 5 20H3C3 21.6569 4.34315 23 6 23V21ZM6 8C4.34315 8 3 9.34315 3 11H5C5 10.4477 5.44772 10 6 10V8ZM18 10C18.5523 10 19 10.4477 19 11H21C21 9.34315 19.6569 8 18 8V10Z" fill="black"/>
</svg>
