<svg width="24" height="24" viewBox="0 0 24 24" fill="none" xmlns="http://www.w3.org/2000/svg">
<path d="M19.0604 7.05684L19.8079 7.72121L19.8079 7.72121L19.0604 7.05684ZM11.2526 14.3355C10.8857 14.7483 10.9229 15.3803 11.3356 15.7473C11.7484 16.1142 12.3805 16.077 12.7474 15.6642L11.2526 14.3355ZM16.943 4.9394L16.2786 4.19199V4.19199L16.943 4.9394ZM8.33564 11.2524C7.92285 11.6194 7.88567 12.2514 8.25259 12.6642C8.61951 13.077 9.25158 13.1142 9.66436 12.7473L8.33564 11.2524ZM19 4.99985L18.2929 5.70695L19 4.99985ZM5 18.9998L4.11008 18.5437C3.95119 18.8537 3.96507 19.2241 4.14673 19.5213C4.32839 19.8186 4.65164 19.9998 5 19.9998V18.9998ZM18.313 6.39248L11.2526 14.3355L12.7474 15.6642L19.8079 7.72121L18.313 6.39248ZM16.2786 4.19199L8.33564 11.2524L9.66436 12.7473L17.6074 5.68681L16.2786 4.19199ZM19.7071 4.29274C18.7712 3.35681 17.2679 3.31263 16.2786 4.19199L17.6074 5.68681C17.8052 5.51098 18.1058 5.51981 18.2929 5.70695L19.7071 4.29274ZM19.8079 7.72121C20.6872 6.73193 20.643 5.22867 19.7071 4.29274L18.2929 5.70695C18.48 5.89409 18.4889 6.19467 18.313 6.39248L19.8079 7.72121ZM10.2677 17.2676C9.84106 17.6943 9.14668 17.9233 8.14549 18.003C7.11908 18.0847 6.11142 17.9998 5 17.9998V19.9998C5.88858 19.9998 7.18492 20.0858 8.30423 19.9967C9.44876 19.9056 10.7418 19.622 11.682 18.6818L10.2677 17.2676ZM5.88992 19.456C6.54769 18.1726 6.42274 16.718 6.38361 15.7352C6.33758 14.5791 6.40547 14.0588 6.73221 13.7321L5.31799 12.3179C4.2779 13.358 4.34579 14.8251 4.38519 15.8148C4.43149 16.9777 4.47741 17.8271 4.11008 18.5437L5.88992 19.456ZM6.73221 13.7321C7.70852 12.7558 9.29143 12.7558 10.2677 13.7321L11.682 12.3179C9.92459 10.5605 7.07535 10.5605 5.31799 12.3179L6.73221 13.7321ZM10.2677 13.7321C11.2441 14.7084 11.2441 16.2913 10.2677 17.2676L11.682 18.6818C13.4393 16.9245 13.4393 14.0752 11.682 12.3179L10.2677 13.7321Z" fill="black"/>
</svg>
