<svg viewBox="0 0 24 24" fill="none" xmlns="http://www.w3.org/2000/svg">
<path d="M6.18404 16.564L6.63803 15.673L6.18404 16.564ZM4.43597 14.816L5.32698 14.362L4.43597 14.816ZM19.564 14.816L18.673 14.362L19.564 14.816ZM17.816 16.564L17.362 15.673L17.816 16.564ZM18.908 2.21799L18.454 3.10899L18.908 2.21799ZM19.782 3.09202L18.891 3.54601L19.782 3.09202ZM5.09202 2.21799L5.54601 3.10899L5.09202 2.21799ZM4.21799 3.09202L5.10899 3.54601L4.21799 3.09202ZM11 22C11 22.5523 11.4477 23 12 23C12.5523 23 13 22.5523 13 22H11ZM13 17C13 16.4477 12.5523 16 12 16C11.4477 16 11 16.4477 11 17H13ZM4 11C3.44772 11 3 11.4477 3 12C3 12.5523 3.44772 13 4 13V11ZM20 13C20.5523 13 21 12.5523 21 12C21 11.4477 20.5523 11 20 11V13ZM7.2 3H16.8V1H7.2V3ZM19 5.2V10.6H21V5.2H19ZM13.6 16H10.4V18H13.6V16ZM5 10.6V5.2H3V10.6H5ZM10.4 16C9.26339 16 8.47108 15.9992 7.85424 15.9488C7.24907 15.8994 6.90138 15.8072 6.63803 15.673L5.73005 17.455C6.32234 17.7568 6.96253 17.8826 7.69138 17.9422C8.40855 18.0008 9.2964 18 10.4 18V16ZM3 10.6C3 11.7036 2.99922 12.5914 3.05782 13.3086C3.11737 14.0375 3.24318 14.6777 3.54497 15.27L5.32698 14.362C5.19279 14.0986 5.10062 13.7509 5.05118 13.1458C5.00078 12.5289 5 11.7366 5 10.6H3ZM6.63803 15.673C6.07354 15.3854 5.6146 14.9265 5.32698 14.362L3.54497 15.27C4.02433 16.2108 4.78924 16.9757 5.73005 17.455L6.63803 15.673ZM19 10.6C19 11.7366 18.9992 12.5289 18.9488 13.1458C18.8994 13.7509 18.8072 14.0986 18.673 14.362L20.455 15.27C20.7568 14.6777 20.8826 14.0375 20.9422 13.3086C21.0008 12.5914 21 11.7036 21 10.6H19ZM13.6 18C14.7036 18 15.5914 18.0008 16.3086 17.9422C17.0375 17.8826 17.6777 17.7568 18.27 17.455L17.362 15.673C17.0986 15.8072 16.7509 15.8994 16.1458 15.9488C15.5289 15.9992 14.7366 16 13.6 16V18ZM18.673 14.362C18.3854 14.9265 17.9265 15.3854 17.362 15.673L18.27 17.455C19.2108 16.9757 19.9757 16.2108 20.455 15.27L18.673 14.362ZM16.8 3C17.3766 3 17.7488 3.00078 18.0322 3.02393C18.3038 3.04612 18.4045 3.0838 18.454 3.10899L19.362 1.32698C18.9836 1.13419 18.5904 1.06287 18.195 1.03057C17.8114 0.999222 17.3436 1 16.8 1V3ZM21 5.2C21 4.65645 21.0008 4.18864 20.9694 3.80497C20.9371 3.40963 20.8658 3.01641 20.673 2.63803L18.891 3.54601C18.9162 3.59545 18.9539 3.69617 18.9761 3.96784C18.9992 4.25117 19 4.62345 19 5.2H21ZM18.454 3.10899C18.6422 3.20487 18.7951 3.35785 18.891 3.54601L20.673 2.63803C20.3854 2.07354 19.9265 1.6146 19.362 1.32698L18.454 3.10899ZM7.2 1C6.65645 1 6.18864 0.999222 5.80497 1.03057C5.40963 1.06287 5.01641 1.13419 4.63803 1.32698L5.54601 3.10899C5.59545 3.0838 5.69617 3.04612 5.96784 3.02393C6.25117 3.00078 6.62345 3 7.2 3V1ZM5 5.2C5 4.62345 5.00078 4.25117 5.02393 3.96784C5.04612 3.69617 5.0838 3.59545 5.10899 3.54601L3.32698 2.63803C3.13419 3.01641 3.06287 3.40963 3.03057 3.80497C2.99922 4.18864 3 4.65645 3 5.2H5ZM4.63803 1.32698C4.07354 1.6146 3.6146 2.07354 3.32698 2.63803L5.10899 3.54601C5.20487 3.35785 5.35785 3.20487 5.54601 3.10899L4.63803 1.32698ZM13 22V17H11V22H13ZM4 13H20V11H4V13Z" fill="currentColor"/>
</svg>
