<svg width="24" height="24" viewBox="0 0 24 24" fill="none" xmlns="http://www.w3.org/2000/svg">
  <path d="M13 13C13 12.4477 12.5523 12 12 12C11.4477 12 11 12.4477 11 13H13ZM11 21C11 21.5523 11.4477 22 12 22C12.5523 22 13 21.5523 13 21H11ZM8.29289 14.2929C7.90237 14.6834 7.90237 15.3166 8.29289 15.7071C8.68342 16.0976 9.31658 16.0976 9.70711 15.7071L8.29289 14.2929ZM13.1314 13.1314L13.8385 12.4243L13.8385 12.4243L13.1314 13.1314ZM14.2929 15.7071C14.6834 16.0976 15.3166 16.0976 15.7071 15.7071C16.0976 15.3166 16.0976 14.6834 15.7071 14.2929L14.2929 15.7071ZM11.691 12.4632L12 13.4142L11.691 12.4632ZM12.309 12.4632L12 13.4142L12.309 12.4632ZM17.9936 7.09873L18.1913 6.11845L17.9936 7.09873ZM7.09873 6.00638L6.11845 5.80874L6.11845 5.80874L7.09873 6.00638ZM16.9013 6.00638L15.921 6.20403V6.20403L16.9013 6.00638ZM6.00638 7.09873L5.80874 6.11845L5.80874 6.11845L6.00638 7.09873ZM18.5996 15.6676C18.0935 15.8887 17.8625 16.4782 18.0836 16.9843C18.3048 17.4904 18.8943 17.7214 19.4004 17.5003L18.5996 15.6676ZM4.59963 17.5003C5.10572 17.7214 5.69523 17.4904 5.91635 16.9843C6.13747 16.4782 5.90646 15.8887 5.40037 15.6676L4.59963 17.5003ZM11 13L11 21H13L13 13H11ZM9.70711 15.7071L11.5757 13.8385L10.1615 12.4243L8.29289 14.2929L9.70711 15.7071ZM12.4243 13.8385L14.2929 15.7071L15.7071 14.2929L13.8385 12.4243L12.4243 13.8385ZM11.5757 13.8385C11.7854 13.6288 11.9007 13.5146 11.9899 13.4389C12.0701 13.3708 12.0614 13.3943 12 13.4142L11.382 11.5121C11.0922 11.6062 10.8704 11.7658 10.6955 11.9142C10.5296 12.0551 10.3479 12.2379 10.1615 12.4243L11.5757 13.8385ZM13.8385 12.4243C13.6521 12.2379 13.4704 12.0551 13.3045 11.9142C13.1296 11.7658 12.9078 11.6062 12.618 11.5121L12 13.4142C11.9386 13.3943 11.9299 13.3708 12.0101 13.4389C12.0993 13.5146 12.2146 13.6288 12.4243 13.8385L13.8385 12.4243ZM12 13.4142H12L12.618 11.5121C12.2163 11.3816 11.7837 11.3816 11.382 11.5121L12 13.4142ZM17.796 8.079C19.6239 8.44755 21 10.0642 21 12H23C23 9.09339 20.9342 6.6715 18.1913 6.11845L17.796 8.079ZM8.079 6.20403C8.44755 4.37613 10.0642 3 12 3V1C9.09339 1 6.6715 3.0658 6.11845 5.80874L8.079 6.20403ZM12 3C13.9358 3 15.5524 4.37613 15.921 6.20403L17.8815 5.80874C17.3285 3.0658 14.9066 1 12 1V3ZM3 12C3 10.0642 4.37613 8.44755 6.20403 8.079L5.80874 6.11845C3.0658 6.6715 1 9.09339 1 12H3ZM21 12C21 13.6387 20.0144 15.0494 18.5996 15.6676L19.4004 17.5003C21.5174 16.5754 23 14.4619 23 12H21ZM5.40037 15.6676C3.98556 15.0494 3 13.6387 3 12H1C1 14.4619 2.48263 16.5754 4.59963 17.5003L5.40037 15.6676ZM6.11845 5.80874C6.08886 5.9555 5.9555 6.08886 5.80874 6.11845L6.20403 8.079C7.14005 7.89028 7.89028 7.14004 8.079 6.20403L6.11845 5.80874ZM18.1913 6.11845C18.0445 6.08886 17.9111 5.9555 17.8815 5.80874L15.921 6.20403C16.1097 7.14005 16.86 7.89028 17.796 8.079L18.1913 6.11845Z" fill="currentColor"/>
</svg>
