<svg width="24" height="24" viewBox="0 0 24 24" fill="none" xmlns="http://www.w3.org/2000/svg">
<path d="M5.01149 16.9641L5.96017 17.2803H5.96017L5.01149 16.9641ZM5.76068 14.7165L4.81199 14.4003H4.81199L5.76068 14.7165ZM6.53372 13.4657L7.24083 14.1728L7.24083 14.1728L6.53372 13.4657ZM14.8682 5.13122L14.1611 4.42411L14.1611 4.42411L14.8682 5.13122ZM17.1309 5.13122L16.4238 5.83833L16.4238 5.83833L17.1309 5.13122ZM18.8682 6.86848L19.5753 6.16137V6.16137L18.8682 6.86848ZM10.5337 17.4657L9.82662 16.7586L9.82661 16.7586L10.5337 17.4657ZM9.28291 18.2387L9.59914 19.1874H9.59914L9.28291 18.2387ZM7.03535 18.9879L7.35158 19.9366L7.35158 19.9366L7.03535 18.9879ZM10.1237 17.8484L9.52144 17.0501L9.52144 17.0501L10.1237 17.8484ZM9.80861 18.0431L9.3639 17.1475L9.80861 18.0431ZM19.5364 7.69083L20.4875 7.38181L20.4875 7.38181L19.5364 7.69083ZM19.5364 8.30887L20.4875 8.61789L20.4875 8.61788L19.5364 8.30887ZM15.6905 4.46301L15.3815 3.51195L15.6905 4.46301ZM16.3086 4.46301L16.6176 3.51195L16.6176 3.51195L16.3086 4.46301ZM5.95627 14.1908L6.85195 14.6355L6.85195 14.6355L5.95627 14.1908ZM6.151 13.8757L5.35268 13.2735L5.35268 13.2735L6.151 13.8757ZM4.6388 18.7546L3.69689 19.0905L4.6388 18.7546ZM5.24482 19.3606L4.90894 20.3025L4.90894 20.3025L5.24482 19.3606ZM12.7067 5.29274C12.3161 4.90222 11.683 4.90222 11.2925 5.29274C10.9019 5.68327 10.9019 6.31643 11.2925 6.70696L12.7067 5.29274ZM17.2925 12.707C17.683 13.0975 18.3161 13.0975 18.7067 12.707C19.0972 12.3164 19.0972 11.6833 18.7067 11.2927L17.2925 12.707ZM5.96017 17.2803L6.70936 15.0327L4.81199 14.4003L4.06281 16.6478L5.96017 17.2803ZM7.24083 14.1728L15.5753 5.83833L14.1611 4.42411L5.82662 12.7586L7.24083 14.1728ZM16.4238 5.83833L18.1611 7.57559L19.5753 6.16137L17.838 4.42411L16.4238 5.83833ZM18.1611 8.42411L9.82662 16.7586L11.2408 18.1728L19.5753 9.83833L18.1611 8.42411ZM8.96668 17.2901L6.71912 18.0392L7.35158 19.9366L9.59914 19.1874L8.96668 17.2901ZM9.82661 16.7586C9.60853 16.9767 9.56433 17.0177 9.52144 17.0501L10.7259 18.6467C10.9055 18.5113 11.0605 18.3531 11.2408 18.1728L9.82661 16.7586ZM9.59914 19.1874C9.84109 19.1068 10.0519 19.0388 10.2533 18.9388L9.3639 17.1475C9.31578 17.1714 9.25928 17.1925 8.96668 17.2901L9.59914 19.1874ZM9.52144 17.0501C9.47205 17.0874 9.41931 17.12 9.3639 17.1475L10.2533 18.9388C10.4195 18.8563 10.5778 18.7585 10.7259 18.6467L9.52144 17.0501ZM18.1611 7.57559C18.3708 7.78526 18.4849 7.90054 18.5606 7.98972C18.6288 8.06996 18.6053 8.06124 18.5853 7.99985L20.4875 7.38181C20.3933 7.0921 20.2338 6.87021 20.0853 6.69536C19.9445 6.52944 19.7616 6.34771 19.5753 6.16137L18.1611 7.57559ZM19.5753 9.83833C19.7616 9.65199 19.9445 9.47025 20.0853 9.30434C20.2338 9.12949 20.3933 8.9076 20.4875 8.61789L18.5853 7.99985C18.6053 7.93846 18.6288 7.92974 18.5606 8.00998C18.4849 8.09916 18.3708 8.21444 18.1611 8.42411L19.5753 9.83833ZM18.5853 7.99985V7.99985L20.4875 8.61788C20.618 8.2162 20.618 7.7835 20.4875 7.38181L18.5853 7.99985ZM15.5753 5.83833C15.785 5.62865 15.9003 5.51447 15.9894 5.43877C16.0697 5.37064 16.061 5.39412 15.9996 5.41406L15.3815 3.51195C15.0918 3.60608 14.8699 3.76566 14.6951 3.91409C14.5292 4.05494 14.3474 4.23777 14.1611 4.42411L15.5753 5.83833ZM17.838 4.42411C17.6517 4.23777 17.47 4.05494 17.3041 3.91409C17.1292 3.76565 16.9073 3.60608 16.6176 3.51195L15.9996 5.41406C15.9382 5.39412 15.9295 5.37064 16.0097 5.43877C16.0989 5.51447 16.2141 5.62865 16.4238 5.83833L17.838 4.42411ZM15.9996 5.41406H15.9996L16.6176 3.51195C16.2159 3.38143 15.7832 3.38143 15.3815 3.51195L15.9996 5.41406ZM6.70936 15.0327C6.80689 14.7401 6.82806 14.6836 6.85195 14.6355L5.06059 13.7461C4.96058 13.9475 4.89265 14.1583 4.81199 14.4003L6.70936 15.0327ZM5.82662 12.7586C5.64628 12.9389 5.48813 13.0939 5.35268 13.2735L6.94931 14.478C6.98167 14.4351 7.02274 14.3909 7.24083 14.1728L5.82662 12.7586ZM6.85195 14.6355C6.87946 14.5801 6.91205 14.5274 6.94931 14.478L5.35268 13.2735C5.24091 13.4217 5.14313 13.5799 5.06059 13.7461L6.85195 14.6355ZM4.06281 16.6478C3.90626 17.1175 3.76595 17.5352 3.68608 17.8752C3.60969 18.2002 3.53752 18.6436 3.69689 19.0905L5.5807 18.4187C5.62422 18.5407 5.57555 18.5774 5.63305 18.3327C5.68706 18.1028 5.79102 17.7877 5.96017 17.2803L4.06281 16.6478ZM6.71912 18.0392C6.21166 18.2084 5.89662 18.3124 5.66675 18.3664C5.42205 18.4239 5.45867 18.3752 5.5807 18.4187L4.90894 20.3025C5.35585 20.4619 5.79919 20.3897 6.12426 20.3133C6.46416 20.2335 6.88194 20.0932 7.35158 19.9366L6.71912 18.0392ZM3.69689 19.0905C3.89853 19.6559 4.34349 20.1009 4.90894 20.3025L5.5807 18.4187L5.5807 18.4187L3.69689 19.0905ZM11.2925 6.70696L17.2925 12.707L18.7067 11.2927L12.7067 5.29274L11.2925 6.70696Z" fill="black"/>
</svg>
