<svg width="24" height="24" viewBox="0 0 24 24" fill="none" xmlns="http://www.w3.org/2000/svg">
<path d="M3.73005 22.455L4.18404 21.564H4.18404L3.73005 22.455ZM1.54497 20.27L2.43597 19.816H2.43597L1.54497 20.27ZM22.455 20.27L21.564 19.816V19.816L22.455 20.27ZM20.27 22.455L19.816 21.564H19.816L20.27 22.455ZM20.27 1.54497L19.816 2.43597V2.43597L20.27 1.54497ZM22.455 3.73005L21.564 4.18404V4.18404L22.455 3.73005ZM3.73005 1.54497L4.18404 2.43597L3.73005 1.54497ZM1.54497 3.73005L2.43597 4.18404L1.54497 3.73005ZM9 2H15V0H9V2ZM22 9V15H24V9H22ZM15 22H9V24H15V22ZM2 15V9H0V15H2ZM9 22C7.58337 22 6.58104 21.9992 5.79744 21.9352C5.02552 21.8721 4.55435 21.7527 4.18404 21.564L3.27606 23.346C3.9753 23.7023 4.73898 23.8554 5.63458 23.9286C6.51851 24.0008 7.61637 24 9 24V22ZM0 15C0 16.3836 -0.000777721 17.4815 0.071442 18.3654C0.144616 19.261 0.297677 20.0247 0.653961 20.7239L2.43597 19.816C2.24729 19.4457 2.12787 18.9745 2.0648 18.2026C2.00078 17.419 2 16.4166 2 15H0ZM4.18404 21.564C3.43139 21.1805 2.81947 20.5686 2.43597 19.816L0.653961 20.7239C1.2292 21.8529 2.14708 22.7708 3.27606 23.346L4.18404 21.564ZM22 15C22 16.4166 21.9992 17.419 21.9352 18.2026C21.8721 18.9745 21.7527 19.4457 21.564 19.816L23.346 20.7239C23.7023 20.0247 23.8554 19.261 23.9286 18.3654C24.0008 17.4815 24 16.3836 24 15H22ZM15 24C16.3836 24 17.4815 24.0008 18.3654 23.9286C19.261 23.8554 20.0247 23.7023 20.7239 23.346L19.816 21.564C19.4457 21.7527 18.9745 21.8721 18.2026 21.9352C17.419 21.9992 16.4166 22 15 22V24ZM21.564 19.816C21.1805 20.5686 20.5686 21.1805 19.816 21.564L20.7239 23.346C21.8529 22.7708 22.7708 21.8529 23.346 20.7239L21.564 19.816ZM15 2C16.4166 2 17.419 2.00078 18.2026 2.0648C18.9745 2.12787 19.4457 2.24729 19.816 2.43597L20.7239 0.653961C20.0247 0.297677 19.261 0.144616 18.3654 0.071442C17.4815 -0.000777721 16.3836 0 15 0V2ZM24 9C24 7.61637 24.0008 6.51851 23.9286 5.63458C23.8554 4.73898 23.7023 3.9753 23.346 3.27606L21.564 4.18404C21.7527 4.55435 21.8721 5.02552 21.9352 5.79744C21.9992 6.58104 22 7.58337 22 9H24ZM19.816 2.43597C20.5686 2.81947 21.1805 3.43139 21.564 4.18404L23.346 3.27606C22.7708 2.14708 21.8529 1.2292 20.7239 0.653961L19.816 2.43597ZM9 0C7.61637 0 6.51851 -0.000777721 5.63458 0.071442C4.73898 0.144616 3.9753 0.297677 3.27606 0.653961L4.18404 2.43597C4.55435 2.24729 5.02552 2.12787 5.79744 2.0648C6.58104 2.00078 7.58337 2 9 2V0ZM2 9C2 7.58337 2.00078 6.58104 2.0648 5.79744C2.12787 5.02552 2.24729 4.55435 2.43597 4.18404L0.653961 3.27606C0.297677 3.9753 0.144616 4.73898 0.071442 5.63458C-0.000777721 6.51851 0 7.61637 0 9H2ZM3.27606 0.653961C2.14708 1.2292 1.2292 2.14708 0.653961 3.27606L2.43597 4.18404C2.81947 3.43139 3.43139 2.81947 4.18404 2.43597L3.27606 0.653961ZM9.45455 10.4545H14.5455V8.45455H9.45455V10.4545ZM13.5455 9.45455V14.5455H15.5455V9.45455H13.5455ZM14.5455 13.5455H9.45455V15.5455H14.5455V13.5455ZM10.4545 14.5455V9.45455H8.45455V14.5455H10.4545ZM14.5455 15.5455H17.7273V13.5455H14.5455V15.5455ZM15.5455 17.7273V14.5455H13.5455V17.7273H15.5455ZM15.8182 18C15.6676 18 15.5455 17.8779 15.5455 17.7273H13.5455C13.5455 18.9825 14.563 20 15.8182 20V18ZM18 15.8182C18 17.0232 17.0232 18 15.8182 18V20C18.1277 20 20 18.1277 20 15.8182H18ZM17.7273 15.5455C17.8779 15.5455 18 15.6676 18 15.8182H20C20 14.563 18.9825 13.5455 17.7273 13.5455V15.5455ZM9.45455 8.45455H6.27273V10.4545H9.45455V8.45455ZM8.45455 6.27273V9.45455H10.4545V6.27273H8.45455ZM8.18182 6C8.33244 6 8.45455 6.1221 8.45455 6.27273H10.4545C10.4545 5.01753 9.43701 4 8.18182 4V6ZM6 8.18182C6 6.97683 6.97683 6 8.18182 6V4C5.87226 4 4 5.87226 4 8.18182H6ZM6.27273 8.45455C6.1221 8.45455 6 8.33244 6 8.18182H4C4 9.43701 5.01753 10.4545 6.27273 10.4545V8.45455ZM9.45455 13.5455H6.27273V15.5455H9.45455V13.5455ZM10.4545 17.7273V14.5455H8.45455V17.7273H10.4545ZM8.18182 20C9.43701 20 10.4545 18.9825 10.4545 17.7273H8.45455C8.45455 17.8779 8.33244 18 8.18182 18V20ZM4 15.8182C4 18.1277 5.87226 20 8.18182 20V18C6.97683 18 6 17.0232 6 15.8182H4ZM6.27273 13.5455C5.01753 13.5455 4 14.563 4 15.8182H6C6 15.6676 6.12211 15.5455 6.27273 15.5455V13.5455ZM14.5455 10.4545H17.7273V8.45455H14.5455V10.4545ZM13.5455 6.27273V9.45455H15.5455V6.27273H13.5455ZM15.8182 4C14.563 4 13.5455 5.01753 13.5455 6.27273H15.5455C15.5455 6.12211 15.6676 6 15.8182 6V4ZM20 8.18182C20 5.87226 18.1277 4 15.8182 4V6C17.0232 6 18 6.97683 18 8.18182H20ZM17.7273 10.4545C18.9825 10.4545 20 9.43701 20 8.18182H18C18 8.33244 17.8779 8.45455 17.7273 8.45455V10.4545Z" fill="black"/>
</svg>
