<svg viewBox="0 0 24 24" fill="none" xmlns="http://www.w3.org/2000/svg">
<path d="M4.5 10C5.88071 10 7 8.88071 7 7.5C7 6.11929 5.88071 5 4.5 5C3.11929 5 2 6.11929 2 7.5C2 8.88071 3.11929 10 4.5 10ZM4.5 10L8.24194 11.9355M4.5 14C3.11929 14 2 15.1193 2 16.5C2 17.8807 3.11929 19 4.5 19C5.88071 19 7 17.8807 7 16.5C7 15.1193 5.88071 14 4.5 14ZM4.5 14L8.24194 11.9355M8.24194 11.9355L19 6M8.24194 11.9355L13 14.3966M22 18L19.5 18M16.5 18H14M11 18H10" stroke="black" stroke-width="2" stroke-linecap="round"/>
</svg>
