<svg viewBox="0 0 24 24" fill="none" xmlns="http://www.w3.org/2000/svg">
<path d="M8 16V12.5C8 12.2239 7.77614 12 7.5 12H4.5C4.22386 12 4 12.2239 4 12.5V15.5C4 15.7761 4.22386 16 4.5 16H8ZM8 16V20.5C8 20.7761 8.22386 21 8.5 21H20.5C20.7761 21 21 20.7761 21 20.5V8.5C21 8.22386 20.7761 8 20.5 8H16.5C16.2239 8 16 8.22386 16 8.5V11.5C16 11.7761 15.7761 12 15.5 12H12.5C12.2239 12 12 12.2239 12 12.5V15.5C12 15.7761 11.7761 16 11.5 16H8ZM8.5 8H11.5C11.7761 8 12 7.77614 12 7.5V4.5C12 4.22386 11.7761 4 11.5 4H8.5C8.22386 4 8 4.22386 8 4.5V7.5C8 7.77614 8.22386 8 8.5 8Z" stroke="currentColor" stroke-width="2" stroke-linecap="round"/>
</svg>
