<svg viewBox="0 0 24 24" fill="none" xmlns="http://www.w3.org/2000/svg">
<path d="M12.7078 5.63623L18.3646 11.2931M5.63672 12.7073L11.2936 18.3642M5.07103 17.7985L6.2024 18.9298C6.99444 19.7219 7.39045 20.1179 7.84711 20.2663C8.2488 20.3968 8.68149 20.3968 9.08318 20.2663C9.53984 20.1179 9.93585 19.7219 10.7279 18.9298L18.9303 10.7274C19.7224 9.93537 20.1184 9.53935 20.2668 9.08269C20.3973 8.681 20.3973 8.24831 20.2668 7.84662C20.1184 7.38997 19.7224 6.99395 18.9303 6.20192L17.799 5.07055C17.0069 4.27851 16.6109 3.88249 16.1542 3.73412C15.7526 3.6036 15.3199 3.6036 14.9182 3.73412C14.4615 3.88249 14.0655 4.27851 13.2735 5.07054L5.07103 13.273C4.279 14.065 3.88298 14.461 3.73461 14.9177C3.60409 15.3194 3.60409 15.7521 3.73461 16.1538C3.88298 16.6104 4.279 17.0064 5.07103 17.7985Z" stroke="currentColor" stroke-width="2" stroke-linecap="round"/>
</svg>
