<svg viewBox="0 0 24 24" fill="none" xmlns="http://www.w3.org/2000/svg">
<path d="M3.7292 22.4551L3.27521 23.3461L3.7292 22.4551ZM1.54412 20.2701L2.43513 19.8161H2.43513L1.54412 20.2701ZM22.4542 20.2701L21.5632 19.8161V19.8161L22.4542 20.2701ZM20.2691 22.4551L19.8151 21.5641L20.2691 22.4551ZM20.2691 1.54508L19.8151 2.43608L20.2691 1.54508ZM22.4542 3.73016L23.3452 3.27617L22.4542 3.73016ZM3.7292 1.54508L4.18319 2.43608V2.43608L3.7292 1.54508ZM1.54412 3.73016L2.43513 4.18415L1.54412 3.73016ZM8.00271 2.00121C8.55499 1.99925 9.00111 1.54994 8.99915 0.997661C8.99718 0.44538 8.54787 -0.00073874 7.99559 0.00122702L8.00271 2.00121ZM16.0027 0.00122702C15.4504 -0.00073874 15.0011 0.44538 14.9992 0.997661C14.9972 1.54994 15.4433 1.99925 15.9956 2.00121L16.0027 0.00122702ZM2 15.9159C1.99837 15.3636 1.54934 14.9172 0.997062 14.9188C0.444779 14.9204 -0.0016185 15.3695 4.29153e-06 15.9218L2 15.9159ZM23.9983 15.9218C23.9999 15.3695 23.5535 14.9204 23.0012 14.9188C22.449 14.9172 21.9999 15.3636 21.9983 15.9159L23.9983 15.9218ZM21.998 8.00367C22 8.55595 22.4493 9.00207 23.0016 9.0001C23.5539 8.99814 24 8.54883 23.998 7.99655L21.998 8.00367ZM7.99559 23.999C8.54787 24.001 8.99718 23.5548 8.99915 23.0026C9.00111 22.4503 8.55499 22.001 8.00271 21.999L7.99559 23.999ZM15.9957 21.999C15.4434 22.001 14.9973 22.4503 14.9993 23.0026C15.0013 23.5548 15.4506 24.001 16.0028 23.999L15.9957 21.999ZM0.000269949 7.99655C-0.00169587 8.54883 0.444423 8.99814 0.996704 9.0001C1.54899 9.00207 1.99829 8.55595 2.00026 8.00367L0.000269949 7.99655ZM12.9992 8.00011C12.9992 7.44782 12.5514 7.00011 11.9992 7.00011C11.4469 7.00011 10.9992 7.44782 10.9992 8.00011H12.9992ZM9.99915 13.0001C9.44687 13.0001 8.99915 13.4478 8.99915 14.0001C8.99915 14.5524 9.44687 15.0001 9.99915 15.0001V13.0001ZM7.99915 7.00011C7.99915 6.44782 7.55144 6.00011 6.99915 6.00011C6.44687 6.00011 5.99915 6.44782 5.99915 7.00011H7.99915ZM5.99915 9.00011C5.99915 9.55239 6.44687 10.0001 6.99915 10.0001C7.55144 10.0001 7.99915 9.55239 7.99915 9.00011H5.99915ZM17.9992 7.00011C17.9992 6.44782 17.5514 6.00011 16.9992 6.00011C16.4469 6.00011 15.9992 6.44782 15.9992 7.00011H17.9992ZM15.9992 9.00011C15.9992 9.55239 16.4469 10.0001 16.9992 10.0001C17.5514 10.0001 17.9992 9.55239 17.9992 9.00011H15.9992ZM7.70767 16.2944C7.31792 15.9031 6.68476 15.9018 6.29346 16.2916C5.90215 16.6813 5.90089 17.3145 6.29064 17.7058L7.70767 16.2944ZM17.7077 17.7058C18.0974 17.3145 18.0961 16.6813 17.7048 16.2916C17.3135 15.9018 16.6804 15.9031 16.2906 16.2944L17.7077 17.7058ZM4.18319 21.5641C3.43054 21.1806 2.81862 20.5687 2.43513 19.8161L0.653113 20.7241C1.22835 21.853 2.14624 22.7709 3.27521 23.3461L4.18319 21.5641ZM21.5632 19.8161C21.1797 20.5687 20.5678 21.1806 19.8151 21.5641L20.7231 23.3461C21.8521 22.7709 22.77 21.853 23.3452 20.7241L21.5632 19.8161ZM19.8151 2.43608C20.5678 2.81958 21.1797 3.4315 21.5632 4.18415L23.3452 3.27617C22.77 2.14719 21.8521 1.22931 20.7231 0.65407L19.8151 2.43608ZM3.27521 0.65407C2.14624 1.22931 1.22835 2.14719 0.653113 3.27617L2.43513 4.18415C2.81862 3.4315 3.43054 2.81958 4.18319 2.43608L3.27521 0.65407ZM7.99559 0.00122702C5.90908 0.00865394 4.46212 0.0493107 3.27521 0.65407L4.18319 2.43608C4.86412 2.08913 5.78908 2.00909 8.00271 2.00121L7.99559 0.00122702ZM15.9956 2.00121C18.2092 2.00909 19.1342 2.08913 19.8151 2.43608L20.7231 0.65407C19.5362 0.0493107 18.0892 0.00865394 16.0027 0.00122702L15.9956 2.00121ZM4.29153e-06 15.9218C0.00627285 18.055 0.0415801 19.5239 0.653113 20.7241L2.43513 19.8161C2.08302 19.125 2.00667 18.1858 2 15.9159L4.29153e-06 15.9218ZM21.9983 15.9159C21.9916 18.1858 21.9153 19.125 21.5632 19.8161L23.3452 20.7241C23.9567 19.5239 23.992 18.055 23.9983 15.9218L21.9983 15.9159ZM23.998 7.99655C23.9906 5.91004 23.9499 4.46307 23.3452 3.27617L21.5632 4.18415C21.9101 4.86508 21.9902 5.79004 21.998 8.00367L23.998 7.99655ZM8.00271 21.999C5.78908 21.9911 4.86412 21.9111 4.18319 21.5641L3.27521 23.3461C4.46212 23.9509 5.90908 23.9916 7.99559 23.999L8.00271 21.999ZM16.0028 23.999C18.0893 23.9916 19.5362 23.9509 20.7231 23.3461L19.8151 21.5641C19.1342 21.9111 18.2093 21.9911 15.9957 21.999L16.0028 23.999ZM2.00026 8.00367C2.00814 5.79004 2.08817 4.86508 2.43513 4.18415L0.653113 3.27617C0.0483536 4.46307 0.00769687 5.91004 0.000269949 7.99655L2.00026 8.00367ZM10.9992 8.00011V12.0001H12.9992V8.00011H10.9992ZM10.9992 12.0001C10.9992 12.5524 10.5514 13.0001 9.99915 13.0001V15.0001C11.656 15.0001 12.9992 13.657 12.9992 12.0001H10.9992ZM5.99915 7.00011V9.00011H7.99915V7.00011H5.99915ZM15.9992 7.00011V9.00011H17.9992V7.00011H15.9992ZM11.9992 18.0001C10.2655 18.0001 8.73576 17.3266 7.70767 16.2944L6.29064 17.7058C7.70569 19.1265 9.75047 20.0001 11.9992 20.0001V18.0001ZM16.2906 16.2944C15.2625 17.3266 13.7328 18.0001 11.9992 18.0001V20.0001C14.2478 20.0001 16.2926 19.1265 17.7077 17.7058L16.2906 16.2944Z" fill="currentColor"/>
</svg>
