<svg viewBox="0 0 24 24" fill="none" xmlns="http://www.w3.org/2000/svg">
<path fill-rule="evenodd" clip-rule="evenodd" d="M16.8001 3C17.3767 3 17.749 3.00078 18.0323 3.02393C18.304 3.04613 18.4047 3.0838 18.4541 3.109C18.6423 3.20487 18.7953 3.35785 18.8911 3.54601C18.9163 3.59545 18.954 3.69617 18.9762 3.96784C18.9994 4.25118 19.0001 4.62345 19.0001 5.2V8C19.0001 8.55229 19.4478 9 20.0001 9C20.5524 9 21.0001 8.55229 21.0001 8V5.16144C21.0001 4.6343 21.0002 4.17954 20.9696 3.80497C20.9373 3.40963 20.8659 3.01641 20.6731 2.63803C20.3855 2.07354 19.9266 1.6146 19.3621 1.32698C18.9837 1.13419 18.5905 1.06287 18.1952 1.03057C17.8206 0.999969 17.3658 0.999984 16.8387 1H10.8286C10.0329 1 9.26984 1.31607 8.70724 1.87868L3.46373 7.12219C2.77077 7.81515 3.26155 9 4.24155 9H8.99992C10.1045 9 10.9999 8.10457 10.9999 7V3H16.8001ZM6.41434 7L8.99992 4.41443V7H6.41434Z" fill="black"/>
<path d="M5.01746 19.9391C4.9838 19.3878 4.50963 18.9682 3.95838 19.0019C3.40712 19.0355 2.98752 19.5097 3.02118 20.0609C3.04819 20.5033 3.11372 20.9432 3.32711 21.362C3.61473 21.9265 4.07367 22.3854 4.63816 22.673C5.01654 22.8658 5.40977 22.9371 5.80511 22.9694C6.17968 23 6.63443 23 7.16156 23H16.8387C17.3658 23 17.8206 23 18.1952 22.9694C18.5905 22.9371 18.9837 22.8658 19.3621 22.673C19.9266 22.3854 20.3855 21.9265 20.6732 21.362C20.8865 20.9432 20.9521 20.5033 20.9791 20.0609C21.0127 19.5097 20.5931 19.0355 20.0419 19.0019C19.4906 18.9682 19.0165 19.3878 18.9828 19.9391C18.9619 20.2811 18.9198 20.3978 18.8911 20.454C18.7953 20.6422 18.6423 20.7951 18.4541 20.891C18.4047 20.9162 18.304 20.9539 18.0323 20.9761C17.749 20.9992 17.3767 21 16.8001 21H7.20013C6.62359 21 6.25131 20.9992 5.96797 20.9761C5.6963 20.9539 5.59558 20.9162 5.54614 20.891C5.35798 20.7951 5.205 20.6422 5.10912 20.454C5.08048 20.3978 5.03834 20.2811 5.01746 19.9391Z" fill="black"/>
<path fill-rule="evenodd" clip-rule="evenodd" d="M4.12064 17.1524C3.97881 17.2658 3.79554 17.3321 3.57623 17.3321C3.12546 17.3321 2.74023 16.9767 2.74023 16.4801C2.74023 16.4076 2.75512 16.3357 2.76719 16.2874C2.77984 16.2368 2.79557 16.1883 2.80915 16.154L4.54409 11.7088C4.67387 11.3646 4.96858 11.0681 5.44023 11.0681C5.91188 11.0681 6.2066 11.3646 6.33638 11.7088L8.07132 16.154C8.0849 16.1883 8.10063 16.2368 8.11328 16.2874C8.12535 16.3357 8.14023 16.4076 8.14023 16.4801C8.14023 16.9351 7.79623 17.3321 7.30423 17.3321C6.93304 17.3321 6.61969 17.1348 6.49359 16.7727L6.23042 16.0521H4.65005L4.38617 16.7746C4.3402 16.901 4.25847 17.0421 4.12064 17.1524ZM5.65126 14.4441H5.22921L5.44023 13.8664L5.65126 14.4441Z" fill="black"/>
<path d="M15.1919 17.3001H17.2799C17.7447 17.3001 18.0919 16.9387 18.0919 16.4881C18.0919 16.0486 17.7477 15.6761 17.2799 15.6761H17.0679V12.7241H17.2799C17.7477 12.7241 18.0919 12.3516 18.0919 11.9121C18.0919 11.4615 17.7447 11.1001 17.2799 11.1001H15.1919C14.7241 11.1001 14.3799 11.4726 14.3799 11.9121C14.3799 12.3516 14.7241 12.7241 15.1919 12.7241H15.3959V15.6761H15.1919C14.7241 15.6761 14.3799 16.0486 14.3799 16.4881C14.3799 16.9276 14.7241 17.3001 15.1919 17.3001Z" fill="black"/>
<path fill-rule="evenodd" clip-rule="evenodd" d="M9.70705 17.3321C10.1637 17.3321 10.535 16.9549 10.535 16.4961V15.3001H11.427C12.6821 15.3001 13.503 14.3079 13.503 13.2001C13.503 12.1722 12.6894 11.1001 11.427 11.1001H9.70705C9.24027 11.1001 8.86305 11.4715 8.86305 11.9361V16.4961C8.86305 16.9607 9.24027 17.3321 9.70705 17.3321ZM10.535 12.6921V13.7081H11.307C11.5794 13.7081 11.807 13.4844 11.807 13.2001C11.807 12.9159 11.5794 12.6921 11.307 12.6921H10.535Z" fill="black"/>
</svg>
