<svg viewBox="0 0 24 24" fill="none" xmlns="http://www.w3.org/2000/svg">
<path fill-rule="evenodd" clip-rule="evenodd" d="M16.7999 3C17.3764 3 17.7487 3.00078 18.032 3.02393C18.3037 3.04613 18.4044 3.0838 18.4539 3.109C18.642 3.20487 18.795 3.35785 18.8909 3.54601C18.9161 3.59545 18.9538 3.69617 18.976 3.96784C18.9991 4.25118 18.9999 4.62345 18.9999 5.2V8C18.9999 8.55229 19.4476 9 19.9999 9C20.5522 9 20.9999 8.55229 20.9999 8V5.16144C20.9999 4.6343 20.9999 4.17954 20.9693 3.80497C20.937 3.40963 20.8657 3.01641 20.6729 2.63803C20.3853 2.07354 19.9263 1.6146 19.3619 1.32698C18.9835 1.13419 18.5903 1.06287 18.1949 1.03057C17.8204 0.999969 17.3656 0.999984 16.8385 1H10.8283C10.0327 1 9.2696 1.31607 8.70699 1.87868L3.46349 7.12219C2.77053 7.81515 3.26131 9 4.24131 9H8.99967C10.1042 9 10.9997 8.10457 10.9997 7V3H16.7999ZM6.4141 7L8.99967 4.41443V7H6.4141Z" fill="black"/>
<path d="M5.01722 19.9391C4.98356 19.3878 4.50939 18.9682 3.95813 19.0019C3.40687 19.0355 2.98728 19.5097 3.02093 20.0609C3.04795 20.5033 3.11348 20.9432 3.32687 21.362C3.61449 21.9265 4.07343 22.3854 4.63791 22.673C5.0163 22.8658 5.40952 22.9371 5.80487 22.9694C6.17943 23 6.63419 23 7.16132 23H16.8385C17.3656 23 17.8203 23 18.1949 22.9694C18.5903 22.9371 18.9835 22.8658 19.3619 22.673C19.9263 22.3854 20.3853 21.9265 20.6729 21.362C20.8863 20.9432 20.9518 20.5033 20.9788 20.0609C21.0125 19.5097 20.5929 19.0355 20.0416 19.0019C19.4904 18.9682 19.0162 19.3878 18.9826 19.9391C18.9617 20.2811 18.9195 20.3978 18.8909 20.454C18.795 20.6422 18.642 20.7951 18.4539 20.891C18.4044 20.9162 18.3037 20.9539 18.0321 20.9761C17.7487 20.9992 17.3764 21 16.7999 21H7.19989C6.62334 21 6.25107 20.9992 5.96773 20.9761C5.69606 20.9539 5.59533 20.9162 5.5459 20.891C5.35773 20.7951 5.20475 20.6422 5.10888 20.454C5.08024 20.3978 5.0381 20.2811 5.01722 19.9391Z" fill="black"/>
<path d="M9.84263 11.4234L10.8108 13.0053L11.7776 11.4254C11.8895 11.2364 12.1162 11 12.4987 11C12.9655 11 13.3428 11.3714 13.3428 11.836C13.3428 12.0012 13.2873 12.1604 13.1917 12.3093L13.1911 12.3102L11.6547 14.7389V16.428C11.6547 16.9035 11.2666 17.264 10.8187 17.264C10.3607 17.264 9.96675 16.9091 9.96675 16.428V14.7389L8.4304 12.3102L8.42976 12.3092C8.33422 12.1603 8.27875 12.0011 8.27875 11.836C8.27875 11.3714 8.65597 11 9.12275 11C9.51201 11 9.73606 11.2529 9.84115 11.421L9.84263 11.4234Z" fill="black"/>
<path fill-rule="evenodd" clip-rule="evenodd" d="M4.672 16.428C4.672 16.8867 4.30061 17.264 3.844 17.264C3.37722 17.264 3 16.8926 3 16.428V11.868C3 11.4034 3.37722 11.032 3.844 11.032H5.564C6.82637 11.032 7.64 12.1041 7.64 13.132C7.64 14.2397 6.81908 15.232 5.564 15.232H4.672V16.428ZM4.672 13.64V12.624H5.444C5.71637 12.624 5.944 12.8477 5.944 13.132C5.944 13.4163 5.71637 13.64 5.444 13.64H4.672Z" fill="black"/>
</svg>
