<svg viewBox="0 0 24 24" fill="none" xmlns="http://www.w3.org/2000/svg">
<path fill-rule="evenodd" clip-rule="evenodd" d="M16.7999 3C17.3764 3 17.7487 3.00078 18.032 3.02393C18.3037 3.04613 18.4044 3.0838 18.4539 3.109C18.642 3.20487 18.795 3.35785 18.8909 3.54601C18.9161 3.59545 18.9538 3.69617 18.976 3.96784C18.9991 4.25118 18.9999 4.62345 18.9999 5.2V8C18.9999 8.55229 19.4476 9 19.9999 9C20.5522 9 20.9999 8.55229 20.9999 8V5.16144C20.9999 4.6343 20.9999 4.17954 20.9693 3.80497C20.937 3.40963 20.8657 3.01641 20.6729 2.63803C20.3853 2.07354 19.9263 1.6146 19.3619 1.32698C18.9835 1.13419 18.5903 1.06287 18.1949 1.03057C17.8204 0.999969 17.3656 0.999984 16.8385 1H10.8283C10.0327 1 9.2696 1.31607 8.70699 1.87868L3.46349 7.12219C2.77053 7.81515 3.26131 9 4.24131 9H8.99967C10.1042 9 10.9997 8.10457 10.9997 7V3H16.7999ZM6.4141 7L8.99967 4.41443V7H6.4141Z" fill="currentColor"/>
<path d="M5.01722 19.9391C4.98356 19.3878 4.50939 18.9682 3.95813 19.0019C3.40687 19.0355 2.98728 19.5097 3.02093 20.0609C3.04795 20.5033 3.11348 20.9432 3.32687 21.362C3.61449 21.9265 4.07343 22.3854 4.63791 22.673C5.0163 22.8658 5.40952 22.9371 5.80487 22.9694C6.17943 23 6.63419 23 7.16132 23H16.8385C17.3656 23 17.8203 23 18.1949 22.9694C18.5903 22.9371 18.9835 22.8658 19.3619 22.673C19.9263 22.3854 20.3853 21.9265 20.6729 21.362C20.8863 20.9432 20.9518 20.5033 20.9788 20.0609C21.0125 19.5097 20.5929 19.0355 20.0416 19.0019C19.4904 18.9682 19.0162 19.3878 18.9826 19.9391C18.9617 20.2811 18.9195 20.3978 18.8909 20.454C18.795 20.6422 18.642 20.7951 18.4539 20.891C18.4044 20.9162 18.3037 20.9539 18.0321 20.9761C17.7487 20.9992 17.3764 21 16.7999 21H7.19989C6.62334 21 6.25107 20.9992 5.96773 20.9761C5.69606 20.9539 5.59533 20.9162 5.5459 20.891C5.35773 20.7951 5.20475 20.6422 5.10888 20.454C5.08024 20.3978 5.0381 20.2811 5.01722 19.9391Z" fill="currentColor"/>
<path d="M9.74654 15.3298C9.99095 15.5878 10.3884 15.7801 10.6888 15.7801C10.945 15.7801 11.1038 15.7223 11.1908 15.6571C11.2675 15.5995 11.3088 15.5224 11.3088 15.4081C11.3088 15.3101 11.2816 15.2595 11.2325 15.2138C11.1679 15.1538 11.0497 15.0901 10.8377 15.0219L10.0784 14.7822C9.70561 14.6638 9.32796 14.467 9.04134 14.1566C8.74924 13.8403 8.56475 13.4196 8.56475 12.8881C8.56475 12.3431 8.79414 11.8617 9.19575 11.5213C9.5944 11.1833 10.1472 10.9961 10.7847 10.9961C11.7287 10.9961 12.3953 11.4432 12.6562 11.7954C12.7446 11.9106 12.8287 12.0999 12.8287 12.2961C12.8287 12.7356 12.4766 13.1081 12.0247 13.1081C11.8096 13.1081 11.6385 13.0372 11.4718 12.8939C11.2473 12.7109 11.033 12.6201 10.7847 12.6201C10.5922 12.6201 10.4664 12.6662 10.3972 12.717C10.3362 12.7617 10.3088 12.8153 10.3088 12.8881C10.3088 12.9923 10.367 13.0904 10.5644 13.1544L11.4422 13.4338C11.7795 13.5392 12.1806 13.707 12.4981 14.0162C12.8257 14.3352 13.0448 14.7855 13.0448 15.4081C13.0448 16.4074 12.2043 17.4041 10.6888 17.4041C9.70131 17.4041 8.93285 16.9394 8.4866 16.3292L8.48461 16.3265C8.4129 16.2261 8.34875 16.0781 8.34875 15.8881C8.34875 15.4394 8.7181 15.0761 9.16875 15.0761C9.48199 15.0761 9.65926 15.2423 9.74088 15.324L9.74654 15.3298Z" fill="currentColor"/>
<path d="M3.08872 16.2234C3.3511 16.8524 4.12576 17.4041 5.116 17.4041C5.73888 17.4041 6.30892 17.2056 6.72655 16.8234C7.14724 16.4384 7.392 15.8858 7.392 15.2241V11.9361C7.392 11.4773 7.02061 11.1001 6.564 11.1001H4.436C3.99031 11.1001 3.624 11.4664 3.624 11.9121C3.624 12.3578 3.99031 12.7241 4.436 12.7241H5.72V15.2241C5.72 15.4078 5.66154 15.5484 5.57149 15.6414C5.48338 15.7324 5.33966 15.8041 5.116 15.8041C4.85364 15.8041 4.63602 15.6503 4.49998 15.4277L4.4984 15.4251C4.44917 15.3463 4.37435 15.2428 4.25837 15.16C4.13701 15.0733 3.98594 15.0201 3.804 15.0201C3.3472 15.0201 3 15.3815 3 15.8241C3 15.9868 3.03689 16.1083 3.08872 16.2234Z" fill="currentColor"/>
</svg>
