<svg viewBox="0 0 24 24" fill="none" xmlns="http://www.w3.org/2000/svg">
<path d="M8 8C8 7.44772 7.55228 7 7 7C6.44772 7 6 7.44772 6 8H8ZM6 10C6 10.5523 6.44772 11 7 11C7.55228 11 8 10.5523 8 10H6ZM18 8C18 7.44772 17.5523 7 17 7C16.4477 7 16 7.44772 16 8H18ZM16 10C16 10.5523 16.4477 11 17 11C17.5523 11 18 10.5523 18 10H16ZM6.64169 15.233C6.21811 14.8786 5.58743 14.9347 5.23304 15.3583C4.87864 15.7819 4.93473 16.4126 5.35831 16.767L6.64169 15.233ZM18.6417 16.767C19.0653 16.4126 19.1214 15.7819 18.767 15.3583C18.4126 14.9347 17.7819 14.8786 17.3583 15.233L18.6417 16.767ZM3.73005 22.455L4.18404 21.564H4.18404L3.73005 22.455ZM1.54497 20.27L2.43597 19.816H2.43597L1.54497 20.27ZM22.455 20.27L21.564 19.816V19.816L22.455 20.27ZM20.27 22.455L19.816 21.564H19.816L20.27 22.455ZM20.27 1.54497L19.816 2.43597V2.43597L20.27 1.54497ZM22.455 3.73005L21.564 4.18404V4.18404L22.455 3.73005ZM3.73005 1.54497L4.18404 2.43597L3.73005 1.54497ZM1.54497 3.73005L2.43597 4.18404L1.54497 3.73005ZM14.6 1.8C15.0418 1.46863 15.1314 0.841828 14.8 0.4C14.4686 -0.0418278 13.8418 -0.131371 13.4 0.2L14.6 1.8ZM10.0054 12.4993L11.0052 12.5211L10.0054 12.4993ZM13 23C13 23.5523 13.4477 24 14 24C14.5523 24 15 23.5523 15 23H13ZM6 8V10H8V8H6ZM16 8V10H18V8H16ZM12 17C9.81587 17 7.90634 16.2911 6.64169 15.233L5.35831 16.767C7.02543 18.1618 9.40536 19 12 19V17ZM17.3583 15.233C16.0937 16.2911 14.1841 17 12 17V19C14.5946 19 16.9746 18.1618 18.6417 16.767L17.3583 15.233ZM9 2H15V0H9V2ZM22 9V15H24V9H22ZM15 22H9V24H15V22ZM2 15V9H0V15H2ZM9 22C7.58337 22 6.58104 21.9992 5.79744 21.9352C5.02552 21.8721 4.55435 21.7527 4.18404 21.564L3.27606 23.346C3.9753 23.7023 4.73898 23.8554 5.63458 23.9286C6.51851 24.0008 7.61637 24 9 24V22ZM0 15C0 16.3836 -0.000777721 17.4815 0.071442 18.3654C0.144616 19.261 0.297677 20.0247 0.653961 20.7239L2.43597 19.816C2.24729 19.4457 2.12787 18.9745 2.0648 18.2026C2.00078 17.419 2 16.4166 2 15H0ZM4.18404 21.564C3.43139 21.1805 2.81947 20.5686 2.43597 19.816L0.653961 20.7239C1.2292 21.8529 2.14708 22.7708 3.27606 23.346L4.18404 21.564ZM22 15C22 16.4166 21.9992 17.419 21.9352 18.2026C21.8721 18.9745 21.7527 19.4457 21.564 19.816L23.346 20.7239C23.7023 20.0247 23.8554 19.261 23.9286 18.3654C24.0008 17.4815 24 16.3836 24 15H22ZM15 24C16.3836 24 17.4815 24.0008 18.3654 23.9286C19.261 23.8554 20.0247 23.7023 20.7239 23.346L19.816 21.564C19.4457 21.7527 18.9745 21.8721 18.2026 21.9352C17.419 21.9992 16.4166 22 15 22V24ZM21.564 19.816C21.1805 20.5686 20.5686 21.1805 19.816 21.564L20.7239 23.346C21.8529 22.7708 22.7708 21.8529 23.346 20.7239L21.564 19.816ZM15 2C16.4166 2 17.419 2.00078 18.2026 2.0648C18.9745 2.12787 19.4457 2.24729 19.816 2.43597L20.7239 0.653961C20.0247 0.297677 19.261 0.144616 18.3654 0.071442C17.4815 -0.000777721 16.3836 0 15 0V2ZM24 9C24 7.61637 24.0008 6.51851 23.9286 5.63458C23.8554 4.73898 23.7023 3.9753 23.346 3.27606L21.564 4.18404C21.7527 4.55435 21.8721 5.02552 21.9352 5.79744C21.9992 6.58104 22 7.58337 22 9H24ZM19.816 2.43597C20.5686 2.81947 21.1805 3.43139 21.564 4.18404L23.346 3.27606C22.7708 2.14708 21.8529 1.2292 20.7239 0.653961L19.816 2.43597ZM9 0C7.61637 0 6.51851 -0.000777721 5.63458 0.071442C4.73898 0.144616 3.9753 0.297677 3.27606 0.653961L4.18404 2.43597C4.55435 2.24729 5.02552 2.12787 5.79744 2.0648C6.58104 2.00078 7.58337 2 9 2V0ZM2 9C2 7.58337 2.00078 6.58104 2.0648 5.79744C2.12787 5.02552 2.24729 4.55435 2.43597 4.18404L0.653961 3.27606C0.297677 3.9753 0.144616 4.73898 0.071442 5.63458C-0.000777721 6.51851 0 7.61637 0 9H2ZM3.27606 0.653961C2.14708 1.2292 1.2292 2.14708 0.653961 3.27606L2.43597 4.18404C2.81947 3.43139 3.43139 2.81947 4.18404 2.43597L3.27606 0.653961ZM13.4 0.2C12.9431 0.542707 12.4649 1.1074 12.0122 1.79369C11.5484 2.49677 11.0732 3.38583 10.6417 4.43133C9.7784 6.52284 9.07545 9.27584 9.00569 12.4775L11.0052 12.5211C11.0692 9.58426 11.7144 7.07446 12.4904 5.19438C12.8785 4.25408 13.2957 3.48015 13.6817 2.89496C14.0788 2.29299 14.4078 1.94416 14.6 1.8L13.4 0.2ZM10.5 14H13.5V12H10.5V14ZM13 13.5V23H15V13.5H13ZM13.5 14C13.2239 14 13 13.7761 13 13.5H15C15 12.6716 14.3284 12 13.5 12V14ZM9.00569 12.4775C8.98718 13.3267 9.67553 14 10.5 14V12C10.7722 12 11.0117 12.2241 11.0052 12.5211L9.00569 12.4775Z" fill="black"/>
</svg>
