<svg width="24" height="24" viewBox="0 0 24 24" fill="none" xmlns="http://www.w3.org/2000/svg">
<path d="M2.49768 9.04734C2.02013 9.32477 1.85789 9.93679 2.13532 10.4143C2.41274 10.8919 3.02477 11.0541 3.50232 10.7767L2.49768 9.04734ZM20.4977 10.7767C20.9752 11.0541 21.5873 10.8919 21.8647 10.4143C22.1421 9.9368 21.9799 9.32477 21.5023 9.04734L20.4977 10.7767ZM5.06021 8.15826C4.87147 8.67729 5.13922 9.25105 5.65826 9.43979C6.17729 9.62853 6.75105 9.36078 6.93979 8.84174L5.06021 8.15826ZM7.52127 4.31651L6.58147 3.97477L7.52127 4.31651ZM16.4787 4.31651L15.5389 4.65826V4.65826L16.4787 4.31651ZM17.0602 8.84174C17.2489 9.36078 17.8227 9.62853 18.3417 9.43979C18.8608 9.25105 19.1285 8.67729 18.9398 8.15826L17.0602 8.84174ZM3.50232 10.7767C5.28695 9.73996 8.38171 9 12 9V7C8.17765 7 4.69452 7.77113 2.49768 9.04734L3.50232 10.7767ZM12 9C15.6183 9 18.7131 9.73996 20.4977 10.7767L21.5023 9.04734C19.3055 7.77113 15.8223 7 12 7V9ZM6.93979 8.84174L8.46106 4.65826L6.58147 3.97477L5.06021 8.15826L6.93979 8.84174ZM9.40085 4H14.5991V2H9.40085V4ZM15.5389 4.65826L17.0602 8.84174L18.9398 8.15826L17.4185 3.97477L15.5389 4.65826ZM14.5991 4C15.0197 4 15.3952 4.26307 15.5389 4.65826L17.4185 3.97477C16.9874 2.7892 15.8607 2 14.5991 2V4ZM8.46106 4.65826C8.60477 4.26307 8.98035 4 9.40085 4V2C8.13934 2 7.01259 2.7892 6.58147 3.97477L8.46106 4.65826ZM9 15C9 16.1046 8.10457 17 7 17V19C9.20914 19 11 17.2091 11 15H9ZM7 17C5.89543 17 5 16.1046 5 15H3C3 17.2091 4.79086 19 7 19V17ZM5 15C5 13.8954 5.89543 13 7 13V11C4.79086 11 3 12.7909 3 15H5ZM7 13C8.10457 13 9 13.8954 9 15H11C11 12.7909 9.20914 11 7 11V13ZM19 15C19 16.1046 18.1046 17 17 17V19C19.2091 19 21 17.2091 21 15H19ZM17 17C15.8954 17 15 16.1046 15 15H13C13 17.2091 14.7909 19 17 19V17ZM15 15C15 13.8954 15.8954 13 17 13V11C14.7909 11 13 12.7909 13 15H15ZM17 13C18.1046 13 19 13.8954 19 15H21C21 12.7909 19.2091 11 17 11V13ZM10.5858 15.5858C11.3668 14.8047 12.6332 14.8047 13.4142 15.5858L14.8284 14.1716C13.2663 12.6095 10.7337 12.6095 9.17157 14.1716L10.5858 15.5858Z" fill="black"/>
</svg>
