<svg viewBox="0 0 24 24" fill="none" xmlns="http://www.w3.org/2000/svg">
<path d="M10.4422 11.1496L11.3755 10.7907L10.4422 11.1496ZM14.1151 20.6992L13.1817 21.0582V21.0582L14.1151 20.6992ZM20.526 14.8582L20.107 15.7661V15.7661L20.526 14.8582ZM11.1184 10.5162L10.6993 11.4241L11.1184 10.5162ZM15.0561 20.6778L14.1074 20.3616L15.0561 20.6778ZM16.3663 16.7471L17.315 17.0634L16.3663 16.7471ZM16.7585 16.412L16.9229 17.3984H16.9229L16.7585 16.412ZM20.3987 15.8053L20.2343 14.819L20.3987 15.8053ZM7.74741 13.6644C8.11433 13.2516 8.07715 12.6195 7.66436 12.2526C7.25158 11.8857 6.61951 11.9229 6.25259 12.3356L7.74741 13.6644ZM7.55279 20.8944C8.04677 21.1414 8.64744 20.9412 8.89443 20.4472C9.14142 19.9532 8.94119 19.3526 8.44721 19.1056L7.55279 20.8944ZM9.50882 11.5086L13.1817 21.0582L15.0484 20.3402L11.3755 10.7907L9.50882 11.5086ZM20.9451 13.9502L11.5374 9.60821L10.6993 11.4241L20.107 15.7661L20.9451 13.9502ZM16.0048 20.9941L17.315 17.0634L15.4177 16.4309L14.1074 20.3616L16.0048 20.9941ZM16.9229 17.3984L20.5631 16.7917L20.2343 14.819L16.5941 15.4257L16.9229 17.3984ZM17.315 17.0634C17.2565 17.2391 17.1056 17.368 16.9229 17.3984L16.5941 15.4257C16.046 15.517 15.5934 15.9038 15.4177 16.4309L17.315 17.0634ZM20.107 15.7661C19.66 15.5598 19.7488 14.8999 20.2343 14.819L20.5631 16.7917C22.0197 16.549 22.2859 14.569 20.9451 13.9502L20.107 15.7661ZM13.1817 21.0582C13.6869 22.3717 15.5598 22.3291 16.0048 20.9941L14.1074 20.3616C14.2558 19.9166 14.88 19.9024 15.0484 20.3402L13.1817 21.0582ZM11.3755 10.7907C11.5367 11.2096 11.1069 11.6122 10.6993 11.4241L11.5374 9.60821C10.3147 9.04389 9.02541 10.2517 9.50882 11.5086L11.3755 10.7907ZM5 9C5 8.08849 5.59391 7.11199 6.87314 6.31246C8.13829 5.52175 9.9483 5 12 5V3C9.63342 3 7.44343 3.59754 5.81315 4.61647C4.19695 5.62659 3 7.15008 3 9H5ZM12 5C14.0517 5 15.8617 5.52175 17.1269 6.31246C18.4061 7.11199 19 8.08849 19 9H21C21 7.15008 19.803 5.62659 18.1869 4.61647C16.5566 3.59754 14.3666 3 12 3V5ZM11.0777 12.9643C9.24956 12.8219 7.67965 12.2655 6.59511 11.5033C5.50418 10.7367 5 9.84304 5 9H3C3 10.7067 4.02266 12.14 5.44516 13.1397C6.87404 14.1438 8.80413 14.7932 10.9223 14.9583L11.0777 12.9643ZM19 9C19 10.0406 18.2143 11.1765 16.5521 12.0093L17.4479 13.7974C19.4435 12.7976 21 11.1174 21 9H19ZM6.25259 12.3356C5.50221 13.1798 4.6046 14.6333 4.50201 16.2491C4.44918 17.0812 4.6085 17.9625 5.11469 18.7936C5.6181 19.6202 6.42327 20.3297 7.55279 20.8944L8.44721 19.1056C7.57673 18.6703 7.09024 18.1923 6.82281 17.7533C6.55816 17.3187 6.46749 16.8563 6.49799 16.3759C6.56207 15.3667 7.16446 14.3202 7.74741 13.6644L6.25259 12.3356Z" fill="black"/>
</svg>
