<svg width="24" height="24" viewBox="0 0 24 24" fill="none" xmlns="http://www.w3.org/2000/svg">
<path d="M8.00005 4H16.0001M12.0001 22V12M8.3772 8H15.6229C15.8461 8 16.0423 8.14799 16.1037 8.36264L17.9262 14.7414C17.9723 14.9029 17.9343 15.0767 17.825 15.2042L12.3797 21.5571C12.1801 21.7899 11.82 21.7899 11.6204 21.5571L6.17507 15.2042C6.06579 15.0767 6.0278 14.9029 6.07393 14.7414L7.89644 8.36264C7.95777 8.14799 8.15396 8 8.3772 8ZM13.0001 12C13.0001 12.5523 12.5523 13 12.0001 13C11.4478 13 11.0001 12.5523 11.0001 12C11.0001 11.4477 11.4478 11 12.0001 11C12.5523 11 13.0001 11.4477 13.0001 12Z" stroke="black" stroke-width="2" stroke-linecap="round"/>
</svg>
