<svg viewBox="0 0 24 24" fill="none" xmlns="http://www.w3.org/2000/svg">
<path d="M5.51842 19.6483L5.41891 18.6532L5.51842 19.6483ZM3.21845 19.6311L3.60923 18.7106L3.21845 19.6311ZM2.24593 18.751L1.36889 19.2314L2.24593 18.751ZM21.8084 17.0444L22.7125 17.4716L21.8084 17.0444ZM19.1184 18.2883L19.2179 19.2833L19.1184 18.2883ZM21.03 17.9045L21.545 18.7617L21.03 17.9045ZM19.1184 5.71196L19.0189 6.707L19.1184 5.71196ZM21.03 6.09571L21.545 5.23852L21.03 6.09571ZM21.8084 6.9558L22.7125 6.52865L21.8084 6.9558ZM5.51841 4.35196L5.61792 3.35692L5.51841 4.35196ZM3.21845 4.36912L3.60923 5.28961L3.21845 4.36912ZM2.24593 5.24924L1.36889 4.76882L2.24593 5.24924ZM10 4.70012C10 4.14784 9.55228 3.70012 9 3.70012C8.44772 3.70012 8 4.14784 8 4.70012H10ZM8 19.3001C8 19.8524 8.44772 20.3001 9 20.3001C9.55228 20.3001 10 19.8524 10 19.3001H8ZM16 5.30012C16 4.74784 15.5523 4.30012 15 4.30012C14.4477 4.30012 14 4.74784 14 5.30012H16ZM14 18.7001C14 19.2524 14.4477 19.7001 15 19.7001C15.5523 19.7001 16 19.2524 16 18.7001H14ZM2 11.0001C1.44772 11.0001 1 11.4478 1 12.0001C1 12.5524 1.44772 13.0001 2 13.0001V11.0001ZM22 13.0001C22.5523 13.0001 23 12.5524 23 12.0001C23 11.4478 22.5523 11.0001 22 11.0001V13.0001ZM5.41891 5.347L19.0189 6.707L19.2179 4.71692L5.61792 3.35692L5.41891 5.347ZM21 8.89608V15.1042H23V8.89608H21ZM19.0189 17.2932L5.41891 18.6532L5.61792 20.6433L19.2179 19.2833L19.0189 17.2932ZM3 16.4642V7.53608H1V16.4642H3ZM5.41891 18.6532C4.7921 18.7159 4.3843 18.7559 4.07289 18.7605C3.77199 18.7651 3.66107 18.7326 3.60923 18.7106L2.82768 20.5516C3.24703 20.7296 3.6765 20.7667 4.10299 20.7603C4.51897 20.7541 5.02555 20.7026 5.61792 20.6433L5.41891 18.6532ZM1 16.4642C1 17.0595 0.999159 17.5687 1.03432 17.9832C1.07037 18.4082 1.15002 18.8319 1.36889 19.2314L3.12296 18.2706C3.09591 18.2212 3.0526 18.114 3.02716 17.8142C3.00084 17.5038 3 17.0941 3 16.4642H1ZM3.60923 18.7106C3.40228 18.6228 3.23098 18.4677 3.12296 18.2706L1.36889 19.2314C1.69293 19.823 2.20684 20.288 2.82768 20.5516L3.60923 18.7106ZM21 15.1042C21 15.6313 20.9993 15.9694 20.9791 16.2279C20.9598 16.4741 20.9273 16.5684 20.9042 16.6173L22.7125 17.4716C22.8811 17.1148 22.9443 16.7506 22.973 16.3838C23.0007 16.0293 23 15.6001 23 15.1042H21ZM19.2179 19.2833C19.7114 19.234 20.1385 19.192 20.4885 19.1291C20.8506 19.0641 21.2067 18.9649 21.545 18.7617L20.515 17.0473C20.4687 17.0752 20.378 17.117 20.135 17.1606C19.8798 17.2064 19.5435 17.2408 19.0189 17.2932L19.2179 19.2833ZM20.9042 16.6173C20.8198 16.7959 20.6844 16.9456 20.515 17.0473L21.545 18.7617C22.0531 18.4565 22.4594 18.0075 22.7125 17.4716L20.9042 16.6173ZM19.0189 6.707C19.5435 6.75945 19.8798 6.7938 20.135 6.83963C20.378 6.88327 20.4687 6.92508 20.515 6.9529L21.545 5.23852C21.2067 5.0353 20.8506 4.93613 20.4885 4.87111C20.1385 4.80827 19.7114 4.76627 19.2179 4.71692L19.0189 6.707ZM23 8.89608C23 8.40017 23.0007 7.97093 22.973 7.61648C22.9443 7.24969 22.8811 6.88545 22.7125 6.52865L20.9042 7.38295C20.9273 7.4318 20.9598 7.52616 20.9791 7.77233C20.9993 8.03083 21 8.3689 21 8.89608H23ZM20.515 6.9529C20.6844 7.05466 20.8198 7.2043 20.9042 7.38295L22.7125 6.52865C22.4594 5.99271 22.0531 5.54378 21.545 5.23852L20.515 6.9529ZM5.61792 3.35692C5.02555 3.29769 4.51897 3.24618 4.10299 3.23992C3.6765 3.2335 3.24703 3.27061 2.82768 3.44863L3.60923 5.28961C3.66107 5.2676 3.77199 5.23517 4.07289 5.2397C4.3843 5.24438 4.7921 5.28432 5.41891 5.347L5.61792 3.35692ZM3 7.53608C3 6.90614 3.00084 6.4964 3.02716 6.18606C3.0526 5.88621 3.09591 5.77907 3.12296 5.72967L1.36889 4.76882C1.15002 5.16837 1.07037 5.59202 1.03432 6.01703C0.999159 6.43157 1 6.94076 1 7.53608H3ZM2.82768 3.44863C2.20684 3.7122 1.69293 4.17728 1.36889 4.76882L3.12296 5.72967C3.23098 5.53249 3.40228 5.37746 3.60923 5.28961L2.82768 3.44863ZM8 4.70012V19.3001H10V4.70012H8ZM14 5.30012V18.7001H16V5.30012H14ZM2 13.0001H22V11.0001H2V13.0001Z" fill="currentColor"/>
</svg>
