<svg viewBox="0 0 24 24" fill="none" xmlns="http://www.w3.org/2000/svg">
<path d="M6.96194 6.69134L6.03806 6.30866L6.96194 6.69134ZM6.96194 3.30866L6.03806 3.69134L6.96194 3.30866ZM20.9619 18.6913L20.0381 18.3087L20.9619 18.6913ZM20.9619 15.3087L20.0381 15.6913L20.9619 15.3087ZM20.9619 8.69134L20.0381 8.30866L20.9619 8.69134ZM20.9619 5.30866L20.0381 5.69134L20.9619 5.30866ZM6.96194 20.6913L6.03806 20.3087L6.96194 20.6913ZM6.96194 17.3087L6.03806 17.6913L6.96194 17.3087ZM6 17V7H4V17H6ZM16.876 16.5077L6.87597 17.7577L7.12403 19.7423L17.124 18.4923L16.876 16.5077ZM18 9V15H20V9H18ZM6.87597 6.24228L16.876 7.49228L17.124 5.50772L7.12403 4.25772L6.87597 6.24228ZM3.75 4H6.25V2H3.75V4ZM6 3.75V6.25H8V3.75H6ZM6.25 6H3.75V8H6.25V6ZM4 6.25V3.75H2V6.25H4ZM3.75 6C3.68985 6 3.64604 5.99998 3.60886 5.99949C3.57169 5.999 3.55305 5.99815 3.54449 5.99756C3.53625 5.997 3.54934 5.99743 3.57478 6.00238C3.60261 6.0078 3.64357 6.01827 3.69134 6.03806L2.92597 7.88582C3.11408 7.96373 3.28771 7.98469 3.40835 7.99292C3.52001 8.00054 3.6472 8 3.75 8V6ZM2 6.25C2 6.3528 1.99946 6.47999 2.00708 6.59165C2.01531 6.71229 2.03627 6.88593 2.11418 7.07403L3.96194 6.30866C3.98173 6.35643 3.9922 6.39739 3.99762 6.42522C4.00257 6.45066 4.003 6.46375 4.00244 6.45551C4.00185 6.44695 4.001 6.42831 4.00051 6.39114C4.00002 6.35396 4 6.31015 4 6.25H2ZM3.69134 6.03806C3.81386 6.08881 3.91119 6.18614 3.96194 6.30866L2.11418 7.07403C2.26642 7.44157 2.55843 7.73358 2.92597 7.88582L3.69134 6.03806ZM6 6.25C6 6.31015 5.99998 6.35396 5.99949 6.39114C5.999 6.42831 5.99815 6.44695 5.99756 6.45551C5.997 6.46375 5.99743 6.45066 6.00238 6.42522C6.0078 6.39739 6.01827 6.35643 6.03806 6.30866L7.88582 7.07403C7.96373 6.88593 7.98469 6.71229 7.99292 6.59165C8.00054 6.47999 8 6.3528 8 6.25H6ZM6.25 8C6.3528 8 6.47999 8.00054 6.59165 7.99292C6.71229 7.98469 6.88593 7.96373 7.07403 7.88582L6.30866 6.03806C6.35643 6.01827 6.39739 6.0078 6.42522 6.00238C6.45066 5.99743 6.46375 5.997 6.45551 5.99756C6.44695 5.99815 6.42831 5.999 6.39114 5.99949C6.35396 5.99998 6.31015 6 6.25 6V8ZM6.03806 6.30866C6.08881 6.18614 6.18614 6.08881 6.30866 6.03806L7.07403 7.88582C7.44157 7.73358 7.73358 7.44157 7.88582 7.07403L6.03806 6.30866ZM6.25 4C6.31015 4 6.35396 4.00002 6.39114 4.00051C6.42831 4.001 6.44695 4.00185 6.45551 4.00244C6.46375 4.003 6.45066 4.00257 6.42522 3.99762C6.39739 3.9922 6.35643 3.98173 6.30866 3.96194L7.07403 2.11418C6.88593 2.03627 6.71229 2.01531 6.59165 2.00708C6.47999 1.99946 6.3528 2 6.25 2V4ZM8 3.75C8 3.6472 8.00054 3.52001 7.99292 3.40835C7.98469 3.28771 7.96373 3.11408 7.88582 2.92597L6.03806 3.69134C6.01827 3.64357 6.0078 3.60261 6.00238 3.57478C5.99743 3.54934 5.997 3.53625 5.99756 3.54449C5.99815 3.55305 5.999 3.57169 5.99949 3.60886C5.99998 3.64604 6 3.68985 6 3.75H8ZM6.30866 3.96194C6.18614 3.91119 6.08881 3.81386 6.03806 3.69134L7.88582 2.92597C7.73358 2.55843 7.44157 2.26642 7.07403 2.11418L6.30866 3.96194ZM3.75 2C3.6472 2 3.52001 1.99946 3.40835 2.00708C3.28771 2.01531 3.11407 2.03627 2.92597 2.11418L3.69134 3.96194C3.64357 3.98173 3.60261 3.9922 3.57478 3.99762C3.54934 4.00257 3.53625 4.003 3.54449 4.00244C3.55305 4.00185 3.57169 4.001 3.60886 4.00051C3.64604 4.00002 3.68985 4 3.75 4V2ZM4 3.75C4 3.68985 4.00002 3.64604 4.00051 3.60886C4.001 3.57169 4.00185 3.55305 4.00244 3.54449C4.003 3.53625 4.00257 3.54934 3.99762 3.57478C3.9922 3.60261 3.98173 3.64357 3.96194 3.69134L2.11418 2.92597C2.03627 3.11407 2.01531 3.28771 2.00708 3.40835C1.99946 3.52001 2 3.6472 2 3.75H4ZM2.92597 2.11418C2.55843 2.26642 2.26642 2.55843 2.11418 2.92597L3.96194 3.69134C3.91119 3.81386 3.81386 3.91119 3.69134 3.96194L2.92597 2.11418ZM20.25 14H17.75V16H20.25V14ZM16 15.75V18.25H18V15.75H16ZM17.75 20H20.25V18H17.75V20ZM22 18.25V15.75H20V18.25H22ZM20.25 20C20.3528 20 20.48 20.0005 20.5916 19.9929C20.7123 19.9847 20.8859 19.9637 21.074 19.8858L20.3087 18.0381C20.3564 18.0183 20.3974 18.0078 20.4252 18.0024C20.4507 17.9974 20.4637 17.997 20.4555 17.9976C20.4469 17.9981 20.4283 17.999 20.3911 17.9995C20.354 18 20.3102 18 20.25 18V20ZM20 18.25C20 18.3102 20 18.354 19.9995 18.3911C19.999 18.4283 19.9981 18.4469 19.9976 18.4555C19.997 18.4637 19.9974 18.4507 20.0024 18.4252C20.0078 18.3974 20.0183 18.3564 20.0381 18.3087L21.8858 19.074C21.9637 18.8859 21.9847 18.7123 21.9929 18.5917C22.0005 18.48 22 18.3528 22 18.25H20ZM21.074 19.8858C21.4416 19.7336 21.7336 19.4416 21.8858 19.074L20.0381 18.3087C20.0888 18.1861 20.1861 18.0888 20.3087 18.0381L21.074 19.8858ZM16 18.25C16 18.3528 15.9995 18.48 16.0071 18.5916C16.0153 18.7123 16.0363 18.8859 16.1142 19.074L17.9619 18.3087C17.9817 18.3564 17.9922 18.3974 17.9976 18.4252C18.0026 18.4507 18.003 18.4637 18.0024 18.4555C18.0019 18.4469 18.001 18.4283 18.0005 18.3911C18 18.354 18 18.3102 18 18.25H16ZM17.75 18C17.6898 18 17.646 18 17.6089 17.9995C17.5717 17.999 17.5531 17.9981 17.5445 17.9976C17.5363 17.997 17.5493 17.9974 17.5748 18.0024C17.6026 18.0078 17.6436 18.0183 17.6913 18.0381L16.926 19.8858C17.1141 19.9637 17.2877 19.9847 17.4084 19.9929C17.52 20.0005 17.6472 20 17.75 20V18ZM16.1142 19.074C16.2664 19.4416 16.5584 19.7336 16.926 19.8858L17.6913 18.0381C17.8139 18.0888 17.9112 18.1861 17.9619 18.3087L16.1142 19.074ZM17.75 14C17.6472 14 17.52 13.9995 17.4084 14.0071C17.2877 14.0153 17.1141 14.0363 16.926 14.1142L17.6913 15.9619C17.6436 15.9817 17.6026 15.9922 17.5748 15.9976C17.5493 16.0026 17.5363 16.003 17.5445 16.0024C17.5531 16.0019 17.5717 16.001 17.6089 16.0005C17.646 16 17.6898 16 17.75 16V14ZM18 15.75C18 15.6898 18 15.646 18.0005 15.6089C18.001 15.5717 18.0019 15.5531 18.0024 15.5445C18.003 15.5363 18.0026 15.5493 17.9976 15.5748C17.9922 15.6026 17.9817 15.6436 17.9619 15.6913L16.1142 14.926C16.0363 15.1141 16.0153 15.2877 16.0071 15.4084C15.9995 15.52 16 15.6472 16 15.75H18ZM16.926 14.1142C16.5584 14.2664 16.2664 14.5584 16.1142 14.926L17.9619 15.6913C17.9112 15.8139 17.8139 15.9112 17.6913 15.9619L16.926 14.1142ZM20.25 16C20.3102 16 20.354 16 20.3911 16.0005C20.4283 16.001 20.4469 16.0019 20.4555 16.0024C20.4637 16.003 20.4507 16.0026 20.4252 15.9976C20.3974 15.9922 20.3564 15.9817 20.3087 15.9619L21.074 14.1142C20.8859 14.0363 20.7123 14.0153 20.5916 14.0071C20.48 13.9995 20.3528 14 20.25 14V16ZM22 15.75C22 15.6472 22.0005 15.52 21.9929 15.4083C21.9847 15.2877 21.9637 15.1141 21.8858 14.926L20.0381 15.6913C20.0183 15.6436 20.0078 15.6026 20.0024 15.5748C19.9974 15.5493 19.997 15.5363 19.9976 15.5445C19.9981 15.5531 19.999 15.5717 19.9995 15.6089C20 15.646 20 15.6898 20 15.75H22ZM20.3087 15.9619C20.1861 15.9112 20.0888 15.8139 20.0381 15.6913L21.8858 14.926C21.7336 14.5584 21.4416 14.2664 21.074 14.1142L20.3087 15.9619ZM17.75 6H20.25V4H17.75V6ZM20 5.75V8.25H22V5.75H20ZM20.25 8H17.75V10H20.25V8ZM18 8.25V5.75H16V8.25H18ZM17.75 8C17.6898 8 17.646 7.99998 17.6089 7.99949C17.5717 7.999 17.5531 7.99815 17.5445 7.99756C17.5363 7.997 17.5493 7.99743 17.5748 8.00238C17.6026 8.0078 17.6436 8.01827 17.6913 8.03806L16.926 9.88582C17.1141 9.96373 17.2877 9.98469 17.4084 9.99292C17.52 10.0005 17.6472 10 17.75 10V8ZM16 8.25C16 8.3528 15.9995 8.47999 16.0071 8.59165C16.0153 8.71229 16.0363 8.88593 16.1142 9.07403L17.9619 8.30866C17.9817 8.35643 17.9922 8.39739 17.9976 8.42522C18.0026 8.45066 18.003 8.46375 18.0024 8.45551C18.0019 8.44695 18.001 8.42831 18.0005 8.39114C18 8.35396 18 8.31015 18 8.25H16ZM17.6913 8.03806C17.8139 8.08881 17.9112 8.18614 17.9619 8.30866L16.1142 9.07403C16.2664 9.44157 16.5584 9.73358 16.926 9.88582L17.6913 8.03806ZM20 8.25C20 8.31015 20 8.35396 19.9995 8.39114C19.999 8.42831 19.9981 8.44695 19.9976 8.4555C19.997 8.46374 19.9974 8.45066 20.0024 8.42522C20.0078 8.39739 20.0183 8.35643 20.0381 8.30866L21.8858 9.07403C21.9637 8.88593 21.9847 8.7123 21.9929 8.59165C22.0005 8.47999 22 8.35281 22 8.25H20ZM20.25 10C20.3528 10 20.48 10.0005 20.5916 9.99292C20.7123 9.98469 20.8859 9.96373 21.074 9.88582L20.3087 8.03806C20.3564 8.01827 20.3974 8.0078 20.4252 8.00238C20.4507 7.99743 20.4637 7.997 20.4555 7.99756C20.4469 7.99815 20.4283 7.999 20.3911 7.99949C20.354 7.99998 20.3102 8 20.25 8V10ZM20.0381 8.30866C20.0888 8.18615 20.1861 8.08881 20.3087 8.03806L21.074 9.88582C21.4416 9.73358 21.7336 9.44157 21.8858 9.07403L20.0381 8.30866ZM20.25 6C20.3102 6 20.354 6.00002 20.3911 6.00051C20.4283 6.001 20.4469 6.00185 20.4555 6.00244C20.4637 6.003 20.4507 6.00257 20.4252 5.99762C20.3974 5.9922 20.3564 5.98173 20.3087 5.96194L21.074 4.11418C20.8859 4.03627 20.7123 4.01531 20.5916 4.00708C20.48 3.99946 20.3528 4 20.25 4V6ZM22 5.75C22 5.64719 22.0005 5.52001 21.9929 5.40835C21.9847 5.2877 21.9637 5.11407 21.8858 4.92597L20.0381 5.69134C20.0183 5.64357 20.0078 5.60261 20.0024 5.57479C19.9974 5.54934 19.997 5.53626 19.9976 5.5445C19.9981 5.55306 19.999 5.57169 19.9995 5.60886C20 5.64604 20 5.68985 20 5.75H22ZM20.3087 5.96194C20.1861 5.91119 20.0888 5.81385 20.0381 5.69134L21.8858 4.92597C21.7336 4.55844 21.4416 4.26642 21.074 4.11418L20.3087 5.96194ZM17.75 4C17.6472 4 17.52 3.99946 17.4084 4.00708C17.2877 4.01531 17.1141 4.03627 16.926 4.11418L17.6913 5.96194C17.6436 5.98173 17.6026 5.9922 17.5748 5.99762C17.5493 6.00257 17.5363 6.003 17.5445 6.00244C17.5531 6.00185 17.5717 6.001 17.6089 6.00051C17.646 6.00002 17.6898 6 17.75 6V4ZM18 5.75C18 5.68985 18 5.64604 18.0005 5.60886C18.001 5.57169 18.0019 5.55305 18.0024 5.54449C18.003 5.53625 18.0026 5.54934 17.9976 5.57478C17.9922 5.60261 17.9817 5.64357 17.9619 5.69134L16.1142 4.92597C16.0363 5.11407 16.0153 5.28771 16.0071 5.40835C15.9995 5.52001 16 5.6472 16 5.75H18ZM16.926 4.11418C16.5584 4.26642 16.2664 4.55843 16.1142 4.92597L17.9619 5.69134C17.9112 5.81386 17.8139 5.91119 17.6913 5.96194L16.926 4.11418ZM6.25 16H3.75V18H6.25V16ZM2 17.75V20.25H4V17.75H2ZM3.75 22H6.25V20H3.75V22ZM8 20.25V17.75H6V20.25H8ZM6.25 22C6.35281 22 6.47999 22.0005 6.59165 21.9929C6.7123 21.9847 6.88593 21.9637 7.07403 21.8858L6.30866 20.0381C6.35643 20.0183 6.39739 20.0078 6.42521 20.0024C6.45066 19.9974 6.46374 19.997 6.4555 19.9976C6.44694 19.9981 6.42831 19.999 6.39114 19.9995C6.35396 20 6.31015 20 6.25 20V22ZM6 20.25C6 20.3102 5.99998 20.354 5.99949 20.3911C5.999 20.4283 5.99815 20.4469 5.99756 20.4555C5.997 20.4637 5.99743 20.4507 6.00238 20.4252C6.0078 20.3974 6.01827 20.3564 6.03806 20.3087L7.88582 21.074C7.96373 20.8859 7.98469 20.7123 7.99292 20.5916C8.00054 20.48 8 20.3528 8 20.25H6ZM7.07403 21.8858C7.44156 21.7336 7.73358 21.4416 7.88582 21.074L6.03806 20.3087C6.08881 20.1861 6.18615 20.0888 6.30866 20.0381L7.07403 21.8858ZM2 20.25C2 20.3528 1.99946 20.48 2.00708 20.5916C2.01531 20.7123 2.03627 20.8859 2.11418 21.074L3.96194 20.3087C3.98173 20.3564 3.9922 20.3974 3.99762 20.4252C4.00257 20.4507 4.003 20.4637 4.00244 20.4555C4.00185 20.4469 4.001 20.4283 4.00051 20.3911C4.00002 20.354 4 20.3102 4 20.25H2ZM3.75 20C3.68985 20 3.64604 20 3.60886 19.9995C3.57169 19.999 3.55306 19.9981 3.5445 19.9976C3.53626 19.997 3.54934 19.9974 3.57479 20.0024C3.60261 20.0078 3.64357 20.0183 3.69134 20.0381L2.92597 21.8858C3.11407 21.9637 3.2877 21.9847 3.40835 21.9929C3.52001 22.0005 3.64719 22 3.75 22V20ZM2.11418 21.074C2.26642 21.4416 2.55843 21.7336 2.92597 21.8858L3.69134 20.0381C3.81385 20.0888 3.91119 20.1861 3.96194 20.3087L2.11418 21.074ZM3.75 16C3.6472 16 3.52001 15.9995 3.40835 16.0071C3.28771 16.0153 3.11408 16.0363 2.92597 16.1142L3.69134 17.9619C3.64357 17.9817 3.60261 17.9922 3.57478 17.9976C3.54934 18.0026 3.53625 18.003 3.54449 18.0024C3.55305 18.0019 3.57169 18.001 3.60886 18.0005C3.64604 18 3.68985 18 3.75 18V16ZM4 17.75C4 17.6898 4.00002 17.646 4.00051 17.6089C4.001 17.5717 4.00185 17.5531 4.00244 17.5445C4.003 17.5363 4.00257 17.5493 3.99762 17.5748C3.9922 17.6026 3.98173 17.6436 3.96194 17.6913L2.11418 16.926C2.03627 17.1141 2.01531 17.2877 2.00708 17.4084C1.99946 17.52 2 17.6472 2 17.75H4ZM2.92597 16.1142C2.55843 16.2664 2.26642 16.5584 2.11418 16.926L3.96194 17.6913C3.91119 17.8139 3.81386 17.9112 3.69134 17.9619L2.92597 16.1142ZM6.25 18C6.31015 18 6.35396 18 6.39114 18.0005C6.42831 18.001 6.44695 18.0019 6.45551 18.0024C6.46375 18.003 6.45066 18.0026 6.42522 17.9976C6.39739 17.9922 6.35643 17.9817 6.30866 17.9619L7.07403 16.1142C6.88593 16.0363 6.71229 16.0153 6.59165 16.0071C6.47999 15.9995 6.3528 16 6.25 16V18ZM8 17.75C8 17.6472 8.00054 17.52 7.99292 17.4084C7.98469 17.2877 7.96373 17.1141 7.88582 16.926L6.03806 17.6913C6.01827 17.6436 6.0078 17.6026 6.00238 17.5748C5.99743 17.5493 5.997 17.5363 5.99756 17.5445C5.99815 17.5531 5.999 17.5717 5.99949 17.6089C5.99998 17.646 6 17.6898 6 17.75H8ZM6.30866 17.9619C6.18614 17.9112 6.08881 17.8139 6.03806 17.6913L7.88582 16.926C7.73358 16.5584 7.44157 16.2664 7.07403 16.1142L6.30866 17.9619Z" fill="currentColor"/>
</svg>
