<svg width="24" height="24" viewBox="0 0 24 24" fill="none" xmlns="http://www.w3.org/2000/svg">
<path d="M12.0002 12L16.5714 7.42857M11.8571 7H16.3939C16.7286 7 17 7.27136 17 7.60609V12.1429M6.2 21H8.8C9.9201 21 10.4802 21 10.908 20.782C11.2843 20.5903 11.5903 20.2843 11.782 19.908C12 19.4802 12 18.9201 12 17.8V15.2C12 14.0799 12 13.5198 11.782 13.092C11.5903 12.7157 11.2843 12.4097 10.908 12.218C10.4802 12 9.92011 12 8.8 12H6.2C5.0799 12 4.51984 12 4.09202 12.218C3.71569 12.4097 3.40973 12.7157 3.21799 13.092C3 13.5198 3 14.0799 3 15.2V17.8C3 18.9201 3 19.4802 3.21799 19.908C3.40973 20.2843 3.71569 20.5903 4.09202 20.782C4.51984 21 5.07989 21 6.2 21ZM10.2 17H17.8C18.9201 17 19.4802 17 19.908 16.782C20.2843 16.5903 20.5903 16.2843 20.782 15.908C21 15.4802 21 14.9201 21 13.8V6.2C21 5.0799 21 4.51984 20.782 4.09202C20.5903 3.71569 20.2843 3.40973 19.908 3.21799C19.4802 3 18.9201 3 17.8 3H10.2C9.07989 3 8.51984 3 8.09202 3.21799C7.71569 3.40973 7.40973 3.71569 7.21799 4.09202C7 4.51984 7 5.07989 7 6.2V13.8C7 14.9201 7 15.4802 7.21799 15.908C7.40973 16.2843 7.71569 16.5903 8.09202 16.782C8.51984 17 9.07989 17 10.2 17Z" stroke="black" stroke-width="2" stroke-linecap="round"/>
</svg>
