<svg viewBox="0 0 24 24" fill="none" xmlns="http://www.w3.org/2000/svg">
<path d="M3.0286 12C2.47631 12 2.0286 12.4477 2.0286 13C2.0286 13.5523 2.47631 14 3.0286 14V12ZM12.9714 14C13.5237 14 13.9714 13.5523 13.9714 13C13.9714 12.4477 13.5237 12 12.9714 12V14ZM4.09202 20.782L4.54601 19.891H4.54601L4.09202 20.782ZM3.21799 19.908L2.32698 20.362L3.21799 19.908ZM12.782 19.908L13.673 20.362L13.673 20.362L12.782 19.908ZM11.908 20.782L12.362 21.673H12.362L11.908 20.782ZM3.1 12.8667L3.9 13.4667H3.9L3.1 12.8667ZM12.9 12.8667L12.1 13.4667L12.1 13.4667L12.9 12.8667ZM13 4C12.4477 4 12 4.44772 12 5C12 5.55228 12.4477 6 13 6V4ZM13.01 6C13.5623 6 14.01 5.55228 14.01 5C14.01 4.44772 13.5623 4 13.01 4V6ZM21 4C20.4477 4 20 4.44772 20 5C20 5.55228 20.4477 6 21 6V4ZM21.01 6C21.5623 6 22.01 5.55228 22.01 5C22.01 4.44772 21.5623 4 21.01 4V6ZM15 2C14.4477 2 14 2.44772 14 3C14 3.55228 14.4477 4 15 4V2ZM15.01 4C15.5623 4 16.01 3.55228 16.01 3C16.01 2.44772 15.5623 2 15.01 2V4ZM17 4C16.4477 4 16 4.44772 16 5C16 5.55228 16.4477 6 17 6V4ZM17.01 6C17.5623 6 18.01 5.55228 18.01 5C18.01 4.44772 17.5623 4 17.01 4V6ZM17 8C16.4477 8 16 8.44772 16 9C16 9.55228 16.4477 10 17 10V8ZM17.01 10C17.5623 10 18.01 9.55228 18.01 9C18.01 8.44772 17.5623 8 17.01 8V10ZM15 6C14.4477 6 14 6.44772 14 7C14 7.55228 14.4477 8 15 8V6ZM15.01 8C15.5623 8 16.01 7.55228 16.01 7C16.01 6.44772 15.5623 6 15.01 6V8ZM19 6C18.4477 6 18 6.44772 18 7C18 7.55228 18.4477 8 19 8V6ZM19.01 8C19.5623 8 20.01 7.55228 20.01 7C20.01 6.44772 19.5623 6 19.01 6V8ZM3.0286 14H12.9714V12H3.0286V14ZM12 14.6V17.8H14V14.6H12ZM9.8 20H6.2V22H9.8V20ZM4 17.8V14.6H2V17.8H4ZM6.2 20C5.62345 20 5.25117 19.9992 4.96784 19.9761C4.69617 19.9539 4.59545 19.9162 4.54601 19.891L3.63803 21.673C4.01641 21.8658 4.40963 21.9371 4.80497 21.9694C5.18864 22.0008 5.65645 22 6.2 22V20ZM2 17.8C2 18.3436 1.99922 18.8114 2.03057 19.195C2.06287 19.5904 2.13419 19.9836 2.32698 20.362L4.10899 19.454C4.0838 19.4045 4.04612 19.3038 4.02393 19.0322C4.00078 18.7488 4 18.3766 4 17.8H2ZM4.54601 19.891C4.35785 19.7951 4.20487 19.6422 4.10899 19.454L2.32698 20.362C2.6146 20.9265 3.07354 21.3854 3.63803 21.673L4.54601 19.891ZM12 17.8C12 18.3766 11.9992 18.7488 11.9761 19.0322C11.9539 19.3038 11.9162 19.4045 11.891 19.454L13.673 20.362C13.8658 19.9836 13.9371 19.5904 13.9694 19.195C14.0008 18.8114 14 18.3436 14 17.8H12ZM9.8 22C10.3436 22 10.8114 22.0008 11.195 21.9694C11.5904 21.9371 11.9836 21.8658 12.362 21.673L11.454 19.891C11.4045 19.9162 11.3038 19.9539 11.0322 19.9761C10.7488 19.9992 10.3766 20 9.8 20V22ZM11.891 19.454C11.7951 19.6422 11.6422 19.7951 11.454 19.891L12.362 21.673C12.9265 21.3854 13.3854 20.9265 13.673 20.362L11.891 19.454ZM3.9 13.4667L6.8 9.6L5.2 8.4L2.3 12.2667L3.9 13.4667ZM6 10H10V8H6V10ZM9.2 9.6L12.1 13.4667L13.7 12.2667L10.8 8.4L9.2 9.6ZM2 13.1667V14H4V13.1667H2ZM12 13.1667V14H14V13.1667H12ZM12.1 13.4667C12.0351 13.3801 12 13.2749 12 13.1667H14C14 12.8421 13.8947 12.5263 13.7 12.2667L12.1 13.4667ZM2.3 12.2667C2.10527 12.5263 2 12.8421 2 13.1667H4C4 13.2749 3.96491 13.3801 3.9 13.4667L2.3 12.2667ZM7 9V6H5V9H7ZM9 6V9H11V6H9ZM8 5C8.55228 5 9 5.44772 9 6H11C11 4.34315 9.65685 3 8 3V5ZM7 6C7 5.44772 7.44772 5 8 5V3C6.34315 3 5 4.34315 5 6H7ZM13 6H13.01V4H13V6ZM21 6H21.01V4H21V6ZM15 4H15.01V2H15V4ZM17 6H17.01V4H17V6ZM17 10H17.01V8H17V10ZM15 8H15.01V6H15V8ZM19 8H19.01V6H19V8ZM14 14.6V14H12V14.6H14ZM4 14.6V14H2V14.6H4Z" fill="black"/>
</svg>
