<svg viewBox="0 0 24 24" fill="none" xmlns="http://www.w3.org/2000/svg">
<path d="M1.54497 20.27L2.43597 19.816H2.43597L1.54497 20.27ZM3.73005 22.455L3.27606 23.346L3.73005 22.455ZM20.27 1.54497L19.816 2.43597V2.43597L20.27 1.54497ZM22.455 3.73005L21.564 4.18404V4.18404L22.455 3.73005ZM3.73005 1.54497L4.18404 2.43597L3.73005 1.54497ZM1.54497 3.73005L2.43597 4.18404L1.54497 3.73005ZM22 13C22 13.5523 22.4477 14 23 14C23.5523 14 24 13.5523 24 13H22ZM8 22.9989L7.99644 23.9989H8V22.9989ZM11 23.9989C11.5523 23.9989 12 23.5512 12 22.9989C12 22.4466 11.5523 21.9989 11 21.9989V23.9989ZM6.70711 5.29289C6.31658 4.90237 5.68342 4.90237 5.29289 5.29289C4.90237 5.68342 4.90237 6.31658 5.29289 6.70711L6.70711 5.29289ZM8.64645 9.35355L9.35355 10.0607L8.64645 9.35355ZM5.29289 11.2929C4.90237 11.6834 4.90237 12.3166 5.29289 12.7071C5.68342 13.0976 6.31658 13.0976 6.70711 12.7071L5.29289 11.2929ZM21.2929 23.7071C21.6834 24.0976 22.3166 24.0976 22.7071 23.7071C23.0976 23.3166 23.0976 22.6834 22.7071 22.2929L21.2929 23.7071ZM9 2H15V0H9V2ZM2 15V9H0V15H2ZM0 15C0 16.3836 -0.000777721 17.4815 0.071442 18.3654C0.144616 19.261 0.297677 20.0247 0.653961 20.7239L2.43597 19.816C2.24729 19.4457 2.12787 18.9745 2.0648 18.2026C2.00078 17.419 2 16.4166 2 15H0ZM4.18404 21.564C3.43139 21.1805 2.81947 20.5686 2.43597 19.816L0.653961 20.7239C1.2292 21.8529 2.14708 22.7708 3.27606 23.346L4.18404 21.564ZM15 2C16.4166 2 17.419 2.00078 18.2026 2.0648C18.9745 2.12787 19.4457 2.24729 19.816 2.43597L20.7239 0.653961C20.0247 0.297677 19.261 0.144616 18.3654 0.071442C17.4815 -0.000777721 16.3836 0 15 0V2ZM24 9C24 7.61637 24.0008 6.51851 23.9286 5.63458C23.8554 4.73898 23.7023 3.9753 23.346 3.27606L21.564 4.18404C21.7527 4.55435 21.8721 5.02552 21.9352 5.79744C21.9992 6.58104 22 7.58337 22 9H24ZM19.816 2.43597C20.5686 2.81947 21.1805 3.43139 21.564 4.18404L23.346 3.27606C22.7708 2.14708 21.8529 1.2292 20.7239 0.653961L19.816 2.43597ZM9 0C7.61637 0 6.51851 -0.000777721 5.63458 0.071442C4.73898 0.144616 3.9753 0.297677 3.27606 0.653961L4.18404 2.43597C4.55435 2.24729 5.02552 2.12787 5.79744 2.0648C6.58104 2.00078 7.58337 2 9 2V0ZM2 9C2 7.58337 2.00078 6.58104 2.0648 5.79744C2.12787 5.02552 2.24729 4.55435 2.43597 4.18404L0.653961 3.27606C0.297677 3.9753 0.144616 4.73898 0.071442 5.63458C-0.000777721 6.51851 0 7.61637 0 9H2ZM3.27606 0.653961C2.14708 1.2292 1.2292 2.14708 0.653961 3.27606L2.43597 4.18404C2.81947 3.43139 3.43139 2.81947 4.18404 2.43597L3.27606 0.653961ZM22 9V13H24V9H22ZM8.00356 21.9989C5.78993 21.991 4.86497 21.911 4.18404 21.564L3.27606 23.346C4.46296 23.9508 5.90993 23.9915 7.99644 23.9989L8.00356 21.9989ZM8 23.9989H11V21.9989H8V23.9989ZM5.29289 6.70711L7.93934 9.35355L9.35355 7.93934L6.70711 5.29289L5.29289 6.70711ZM7.93934 8.64645L5.29289 11.2929L6.70711 12.7071L9.35355 10.0607L7.93934 8.64645ZM7.93934 9.35355C7.74408 9.15829 7.74408 8.84171 7.93934 8.64645L9.35355 10.0607C9.93934 9.47487 9.93934 8.52513 9.35355 7.93934L7.93934 9.35355ZM19.4118 17.7059C19.4118 19.2003 18.2003 20.4118 16.7059 20.4118V22.4118C19.3049 22.4118 21.4118 20.3049 21.4118 17.7059H19.4118ZM16.7059 20.4118C15.2115 20.4118 14 19.2003 14 17.7059H12C12 20.3049 14.1069 22.4118 16.7059 22.4118V20.4118ZM14 17.7059C14 16.2115 15.2115 15 16.7059 15V13C14.1069 13 12 15.1069 12 17.7059H14ZM16.7059 15C18.2003 15 19.4118 16.2115 19.4118 17.7059H21.4118C21.4118 15.1069 19.3049 13 16.7059 13V15ZM18.6458 21.06L21.2929 23.7071L22.7071 22.2929L20.06 19.6458L18.6458 21.06Z" fill="black"/>
</svg>
