<svg width="24" height="24" viewBox="0 0 24 24" fill="none" xmlns="http://www.w3.org/2000/svg">
<path d="M3.7292 22.4551L3.27521 23.3461L3.7292 22.4551ZM1.54412 20.2701L2.43513 19.8161H2.43513L1.54412 20.2701ZM22.4542 20.2701L21.5632 19.8161V19.8161L22.4542 20.2701ZM20.2691 22.4551L19.8151 21.5641L20.2691 22.4551ZM20.2691 1.54508L19.8151 2.43608L20.2691 1.54508ZM22.4542 3.73016L23.3452 3.27617L22.4542 3.73016ZM3.7292 1.54508L4.18319 2.43608V2.43608L3.7292 1.54508ZM1.54412 3.73016L2.43513 4.18415L1.54412 3.73016ZM8.00271 2.00121C8.55499 1.99925 9.00111 1.54994 8.99915 0.997661C8.99718 0.44538 8.54787 -0.00073874 7.99559 0.00122702L8.00271 2.00121ZM16.0027 0.00122702C15.4504 -0.00073874 15.0011 0.44538 14.9992 0.997661C14.9972 1.54994 15.4433 1.99925 15.9956 2.00121L16.0027 0.00122702ZM2 15.9159C1.99837 15.3636 1.54934 14.9172 0.997062 14.9188C0.444779 14.9204 -0.0016185 15.3695 4.29153e-06 15.9218L2 15.9159ZM23.9983 15.9218C23.9999 15.3695 23.5535 14.9204 23.0012 14.9188C22.449 14.9172 21.9999 15.3636 21.9983 15.9159L23.9983 15.9218ZM21.998 8.00367C22 8.55595 22.4493 9.00207 23.0016 9.0001C23.5539 8.99814 24 8.54883 23.998 7.99655L21.998 8.00367ZM7.99559 23.999C8.54787 24.001 8.99718 23.5548 8.99915 23.0026C9.00111 22.4503 8.55499 22.001 8.00271 21.999L7.99559 23.999ZM15.9957 21.999C15.4434 22.001 14.9973 22.4503 14.9993 23.0026C15.0013 23.5548 15.4506 24.001 16.0028 23.999L15.9957 21.999ZM0.000269949 7.99655C-0.00169587 8.54883 0.444423 8.99814 0.996704 9.0001C1.54899 9.00207 1.99829 8.55595 2.00026 8.00367L0.000269949 7.99655ZM5.87285 9.84423L4.89883 9.61778L4.89203 9.64704L4.88699 9.67666L5.87285 9.84423ZM13.0757 5.35886L12.8493 6.33288L13.0757 5.35886ZM16.5871 12.3353C16.462 12.8732 16.7967 13.4107 17.3346 13.5358C17.8726 13.6608 18.4101 13.3261 18.5351 12.7882L16.5871 12.3353ZM7.96438 19.6586C8.32806 20.0742 8.95982 20.1164 9.37546 19.7527C9.79109 19.389 9.83321 18.7572 9.46953 18.3416L7.96438 19.6586ZM9.10067 10.502L10.0511 10.813L10.0595 10.7871L10.0666 10.7608L9.10067 10.502ZM13.3668 11.6451C13.2239 12.1785 13.5405 12.7269 14.0739 12.8698C14.6074 13.0128 15.1557 12.6962 15.2987 12.1627L13.3668 11.6451ZM13.2384 19.8781C13.7233 20.1426 14.3307 19.9639 14.5952 19.4791C14.8596 18.9942 14.681 18.3868 14.1961 18.1223L13.2384 19.8781ZM12.717 11.203C12.717 10.6507 12.2692 10.203 11.717 10.203C11.1647 10.203 10.717 10.6507 10.717 11.203H12.717ZM16.717 17.203C17.2692 17.203 17.717 16.7553 17.717 16.203C17.717 15.6507 17.2692 15.203 16.717 15.203V17.203ZM4.18319 21.5641C3.43054 21.1806 2.81862 20.5687 2.43513 19.8161L0.653113 20.7241C1.22835 21.853 2.14624 22.7709 3.27521 23.3461L4.18319 21.5641ZM21.5632 19.8161C21.1797 20.5687 20.5678 21.1806 19.8151 21.5641L20.7231 23.3461C21.8521 22.7709 22.77 21.853 23.3452 20.7241L21.5632 19.8161ZM19.8151 2.43608C20.5678 2.81958 21.1797 3.4315 21.5632 4.18415L23.3452 3.27617C22.77 2.14719 21.8521 1.22931 20.7231 0.65407L19.8151 2.43608ZM3.27521 0.65407C2.14624 1.22931 1.22835 2.14719 0.653113 3.27617L2.43513 4.18415C2.81862 3.4315 3.43054 2.81958 4.18319 2.43608L3.27521 0.65407ZM7.99559 0.00122702C5.90908 0.00865394 4.46212 0.0493107 3.27521 0.65407L4.18319 2.43608C4.86412 2.08913 5.78908 2.00909 8.00271 2.00121L7.99559 0.00122702ZM15.9956 2.00121C18.2092 2.00909 19.1342 2.08913 19.8151 2.43608L20.7231 0.65407C19.5362 0.0493107 18.0892 0.00865394 16.0027 0.00122702L15.9956 2.00121ZM4.29153e-06 15.9218C0.00627285 18.055 0.0415801 19.5239 0.653113 20.7241L2.43513 19.8161C2.08302 19.125 2.00667 18.1858 2 15.9159L4.29153e-06 15.9218ZM21.9983 15.9159C21.9916 18.1858 21.9153 19.125 21.5632 19.8161L23.3452 20.7241C23.9567 19.5239 23.992 18.055 23.9983 15.9218L21.9983 15.9159ZM23.998 7.99655C23.9906 5.91004 23.9499 4.46307 23.3452 3.27617L21.5632 4.18415C21.9101 4.86508 21.9902 5.79004 21.998 8.00367L23.998 7.99655ZM8.00271 21.999C5.78908 21.9911 4.86412 21.9111 4.18319 21.5641L3.27521 23.3461C4.46212 23.9509 5.90908 23.9916 7.99559 23.999L8.00271 21.999ZM16.0028 23.999C18.0893 23.9916 19.5362 23.9509 20.7231 23.3461L19.8151 21.5641C19.1342 21.9111 18.2093 21.9911 15.9957 21.999L16.0028 23.999ZM2.00026 8.00367C2.00814 5.79004 2.08817 4.86508 2.43513 4.18415L0.653113 3.27617C0.0483536 4.46307 0.00769687 5.91004 0.000269949 7.99655L2.00026 8.00367ZM6.84687 10.0707C7.47222 7.38101 10.1596 5.70753 12.8493 6.33288L13.3022 4.38484C9.53663 3.50935 5.77432 5.85222 4.89883 9.61778L6.84687 10.0707ZM12.8493 6.33288C15.539 6.95822 17.2124 9.64559 16.5871 12.3353L18.5351 12.7882C19.4106 9.02263 17.0677 5.26032 13.3022 4.38484L12.8493 6.33288ZM4.88699 9.67666C4.64305 11.1118 4.18532 15.3397 7.96438 19.6586L9.46953 18.3416C6.24858 14.6605 6.66539 11.1492 6.85871 10.0118L4.88699 9.67666ZM10.0666 10.7608C10.3108 9.84946 11.2475 9.30864 12.1588 9.55283L12.6765 7.62097C10.6982 7.0909 8.66482 8.26489 8.13474 10.2432L10.0666 10.7608ZM12.1588 9.55283C13.0702 9.79702 13.611 10.7337 13.3668 11.6451L15.2987 12.1627C15.8287 10.1845 14.6547 8.15105 12.6765 7.62097L12.1588 9.55283ZM8.15028 10.1909C7.94257 10.8255 7.71233 12.4117 8.28003 14.2576C8.86178 16.1492 10.264 18.2557 13.2384 19.8781L14.1961 18.1223C11.6703 16.7446 10.6168 15.0521 10.1917 13.6697C9.75248 12.2417 9.9641 11.0787 10.0511 10.813L8.15028 10.1909ZM10.717 11.203C10.717 12.1963 11.0067 13.6641 11.9054 14.9123C12.8408 16.2114 14.391 17.203 16.717 17.203V15.203C15.0429 15.203 14.0931 14.5278 13.5285 13.7437C12.9272 12.9085 12.717 11.8763 12.717 11.203H10.717Z" fill="black"/>
</svg>
