<svg width="24" height="24" viewBox="0 0 24 24" fill="none" xmlns="http://www.w3.org/2000/svg">
<path d="M3.73005 22.455L4.18404 21.564H4.18404L3.73005 22.455ZM1.54497 20.27L2.43597 19.816H2.43597L1.54497 20.27ZM20.27 1.54497L19.816 2.43597V2.43597L20.27 1.54497ZM22.455 3.73005L21.564 4.18404V4.18404L22.455 3.73005ZM3.73005 1.54497L4.18404 2.43597L3.73005 1.54497ZM1.54497 3.73005L2.43597 4.18404L1.54497 3.73005ZM22 12C22 12.5523 22.4477 13 23 13C23.5523 13 24 12.5523 24 12H22ZM12 24C12.5523 24 13 23.5523 13 23C13 22.4477 12.5523 22 12 22V24ZM16 16C15.4477 16 15 16.4477 15 17C15 17.5523 15.4477 18 16 18V16ZM18.1022 18.0172L17.2812 17.4462H17.2812L18.1022 18.0172ZM20.8944 21.4472C21.1414 20.9532 20.9412 20.3526 20.4472 20.1056C19.9532 19.8586 19.3526 20.0588 19.1056 20.5528L20.8944 21.4472ZM17.6248 11.6249C17.0725 11.6249 16.6248 12.0727 16.6248 12.6249C16.6248 13.1772 17.0725 13.6249 17.6248 13.6249V11.6249ZM18.3748 13.6249C18.927 13.6249 19.3748 13.1772 19.3748 12.6249C19.3748 12.0727 18.927 11.6249 18.3748 11.6249V13.6249ZM17.6248 12.3749C17.0725 12.3749 16.6248 12.8227 16.6248 13.3749C16.6248 13.9272 17.0725 14.3749 17.6248 14.3749V12.3749ZM18.3748 14.3749C18.927 14.3749 19.3748 13.9272 19.3748 13.3749C19.3748 12.8227 18.927 12.3749 18.3748 12.3749V14.3749ZM1 7C0.447715 7 0 7.44772 0 8C0 8.55228 0.447715 9 1 9V7ZM23 9C23.5523 9 24 8.55228 24 8C24 7.44772 23.5523 7 23 7V9ZM6 5C6 4.44772 5.55228 4 5 4C4.44772 4 4 4.44772 4 5H6ZM9 5C9 4.44772 8.55228 4 8 4C7.44772 4 7 4.44772 7 5H9ZM12 5C12 4.44772 11.5523 4 11 4C10.4477 4 10 4.44772 10 5H12ZM4 5.01C4 5.56228 4.44772 6.01 5 6.01C5.55228 6.01 6 5.56228 6 5.01H4ZM7 5.01C7 5.56228 7.44772 6.01 8 6.01C8.55228 6.01 9 5.56228 9 5.01H7ZM10 5.01C10 5.56228 10.4477 6.01 11 6.01C11.5523 6.01 12 5.56228 12 5.01H10ZM9 2H15V0H9V2ZM2 15V9H0V15H2ZM9 22C7.58337 22 6.58104 21.9992 5.79744 21.9352C5.02552 21.8721 4.55435 21.7527 4.18404 21.564L3.27606 23.346C3.9753 23.7023 4.73898 23.8554 5.63458 23.9286C6.51851 24.0008 7.61637 24 9 24V22ZM0 15C0 16.3836 -0.000777721 17.4815 0.071442 18.3654C0.144616 19.261 0.297677 20.0247 0.653961 20.7239L2.43597 19.816C2.24729 19.4457 2.12787 18.9745 2.0648 18.2026C2.00078 17.419 2 16.4166 2 15H0ZM4.18404 21.564C3.43139 21.1805 2.81947 20.5686 2.43597 19.816L0.653961 20.7239C1.2292 21.8529 2.14708 22.7708 3.27606 23.346L4.18404 21.564ZM15 2C16.4166 2 17.419 2.00078 18.2026 2.0648C18.9745 2.12787 19.4457 2.24729 19.816 2.43597L20.7239 0.653961C20.0247 0.297677 19.261 0.144616 18.3654 0.071442C17.4815 -0.000777721 16.3836 0 15 0V2ZM24 9C24 7.61637 24.0008 6.51851 23.9286 5.63458C23.8554 4.73898 23.7023 3.9753 23.346 3.27606L21.564 4.18404C21.7527 4.55435 21.8721 5.02552 21.9352 5.79744C21.9992 6.58104 22 7.58337 22 9H24ZM19.816 2.43597C20.5686 2.81947 21.1805 3.43139 21.564 4.18404L23.346 3.27606C22.7708 2.14708 21.8529 1.2292 20.7239 0.653961L19.816 2.43597ZM9 0C7.61637 0 6.51851 -0.000777721 5.63458 0.071442C4.73898 0.144616 3.9753 0.297677 3.27606 0.653961L4.18404 2.43597C4.55435 2.24729 5.02552 2.12787 5.79744 2.0648C6.58104 2.00078 7.58337 2 9 2V0ZM2 9C2 7.58337 2.00078 6.58104 2.0648 5.79744C2.12787 5.02552 2.24729 4.55435 2.43597 4.18404L0.653961 3.27606C0.297677 3.9753 0.144616 4.73898 0.071442 5.63458C-0.000777721 6.51851 0 7.61637 0 9H2ZM3.27606 0.653961C2.14708 1.2292 1.2292 2.14708 0.653961 3.27606L2.43597 4.18404C2.81947 3.43139 3.43139 2.81947 4.18404 2.43597L3.27606 0.653961ZM22 9V12H24V9H22ZM12 22H9V24H12V22ZM16 18H17.6395V16H16V18ZM17.2812 17.4462C16.5937 18.4346 16 19.7789 16 21H18C18 20.3423 18.3609 19.3965 18.9231 18.5882L17.2812 17.4462ZM16 21C16 22.2554 16.881 23.1931 18.0255 23.3075C19.1669 23.4217 20.2602 22.7157 20.8944 21.4472L19.1056 20.5528C18.7398 21.2843 18.3331 21.3283 18.2245 21.3175C18.1516 21.3102 18.1034 21.2808 18.0727 21.2465C18.0449 21.2155 18 21.1454 18 21H16ZM17.6395 18C17.3658 18 17.2489 17.812 17.2294 17.7675C17.2116 17.727 17.1744 17.5999 17.2812 17.4462L18.9231 18.5882C19.2957 18.0526 19.2598 17.4169 19.0606 16.9633C18.8596 16.5056 18.3785 16 17.6395 16V18ZM18 13V15C19.1046 15 20 14.1046 20 13H18ZM18 13H16C16 14.1046 16.8954 15 18 15V13ZM18 13V11C16.8954 11 16 11.8954 16 13H18ZM18 13H20C20 11.8954 19.1046 11 18 11V13ZM17.6248 13.6249H18.3748V11.6249H17.6248V13.6249ZM17.6248 14.3749H18.3748V12.3749H17.6248V14.3749ZM1 9H23V7H1V9ZM4 5V5.01H6V5H4ZM7 5V5.01H9V5H7ZM10 5V5.01H12V5H10Z" fill="black"/>
</svg>
