<svg viewBox="0 0 24 24" fill="none" xmlns="http://www.w3.org/2000/svg">
<path d="M6.70711 9.29289C6.31658 8.90237 5.68342 8.90237 5.29289 9.29289C4.90237 9.68342 4.90237 10.3166 5.29289 10.7071L6.70711 9.29289ZM8.64645 12.6464L9.35355 11.9393L8.64645 12.6464ZM8.64645 13.3536L9.35355 14.0607L8.64645 13.3536ZM5.29289 15.2929C4.90237 15.6834 4.90237 16.3166 5.29289 16.7071C5.68342 17.0976 6.31658 17.0976 6.70711 16.7071L5.29289 15.2929ZM11 15C10.4477 15 10 15.4477 10 16C10 16.5523 10.4477 17 11 17V15ZM14 17C14.5523 17 15 16.5523 15 16C15 15.4477 14.5523 15 14 15V17ZM3.73005 22.455L4.18404 21.564H4.18404L3.73005 22.455ZM1.54497 20.27L2.43597 19.816H2.43597L1.54497 20.27ZM22.455 20.27L21.564 19.816V19.816L22.455 20.27ZM20.27 22.455L19.816 21.564H19.816L20.27 22.455ZM20.27 1.54497L19.816 2.43597V2.43597L20.27 1.54497ZM22.952 6L23.9502 5.93905L22.952 6ZM22.455 3.73005L21.564 4.18404V4.18404L22.455 3.73005ZM3.73005 1.54497L4.18404 2.43597L3.73005 1.54497ZM1.54497 3.73005L2.43597 4.18404H2.43597L1.54497 3.73005ZM5.29289 10.7071L7.93934 13.3536L9.35355 11.9393L6.70711 9.29289L5.29289 10.7071ZM7.93934 12.6464L5.29289 15.2929L6.70711 16.7071L9.35355 14.0607L7.93934 12.6464ZM7.93934 13.3536C7.74408 13.1583 7.74408 12.8417 7.93934 12.6464L9.35355 14.0607C9.93934 13.4749 9.93934 12.5251 9.35355 11.9393L7.93934 13.3536ZM11 17H14V15H11V17ZM9 2H15V0H9V2ZM22 9V15H24V9H22ZM15 22H9V24H15V22ZM2 15V9H0V15H2ZM9 22C7.58337 22 6.58104 21.9992 5.79744 21.9352C5.02552 21.8721 4.55435 21.7527 4.18404 21.564L3.27606 23.346C3.9753 23.7023 4.73898 23.8554 5.63458 23.9286C6.51851 24.0008 7.61637 24 9 24V22ZM0 15C0 16.3836 -0.000777721 17.4815 0.071442 18.3654C0.144616 19.261 0.297677 20.0247 0.653961 20.7239L2.43597 19.816C2.24729 19.4457 2.12787 18.9745 2.0648 18.2026C2.00078 17.419 2 16.4166 2 15H0ZM4.18404 21.564C3.43139 21.1805 2.81947 20.5686 2.43597 19.816L0.653961 20.7239C1.2292 21.8529 2.14708 22.7708 3.27606 23.346L4.18404 21.564ZM22 15C22 16.4166 21.9992 17.419 21.9352 18.2026C21.8721 18.9745 21.7527 19.4457 21.564 19.816L23.346 20.7239C23.7023 20.0247 23.8554 19.261 23.9286 18.3654C24.0008 17.4815 24 16.3836 24 15H22ZM15 24C16.3836 24 17.4815 24.0008 18.3654 23.9286C19.261 23.8554 20.0247 23.7023 20.7239 23.346L19.816 21.564C19.4457 21.7527 18.9745 21.8721 18.2026 21.9352C17.419 21.9992 16.4166 22 15 22V24ZM21.564 19.816C21.1805 20.5686 20.5686 21.1805 19.816 21.564L20.7239 23.346C21.8529 22.7708 22.7708 21.8529 23.346 20.7239L21.564 19.816ZM15 2C16.4166 2 17.419 2.00078 18.2026 2.0648C18.9745 2.12787 19.4457 2.24729 19.816 2.43597L20.7239 0.653961C20.0247 0.297677 19.261 0.144616 18.3654 0.071442C17.4815 -0.000777721 16.3836 0 15 0V2ZM24 9C24 7.76594 24.0004 6.76216 23.9502 5.93905L21.9539 6.06095C21.9996 6.80924 22 7.74269 22 9H24ZM23.9502 5.93905C23.8872 4.90835 23.741 4.05112 23.346 3.27606L21.564 4.18404C21.7742 4.59651 21.8971 5.13059 21.9539 6.06095L23.9502 5.93905ZM19.816 2.43597C20.5686 2.81947 21.1805 3.43139 21.564 4.18404L23.346 3.27606C22.7708 2.14708 21.8529 1.2292 20.7239 0.653961L19.816 2.43597ZM9 0C7.61637 0 6.51851 -0.000777721 5.63458 0.071442C4.73898 0.144616 3.9753 0.297677 3.27606 0.653961L4.18404 2.43597C4.55435 2.24729 5.02552 2.12787 5.79744 2.0648C6.58104 2.00078 7.58337 2 9 2V0ZM2 9C2 7.74269 2.00042 6.80924 2.04611 6.06094L0.049832 5.93906C-0.000424862 6.76216 0 7.76594 0 9H2ZM2.04611 6.06094C2.10292 5.13059 2.22581 4.59651 2.43597 4.18404L0.653961 3.27606C0.259045 4.05112 0.112765 4.90835 0.049832 5.93906L2.04611 6.06094ZM3.27606 0.653961C2.14708 1.2292 1.2292 2.14708 0.653961 3.27606L2.43597 4.18404C2.81947 3.43139 3.43139 2.81947 4.18404 2.43597L3.27606 0.653961ZM1.04797 7H22.952V5H1.04797V7Z" fill="currentColor"/>
</svg>
