<svg viewBox="0 0 24 24" fill="none" xmlns="http://www.w3.org/2000/svg">
<path fill-rule="evenodd" clip-rule="evenodd" d="M15.0438 1.66704e-07H8.95624C7.5932 -7.76742e-06 6.50917 -1.42083e-05 5.63458 0.0714426C4.73898 0.144616 3.97531 0.297677 3.27606 0.653961C2.14709 1.2292 1.2292 2.14709 0.653961 3.27606C0.297677 3.97531 0.144616 4.73898 0.0714426 5.63458C0.063689 5.72948 0.0567768 5.82684 0.0506147 5.92676L0.0492204 5.94963C-1.25319e-05 6.76613 -6.81378e-06 7.75235 1.66704e-07 8.95623V15.0438C-7.76742e-06 16.4068 -1.42083e-05 17.4908 0.0714426 18.3654C0.144616 19.261 0.297677 20.0247 0.653961 20.7239C1.2292 21.8529 2.14709 22.7708 3.27606 23.346C3.9753 23.7023 4.73898 23.8554 5.63458 23.9286C6.50914 24 7.59313 24 8.95613 24H15.0438C16.4068 24 17.4909 24 18.3654 23.9286C19.261 23.8554 20.0247 23.7023 20.7239 23.346C21.8529 22.7708 22.7708 21.8529 23.346 20.7239C23.7023 20.0247 23.8554 19.261 23.9286 18.3654C24 17.4909 24 16.4069 24 15.0439V8.95622C24 7.7523 24 6.76605 23.9508 5.94954L23.9494 5.92686C23.9432 5.8269 23.9363 5.72951 23.9286 5.63458C23.8554 4.73898 23.7023 3.9753 23.346 3.27606C22.7708 2.14709 21.8529 1.2292 20.7239 0.653961C20.0247 0.297677 19.261 0.144616 18.3654 0.0714426C17.4908 -1.40816e-05 16.4068 -7.76744e-06 15.0438 1.66704e-07ZM2 9C2 8.21807 2.00024 7.56237 2.01122 7H21.9888C21.9998 7.56237 22 8.21807 22 9V15C22 16.4166 21.9992 17.419 21.9352 18.2026C21.8721 18.9745 21.7527 19.4457 21.564 19.816C21.1805 20.5686 20.5686 21.1805 19.816 21.564C19.4457 21.7527 18.9745 21.8721 18.2026 21.9352C17.419 21.9992 16.4166 22 15 22H9C7.58337 22 6.58104 21.9992 5.79744 21.9352C5.02552 21.8721 4.55435 21.7527 4.18404 21.564C3.43139 21.1805 2.81947 20.5686 2.43597 19.816C2.24729 19.4457 2.12787 18.9745 2.0648 18.2026C2.00078 17.419 2 16.4166 2 15V9ZM2.16889 5H21.8311C21.765 4.66334 21.6769 4.40563 21.564 4.18404C21.1805 3.43139 20.5686 2.81947 19.816 2.43597C19.4457 2.24729 18.9745 2.12787 18.2026 2.0648C17.419 2.00078 16.4166 2 15 2H9C7.58337 2 6.58104 2.00078 5.79744 2.0648C5.02552 2.12787 4.55435 2.24729 4.18404 2.43597C3.43139 2.81947 2.81947 3.43139 2.43597 4.18404C2.32307 4.40563 2.23496 4.66334 2.16889 5Z" fill="black"/>
<path fill-rule="evenodd" clip-rule="evenodd" d="M7.792 17.3321C8.24861 17.3321 8.62 16.9549 8.62 16.4961V15.3001H9.512C10.7671 15.3001 11.588 14.3079 11.588 13.2001C11.588 12.1722 10.7744 11.1001 9.512 11.1001H7.792C7.32522 11.1001 6.948 11.4715 6.948 11.9361V16.4961C6.948 16.9607 7.32522 17.3321 7.792 17.3321ZM8.62 12.6921V13.7081H9.392C9.66437 13.7081 9.892 13.4844 9.892 13.2001C9.892 12.9159 9.66437 12.6921 9.392 12.6921H8.62Z" fill="black"/>
<path d="M14.7587 13.0734L13.7906 11.4915L13.7891 11.4891C13.6841 11.321 13.46 11.0681 13.0707 11.0681C12.604 11.0681 12.2267 11.4395 12.2267 11.9041C12.2267 12.0693 12.2822 12.2284 12.3778 12.3773L12.3784 12.3783L13.9147 14.807V16.4961C13.9147 16.9772 14.3087 17.3321 14.7667 17.3321C15.2146 17.3321 15.6027 16.9716 15.6027 16.4961V14.807L17.1391 12.3783L17.1397 12.3774C17.2353 12.2285 17.2907 12.0693 17.2907 11.9041C17.2907 11.4395 16.9135 11.0681 16.4467 11.0681C16.0642 11.0681 15.8375 11.3046 15.7256 11.4935L14.7587 13.0734Z" fill="black"/>
</svg>
