<svg viewBox="0 0 24 24" fill="none" xmlns="http://www.w3.org/2000/svg">
<path fill-rule="evenodd" clip-rule="evenodd" d="M8.95624 1.72106e-07H15.0438C16.4068 -7.93413e-06 17.4908 -1.43722e-05 18.3654 0.0714424C19.261 0.144616 20.0247 0.297677 20.7239 0.653961C21.8529 1.2292 22.7708 2.14709 23.346 3.27606C23.7023 3.9753 23.8554 4.73898 23.9286 5.63458C23.9363 5.72951 23.9432 5.8269 23.9494 5.92686C23.9499 5.93439 23.9504 5.94195 23.9508 5.94954C24 6.76605 24 7.7523 24 8.95622V15.0438C24 16.4068 24 17.4908 23.9286 18.3654C23.8554 19.261 23.7023 20.0247 23.346 20.7239C22.7708 21.8529 21.8529 22.7708 20.7239 23.346C20.0247 23.7023 19.261 23.8554 18.3654 23.9286C17.4908 24 16.4068 24 15.0438 24H8.95622C7.59318 24 6.50916 24 5.63458 23.9286C4.73898 23.8554 3.9753 23.7023 3.27606 23.346C2.14709 22.7708 1.2292 21.8529 0.653961 20.7239C0.297677 20.0247 0.144616 19.261 0.0714424 18.3654C-1.43722e-05 17.4908 -7.93413e-06 16.4068 1.72105e-07 15.0438V8.95624C-6.98045e-06 7.75236 -1.28224e-05 6.76613 0.0492202 5.94963C0.0495995 5.94198 0.0500646 5.93436 0.0506145 5.92676C0.0567766 5.82684 0.0636888 5.72948 0.0714424 5.63458C0.144616 4.73898 0.297677 3.9753 0.653961 3.27606C1.2292 2.14708 2.14708 1.2292 3.27606 0.653961C3.9753 0.297677 4.73898 0.144616 5.63458 0.0714424C6.50917 -1.43722e-05 7.5932 -7.93413e-06 8.95624 1.72106e-07ZM2.01122 7C2.00024 7.56237 2 8.21807 2 9V15C2 16.4166 2.00078 17.419 2.0648 18.2026C2.12787 18.9745 2.24729 19.4457 2.43597 19.816C2.81947 20.5686 3.43139 21.1805 4.18404 21.564C4.55435 21.7527 5.02552 21.8721 5.79744 21.9352C6.58104 21.9992 7.58337 22 9 22H15C16.4166 22 17.419 21.9992 18.2026 21.9352C18.9745 21.8721 19.4457 21.7527 19.816 21.564C20.5686 21.1805 21.1805 20.5686 21.564 19.816C21.7527 19.4457 21.8721 18.9745 21.9352 18.2026C21.9992 17.419 22 16.4166 22 15V9C22 8.21807 21.9998 7.56237 21.9888 7H2.01122ZM21.8311 5H2.16889C2.23496 4.66334 2.32307 4.40563 2.43597 4.18404C2.81947 3.43139 3.43139 2.81947 4.18404 2.43597C4.55435 2.24729 5.02552 2.12787 5.79744 2.0648C6.58104 2.00078 7.58337 2 9 2H15C16.4166 2 17.419 2.00078 18.2026 2.0648C18.9745 2.12787 19.4457 2.24729 19.816 2.43597C20.5686 2.81947 21.1805 3.43139 21.564 4.18404C21.6769 4.40563 21.765 4.66334 21.8311 5Z" fill="black"/>
<path d="M8.65806 16.3955C8.2302 17.0094 7.49528 17.404 6.60394 17.404C5.2304 17.404 4.13594 16.3977 4.13594 14.952V13.448C4.13594 12.0023 5.2304 10.996 6.60394 10.996C7.49528 10.996 8.2302 11.3906 8.65806 12.0045L8.66161 12.0096C8.74389 12.133 8.83194 12.3191 8.83194 12.528C8.83194 12.9886 8.49053 13.364 8.00394 13.364C7.68392 13.364 7.45557 13.1835 7.28494 12.9754C7.0864 12.739 6.87915 12.636 6.60394 12.636C6.15332 12.636 5.80794 12.9335 5.80794 13.424V14.976C5.80794 15.4665 6.15332 15.764 6.60394 15.764C6.88329 15.764 7.12441 15.6341 7.27763 15.4338L7.27967 15.4311C7.36042 15.3279 7.45465 15.2254 7.57664 15.1509C7.70553 15.0723 7.84672 15.036 8.00394 15.036C8.47435 15.036 8.83194 15.4192 8.83194 15.88C8.83194 16.0926 8.74073 16.2716 8.66155 16.3904L8.65806 16.3955Z" fill="black"/>
<path d="M11.1131 15.3297C11.3575 15.5877 11.7549 15.78 12.0553 15.78C12.3116 15.78 12.4703 15.7222 12.5573 15.657C12.6341 15.5994 12.6753 15.5223 12.6753 15.408C12.6753 15.31 12.6482 15.2594 12.599 15.2137C12.5345 15.1537 12.4163 15.0901 12.2043 15.0219L11.445 14.7821C11.0722 14.6637 10.6945 14.4669 10.4079 14.1565C10.1158 13.8402 9.93131 13.4195 9.93131 12.888C9.93131 12.343 10.1607 11.8616 10.5623 11.5212C10.961 11.1832 11.5137 10.996 12.1513 10.996C13.0953 10.996 13.7619 11.4431 14.0228 11.7953C14.1111 11.9105 14.1953 12.0998 14.1953 12.296C14.1953 12.7355 13.8431 13.108 13.3913 13.108C13.1762 13.108 13.005 13.0371 12.8384 12.8938C12.6139 12.7108 12.3996 12.62 12.1513 12.62C11.9588 12.62 11.833 12.6661 11.7637 12.7169C11.7028 12.7616 11.6753 12.8152 11.6753 12.888C11.6753 12.9922 11.7336 13.0903 11.931 13.1544L12.8088 13.4337C13.1461 13.5391 13.5472 13.7069 13.8646 14.0161C14.1922 14.3351 14.4113 14.7854 14.4113 15.408C14.4113 16.4073 13.5709 17.404 12.0553 17.404C11.0679 17.404 10.2994 16.9393 9.85316 16.3291L9.85118 16.3264C9.77946 16.226 9.71531 16.078 9.71531 15.888C9.71531 15.4393 10.0847 15.076 10.5353 15.076C10.8486 15.076 11.0258 15.2422 11.1074 15.3239L11.1131 15.3297Z" fill="black"/>
<path d="M16.6475 15.3297C16.8919 15.5877 17.2893 15.78 17.5897 15.78C17.846 15.78 18.0047 15.7222 18.0917 15.657C18.1685 15.5994 18.2097 15.5223 18.2097 15.408C18.2097 15.31 18.1825 15.2594 18.1334 15.2137C18.0689 15.1537 17.9506 15.09 17.7385 15.0218L16.9793 14.7821C16.6066 14.6637 16.2289 14.4669 15.9423 14.1565C15.6502 13.8402 15.4657 13.4195 15.4657 12.888C15.4657 12.343 15.6951 11.8616 16.0967 11.5212C16.4953 11.1832 17.0481 10.996 17.6857 10.996C18.6296 10.996 19.2962 11.443 19.5571 11.7952C19.6455 11.9104 19.7297 12.0998 19.7297 12.296C19.7297 12.7355 19.3775 13.108 18.9257 13.108C18.7105 13.108 18.5394 13.0371 18.3728 12.8938C18.1482 12.7108 17.934 12.62 17.6857 12.62C17.4932 12.62 17.3674 12.6661 17.2981 12.7169C17.2372 12.7616 17.2097 12.8152 17.2097 12.888C17.2097 12.9922 17.268 13.0903 17.4654 13.1544L18.3432 13.4337C18.6805 13.5391 19.0815 13.7069 19.399 14.0161C19.7266 14.3351 19.9457 14.7854 19.9457 15.408C19.9457 16.4073 19.1052 17.404 17.5897 17.404C16.6022 17.404 15.8338 16.9393 15.3875 16.3291L15.3856 16.3264C15.3138 16.226 15.2497 16.078 15.2497 15.888C15.2497 15.4393 15.619 15.076 16.0697 15.076C16.3829 15.076 16.5602 15.2422 16.6418 15.3239L16.6475 15.3297Z" fill="black"/>
</svg>
