<svg viewBox="0 0 24 24" fill="none" xmlns="http://www.w3.org/2000/svg">
<path d="M3.73072 22.4552L4.18471 21.5642H4.18471L3.73072 22.4552ZM1.54564 20.2701L2.43665 19.8161H2.43665L1.54564 20.2701ZM22.4557 20.2701L21.5647 19.8161V19.8161L22.4557 20.2701ZM20.2706 22.4552L19.8166 21.5642H19.8166L20.2706 22.4552ZM20.2706 1.54515L19.8166 2.43616V2.43616L20.2706 1.54515ZM22.4557 3.73023L21.5647 4.18422V4.18422L22.4557 3.73023ZM3.73072 1.54515L4.18471 2.43616L3.73072 1.54515ZM1.54564 3.73023L2.43665 4.18422H2.43665L1.54564 3.73023ZM7.01993 2.01105C7.57211 2.00048 8.01117 1.54428 8.0006 0.992092C7.99003 0.439908 7.53383 0.000843525 6.98165 0.0114136L7.01993 2.01105ZM0.011902 6.98106C0.00133038 7.53324 0.440394 7.98944 0.992577 8.00002C1.54476 8.01059 2.00096 7.57152 2.01154 7.01934L0.011902 6.98106ZM2.01154 16.981C2.00096 16.4288 1.54476 15.9898 0.992577 16.0004C0.440394 16.0109 0.00133038 16.4671 0.011902 17.0193L2.01154 16.981ZM6.98165 23.989C7.53383 23.9995 7.99003 23.5605 8.0006 23.0083C8.01117 22.4561 7.57211 21.9999 7.01993 21.9893L6.98165 23.989ZM16.9814 21.9893C16.4292 21.9999 15.9902 22.4561 16.0008 23.0083C16.0113 23.5605 16.4675 23.9995 17.0197 23.989L16.9814 21.9893ZM23.9894 17.0193C24 16.4671 23.5609 16.0109 23.0088 16.0004C22.4566 15.9898 22.0004 16.4288 21.9898 16.981L23.9894 17.0193ZM21.9898 7.01934C22.0004 7.57152 22.4566 8.01059 23.0088 8.00002C23.5609 7.98944 24 7.53324 23.9894 6.98106L21.9898 7.01934ZM17.0197 0.0114136C16.4675 0.000843287 16.0113 0.439907 16.0008 0.992091C15.9902 1.54427 16.4292 2.00048 16.9814 2.01105L17.0197 0.0114136ZM6.73804 18.6534L7.19203 17.7624L6.73804 18.6534ZM5.34753 17.2629L4.45652 17.7169H4.45652L5.34753 17.2629ZM18.6539 17.2629L17.7629 16.8089L18.6539 17.2629ZM17.2634 18.6534L16.8094 17.7624L17.2634 18.6534ZM17.2634 5.34698L17.7174 4.45597V4.45597L17.2634 5.34698ZM18.6539 6.73749L17.7629 7.19148L18.6539 6.73749ZM6.73804 5.34698L7.19203 6.23799L6.73804 5.34698ZM5.34753 6.73749L6.23854 7.19148L5.34753 6.73749ZM5.00073 10.0002C4.44845 10.0002 4.00073 10.4479 4.00073 11.0002C4.00073 11.5525 4.44845 12.0002 5.00073 12.0002V10.0002ZM19.0007 12.0002C19.553 12.0002 20.0007 11.5525 20.0007 11.0002C20.0007 10.4479 19.553 10.0002 19.0007 10.0002V12.0002ZM12.0007 8.00018C12.0007 7.4479 11.553 7.00018 11.0007 7.00018C10.4484 7.00018 10.0007 7.4479 10.0007 8.00018H12.0007ZM10.0007 8.01018C10.0007 8.56247 10.4484 9.01018 11.0007 9.01018C11.553 9.01018 12.0007 8.56247 12.0007 8.01018H10.0007ZM9.00073 8.00018C9.00073 7.4479 8.55302 7.00018 8.00073 7.00018C7.44845 7.00018 7.00073 7.4479 7.00073 8.00018H9.00073ZM7.00073 8.01018C7.00073 8.56247 7.44845 9.01018 8.00073 9.01018C8.55302 9.01018 9.00073 8.56247 9.00073 8.01018H7.00073ZM4.18471 21.5642C3.43206 21.1807 2.82014 20.5688 2.43665 19.8161L0.654632 20.7241C1.22987 21.8531 2.14776 22.771 3.27673 23.3462L4.18471 21.5642ZM21.5647 19.8161C21.1812 20.5688 20.5693 21.1807 19.8166 21.5642L20.7246 23.3462C21.8536 22.771 22.7715 21.8531 23.3467 20.7241L21.5647 19.8161ZM19.8166 2.43616C20.5693 2.81965 21.1812 3.43157 21.5647 4.18422L23.3467 3.27624C22.7715 2.14727 21.8536 1.22939 20.7246 0.654146L19.8166 2.43616ZM3.27673 0.654146C2.14776 1.22939 1.22987 2.14727 0.654632 3.27624L2.43665 4.18422C2.82014 3.43157 3.43206 2.81965 4.18471 2.43616L3.27673 0.654146ZM6.98165 0.0114136C5.4463 0.0408038 4.28077 0.142561 3.27673 0.654146L4.18471 2.43616C4.73656 2.15498 5.47669 2.04059 7.01993 2.01105L6.98165 0.0114136ZM2.01154 7.01934C2.04108 5.47617 2.15547 4.73606 2.43665 4.18422L0.654633 3.27624C0.143058 4.28026 0.0412951 5.44577 0.011902 6.98106L2.01154 7.01934ZM0.011902 17.0193C0.0412951 18.5546 0.143058 19.7201 0.654633 20.7241L2.43665 19.8161C2.15547 19.2643 2.04108 18.5242 2.01154 16.981L0.011902 17.0193ZM7.01993 21.9893C5.47669 21.9598 4.73656 21.8454 4.18471 21.5642L3.27673 23.3462C4.28077 23.8578 5.44631 23.9596 6.98165 23.989L7.01993 21.9893ZM17.0197 23.989C18.555 23.9596 19.7206 23.8578 20.7246 23.3462L19.8166 21.5642C19.2648 21.8454 18.5247 21.9598 16.9814 21.9893L17.0197 23.989ZM21.9898 16.981C21.9603 18.5242 21.8459 19.2643 21.5647 19.8161L23.3467 20.7241C23.8583 19.7201 23.96 18.5546 23.9894 17.0193L21.9898 16.981ZM23.9894 6.98106C23.96 5.44577 23.8583 4.28026 23.3467 3.27624L21.5647 4.18422C21.8459 4.73606 21.9603 5.47617 21.9898 7.01934L23.9894 6.98106ZM16.9814 2.01105C18.5247 2.04059 19.2648 2.15498 19.8166 2.43616L20.7246 0.654146C19.7206 0.142563 18.555 0.0408044 17.0197 0.0114136L16.9814 2.01105ZM10.0916 6.00018H13.9098V4.00018H10.0916V6.00018ZM18.0007 10.0911V13.9093H20.0007V10.0911H18.0007ZM13.9098 18.0002H10.0916V20.0002H13.9098V18.0002ZM6.00073 13.9093V10.0911H4.00073V13.9093H6.00073ZM10.0916 18.0002C9.18415 18.0002 8.56367 17.9994 8.08326 17.9602C7.61453 17.9219 7.36787 17.852 7.19203 17.7624L6.28404 19.5444C6.78883 19.8016 7.32798 19.9051 7.9204 19.9535C8.50114 20.001 9.21715 20.0002 10.0916 20.0002V18.0002ZM4.00073 13.9093C4.00073 14.7838 3.99995 15.4998 4.0474 16.0805C4.09581 16.6729 4.19932 17.2121 4.45652 17.7169L6.23854 16.8089C6.14894 16.633 6.07906 16.3864 6.04076 15.9177C6.00151 15.4372 6.00073 14.8168 6.00073 13.9093H4.00073ZM7.19203 17.7624C6.78149 17.5532 6.44771 17.2194 6.23854 16.8089L4.45652 17.7169C4.85745 18.5037 5.49719 19.1435 6.28404 19.5444L7.19203 17.7624ZM18.0007 13.9093C18.0007 14.8168 18 15.4372 17.9607 15.9177C17.9224 16.3864 17.8525 16.633 17.7629 16.8089L19.5449 17.7169C19.8021 17.2121 19.9057 16.6729 19.9541 16.0805C20.0015 15.4998 20.0007 14.7838 20.0007 13.9093H18.0007ZM13.9098 20.0002C14.7843 20.0002 15.5003 20.001 16.0811 19.9535C16.6735 19.9051 17.2126 19.8016 17.7174 19.5444L16.8094 17.7624C16.6336 17.852 16.3869 17.9219 15.9182 17.9602C15.4378 17.9994 14.8173 18.0002 13.9098 18.0002V20.0002ZM17.7629 16.8089C17.5537 17.2194 17.22 17.5532 16.8094 17.7624L17.7174 19.5444C18.5043 19.1435 19.144 18.5037 19.5449 17.7169L17.7629 16.8089ZM13.9098 6.00018C14.8173 6.00018 15.4378 6.00096 15.9182 6.04021C16.3869 6.07851 16.6336 6.14839 16.8094 6.23799L17.7174 4.45597C17.2126 4.19877 16.6735 4.09526 16.0811 4.04685C15.5003 3.99941 14.7843 4.00018 13.9098 4.00018V6.00018ZM20.0007 10.0911C20.0007 9.2166 20.0015 8.50059 19.9541 7.91985C19.9057 7.32743 19.8021 6.78828 19.5449 6.28349L17.7629 7.19148C17.8525 7.36732 17.9224 7.61398 17.9607 8.08271C18 8.56312 18.0007 9.1836 18.0007 10.0911H20.0007ZM16.8094 6.23799C17.22 6.44717 17.5537 6.78094 17.7629 7.19148L19.5449 6.28349C19.144 5.49664 18.5043 4.8569 17.7174 4.45597L16.8094 6.23799ZM10.0916 4.00018C9.21715 4.00018 8.50114 3.99941 7.9204 4.04685C7.32798 4.09526 6.78883 4.19877 6.28404 4.45597L7.19203 6.23799C7.36787 6.14839 7.61453 6.07851 8.08326 6.04021C8.56367 6.00096 9.18415 6.00018 10.0916 6.00018V4.00018ZM6.00073 10.0911C6.00073 9.1836 6.00151 8.56312 6.04076 8.08271C6.07906 7.61398 6.14894 7.36732 6.23854 7.19148L4.45652 6.2835C4.19932 6.78828 4.09581 7.32743 4.0474 7.91985C3.99995 8.50059 4.00073 9.2166 4.00073 10.0911H6.00073ZM6.28404 4.45597C5.49719 4.8569 4.85745 5.49664 4.45652 6.2835L6.23854 7.19148C6.44771 6.78094 6.78149 6.44717 7.19203 6.23799L6.28404 4.45597ZM5.00073 12.0002H19.0007V10.0002H5.00073V12.0002ZM10.0007 8.00018V8.01018H12.0007V8.00018H10.0007ZM7.00073 8.00018V8.01018H9.00073V8.00018H7.00073Z" fill="currentColor"/>
</svg>
