<svg width="24" height="24" viewBox="0 0 24 24" fill="none" xmlns="http://www.w3.org/2000/svg">
<path d="M3 15.0001L3 9.0001M20.1592 12.7475L12.8322 19.2604C12.5097 19.547 12 19.3181 12 18.8867V17.0001C12 15.8955 11.1046 15.0001 10 15.0001H7C6.44772 15.0001 6 14.5524 6 14.0001L6 10.0001C6 9.44782 6.44772 9.0001 7 9.0001H10C11.1046 9.0001 12 8.10467 12 7.0001V5.11353C12 4.6821 12.5097 4.4532 12.8322 4.73982L20.1592 11.2527C20.6067 11.6505 20.6067 12.3497 20.1592 12.7475Z" stroke="black" stroke-width="2" stroke-linecap="round"/>
</svg>
