<svg width="24" height="24" viewBox="0 0 24 24" fill="none" xmlns="http://www.w3.org/2000/svg">
<path d="M10 8.00011H14M10 12.0001H14M10 16.0001H14M18 4.65752V19.3427C18 20.4786 16.734 21.1561 15.7889 20.526C15.3112 20.2076 14.6888 20.2076 14.2111 20.526L13.1094 21.2605C12.4376 21.7084 11.5624 21.7084 10.8906 21.2605L9.7889 20.526C9.31118 20.2076 8.68882 20.2076 8.2111 20.526C7.26597 21.1561 6 20.4786 6 19.3427V4.65752C6 3.52161 7.26597 2.84409 8.2111 3.47418C8.68882 3.79265 9.31118 3.79265 9.7889 3.47418L10.8906 2.73971C11.5624 2.29184 12.4376 2.29184 13.1094 2.73971L14.2111 3.47418C14.6888 3.79265 15.3112 3.79265 15.7889 3.47418C16.734 2.84409 18 3.52161 18 4.65752Z" stroke="black" stroke-width="2" stroke-linecap="round"/>
</svg>
