<svg viewBox="0 0 24 24" fill="none" xmlns="http://www.w3.org/2000/svg">
<path d="M3 18H21M12 10C13.3594 10 14.6647 10.2576 15.8785 10.7313C15.9829 10.772 16.0351 10.7924 16.0927 10.8275C16.2975 10.9524 16.4591 11.2057 16.4972 11.4618C16.5079 11.5338 16.5079 11.6057 16.5079 11.7494C16.5079 12.1888 16.5079 12.4086 16.5427 12.5909C16.6739 13.2785 17.1573 13.8156 17.7761 13.9614C17.9402 14 18.138 14 18.5335 14H18.754C19.3552 14 19.6558 14 19.8989 13.9114C20.3824 13.7351 20.7615 13.3138 20.9202 12.7766C21 12.5065 21 12.1725 21 11.5044V11.3062C21 10.6405 21 10.3076 20.9107 9.95416C20.8117 9.562 20.552 9.07057 20.292 8.78342C20.0577 8.52464 19.8527 8.3976 19.4428 8.14352C17.2398 6.77806 14.7017 6 12 6C9.29831 6 6.76017 6.77806 4.55719 8.14352C4.14726 8.3976 3.9423 8.52464 3.708 8.78342C3.44802 9.07057 3.1883 9.562 3.08926 9.95416C3 10.3076 3 10.6405 3 11.3062V11.5044C3 12.1725 3 12.5065 3.07978 12.7766C3.23845 13.3138 3.61761 13.7351 4.10106 13.9114C4.34415 14 4.64478 14 5.24604 14L5.46651 14C5.86204 14 6.05981 14 6.2239 13.9614C6.84269 13.8156 7.32612 13.2785 7.4573 12.5909C7.49208 12.4086 7.49208 12.1888 7.49208 11.7494C7.49208 11.6057 7.49208 11.5338 7.50281 11.4618C7.54095 11.2057 7.70249 10.9524 7.90731 10.8275C7.96494 10.7924 8.01714 10.772 8.12155 10.7313C9.33529 10.2576 10.6406 10 12 10Z" stroke="currentColor" stroke-width="2" stroke-linecap="round"/>
</svg>
