<svg viewBox="0 0 24 24" fill="none" xmlns="http://www.w3.org/2000/svg">
<path d="M6 12C6 13 9.35786 16 13.5 16C17.6421 16 21 13 21 12C21 11 17.6421 8 13.5 8C9.35786 8 6 11 6 12ZM6 12C6 10.3232 4.59413 8.76351 3.55044 8.20502C3.27802 8.05925 3 8.28126 3 8.59023V15.4098C3 15.7187 3.27802 15.9408 3.55044 15.795C4.59413 15.2365 6 13.6768 6 12ZM13 16C12.1579 18.0211 10.0746 18.7657 8.69131 18.9504C8.35303 18.9956 8.11145 18.6657 8.21937 18.3419L9 16M13 8C12.1579 5.97886 10.0746 5.23428 8.69131 5.04958C8.35303 5.00441 8.11145 5.33435 8.21937 5.65812L9 8" stroke="black" stroke-width="2" stroke-linecap="round"/>
</svg>
