<svg viewBox="0 0 24 24" fill="none" xmlns="http://www.w3.org/2000/svg">
<path d="M4.99938 7C6.17665 7.58594 6.99938 8.9241 6.99938 10.4812C6.99938 11.0212 6.90041 11.5349 6.72202 12M18.9994 6.54804C18.1651 7.43699 16.9285 8 15.5483 8C13.036 8 10.9994 6.13452 10.9994 3.83333C10.9994 3.54795 11.0307 3.26926 11.0904 3M9.99938 12L8.54024 18.5661C8.26267 19.8152 9.21311 21 10.4926 21H13.5061C14.7856 21 15.7361 19.8152 15.4585 18.5661L13.9994 12M3.21887 10.0156C4.12255 5.99979 7.71065 3 11.9994 3C16.2881 3 19.8762 5.99979 20.7799 10.0156C21.0224 11.0932 20.1039 12 18.9994 12H4.99938C3.89481 12 2.97637 11.0932 3.21887 10.0156Z" stroke="currentColor" stroke-width="2"/>
</svg>
