<svg viewBox="0 0 24 24" fill="none" xmlns="http://www.w3.org/2000/svg">
<path d="M15.3329 8.6666L12.4306 3.73257C12.2372 3.40392 11.762 3.40392 11.5686 3.73257L8.66626 8.6666M14.2218 19.9999H21.1254C21.5121 19.9999 21.7524 19.5797 21.5564 19.2464L18.2496 13.6249M7.55515 19.9999H2.87381C2.4871 19.9999 2.24677 19.5797 2.44284 19.2464L5.7496 13.6249M14.9996 16.9999L12.3532 19.6464C12.1579 19.8416 12.1579 20.1582 12.3532 20.3535L14.9996 22.9999M6.99957 15.9999L6.59267 12.7441C6.54843 12.3901 6.15826 12.195 5.84848 12.372L2.99948 13.9999M11.9996 8.99992L15.6147 9.96859C15.8814 10.0401 16.1556 9.88177 16.2271 9.61504L17.1958 5.99992" stroke="currentColor" stroke-width="2" stroke-linecap="round"/>
</svg>
