<svg viewBox="0 0 24 24" fill="none" xmlns="http://www.w3.org/2000/svg">
<path d="M4.92893 20.0711C1.02369 16.1658 1.02369 9.83418 4.92893 5.92893C8.83418 2.02369 15.1658 2.02369 19.0711 5.92893C22.9763 9.83418 22.9763 16.1658 19.0711 20.0711M7.75736 17.2426C5.41421 14.8995 5.41421 11.1005 7.75736 8.75736C10.1005 6.41422 13.8995 6.41422 16.2426 8.75736C18.5858 11.1005 18.5858 14.8995 16.2426 17.2426M10.5858 14.4142C9.80474 13.6332 9.80474 12.3668 10.5858 11.5858C11.3668 10.8047 12.6332 10.8047 13.4142 11.5858C14.1953 12.3668 14.1953 13.6332 13.4142 14.4142M8.64988 21.1877L11.6096 17.488C11.8097 17.2378 12.1903 17.2378 12.3904 17.488L15.3501 21.1877C15.612 21.515 15.3789 22 14.9597 22H9.04031C8.62106 22 8.38797 21.515 8.64988 21.1877Z" stroke="black" stroke-width="2" stroke-linecap="round"/>
</svg>
