<svg viewBox="0 0 24 24" fill="none" xmlns="http://www.w3.org/2000/svg">
<path d="M11.9932 5.15567L11.2303 5.80221C11.4203 6.0264 11.6993 6.15567 11.9932 6.15567C12.287 6.15567 12.566 6.0264 12.756 5.80221L11.9932 5.15567ZM3.2642 12.6493L4.05654 12.0392L3.2642 12.6493ZM20.7221 12.6493L19.9298 12.0392L20.7221 12.6493ZM11.4721 20.7039L12.1385 19.9583L11.4721 20.7039ZM11.8502 20.9791L11.5619 21.9367L11.8502 20.9791ZM12.5142 20.7039L11.8478 19.9583L12.5142 20.7039ZM12.1361 20.9791L12.4244 21.9367L12.1361 20.9791ZM12.8036 5.84523C13.1323 5.40143 13.039 4.77518 12.5952 4.44644C12.1514 4.11771 11.5252 4.21098 11.1964 4.65477L12.8036 5.84523ZM9.95898 8.00537L10.7625 8.6006V8.6006L9.95898 8.00537ZM10.3486 11.1123L9.71913 11.8894L10.3486 11.1123ZM13.0122 13.2699L12.3828 14.047L13.0122 13.2699ZM13.7322 15.7384L12.7824 15.4257L13.7322 15.7384ZM11.0502 20.6873C10.8774 21.2119 11.1627 21.7771 11.6873 21.9498C12.2119 22.1226 12.7771 21.8373 12.9498 21.3127L11.0502 20.6873ZM12.756 4.50914C10.4635 1.80402 6.50088 0.978438 3.50163 3.56489L4.80776 5.07949C6.81861 3.34541 9.52412 3.78903 11.2303 5.80221L12.756 4.50914ZM3.50163 3.56489C0.597773 6.06908 0.178316 10.2806 2.47186 13.2594L4.05654 12.0392C2.41562 9.90805 2.70152 6.89585 4.80776 5.07949L3.50163 3.56489ZM21.5144 13.2594C23.7993 10.2919 23.4448 6.04794 20.4743 3.55606L19.1889 5.08832C21.3146 6.87154 21.5794 9.89672 19.9298 12.0392L21.5144 13.2594ZM20.4743 3.55606C17.4422 1.01253 13.5304 1.79507 11.2303 4.50914L12.756 5.80221C14.4546 3.79798 17.1248 3.35676 19.1889 5.08832L20.4743 3.55606ZM2.47186 13.2594C3.344 14.3921 5.04666 16.0942 6.68337 17.6535C8.3391 19.2308 9.99103 20.7213 10.8057 21.4495L12.1385 19.9583C11.3308 19.2364 9.69663 17.7618 8.06289 16.2054C6.41015 14.6309 4.82002 13.0308 4.05654 12.0392L2.47186 13.2594ZM13.1806 21.4495C13.9953 20.7213 15.6472 19.2308 17.3029 17.6535C18.9396 16.0942 20.6423 14.3921 21.5144 13.2594L19.9298 12.0392C19.1663 13.0308 17.5762 14.6309 15.9234 16.2054C14.2897 17.7618 12.6555 19.2364 11.8478 19.9583L13.1806 21.4495ZM10.8057 21.4495C10.8847 21.5201 10.9868 21.6124 11.0844 21.6866C11.1937 21.7696 11.3511 21.8732 11.5619 21.9367L12.1385 20.0216C12.1889 20.0368 12.2297 20.0557 12.2589 20.072C12.2857 20.087 12.299 20.0976 12.2946 20.0942C12.2897 20.0905 12.2762 20.0798 12.2477 20.0551C12.219 20.0303 12.1856 20.0004 12.1385 19.9583L10.8057 21.4495ZM11.8478 19.9583C11.8007 20.0004 11.7673 20.0303 11.7386 20.0551C11.7101 20.0798 11.6966 20.0905 11.6917 20.0942C11.6873 20.0976 11.7006 20.087 11.7274 20.072C11.7567 20.0557 11.7975 20.0368 11.8478 20.0216L12.4244 21.9367C12.6352 21.8732 12.7926 21.7696 12.9019 21.6866C12.9995 21.6124 13.1016 21.5201 13.1806 21.4495L11.8478 19.9583ZM11.5619 21.9367C11.8423 22.0211 12.144 22.0211 12.4244 21.9367L11.8478 20.0216C11.9434 19.9928 12.0429 19.9928 12.1385 20.0216L11.5619 21.9367ZM11.1964 4.65477L9.15543 7.41014L10.7625 8.6006L12.8036 5.84523L11.1964 4.65477ZM9.71913 11.8894L12.3828 14.047L13.6417 12.4929L10.978 10.3353L9.71913 11.8894ZM12.7824 15.4257L11.0502 20.6873L12.9498 21.3127L14.6821 16.0511L12.7824 15.4257ZM12.3828 14.047C12.7843 14.3722 12.948 14.9226 12.7824 15.4257L14.6821 16.0511C15.1053 14.7656 14.6942 13.3454 13.6417 12.4929L12.3828 14.047ZM9.15543 7.41014C8.11817 8.81044 8.36365 10.7915 9.71913 11.8894L10.978 10.3353C10.4589 9.91484 10.3595 9.14475 10.7625 8.6006L9.15543 7.41014Z" fill="currentColor"/>
</svg>
