<svg viewBox="0 0 24 24" fill="none" xmlns="http://www.w3.org/2000/svg">
<path d="M15 19C14.4477 19 14 19.4477 14 20C14 20.5523 14.4477 21 15 21V19ZM21.782 18.908L20.891 18.454L20.891 18.454L21.782 18.908ZM20.908 19.782L21.362 20.673L20.908 19.782ZM20.908 4.21799L21.362 3.32698V3.32698L20.908 4.21799ZM21.782 5.09202L20.891 5.54601L20.891 5.54601L21.782 5.09202ZM3.23463 4.15224L2.85195 3.22836L2.85195 3.22836L3.23463 4.15224ZM1 7C1 7.55228 1.44772 8 2 8C2.55228 8 3 7.55228 3 7H1ZM2.15224 5.23463L1.22836 4.85195L1.22836 4.85195L2.15224 5.23463ZM2 17C1.44772 17 1 17.4477 1 18C1 18.5523 1.44772 19 2 19V17ZM3 20C3 20.5523 3.44772 21 4 21C4.55228 21 5 20.5523 5 20H3ZM2 13C1.44772 13 1 13.4477 1 14C1 14.5523 1.44772 15 2 15V13ZM7 20C7 20.5523 7.44772 21 8 21C8.55228 21 9 20.5523 9 20H7ZM2 9C1.44772 9 1 9.44772 1 10C1 10.5523 1.44772 11 2 11V9ZM11 20C11 20.5523 11.4477 21 12 21C12.5523 21 13 20.5523 13 20H11ZM5 5H18.8V3H5V5ZM21 7.2V16.8H23V7.2H21ZM18.8 19H15V21H18.8V19ZM21 16.8C21 17.3766 20.9992 17.7488 20.9761 18.0322C20.9539 18.3038 20.9162 18.4045 20.891 18.454L22.673 19.362C22.8658 18.9836 22.9371 18.5904 22.9694 18.195C23.0008 17.8114 23 17.3436 23 16.8H21ZM18.8 21C19.3436 21 19.8114 21.0008 20.195 20.9694C20.5904 20.9371 20.9836 20.8658 21.362 20.673L20.454 18.891C20.4045 18.9162 20.3038 18.9539 20.0322 18.9761C19.7488 18.9992 19.3766 19 18.8 19V21ZM20.891 18.454C20.7951 18.6422 20.6422 18.7951 20.454 18.891L21.362 20.673C21.9265 20.3854 22.3854 19.9265 22.673 19.362L20.891 18.454ZM18.8 5C19.3766 5 19.7488 5.00078 20.0322 5.02393C20.3038 5.04612 20.4045 5.0838 20.454 5.10899L21.362 3.32698C20.9836 3.13419 20.5904 3.06287 20.195 3.03057C19.8114 2.99922 19.3436 3 18.8 3V5ZM23 7.2C23 6.65645 23.0008 6.18864 22.9694 5.80497C22.9371 5.40963 22.8658 5.01641 22.673 4.63803L20.891 5.54601C20.9162 5.59545 20.9539 5.69617 20.9761 5.96784C20.9992 6.25117 21 6.62345 21 7.2H23ZM20.454 5.10899C20.6422 5.20487 20.7951 5.35785 20.891 5.54601L22.673 4.63803C22.3854 4.07354 21.9265 3.6146 21.362 3.32698L20.454 5.10899ZM5 3C4.54774 3 4.15846 2.99946 3.83762 3.02135C3.50779 3.04385 3.17788 3.09336 2.85195 3.22836L3.61732 5.07612C3.65893 5.05888 3.74576 5.03227 3.97376 5.01671C4.21074 5.00054 4.52038 5 5 5V3ZM3 7C3 6.52038 3.00054 6.21074 3.01671 5.97376C3.03227 5.74576 3.05888 5.65893 3.07612 5.61732L1.22836 4.85195C1.09336 5.17788 1.04385 5.50779 1.02135 5.83762C0.999458 6.15846 1 6.54774 1 7H3ZM2.85195 3.22836C2.11687 3.53284 1.53284 4.11687 1.22836 4.85195L3.07612 5.61732C3.17761 5.37229 3.37229 5.17761 3.61732 5.07612L2.85195 3.22836ZM2 19C2.55228 19 3 19.4477 3 20H5C5 18.3431 3.65685 17 2 17V19ZM2 15C4.76142 15 7 17.2386 7 20H9C9 16.134 5.86599 13 2 13V15ZM2 11C6.97056 11 11 15.0294 11 20H13C13 13.9249 8.07513 9 2 9V11Z" fill="black"/>
</svg>
