<svg viewBox="0 0 24 24" fill="none" xmlns="http://www.w3.org/2000/svg">
<path d="M19.8139 5.31117L18.8817 5.67319V5.67319L19.8139 5.31117ZM21.5405 9.75705L22.4726 9.39503L21.5405 9.75705ZM20.6949 13.5263L21.3896 14.2456V14.2456L20.6949 13.5263ZM14.6083 19.4035L15.3029 20.1229L15.3029 20.1229L14.6083 19.4035ZM9.3917 19.4035L10.0863 18.6841V18.6841L9.3917 19.4035ZM3.30506 13.5263L2.61044 14.2456L2.61044 14.2456L3.30506 13.5263ZM2.45953 9.75705L3.39171 10.1191H3.39171L2.45953 9.75705ZM4.18613 5.31117L3.25396 4.94915L4.18613 5.31117ZM2.2217 12.2965L1.32381 12.7367L1.32381 12.7367L2.2217 12.2965ZM2.00028 11.3094L1.00041 11.2934L2.00028 11.3094ZM12.7124 20.891L13.0118 21.8452H13.0118L12.7124 20.891ZM11.2876 20.891L11.5869 19.9369H11.5869L11.2876 20.891ZM21.9997 11.3094L22.9996 11.2934V11.2934L21.9997 11.3094ZM21.7783 12.2965L22.6762 12.7367L22.6762 12.7367L21.7783 12.2965ZM18.1386 3.14554L17.7937 4.08419L17.7937 4.08419L18.1386 3.14554ZM19.0483 3.75428L18.3096 4.4284L18.3096 4.4284L19.0483 3.75428ZM5.86144 3.14554L6.20633 4.08419L5.86144 3.14554ZM4.95175 3.75428L5.69037 4.4284H5.69037L4.95175 3.75428ZM15 11C15.5523 11 16 10.5523 16 10C16 9.44772 15.5523 9 15 9V11ZM9 9C8.44772 9 8 9.44772 8 10C8 10.5523 8.44772 11 9 11V9ZM7.63996 4H16.36V2H7.63996V4ZM18.8817 5.67319L20.6083 10.1191L22.4726 9.39503L20.746 4.94915L18.8817 5.67319ZM20.0003 12.8069L13.9137 18.6841L15.3029 20.1229L21.3896 14.2456L20.0003 12.8069ZM10.0863 18.6841L3.99969 12.8069L2.61044 14.2456L8.69707 20.1229L10.0863 18.6841ZM3.39171 10.1191L5.1183 5.67319L3.25396 4.94915L1.52736 9.39503L3.39171 10.1191ZM3.99969 12.8069C3.33539 12.1654 3.19479 12.0097 3.1196 11.8563L1.32381 12.7367C1.59058 13.2809 2.05825 13.7124 2.61044 14.2456L3.99969 12.8069ZM1.52736 9.39503C1.25389 10.0992 1.01018 10.6855 1.00041 11.2934L3.00015 11.3255C3.00278 11.1618 3.0611 10.9703 3.39171 10.1191L1.52736 9.39503ZM3.1196 11.8563C3.03754 11.6889 2.99722 11.5075 3.00015 11.3255L1.00041 11.2934C0.992367 11.7935 1.10357 12.2875 1.32381 12.7367L3.1196 11.8563ZM13.9137 18.6841C13.4454 19.1363 13.1367 19.4333 12.8814 19.6426C12.6359 19.8439 12.5044 19.9082 12.4131 19.9369L13.0118 21.8452C13.4468 21.7087 13.8068 21.4701 14.1493 21.1893C14.4822 20.9165 14.8582 20.5523 15.3029 20.1229L13.9137 18.6841ZM8.69707 20.1229C9.14179 20.5523 9.51783 20.9165 9.85065 21.1893C10.1932 21.4701 10.5532 21.7087 10.9882 21.8452L11.5869 19.9369C11.4956 19.9082 11.3641 19.8439 11.1186 19.6426C10.8633 19.4333 10.5546 19.1363 10.0863 18.6841L8.69707 20.1229ZM12.4131 19.9369C12.1449 20.021 11.8551 20.021 11.5869 19.9369L10.9882 21.8452C11.6461 22.0516 12.3539 22.0516 13.0118 21.8452L12.4131 19.9369ZM20.6083 10.1191C20.9389 10.9703 20.9972 11.1618 20.9999 11.3255L22.9996 11.2934C22.9898 10.6855 22.7461 10.0992 22.4726 9.39503L20.6083 10.1191ZM21.3896 14.2456C21.9417 13.7124 22.4094 13.2808 22.6762 12.7367L20.8804 11.8563C20.8052 12.0097 20.6646 12.1654 20.0003 12.8069L21.3896 14.2456ZM20.9999 11.3255C21.0028 11.5075 20.9625 11.6889 20.8804 11.8563L22.6762 12.7367C22.8964 12.2875 23.0076 11.7935 22.9996 11.2934L20.9999 11.3255ZM16.36 4C17.3612 4 17.6049 4.01484 17.7937 4.08419L18.4834 2.2069C17.88 1.98516 17.2021 2 16.36 2V4ZM20.746 4.94915C20.4521 4.19224 20.2232 3.55821 19.7869 3.08015L18.3096 4.4284C18.4338 4.56439 18.5285 4.76361 18.8817 5.67319L20.746 4.94915ZM17.7937 4.08419C17.9954 4.15832 18.1719 4.27751 18.3096 4.4284L19.7869 3.08015C19.4295 2.68859 18.9815 2.38992 18.4834 2.2069L17.7937 4.08419ZM7.63996 2C6.79788 2 6.12003 1.98516 5.51655 2.2069L6.20633 4.08419C6.39507 4.01484 6.63882 4 7.63996 4V2ZM5.1183 5.67319C5.47155 4.76361 5.56625 4.56439 5.69037 4.4284L4.21313 3.08015C3.77681 3.55821 3.54791 4.19224 3.25396 4.94915L5.1183 5.67319ZM5.51655 2.2069C5.01845 2.38992 4.5705 2.68859 4.21313 3.08015L5.69037 4.4284C5.82808 4.27751 6.00458 4.15832 6.20633 4.08419L5.51655 2.2069ZM15 9H9V11H15V9Z" fill="currentColor"/>
</svg>
