<svg width="384" height="384" viewBox="0 0 384 384" fill="none" xmlns="http://www.w3.org/2000/svg">
<path d="M356.791 247.529C356.791 247.529 334.051 198.367 310.936 169.683C287.806 140.989 259.56 109.742 242.858 109.742C226.167 109.742 179.505 192.36 158.099 192.36C136.688 192.36 122.68 154.909 99.2366 154.909C72.9024 154.909 31.0644 245.221 31.0644 245.221C28.5149 251.059 27.4834 254.371 28.2305 260.532C28.2305 260.532 42.7651 324.974 194.826 324.974C346.893 324.974 359.047 261.589 359.047 261.589C359.833 255.92 359.265 252.849 356.791 247.529Z" fill="#3BCE53"/>
<path d="M160.48 227.618C136.865 227.618 124.758 204.316 118.194 189.932C112.292 176.976 108.391 156.518 94.522 155.945C96.1684 155.294 97.7519 154.909 99.2366 154.909C122.68 154.909 136.688 192.36 158.099 192.36C179.505 192.36 226.167 109.742 242.858 109.742C246.005 109.742 249.548 110.852 253.392 112.826C250.547 112.451 246.901 112.711 244.093 115.53C238.696 120.927 189.716 227.618 160.48 227.618Z" fill="#39B44D"/>
<path d="M192.451 34.65C89.4893 34.65 8.82497 163.244 1.19299 273.884C33.5025 329.96 111.416 351.037 192.451 351.037C273.48 351.037 351.399 329.96 383.693 273.884C376.061 163.244 295.407 34.65 192.451 34.65Z" fill="url(#paint0_radial_185_16215)" fill-opacity="0.2"/>
<defs>
<radialGradient id="paint0_radial_185_16215" cx="0" cy="0" r="1" gradientUnits="userSpaceOnUse" gradientTransform="translate(167.04 117.12) rotate(90) scale(63.36 76.5997)">
<stop stop-color="#E7F6FD"/>
<stop offset="1" stop-color="#C2EDFF"/>
</radialGradient>
</defs>
</svg>
