<svg width="152" height="152" viewBox="0 0 152 152" fill="none" xmlns="http://www.w3.org/2000/svg">
<path d="M141.23 97.9802C141.23 97.9802 132.229 78.5202 123.079 67.1661C113.923 55.8079 102.743 43.4395 96.1315 43.4395C89.5244 43.4395 71.0541 76.1425 62.5809 76.1425C54.1055 76.1425 48.561 61.3179 39.2812 61.3179C28.8572 61.3179 12.2964 97.0666 12.2964 97.0666C11.2872 99.3775 10.8789 100.689 11.1746 103.127C11.1746 103.127 16.9279 128.636 77.1187 128.636C137.312 128.636 142.123 103.546 142.123 103.546C142.434 101.302 142.209 100.086 141.23 97.9802Z" fill="#3BCE53"/>
<path d="M63.5232 90.0988C54.1758 90.0988 49.3834 80.875 46.7851 75.1815C44.4487 70.053 42.9046 61.9552 37.4149 61.7283C38.0666 61.4705 38.6934 61.3179 39.2811 61.3179C48.5609 61.3179 54.1057 76.1425 62.5808 76.1425C71.054 76.1425 89.5243 43.4395 96.1314 43.4395C97.3768 43.4395 98.7792 43.8788 100.301 44.6603C99.175 44.5119 97.7316 44.6149 96.6201 45.7305C94.4837 47.8669 75.0959 90.0988 63.5232 90.0988Z" fill="#39B44D"/>
<path d="M76.1784 13.7156C35.4228 13.7156 3.49316 64.6173 0.472168 108.412C13.2614 130.609 44.1022 138.952 76.1784 138.952C108.252 138.952 139.095 130.609 151.878 108.412C148.857 64.6173 116.932 13.7156 76.1784 13.7156Z" fill="url(#paint0_radial_185_16205)" fill-opacity="0.2"/>
<defs>
<radialGradient id="paint0_radial_185_16205" cx="0" cy="0" r="1" gradientUnits="userSpaceOnUse" gradientTransform="translate(66.12 46.36) rotate(90) scale(25.08 30.3207)">
<stop stop-color="#E7F6FD"/>
<stop offset="1" stop-color="#C2EDFF"/>
</radialGradient>
</defs>
</svg>
