<svg width="144" height="144" viewBox="0 0 144 144" fill="none" xmlns="http://www.w3.org/2000/svg">
<path d="M133.796 92.8233C133.796 92.8233 125.269 74.3875 116.601 63.6311C107.927 52.8707 97.3349 41.1532 91.0718 41.1532C84.8125 41.1532 67.3144 72.135 59.2871 72.135C51.2578 72.135 46.0051 58.0907 37.2137 58.0907C27.3383 58.0907 11.6491 91.9579 11.6491 91.9579C10.693 94.1471 10.3062 95.3891 10.5864 97.6995C10.5864 97.6995 16.0369 121.865 73.0598 121.865C130.085 121.865 134.642 98.0961 134.642 98.0961C134.937 95.9701 134.724 94.8185 133.796 92.8233Z" fill="#3BCE53"/>
<path d="M60.18 85.3567C51.3245 85.3567 46.7844 76.6184 44.3229 71.2246C42.1094 66.366 40.6465 58.6944 35.4458 58.4795C36.0632 58.2352 36.657 58.0907 37.2138 58.0907C46.0051 58.0907 51.2581 72.135 59.2872 72.135C67.3144 72.135 84.8126 41.1532 91.0719 41.1532C92.2518 41.1532 93.5804 41.5694 95.022 42.3097C93.9553 42.1691 92.5879 42.2667 91.5349 43.3237C89.511 45.3476 71.1436 85.3567 60.18 85.3567Z" fill="#39B44D"/>
<path d="M72.169 12.9937C33.5585 12.9937 3.30938 61.2164 0.447388 102.707C12.5635 123.735 41.7811 131.639 72.169 131.639C102.555 131.639 131.775 123.735 143.885 102.707C141.023 61.2164 110.778 12.9937 72.169 12.9937Z" fill="url(#paint0_radial_185_16200)" fill-opacity="0.2"/>
<defs>
<radialGradient id="paint0_radial_185_16200" cx="0" cy="0" r="1" gradientUnits="userSpaceOnUse" gradientTransform="translate(62.64 43.92) rotate(90) scale(23.76 28.7249)">
<stop stop-color="#E7F6FD"/>
<stop offset="1" stop-color="#2DA8DE"/>
</radialGradient>
</defs>
</svg>
