<svg width="96" height="96" viewBox="0 0 96 96" fill="none" xmlns="http://www.w3.org/2000/svg">
<path d="M89.1977 61.8822C89.1977 61.8822 83.5128 49.5917 77.7341 42.4207C71.9515 35.2471 64.89 27.4355 60.7146 27.4355C56.5417 27.4355 44.8763 48.09 39.5248 48.09C34.1719 48.09 30.6701 38.7271 24.8092 38.7271C18.2256 38.7271 7.76611 61.3052 7.76611 61.3052C7.12873 62.7647 6.87086 63.5927 7.05762 65.133C7.05762 65.133 10.6913 81.2435 48.7066 81.2435C86.7232 81.2435 89.7617 65.3974 89.7617 65.3974C89.9583 63.98 89.8163 63.2124 89.1977 61.8822Z" fill="#3BCE53"/>
<path d="M40.1199 56.9045C34.2163 56.9045 31.1895 51.079 29.5485 47.483C28.0729 44.244 27.0977 39.1296 23.6305 38.9863C24.0421 38.8235 24.438 38.7271 24.8091 38.7271C30.6701 38.7271 34.172 48.09 39.5247 48.09C44.8763 48.09 56.5417 27.4355 60.7146 27.4355C61.5012 27.4355 62.3869 27.7129 63.348 28.2065C62.6369 28.1128 61.7252 28.1778 61.0232 28.8824C59.6739 30.2317 47.429 56.9045 40.1199 56.9045Z" fill="#39B44D"/>
<path d="M48.1127 8.66251C22.3723 8.66251 2.20621 40.8109 0.298218 68.471C8.3756 82.4899 27.854 87.7594 48.1127 87.7594C68.37 87.7594 87.8497 82.4899 95.9232 68.471C94.0152 40.8109 73.8517 8.66251 48.1127 8.66251Z" fill="url(#paint0_radial_185_16190)" fill-opacity="0.2"/>
<defs>
<radialGradient id="paint0_radial_185_16190" cx="0" cy="0" r="1" gradientUnits="userSpaceOnUse" gradientTransform="translate(41.76 29.28) rotate(90) scale(15.84 19.1499)">
<stop stop-color="#E7F6FD"/>
<stop offset="1" stop-color="#2DA8DE"/>
</radialGradient>
</defs>
</svg>
