<svg width="192" height="192" viewBox="0 0 192 192" fill="none" xmlns="http://www.w3.org/2000/svg">
<path d="M178.395 123.764C178.395 123.764 167.026 99.1834 155.468 84.8415C143.903 70.4943 129.78 54.871 121.429 54.871C113.083 54.871 89.7526 96.18 79.0495 96.18C68.3438 96.18 61.3402 77.4543 49.6183 77.4543C36.4512 77.4543 15.5322 122.61 15.5322 122.61C14.2575 125.529 13.7417 127.185 14.1152 130.266C14.1152 130.266 21.3826 162.487 97.4131 162.487C173.446 162.487 179.523 130.795 179.523 130.795C179.917 127.96 179.633 126.425 178.395 123.764Z" fill="#3BCE53"/>
<path d="M80.2399 113.809C68.4326 113.809 62.3791 102.158 59.0971 94.9661C56.1458 88.488 54.1953 78.2592 47.261 77.9726C48.0842 77.647 48.8759 77.4543 49.6183 77.4543C61.3401 77.4543 68.344 96.18 79.0495 96.18C89.7525 96.18 113.083 54.871 121.429 54.871C123.002 54.871 124.774 55.4259 126.696 56.413C125.274 56.2255 123.45 56.3556 122.046 57.7649C119.348 60.4635 94.858 113.809 80.2399 113.809Z" fill="#39B44D"/>
<path d="M96.2253 17.325C44.7446 17.325 4.41242 81.6218 0.596436 136.942C16.7512 164.98 55.708 175.519 96.2253 175.519C136.74 175.519 175.699 164.98 191.846 136.942C188.03 81.6218 147.703 17.325 96.2253 17.325Z" fill="url(#paint0_radial_185_16210)" fill-opacity="0.2"/>
<defs>
<radialGradient id="paint0_radial_185_16210" cx="0" cy="0" r="1" gradientUnits="userSpaceOnUse" gradientTransform="translate(83.52 58.56) rotate(90) scale(31.68 38.2999)">
<stop stop-color="#E7F6FD"/>
<stop offset="1" stop-color="#2DA8DE"/>
</radialGradient>
</defs>
</svg>
