<svg width="72" height="72" viewBox="0 0 72 72" fill="none" xmlns="http://www.w3.org/2000/svg">
<path d="M66.8983 46.4117C66.8983 46.4117 62.6346 37.1938 58.3006 31.8155C53.9637 26.4353 48.6675 20.5766 45.536 20.5766C42.4063 20.5766 33.6572 36.0675 29.6436 36.0675C25.629 36.0675 23.0026 29.0453 18.6069 29.0453C13.6692 29.0453 5.82461 45.9789 5.82461 45.9789C5.34658 47.0735 5.15317 47.6946 5.29325 48.8498C5.29325 48.8498 8.01849 60.9326 36.53 60.9326C65.0424 60.9326 67.3213 49.048 67.3213 49.048C67.4688 47.985 67.3623 47.4093 66.8983 46.4117Z" fill="#3BCE53"/>
<path d="M30.09 42.6784C25.6623 42.6784 23.3922 38.3092 22.1614 35.6123C21.0547 33.183 20.3233 29.3472 17.7229 29.2397C18.0316 29.1176 18.3285 29.0453 18.6069 29.0453C23.0026 29.0453 25.629 36.0675 29.6436 36.0675C33.6572 36.0675 42.4063 20.5766 45.536 20.5766C46.1259 20.5766 46.7902 20.7847 47.511 21.1549C46.9777 21.0846 46.2939 21.1334 45.7674 21.6618C44.7555 22.6738 35.5718 42.6784 30.09 42.6784Z" fill="#39B44D"/>
<path d="M36.0845 6.49687C16.7792 6.49687 1.65463 30.6082 0.223633 51.3533C6.28167 61.8674 20.8905 65.8195 36.0845 65.8195C51.2775 65.8195 65.8872 61.8674 71.9424 51.3533C70.5114 30.6082 55.3887 6.49687 36.0845 6.49687Z" fill="url(#paint0_radial_185_16186)" fill-opacity="0.2"/>
<defs>
<radialGradient id="paint0_radial_185_16186" cx="0" cy="0" r="1" gradientUnits="userSpaceOnUse" gradientTransform="translate(31.32 21.96) rotate(90) scale(11.88 14.3624)">
<stop stop-color="#E7F6FD"/>
<stop offset="1" stop-color="#2DA8DE"/>
</radialGradient>
</defs>
</svg>
