<svg viewBox="0 0 24 24" fill="none" xmlns="http://www.w3.org/2000/svg">
<path d="M15.4444 3L11.8889 3C9.61401 3.00001 7.33916 3.87869 5.6035 5.63604C2.13217 9.15076 2.13217 14.8492 5.6035 18.364C7.33916 20.1213 9.61401 21 11.8889 21L15.4444 21M15.4444 3L17.2222 3C18.2041 3 19 3.80589 19 4.8V6.6C19 7.59411 18.2041 8.4 17.2222 8.4H15.4444M15.4444 3L15.4444 8.4M15.4444 8.4L11.8889 8.4C10.979 8.40003 10.0691 8.7515 9.37481 9.45442C7.98628 10.8603 7.98628 13.1397 9.37481 14.5456C10.0691 15.2485 10.979 15.6 11.8889 15.6H15.4444M15.4444 15.6H17.2222C18.2041 15.6 19 16.4059 19 17.4V19.2C19 20.1941 18.2041 21 17.2222 21L15.4444 21M15.4444 15.6V21" stroke="black" stroke-width="2"/>
</svg>
