<svg viewBox="0 0 24 24" fill="none" xmlns="http://www.w3.org/2000/svg">
<path d="M13 20C12.4477 20 12 20.4477 12 21C12 21.5523 12.4477 22 13 22V20ZM6.09205 3.21799L5.63806 2.32698L5.63806 2.32698L6.09205 3.21799ZM4.32701 3.63803C4.07628 4.13012 4.27194 4.73229 4.76403 4.98303C5.25612 5.23376 5.85829 5.0381 6.10902 4.54601L4.32701 3.63803ZM17.908 20.782L17.454 19.891L17.454 19.891L17.908 20.782ZM18.782 19.908L19.673 20.362L18.782 19.908ZM17.908 3.21799L17.454 4.10899L17.454 4.10899L17.908 3.21799ZM18.782 4.09202L17.891 4.54601V4.54601L18.782 4.09202ZM7.7313 3.13943L7.36789 4.07106L7.7313 3.13943ZM11.7313 4.69979L12.0947 3.76816L11.7313 4.69979ZM10.2687 21.8606L9.90528 22.7922L10.2687 21.8606ZM6.26869 20.3002L5.90528 21.2318L5.90528 21.2318L6.26869 20.3002ZM8.20003 4H15.8V2H8.20003V4ZM15.8 20H13V22H15.8V20ZM8.20003 2C7.65648 2 7.18867 1.99922 6.805 2.03057C6.40966 2.06287 6.01644 2.13419 5.63806 2.32698L6.54604 4.10899C6.59548 4.0838 6.6962 4.04612 6.96787 4.02393C7.2512 4.00078 7.62348 4 8.20003 4V2ZM6.10902 4.54601C6.2049 4.35785 6.35788 4.20487 6.54604 4.10899L5.63806 2.32698C5.07357 2.6146 4.61463 3.07354 4.32701 3.63803L6.10902 4.54601ZM18 6.2V17.8H20V6.2H18ZM15.8 22C16.3436 22 16.8114 22.0008 17.195 21.9694C17.5904 21.9371 17.9836 21.8658 18.362 21.673L17.454 19.891C17.4045 19.9162 17.3038 19.9539 17.0322 19.9761C16.7488 19.9992 16.3766 20 15.8 20V22ZM18 17.8C18 18.3766 17.9992 18.7488 17.9761 19.0322C17.9539 19.3038 17.9162 19.4045 17.891 19.454L19.673 20.362C19.8658 19.9836 19.9371 19.5904 19.9694 19.195C20.0008 18.8114 20 18.3436 20 17.8H18ZM18.362 21.673C18.9265 21.3854 19.3854 20.9265 19.673 20.362L17.891 19.454C17.7951 19.6422 17.6422 19.7951 17.454 19.891L18.362 21.673ZM15.8 4C16.3766 4 16.7488 4.00078 17.0322 4.02393C17.3038 4.04612 17.4045 4.0838 17.454 4.10899L18.362 2.32698C17.9836 2.13419 17.5904 2.06287 17.195 2.03057C16.8114 1.99922 16.3435 2 15.8 2V4ZM20 6.2C20 5.65645 20.0008 5.18864 19.9694 4.80497C19.9371 4.40963 19.8658 4.01641 19.673 3.63803L17.891 4.54601C17.9162 4.59545 17.9539 4.69617 17.9761 4.96784C17.9992 5.25117 18 5.62345 18 6.2H20ZM17.454 4.10899C17.6422 4.20487 17.7951 4.35785 17.891 4.54601L19.673 3.63803C19.3854 3.07354 18.9265 2.6146 18.362 2.32698L17.454 4.10899ZM7.36789 4.07106L11.3679 5.63142L12.0947 3.76816L8.09472 2.20781L7.36789 4.07106ZM12 6.54818V20.0122H14V6.54818H12ZM10.6321 20.9289L6.63211 19.3686L5.90528 21.2318L9.90528 22.7922L10.6321 20.9289ZM6 18.4518V4.98782H4V18.4518H6ZM6.63211 19.3686C6.24745 19.2185 6 18.8529 6 18.4518H4C4 19.6838 4.7592 20.7848 5.90528 21.2318L6.63211 19.3686ZM12 20.0122C12 20.6975 11.2984 21.1888 10.6321 20.9289L9.90528 22.7922C11.8631 23.5559 14 22.1263 14 20.0122H12ZM11.3679 5.63142C11.7526 5.78147 12 6.14707 12 6.54818H14C14 5.31625 13.2408 4.21523 12.0947 3.76816L11.3679 5.63142ZM8.09472 2.20781C6.13688 1.44408 4 2.87371 4 4.98782H6C6 4.30249 6.70164 3.81116 7.36789 4.07106L8.09472 2.20781Z" fill="black"/>
</svg>
