<svg viewBox="0 0 24 24" fill="none" xmlns="http://www.w3.org/2000/svg">
<path d="M12 2C10.9493 2 10.0878 2.81025 10.0063 3.84002C10.0015 3.90039 9.99914 3.93057 9.9877 3.95025C9.97709 3.96851 9.96357 3.98101 9.94453 3.99015C9.92401 4 9.89576 4 9.83925 4.00001C7.72469 4.00026 7.01888 4.0106 6.18404 4.43597C5.43139 4.81947 4.81947 5.43139 4.43597 6.18404C4.0106 7.01888 4.00026 7.72469 4.00001 9.83925L4.00001 9.83926C4 9.89575 4 9.924 4.00984 9.94451C4.01898 9.96355 4.03149 9.97709 4.04974 9.9877C4.06942 9.99914 4.09961 10.0015 4.15998 10.0063C5.18975 10.0878 6 10.9493 6 12C6 13.0507 5.18975 13.9122 4.15998 13.9937C4.09961 13.9985 4.06942 14.0009 4.04974 14.0123C4.03149 14.0229 4.01898 14.0364 4.00984 14.0555C4 14.076 4 14.1043 4.00001 14.1607L4.00001 14.1608C4.00026 16.2753 4.0106 16.9811 4.43597 17.816C4.81947 18.5686 5.43139 19.1805 6.18404 19.564C7.01888 19.9894 7.72469 19.9997 9.83925 20H9.83926C9.89575 20 9.924 20 9.94451 19.9902C9.96355 19.981 9.97709 19.9685 9.9877 19.9503C9.99914 19.9306 10.0015 19.9004 10.0063 19.84C10.0878 18.8103 10.9493 18 12 18C13.0507 18 13.9122 18.8103 13.9937 19.84C13.9985 19.9004 14.0009 19.9306 14.0123 19.9503C14.0229 19.9685 14.0364 19.981 14.0555 19.9902C14.076 20 14.1042 20 14.1607 20H14.1608C16.2753 19.9997 16.9811 19.9894 17.816 19.564C18.5686 19.1805 19.1805 18.5686 19.564 17.816C19.9894 16.9811 19.9997 16.2753 20 14.1608C20 14.1042 20 14.076 20.0099 14.0555C20.019 14.0364 20.0315 14.0229 20.0498 14.0123C20.0694 14.0009 20.0996 13.9985 20.16 13.9937C21.1897 13.9122 22 13.0507 22 12C22 10.9493 21.1897 10.0878 20.16 10.0063C20.0996 10.0015 20.0694 9.99914 20.0498 9.9877C20.0315 9.97709 20.019 9.96357 20.0099 9.94453C20 9.92401 20 9.89576 20 9.83925C19.9997 7.72469 19.9894 7.01888 19.564 6.18404C19.1805 5.43139 18.5686 4.81947 17.816 4.43597C16.9811 4.0106 16.2753 4.00026 14.1608 4.00001C14.1042 4 14.076 4 14.0555 3.99015C14.0364 3.98101 14.0229 3.96851 14.0123 3.95025C14.0009 3.93057 13.9985 3.90039 13.9937 3.84002C13.9122 2.81025 13.0507 2 12 2Z" stroke="currentColor" stroke-width="2"/>
</svg>
