<svg viewBox="0 0 24 24" fill="none" xmlns="http://www.w3.org/2000/svg">
<path d="M6 11C5.44772 11 5 11.4477 5 12C5 12.5523 5.44772 13 6 13V11ZM8 13C8.55228 13 9 12.5523 9 12C9 11.4477 8.55228 11 8 11V13ZM16 15C15.4477 15 15 15.4477 15 16C15 16.5523 15.4477 17 16 17V15ZM18 17C18.5523 17 19 16.5523 19 16C19 15.4477 18.5523 15 18 15V17ZM12 11C11.4477 11 11 11.4477 11 12C11 12.5523 11.4477 13 12 13V11ZM18 13C18.5523 13 19 12.5523 19 12C19 11.4477 18.5523 11 18 11V13ZM6 15C5.44772 15 5 15.4477 5 16C5 16.5523 5.44772 17 6 17L6 15ZM12 17C12.5523 17 13 16.5523 13 16C13 15.4477 12.5523 15 12 15V17ZM4.18404 19.564L4.63803 18.673L4.18404 19.564ZM2.43597 17.816L3.32698 17.362L2.43597 17.816ZM21.564 17.816L20.673 17.362L21.564 17.816ZM19.816 19.564L19.362 18.673L19.816 19.564ZM19.816 4.43597L19.362 5.32698L19.816 4.43597ZM21.564 6.18404L20.673 6.63803L21.564 6.18404ZM4.18404 4.43597L4.63803 5.32698L4.18404 4.43597ZM2.43597 6.18404L3.32698 6.63803L2.43597 6.18404ZM6 13H8V11H6V13ZM16 17L18 17V15L16 15V17ZM12 13H18V11H12V13ZM6 17L12 17V15L6 15L6 17ZM8.4 5H15.6V3H8.4V5ZM21 10.4V13.6H23V10.4H21ZM15.6 19H8.4V21H15.6V19ZM3 13.6V10.4H1V13.6H3ZM8.4 19C7.26339 19 6.47108 18.9992 5.85424 18.9488C5.24907 18.8994 4.90138 18.8072 4.63803 18.673L3.73005 20.455C4.32234 20.7568 4.96253 20.8826 5.69138 20.9422C6.40855 21.0008 7.2964 21 8.4 21V19ZM1 13.6C1 14.7036 0.999222 15.5914 1.05782 16.3086C1.11737 17.0375 1.24318 17.6777 1.54497 18.27L3.32698 17.362C3.19279 17.0986 3.10062 16.7509 3.05118 16.1458C3.00078 15.5289 3 14.7366 3 13.6H1ZM4.63803 18.673C4.07354 18.3854 3.6146 17.9265 3.32698 17.362L1.54497 18.27C2.02433 19.2108 2.78924 19.9757 3.73005 20.455L4.63803 18.673ZM21 13.6C21 14.7366 20.9992 15.5289 20.9488 16.1458C20.8994 16.7509 20.8072 17.0986 20.673 17.362L22.455 18.27C22.7568 17.6777 22.8826 17.0375 22.9422 16.3086C23.0008 15.5914 23 14.7036 23 13.6H21ZM15.6 21C16.7036 21 17.5914 21.0008 18.3086 20.9422C19.0375 20.8826 19.6777 20.7568 20.27 20.455L19.362 18.673C19.0986 18.8072 18.7509 18.8994 18.1458 18.9488C17.5289 18.9992 16.7366 19 15.6 19V21ZM20.673 17.362C20.3854 17.9265 19.9265 18.3854 19.362 18.673L20.27 20.455C21.2108 19.9757 21.9757 19.2108 22.455 18.27L20.673 17.362ZM15.6 5C16.7366 5 17.5289 5.00078 18.1458 5.05118C18.7509 5.10062 19.0986 5.19279 19.362 5.32698L20.27 3.54497C19.6777 3.24318 19.0375 3.11737 18.3086 3.05782C17.5914 2.99922 16.7036 3 15.6 3V5ZM23 10.4C23 9.2964 23.0008 8.40855 22.9422 7.69138C22.8826 6.96253 22.7568 6.32234 22.455 5.73005L20.673 6.63803C20.8072 6.90138 20.8994 7.24907 20.9488 7.85424C20.9992 8.47108 21 9.26339 21 10.4H23ZM19.362 5.32698C19.9265 5.6146 20.3854 6.07354 20.673 6.63803L22.455 5.73005C21.9757 4.78924 21.2108 4.02433 20.27 3.54497L19.362 5.32698ZM8.4 3C7.2964 3 6.40855 2.99922 5.69138 3.05782C4.96253 3.11737 4.32234 3.24318 3.73005 3.54497L4.63803 5.32698C4.90138 5.19279 5.24907 5.10062 5.85424 5.05118C6.47108 5.00078 7.26339 5 8.4 5V3ZM3 10.4C3 9.26339 3.00078 8.47108 3.05118 7.85424C3.10062 7.24907 3.19279 6.90138 3.32698 6.63803L1.54497 5.73005C1.24318 6.32234 1.11737 6.96253 1.05782 7.69138C0.999222 8.40855 1 9.2964 1 10.4H3ZM3.73005 3.54497C2.78924 4.02433 2.02433 4.78924 1.54497 5.73005L3.32698 6.63803C3.6146 6.07354 4.07354 5.6146 4.63803 5.32698L3.73005 3.54497Z" fill="currentColor"/>
</svg>
