<svg viewBox="0 0 24 24" fill="none" xmlns="http://www.w3.org/2000/svg">
  <path d="M10.6396 1.79691L9.93248 1.0898L9.93248 1.0898L10.6396 1.79691ZM1.79691 10.6396L2.50402 11.3467L2.50402 11.3467L1.79691 10.6396ZM1.79691 14.4874L2.50402 13.7803L2.50402 13.7803L1.79691 14.4874ZM9.51259 22.2031L8.80548 22.9102L8.80548 22.9102L9.51259 22.2031ZM13.3604 22.2031L14.0675 22.9102L14.0675 22.9102L13.3604 22.2031ZM22.2031 13.3604L22.9102 14.0675L22.9102 14.0675L22.2031 13.3604ZM10.8284 9.17157C10.4379 8.78105 9.80474 8.78105 9.41421 9.17157C9.02369 9.5621 9.02369 10.1953 9.41421 10.5858L10.8284 9.17157ZM13.6569 14.8284C14.0474 15.219 14.6805 15.219 15.0711 14.8284C15.4616 14.4379 15.4616 13.8047 15.0711 13.4142L13.6569 14.8284ZM15.0711 10.5858C15.4616 10.1953 15.4616 9.5621 15.0711 9.17157C14.6805 8.78105 14.0474 8.78105 13.6569 9.17157L15.0711 10.5858ZM9.41421 13.4142C9.02369 13.8047 9.02369 14.4379 9.41421 14.8284C9.80474 15.219 10.4379 15.219 10.8284 14.8284L9.41421 13.4142ZM20.2792 0H12.5635V2H20.2792V0ZM9.93248 1.0898L1.0898 9.93248L2.50402 11.3467L11.3467 2.50402L9.93248 1.0898ZM1.0898 15.1945L8.80548 22.9102L10.2197 21.496L2.50402 13.7803L1.0898 15.1945ZM14.0675 22.9102L22.9102 14.0675L21.496 12.6533L12.6533 21.496L14.0675 22.9102ZM24 11.4365V3.72082H22V11.4365H24ZM22.9102 14.0675C23.608 13.3697 24 12.4233 24 11.4365H22C22 11.8929 21.8187 12.3306 21.496 12.6533L22.9102 14.0675ZM8.80548 22.9102C10.2586 24.3633 12.6144 24.3633 14.0675 22.9102L12.6533 21.496C11.9813 22.168 10.8917 22.168 10.2197 21.496L8.80548 22.9102ZM1.0898 9.93248C-0.363268 11.3856 -0.363268 13.7414 1.0898 15.1945L2.50402 13.7803C1.83199 13.1083 1.83199 12.0187 2.50402 11.3467L1.0898 9.93248ZM12.5635 0C11.5767 0 10.6303 0.392014 9.93248 1.0898L11.3467 2.50402C11.6694 2.1813 12.1071 2 12.5635 2V0ZM20.2792 2C21.2296 2 22 2.77044 22 3.72082H24C24 1.66587 22.3341 0 20.2792 0V2ZM9.41421 10.5858L11.5355 12.7071L12.9497 11.2929L10.8284 9.17157L9.41421 10.5858ZM11.5355 12.7071L13.6569 14.8284L15.0711 13.4142L12.9497 11.2929L11.5355 12.7071ZM13.6569 9.17157L11.5355 11.2929L12.9497 12.7071L15.0711 10.5858L13.6569 9.17157ZM11.5355 11.2929L9.41421 13.4142L10.8284 14.8284L12.9497 12.7071L11.5355 11.2929Z" fill="currentColor" />
</svg>
