<svg viewBox="0 0 24 24" fill="none" xmlns="http://www.w3.org/2000/svg">
  <path d="M10.6396 1.79691L9.93248 1.0898L9.93248 1.0898L10.6396 1.79691ZM1.79691 10.6396L2.50402 11.3467L2.50402 11.3467L1.79691 10.6396ZM1.79691 14.4874L2.50402 13.7803L2.50402 13.7803L1.79691 14.4874ZM9.51259 22.2031L8.80548 22.9102L8.80548 22.9102L9.51259 22.2031ZM13.3604 22.2031L14.0675 22.9102L14.0675 22.9102L13.3604 22.2031ZM22.2031 13.3604L22.9102 14.0675L22.9102 14.0675L22.2031 13.3604ZM10.8282 9.1718C10.4377 8.78128 9.80451 8.78128 9.41399 9.1718C9.02346 9.56232 9.02346 10.1955 9.41399 10.586L10.8282 9.1718ZM13.6566 14.8287C14.0472 15.2192 14.6803 15.2192 15.0708 14.8287C15.4614 14.4381 15.4614 13.805 15.0708 13.4144L13.6566 14.8287ZM20.2792 0H12.5635V2H20.2792V0ZM9.93248 1.0898L1.0898 9.93248L2.50402 11.3467L11.3467 2.50402L9.93248 1.0898ZM1.0898 15.1945L8.80548 22.9102L10.2197 21.496L2.50402 13.7803L1.0898 15.1945ZM14.0675 22.9102L22.9102 14.0675L21.496 12.6533L12.6533 21.496L14.0675 22.9102ZM24 11.4365V3.72082H22V11.4365H24ZM22.9102 14.0675C23.608 13.3697 24 12.4233 24 11.4365H22C22 11.8929 21.8187 12.3306 21.496 12.6533L22.9102 14.0675ZM8.80548 22.9102C10.2586 24.3633 12.6144 24.3633 14.0675 22.9102L12.6533 21.496C11.9813 22.168 10.8917 22.168 10.2197 21.496L8.80548 22.9102ZM1.0898 9.93248C-0.363268 11.3856 -0.363268 13.7414 1.0898 15.1945L2.50402 13.7803C1.83199 13.1083 1.83199 12.0187 2.50402 11.3467L1.0898 9.93248ZM12.5635 0C11.5767 0 10.6303 0.392014 9.93248 1.0898L11.3467 2.50402C11.6694 2.1813 12.1071 2 12.5635 2V0ZM20.2792 2C21.2296 2 22 2.77044 22 3.72082H24C24 1.66587 22.3341 0 20.2792 0V2ZM9.41399 10.586L13.6566 14.8287L15.0708 13.4144L10.8282 9.1718L9.41399 10.586Z" fill="currentColor" />
</svg>
