<svg viewBox="0 0 24 24" fill="none" xmlns="http://www.w3.org/2000/svg">
<path d="M12.0001 8V12L13.7321 13M2 12C2 17.5228 6.47715 22 12 22C17.5228 22 22 17.5228 22 12C22 6.47715 17.5228 2 12 2M3 3H6.99661C6.99681 3 6.99701 3.00006 6.99717 3.00017L6.99739 3.00032C6.99767 3.0005 6.99784 3.00082 6.99783 3.00116L6.99783 3.00177C6.99782 3.00203 6.99772 3.00228 6.99753 3.00247L3.00239 6.99761C3.00225 6.99775 3.00216 6.99792 3.00212 6.99812L3.00207 6.99838C3.002 6.99871 3.00211 6.99905 3.00235 6.99929L3.00279 6.99972C3.00298 6.9999 3.00323 7 3.00349 7H7" stroke="black" stroke-width="2" stroke-linecap="round"/>
</svg>
