<svg viewBox="0 0 24 24" fill="none" xmlns="http://www.w3.org/2000/svg">
  <path d="M1 10C1 10.5523 1.44772 11 2 11C2.55228 11 3 10.5523 3 10H1ZM12 19C11.4477 19 11 19.4477 11 20C11 20.5523 11.4477 21 12 21V19ZM6 15C6 15.5523 5.55228 16 5 16V18C6.65685 18 8 16.6569 8 15H6ZM5 16C4.44772 16 4 15.5523 4 15H2C2 16.6569 3.34315 18 5 18V16ZM4 15C4 14.4477 4.44772 14 5 14V12C3.34315 12 2 13.3431 2 15H4ZM5 14C5.55228 14 6 14.4477 6 15H8C8 13.3431 6.65685 12 5 12V14ZM8.99485 20H1.00515V22H8.99485V20ZM8 20.9949C8 20.4454 8.44544 20 8.99485 20V22C9.54995 22 10 21.55 10 20.9949H8ZM5 18C6.65569 18 8 19.3425 8 20.9949H10C10 18.2346 7.7569 16 5 16V18ZM2 20.9949C2 19.3425 3.34431 18 5 18V16C2.2431 16 0 18.2346 0 20.9949H2ZM0 20.9949C0 21.55 0.450017 22 1.00515 22V20C1.55459 20 2 20.4454 2 20.9949H0ZM4 5H20V3H4V5ZM21 6V18H23V6H21ZM21 18C21 18.5523 20.5523 19 20 19V21C21.6569 21 23 19.6569 23 18H21ZM20 5C20.5523 5 21 5.44772 21 6H23C23 4.34315 21.6569 3 20 3V5ZM4 3C2.34315 3 1 4.34315 1 6H3C3 5.44772 3.44772 5 4 5V3ZM3 10V6H1V10H3ZM20 19H12V21H20V19Z" fill="currentColor"/>
  <path d="M9 12C9 11.4477 9.4477 11 10 11L18 11C18.5523 11 19 11.4477 19 12C19 12.5523 18.5523 13 18 13H10C9.4477 13 9 12.5523 9 12Z" fill="currentColor"/>
  <path d="M6 7C5.4477 7 5 7.4477 5 8C5 8.5523 5.4477 9 6 9V7Z" fill="currentColor"/>
  <path d="M6 7V9L18 9V7L6 7Z" fill="currentColor"/>
  <path d="M18 9C18.5523 9 19 8.5523 19 8C19 7.4477 18.5523 7 18 7V9Z" fill="currentColor"/>
  <path d="M10 16C10 15.4477 10.4477 15 11 15H18C18.5523 15 19 15.4477 19 16C19 16.5523 18.5523 17 18 17H11C10.4477 17 10 16.5523 10 16Z" fill="currentColor"/>
</svg>
