<svg viewBox="0 0 24 24" fill="none" xmlns="http://www.w3.org/2000/svg">
<path d="M18.8 3H5.2C4.07989 3 3.51984 3 3.09202 3.21799C2.71569 3.40973 2.40973 3.71569 2.21799 4.09202C2 4.51984 2 5.0799 2 6.2V19.7056C2 20.1342 2 20.3485 2.09027 20.4776C2.1691 20.5903 2.29086 20.6655 2.42692 20.6856C2.57518 20.7075 2.75592 20.6218 3.10335 20.4483C3.12365 20.4382 3.1338 20.4331 3.14376 20.4276C3.15257 20.4226 3.16133 20.4174 3.16983 20.412C3.17942 20.4058 3.18871 20.3993 3.20725 20.3862L3.20734 20.3861L7.16989 17.5865L7.1699 17.5865C7.47818 17.3687 7.63232 17.2598 7.80048 17.1825C7.94972 17.114 8.10684 17.0641 8.26828 17.034C8.45019 17 8.63892 17 9.01639 17H18.8C19.9201 17 20.4802 17 20.908 16.782C21.2843 16.5903 21.5903 16.2843 21.782 15.908C22 15.4802 22 14.9201 22 13.8V6.2C22 5.0799 22 4.51984 21.782 4.09202C21.5903 3.71569 21.2843 3.40973 20.908 3.21799C20.4802 3 19.9201 3 18.8 3Z" stroke="black" stroke-width="2"/>
</svg>
