<svg viewBox="0 0 24 24" fill="none" xmlns="http://www.w3.org/2000/svg">
<path d="M9.27273 2L14.7273 2C17.273 2 18.5458 2 19.5181 2.49542C20.3734 2.93121 21.0688 3.62658 21.5046 4.48186C22 5.45419 22 6.72703 22 9.27273V14.7273C22 17.273 22 18.5458 21.5046 19.5181C21.0688 20.3734 20.3734 21.0688 19.5181 21.5046C18.5458 22 17.273 22 14.7273 22H9.27273M9.27273 2C6.72703 2 5.45419 2 4.48186 2.49543C3.62658 2.93121 2.93121 3.62658 2.49542 4.48186C2 5.45419 2 6.72703 2 9.27273L2 14.7273C2 17.273 2 18.5458 2.49543 19.5181C2.93121 20.3734 3.62658 21.0688 4.48186 21.5046C5.45419 22 6.72703 22 9.27273 22M9.27273 2L9.27273 22M9.27273 12H22" stroke="black" stroke-width="2" stroke-linecap="round"/>
</svg>
