<svg width="24" height="24" viewBox="0 0 24 24" fill="none" xmlns="http://www.w3.org/2000/svg">
<path d="M12 24H13V22H12V24ZM21.8351 10.1807L22.0157 11.1642L23.9828 10.8029L23.8022 9.81934L21.8351 10.1807ZM8.35022 2.34473C8.33326 1.79271 7.87201 1.35895 7.31998 1.37591C6.76796 1.39287 6.3342 1.85412 6.35116 2.40614L8.35022 2.34473ZM11.4478 8.00691L11.9988 8.84142L11.4478 8.00691ZM16.7604 6.58341L16.9609 5.60371L16.7604 6.58341ZM21.2876 6.29634C21.7008 5.92991 21.7387 5.29788 21.3723 4.88466C21.0059 4.47144 20.3738 4.43351 19.9606 4.79993L21.2876 6.29634ZM3.45962 7.26595C3.43581 6.71418 2.96921 6.28618 2.41744 6.31C1.86567 6.33381 1.43767 6.80041 1.46148 7.35218L3.45962 7.26595ZM5.23821 13.8117L4.64564 14.6172L5.23821 13.8117ZM7.56645 21.9917C7.42588 22.5258 7.74491 23.0727 8.279 23.2133C8.8131 23.3539 9.36002 23.0349 9.50059 22.5008L7.56645 21.9917ZM22.2929 22.7071C22.6834 23.0976 23.3166 23.0976 23.7071 22.7071C24.0976 22.3166 24.0976 21.6834 23.7071 21.2929L22.2929 22.7071ZM12 0C5.37258 0 0 5.37258 0 12H2C2 6.47715 6.47715 2 12 2V0ZM0 12C0 18.6274 5.37258 24 12 24V22C6.47715 22 2 17.5228 2 12H0ZM23.8022 9.81934C22.776 4.23301 17.8834 0 12 0V2C16.9009 2 20.9802 5.52652 21.8351 10.1807L23.8022 9.81934ZM6.35116 2.40614C6.39678 3.89139 6.63223 5.99419 7.34118 7.49368C7.69417 8.24028 8.24692 9.01287 9.12446 9.35124C10.0577 9.71109 11.0486 9.46877 11.9988 8.84142L10.8968 7.1724C10.2636 7.59048 9.96187 7.53061 9.844 7.48516C9.67041 7.41823 9.41356 7.19778 9.14928 6.63882C8.6237 5.52718 8.39396 3.76882 8.35022 2.34473L6.35116 2.40614ZM11.9988 8.84142C12.9921 8.18558 13.6548 7.76028 14.1336 7.48844C14.6245 7.2097 14.8272 7.14932 14.9176 7.13556C14.9622 7.12877 15.0045 7.12183 15.2625 7.20304C15.5233 7.28511 15.9476 7.43781 16.5599 7.56311L16.9609 5.60371C16.4778 5.50486 16.1852 5.39673 15.863 5.29531C15.538 5.19303 15.1314 5.07994 14.6164 5.15836C14.1473 5.22982 13.6801 5.44602 13.146 5.74926C12.5999 6.05939 11.8827 6.52146 10.8968 7.1724L11.9988 8.84142ZM16.5599 7.56311C18.7297 8.00712 20.5922 6.91293 21.2876 6.29634L19.9606 4.79993C19.5406 5.17238 18.2962 5.87697 16.9609 5.60371L16.5599 7.56311ZM1.46148 7.35218C1.49831 8.20557 1.69221 9.54796 2.15501 10.8924C2.61202 12.22 3.37739 13.6842 4.64564 14.6172L5.83079 13.0062C5.03592 12.4215 4.44559 11.4019 4.04611 10.2414C3.65243 9.0978 3.48905 7.94773 3.45962 7.26595L1.46148 7.35218ZM4.64564 14.6172C5.39137 15.1658 6.15644 15.4875 6.7129 15.7426C7.31334 16.0179 7.64072 16.2042 7.85866 16.4621C8.04442 16.6819 8.23749 17.0645 8.24702 17.9171C8.25681 18.7923 8.0711 20.0742 7.56645 21.9917L9.50059 22.5008C10.0219 20.5199 10.2597 19.0354 10.2469 17.8947C10.2339 16.7313 9.95842 15.8482 9.38622 15.1712C8.8462 14.5322 8.12619 14.1904 7.54638 13.9245C6.92257 13.6386 6.37451 13.4062 5.83079 13.0062L4.64564 14.6172ZM20.0588 15.5294C20.0588 17.4787 18.4787 19.0588 16.5294 19.0588V21.0588C19.5832 21.0588 22.0588 18.5832 22.0588 15.5294H20.0588ZM16.5294 19.0588C14.5802 19.0588 13 17.4787 13 15.5294H11C11 18.5832 13.4756 21.0588 16.5294 21.0588V19.0588ZM13 15.5294C13 13.5802 14.5802 12 16.5294 12V10C13.4756 10 11 12.4756 11 15.5294H13ZM16.5294 12C18.4787 12 20.0588 13.5802 20.0588 15.5294H22.0588C22.0588 12.4756 19.5832 10 16.5294 10V12ZM19.0576 19.4718L22.2929 22.7071L23.7071 21.2929L20.4718 18.0576L19.0576 19.4718Z" fill="black"/>
</svg>
