<svg width="24" height="24" viewBox="0 0 24 24" fill="none" xmlns="http://www.w3.org/2000/svg">
<g clip-path="url(#clip0_9_2592)">
<path d="M6 7L10 8" stroke="black" stroke-width="2" stroke-linecap="round"/>
<path d="M18 7L14 8" stroke="black" stroke-width="2" stroke-linecap="round"/>
<path d="M8.31238 9.31247H8.68738M8.31238 9.68747H8.68738M9 9.5C9 9.77614 8.77614 10 8.5 10C8.22386 10 8 9.77614 8 9.5C8 9.22386 8.22386 9 8.5 9C8.77614 9 9 9.22386 9 9.5Z" stroke="#111111" stroke-width="2" stroke-linecap="round"/>
<path d="M15.3124 9.31247H15.6874M15.3124 9.68747H15.6874M16 9.5C16 9.77614 15.7761 10 15.5 10C15.2239 10 15 9.77614 15 9.5C15 9.22386 15.2239 9 15.5 9C15.7761 9 16 9.22386 16 9.5Z" stroke="#111111" stroke-width="2" stroke-linecap="round"/>
<path d="M7 18C7.41667 17 9 15 12 15C15 15 16.5833 17 17 18" stroke="#111111" stroke-width="2" stroke-linecap="round"/>
<path d="M12 23C18.0751 23 23 18.0751 23 12C23 5.92487 18.0751 1 12 1C5.92487 1 1 5.92487 1 12C1 18.0751 5.92487 23 12 23Z" stroke="#111111" stroke-width="2" stroke-linecap="round"/>
</g>
<defs>
<clipPath id="clip0_9_2592">
<rect width="24" height="24" fill="white"/>
</clipPath>
</defs>
</svg>
