<svg width="24" height="24" viewBox="0 0 24 24" fill="none" xmlns="http://www.w3.org/2000/svg">
<g clip-path="url(#clip0_9_2568)">
<path d="M7 9C7.125 8.66667 7.6 8 8.5 8C9.4 8 9.875 8.66667 10 9" stroke="#111111" stroke-width="2" stroke-linecap="round"/>
<path d="M15.3124 8.31247H15.6874M15.3124 8.68747H15.6874M16 8.5C16 8.77614 15.7761 9 15.5 9C15.2239 9 15 8.77614 15 8.5C15 8.22386 15.2239 8 15.5 8C15.7761 8 16 8.22386 16 8.5Z" stroke="#111111" stroke-width="2" stroke-linecap="round"/>
<path d="M7 15C7.41667 16 9 18 12 18C15 18 16.5833 16 17 15" stroke="#111111" stroke-width="2" stroke-linecap="round"/>
<path d="M12 23C18.0751 23 23 18.0751 23 12C23 5.92487 18.0751 1 12 1C5.92487 1 1 5.92487 1 12C1 18.0751 5.92487 23 12 23Z" stroke="#111111" stroke-width="2" stroke-linecap="round"/>
</g>
<defs>
<clipPath id="clip0_9_2568">
<rect width="24" height="24" fill="white"/>
</clipPath>
</defs>
</svg>
