<svg viewBox="0 0 24 24" fill="none" xmlns="http://www.w3.org/2000/svg">
<path d="M12.0007 3.99983C12.0007 3.44755 12.4484 2.99983 13.0007 2.99983H20.0007C20.553 2.99983 21.0007 3.44755 21.0007 3.99983C21.0007 4.55212 20.553 4.99983 20.0007 4.99983H13.0007C12.4484 4.99983 12.0007 4.55212 12.0007 3.99983Z" fill="black"/>
<path d="M12.0007 7.99983C12.0007 7.44755 12.4484 6.99983 13.0007 6.99983H20.0007C20.553 6.99983 21.0007 7.44755 21.0007 7.99983C21.0007 8.55212 20.553 8.99983 20.0007 8.99983H13.0007C12.4484 8.99983 12.0007 8.55212 12.0007 7.99983Z" fill="black"/>
<path d="M13.0007 10.9998C12.4484 10.9998 12.0007 11.4475 12.0007 11.9998C12.0007 12.5521 12.4484 12.9998 13.0007 12.9998H20.0007C20.553 12.9998 21.0007 12.5521 21.0007 11.9998C21.0007 11.4475 20.553 10.9998 20.0007 10.9998H13.0007Z" fill="black"/>
<path d="M12.0007 15.9998C12.0007 15.4475 12.4484 14.9998 13.0007 14.9998H20.0007C20.553 14.9998 21.0007 15.4475 21.0007 15.9998C21.0007 16.5521 20.553 16.9998 20.0007 16.9998H13.0007C12.4484 16.9998 12.0007 16.5521 12.0007 15.9998Z" fill="black"/>
<path d="M13.0007 18.9998C12.4484 18.9998 12.0007 19.4475 12.0007 19.9998C12.0007 20.5521 12.4484 20.9998 13.0007 20.9998H20.0007C20.553 20.9998 21.0007 20.5521 21.0007 19.9998C21.0007 19.4475 20.553 18.9998 20.0007 18.9998H13.0007Z" fill="black"/>
<path d="M5.93908 4.8342L5.31531 5.07039C5.21668 5.10737 5.09823 5.13982 4.96908 5.13982C4.47025 5.13982 4.05908 4.72234 4.05908 4.21982C4.05908 3.80555 4.32525 3.49825 4.66767 3.36128L4.67293 3.35918L6.61414 2.62499C6.68911 2.6 6.79371 2.56982 6.93908 2.56982C7.43156 2.56982 7.84908 2.98095 7.84908 3.46982V8.43982H8.40908C8.91167 8.43982 9.33908 8.86106 9.33908 9.35982C9.33908 9.87244 8.91782 10.2998 8.40908 10.2998H5.00908C4.50035 10.2998 4.07908 9.87244 4.07908 9.35982C4.07908 8.86106 4.5065 8.43982 5.00908 8.43982H5.93908V4.8342Z" fill="black"/>
<path d="M5.58522 16.007L5.58464 16.0083C5.52357 16.1372 5.43121 16.2684 5.29055 16.3669C5.1473 16.4671 4.97323 16.5198 4.77352 16.5198C4.22832 16.5198 3.85352 16.0959 3.85352 15.5998C3.85352 15.4989 3.87713 15.3954 3.89713 15.324C3.9155 15.2583 3.93914 15.191 3.9601 15.1462C4.34348 14.2502 5.18378 13.5698 6.35352 13.5698C7.87537 13.5698 9.03351 14.6707 9.03351 16.1198C9.03351 16.7725 8.75204 17.4121 8.194 18.0133L6.8857 19.4398H8.20352C8.71607 19.4398 9.13352 19.851 9.13352 20.3598C9.13352 20.8824 8.72228 21.2998 8.20352 21.2998H4.90352C4.3509 21.2998 3.94352 20.8886 3.94352 20.3598C3.94352 20.0687 4.08265 19.8605 4.18929 19.7405L6.70053 16.9291C7.03247 16.5603 7.10352 16.3489 7.10352 16.1198C7.10352 15.7283 6.79154 15.4298 6.35352 15.4298C6.16421 15.4298 6.02389 15.4812 5.90964 15.5677C5.79061 15.6579 5.68216 15.7999 5.58522 16.007Z" fill="black"/>
</svg>
