<svg viewBox="0 0 577 442" fill="none" xmlns="http://www.w3.org/2000/svg">
  <path
    d="M391.61 440.588C391.048 441.068 390.467 441.535 389.881 441.997H318.676C318.268 441.535 317.859 441.068 317.456 440.588C314.168 436.649 311.274 432.397 308.815 427.895C302.969 417.373 300.955 403.579 300.955 389.53C300.955 388.672 300.961 387.814 300.979 386.956C301.044 383.015 301.263 379.068 301.589 375.185C301.648 374.511 301.707 373.842 301.772 373.173C302.3 367.605 303.04 362.184 303.881 357.119C303.987 356.474 304.094 355.834 304.207 355.201C305.921 345.14 308.219 335.188 311.089 325.394C311.089 325.394 311.184 325.417 311.367 325.465C311.894 325.613 313.156 325.962 315.01 326.512C320.115 328.027 329.704 331.081 340.763 335.619C341.367 335.862 341.977 336.117 342.593 336.377C351.948 340.23 361.003 344.774 369.684 349.97C370.223 350.295 370.756 350.627 371.289 350.958V351.006L370.122 388.743L380.546 357.326C382.673 358.941 384.704 360.616 386.641 362.35C387.174 362.823 387.707 363.309 388.222 363.812C392.623 367.841 396.378 372.521 399.357 377.689C414.952 405.78 408.408 426.433 391.61 440.588Z"
    fill="#25B462" />
  <path
    d="M381.571 441.997H379.676C379.664 441.529 379.646 441.062 379.616 440.588C378.852 426.392 372.758 410.716 364.46 395.584C364.164 395.034 363.862 394.472 363.542 393.921C359.514 386.725 355.025 379.683 350.387 372.99C350.032 372.469 349.664 371.943 349.297 371.422C343.126 362.622 336.753 354.479 330.996 347.526C330.593 347.029 330.178 346.544 329.77 346.064C321.235 335.838 314.192 328.388 311.367 325.465C310.947 325.033 310.621 324.701 310.396 324.471C310.189 324.246 310.064 324.127 310.041 324.104L310.704 323.441L310.71 323.423L311.385 322.76C311.409 322.79 311.817 323.18 312.54 323.932C313.15 324.553 313.985 325.423 315.01 326.512C318.587 330.299 324.504 336.744 331.351 344.916C331.748 345.39 332.156 345.881 332.565 346.372C337.238 352.012 342.302 358.403 347.319 365.273C348.58 367.001 349.805 368.715 350.991 370.416C351.364 370.937 351.732 371.457 352.087 371.978C357.104 379.21 361.485 386.165 365.23 392.844L366.165 394.519C375.713 411.917 380.854 427.327 381.518 440.588C381.541 441.062 381.559 441.529 381.571 441.997Z"
    fill="white" />
  <path
    d="M341.805 334.235C341.467 334.702 341.124 335.164 340.762 335.619C338.046 339.117 334.882 342.242 331.351 344.916C330.836 345.295 330.308 345.685 329.77 346.064C328.299 347.089 326.777 348.037 325.209 348.905C318.748 352.5 311.581 354.648 304.206 355.201C303.97 355.225 303.727 355.243 303.49 355.254C303.383 355.888 303.282 356.521 303.17 357.166C303.407 357.154 303.644 357.142 303.881 357.119C311.693 356.61 319.293 354.373 326.133 350.568C327.806 349.64 329.43 348.625 330.995 347.526C331.528 347.153 332.05 346.762 332.565 346.372C336.342 343.506 339.715 340.144 342.592 336.377C342.936 335.921 343.274 335.46 343.605 334.998C342.989 334.738 342.391 334.483 341.805 334.235Z"
    fill="white" />
  <path
    d="M370.329 348.633C370.122 349.082 369.903 349.526 369.684 349.97C365.46 358.378 358.991 365.454 350.991 370.416C350.434 370.765 349.872 371.102 349.297 371.422C349.125 371.522 348.942 371.629 348.77 371.724C341.619 375.689 333.622 377.889 325.447 378.141C317.272 378.393 309.155 376.69 301.772 373.173C301.594 373.091 301.423 373.008 301.251 372.925C301.186 373.6 301.126 374.274 301.079 374.955C301.245 375.032 301.417 375.114 301.589 375.185C309.183 378.684 317.497 380.344 325.854 380.031C334.211 379.719 342.376 377.442 349.688 373.386C349.925 373.256 350.156 373.126 350.387 372.99C350.962 372.659 351.53 372.321 352.087 371.978C360.285 366.872 366.926 359.618 371.289 351.006C371.52 350.562 371.739 350.112 371.952 349.656C371.413 349.313 370.874 348.97 370.329 348.633Z"
    fill="white" />
  <path
    d="M386.955 361.007C386.854 361.456 386.754 361.906 386.641 362.35C383.594 374.842 375.95 385.73 365.23 392.844C364.679 393.217 364.111 393.572 363.542 393.921C362.932 394.288 362.322 394.655 361.694 394.998C352.047 400.333 340.939 402.432 330.008 400.984C319.078 399.536 308.901 394.618 300.979 386.956C300.842 386.832 300.712 386.701 300.582 386.571C300.582 387.453 300.576 388.323 300.588 389.199C300.706 389.311 300.83 389.424 300.955 389.53C309.204 396.997 319.584 401.699 330.642 402.978C341.699 404.257 352.88 402.048 362.618 396.661C363.246 396.318 363.862 395.963 364.46 395.584C365.04 395.241 365.603 394.886 366.166 394.519C377.038 387.332 384.888 376.403 388.222 363.812C388.335 363.386 388.447 362.959 388.548 362.527C388.033 362.007 387.494 361.516 386.955 361.007Z"
    fill="white" />
  <path d="M337.297 264.642H0V11.8H337.297V264.642Z" fill="white" />
  <path
    d="M81.7333 64.57C89.1483 64.57 95.1594 58.5642 95.1594 51.1555C95.1594 43.7469 89.1483 37.741 81.7333 37.741C74.3182 37.741 68.3071 43.7469 68.3071 51.1555C68.3071 58.5642 74.3182 64.57 81.7333 64.57Z"
    fill="#E6E6E6" />
  <path
    d="M112.741 42.2124C112.148 42.2135 111.58 42.4495 111.162 42.8687C110.743 43.2878 110.508 43.8559 110.508 44.4482C110.508 45.0404 110.743 45.6085 111.162 46.0277C111.58 46.4468 112.148 46.6828 112.741 46.6839H276.119C276.711 46.6828 277.28 46.4468 277.698 46.0277C278.117 45.6085 278.352 45.0404 278.352 44.4482C278.352 43.8559 278.117 43.2878 277.698 42.8687C277.28 42.4495 276.711 42.2135 276.119 42.2124H112.741Z"
    fill="#E6E6E6" />
  <path
    d="M112.741 55.627C112.148 55.6257 111.578 55.8601 111.158 56.2785C110.737 56.6969 110.5 57.265 110.499 57.858C110.498 58.451 110.732 59.0201 111.151 59.4403C111.57 59.8605 112.139 60.0972 112.732 60.0985H216.021C216.315 60.099 216.606 60.0415 216.878 59.9294C217.15 59.8173 217.398 59.6527 217.606 59.445C217.814 59.2374 217.979 58.9907 218.092 58.7192C218.205 58.4477 218.263 58.1566 218.263 57.8627C218.263 57.5688 218.205 57.2777 218.092 57.0062C217.979 56.7347 217.814 56.488 217.606 56.2804C217.398 56.0727 217.15 55.9081 216.878 55.796C216.606 55.6839 216.315 55.6264 216.021 55.627H112.741Z"
    fill="#E6E6E6" />
  <path d="M337.297 264.642H0V11.8H337.297V264.642ZM3.77519 260.87H333.521V15.572H3.77519V260.87Z" fill="#E6E6E6" />
  <path
    d="M18.8523 88.9064V239.292H318.444V88.9064H18.8523ZM317.004 126.143H243.906V90.3455H317.004V126.143ZM169.368 126.143V90.3455H242.466V126.143H169.368ZM242.466 127.582V163.38H169.368V127.582H242.466ZM167.928 126.143H94.8305V90.3455H167.928V126.143ZM167.928 127.582V163.38H94.8305V127.582H167.928ZM93.3901 163.38H20.2926V127.582H93.3901V163.38ZM93.3901 164.819V200.617H20.2926V164.819H93.3901ZM94.8305 164.819H167.928V200.617H94.8305V164.819ZM167.928 202.056V237.853H94.8305V202.056H167.928ZM169.368 202.056H242.466V237.853H169.368V202.056ZM169.368 200.617V164.819H242.466V200.617H169.368ZM243.906 164.819H317.004V200.617H243.906V164.819ZM243.906 163.38V127.582H317.004V163.38H243.906ZM93.3901 90.3455V126.143H20.2926V90.3455H93.3901ZM20.2926 202.056H93.3901V237.853H20.2926V202.056ZM243.906 237.853V202.056H317.004V237.853H243.906Z"
    fill="#E4E4E4" />
  <path
    d="M141.838 129.365L112.028 128.69C109.046 117.15 110.388 106.161 112.768 96.0356L142.578 96.71C139.562 107.356 139.308 118.593 141.838 129.365Z"
    fill="#00A656" />
  <path d="M117.875 103.253L117.891 102.119L133.335 102.67L133.318 103.804L117.875 103.253Z" fill="white" />
  <path d="M117.81 107.786L117.826 106.652L133.269 107.204L133.253 108.338L117.81 107.786Z" fill="white" />
  <path d="M117.745 112.319L117.761 111.186L133.205 111.738L133.189 112.871L117.745 112.319Z" fill="white" />
  <path d="M117.68 116.852L117.696 115.719L133.14 116.271L133.123 117.404L117.68 116.852Z" fill="white" />
  <path d="M117.615 121.385L117.631 120.252L133.075 120.804L133.058 121.937L117.615 121.385Z" fill="white" />
  <path
    d="M77.0221 212.833L47.2122 212.158C44.2305 200.618 45.5729 189.629 47.9524 179.503L77.7621 180.178C74.7469 190.824 74.4923 202.061 77.0221 212.833Z"
    fill="#F0F0F0" />
  <path d="M53.0593 186.72L53.0752 185.587L68.5193 186.138L68.5027 187.272L53.0593 186.72Z" fill="white" />
  <path d="M52.9946 191.254L53.0105 190.12L68.4538 190.672L68.438 191.806L52.9946 191.254Z" fill="white" />
  <path d="M52.929 195.787L52.9455 194.653L68.3889 195.205L68.373 196.339L52.929 195.787Z" fill="white" />
  <path d="M52.8643 200.32L52.8801 199.187L68.3242 199.739L68.3076 200.872L52.8643 200.32Z" fill="white" />
  <path d="M52.7993 204.853L52.8152 203.72L68.2593 204.272L68.2427 205.405L52.7993 204.853Z" fill="white" />
  <path
    d="M232.579 174.696L202.769 174.022C199.788 162.481 201.13 151.493 203.509 141.367L233.319 142.042C230.304 152.688 230.049 163.925 232.579 174.696Z"
    fill="#F0F0F0" />
  <path d="M208.617 148.584L208.633 147.451L224.077 148.002L224.06 149.135L208.617 148.584Z" fill="white" />
  <path d="M208.552 153.117L208.568 151.984L224.011 152.536L223.995 153.669L208.552 153.117Z" fill="white" />
  <path d="M208.486 157.651L208.503 156.517L223.946 157.069L223.93 158.203L208.486 157.651Z" fill="white" />
  <path d="M208.421 162.184L208.437 161.05L223.881 161.602L223.865 162.736L208.421 162.184Z" fill="white" />
  <path d="M208.357 166.717L208.373 165.584L223.817 166.136L223.8 167.269L208.357 166.717Z" fill="white" />
  <path
    d="M219.616 167.501L189.806 166.827C186.824 155.286 188.167 144.298 190.546 134.172L220.356 134.846C217.341 145.492 217.086 156.73 219.616 167.501Z"
    fill="#00A656" />
  <path d="M195.654 141.389L195.669 140.255L211.114 140.807L211.097 141.94L195.654 141.389Z" fill="white" />
  <path d="M195.589 145.922L195.604 144.789L211.048 145.34L211.032 146.474L195.589 145.922Z" fill="white" />
  <path d="M195.523 150.455L195.54 149.322L210.983 149.874L210.967 151.007L195.523 150.455Z" fill="white" />
  <path d="M195.458 154.988L195.474 153.855L210.918 154.407L210.902 155.54L195.458 154.988Z" fill="white" />
  <path d="M195.394 159.521L195.409 158.388L210.854 158.94L210.837 160.073L195.394 159.521Z" fill="white" />
  <path
    d="M329.562 233.232L299.752 232.557C296.77 221.017 298.113 210.028 300.492 199.902L330.302 200.577C327.287 211.223 327.032 222.46 329.562 233.232Z"
    fill="#00A656" />
  <path d="M305.599 207.119L305.616 205.986L321.059 206.537L321.043 207.671L305.599 207.119Z" fill="white" />
  <path d="M305.535 211.652L305.55 210.519L320.995 211.071L320.978 212.204L305.535 211.652Z" fill="white" />
  <path d="M305.469 216.186L305.486 215.053L320.929 215.604L320.913 216.737L305.469 216.186Z" fill="white" />
  <path d="M305.404 220.719L305.421 219.586L320.864 220.137L320.848 221.27L305.404 220.719Z" fill="white" />
  <path d="M305.339 225.252L305.355 224.119L320.799 224.671L320.783 225.804L305.339 225.252Z" fill="white" />
  <path
    d="M297.395 135.121L267.585 134.447C264.603 122.906 265.945 111.918 268.325 101.792L298.135 102.466C295.119 113.112 294.865 124.35 297.395 135.121Z"
    fill="#F0F0F0" />
  <path d="M273.432 109.009L273.448 107.876L288.892 108.427L288.876 109.56L273.432 109.009Z" fill="white" />
  <path d="M273.367 113.542L273.383 112.409L288.826 112.961L288.811 114.094L273.367 113.542Z" fill="white" />
  <path d="M273.302 118.075L273.318 116.942L288.762 117.494L288.746 118.627L273.302 118.075Z" fill="white" />
  <path d="M273.237 122.609L273.253 121.475L288.697 122.027L288.68 123.16L273.237 122.609Z" fill="white" />
  <path d="M273.172 127.142L273.188 126.008L288.632 126.56L288.615 127.693L273.172 127.142Z" fill="white" />
  <path
    d="M327.955 209.166C328.983 208.913 329.943 208.438 330.767 207.775C331.591 207.111 332.26 206.275 332.726 205.325C333.192 204.375 333.444 203.335 333.464 202.277C333.484 201.219 333.271 200.17 332.842 199.203L351.638 181.64L338.634 178.517L322.779 195.675C321.201 196.504 319.983 197.882 319.355 199.549C318.726 201.215 318.731 203.054 319.369 204.717C320.007 206.38 321.234 207.752 322.816 208.572C324.398 209.392 326.227 209.603 327.955 209.166Z"
    fill="#FFB6B6" />
  <path
    d="M337.664 195.019L328.898 182.67L361.824 148.645L369.469 95.0129C369.847 92.3619 370.804 89.8265 372.273 87.5868C373.742 85.3471 375.686 83.458 377.968 82.0535C380.25 80.649 382.813 79.7637 385.476 79.4603C388.139 79.157 390.836 79.4431 393.376 80.2983C397.961 81.848 401.744 85.152 403.895 89.4852C406.045 93.8183 406.387 98.8269 404.846 103.412L385.34 161.233L337.664 195.019Z"
    fill="#E4E4E4" />
  <path d="M399.485 423.54L389.754 423.539L385.125 386.038L399.487 386.039L399.485 423.54Z" fill="#FFB6B6" />
  <path
    d="M404.72 442H397.815L396.583 435.487L393.426 442H375.113C374.235 442 373.38 441.72 372.673 441.2C371.966 440.68 371.444 439.948 371.183 439.111C370.921 438.274 370.935 437.375 371.221 436.546C371.507 435.716 372.051 435.001 372.774 434.502L387.398 424.411V417.826L402.781 418.743L404.72 442Z"
    fill="#2F2E41" />
  <path d="M459.52 413.646L450.972 418.292L428.966 387.563L441.581 380.705L459.52 413.646Z" fill="#FFB6B6" />
  <path
    d="M472.949 427.361L466.884 430.658L462.685 425.526L463.028 432.754L446.942 441.5C446.171 441.919 445.286 442.081 444.417 441.963C443.547 441.844 442.738 441.45 442.108 440.839C441.478 440.229 441.06 439.433 440.915 438.568C440.769 437.703 440.905 436.814 441.301 436.031L449.319 420.183L446.169 414.399L460.119 407.859L472.949 427.361Z"
    fill="#2F2E41" />
  <path
    d="M403.585 410.186H383.475V338.637L371.025 291.992C362.09 258.634 359.716 223.86 364.033 189.599L364.051 189.459L364.159 189.368C364.479 189.1 396.342 162.775 416.498 182.913C430.083 196.487 417.317 245.295 416.603 247.974V332.114L403.585 410.186Z"
    fill="#2F2E41" />
  <path
    d="M357.909 202.595L364.39 137.836C363.548 136.07 351.427 124.884 364.101 105.217L377.79 73.1121L403.427 72.714L403.534 72.8219C409.565 78.8347 414.014 86.2451 416.483 94.3924C418.951 102.54 419.364 111.171 417.684 119.516L410.13 157.255L416.676 183.413L357.909 202.595Z"
    fill="#E4E4E4" />
  <path d="M391.588 339.007L432.9 397.065L448.747 385.808L414.245 314.967L391.588 339.007Z" fill="#2F2E41" />
  <path
    d="M388.213 66.5861C401.287 66.5861 411.885 55.9969 411.885 42.9345C411.885 29.872 401.287 19.2828 388.213 19.2828C375.139 19.2828 364.541 29.872 364.541 42.9345C364.541 55.9969 375.139 66.5861 388.213 66.5861Z"
    fill="#FFB6B6" />
  <path opacity="0.1" d="M382.395 128.481L388.877 167.337L382.395 199.717H369.432L375.324 167.337L382.395 128.481Z"
    fill="black" />
  <path
    d="M388.579 233.079C389.366 232.372 389.99 231.502 390.404 230.528C390.819 229.555 391.014 228.503 390.978 227.445C390.941 226.388 390.673 225.352 390.193 224.41C389.712 223.467 389.03 222.641 388.195 221.991L396.501 197.653L383.558 201.016L377.655 223.612C376.654 225.085 376.228 226.874 376.459 228.64C376.69 230.406 377.562 232.026 378.908 233.193C380.255 234.36 381.983 234.993 383.765 234.972C385.547 234.951 387.26 234.277 388.579 233.079Z"
    fill="#FFB6B6" />
  <path
    d="M390.478 216.03L376.925 209.26L389.939 163.753L371.409 112.841C370.493 110.325 370.143 107.637 370.384 104.971C370.624 102.304 371.449 99.7222 372.801 97.4097C374.152 95.0972 375.996 93.1102 378.202 91.5899C380.409 90.0696 382.923 89.0533 385.566 88.613C390.342 87.823 395.236 88.9582 399.175 91.7695C403.115 94.5807 405.777 98.8383 406.578 103.608L416.618 163.796L390.478 216.03Z"
    fill="#E4E4E4" />
  <path
    d="M480.279 41.7779C477.292 46.622 470.966 48.7575 465.355 47.7876C459.744 46.8177 454.868 43.1993 451.267 38.7921C447.666 34.3849 445.175 29.1973 442.724 24.0621C440.272 18.9269 437.793 13.7352 434.21 9.31346C430.627 4.89163 425.777 1.24544 420.174 0.229856C417.125 -0.322845 413.671 0.04205 411.446 2.19742C409.912 3.81293 409.075 5.96577 409.114 8.19222C408.144 7.85111 407.106 7.75356 406.089 7.90818C405.073 8.0628 404.11 8.46484 403.286 9.07887C402.462 9.69289 401.802 10.5 401.363 11.4292C400.925 12.3583 400.722 13.3809 400.773 14.4068C400.69 14.4052 400.608 14.3997 400.525 14.3997C390.085 8.46946 374.239 11.9145 374.239 18.3904C368.511 18.3904 361.51 24.0427 361.51 32.6257C373.356 32.6257 380.327 47.7901 373.411 58.6631C371.626 61.4365 369.658 64.0881 367.52 66.6003H382.333C383.576 64.8187 384.326 62.7408 384.507 60.5767C385.051 62.5428 385.376 64.5629 385.477 66.6003C385.477 66.6003 425.939 71.8096 415.496 31.5129C416.187 31.4784 416.859 31.2749 417.453 30.9202C419.03 29.9706 419.889 27.9621 420.039 25.9241C420.43 26.0284 420.819 26.1324 421.207 26.2362C423.991 26.987 426.882 27.96 428.793 30.1177C432.023 33.7645 431.343 39.2997 432.516 44.026C433.93 49.7256 438.161 54.3357 442.86 57.8618C447.909 61.6503 453.808 64.5286 460.094 65.1261C466.38 65.7236 473.069 63.8136 477.425 59.2458C481.78 54.678 483.297 47.3195 480.279 41.7779Z"
    fill="#8954EB" />
</svg>
