<svg viewBox="0 0 626 417" fill="none" xmlns="http://www.w3.org/2000/svg">
  <g clip-path="url(#clip0_109_13754)">
    <path d="M85.4 405.79L96.832 405.789L102.269 361.693L85.396 361.695L85.4 405.79Z" fill="#FFB8B8" />
    <path
      d="M118.881 416.403L82.9511 416.406L82.9499 402.524L104.998 402.522C108.679 402.522 112.21 403.984 114.814 406.587C117.418 409.19 118.881 412.721 118.881 416.403Z"
      fill="#2F2E41" />
    <path d="M177.4 405.79L188.832 405.789L194.269 361.693L177.396 361.695L177.4 405.79Z" fill="#FFB8B8" />
    <path
      d="M210.881 416.403L174.951 416.406L174.95 402.524L196.998 402.522C200.679 402.522 204.21 403.984 206.814 406.587C209.418 409.19 210.881 412.721 210.881 416.403Z"
      fill="#2F2E41" />
    <path
      d="M82.9274 389.55C81.884 389.551 80.8728 389.188 80.0672 388.525C79.2616 387.862 78.7119 386.939 78.5124 385.915L71.1713 293.67C63.2683 215.553 76.7956 188.033 76.9333 187.764L77.0817 187.474L77.407 187.493L140.86 191.145L154.329 235.205L189.933 283.043C195.566 290.64 198.558 299.872 198.454 309.329L197.553 379.077C197.532 380.205 197.091 381.284 196.317 382.104C195.542 382.923 194.49 383.424 193.365 383.508L174.778 384.801C173.616 384.886 172.466 384.515 171.573 383.767C170.68 383.019 170.112 381.953 169.991 380.794L165.386 305.069C165.373 304.99 165.336 304.917 165.28 304.861L112.475 255.644C112.3 255.459 112.082 255.321 111.84 255.243C111.598 255.165 111.34 255.15 111.09 255.199C110.84 255.248 110.607 255.36 110.413 255.524C110.219 255.688 110.069 255.899 109.978 256.137L104.653 384.332C104.712 384.941 104.644 385.556 104.454 386.138C104.265 386.72 103.957 387.256 103.55 387.714C103.136 388.181 102.63 388.558 102.064 388.82C101.497 389.082 100.882 389.223 100.258 389.235L83.0105 389.549C82.9827 389.55 82.9549 389.55 82.9274 389.55Z"
      fill="#2F2E41" />
    <path
      d="M127.536 92.3245C143.063 83.8365 148.77 64.3683 140.282 48.841C131.794 33.3137 112.326 27.6073 96.7982 36.0953C81.2709 44.5832 75.5645 64.0515 84.0525 79.5787C92.5404 95.106 112.009 100.813 127.536 92.3245Z"
      fill="#001506" />
    <path
      d="M249.798 127.104C248.605 126.431 247.278 126.027 245.911 125.921C244.544 125.816 243.171 126.011 241.888 126.494C240.605 126.977 239.443 127.735 238.485 128.715C237.526 129.696 236.795 130.874 236.341 132.168L214.947 133.367L212.504 146.546L242.694 144.428C244.917 145.046 247.291 144.827 249.363 143.812C251.436 142.797 253.065 141.057 253.941 138.922C254.817 136.787 254.879 134.404 254.115 132.226C253.352 130.048 251.816 128.226 249.798 127.104Z"
      fill="#FFB8B8" />
    <path
      d="M73.0108 235.847C73.6036 234.611 73.9181 233.26 73.9323 231.889C73.9465 230.519 73.6599 229.161 73.0928 227.913C72.5257 226.665 71.6919 225.557 70.65 224.666C69.6082 223.775 68.3836 223.123 67.0627 222.757L64.4418 201.49L51.1294 199.93L55.2524 229.911C54.7838 232.171 55.1605 234.525 56.3111 236.525C57.4617 238.526 59.3062 240.035 61.4951 240.767C63.6841 241.499 66.0654 241.402 68.1878 240.495C70.3102 239.588 72.0262 237.935 73.0108 235.847Z"
      fill="#FFB8B8" />
    <path
      d="M110.765 98.5786C124.329 98.5786 135.326 87.5823 135.326 74.0176C135.326 60.4529 124.329 49.4565 110.765 49.4565C97.2 49.4565 86.2036 60.4529 86.2036 74.0176C86.2036 87.5823 97.2 98.5786 110.765 98.5786Z"
      fill="#FFB8B8" />
    <path
      d="M115.607 199.824C102.547 199.824 91.6029 198.767 80.749 194.886C76.2807 193.289 75.8032 191.309 75.1749 188.832C74.1886 184.944 73.6478 138.966 78.7396 123.706C80.1212 119.605 82.6367 115.978 85.9946 113.248C89.3526 110.517 93.4156 108.794 97.7128 108.278C102.561 107.707 117.063 105.657 125.276 104.486C129.312 103.879 133.424 104.887 136.722 107.29C138.899 108.925 140.03 110.68 140.082 112.509L142.314 190.248C142.386 192.495 141.583 194.682 140.074 196.347C138.564 198.013 136.467 199.026 134.224 199.174C129.205 199.513 122.682 199.824 115.607 199.824Z"
      fill="#8954EB" />
    <path
      d="M50.6424 218.863C50.0369 218.863 49.4377 218.741 48.8806 218.503C48.3235 218.266 47.82 217.919 47.4002 217.483C46.9805 217.046 46.6532 216.53 46.4378 215.964C46.2225 215.398 46.1235 214.794 46.1469 214.189L46.9269 178.534C47.0979 174.128 48.4135 169.842 50.7443 166.099L81.0098 117.55C81.9582 116.037 83.2755 114.79 84.8381 113.927C86.4007 113.063 88.1571 112.612 89.9424 112.614C91.7299 112.614 93.4871 113.074 95.0451 113.95C96.6031 114.826 97.9094 116.089 98.8383 117.616C99.8032 119.194 100.334 120.999 100.378 122.848C100.421 124.697 99.9754 126.525 99.0857 128.146L69.7279 181.502L71.7488 214.25C71.7596 214.847 71.6514 215.44 71.4307 215.995C71.21 216.549 70.8812 217.055 70.4633 217.481C70.0454 217.907 69.5469 218.246 68.9968 218.478C68.4466 218.71 67.8559 218.83 67.2589 218.831L50.6524 218.863L50.6424 218.863Z"
      fill="#8954EB" />
    <path
      d="M230.009 151.856C229.608 152.31 229.119 152.677 228.571 152.934C228.023 153.192 227.429 153.336 226.824 153.356L191.193 155.246C186.789 155.404 182.42 154.412 178.516 152.369L127.839 125.819C126.257 124.991 124.913 123.771 123.934 122.277C122.956 120.782 122.376 119.063 122.249 117.281C122.122 115.499 122.452 113.715 123.209 112.097C123.965 110.479 125.123 109.081 126.572 108.036C128.073 106.956 129.833 106.291 131.674 106.109C133.514 105.928 135.37 106.236 137.054 107.002L192.456 132.286L224.986 127.819C225.578 127.767 226.175 127.833 226.742 128.014C227.309 128.194 227.835 128.485 228.288 128.87C228.742 129.255 229.115 129.726 229.386 130.255C229.656 130.785 229.819 131.363 229.865 131.957L231.139 148.514C231.145 148.597 231.149 148.68 231.151 148.762C231.18 149.902 230.772 151.009 230.009 151.856Z"
      fill="#8954EB" />
    <path d="M92.5712 70.5391L86.1992 53.3321L114.851 45.0391L135.33 51.3321V70.5391H92.5712Z" fill="#001506" />
    <path
      d="M122.69 31.7463C122.082 24.8425 119.432 18.2763 115.078 12.884C110.724 7.49166 104.864 3.51743 98.2433 1.46755C91.6229 -0.58232 84.5421 -0.615031 77.903 1.37357C71.2639 3.36218 65.367 7.28208 60.9636 12.6339C54.9401 19.9549 52.1568 29.3731 50.1198 38.6322C48.0827 47.8912 46.6078 57.3942 42.6525 66.0101C38.6972 74.626 31.7236 82.4537 22.5169 84.7155C13.3101 86.9773 2.12826 81.8844 0 72.6459C0.330168 78.8896 1.9069 85.0041 4.63727 90.6289C7.36764 96.2537 11.1964 101.275 15.8979 105.397C23.8748 112.315 36.8988 109.869 44.7516 102.81C52.6043 95.7516 56.4911 85.3928 59.8534 75.3836C63.2158 65.3744 66.5311 54.9381 73.6635 47.1524C80.7959 39.3666 101.01 31.0914 110.171 36.342C117.355 40.4597 119.933 37.8421 122.69 31.7463Z"
      fill="#001506" />
    <path
      d="M609.145 236.559H261.145C256.77 236.554 252.576 234.814 249.483 231.721C246.39 228.628 244.65 224.434 244.645 220.059V43.0593C244.65 38.6848 246.39 34.4908 249.483 31.3975C252.576 28.3042 256.77 26.5643 261.145 26.5593H609.145C613.52 26.5643 617.714 28.3042 620.807 31.3975C623.9 34.4908 625.64 38.6848 625.645 43.0593V220.059C625.64 224.434 623.9 228.628 620.807 231.721C617.714 234.814 613.52 236.554 609.145 236.559Z"
      fill="#E6E6E6" />
    <path
      d="M605.145 224.559H265.145C262.891 224.557 260.731 223.66 259.137 222.067C257.544 220.473 256.648 218.313 256.645 216.059V47.0593C256.648 44.8058 257.544 42.6452 259.137 41.0517C260.731 39.4582 262.891 38.5618 265.145 38.5593H605.145C607.399 38.5618 609.559 39.4582 611.153 41.0517C612.746 42.6452 613.643 44.8058 613.645 47.0593V216.059C613.643 218.313 612.746 220.473 611.153 222.067C609.559 223.66 607.399 224.557 605.145 224.559Z"
      fill="white" />
    <path
      d="M568.145 200.059H302.145C300.023 200.059 297.988 199.216 296.488 197.716C294.988 196.216 294.145 194.181 294.145 192.059C294.145 189.938 294.988 187.903 296.488 186.402C297.988 184.902 300.023 184.059 302.145 184.059H568.145C570.267 184.059 572.302 184.902 573.802 186.402C575.302 187.903 576.145 189.938 576.145 192.059C576.145 194.181 575.302 196.216 573.802 197.716C572.302 199.216 570.267 200.059 568.145 200.059Z"
      fill="#E6E6E6" />
    <path
      d="M568.145 166.059H302.145C300.023 166.059 297.988 165.216 296.488 163.716C294.988 162.216 294.145 160.181 294.145 158.059C294.145 155.938 294.988 153.903 296.488 152.402C297.988 150.902 300.023 150.059 302.145 150.059H568.145C570.267 150.059 572.302 150.902 573.802 152.402C575.302 153.903 576.145 155.938 576.145 158.059C576.145 160.181 575.302 162.216 573.802 163.716C572.302 165.216 570.267 166.059 568.145 166.059Z"
      fill="#E6E6E6" />
    <path
      d="M360.145 126.687H302.145C299.891 126.684 297.731 125.788 296.137 124.194C294.544 122.601 293.648 120.44 293.645 118.187V75.9319C293.648 73.6783 294.544 71.5178 296.137 69.9243C297.731 68.3307 299.891 67.4344 302.145 67.4319H360.145C362.399 67.4344 364.559 68.3307 366.153 69.9243C367.746 71.5178 368.643 73.6783 368.645 75.9319V118.187C368.643 120.44 367.746 122.601 366.153 124.194C364.559 125.788 362.399 126.684 360.145 126.687Z"
      fill="#00A656" />
    <path
      d="M568.44 122.059H433.44C431.318 122.059 429.284 121.216 427.783 119.716C426.283 118.216 425.44 116.181 425.44 114.059C425.44 111.938 426.283 109.903 427.783 108.402C429.284 106.902 431.318 106.059 433.44 106.059H568.44C570.562 106.059 572.597 106.902 574.097 108.402C575.597 109.903 576.44 111.938 576.44 114.059C576.44 116.181 575.597 118.216 574.097 119.716C572.597 121.216 570.562 122.059 568.44 122.059Z"
      fill="#CCCCCC" />
    <path
      d="M512.44 88.0593H433.44C431.318 88.0593 429.284 87.2164 427.783 85.7162C426.283 84.2159 425.44 82.1811 425.44 80.0593C425.44 77.9376 426.283 75.9028 427.783 74.4025C429.284 72.9022 431.318 72.0593 433.44 72.0593H512.44C514.562 72.0593 516.597 72.9022 518.097 74.4025C519.597 75.9028 520.44 77.9376 520.44 80.0593C520.44 82.1811 519.597 84.2159 518.097 85.7162C516.597 87.2164 514.562 88.0593 512.44 88.0593Z"
      fill="#CCCCCC" />
  </g>
  <defs>
    <clipPath id="clip0_109_13754">
      <rect width="625.645" height="417.059" fill="white" />
    </clipPath>
  </defs>
</svg>
