<svg viewBox="0 0 513 400" fill="none" xmlns="http://www.w3.org/2000/svg">
  <g clip-path="url(#clip0_108_12593)">
    <path
      d="M297.021 301.095L361.136 306.787L361.823 306.849V33.2693C361.594 33.1096 361.365 32.95 361.136 32.7903C347.774 23.4438 333.319 15.7654 318.094 9.92603L314.818 55.1132L314.519 59.2501L311.278 104.062L310.278 117.848L297.138 299.499L297.021 301.095Z"
      fill="#E6E6E6" />
    <path
      d="M138.463 28.1743C138.005 28.4659 137.547 28.7574 137.089 29.0628V306.849L138.463 306.724L201.885 301.095L201.767 299.499L188.627 117.848L187.628 104.062L184.386 59.25L184.088 55.1131L180.652 7.72559C165.835 12.8616 151.674 19.7252 138.463 28.1743Z"
      fill="#E6E6E6" />
    <path
      d="M137.089 29.0628C136.165 29.6597 135.242 30.2706 134.333 30.8883V310.639C134.333 317.629 138.477 323.487 144.016 324.98C144.921 325.225 145.855 325.348 146.792 325.348H352.807C353.742 325.349 354.674 325.225 355.576 324.98C357.635 324.408 359.501 323.291 360.977 321.745C363.79 318.738 365.328 314.757 365.266 310.639V35.7541C364.128 34.9142 362.983 34.0813 361.824 33.2691C361.595 33.1095 361.365 32.9499 361.136 32.7902V310.639C361.138 311.54 361.031 312.437 360.817 313.311C359.838 317.441 356.611 320.468 352.807 320.468H146.792C142.197 320.468 138.463 316.06 138.463 310.639V28.1743C138.005 28.4658 137.547 28.7574 137.089 29.0628Z"
      fill="#E6E6E6" />
    <path d="M363.201 55.1157H136.396V59.252H363.201V55.1157Z" fill="#E6E6E6" />
    <path d="M293.738 2.35315C292.363 2.01303 290.989 1.69373 289.601 1.39526V113.711H293.738V2.35315Z"
      fill="#E6E6E6" />
    <path d="M209.998 0C208.617 0.256824 207.236 0.520581 205.861 0.80517V113.711H209.998V0Z" fill="#E6E6E6" />
    <path
      d="M91.9287 318.108C91.9277 320.481 92.3825 322.833 93.2684 325.035C93.6086 325.889 94.0147 326.715 94.4831 327.506C95.088 328.538 95.7899 329.509 96.5793 330.408C98.3231 332.395 100.471 333.987 102.879 335.077C105.288 336.168 107.901 336.732 110.545 336.731H382.161C387.098 336.731 391.833 334.77 395.324 331.279C398.816 327.787 400.777 323.052 400.777 318.115C400.777 313.177 398.816 308.442 395.324 304.951C391.833 301.46 387.098 299.499 382.161 299.499H110.545C105.61 299.503 100.879 301.465 97.3891 304.954C93.8991 308.443 91.9354 313.173 91.9287 318.108Z"
      fill="#E6E6E6" />
    <path d="M136.396 117.849L361.822 117.849V104.062L136.396 104.062V117.849Z" fill="#E6E6E6" />
    <path
      d="M258.761 107.509H239.458C239.458 106.513 239.654 105.527 240.035 104.607C240.417 103.687 240.975 102.851 241.679 102.146C242.383 101.442 243.219 100.884 244.139 100.503C245.059 100.122 246.045 99.9254 247.041 99.9254H251.178C253.189 99.9254 255.118 100.724 256.54 102.146C257.962 103.569 258.761 105.497 258.761 107.509Z"
      fill="#E6E6E6" />
    <path
      d="M0 328.742C6.02999 335.887 12.5521 342.601 19.5186 348.836H493.31C500.277 342.601 506.799 335.887 512.829 328.742H0Z"
      fill="#3F3D56" />
    <path
      d="M128.523 261.544V332.733H178.396V261.544C178.397 261.032 178.233 260.533 177.93 260.121C177.626 259.709 177.198 259.405 176.709 259.254C176.479 259.177 176.237 259.14 175.994 259.142H130.932C130.616 259.142 130.303 259.203 130.011 259.324C129.719 259.444 129.454 259.621 129.23 259.844C129.006 260.067 128.829 260.332 128.708 260.624C128.586 260.915 128.524 261.228 128.523 261.544ZM147.987 286.005C148 284.601 148.566 283.26 149.563 282.272C150.56 281.284 151.907 280.73 153.31 280.73C154.714 280.73 156.061 281.284 157.058 282.272C158.055 283.26 158.621 284.601 158.634 286.005V294.265C158.627 295.672 158.063 297.019 157.065 298.012C156.068 299.004 154.718 299.562 153.31 299.562C151.903 299.562 150.553 299.004 149.555 298.012C148.558 297.019 147.994 295.672 147.987 294.265V286.005Z"
      fill="#2F2E41" />
    <path
      d="M128.37 330.456V337.321C128.371 337.677 128.513 338.018 128.763 338.27C129.014 338.522 129.354 338.665 129.71 338.668H177.208C177.564 338.666 177.905 338.523 178.156 338.271C178.407 338.019 178.548 337.677 178.548 337.321V330.456H128.37Z"
      fill="#3F3D56" />
    <path
      d="M50.0664 154.289V284.269C50.0677 285.926 50.7263 287.514 51.8976 288.685C53.0688 289.857 54.6571 290.515 56.3135 290.517H248.931C250.588 290.515 252.176 289.857 253.347 288.685C254.519 287.514 255.177 285.926 255.179 284.269V154.289C255.175 152.634 254.515 151.048 253.344 149.878C252.173 148.709 250.586 148.051 248.931 148.049H56.3135C54.6585 148.051 53.0718 148.709 51.9009 149.878C50.73 151.048 50.0704 152.634 50.0664 154.289Z"
      fill="#3F3D56" />
    <path
      d="M54.5859 155.906V282.666C54.5875 283.551 54.9397 284.4 55.5655 285.025C56.1913 285.651 57.0396 286.003 57.9246 286.005H247.329C248.214 286.003 249.062 285.651 249.688 285.025C250.314 284.4 250.666 283.551 250.668 282.666V155.906C250.667 155.02 250.316 154.17 249.69 153.543C249.064 152.916 248.215 152.562 247.329 152.561H57.9246C57.0386 152.562 56.1894 152.916 55.5635 153.543C54.9376 154.17 54.586 155.02 54.5859 155.906Z"
      fill="#9B67FF" />
    <path
      d="M93.2064 340.285C93.3992 340.527 93.6443 340.722 93.9232 340.855C94.2021 340.989 94.5076 341.057 94.8168 341.056H207.5C207.808 341.055 208.112 340.986 208.391 340.853C208.669 340.721 208.914 340.528 209.108 340.288C209.302 340.049 209.44 339.769 209.513 339.47C209.585 339.17 209.59 338.858 209.527 338.557L207.778 330.248C207.705 329.909 207.549 329.594 207.324 329.331C207.098 329.068 206.81 328.865 206.487 328.742C206.252 328.65 206.003 328.603 205.751 328.603H96.5591C96.3073 328.603 96.0577 328.65 95.8233 328.742C95.4995 328.865 95.2118 329.068 94.9863 329.331C94.7608 329.594 94.6047 329.909 94.5322 330.248L92.783 338.557C92.7208 338.858 92.7265 339.17 92.7997 339.469C92.873 339.768 93.0119 340.046 93.2064 340.285Z"
      fill="#2F2E41" />
    <path
      d="M201.818 332.182H204.611C204.798 332.182 204.95 332.03 204.95 331.843V330.438C204.95 330.251 204.798 330.099 204.611 330.099H201.818C201.631 330.099 201.48 330.251 201.48 330.438V331.843C201.48 332.03 201.631 332.182 201.818 332.182Z"
      fill="#3F3D56" />
    <path
      d="M194.877 332.182H197.67C197.857 332.182 198.009 332.03 198.009 331.843V330.438C198.009 330.251 197.857 330.099 197.67 330.099H194.877C194.69 330.099 194.538 330.251 194.538 330.438V331.843C194.538 332.03 194.69 332.182 194.877 332.182Z"
      fill="#3F3D56" />
    <path
      d="M187.937 332.182H190.729C190.917 332.182 191.068 332.03 191.068 331.843V330.438C191.068 330.251 190.917 330.099 190.729 330.099H187.937C187.749 330.099 187.598 330.251 187.598 330.438V331.843C187.598 332.03 187.749 332.182 187.937 332.182Z"
      fill="#3F3D56" />
    <path
      d="M180.995 332.182H183.788C183.975 332.182 184.127 332.03 184.127 331.843V330.438C184.127 330.251 183.975 330.099 183.788 330.099H180.995C180.808 330.099 180.656 330.251 180.656 330.438V331.843C180.656 332.03 180.808 332.182 180.995 332.182Z"
      fill="#3F3D56" />
    <path
      d="M174.054 332.182H176.847C177.034 332.182 177.186 332.03 177.186 331.843V330.438C177.186 330.251 177.034 330.099 176.847 330.099H174.054C173.867 330.099 173.715 330.251 173.715 330.438V331.843C173.715 332.03 173.867 332.182 174.054 332.182Z"
      fill="#3F3D56" />
    <path
      d="M167.112 332.182H169.905C170.092 332.182 170.244 332.03 170.244 331.843V330.438C170.244 330.251 170.092 330.099 169.905 330.099H167.112C166.925 330.099 166.774 330.251 166.774 330.438V331.843C166.774 332.03 166.925 332.182 167.112 332.182Z"
      fill="#3F3D56" />
    <path
      d="M160.172 332.182H162.965C163.152 332.182 163.304 332.03 163.304 331.843V330.438C163.304 330.251 163.152 330.099 162.965 330.099H160.172C159.985 330.099 159.833 330.251 159.833 330.438V331.843C159.833 332.03 159.985 332.182 160.172 332.182Z"
      fill="#3F3D56" />
    <path
      d="M153.231 332.182H156.023C156.211 332.182 156.362 332.03 156.362 331.843V330.438C156.362 330.251 156.211 330.099 156.023 330.099H153.231C153.043 330.099 152.892 330.251 152.892 330.438V331.843C152.892 332.03 153.043 332.182 153.231 332.182Z"
      fill="#3F3D56" />
    <path
      d="M146.289 332.182H149.082C149.269 332.182 149.421 332.03 149.421 331.843V330.438C149.421 330.251 149.269 330.099 149.082 330.099H146.289C146.102 330.099 145.95 330.251 145.95 330.438V331.843C145.95 332.03 146.102 332.182 146.289 332.182Z"
      fill="#3F3D56" />
    <path
      d="M139.348 332.182H142.141C142.328 332.182 142.479 332.03 142.479 331.843V330.438C142.479 330.251 142.328 330.099 142.141 330.099H139.348C139.161 330.099 139.009 330.251 139.009 330.438V331.843C139.009 332.03 139.161 332.182 139.348 332.182Z"
      fill="#3F3D56" />
    <path
      d="M132.406 332.182H135.199C135.386 332.182 135.538 332.03 135.538 331.843V330.438C135.538 330.251 135.386 330.099 135.199 330.099H132.406C132.219 330.099 132.067 330.251 132.067 330.438V331.843C132.067 332.03 132.219 332.182 132.406 332.182Z"
      fill="#3F3D56" />
    <path
      d="M125.466 332.182H128.259C128.446 332.182 128.598 332.03 128.598 331.843V330.438C128.598 330.251 128.446 330.099 128.259 330.099H125.466C125.279 330.099 125.127 330.251 125.127 330.438V331.843C125.127 332.03 125.279 332.182 125.466 332.182Z"
      fill="#3F3D56" />
    <path
      d="M118.525 332.182H121.317C121.505 332.182 121.656 332.03 121.656 331.843V330.438C121.656 330.251 121.505 330.099 121.317 330.099H118.525C118.337 330.099 118.186 330.251 118.186 330.438V331.843C118.186 332.03 118.337 332.182 118.525 332.182Z"
      fill="#3F3D56" />
    <path
      d="M111.583 332.182H114.376C114.563 332.182 114.715 332.03 114.715 331.843V330.438C114.715 330.251 114.563 330.099 114.376 330.099H111.583C111.396 330.099 111.244 330.251 111.244 330.438V331.843C111.244 332.03 111.396 332.182 111.583 332.182Z"
      fill="#3F3D56" />
    <path
      d="M104.642 332.182H107.435C107.622 332.182 107.773 332.03 107.773 331.843V330.438C107.773 330.251 107.622 330.099 107.435 330.099H104.642C104.455 330.099 104.303 330.251 104.303 330.438V331.843C104.303 332.03 104.455 332.182 104.642 332.182Z"
      fill="#3F3D56" />
    <path
      d="M97.7013 332.182H100.494C100.681 332.182 100.833 332.03 100.833 331.843V330.438C100.833 330.251 100.681 330.099 100.494 330.099H97.7013C97.5141 330.099 97.3624 330.251 97.3624 330.438V331.843C97.3624 332.03 97.5141 332.182 97.7013 332.182Z"
      fill="#3F3D56" />
    <path
      d="M201.9 335.652H204.693C204.88 335.652 205.032 335.501 205.032 335.314V333.909C205.032 333.722 204.88 333.57 204.693 333.57H201.9C201.713 333.57 201.562 333.722 201.562 333.909V335.314C201.562 335.501 201.713 335.652 201.9 335.652Z"
      fill="#3F3D56" />
    <path
      d="M194.959 335.652H197.752C197.939 335.652 198.091 335.501 198.091 335.314V333.909C198.091 333.722 197.939 333.57 197.752 333.57H194.959C194.772 333.57 194.62 333.722 194.62 333.909V335.314C194.62 335.501 194.772 335.652 194.959 335.652Z"
      fill="#3F3D56" />
    <path
      d="M188.019 335.652H190.812C190.999 335.652 191.15 335.501 191.15 335.314V333.909C191.15 333.722 190.999 333.57 190.812 333.57H188.019C187.832 333.57 187.68 333.722 187.68 333.909V335.314C187.68 335.501 187.832 335.652 188.019 335.652Z"
      fill="#3F3D56" />
    <path
      d="M181.077 335.652H183.87C184.057 335.652 184.209 335.501 184.209 335.314V333.909C184.209 333.722 184.057 333.57 183.87 333.57H181.077C180.89 333.57 180.738 333.722 180.738 333.909V335.314C180.738 335.501 180.89 335.652 181.077 335.652Z"
      fill="#3F3D56" />
    <path
      d="M174.136 335.652H176.929C177.116 335.652 177.268 335.501 177.268 335.314V333.909C177.268 333.722 177.116 333.57 176.929 333.57H174.136C173.949 333.57 173.797 333.722 173.797 333.909V335.314C173.797 335.501 173.949 335.652 174.136 335.652Z"
      fill="#3F3D56" />
    <path
      d="M167.194 335.652H169.987C170.174 335.652 170.326 335.501 170.326 335.314V333.909C170.326 333.722 170.174 333.57 169.987 333.57H167.194C167.007 333.57 166.856 333.722 166.856 333.909V335.314C166.856 335.501 167.007 335.652 167.194 335.652Z"
      fill="#3F3D56" />
    <path
      d="M160.254 335.652H163.047C163.234 335.652 163.386 335.501 163.386 335.314V333.909C163.386 333.722 163.234 333.57 163.047 333.57H160.254C160.067 333.57 159.915 333.722 159.915 333.909V335.314C159.915 335.501 160.067 335.652 160.254 335.652Z"
      fill="#3F3D56" />
    <path
      d="M153.313 335.652H156.105C156.293 335.652 156.444 335.501 156.444 335.314V333.909C156.444 333.722 156.293 333.57 156.105 333.57H153.313C153.125 333.57 152.974 333.722 152.974 333.909V335.314C152.974 335.501 153.125 335.652 153.313 335.652Z"
      fill="#3F3D56" />
    <path
      d="M146.371 335.652H149.164C149.351 335.652 149.503 335.501 149.503 335.314V333.909C149.503 333.722 149.351 333.57 149.164 333.57H146.371C146.184 333.57 146.032 333.722 146.032 333.909V335.314C146.032 335.501 146.184 335.652 146.371 335.652Z"
      fill="#3F3D56" />
    <path
      d="M139.43 335.652H142.223C142.41 335.652 142.562 335.501 142.562 335.314V333.909C142.562 333.722 142.41 333.57 142.223 333.57H139.43C139.243 333.57 139.091 333.722 139.091 333.909V335.314C139.091 335.501 139.243 335.652 139.43 335.652Z"
      fill="#3F3D56" />
    <path
      d="M132.488 335.652H135.281C135.468 335.652 135.62 335.501 135.62 335.314V333.909C135.62 333.722 135.468 333.57 135.281 333.57H132.488C132.301 333.57 132.15 333.722 132.15 333.909V335.314C132.15 335.501 132.301 335.652 132.488 335.652Z"
      fill="#3F3D56" />
    <path
      d="M125.548 335.652H128.341C128.528 335.652 128.68 335.501 128.68 335.314V333.909C128.68 333.722 128.528 333.57 128.341 333.57H125.548C125.361 333.57 125.209 333.722 125.209 333.909V335.314C125.209 335.501 125.361 335.652 125.548 335.652Z"
      fill="#3F3D56" />
    <path
      d="M118.607 335.652H121.399C121.587 335.652 121.738 335.501 121.738 335.314V333.909C121.738 333.722 121.587 333.57 121.399 333.57H118.607C118.419 333.57 118.268 333.722 118.268 333.909V335.314C118.268 335.501 118.419 335.652 118.607 335.652Z"
      fill="#3F3D56" />
    <path
      d="M111.665 335.652H114.458C114.645 335.652 114.797 335.501 114.797 335.314V333.909C114.797 333.722 114.645 333.57 114.458 333.57H111.665C111.478 333.57 111.326 333.722 111.326 333.909V335.314C111.326 335.501 111.478 335.652 111.665 335.652Z"
      fill="#3F3D56" />
    <path
      d="M104.724 335.652H107.517C107.704 335.652 107.855 335.501 107.855 335.314V333.909C107.855 333.722 107.704 333.57 107.517 333.57H104.724C104.537 333.57 104.385 333.722 104.385 333.909V335.314C104.385 335.501 104.537 335.652 104.724 335.652Z"
      fill="#3F3D56" />
    <path
      d="M97.7833 335.652H100.576C100.763 335.652 100.915 335.501 100.915 335.314V333.909C100.915 333.722 100.763 333.57 100.576 333.57H97.7833C97.5962 333.57 97.4444 333.722 97.4444 333.909V335.314C97.4444 335.501 97.5962 335.652 97.7833 335.652Z"
      fill="#3F3D56" />
    <path
      d="M144.289 339.817H171.376C171.563 339.817 171.715 339.665 171.715 339.478V338.073C171.715 337.886 171.563 337.735 171.376 337.735H144.289C144.102 337.735 143.95 337.886 143.95 338.073V339.478C143.95 339.665 144.102 339.817 144.289 339.817Z"
      fill="#3F3D56" />
    <path
      d="M67.4414 170.022H244.666C244.85 170.018 245.026 169.942 245.155 169.81C245.283 169.679 245.356 169.502 245.356 169.317C245.356 169.133 245.283 168.956 245.155 168.824C245.026 168.693 244.85 168.617 244.666 168.613H67.4414C67.2572 168.617 67.0818 168.693 66.953 168.824C66.8241 168.956 66.752 169.133 66.752 169.317C66.752 169.502 66.8241 169.679 66.953 169.81C67.0818 169.942 67.2572 170.018 67.4414 170.022Z"
      fill="#3F3D56" />
    <path
      d="M232.603 165.014C234.884 165.014 236.733 163.124 236.733 160.792C236.733 158.46 234.884 156.57 232.603 156.57C230.322 156.57 228.473 158.46 228.473 160.792C228.473 163.124 230.322 165.014 232.603 165.014Z"
      fill="#3F3D56" />
    <path
      d="M218.334 165.014C220.615 165.014 222.465 163.124 222.465 160.792C222.465 158.46 220.615 156.57 218.334 156.57C216.053 156.57 214.204 158.46 214.204 160.792C214.204 163.124 216.053 165.014 218.334 165.014Z"
      fill="#3F3D56" />
    <path
      d="M204.066 165.014C206.347 165.014 208.196 163.124 208.196 160.792C208.196 158.46 206.347 156.57 204.066 156.57C201.785 156.57 199.936 158.46 199.936 160.792C199.936 163.124 201.785 165.014 204.066 165.014Z"
      fill="#3F3D56" />
    <path
      d="M75.2774 158.384C75.2769 158.484 75.2961 158.583 75.3338 158.675C75.3716 158.768 75.4272 158.852 75.4975 158.922C75.5677 158.993 75.6513 159.05 75.7433 159.088C75.8354 159.127 75.9341 159.147 76.0339 159.148H86.1681C86.3684 159.143 86.559 159.06 86.699 158.917C86.839 158.773 86.9174 158.581 86.9174 158.381C86.9174 158.18 86.839 157.988 86.699 157.844C86.559 157.701 86.3684 157.618 86.1681 157.614H76.0339C75.8316 157.616 75.6385 157.698 75.4968 157.843C75.355 157.987 75.2761 158.182 75.2774 158.384Z"
      fill="#3F3D56" />
    <path
      d="M75.2774 161.265C75.2769 161.364 75.2961 161.463 75.3338 161.556C75.3716 161.648 75.4272 161.732 75.4975 161.803C75.5677 161.874 75.6513 161.93 75.7433 161.969C75.8354 162.008 75.9341 162.028 76.0339 162.028H86.1681C86.3686 162.024 86.5593 161.941 86.6996 161.798C86.8398 161.654 86.9183 161.462 86.9183 161.261C86.9183 161.061 86.8398 160.868 86.6996 160.725C86.5593 160.581 86.3686 160.499 86.1681 160.494H76.0339C75.8316 160.497 75.6385 160.579 75.4968 160.723C75.355 160.868 75.2761 161.062 75.2774 161.265Z"
      fill="#3F3D56" />
    <path
      d="M75.2774 164.138C75.2761 164.341 75.355 164.535 75.4968 164.68C75.6385 164.824 75.8316 164.906 76.0339 164.909H86.1681C86.3684 164.904 86.559 164.821 86.699 164.678C86.839 164.535 86.9174 164.342 86.9174 164.142C86.9174 163.941 86.839 163.749 86.699 163.606C86.559 163.462 86.3684 163.379 86.1681 163.375H76.0339C75.9341 163.375 75.8354 163.395 75.7433 163.434C75.6513 163.473 75.5677 163.529 75.4975 163.6C75.4272 163.671 75.3716 163.755 75.3338 163.847C75.2961 163.94 75.2769 164.038 75.2774 164.138Z"
      fill="#3F3D56" />
    <path
      d="M78.4091 186.401H74.7676C73.6636 186.401 72.7686 187.296 72.7686 188.4C72.7686 189.504 73.6636 190.399 74.7676 190.399H78.4091C79.5131 190.399 80.4081 189.504 80.4081 188.4C80.4081 187.296 79.5131 186.401 78.4091 186.401Z"
      fill="#E6E6E6" />
    <path
      d="M120.057 186.401H116.415C115.311 186.401 114.416 187.296 114.416 188.4C114.416 189.504 115.311 190.399 116.415 190.399H120.057C121.161 190.399 122.056 189.504 122.056 188.4C122.056 187.296 121.161 186.401 120.057 186.401Z"
      fill="#E6E6E6" />
    <path
      d="M131.856 186.401H128.215C127.111 186.401 126.216 187.296 126.216 188.4C126.216 189.504 127.111 190.399 128.215 190.399H131.856C132.96 190.399 133.855 189.504 133.855 188.4C133.855 187.296 132.96 186.401 131.856 186.401Z"
      fill="#E6E6E6" />
    <path
      d="M108.728 186.068H86.0957C84.9917 186.068 84.0967 186.963 84.0967 188.067C84.0967 189.171 84.9917 190.066 86.0957 190.066H108.728C109.832 190.066 110.727 189.171 110.727 188.067C110.727 186.963 109.832 186.068 108.728 186.068Z"
      fill="#E6E6E6" />
    <path
      d="M164.257 186.068H141.625C140.521 186.068 139.626 186.963 139.626 188.067C139.626 189.171 140.521 190.066 141.625 190.066H164.257C165.361 190.066 166.256 189.171 166.256 188.067C166.256 186.963 165.361 186.068 164.257 186.068Z"
      fill="#E6E6E6" />
    <path
      d="M89.5155 195.425H85.874C84.77 195.425 83.875 196.32 83.875 197.424C83.875 198.528 84.77 199.423 85.874 199.423H89.5155C90.6195 199.423 91.5145 198.528 91.5145 197.424C91.5145 196.32 90.6195 195.425 89.5155 195.425Z"
      fill="#E6E6E6" />
    <path
      d="M131.162 195.425H127.521C126.416 195.425 125.521 196.32 125.521 197.424C125.521 198.528 126.416 199.423 127.521 199.423H131.162C132.266 199.423 133.161 198.528 133.161 197.424C133.161 196.32 132.266 195.425 131.162 195.425Z"
      fill="#E6E6E6" />
    <path
      d="M142.962 195.425H139.32C138.216 195.425 137.321 196.32 137.321 197.424C137.321 198.528 138.216 199.423 139.32 199.423H142.962C144.066 199.423 144.961 198.528 144.961 197.424C144.961 196.32 144.066 195.425 142.962 195.425Z"
      fill="#E6E6E6" />
    <path
      d="M119.834 195.091H97.2022C96.0981 195.091 95.2031 195.986 95.2031 197.09C95.2031 198.194 96.0981 199.089 97.2022 199.089H119.834C120.938 199.089 121.833 198.194 121.833 197.09C121.833 195.986 120.938 195.091 119.834 195.091Z"
      fill="#E6E6E6" />
    <path
      d="M175.364 195.091H152.731C151.627 195.091 150.732 195.986 150.732 197.09C150.732 198.194 151.627 199.089 152.731 199.089H175.364C176.468 199.089 177.363 198.194 177.363 197.09C177.363 195.986 176.468 195.091 175.364 195.091Z"
      fill="#E6E6E6" />
    <path
      d="M100.621 204.448H96.9795C95.8755 204.448 94.9805 205.343 94.9805 206.447C94.9805 207.551 95.8755 208.446 96.9795 208.446H100.621C101.725 208.446 102.62 207.551 102.62 206.447C102.62 205.343 101.725 204.448 100.621 204.448Z"
      fill="#E6E6E6" />
    <path
      d="M142.268 204.448H138.627C137.523 204.448 136.628 205.343 136.628 206.447C136.628 207.551 137.523 208.446 138.627 208.446H142.268C143.372 208.446 144.267 207.551 144.267 206.447C144.267 205.343 143.372 204.448 142.268 204.448Z"
      fill="#E6E6E6" />
    <path
      d="M154.068 204.448H150.427C149.323 204.448 148.428 205.343 148.428 206.447C148.428 207.551 149.323 208.446 150.427 208.446H154.068C155.172 208.446 156.067 207.551 156.067 206.447C156.067 205.343 155.172 204.448 154.068 204.448Z"
      fill="#E6E6E6" />
    <path
      d="M130.94 204.115H108.308C107.204 204.115 106.309 205.01 106.309 206.114C106.309 207.218 107.204 208.113 108.308 208.113H130.94C132.044 208.113 132.939 207.218 132.939 206.114C132.939 205.01 132.044 204.115 130.94 204.115Z"
      fill="#E6E6E6" />
    <path
      d="M186.469 204.115H163.837C162.733 204.115 161.838 205.01 161.838 206.114C161.838 207.218 162.733 208.113 163.837 208.113H186.469C187.573 208.113 188.468 207.218 188.468 206.114C188.468 205.01 187.573 204.115 186.469 204.115Z"
      fill="#E6E6E6" />
    <path
      d="M111.726 213.472H108.085C106.981 213.472 106.086 214.367 106.086 215.471C106.086 216.575 106.981 217.47 108.085 217.47H111.726C112.83 217.47 113.725 216.575 113.725 215.471C113.725 214.367 112.83 213.472 111.726 213.472Z"
      fill="#E6E6E6" />
    <path
      d="M153.374 213.472H149.732C148.628 213.472 147.733 214.367 147.733 215.471C147.733 216.575 148.628 217.47 149.732 217.47H153.374C154.478 217.47 155.373 216.575 155.373 215.471C155.373 214.367 154.478 213.472 153.374 213.472Z"
      fill="#E6E6E6" />
    <path
      d="M165.174 213.472H161.532C160.428 213.472 159.533 214.367 159.533 215.471C159.533 216.575 160.428 217.47 161.532 217.47H165.174C166.278 217.47 167.173 216.575 167.173 215.471C167.173 214.367 166.278 213.472 165.174 213.472Z"
      fill="#E6E6E6" />
    <path
      d="M142.045 213.138H119.413C118.309 213.138 117.414 214.033 117.414 215.137C117.414 216.242 118.309 217.136 119.413 217.136H142.045C143.149 217.136 144.044 216.242 144.044 215.137C144.044 214.033 143.149 213.138 142.045 213.138Z"
      fill="#E6E6E6" />
    <path
      d="M120.057 249.353H116.415C115.311 249.353 114.416 250.248 114.416 251.352C114.416 252.456 115.311 253.351 116.415 253.351H120.057C121.161 253.351 122.056 252.456 122.056 251.352C122.056 250.248 121.161 249.353 120.057 249.353Z"
      fill="#E6E6E6" />
    <path
      d="M131.856 249.353H128.215C127.111 249.353 126.216 250.248 126.216 251.352C126.216 252.456 127.111 253.351 128.215 253.351H131.856C132.96 253.351 133.855 252.456 133.855 251.352C133.855 250.248 132.96 249.353 131.856 249.353Z"
      fill="#E6E6E6" />
    <path
      d="M164.257 249.687H141.625C140.521 249.687 139.626 250.582 139.626 251.686C139.626 252.79 140.521 253.685 141.625 253.685H164.257C165.361 253.685 166.256 252.79 166.256 251.686C166.256 250.582 165.361 249.687 164.257 249.687Z"
      fill="#E6E6E6" />
    <path
      d="M78.4091 249.353H74.7676C73.6636 249.353 72.7686 250.248 72.7686 251.352C72.7686 252.456 73.6636 253.351 74.7676 253.351H78.4091C79.5131 253.351 80.4081 252.456 80.4081 251.352C80.4081 250.248 79.5131 249.353 78.4091 249.353Z"
      fill="#E6E6E6" />
    <path
      d="M108.728 249.687H86.0957C84.9917 249.687 84.0967 250.582 84.0967 251.686C84.0967 252.79 84.9917 253.685 86.0957 253.685H108.728C109.832 253.685 110.727 252.79 110.727 251.686C110.727 250.582 109.832 249.687 108.728 249.687Z"
      fill="#E6E6E6" />
    <path
      d="M89.5155 240.33H85.874C84.77 240.33 83.875 241.225 83.875 242.329C83.875 243.433 84.77 244.328 85.874 244.328H89.5155C90.6195 244.328 91.5145 243.433 91.5145 242.329C91.5145 241.225 90.6195 240.33 89.5155 240.33Z"
      fill="#E6E6E6" />
    <path
      d="M131.162 240.33H127.521C126.416 240.33 125.521 241.225 125.521 242.329C125.521 243.433 126.416 244.328 127.521 244.328H131.162C132.266 244.328 133.161 243.433 133.161 242.329C133.161 241.225 132.266 240.33 131.162 240.33Z"
      fill="#E6E6E6" />
    <path
      d="M142.962 240.33H139.32C138.216 240.33 137.321 241.225 137.321 242.329C137.321 243.433 138.216 244.328 139.32 244.328H142.962C144.066 244.328 144.961 243.433 144.961 242.329C144.961 241.225 144.066 240.33 142.962 240.33Z"
      fill="#E6E6E6" />
    <path
      d="M119.834 240.663H97.2022C96.0981 240.663 95.2031 241.558 95.2031 242.662C95.2031 243.766 96.0981 244.661 97.2022 244.661H119.834C120.938 244.661 121.833 243.766 121.833 242.662C121.833 241.558 120.938 240.663 119.834 240.663Z"
      fill="#E6E6E6" />
    <path
      d="M100.621 231.306H96.9795C95.8755 231.306 94.9805 232.201 94.9805 233.305C94.9805 234.409 95.8755 235.304 96.9795 235.304H100.621C101.725 235.304 102.62 234.409 102.62 233.305C102.62 232.201 101.725 231.306 100.621 231.306Z"
      fill="#E6E6E6" />
    <path
      d="M142.268 231.306H138.627C137.523 231.306 136.628 232.201 136.628 233.305C136.628 234.409 137.523 235.304 138.627 235.304H142.268C143.372 235.304 144.267 234.409 144.267 233.305C144.267 232.201 143.372 231.306 142.268 231.306Z"
      fill="#E6E6E6" />
    <path
      d="M154.068 231.306H150.427C149.323 231.306 148.428 232.201 148.428 233.305C148.428 234.409 149.323 235.304 150.427 235.304H154.068C155.172 235.304 156.067 234.409 156.067 233.305C156.067 232.201 155.172 231.306 154.068 231.306Z"
      fill="#E6E6E6" />
    <path
      d="M130.94 231.639H108.308C107.204 231.639 106.309 232.534 106.309 233.638C106.309 234.742 107.204 235.637 108.308 235.637H130.94C132.044 235.637 132.939 234.742 132.939 233.638C132.939 232.534 132.044 231.639 130.94 231.639Z"
      fill="#E6E6E6" />
    <path
      d="M111.726 222.282H108.085C106.981 222.282 106.086 223.177 106.086 224.282C106.086 225.386 106.981 226.281 108.085 226.281H111.726C112.83 226.281 113.725 225.386 113.725 224.282C113.725 223.177 112.83 222.282 111.726 222.282Z"
      fill="#E6E6E6" />
    <path
      d="M153.374 222.282H149.732C148.628 222.282 147.733 223.177 147.733 224.282C147.733 225.386 148.628 226.281 149.732 226.281H153.374C154.478 226.281 155.373 225.386 155.373 224.282C155.373 223.177 154.478 222.282 153.374 222.282Z"
      fill="#E6E6E6" />
    <path
      d="M165.174 222.282H161.532C160.428 222.282 159.533 223.177 159.533 224.282C159.533 225.386 160.428 226.281 161.532 226.281H165.174C166.278 226.281 167.173 225.386 167.173 224.282C167.173 223.177 166.278 222.282 165.174 222.282Z"
      fill="#E6E6E6" />
    <path
      d="M142.045 222.616H119.413C118.309 222.616 117.414 223.511 117.414 224.615C117.414 225.719 118.309 226.614 119.413 226.614H142.045C143.149 226.614 144.044 225.719 144.044 224.615C144.044 223.511 143.149 222.616 142.045 222.616Z"
      fill="#E6E6E6" />
    <path
      d="M65.3164 379.711C65.7398 379.926 66.1702 380.141 66.5936 380.35C77.5607 385.833 86.3343 388.95 98.3357 392.365C99.3491 381.051 100.328 361.164 101.279 348.837C101.529 345.637 101.778 342.95 102.021 341.056C102.083 340.048 102.288 339.055 102.632 338.106L102.591 341.056L102.486 348.837L101.883 393.337C116.811 397.286 132.147 399.497 147.583 399.924C148.389 399.945 149.18 399.958 149.943 399.972C150.214 399.979 150.478 399.986 150.742 399.986C151.609 399.993 152.47 400 153.338 400C169.605 400.012 185.813 398.047 201.607 394.149C201.267 382.953 200.926 363.288 200.6 348.837C200.531 346.011 200.468 343.381 200.399 341.055C200.267 336.086 200.128 332.504 199.996 331.303C200.113 331.516 200.204 331.742 200.267 331.976C200.91 334.969 201.348 338.003 201.579 341.055C201.822 343.381 202.065 346.011 202.308 348.837C203.599 363.85 204.945 384.264 206.334 392.92C214.597 390.664 222.705 387.875 230.607 384.57C234.772 382.835 238.862 380.963 242.879 378.954C242.115 373.957 241.317 368.355 240.498 362.545C239.86 358.041 239.2 353.411 238.527 348.837C237.486 341.77 222.014 292.391 221.035 290.517C220.195 288.913 219.397 287.4 218.64 286.005C216.808 282.618 215.253 279.917 214.101 278.21C209.284 270.903 202.112 265.463 193.777 262.794L193.569 262.738L193.423 262.801L179.228 258.441L177.153 257.803L175.758 257.373L170.843 253.631L168.171 251.597L165.665 249.689L160.765 245.961L130.425 247.828L124.518 262.051L111.288 266.889L111.059 266.785L110.858 266.701L110.649 266.757C102.316 269.429 95.1449 274.868 90.3256 282.173C89.6731 283.152 88.8818 284.443 87.9864 286.005C87.2229 287.331 86.3899 288.844 85.4876 290.517C84.2034 292.898 82.8013 295.584 81.3159 298.492C80.9897 299.131 80.6565 299.783 80.3233 300.443C79.7056 301.664 79.0785 302.911 78.4423 304.184C76.9638 307.134 75.4367 310.216 73.9097 313.346C72.5839 316.06 71.2443 321.641 69.9254 328.742C68.8357 334.642 67.7528 341.597 66.7047 348.837C65.3304 358.221 66.7949 369.459 65.5525 378.094C65.476 378.642 65.3928 379.177 65.3164 379.711Z"
      fill="#3F3D56" />
    <path opacity="0.2" d="M210.728 328.711L204.83 305.95L199.622 325.591L210.728 328.711Z" fill="black" />
    <path
      d="M53.7803 313.881C55.8904 342.95 53.7039 355.75 65.3512 379.718C75.9486 384.905 86.9871 389.137 98.3358 392.365C99.5158 392.698 100.698 393.022 101.883 393.337C116.811 397.287 132.147 399.497 147.584 399.924C148.389 399.945 149.18 399.958 149.944 399.972C150.214 399.979 150.478 399.986 150.742 399.986C151.609 399.993 152.47 400 153.338 400C169.605 400.012 185.814 398.047 201.607 394.149C203.189 393.76 204.765 393.35 206.334 392.92C214.597 390.664 222.705 387.875 230.607 384.57C234.772 382.835 238.862 380.963 242.879 378.954C243.788 378.496 244.698 378.038 245.593 377.566C250.195 369.473 252.812 359.63 252.868 347.802C249.681 327.423 60.8186 296.306 53.7803 313.881Z"
      fill="#2F2E41" />
    <path opacity="0.2"
      d="M53.7858 318.859C53.678 317.059 53.5575 315.2 53.417 313.265C60.4554 295.689 249.318 326.807 252.504 347.186C252.495 349.055 252.416 350.868 252.281 352.638C244.566 332.524 65.1434 302.949 53.7858 318.859Z"
      fill="black" />
    <path
      d="M10.9876 328.447C11.2935 329.338 11.8736 330.108 12.6447 330.648C13.4157 331.188 14.3382 331.47 15.2795 331.453L33.6679 330.98C34.6161 330.962 35.5329 330.637 36.2812 330.054C37.0294 329.472 37.5691 328.662 37.8194 327.748L40.4215 299.922C41.3448 300.341 42.3498 300.547 43.3632 300.527C45.1404 300.481 46.8267 299.731 48.0514 298.443C49.2761 297.154 49.939 295.432 49.8944 293.655C49.8498 291.877 49.1013 290.191 47.8135 288.965C46.5256 287.739 44.8038 287.075 43.0266 287.119C42.6215 287.117 42.2175 287.159 41.8214 287.244C41.3907 286.778 40.8671 286.407 40.2844 286.156C39.7017 285.905 39.0729 285.778 38.4383 285.784L10.1526 286.515C9.91793 286.523 9.68448 286.552 9.45485 286.601C8.83454 286.717 8.2462 286.964 7.72943 287.326C7.21266 287.688 6.77945 288.157 6.45896 288.701C6.13847 289.244 5.93813 289.85 5.87143 290.477C5.80473 291.105 5.87321 291.739 6.07228 292.338L10.9876 328.447ZM40.9552 298.033L42.8068 291.402C43.0174 290.636 43.0223 289.828 42.821 289.06C42.9108 289.06 42.9901 289.017 43.0799 289.017C44.3495 288.991 45.5777 289.469 46.4953 290.347C47.4128 291.225 47.9447 292.431 47.9745 293.7C48.0042 294.97 47.5293 296.199 46.6539 297.119C45.7784 298.039 44.574 298.574 43.3045 298.608C42.4837 298.633 41.6715 298.435 40.9552 298.033Z"
      fill="#FFF8F5" />
    <path
      d="M9.45508 286.602C10.0577 290.047 16.8329 292.47 24.9796 292.048C32.4711 291.703 38.5965 289.073 39.7187 285.955C39.3034 285.832 38.8715 285.775 38.4385 285.785L10.1528 286.515C9.91816 286.524 9.68471 286.553 9.45508 286.602Z"
      fill="#F0DFD5" />
    <path
      d="M107.566 201.704C109.04 212.192 114.617 221.666 123.073 228.045C131.528 234.423 142.17 237.183 152.659 235.72C163.149 234.257 172.629 228.689 179.016 220.24C185.402 211.791 188.174 201.152 186.721 190.661L186.642 190.094C184.951 179.744 179.261 170.474 170.797 164.282C162.333 158.091 151.774 155.474 141.398 156.998C131.023 158.521 121.662 164.062 115.335 172.425C109.008 180.788 106.222 191.303 107.578 201.702L107.566 201.704Z"
      fill="#FFB6B6" />
    <path
      d="M142.793 234.747C140.727 230.585 138.603 226.117 139.165 221.504C139.726 216.892 144.233 212.47 148.677 213.826C151.334 214.636 153.35 217.251 156.125 217.376C159.944 217.548 162.119 213.17 163.295 209.533L168.086 194.719C177.327 201.978 165.624 194.367 177.071 191.71C181.562 190.667 186.096 188.649 188.719 184.858C191.343 181.067 191.308 175.2 187.682 172.352C185.904 170.956 183.543 170.431 181.843 168.94C180.789 168.015 180.061 166.776 179.766 165.405C179.471 164.034 179.625 162.605 180.205 161.328C180.786 160.052 181.762 158.996 182.989 158.317C184.216 157.639 185.63 157.373 187.019 157.56L174.826 156.077L178.436 149.497C175.826 151.569 172.185 151.858 168.904 151.279C165.623 150.7 162.53 149.36 159.319 148.47C143.905 144.199 126.032 151.775 118.382 165.822C115.379 164.83 112.146 164.775 109.111 165.662C106.076 166.549 103.383 168.338 101.387 170.791C98.1383 174.943 97.2695 180.472 97.1607 185.743C96.9582 196.136 99.2586 206.425 103.868 215.742C105.304 218.637 107.002 221.478 109.444 223.596C111.885 225.714 139.479 237.447 142.664 236.893"
      fill="#2F2E41" />
    <path
      d="M498.065 264.446C506.289 264.446 512.955 257.831 512.955 249.672C512.955 241.512 506.289 234.898 498.065 234.898C489.842 234.898 483.176 241.512 483.176 249.672C483.176 257.831 489.842 264.446 498.065 264.446Z"
      fill="#F2F2F2" />
    <path
      d="M498.065 253.56C500.229 253.56 501.983 251.819 501.983 249.672C501.983 247.525 500.229 245.784 498.065 245.784C495.901 245.784 494.146 247.525 494.146 249.672C494.146 251.819 495.901 253.56 498.065 253.56Z"
      fill="#E6E6E6" />
    <path
      d="M497.349 249.755C498.999 251.091 499.502 253.197 499.195 255.23C498.818 257.46 497.652 259.484 495.906 260.938C493.944 262.669 491.549 263.838 489.24 265.036C487.117 266.111 485.077 267.34 483.137 268.712C475.707 274.07 470.095 281.699 466.882 290.212C463.675 298.711 462.815 308.358 465.252 317.166C466.457 321.524 468.896 326.226 473.44 327.866C477.062 329.173 482.007 328.331 483.851 324.627C485.832 320.648 483.069 316.176 479.508 314.201C474.893 311.64 469.38 313.511 465.23 316.103C460.66 318.956 456.986 323.051 452.215 325.608C450.067 326.796 447.677 327.487 445.223 327.632C442.969 327.72 440.72 327.375 438.598 326.616C434.195 325.025 430.405 322.106 427.759 318.268C424.728 313.897 423.372 308.539 423.125 303.29C422.571 291.546 427.247 280.56 430.998 269.669C433.014 263.997 434.524 258.161 435.511 252.228C436.45 246.264 436.784 240.222 436.509 234.192C436.26 228.861 435.73 223.285 433.359 218.416C431.273 214.134 427.462 210.629 422.644 209.746C420.472 209.323 418.221 209.579 416.202 210.48C415.515 210.791 416.112 211.797 416.795 211.487C421.06 209.557 426.1 211.435 429.249 214.551C432.927 218.191 434.278 223.565 434.878 228.524C436.225 240.276 435.163 252.178 431.755 263.512C428.485 274.536 423.34 285.099 422.153 296.647C421.612 301.917 421.89 307.365 423.588 312.419C425.044 316.92 427.775 320.91 431.455 323.914C434.919 326.693 439.182 328.586 443.669 328.797C448.705 329.034 453.122 326.806 457.03 323.842C461.215 320.668 465.066 316.751 470.135 314.971C472.447 314.16 475.079 313.781 477.452 314.562C479.488 315.252 481.215 316.63 482.331 318.455C483.362 320.155 483.742 322.281 482.802 324.108C481.917 325.826 480.191 326.819 478.323 327.159C476.344 327.507 474.305 327.163 472.553 326.187C470.507 325.027 469.009 323.08 467.959 321.023C465.867 316.921 465.164 312.039 465.057 307.487C464.964 303.04 465.538 298.604 466.761 294.325C469.194 285.669 474.107 277.899 480.902 271.958C482.614 270.478 484.445 269.14 486.377 267.958C488.485 266.669 490.735 265.638 492.884 264.422C494.999 263.225 497.083 261.795 498.539 259.825C499.781 258.137 500.451 256.102 500.454 254.012C500.476 253.051 500.284 252.097 499.891 251.219C499.498 250.34 498.913 249.558 498.18 248.93C497.599 248.46 496.762 249.28 497.349 249.755Z"
      fill="#CCCCCC" />
    <path
      d="M358.347 317.71C363.553 321.049 369.576 322.923 375.772 323.13C375.661 323.39 375.537 323.645 375.399 323.892C374.678 325.213 373.659 326.351 372.421 327.216C370.956 328.239 369.236 328.844 367.448 328.963C365.66 329.083 363.874 328.713 362.283 327.894C360.693 327.074 359.36 325.838 358.429 324.318C357.499 322.799 357.007 321.055 357.007 319.277V317.71H358.347Z"
      fill="#3F3D56" />
    <path
      d="M394.893 318.169V319.277C394.893 321.434 394.17 323.53 392.836 325.234C391.503 326.938 389.635 328.152 387.528 328.685C385.421 329.218 383.196 329.039 381.203 328.176C379.21 327.314 377.564 325.818 376.524 323.923C376.38 323.67 376.251 323.409 376.136 323.142C376.422 323.15 376.704 323.153 376.99 323.153C383.306 323.161 389.502 321.436 394.893 318.169Z"
      fill="#3F3D56" />
    <path
      d="M408.073 200.995C407.779 200.952 407.481 200.925 407.184 200.906C410.567 208.644 410.802 217.381 407.838 225.287C408.136 225.252 408.43 225.205 408.724 225.151C411.593 224.599 414.172 223.055 416.002 220.793C417.831 218.531 418.793 215.699 418.715 212.799C418.637 209.9 417.524 207.123 415.575 204.961C413.627 202.799 410.968 201.394 408.073 200.995Z"
      fill="#3F3D56" />
    <path
      d="M346.795 200.906C346.498 200.925 346.2 200.952 345.906 200.995C343.011 201.394 340.352 202.799 338.403 204.961C336.455 207.123 335.342 209.9 335.264 212.799C335.186 215.699 336.147 218.531 337.977 220.793C339.807 223.055 342.386 224.599 345.255 225.151C345.549 225.205 345.843 225.252 346.141 225.287C343.177 217.381 343.411 208.644 346.795 200.906Z"
      fill="#3F3D56" />
    <path
      d="M408.074 200.995C404.846 193.344 398.867 187.156 391.298 183.634C383.729 180.112 375.111 179.508 367.118 181.938C359.126 184.369 352.329 189.66 348.048 196.785C343.767 203.91 342.309 212.359 343.955 220.491C345.602 228.624 350.236 235.858 356.958 240.79C363.679 245.721 372.009 247.997 380.327 247.176C388.646 246.355 396.36 242.495 401.97 236.346C407.581 230.197 410.688 222.198 410.687 213.903C410.686 209.471 409.797 205.084 408.074 200.995ZM407.839 225.287C404.972 232.932 399.326 239.236 392.011 242.957C384.695 246.679 376.241 247.549 368.312 245.396C360.383 243.243 353.553 238.223 349.166 231.324C344.78 224.425 343.155 216.147 344.611 208.119C346.068 200.091 350.5 192.894 357.035 187.946C363.57 182.998 371.735 180.656 379.924 181.381C388.112 182.106 395.73 185.847 401.278 191.865C406.827 197.884 409.904 205.746 409.904 213.903C409.902 217.789 409.203 221.644 407.839 225.287Z"
      fill="#3F3D56" />
    <path
      d="M407.839 225.287C404.972 232.932 399.326 239.236 392.011 242.957C384.695 246.679 376.241 247.549 368.312 245.396C360.383 243.243 353.553 238.223 349.166 231.324C344.78 224.425 343.155 216.147 344.611 208.119C346.068 200.091 350.5 192.894 357.035 187.946C363.57 182.998 371.735 180.656 379.924 181.381C388.112 182.106 395.73 185.847 401.278 191.865C406.827 197.884 409.904 205.746 409.904 213.903C409.902 217.789 409.203 221.644 407.839 225.287Z"
      fill="#FFF8F5" />
    <path
      d="M394.23 206.322H359.749C357.93 206.322 356.186 207.039 354.9 208.315C353.614 209.591 352.892 211.321 352.892 213.126C352.892 214.93 353.614 216.661 354.9 217.937C356.186 219.213 357.93 219.929 359.749 219.929H394.23C396.048 219.929 397.792 219.213 399.078 217.937C400.364 216.661 401.087 214.93 401.087 213.126C401.087 211.321 400.364 209.591 399.078 208.315C397.792 207.039 396.048 206.322 394.23 206.322Z"
      fill="#3F3D56" />
    <path
      d="M376.99 253.948C367.779 253.953 358.934 257.533 352.349 263.925C345.763 270.316 341.96 279.011 341.752 288.149C341.544 297.287 344.948 306.143 351.237 312.823C357.525 319.502 366.197 323.475 375.4 323.892C375.772 323.911 376.148 323.923 376.524 323.923C376.681 323.931 376.834 323.931 376.99 323.931C386.343 323.931 395.313 320.244 401.926 313.682C408.54 307.12 412.255 298.22 412.255 288.94C412.255 279.659 408.54 270.759 401.926 264.197C395.313 257.635 386.343 253.948 376.99 253.948ZM394.893 318.169C389.503 321.436 383.307 323.161 376.99 323.153C376.704 323.153 376.422 323.149 376.136 323.142C376.015 323.142 375.893 323.138 375.772 323.13C367.492 322.844 359.592 319.612 353.516 314.023C347.44 308.435 343.593 300.863 342.68 292.692C341.766 284.522 343.846 276.298 348.54 269.523C353.233 262.749 360.227 257.877 368.243 255.797C376.258 253.717 384.76 254.569 392.195 258.197C399.63 261.825 405.501 267.986 408.735 275.554C411.969 283.123 412.35 291.594 409.808 299.418C407.267 307.243 401.973 313.898 394.893 318.169Z"
      fill="#3F3D56" />
    <path
      d="M394.893 318.169C389.503 321.436 383.307 323.161 376.99 323.153C376.704 323.153 376.422 323.149 376.136 323.142C376.015 323.142 375.893 323.138 375.772 323.13C367.492 322.844 359.592 319.612 353.516 314.023C347.44 308.435 343.593 300.863 342.68 292.692C341.766 284.522 343.846 276.298 348.54 269.523C353.233 262.749 360.227 257.877 368.243 255.797C376.258 253.717 384.76 254.569 392.195 258.197C399.63 261.825 405.501 267.986 408.735 275.554C411.969 283.123 412.35 291.594 409.808 299.418C407.267 307.243 401.973 313.898 394.893 318.169Z"
      fill="#FFF8F5" />
    <path
      d="M401.74 280.322H386.328C385.254 280.322 384.225 279.898 383.465 279.145C382.706 278.391 382.279 277.369 382.279 276.304C382.279 275.238 382.706 274.217 383.465 273.463C384.225 272.71 385.254 272.286 386.328 272.286H401.74C402.814 272.286 403.844 272.71 404.603 273.463C405.363 274.217 405.789 275.238 405.789 276.304C405.789 277.369 405.363 278.391 404.603 279.145C403.844 279.898 402.814 280.322 401.74 280.322Z"
      fill="#3F3D56" />
    <path
      d="M387.355 278.343C388.49 278.343 389.41 277.43 389.41 276.304C389.41 275.178 388.49 274.265 387.355 274.265C386.22 274.265 385.3 275.178 385.3 276.304C385.3 277.43 386.22 278.343 387.355 278.343Z"
      fill="#F2F2F2" />
    <path
      d="M394.034 278.343C395.169 278.343 396.089 277.43 396.089 276.304C396.089 275.178 395.169 274.265 394.034 274.265C392.9 274.265 391.979 275.178 391.979 276.304C391.979 277.43 392.9 278.343 394.034 278.343Z"
      fill="#F2F2F2" />
    <path
      d="M388.68 215.09C389.815 215.09 390.735 214.177 390.735 213.051C390.735 211.925 389.815 211.012 388.68 211.012C387.545 211.012 386.625 211.925 386.625 213.051C386.625 214.177 387.545 215.09 388.68 215.09Z"
      fill="#25B462" />
    <path
      d="M367.856 215.09C368.991 215.09 369.911 214.177 369.911 213.051C369.911 211.925 368.991 211.012 367.856 211.012C366.721 211.012 365.801 211.925 365.801 213.051C365.801 214.177 366.721 215.09 367.856 215.09Z"
      fill="#25B462" />
    <path
      d="M400.713 278.343C401.848 278.343 402.768 277.43 402.768 276.304C402.768 275.178 401.848 274.265 400.713 274.265C399.578 274.265 398.658 275.178 398.658 276.304C398.658 277.43 399.578 278.343 400.713 278.343Z"
      fill="#5ADF87" />
    <path
      d="M251.92 231.619C257.024 230.203 262.71 231.72 266.655 235.196C268.783 237.084 270.345 239.525 271.167 242.248C272.174 245.488 272.34 248.907 272.446 252.275C272.562 256 272.664 259.725 272.772 263.45C272.876 267.002 272.888 270.57 273.125 274.116C273.324 277.091 273.801 280.179 275.395 282.76C276.872 285.152 279.207 286.768 281.845 287.658C284.519 288.561 287.402 288.771 290.207 288.752C293.472 288.742 296.731 288.484 299.956 287.981C306.083 287.001 312.134 284.5 315.876 279.34C317.599 276.997 318.567 274.186 318.652 271.28C318.731 267.894 317.648 264.614 316.462 261.486C315.308 258.442 314.059 255.444 313.328 252.261C312.65 249.283 312.326 246.235 312.365 243.181C312.427 237.071 313.893 231.057 316.649 225.602C318.044 222.8 319.814 220.201 321.909 217.876C324.071 215.526 326.746 213.587 329.929 212.951C331.482 212.63 333.09 212.694 334.612 213.139C335.261 213.334 335.539 212.321 334.892 212.127C331.739 211.184 328.314 211.901 325.519 213.538C322.771 215.147 320.599 217.561 318.756 220.121C315.215 225.14 312.857 230.895 311.86 236.954C310.863 243.013 311.253 249.219 313 255.106C314.871 261.228 318.939 267.599 317.191 274.224C315.661 280.023 310.362 283.963 304.888 285.743C301.567 286.823 298.085 287.28 294.612 287.516C291.677 287.716 288.702 287.843 285.775 287.466C283.087 287.12 280.322 286.299 278.238 284.497C275.954 282.521 274.909 279.681 274.455 276.767C273.941 273.47 274.016 270.071 273.919 266.744L273.588 255.389C273.401 248.975 273.562 241.867 269.386 236.553C267.716 234.482 265.595 232.82 263.185 231.691C260.775 230.562 258.14 229.997 255.478 230.04C254.18 230.069 252.891 230.26 251.64 230.606C251.51 230.647 251.401 230.736 251.336 230.856C251.27 230.976 251.254 231.116 251.29 231.247C251.327 231.378 251.413 231.491 251.53 231.56C251.647 231.629 251.787 231.65 251.92 231.619Z"
      fill="#3F3D56" />
    <path
      d="M23.9358 320.636L16.4378 313.107C15.8541 312.52 15.8541 311.555 16.4378 310.969L23.9358 303.44C24.5196 302.853 25.4804 302.853 26.0642 303.44L33.5622 310.969C34.1459 311.555 34.1459 312.52 33.5622 313.107L26.0642 320.636C25.7897 320.912 25.3634 320.998 24.9713 321C24.6067 321.002 24.1874 320.889 23.9358 320.636Z"
      fill="url(#paint0_linear_108_12593)" />
    <path fill-rule="evenodd" clip-rule="evenodd"
      d="M30.0032 310.018C29.5106 310.018 29.1032 310.408 29.1032 310.879C29.1032 311.257 29.3647 311.594 29.7356 311.705V313.305C29.7356 314.212 29.1397 314.713 27.8019 314.916L27.3579 314.98C26.6282 315.108 26.014 315.324 25.5275 315.632V313.649L25.5336 313.532V313.108C25.789 312.892 26.1478 312.759 26.6404 312.7H26.6465C27.4917 312.578 27.9235 312.194 27.9235 311.572V310.635C28.3127 310.542 28.6106 310.205 28.6106 309.797C28.6106 309.32 28.2032 308.931 27.7106 308.931C27.2181 308.931 26.8106 309.32 26.8106 309.803C26.8106 310.216 27.1208 310.565 27.5221 310.647V311.578C27.5221 312.008 27.2424 312.229 26.5856 312.328C26.16 312.375 25.8133 312.479 25.5397 312.642V309.466C25.8681 309.28 26.087 308.943 26.087 308.559C26.087 307.977 25.5944 307.5 24.9802 307.5C24.3721 307.5 23.8735 307.971 23.8735 308.559C23.8735 308.949 24.0924 309.286 24.4208 309.466V311.515C24.1715 311.399 23.8735 311.317 23.5208 311.276C22.6998 311.16 22.5965 310.823 22.5965 310.538V309.88C22.9917 309.793 23.2958 309.45 23.2958 309.037C23.2958 308.565 22.8883 308.176 22.3958 308.176C21.9032 308.176 21.4958 308.559 21.4958 309.031C21.4958 309.444 21.7998 309.781 22.1951 309.874V310.532C22.1951 311.154 22.6208 311.532 23.466 311.649C23.8735 311.707 24.1836 311.794 24.4208 311.951V314.038C23.8552 313.695 23.1438 313.468 22.2559 313.364C20.8877 313.166 20.2796 312.671 20.2796 311.746V311.38C20.6383 311.263 20.8938 310.943 20.8938 310.559C20.8938 310.088 20.4863 309.698 19.9938 309.698C19.5012 309.698 19.0938 310.088 19.0938 310.559C19.0938 310.938 19.3492 311.263 19.7079 311.38V311.746C19.7079 312.421 19.9694 312.951 20.4924 313.317C20.8877 313.602 21.441 313.788 22.1769 313.893H22.1829C23.1681 314.015 23.8978 314.283 24.4269 314.702V320.788C24.4269 320.788 24.6604 320.894 24.9894 320.894C25.3183 320.894 25.5519 320.789 25.5519 320.789V317.908L25.5397 317.443V316.313C26.014 315.911 26.6586 315.649 27.51 315.51L27.9296 315.452C28.6228 315.341 29.1519 315.155 29.535 314.881C30.0579 314.515 30.3194 313.986 30.3194 313.311V311.705C30.6478 311.583 30.8971 311.263 30.8971 310.885C30.8971 310.658 30.8059 310.443 30.6417 310.274C30.4715 310.111 30.2465 310.018 30.0032 310.018ZM27.6985 309.256C27.3883 309.256 27.1329 309.501 27.1329 309.803C27.1329 310.094 27.3944 310.344 27.6985 310.344C28.0086 310.344 28.264 310.106 28.264 309.803C28.264 309.501 28.0147 309.256 27.6985 309.256ZM21.8181 309.031C21.8181 309.327 22.0735 309.572 22.3836 309.572C22.6877 309.572 22.9492 309.327 22.9492 309.031C22.9492 308.734 22.6938 308.49 22.3836 308.49C22.0735 308.49 21.8181 308.728 21.8181 309.031ZM19.416 310.548C19.416 310.85 19.6715 311.089 19.9816 311.089C20.2856 311.089 20.5471 310.845 20.5471 310.548C20.5471 310.251 20.2917 310.007 19.9816 310.007C19.6715 310.007 19.416 310.245 19.416 310.548ZM24.1958 308.547C24.1958 308.954 24.5424 309.286 24.9681 309.286C25.3938 309.286 25.7404 308.949 25.7404 308.541C25.7404 308.134 25.3938 307.803 24.9681 307.803C24.5424 307.803 24.1958 308.134 24.1958 308.547ZM29.4377 310.885C29.4377 311.181 29.687 311.426 30.0032 311.426C30.3133 311.426 30.5688 311.181 30.5688 310.879C30.5688 310.739 30.5201 310.605 30.4106 310.501C30.3012 310.402 30.1552 310.344 30.0032 310.344C29.6931 310.344 29.4377 310.588 29.4377 310.885Z"
      fill="#FAF8F9" />
  </g>
  <defs>
    <linearGradient id="paint0_linear_108_12593" x1="34" y1="312" x2="16" y2="312" gradientUnits="userSpaceOnUse">
      <stop stop-color="#33A646" />
      <stop offset="0.297793" stop-color="#28BF40" />
      <stop offset="0.7" stop-color="#28BF40" />
      <stop offset="1" stop-color="#33A646" />
    </linearGradient>
    <clipPath id="clip0_108_12593">
      <rect width="512.829" height="400" fill="white" />
    </clipPath>
  </defs>
</svg>
