<svg viewBox="0 0 24 24" fill="none" xmlns="http://www.w3.org/2000/svg">
<path d="M16 2V22M6 2V8M4 7L5.64645 8.64645C5.84171 8.84171 6.15829 8.84171 6.35355 8.64645L8 7M15.2 22H16.8C17.9201 22 18.4802 22 18.908 21.782C19.2843 21.5903 19.5903 21.2843 19.782 20.908C20 20.4802 20 19.9201 20 18.8V5.2C20 4.07989 20 3.51984 19.782 3.09202C19.5903 2.71569 19.2843 2.40973 18.908 2.21799C18.4802 2 17.9201 2 16.8 2H15.2C14.0799 2 13.5198 2 13.092 2.21799C12.7157 2.40973 12.4097 2.71569 12.218 3.09202C12 3.51984 12 4.0799 12 5.2V18.8C12 19.9201 12 20.4802 12.218 20.908C12.4097 21.2843 12.7157 21.5903 13.092 21.782C13.5198 22 14.0799 22 15.2 22ZM6 22C4.89543 22 4 21.1046 4 20V14C4 12.8954 4.89543 12 6 12C7.10457 12 8 12.8954 8 14V20C8 21.1046 7.10457 22 6 22Z" stroke="black" stroke-width="2" stroke-linecap="round"/>
</svg>
