<svg viewBox="0 0 24 24" fill="none" xmlns="http://www.w3.org/2000/svg">
<path d="M9.54601 14.891L10 14L9.54601 14.891ZM9.10899 14.454L10 14L9.10899 14.454ZM14.891 14.454L14 14L14.891 14.454ZM14.454 14.891L14 14L14.454 14.891ZM14.454 9.10899L14 10L14.454 9.10899ZM14.891 9.54601L14 10L14.891 9.54601ZM9.54601 9.10899L10 10L9.54601 9.10899ZM9.10899 9.54601L10 10L9.10899 9.54601ZM8 2C8 1.44772 7.55229 1 7 1C6.44772 1 6 1.44772 6 2L8 2ZM7 5.4L6 5.4V5.4H7ZM5.4 7L5.4 8H5.4V7ZM2 6C1.44772 6 1 6.44771 1 7C1 7.55228 1.44772 8 2 8L2 6ZM6.89101 6.45399L7.78201 6.90798L6.89101 6.45399ZM6.45399 6.89101L6.90798 7.78201L6.45399 6.89101ZM5.29289 6.70711C5.68342 7.09763 6.31658 7.09763 6.70711 6.70711C7.09763 6.31658 7.09763 5.68342 6.70711 5.29289L5.29289 6.70711ZM2.70711 1.29289C2.31658 0.902369 1.68342 0.902369 1.29289 1.29289C0.90237 1.68342 0.90237 2.31658 1.29289 2.70711L2.70711 1.29289ZM6 22C6 22.5523 6.44772 23 7 23C7.55228 23 8 22.5523 8 22H6ZM2 16C1.44772 16 1 16.4477 1 17C1 17.5523 1.44772 18 2 18V16ZM6.89101 17.546L7.78201 17.092L6.89101 17.546ZM6.45399 17.109L6.90798 16.218L6.45399 17.109ZM6.70711 18.7071C7.09763 18.3166 7.09763 17.6834 6.70711 17.2929C6.31658 16.9024 5.68342 16.9024 5.29289 17.2929L6.70711 18.7071ZM1.29289 21.2929C0.902369 21.6834 0.902369 22.3166 1.29289 22.7071C1.68342 23.0976 2.31658 23.0976 2.70711 22.7071L1.29289 21.2929ZM18 2C18 1.44772 17.5523 1 17 1C16.4477 1 16 1.44772 16 2H18ZM22 8C22.5523 8 23 7.55228 23 7C23 6.44772 22.5523 6 22 6V8ZM17.109 6.45399L16.218 6.90798L17.109 6.45399ZM17.546 6.89101L17.092 7.78201L17.546 6.89101ZM17.2929 5.29289C16.9024 5.68342 16.9024 6.31658 17.2929 6.70711C17.6834 7.09763 18.3166 7.09763 18.7071 6.70711L17.2929 5.29289ZM22.7071 2.70711C23.0976 2.31658 23.0976 1.68342 22.7071 1.29289C22.3166 0.902369 21.6834 0.902369 21.2929 1.29289L22.7071 2.70711ZM16 22C16 22.5523 16.4477 23 17 23C17.5523 23 18 22.5523 18 22H16ZM22 18C22.5523 18 23 17.5523 23 17C23 16.4477 22.5523 16 22 16V18ZM17.109 17.546L16.218 17.092L17.109 17.546ZM17.546 17.109L17.092 16.218L17.546 17.109ZM18.7071 17.2929C18.3166 16.9024 17.6834 16.9024 17.2929 17.2929C16.9024 17.6834 16.9024 18.3166 17.2929 18.7071L18.7071 17.2929ZM21.2929 22.7071C21.6834 23.0976 22.3166 23.0976 22.7071 22.7071C23.0976 22.3166 23.0976 21.6834 22.7071 21.2929L21.2929 22.7071ZM10.6 10H13.4V8H10.6V10ZM14 10.6V13.4H16V10.6H14ZM13.4 14H10.6V16H13.4V14ZM10 13.4V10.6H8V13.4H10ZM10.6 14C10.3035 14 10.1412 13.9992 10.0246 13.9897C9.91972 13.9811 9.94249 13.9707 10 14L9.09202 15.782C9.36344 15.9203 9.63318 15.9644 9.86177 15.9831C10.0787 16.0008 10.3365 16 10.6 16V14ZM8 13.4C8 13.6635 7.99922 13.9213 8.01695 14.1382C8.03562 14.3668 8.07969 14.6366 8.21799 14.908L10 14C10.0293 14.0575 10.0189 14.0803 10.0103 13.9754C10.0008 13.8588 10 13.6965 10 13.4H8ZM10 14L8.21799 14.908C8.40973 15.2843 8.7157 15.5903 9.09202 15.782L10 14ZM14 13.4C14 13.6965 13.9992 13.8588 13.9897 13.9754C13.9811 14.0803 13.9707 14.0575 14 14L15.782 14.908C15.9203 14.6366 15.9644 14.3668 15.9831 14.1382C16.0008 13.9213 16 13.6635 16 13.4H14ZM13.4 16C13.6635 16 13.9213 16.0008 14.1382 15.9831C14.3668 15.9644 14.6366 15.9203 14.908 15.782L14 14C14.0575 13.9707 14.0803 13.9811 13.9754 13.9897C13.8588 13.9992 13.6965 14 13.4 14V16ZM14 14L14.908 15.782C15.2843 15.5903 15.5903 15.2843 15.782 14.908L14 14ZM13.4 10C13.6965 10 13.8588 10.0008 13.9754 10.0103C14.0803 10.0189 14.0575 10.0293 14 10L14.908 8.21799C14.6366 8.07969 14.3668 8.03562 14.1382 8.01695C13.9213 7.99922 13.6635 8 13.4 8V10ZM16 10.6C16 10.3365 16.0008 10.0787 15.9831 9.86177C15.9644 9.63318 15.9203 9.36344 15.782 9.09202L14 10C13.9707 9.94249 13.9811 9.91972 13.9897 10.0246C13.9992 10.1412 14 10.3035 14 10.6H16ZM14 10L15.782 9.09202C15.5903 8.7157 15.2843 8.40973 14.908 8.21799L14 10ZM10.6 8C10.3365 8 10.0787 7.99922 9.86177 8.01695C9.63318 8.03562 9.36344 8.07969 9.09202 8.21799L10 10C9.94249 10.0293 9.91972 10.0189 10.0246 10.0103C10.1412 10.0008 10.3035 10 10.6 10V8ZM10 10.6C10 10.3035 10.0008 10.1412 10.0103 10.0246C10.0189 9.91972 10.0293 9.94249 10 10L8.21799 9.09202C8.07969 9.36344 8.03562 9.63318 8.01695 9.86177C7.99922 10.0787 8 10.3365 8 10.6H10ZM9.09202 8.21799C8.71569 8.40973 8.40973 8.71569 8.21799 9.09202L10 10L9.09202 8.21799ZM6 2L6 5.4L8 5.4L8 2L6 2ZM5.4 6L2 6L2 8L5.4 8L5.4 6ZM6 5.4C6 5.69653 5.99922 5.85878 5.9897 5.97537C5.98113 6.08028 5.9707 6.05751 6 6L7.78201 6.90798C7.92031 6.63656 7.96438 6.36682 7.98305 6.13823C8.00078 5.92131 8 5.66353 8 5.4H6ZM5.4 8C5.66353 8 5.92131 8.00078 6.13823 7.98305C6.36682 7.96438 6.63656 7.92031 6.90798 7.78201L6 6C6.05751 5.9707 6.08028 5.98113 5.97537 5.9897C5.85878 5.99922 5.69653 6 5.4 6V8ZM6 6V6L6.90798 7.78201C7.2843 7.59027 7.59027 7.28431 7.78201 6.90798L6 6ZM6.70711 5.29289L2.70711 1.29289L1.29289 2.70711L5.29289 6.70711L6.70711 5.29289ZM8 22V18.6H6V22H8ZM5.4 16H2V18H5.4V16ZM8 18.6C8 18.3365 8.00078 18.0787 7.98305 17.8618C7.96438 17.6332 7.92031 17.3634 7.78201 17.092L6 18C5.9707 17.9425 5.98113 17.9197 5.9897 18.0246C5.99922 18.1412 6 18.3035 6 18.6H8ZM5.4 18C5.69653 18 5.85878 18.0008 5.97537 18.0103C6.08028 18.0189 6.05751 18.0293 6 18L6.90798 16.218C6.63656 16.0797 6.36682 16.0356 6.13823 16.0169C5.92131 15.9992 5.66353 16 5.4 16V18ZM7.78201 17.092C7.59027 16.7157 7.28431 16.4097 6.90798 16.218L6 18L7.78201 17.092ZM5.29289 17.2929L1.29289 21.2929L2.70711 22.7071L6.70711 18.7071L5.29289 17.2929ZM16 2V5.4H18V2H16ZM18.6 8H22V6H18.6V8ZM16 5.4C16 5.66353 15.9992 5.92131 16.0169 6.13823C16.0356 6.36682 16.0797 6.63656 16.218 6.90798L18 6C18.0293 6.05751 18.0189 6.08028 18.0103 5.97537C18.0008 5.85878 18 5.69653 18 5.4H16ZM18.6 6C18.3035 6 18.1412 5.99922 18.0246 5.9897C17.9197 5.98113 17.9425 5.9707 18 6L17.092 7.78201C17.3634 7.92031 17.6332 7.96438 17.8618 7.98306C18.0787 8.00078 18.3365 8 18.6 8V6ZM16.218 6.90798C16.4097 7.2843 16.7157 7.59027 17.092 7.78201L18 6L16.218 6.90798ZM18.7071 6.70711L22.7071 2.70711L21.2929 1.29289L17.2929 5.29289L18.7071 6.70711ZM18 22V18.6H16V22H18ZM18.6 18H22V16H18.6V18ZM18 18.6C18 18.3035 18.0008 18.1412 18.0103 18.0246C18.0189 17.9197 18.0293 17.9425 18 18L16.218 17.092C16.0797 17.3634 16.0356 17.6332 16.0169 17.8618C15.9992 18.0787 16 18.3365 16 18.6H18ZM18.6 16C18.3365 16 18.0787 15.9992 17.8618 16.0169C17.6332 16.0356 17.3634 16.0797 17.092 16.218L18 18C17.9425 18.0293 17.9197 18.0189 18.0246 18.0103C18.1412 18.0008 18.3035 18 18.6 18V16ZM18 18L17.092 16.218C16.7157 16.4097 16.4097 16.7157 16.218 17.092L18 18ZM17.2929 18.7071L21.2929 22.7071L22.7071 21.2929L18.7071 17.2929L17.2929 18.7071Z" fill="black"/>
</svg>
