<svg width="512" height="512" viewBox="0 0 512 512" fill="none" xmlns="http://www.w3.org/2000/svg">
  <path fill-rule="evenodd" clip-rule="evenodd" d="M259.354 238.007H485.517C500.143 238.007 512 249.863 512 264.489V441.041C512 455.667 500.143 467.524 485.517 467.524H26.4828C11.8567 467.524 0 455.667 0 441.041V264.489C0 249.863 11.8567 238.007 26.4828 238.007H259.354Z" fill="#94ECA3"/>
  <path d="M448.706 154.498L416.221 116.627C415.044 115.213 413.294 114.403 411.454 114.42H282.394C261.308 64.0085 207.574 35.4842 154.003 46.2648C100.433 57.0453 61.9151 104.134 61.9698 158.779C62.0244 213.423 100.636 260.435 154.228 271.108C207.82 281.782 261.497 253.15 282.483 202.696H308.877C310.535 202.685 312.122 202.018 313.291 200.842L326.532 187.689C328.713 185.425 332.247 185.159 334.742 187.071L351.25 199.43C353.762 201.283 357.252 201.02 359.459 198.812L370.67 187.689C372.851 185.425 376.385 185.159 378.88 187.071L394.858 198.989C398.04 201.383 401.911 202.683 405.892 202.696C411.282 202.677 416.4 200.327 419.928 196.252L448.706 162.619C450.735 160.292 450.735 156.825 448.706 154.498ZM132.414 185.041C117.788 185.041 105.931 173.184 105.931 158.558C105.931 143.932 117.788 132.076 132.414 132.076C147.04 132.076 158.897 143.932 158.897 158.558C158.897 173.184 147.04 185.041 132.414 185.041Z" fill="#F0C419"/>
  <path fill-rule="evenodd" clip-rule="evenodd" d="M397.241 158.558H277.787C272.911 158.558 268.959 154.606 268.959 149.731C268.959 144.855 272.911 140.903 277.787 140.903H397.241C402.117 140.903 406.069 144.855 406.069 149.731C406.069 154.606 402.117 158.558 397.241 158.558Z" fill="#B19046"/>
  <path fill-rule="evenodd" clip-rule="evenodd" d="M101.076 336.567L88.2759 344.988V326.282C88.2759 321.407 84.3236 317.455 79.4483 317.455C74.5729 317.455 70.6207 321.407 70.6207 326.282V344.988L57.8207 336.567C55.1872 334.769 51.7888 334.531 48.9305 335.944C46.0721 337.357 44.1982 340.202 44.0282 343.387C43.8583 346.571 45.4187 349.599 48.1103 351.309L65.6066 362.784L55.5167 373.069C53.053 375.257 52.013 378.635 52.8195 381.83C53.626 385.024 56.1447 387.504 59.3517 388.261C62.5587 389.017 65.9201 387.925 68.0695 385.427L79.4483 373.951L90.827 385.427C94.3008 388.512 99.5714 388.377 102.882 385.117C106.193 381.858 106.41 376.59 103.38 373.069L93.2899 362.829L110.786 351.353C114.766 348.636 115.831 343.23 113.181 339.206C110.53 335.183 105.143 334.027 101.076 336.611V336.567Z" fill="#39B44D"/>
  <path fill-rule="evenodd" clip-rule="evenodd" d="M189.352 336.567L176.552 344.988V326.282C176.552 321.407 172.599 317.455 167.724 317.455C162.849 317.455 158.897 321.407 158.897 326.282V344.988L146.097 336.567C143.463 334.769 140.065 334.531 137.206 335.944C134.348 337.357 132.474 340.202 132.304 343.387C132.134 346.571 133.695 349.599 136.386 351.309L153.882 362.784L143.793 373.069C141.329 375.257 140.289 378.635 141.095 381.83C141.902 385.024 144.421 387.504 147.628 388.261C150.835 389.017 154.196 387.925 156.345 385.427L167.724 373.951L179.103 385.427C181.252 387.925 184.614 389.017 187.821 388.261C191.028 387.504 193.546 385.024 194.353 381.83C195.159 378.635 194.119 375.257 191.656 373.069L181.566 362.829L199.062 351.353C203.041 348.636 204.107 343.23 201.457 339.206C198.806 335.183 193.419 334.027 189.352 336.611V336.567Z" fill="#39B44D"/>
  <path fill-rule="evenodd" clip-rule="evenodd" d="M277.628 336.567L264.828 344.988V326.282C264.828 321.407 260.875 317.455 256 317.455C251.125 317.455 247.172 321.407 247.172 326.282V344.988L234.372 336.567C231.739 334.769 228.341 334.531 225.482 335.944C222.624 337.357 220.75 340.202 220.58 343.387C220.41 346.571 221.97 349.599 224.662 351.309L242.158 362.784L232.068 373.069C229.605 375.257 228.565 378.635 229.371 381.83C230.178 385.024 232.696 387.504 235.903 388.261C239.11 389.017 242.472 387.925 244.621 385.427L256 373.951L267.379 385.427C270.853 388.512 276.123 388.377 279.434 385.117C282.745 381.858 282.962 376.59 279.932 373.069L269.842 362.829L287.338 351.353C291.317 348.636 292.383 343.23 289.733 339.206C287.082 335.183 281.695 334.027 277.628 336.611V336.567Z" fill="#39B44D"/>
  <path fill-rule="evenodd" clip-rule="evenodd" d="M365.904 336.567L353.103 344.988V326.282C353.103 321.407 349.151 317.455 344.276 317.455C339.401 317.455 335.448 321.407 335.448 326.282V344.988L322.648 336.567C320.015 334.769 316.616 334.531 313.758 335.944C310.9 337.357 309.026 340.202 308.856 343.387C308.686 346.571 310.246 349.599 312.938 351.309L330.434 362.784L320.344 373.069C317.881 375.257 316.841 378.635 317.647 381.83C318.454 385.024 320.972 387.504 324.179 388.261C327.386 389.017 330.748 387.925 332.897 385.427L344.276 373.951L355.655 385.427C359.128 388.512 364.399 388.377 367.71 385.117C371.021 381.858 371.238 376.59 368.207 373.069L358.118 362.829L375.614 351.353C379.593 348.636 380.659 343.23 378.008 339.206C375.358 335.183 369.971 334.027 365.904 336.611V336.567Z" fill="#39B44D"/>
  <path fill-rule="evenodd" clip-rule="evenodd" d="M466.406 339.082C463.724 335.012 458.25 333.886 454.179 336.567L441.379 344.988V326.282C441.379 321.407 437.427 317.455 432.552 317.455C427.676 317.455 423.724 321.407 423.724 326.282V344.988L410.924 336.567C408.291 334.769 404.892 334.531 402.034 335.944C399.176 337.357 397.302 340.202 397.132 343.387C396.962 346.571 398.522 349.599 401.214 351.309L418.71 362.784L408.62 373.069C406.157 375.257 405.117 378.635 405.923 381.83C406.73 385.024 409.248 387.504 412.455 388.261C415.662 389.017 419.024 387.925 421.173 385.427L432.552 373.951L443.931 385.427C447.404 388.512 452.675 388.377 455.986 385.117C459.296 381.858 459.514 376.59 456.483 373.069L446.393 362.829L463.89 351.353C465.857 350.064 467.229 348.045 467.701 345.741C468.173 343.438 467.707 341.041 466.406 339.082Z" fill="#39B44D"/>
</svg>
