<svg viewBox="0 0 24 24" fill="none" xmlns="http://www.w3.org/2000/svg">
<path d="M3.19289 19.3929C2.80237 19.7834 2.80237 20.4166 3.19289 20.8071C3.58342 21.1976 4.21658 21.1976 4.60711 20.8071L3.19289 19.3929ZM20.8071 4.60711C21.1976 4.21658 21.1976 3.58342 20.8071 3.19289C20.4166 2.80237 19.7834 2.80237 19.3929 3.19289L20.8071 4.60711ZM4.60711 3.19289C4.21658 2.80237 3.58342 2.80237 3.19289 3.19289C2.80237 3.58342 2.80237 4.21658 3.19289 4.60711L4.60711 3.19289ZM19.3929 20.8071C19.7834 21.1976 20.4166 21.1976 20.8071 20.8071C21.1976 20.4166 21.1976 19.7834 20.8071 19.3929L19.3929 20.8071ZM2 8.4C2 8.95228 2.44772 9.4 3 9.4C3.55228 9.4 4 8.95228 4 8.4H2ZM8.4 4C8.95228 4 9.4 3.55228 9.4 3C9.4 2.44772 8.95228 2 8.4 2V4ZM3.19619 3.98282L2.30518 3.52883L2.30518 3.52883L3.19619 3.98282ZM3.98282 3.19619L4.43681 4.0872L4.43681 4.08719L3.98282 3.19619ZM15.6 2C15.0477 2 14.6 2.44772 14.6 3C14.6 3.55228 15.0477 4 15.6 4V2ZM20 8.4C20 8.95229 20.4477 9.4 21 9.4C21.5523 9.4 22 8.95229 22 8.4H20ZM20.0172 3.19619L20.4712 2.30518V2.30518L20.0172 3.19619ZM20.8038 3.98282L21.6948 3.52883L21.6948 3.52882L20.8038 3.98282ZM22 15.6C22 15.0477 21.5523 14.6 21 14.6C20.4477 14.6 20 15.0477 20 15.6H22ZM15.6 20C15.0477 20 14.6 20.4477 14.6 21C14.6 21.5523 15.0477 22 15.6 22V20ZM20.8038 20.0172L21.6948 20.4712L21.6948 20.4712L20.8038 20.0172ZM20.0172 20.8038L19.5632 19.9128H19.5632L20.0172 20.8038ZM8.4 22C8.95228 22 9.4 21.5523 9.4 21C9.4 20.4477 8.95228 20 8.4 20L8.4 22ZM5.88 21L5.88 20H5.88V21ZM4 15.6C4 15.0477 3.55228 14.6 3 14.6C2.44772 14.6 2 15.0477 2 15.6H4ZM3.98282 20.8038L3.52882 21.6948L3.52883 21.6948L3.98282 20.8038ZM3.19619 20.0172L2.30518 20.4712H2.30518L3.19619 20.0172ZM4.60711 20.8071L12.7071 12.7071L11.2929 11.2929L3.19289 19.3929L4.60711 20.8071ZM12.7071 12.7071L20.8071 4.60711L19.3929 3.19289L11.2929 11.2929L12.7071 12.7071ZM3.19289 4.60711L11.2929 12.7071L12.7071 11.2929L4.60711 3.19289L3.19289 4.60711ZM11.2929 12.7071L19.3929 20.8071L20.8071 19.3929L12.7071 11.2929L11.2929 12.7071ZM4 8.4V5.88H2V8.4H4ZM5.88 4H8.4V2H5.88V4ZM4 5.88C4 5.35945 4.00078 5.02918 4.0212 4.7792C4.04067 4.54088 4.0729 4.46486 4.08719 4.43681L2.30518 3.52883C2.12329 3.88582 2.05742 4.25434 2.02784 4.61633C1.99922 4.96665 2 5.39245 2 5.88H4ZM5.88 2C5.39245 2 4.96665 1.99922 4.61633 2.02784C4.25434 2.05742 3.88581 2.12329 3.52883 2.30518L4.43681 4.08719C4.46486 4.0729 4.54088 4.04067 4.7792 4.0212C5.02918 4.00078 5.35945 4 5.88 4V2ZM4.08719 4.43681C4.16389 4.28628 4.28628 4.16389 4.43681 4.0872L3.52883 2.30518C3.00197 2.57363 2.57363 3.00197 2.30518 3.52883L4.08719 4.43681ZM15.6 4H18.12V2H15.6V4ZM20 5.88V8.4H22V5.88H20ZM18.12 4C18.6405 4 18.9708 4.00078 19.2208 4.0212C19.4591 4.04067 19.5351 4.0729 19.5632 4.0872L20.4712 2.30518C20.1142 2.12329 19.7457 2.05742 19.3837 2.02784C19.0333 1.99922 18.6075 2 18.12 2V4ZM22 5.88C22 5.39245 22.0008 4.96665 21.9722 4.61633C21.9426 4.25434 21.8767 3.88582 21.6948 3.52883L19.9128 4.43681C19.9271 4.46486 19.9593 4.54088 19.9788 4.7792C19.9992 5.02918 20 5.35945 20 5.88H22ZM19.5632 4.08719C19.7137 4.16389 19.8361 4.28628 19.9128 4.43681L21.6948 3.52882C21.4264 3.00197 20.998 2.57363 20.4712 2.30518L19.5632 4.08719ZM20 15.6V18.12H22V15.6H20ZM18.12 20H15.6V22H18.12V20ZM20 18.12C20 18.6405 19.9992 18.9708 19.9788 19.2208C19.9593 19.4591 19.9271 19.5351 19.9128 19.5632L21.6948 20.4712C21.8767 20.1142 21.9426 19.7457 21.9722 19.3837C22.0008 19.0333 22 18.6075 22 18.12H20ZM18.12 22C18.6075 22 19.0333 22.0008 19.3837 21.9722C19.7457 21.9426 20.1142 21.8767 20.4712 21.6948L19.5632 19.9128C19.5351 19.9271 19.4591 19.9593 19.2208 19.9788C18.9708 19.9992 18.6405 20 18.12 20V22ZM19.9128 19.5632C19.8361 19.7137 19.7137 19.8361 19.5632 19.9128L20.4712 21.6948C20.998 21.4264 21.4264 20.998 21.6948 20.4712L19.9128 19.5632ZM8.4 20L5.88 20L5.88 22L8.4 22L8.4 20ZM4 18.12V15.6H2V18.12H4ZM5.88 20C5.35945 20 5.02918 19.9992 4.7792 19.9788C4.54088 19.9593 4.46486 19.9271 4.43681 19.9128L3.52883 21.6948C3.88581 21.8767 4.25434 21.9426 4.61633 21.9722C4.96665 22.0008 5.39245 22 5.88 22V20ZM2 18.12C2 18.6075 1.99922 19.0333 2.02784 19.3837C2.05742 19.7457 2.12329 20.1142 2.30518 20.4712L4.0872 19.5632C4.0729 19.5351 4.04067 19.4591 4.0212 19.2208C4.00078 18.9708 4 18.6405 4 18.12H2ZM4.43681 19.9128C4.28628 19.8361 4.16389 19.7137 4.08719 19.5632L2.30518 20.4712C2.57363 20.998 3.00197 21.4264 3.52882 21.6948L4.43681 19.9128Z" fill="currentColor"/>
</svg>
