<svg viewBox="0 0 24 24" fill="none" xmlns="http://www.w3.org/2000/svg">
<g clip-path="url(#clip0_9_1086)">
<path d="M19 14C19 13.4477 18.5523 13 18 13C17.4477 13 17 13.4477 17 14H19ZM18 18V19C18.5523 19 19 18.5523 19 18H18ZM14 17C13.4477 17 13 17.4477 13 18C13 18.5523 13.4477 19 14 19V17ZM14.7071 13.2929C14.3166 12.9024 13.6834 12.9024 13.2929 13.2929C12.9024 13.6834 12.9024 14.3166 13.2929 14.7071L14.7071 13.2929ZM5 10C5 10.5523 5.44772 11 6 11C6.55228 11 7 10.5523 7 10H5ZM6 6V5C5.73478 5 5.48043 5.10536 5.29289 5.29289C5.10536 5.48043 5 5.73478 5 6H6ZM10 7C10.5523 7 11 6.55228 11 6C11 5.44772 10.5523 5 10 5V7ZM9.29289 10.7071C9.68342 11.0976 10.3166 11.0976 10.7071 10.7071C11.0976 10.3166 11.0976 9.68342 10.7071 9.29289L9.29289 10.7071ZM3.73005 22.455L4.18404 21.564L3.73005 22.455ZM1.54497 20.27L2.43597 19.816L1.54497 20.27ZM22.455 20.27L21.564 19.816L22.455 20.27ZM20.27 22.455L19.816 21.564L20.27 22.455ZM20.27 1.54497L19.816 2.43597L20.27 1.54497ZM22.455 3.73005L21.564 4.18404L22.455 3.73005ZM3.73005 1.54497L4.18404 2.43597L3.73005 1.54497ZM1.54497 3.73005L2.43597 4.18404L1.54497 3.73005ZM17 14V18H19V14H17ZM18 17H14V19H18V17ZM18.7071 17.2929L14.7071 13.2929L13.2929 14.7071L17.2929 18.7071L18.7071 17.2929ZM7 10L7 6H5L5 10H7ZM6 7L10 7V5L6 5V7ZM5.29289 6.70711L9.29289 10.7071L10.7071 9.29289L6.70711 5.29289L5.29289 6.70711ZM9 2H15V0H9V2ZM22 9V15H24V9H22ZM15 22H9V24H15V22ZM2 15V9H0V15H2ZM9 22C7.58337 22 6.58104 21.9992 5.79744 21.9352C5.02552 21.8721 4.55435 21.7527 4.18404 21.564L3.27606 23.346C3.9753 23.7023 4.73898 23.8554 5.63458 23.9286C6.51851 24.0008 7.61637 24 9 24V22ZM0 15C0 16.3836 -0.000777721 17.4815 0.071442 18.3654C0.144616 19.261 0.297677 20.0247 0.653961 20.7239L2.43597 19.816C2.24729 19.4457 2.12787 18.9745 2.0648 18.2026C2.00078 17.419 2 16.4166 2 15H0ZM4.18404 21.564C3.43139 21.1805 2.81947 20.5686 2.43597 19.816L0.653961 20.7239C1.2292 21.8529 2.14708 22.7708 3.27606 23.346L4.18404 21.564ZM22 15C22 16.4166 21.9992 17.419 21.9352 18.2026C21.8721 18.9745 21.7527 19.4457 21.564 19.816L23.346 20.7239C23.7023 20.0247 23.8554 19.261 23.9286 18.3654C24.0008 17.4815 24 16.3836 24 15H22ZM15 24C16.3836 24 17.4815 24.0008 18.3654 23.9286C19.261 23.8554 20.0247 23.7023 20.7239 23.346L19.816 21.564C19.4457 21.7527 18.9745 21.8721 18.2026 21.9352C17.419 21.9992 16.4166 22 15 22V24ZM21.564 19.816C21.1805 20.5686 20.5686 21.1805 19.816 21.564L20.7239 23.346C21.8529 22.7708 22.7708 21.8529 23.346 20.7239L21.564 19.816ZM15 2C16.4166 2 17.419 2.00078 18.2026 2.0648C18.9745 2.12787 19.4457 2.24729 19.816 2.43597L20.7239 0.653961C20.0247 0.297677 19.261 0.144616 18.3654 0.071442C17.4815 -0.000777721 16.3836 0 15 0V2ZM24 9C24 7.61637 24.0008 6.51851 23.9286 5.63458C23.8554 4.73898 23.7023 3.9753 23.346 3.27606L21.564 4.18404C21.7527 4.55435 21.8721 5.02552 21.9352 5.79744C21.9992 6.58104 22 7.58337 22 9H24ZM19.816 2.43597C20.5686 2.81947 21.1805 3.43139 21.564 4.18404L23.346 3.27606C22.7708 2.14708 21.8529 1.2292 20.7239 0.653961L19.816 2.43597ZM9 0C7.61637 0 6.51851 -0.000777721 5.63458 0.071442C4.73898 0.144616 3.9753 0.297677 3.27606 0.653961L4.18404 2.43597C4.55435 2.24729 5.02552 2.12787 5.79744 2.0648C6.58104 2.00078 7.58337 2 9 2V0ZM2 9C2 7.58337 2.00078 6.58104 2.0648 5.79744C2.12787 5.02552 2.24729 4.55435 2.43597 4.18404L0.653961 3.27606C0.297677 3.9753 0.144616 4.73898 0.071442 5.63458C-0.000777721 6.51851 0 7.61637 0 9H2ZM3.27606 0.653961C2.14708 1.2292 1.2292 2.14708 0.653961 3.27606L2.43597 4.18404C2.81947 3.43139 3.43139 2.81947 4.18404 2.43597L3.27606 0.653961Z" fill="black"/>
</g>
<defs>
<clipPath id="clip0_9_1086">
<rect width="24" height="24" fill="white"/>
</clipPath>
</defs>
</svg>
