<svg viewBox="0 0 24 24" fill="none" xmlns="http://www.w3.org/2000/svg">
<path d="M4.09328 19.3929C3.70276 19.7834 3.70276 20.4166 4.09328 20.8071C4.48381 21.1976 5.11697 21.1976 5.5075 20.8071L4.09328 19.3929ZM20.8075 5.50711C21.198 5.11658 21.198 4.48342 20.8075 4.09289C20.417 3.70237 19.7838 3.70237 19.3933 4.09289L20.8075 5.50711ZM5.5075 3.19289C5.11697 2.80237 4.48381 2.80237 4.09328 3.19289C3.70276 3.58342 3.70276 4.21658 4.09328 4.60711L5.5075 3.19289ZM19.3933 19.9071C19.7838 20.2976 20.417 20.2976 20.8075 19.9071C21.198 19.5166 21.198 18.8834 20.8075 18.4929L19.3933 19.9071ZM2.90039 8.4C2.90039 8.95228 3.34811 9.4 3.90039 9.4C4.45268 9.4 4.90039 8.95228 4.90039 8.4H2.90039ZM9.30039 4C9.85268 4 10.3004 3.55228 10.3004 3C10.3004 2.44772 9.85268 2 9.30039 2V4ZM4.09658 3.98282L3.20557 3.52883L3.20557 3.52883L4.09658 3.98282ZM4.88321 3.19619L4.42922 2.30518H4.42922L4.88321 3.19619ZM9.30039 22C9.85267 22 10.3004 21.5523 10.3004 21C10.3004 20.4477 9.85267 20 9.30039 20V22ZM6.78039 21V22V21ZM3.90039 18.12H2.90039H3.90039ZM4.90039 15.6C4.90039 15.0477 4.45268 14.6 3.90039 14.6C3.34811 14.6 2.90039 15.0477 2.90039 15.6H4.90039ZM4.88321 20.8038L4.42922 21.6948H4.42922L4.88321 20.8038ZM4.09658 20.0172L3.20557 20.4712L4.09658 20.0172ZM5.5075 20.8071L20.8075 5.50711L19.3933 4.09289L4.09328 19.3929L5.5075 20.8071ZM4.09328 4.60711L19.3933 19.9071L20.8075 18.4929L5.5075 3.19289L4.09328 4.60711ZM4.90039 8.4V5.88H2.90039V8.4H4.90039ZM6.78039 4H9.30039V2H6.78039V4ZM4.90039 5.88C4.90039 5.35945 4.90117 5.02918 4.92159 4.7792C4.94106 4.54088 4.97329 4.46486 4.98759 4.43681L3.20557 3.52883C3.02368 3.88582 2.95781 4.25434 2.92824 4.61633C2.89961 4.96665 2.90039 5.39245 2.90039 5.88H4.90039ZM6.78039 2C6.29284 2 5.86704 1.99922 5.51672 2.02784C5.15473 2.05742 4.78621 2.12329 4.42922 2.30518L5.3372 4.08719C5.36525 4.0729 5.44127 4.04067 5.67959 4.0212C5.92957 4.00078 6.25984 4 6.78039 4V2ZM4.98759 4.43681C5.06428 4.28628 5.18667 4.16389 5.3372 4.08719L4.42922 2.30518C3.90236 2.57363 3.47402 3.00197 3.20557 3.52883L4.98759 4.43681ZM9.30039 20H6.78039V22H9.30039V20ZM4.90039 18.12L4.90039 15.6H2.90039L2.90039 18.12H4.90039ZM6.78039 20C6.25984 20 5.92957 19.9992 5.67959 19.9788C5.44127 19.9593 5.36525 19.9271 5.3372 19.9128L4.42922 21.6948C4.78621 21.8767 5.15473 21.9426 5.51672 21.9722C5.86704 22.0008 6.29284 22 6.78039 22L6.78039 20ZM2.90039 18.12C2.90039 18.6075 2.89961 19.0333 2.92824 19.3837C2.95781 19.7457 3.02368 20.1142 3.20557 20.4712L4.98759 19.5632C4.97329 19.5351 4.94106 19.4591 4.92159 19.2208C4.90117 18.9708 4.90039 18.6405 4.90039 18.12H2.90039ZM5.3372 19.9128C5.18667 19.8361 5.06428 19.7137 4.98759 19.5632L3.20557 20.4712C3.47402 20.998 3.90236 21.4264 4.42922 21.6948L5.3372 19.9128Z" fill="currentColor"/>
</svg>
