<svg viewBox="0 0 24 24" fill="none" xmlns="http://www.w3.org/2000/svg">
<g clip-path="url(#clip0_9_1137)">
<path d="M1 8.5C1 6.17029 1 5.00544 1.3806 4.08658C1.88807 2.86144 2.86144 1.88807 4.08658 1.3806C5.00544 1 6.17029 1 8.5 1C8.96594 1 9.19891 1 9.38268 1.07612C9.62771 1.17761 9.82239 1.37229 9.92388 1.61732C10 1.80109 10 2.03406 10 2.5V21.5C10 21.9659 10 22.1989 9.92388 22.3827C9.82239 22.6277 9.62771 22.8224 9.38268 22.9239C9.19891 23 8.96594 23 8.5 23C6.17029 23 5.00544 23 4.08658 22.6194C2.86144 22.1119 1.88807 21.1386 1.3806 19.9134C1 18.9946 1 17.8297 1 15.5V8.5Z" stroke="currentColor" stroke-width="2"/>
<path d="M23 15.5C23 17.8297 23 18.9946 22.6194 19.9134C22.1119 21.1386 21.1386 22.1119 19.9134 22.6194C18.9946 23 17.8297 23 15.5 23C15.0341 23 14.8011 23 14.6173 22.9239C14.3723 22.8224 14.1776 22.6277 14.0761 22.3827C14 22.1989 14 21.9659 14 21.5V2.5C14 2.03406 14 1.80109 14.0761 1.61732C14.1776 1.37229 14.3723 1.17761 14.6173 1.07612C14.8011 1 15.0341 1 15.5 1C17.8297 1 18.9946 1 19.9134 1.3806C21.1386 1.88807 22.1119 2.86144 22.6194 4.08658C23 5.00544 23 6.17029 23 8.5V15.5Z" stroke="currentColor" stroke-width="2"/>
</g>
<defs>
<clipPath id="clip0_9_1137">
<rect width="24" height="24" fill="white"/>
</clipPath>
</defs>
</svg>
