<svg viewBox="0 0 24 24" fill="none" xmlns="http://www.w3.org/2000/svg">
<path d="M18 22.0002L18.7369 14.6311C18.8873 13.1275 17.8958 11.7468 16.4231 11.4086L13 10.6228V7.04258C13 5.93397 12.0983 5.03688 10.9897 5.0426C9.88915 5.04829 9 5.94204 9 7.04258V14.0002L8.52476 13.525C7.73595 12.7362 6.42268 12.8662 5.80388 13.7944C5.33646 14.4956 5.4289 15.4291 6.02476 16.025L7.1272 17.1274C7.69831 17.6986 8.10348 18.4142 8.29937 19.1977L9 22.0002H18Z" stroke="currentColor" stroke-width="2" stroke-linecap="round" stroke-linejoin="round"/>
<path d="M17 7C17 3.68629 14.3137 1 11 1C7.68629 1 5 3.68629 5 7C5 8.09286 5.29218 9.11748 5.80269 10" stroke="currentColor" stroke-width="2" stroke-linecap="round"/>
</svg>
