<svg width="24" height="24" viewBox="0 0 24 24" fill="none" xmlns="http://www.w3.org/2000/svg">
<path d="M3.73005 22.455L4.18404 21.564H4.18404L3.73005 22.455ZM1.54497 20.27L2.43597 19.816H2.43597L1.54497 20.27ZM22.455 20.27L21.564 19.816V19.816L22.455 20.27ZM20.27 22.455L19.816 21.564H19.816L20.27 22.455ZM20.27 1.54497L19.816 2.43597V2.43597L20.27 1.54497ZM22.455 3.73005L21.564 4.18404V4.18404L22.455 3.73005ZM3.73005 1.54497L4.18404 2.43597L3.73005 1.54497ZM1.54497 3.73005L2.43597 4.18404L1.54497 3.73005ZM18.6013 15.9171C19.1078 16.1373 19.6969 15.9052 19.9171 15.3987C20.1373 14.8922 19.9052 14.3031 19.3987 14.0829L18.6013 15.9171ZM19.4626 8.88658C19.9522 8.63112 20.1421 8.02708 19.8866 7.53743C19.6311 7.04779 19.0271 6.85795 18.5374 7.11342L19.4626 8.88658ZM9 2H15V0H9V2ZM22 9V15H24V9H22ZM15 22H9V24H15V22ZM2 15V9H0V15H2ZM9 22C7.58337 22 6.58104 21.9992 5.79744 21.9352C5.02552 21.8721 4.55435 21.7527 4.18404 21.564L3.27606 23.346C3.9753 23.7023 4.73898 23.8554 5.63458 23.9286C6.51851 24.0008 7.61637 24 9 24V22ZM0 15C0 16.3836 -0.000777721 17.4815 0.071442 18.3654C0.144616 19.261 0.297677 20.0247 0.653961 20.7239L2.43597 19.816C2.24729 19.4457 2.12787 18.9745 2.0648 18.2026C2.00078 17.419 2 16.4166 2 15H0ZM4.18404 21.564C3.43139 21.1805 2.81947 20.5686 2.43597 19.816L0.653961 20.7239C1.2292 21.8529 2.14708 22.7708 3.27606 23.346L4.18404 21.564ZM22 15C22 16.4166 21.9992 17.419 21.9352 18.2026C21.8721 18.9745 21.7527 19.4457 21.564 19.816L23.346 20.7239C23.7023 20.0247 23.8554 19.261 23.9286 18.3654C24.0008 17.4815 24 16.3836 24 15H22ZM15 24C16.3836 24 17.4815 24.0008 18.3654 23.9286C19.261 23.8554 20.0247 23.7023 20.7239 23.346L19.816 21.564C19.4457 21.7527 18.9745 21.8721 18.2026 21.9352C17.419 21.9992 16.4166 22 15 22V24ZM21.564 19.816C21.1805 20.5686 20.5686 21.1805 19.816 21.564L20.7239 23.346C21.8529 22.7708 22.7708 21.8529 23.346 20.7239L21.564 19.816ZM15 2C16.4166 2 17.419 2.00078 18.2026 2.0648C18.9745 2.12787 19.4457 2.24729 19.816 2.43597L20.7239 0.653961C20.0247 0.297677 19.261 0.144616 18.3654 0.071442C17.4815 -0.000777721 16.3836 0 15 0V2ZM24 9C24 7.61637 24.0008 6.51851 23.9286 5.63458C23.8554 4.73898 23.7023 3.9753 23.346 3.27606L21.564 4.18404C21.7527 4.55435 21.8721 5.02552 21.9352 5.79744C21.9992 6.58104 22 7.58337 22 9H24ZM19.816 2.43597C20.5686 2.81947 21.1805 3.43139 21.564 4.18404L23.346 3.27606C22.7708 2.14708 21.8529 1.2292 20.7239 0.653961L19.816 2.43597ZM9 0C7.61637 0 6.51851 -0.000777721 5.63458 0.071442C4.73898 0.144616 3.9753 0.297677 3.27606 0.653961L4.18404 2.43597C4.55435 2.24729 5.02552 2.12787 5.79744 2.0648C6.58104 2.00078 7.58337 2 9 2V0ZM2 9C2 7.58337 2.00078 6.58104 2.0648 5.79744C2.12787 5.02552 2.24729 4.55435 2.43597 4.18404L0.653961 3.27606C0.297677 3.9753 0.144616 4.73898 0.071442 5.63458C-0.000777721 6.51851 0 7.61637 0 9H2ZM3.27606 0.653961C2.14708 1.2292 1.2292 2.14708 0.653961 3.27606L2.43597 4.18404C2.81947 3.43139 3.43139 2.81947 4.18404 2.43597L3.27606 0.653961ZM9 7.5C9 8.32843 8.32843 9 7.5 9V11C9.433 11 11 9.433 11 7.5H9ZM7.5 9C6.67157 9 6 8.32843 6 7.5H4C4 9.433 5.567 11 7.5 11V9ZM6 7.5C6 6.67157 6.67157 6 7.5 6V4C5.567 4 4 5.567 4 7.5H6ZM7.5 6C8.32843 6 9 6.67157 9 7.5H11C11 5.567 9.433 4 7.5 4V6ZM9 16.5C9 17.3284 8.32843 18 7.5 18V20C9.433 20 11 18.433 11 16.5H9ZM7.5 18C6.67157 18 6 17.3284 6 16.5H4C4 18.433 5.567 20 7.5 20V18ZM6 16.5C6 15.6716 6.67157 15 7.5 15V13C5.567 13 4 14.567 4 16.5H6ZM7.5 15C8.32843 15 9 15.6716 9 16.5H11C11 14.567 9.433 13 7.5 13V15ZM7.10127 10.9171L11.2831 12.7353L12.0805 10.9011L7.89873 9.08293L7.10127 10.9171ZM11.2831 12.7353L18.6013 15.9171L19.3987 14.0829L12.0805 10.9011L11.2831 12.7353ZM7.96257 14.8866L12.1444 12.7048L11.2193 10.9316L7.03743 13.1134L7.96257 14.8866ZM12.1444 12.7048L19.4626 8.88658L18.5374 7.11342L11.2193 10.9316L12.1444 12.7048Z" fill="black"/>
</svg>
