<svg width="24" height="24" viewBox="0 0 24 24" fill="none" xmlns="http://www.w3.org/2000/svg">
<path d="M10.0299 17.7575C9.89591 18.2933 10.2217 18.8362 10.7575 18.9701C11.2933 19.1041 11.8362 18.7783 11.9701 18.2425L10.0299 17.7575ZM13.9701 10.2425C14.1041 9.70674 13.7783 9.16381 13.2425 9.02986C12.7067 8.89591 12.1638 9.22167 12.0299 9.75746L13.9701 10.2425ZM8.70711 11.7071C9.09763 11.3166 9.09763 10.6834 8.70711 10.2929C8.31658 9.90237 7.68342 9.90237 7.29289 10.2929L8.70711 11.7071ZM5.28284 14.2828L5.98995 13.5757L5.28284 14.2828ZM7.29289 17.7071C7.68342 18.0976 8.31658 18.0976 8.70711 17.7071C9.09763 17.3166 9.09763 16.6834 8.70711 16.2929L7.29289 17.7071ZM16.7071 10.2929C16.3166 9.90237 15.6834 9.90237 15.2929 10.2929C14.9024 10.6834 14.9024 11.3166 15.2929 11.7071L16.7071 10.2929ZM18.7172 14.2828L18.01 13.5757L18.7172 14.2828ZM15.2929 16.2929C14.9024 16.6834 14.9024 17.3166 15.2929 17.7071C15.6834 18.0976 16.3166 18.0976 16.7071 17.7071L15.2929 16.2929ZM3.73005 22.455L4.18404 21.564H4.18404L3.73005 22.455ZM1.54497 20.27L2.43597 19.816H2.43597L1.54497 20.27ZM22.455 20.27L21.564 19.816V19.816L22.455 20.27ZM20.27 22.455L19.816 21.564H19.816L20.27 22.455ZM20.27 1.54497L19.816 2.43597V2.43597L20.27 1.54497ZM22.952 6L23.9502 5.93905L22.952 6ZM22.455 3.73005L21.564 4.18404V4.18404L22.455 3.73005ZM3.73005 1.54497L4.18404 2.43597L3.73005 1.54497ZM1.54497 3.73005L2.43597 4.18404H2.43597L1.54497 3.73005ZM11.9701 18.2425L13.9701 10.2425L12.0299 9.75746L10.0299 17.7575L11.9701 18.2425ZM7.29289 10.2929L4.57574 13.0101L5.98995 14.4243L8.70711 11.7071L7.29289 10.2929ZM4.57574 14.9899L7.29289 17.7071L8.70711 16.2929L5.98995 13.5757L4.57574 14.9899ZM4.57574 13.0101C4.029 13.5568 4.029 14.4432 4.57574 14.9899L5.98995 13.5757C6.22426 13.8101 6.22426 14.1899 5.98995 14.4243L4.57574 13.0101ZM15.2929 11.7071L18.01 14.4243L19.4243 13.0101L16.7071 10.2929L15.2929 11.7071ZM18.01 13.5757L15.2929 16.2929L16.7071 17.7071L19.4243 14.9899L18.01 13.5757ZM18.01 14.4243C17.7757 14.1899 17.7757 13.8101 18.01 13.5757L19.4243 14.9899C19.971 14.4432 19.971 13.5568 19.4243 13.0101L18.01 14.4243ZM9 2H15V0H9V2ZM22 9V15H24V9H22ZM15 22H9V24H15V22ZM2 15V9H0V15H2ZM9 22C7.58337 22 6.58104 21.9992 5.79744 21.9352C5.02552 21.8721 4.55435 21.7527 4.18404 21.564L3.27606 23.346C3.9753 23.7023 4.73898 23.8554 5.63458 23.9286C6.51851 24.0008 7.61637 24 9 24V22ZM0 15C0 16.3836 -0.000777721 17.4815 0.071442 18.3654C0.144616 19.261 0.297677 20.0247 0.653961 20.7239L2.43597 19.816C2.24729 19.4457 2.12787 18.9745 2.0648 18.2026C2.00078 17.419 2 16.4166 2 15H0ZM4.18404 21.564C3.43139 21.1805 2.81947 20.5686 2.43597 19.816L0.653961 20.7239C1.2292 21.8529 2.14708 22.7708 3.27606 23.346L4.18404 21.564ZM22 15C22 16.4166 21.9992 17.419 21.9352 18.2026C21.8721 18.9745 21.7527 19.4457 21.564 19.816L23.346 20.7239C23.7023 20.0247 23.8554 19.261 23.9286 18.3654C24.0008 17.4815 24 16.3836 24 15H22ZM15 24C16.3836 24 17.4815 24.0008 18.3654 23.9286C19.261 23.8554 20.0247 23.7023 20.7239 23.346L19.816 21.564C19.4457 21.7527 18.9745 21.8721 18.2026 21.9352C17.419 21.9992 16.4166 22 15 22V24ZM21.564 19.816C21.1805 20.5686 20.5686 21.1805 19.816 21.564L20.7239 23.346C21.8529 22.7708 22.7708 21.8529 23.346 20.7239L21.564 19.816ZM15 2C16.4166 2 17.419 2.00078 18.2026 2.0648C18.9745 2.12787 19.4457 2.24729 19.816 2.43597L20.7239 0.653961C20.0247 0.297677 19.261 0.144616 18.3654 0.071442C17.4815 -0.000777721 16.3836 0 15 0V2ZM24 9C24 7.76594 24.0004 6.76216 23.9502 5.93905L21.9539 6.06095C21.9996 6.80924 22 7.74269 22 9H24ZM23.9502 5.93905C23.8872 4.90835 23.741 4.05112 23.346 3.27606L21.564 4.18404C21.7742 4.59651 21.8971 5.13059 21.9539 6.06095L23.9502 5.93905ZM19.816 2.43597C20.5686 2.81947 21.1805 3.43139 21.564 4.18404L23.346 3.27606C22.7708 2.14708 21.8529 1.2292 20.7239 0.653961L19.816 2.43597ZM9 0C7.61637 0 6.51851 -0.000777721 5.63458 0.071442C4.73898 0.144616 3.9753 0.297677 3.27606 0.653961L4.18404 2.43597C4.55435 2.24729 5.02552 2.12787 5.79744 2.0648C6.58104 2.00078 7.58337 2 9 2V0ZM2 9C2 7.74269 2.00042 6.80924 2.04611 6.06094L0.049832 5.93906C-0.000424862 6.76216 0 7.76594 0 9H2ZM2.04611 6.06094C2.10292 5.13059 2.22581 4.59651 2.43597 4.18404L0.653961 3.27606C0.259045 4.05112 0.112765 4.90835 0.049832 5.93906L2.04611 6.06094ZM3.27606 0.653961C2.14708 1.2292 1.2292 2.14708 0.653961 3.27606L2.43597 4.18404C2.81947 3.43139 3.43139 2.81947 4.18404 2.43597L3.27606 0.653961ZM1.04797 7H22.952V5H1.04797V7Z" fill="black"/>
</svg>
