<svg width="24" height="24" viewBox="0 0 24 24" fill="none" xmlns="http://www.w3.org/2000/svg">
<path d="M2 19C2 19.5523 2.44772 20 3 20C3.55229 20 4 19.5523 4 19H2ZM4 5C4 4.44772 3.55228 4 3 4C2.44772 4 2 4.44772 2 5L4 5ZM20 19C20 19.5523 20.4477 20 21 20C21.5523 20 22 19.5523 22 19H20ZM22 5C22 4.44772 21.5523 4 21 4C20.4477 4 20 4.44772 20 5H22ZM6.29289 14.2929C5.90237 14.6834 5.90237 15.3166 6.29289 15.7071C6.68342 16.0976 7.31658 16.0976 7.70711 15.7071L6.29289 14.2929ZM8.86863 13.1314L9.57574 13.8385H9.57574L8.86863 13.1314ZM8.86863 10.8686L9.57574 10.1615L9.57574 10.1615L8.86863 10.8686ZM7.70711 8.29289C7.31658 7.90237 6.68342 7.90237 6.29289 8.29289C5.90237 8.68342 5.90237 9.31658 6.29289 9.70711L7.70711 8.29289ZM9.53684 12.309L8.58579 12L9.53684 12.309ZM9.53684 11.691L8.58579 12L9.53684 11.691ZM16.2929 15.7071C16.6834 16.0976 17.3166 16.0976 17.7071 15.7071C18.0976 15.3166 18.0976 14.6834 17.7071 14.2929L16.2929 15.7071ZM15.1314 13.1314L15.8385 12.4243V12.4243L15.1314 13.1314ZM15.1314 10.8686L14.4243 10.1615L14.4243 10.1615L15.1314 10.8686ZM17.7071 9.70711C18.0976 9.31658 18.0976 8.68342 17.7071 8.29289C17.3166 7.90237 16.6834 7.90237 16.2929 8.29289L17.7071 9.70711ZM14.4632 12.309L15.4142 12L14.4632 12.309ZM14.4632 11.691L15.4142 12L14.4632 11.691ZM3 11C2.44772 11 2 11.4477 2 12C2 12.5523 2.44772 13 3 13V11ZM9 13C9.55229 13 10 12.5523 10 12C10 11.4477 9.55229 11 9 11V13ZM15 11C14.4477 11 14 11.4477 14 12C14 12.5523 14.4477 13 15 13V11ZM21 13C21.5523 13 22 12.5523 22 12C22 11.4477 21.5523 11 21 11V13ZM4 19L4 5L2 5L2 19H4ZM22 19V5H20V19H22ZM7.70711 15.7071L9.57574 13.8385L8.16152 12.4243L6.29289 14.2929L7.70711 15.7071ZM9.57574 10.1615L7.70711 8.29289L6.29289 9.70711L8.16152 11.5757L9.57574 10.1615ZM9.57574 13.8385C9.76208 13.6521 9.94491 13.4704 10.0858 13.3045C10.2342 13.1296 10.3938 12.9078 10.4879 12.618L8.58579 12C8.60573 11.9386 8.6292 11.9299 8.56108 12.0101C8.48538 12.0993 8.3712 12.2146 8.16152 12.4243L9.57574 13.8385ZM8.16152 11.5757C8.37119 11.7854 8.48537 11.9007 8.56108 11.9899C8.62921 12.0701 8.60573 12.0614 8.58579 12L10.4879 11.382C10.3938 11.0923 10.2342 10.8704 10.0858 10.6955C9.94491 10.5296 9.76208 10.3479 9.57574 10.1615L8.16152 11.5757ZM10.4879 12.618C10.6184 12.2164 10.6184 11.7837 10.4879 11.382L8.58579 12L8.58579 12L10.4879 12.618ZM17.7071 14.2929L15.8385 12.4243L14.4243 13.8385L16.2929 15.7071L17.7071 14.2929ZM15.8385 11.5757L17.7071 9.70711L16.2929 8.29289L14.4243 10.1615L15.8385 11.5757ZM15.8385 12.4243C15.6288 12.2146 15.5146 12.0993 15.4389 12.0101C15.3708 11.9299 15.3943 11.9386 15.4142 12L13.5121 12.618C13.6062 12.9078 13.7658 13.1296 13.9142 13.3045C14.0551 13.4704 14.2379 13.6521 14.4243 13.8385L15.8385 12.4243ZM14.4243 10.1615C14.2379 10.3479 14.0551 10.5296 13.9142 10.6955C13.7658 10.8704 13.6062 11.0922 13.5121 11.382L15.4142 12C15.3943 12.0614 15.3708 12.0701 15.4389 11.9899C15.5146 11.9007 15.6288 11.7854 15.8385 11.5757L14.4243 10.1615ZM15.4142 12L15.4142 12L13.5121 11.382C13.3816 11.7837 13.3816 12.2164 13.5121 12.618L15.4142 12ZM3 13H9V11H3V13ZM15 13H21V11H15V13Z" fill="black"/>
</svg>
