<svg viewBox="0 0 24 24" fill="none" xmlns="http://www.w3.org/2000/svg">
<path d="M4.99975 14C4.99975 13.4477 4.55203 13 3.99975 13C3.44747 13 2.99975 13.4477 2.99975 14H4.99975ZM5.10532 18.5528L4.65811 19.4472H4.65811L5.10532 18.5528ZM10.9965 21.4984L11.4437 20.6039H11.4437L10.9965 21.4984ZM12.9509 21.4055L12.4858 20.5203L12.4527 20.5377L12.4209 20.5575L12.9509 21.4055ZM19.0597 18.196L19.5249 19.0812L19.558 19.0638L19.5897 19.044L19.0597 18.196ZM20.9998 13.5C20.9998 12.9477 20.552 12.5 19.9998 12.5C19.4475 12.5 18.9998 12.9477 18.9998 13.5H20.9998ZM11.9998 13L12.7069 12.2929L11.9998 11.5858L11.2926 12.2929L11.9998 13ZM12.2234 12.8882L12.6706 13.7826L12.2234 12.8882ZM19.8209 9.08944L19.3736 8.19502L19.8209 9.08944ZM19.8209 8.91056L19.3736 9.80499L19.8209 8.91056ZM12.2234 5.1118L12.6706 4.21738L12.6706 4.21738L12.2234 5.1118ZM11.7761 5.1118L11.3289 4.21738L11.7761 5.1118ZM4.17863 8.91056L4.62585 9.80499H4.62585L4.17863 8.91056ZM4.17864 9.08944L4.62585 8.19502H4.62585L4.17864 9.08944ZM11.7761 12.8882L12.2234 11.9938L12.2234 11.9938L11.7761 12.8882ZM15.3266 15.8257L15.7972 16.708L15.7972 16.708L15.3266 15.8257ZM21.9575 12.2892L21.4869 11.4068L21.9575 12.2892ZM22.1063 11.5279L21.3381 12.1681V12.1681L22.1063 11.5279ZM19.9998 9L19.2926 8.29289L18.6469 8.93863L19.2315 9.64019L19.9998 9ZM8.67286 15.8257L8.20228 16.708L8.20228 16.708L8.67286 15.8257ZM2.04197 12.2892L2.51256 11.4068H2.51256L2.04197 12.2892ZM1.89315 11.5279L2.66137 12.1681L2.66138 12.1681L1.89315 11.5279ZM3.99975 9L4.76797 9.64019L5.3526 8.93863L4.70686 8.29289L3.99975 9ZM14.7449 2.25483L14.0378 1.54772V1.54772L14.7449 2.25483ZM15.3221 2.16117L15.7693 1.26674V1.26674L15.3221 2.16117ZM22.3793 5.68976L21.9321 6.58419L22.3793 5.68976ZM22.5092 6.49053L21.8021 5.78342V5.78342L22.5092 6.49053ZM9.25458 2.25483L9.96168 1.54772V1.54772L9.25458 2.25483ZM8.67742 2.16117L8.2302 1.26674V1.26674L8.67742 2.16117ZM1.62023 5.68976L1.17301 4.79534L1.62023 5.68976ZM1.49028 6.49053L2.19739 5.78342L1.49028 6.49053ZM12.3533 4.64645L13.0604 5.35355L12.3533 4.64645ZM11.6462 4.64645L10.9391 5.35355L11.6462 4.64645ZM2.99975 14V16.7639H4.99975V14H2.99975ZM4.65811 19.4472L10.5493 22.3928L11.4437 20.6039L5.55254 17.6584L4.65811 19.4472ZM13.416 22.2908L19.5249 19.0812L18.5946 17.3107L12.4858 20.5203L13.416 22.2908ZM20.9998 16.5V13.5H18.9998V16.5H20.9998ZM19.5897 19.044C20.4669 18.4957 20.9998 17.5343 20.9998 16.5H18.9998C18.9998 16.8448 18.8221 17.1652 18.5298 17.348L19.5897 19.044ZM10.5493 22.3928C11.484 22.8602 12.5947 22.8074 13.4809 22.2535L12.4209 20.5575C12.1255 20.7422 11.7553 20.7597 11.4437 20.6039L10.5493 22.3928ZM2.99975 16.7639C2.99975 17.9002 3.64176 18.939 4.65811 19.4472L5.55254 17.6584C5.21375 17.489 4.99975 17.1427 4.99975 16.7639H2.99975ZM12.9998 22V13H10.9998V22H12.9998ZM12.6706 13.7826L20.2681 9.98387L19.3736 8.19502L11.7761 11.9938L12.6706 13.7826ZM20.2681 8.01613L12.6706 4.21738L11.7761 6.00623L19.3736 9.80499L20.2681 8.01613ZM11.3289 4.21738L3.73142 8.01613L4.62585 9.80499L12.2234 6.00623L11.3289 4.21738ZM3.73142 9.98387L11.3289 13.7826L12.2234 11.9938L4.62585 8.19502L3.73142 9.98387ZM3.73142 8.01613C2.92066 8.42151 2.92068 9.5785 3.73142 9.98387L4.62585 8.19502C5.28918 8.52668 5.2892 9.47331 4.62585 9.80499L3.73142 8.01613ZM12.6706 4.21738C12.2483 4.00623 11.7512 4.00623 11.3289 4.21738L12.2234 6.00623C12.0826 6.07661 11.9169 6.07661 11.7761 6.00623L12.6706 4.21738ZM20.2681 9.98387C21.0788 9.57849 21.0788 8.4215 20.2681 8.01613L19.3736 9.80499C18.7103 9.47332 18.7103 8.52669 19.3736 8.19502L20.2681 9.98387ZM11.7761 11.9938C11.9169 11.9234 12.0826 11.9234 12.2234 11.9938L11.3289 13.7826C11.7512 13.9938 12.2483 13.9938 12.6706 13.7826L11.7761 11.9938ZM11.2926 13.7071L14.0307 16.4451L15.4449 15.0309L12.7069 12.2929L11.2926 13.7071ZM15.7972 16.708L22.4281 13.1715L21.4869 11.4068L14.856 14.9433L15.7972 16.708ZM22.8746 10.8877L20.768 8.35982L19.2315 9.64019L21.3381 12.1681L22.8746 10.8877ZM22.4281 13.1715C23.2673 12.724 23.4834 11.6184 22.8746 10.8877L21.3381 12.1681C21.1352 11.9245 21.2072 11.556 21.4869 11.4068L22.4281 13.1715ZM14.0307 16.4451C14.4975 16.912 15.2147 17.0187 15.7972 16.708L14.856 14.9433C15.0502 14.8397 15.2893 14.8753 15.4449 15.0309L14.0307 16.4451ZM11.2926 12.2929L8.55461 15.0309L9.96882 16.4451L12.7069 13.7071L11.2926 12.2929ZM9.14345 14.9433L2.51256 11.4068L1.57138 13.1715L8.20228 16.708L9.14345 14.9433ZM2.66138 12.1681L4.76797 9.64019L3.23153 8.35982L1.12493 10.8877L2.66138 12.1681ZM2.51256 11.4068C2.79229 11.556 2.86433 11.9246 2.66137 12.1681L1.12493 10.8877C0.516056 11.6184 0.732181 12.724 1.57138 13.1715L2.51256 11.4068ZM8.55461 15.0309C8.71022 14.8753 8.94927 14.8397 9.14345 14.9433L8.20228 16.708C8.78481 17.0187 9.50199 16.912 9.96882 16.4451L8.55461 15.0309ZM13.0604 5.35355L15.452 2.96194L14.0378 1.54772L11.6462 3.93934L13.0604 5.35355ZM14.8749 3.0556L21.9321 6.58419L22.8265 4.79534L15.7693 1.26674L14.8749 3.0556ZM21.8021 5.78342L19.2926 8.29289L20.7069 9.70711L23.2163 7.19764L21.8021 5.78342ZM21.9321 6.58419C21.6268 6.43156 21.5608 6.02474 21.8021 5.78342L23.2163 7.19764C23.9403 6.47368 23.7422 5.25321 22.8265 4.79534L21.9321 6.58419ZM15.452 2.96194C15.2998 3.11412 15.0674 3.15184 14.8749 3.0556L15.7693 1.26674C15.1918 0.977999 14.4944 1.09118 14.0378 1.54772L15.452 2.96194ZM12.3533 3.93934L9.96168 1.54772L8.54747 2.96194L10.9391 5.35355L12.3533 3.93934ZM8.2302 1.26674L1.17301 4.79534L2.06744 6.58419L9.12463 3.0556L8.2302 1.26674ZM0.783172 7.19764L3.29264 9.70711L4.70686 8.29289L2.19739 5.78342L0.783172 7.19764ZM1.17301 4.79534C0.257265 5.25321 0.0592103 6.47368 0.783172 7.19764L2.19739 5.78342C2.43871 6.02474 2.37269 6.43157 2.06744 6.58419L1.17301 4.79534ZM9.96168 1.54772C9.50514 1.09118 8.80769 0.977999 8.2302 1.26674L9.12463 3.0556C8.93214 3.15184 8.69965 3.11411 8.54747 2.96194L9.96168 1.54772ZM11.6462 3.93934C11.8415 3.74408 12.158 3.74408 12.3533 3.93934L10.9391 5.35355C11.5249 5.93934 12.4746 5.93934 13.0604 5.35355L11.6462 3.93934Z" fill="black"/>
</svg>
