<svg viewBox="0 0 24 24" fill="none" xmlns="http://www.w3.org/2000/svg">
<path d="M4.09202 20.782L3.63803 21.673H3.63803L4.09202 20.782ZM3.21799 19.908L2.32698 20.362H2.32698L3.21799 19.908ZM15.782 19.908L16.673 20.362L15.782 19.908ZM14.908 20.782L15.362 21.673L15.362 21.673L14.908 20.782ZM14.908 8.21799L14.454 9.10899L14.908 8.21799ZM15.782 9.09202L14.891 9.54601L15.782 9.09202ZM4.09202 8.21799L4.54601 9.10899H4.54601L4.09202 8.21799ZM3.21799 9.09202L2.32698 8.63803L3.21799 9.09202ZM20.782 14.908L21.673 15.362L21.673 15.362L20.782 14.908ZM19.908 15.782L20.362 16.673L19.908 15.782ZM19.908 3.21799L20.362 2.32698V2.32698L19.908 3.21799ZM20.782 4.09202L21.673 3.63803V3.63803L20.782 4.09202ZM9.09202 3.21799L8.63803 2.32698L9.09202 3.21799ZM8.21799 4.09202L9.10899 4.54601V4.54601L8.21799 4.09202ZM10.5 12C10.5 11.4477 10.0523 11 9.5 11C8.94772 11 8.5 11.4477 8.5 12H10.5ZM8.5 17C8.5 17.5523 8.94772 18 9.5 18C10.0523 18 10.5 17.5523 10.5 17H8.5ZM12 15.5C12.5523 15.5 13 15.0523 13 14.5C13 13.9477 12.5523 13.5 12 13.5V15.5ZM7 13.5C6.44772 13.5 6 13.9477 6 14.5C6 15.0523 6.44772 15.5 7 15.5V13.5ZM12.8 20H6.2V22H12.8V20ZM4 17.8V11.2H2V17.8H4ZM6.2 20C5.62345 20 5.25117 19.9992 4.96784 19.9761C4.69617 19.9539 4.59545 19.9162 4.54601 19.891L3.63803 21.673C4.01641 21.8658 4.40963 21.9371 4.80497 21.9694C5.18864 22.0008 5.65645 22 6.2 22V20ZM2 17.8C2 18.3436 1.99922 18.8114 2.03057 19.195C2.06287 19.5904 2.13419 19.9836 2.32698 20.362L4.10899 19.454C4.0838 19.4045 4.04612 19.3038 4.02393 19.0322C4.00078 18.7488 4 18.3766 4 17.8H2ZM4.54601 19.891C4.35785 19.7951 4.20487 19.6422 4.10899 19.454L2.32698 20.362C2.6146 20.9265 3.07354 21.3854 3.63803 21.673L4.54601 19.891ZM15 17.8C15 18.3766 14.9992 18.7488 14.9761 19.0322C14.9539 19.3038 14.9162 19.4045 14.891 19.454L16.673 20.362C16.8658 19.9836 16.9371 19.5904 16.9694 19.195C17.0008 18.8114 17 18.3436 17 17.8H15ZM12.8 22C13.3436 22 13.8114 22.0008 14.195 21.9694C14.5904 21.9371 14.9836 21.8658 15.362 21.673L14.454 19.891C14.4045 19.9162 14.3038 19.9539 14.0322 19.9761C13.7488 19.9992 13.3766 20 12.8 20V22ZM14.891 19.454C14.7951 19.6422 14.6422 19.7951 14.454 19.891L15.362 21.673C15.9265 21.3854 16.3854 20.9265 16.673 20.362L14.891 19.454ZM12.8 9C13.3766 9 13.7488 9.00078 14.0322 9.02393C14.3038 9.04612 14.4045 9.0838 14.454 9.10899L15.362 7.32698C14.9836 7.13419 14.5904 7.06287 14.195 7.03057C13.8114 6.99922 13.3436 7 12.8 7V9ZM17 11.2C17 10.6564 17.0008 10.1886 16.9694 9.80497C16.9371 9.40963 16.8658 9.01641 16.673 8.63803L14.891 9.54601C14.9162 9.59545 14.9539 9.69617 14.9761 9.96784C14.9992 10.2512 15 10.6234 15 11.2H17ZM14.454 9.10899C14.6422 9.20487 14.7951 9.35785 14.891 9.54601L16.673 8.63803C16.3854 8.07354 15.9265 7.6146 15.362 7.32698L14.454 9.10899ZM6.2 7C5.65645 7 5.18864 6.99922 4.80497 7.03057C4.40963 7.06287 4.01641 7.13419 3.63803 7.32698L4.54601 9.10899C4.59545 9.0838 4.69617 9.04612 4.96784 9.02393C5.25117 9.00078 5.62345 9 6.2 9V7ZM4 11.2C4 10.6234 4.00078 10.2512 4.02393 9.96784C4.04612 9.69617 4.0838 9.59545 4.10899 9.54601L2.32698 8.63803C2.13419 9.01641 2.06287 9.40963 2.03057 9.80497C1.99922 10.1886 2 10.6564 2 11.2H4ZM3.63803 7.32698C3.07354 7.6146 2.6146 8.07354 2.32698 8.63803L4.10899 9.54601C4.20487 9.35785 4.35785 9.20487 4.54601 9.10899L3.63803 7.32698ZM11.2 4H17.8V2H11.2V4ZM20 6.2V12.8H22V6.2H20ZM20 12.8C20 13.3766 19.9992 13.7488 19.9761 14.0322C19.9539 14.3038 19.9162 14.4045 19.891 14.454L21.673 15.362C21.8658 14.9836 21.9371 14.5904 21.9694 14.195C22.0008 13.8114 22 13.3436 22 12.8H20ZM17.8 17C18.3436 17 18.8114 17.0008 19.195 16.9694C19.5904 16.9371 19.9836 16.8658 20.362 16.673L19.454 14.891C19.4045 14.9162 19.3038 14.9539 19.0322 14.9761C18.7488 14.9992 18.3766 15 17.8 15V17ZM19.891 14.454C19.7951 14.6422 19.6422 14.7951 19.454 14.891L20.362 16.673C20.9265 16.3854 21.3854 15.9265 21.673 15.362L19.891 14.454ZM17.8 4C18.3766 4 18.7488 4.00078 19.0322 4.02393C19.3038 4.04612 19.4045 4.0838 19.454 4.10899L20.362 2.32698C19.9836 2.13419 19.5904 2.06287 19.195 2.03057C18.8114 1.99922 18.3436 2 17.8 2V4ZM22 6.2C22 5.65645 22.0008 5.18864 21.9694 4.80497C21.9371 4.40963 21.8658 4.01641 21.673 3.63803L19.891 4.54601C19.9162 4.59545 19.9539 4.69617 19.9761 4.96784C19.9992 5.25117 20 5.62345 20 6.2H22ZM19.454 4.10899C19.6422 4.20487 19.7951 4.35785 19.891 4.54601L21.673 3.63803C21.3854 3.07354 20.9265 2.6146 20.362 2.32698L19.454 4.10899ZM11.2 2C10.6564 2 10.1886 1.99922 9.80497 2.03057C9.40963 2.06287 9.01641 2.13419 8.63803 2.32698L9.54601 4.10899C9.59545 4.0838 9.69617 4.04612 9.96784 4.02393C10.2512 4.00078 10.6234 4 11.2 4V2ZM9 6.2C9 5.62345 9.00078 5.25117 9.02393 4.96784C9.04612 4.69617 9.0838 4.59545 9.10899 4.54601L7.32698 3.63803C7.13419 4.01641 7.06287 4.40963 7.03057 4.80497C6.99922 5.18864 7 5.65645 7 6.2H9ZM8.63803 2.32698C8.07354 2.6146 7.6146 3.07354 7.32698 3.63803L9.10899 4.54601C9.20487 4.35785 9.35785 4.20487 9.54601 4.10899L8.63803 2.32698ZM9 8V6.2H7V8H9ZM6.2 9H8V7H6.2V9ZM8 9H12.8V7H8V9ZM17.8 15H16V17H17.8V15ZM15 11.2V16H17V11.2H15ZM15 16V17.8H17V16H15ZM8.5 12V14.5H10.5V12H8.5ZM8.5 14.5V17H10.5V14.5H8.5ZM12 13.5H9.5V15.5H12V13.5ZM9.5 13.5H7V15.5H9.5V13.5Z" fill="currentColor"/>
</svg>
