<svg viewBox="0 0 24 24" fill="none" xmlns="http://www.w3.org/2000/svg">
<path d="M12.3124 4.31247C11.7601 4.31247 11.3124 4.76018 11.3124 5.31247C11.3124 5.86475 11.7601 6.31247 12.3124 6.31247V4.31247ZM12.6874 6.31247C13.2397 6.31247 13.6874 5.86475 13.6874 5.31247C13.6874 4.76018 13.2397 4.31247 12.6874 4.31247V6.31247ZM12.3124 4.68747C11.7601 4.68747 11.3124 5.13518 11.3124 5.68747C11.3124 6.23975 11.7601 6.68747 12.3124 6.68747V4.68747ZM12.6874 6.68747C13.2397 6.68747 13.6874 6.23975 13.6874 5.68747C13.6874 5.13518 13.2397 4.68747 12.6874 4.68747V6.68747ZM5.31238 11.3125C4.76009 11.3125 4.31238 11.7602 4.31238 12.3125C4.31238 12.8648 4.76009 13.3125 5.31238 13.3125V11.3125ZM5.68738 13.3125C6.23966 13.3125 6.68738 12.8648 6.68738 12.3125C6.68738 11.7602 6.23966 11.3125 5.68738 11.3125V13.3125ZM5.31238 11.6875C4.76009 11.6875 4.31238 12.1352 4.31238 12.6875C4.31238 13.2398 4.76009 13.6875 5.31238 13.6875V11.6875ZM5.68738 13.6875C6.23966 13.6875 6.68738 13.2398 6.68738 12.6875C6.68738 12.1352 6.23966 11.6875 5.68738 11.6875V13.6875ZM8.31238 15.3125C7.76009 15.3125 7.31238 15.7602 7.31238 16.3125C7.31238 16.8648 7.76009 17.3125 8.31238 17.3125V15.3125ZM8.68738 17.3125C9.23966 17.3125 9.68738 16.8648 9.68738 16.3125C9.68738 15.7602 9.23966 15.3125 8.68738 15.3125V17.3125ZM8.31238 15.6875C7.76009 15.6875 7.31238 16.1352 7.31238 16.6875C7.31238 17.2398 7.76009 17.6875 8.31238 17.6875V15.6875ZM8.68738 17.6875C9.23966 17.6875 9.68738 17.2398 9.68738 16.6875C9.68738 16.1352 9.23966 15.6875 8.68738 15.6875V17.6875ZM16.3124 7.31247C15.7601 7.31247 15.3124 7.76018 15.3124 8.31247C15.3124 8.86475 15.7601 9.31247 16.3124 9.31247V7.31247ZM16.6874 9.31247C17.2397 9.31247 17.6874 8.86475 17.6874 8.31247C17.6874 7.76018 17.2397 7.31247 16.6874 7.31247V9.31247ZM16.3124 7.68747C15.7601 7.68747 15.3124 8.13518 15.3124 8.68747C15.3124 9.23975 15.7601 9.68747 16.3124 9.68747V7.68747ZM16.6874 9.68747C17.2397 9.68747 17.6874 9.23975 17.6874 8.68747C17.6874 8.13518 17.2397 7.68747 16.6874 7.68747V9.68747ZM7.31238 6.31247C6.76009 6.31247 6.31238 6.76018 6.31238 7.31247C6.31238 7.86475 6.76009 8.31247 7.31238 8.31247V6.31247ZM7.68738 8.31247C8.23966 8.31247 8.68738 7.86475 8.68738 7.31247C8.68738 6.76018 8.23966 6.31247 7.68738 6.31247V8.31247ZM7.31238 6.68747C6.76009 6.68747 6.31238 7.13518 6.31238 7.68747C6.31238 8.23975 6.76009 8.68747 7.31238 8.68747V6.68747ZM7.68738 8.68747C8.23966 8.68747 8.68738 8.23975 8.68738 7.68747C8.68738 7.13518 8.23966 6.68747 7.68738 6.68747V8.68747ZM19.8376 14.2021L20.1344 13.2472H20.1344L19.8376 14.2021ZM22.9524 13.0301L23.9481 13.1226V13.1226L22.9524 13.0301ZM13.0301 22.9524L13.1226 23.9481H13.1226L13.0301 22.9524ZM14.2021 19.8376L13.2472 20.1344L14.2021 19.8376ZM14.3754 22.6877L13.7891 21.8776L14.3754 22.6877ZM14.7622 22.108L15.7353 22.3384L15.7353 22.3384L14.7622 22.108ZM22.108 14.7622L21.8776 13.7891L22.108 14.7622ZM22.6877 14.3754L21.8776 13.7891V13.7891L22.6877 14.3754ZM12 5.5C12 5.22386 12.2239 5 12.5 5V7C13.3284 7 14 6.32843 14 5.5H12ZM12.5 5C12.7761 5 13 5.22386 13 5.5H11C11 6.32843 11.6716 7 12.5 7V5ZM13 5.5C13 5.77614 12.7761 6 12.5 6V4C11.6716 4 11 4.67157 11 5.5H13ZM12.5 6C12.2239 6 12 5.77614 12 5.5H14C14 4.67157 13.3284 4 12.5 4V6ZM12.3124 6.31247H12.6874V4.31247H12.3124V6.31247ZM12.3124 6.68747H12.6874V4.68747H12.3124V6.68747ZM5 12.5C5 12.2239 5.22386 12 5.5 12V14C6.32843 14 7 13.3284 7 12.5H5ZM5.5 12C5.77614 12 6 12.2239 6 12.5H4C4 13.3284 4.67157 14 5.5 14V12ZM6 12.5C6 12.7761 5.77614 13 5.5 13V11C4.67157 11 4 11.6716 4 12.5H6ZM5.5 13C5.22386 13 5 12.7761 5 12.5H7C7 11.6716 6.32843 11 5.5 11V13ZM5.31238 13.3125H5.68738V11.3125H5.31238V13.3125ZM5.31238 13.6875H5.68738V11.6875H5.31238V13.6875ZM8 16.5C8 16.2239 8.22386 16 8.5 16V18C9.32843 18 10 17.3284 10 16.5H8ZM8.5 16C8.77614 16 9 16.2239 9 16.5H7C7 17.3284 7.67157 18 8.5 18V16ZM9 16.5C9 16.7761 8.77614 17 8.5 17V15C7.67157 15 7 15.6716 7 16.5H9ZM8.5 17C8.22386 17 8 16.7761 8 16.5H10C10 15.6716 9.32843 15 8.5 15V17ZM8.31238 17.3125H8.68738V15.3125H8.31238V17.3125ZM8.31238 17.6875H8.68738V15.6875H8.31238V17.6875ZM16 8.5C16 8.22386 16.2239 8 16.5 8V10C17.3284 10 18 9.32843 18 8.5H16ZM16.5 8C16.7761 8 17 8.22386 17 8.5H15C15 9.32843 15.6716 10 16.5 10V8ZM17 8.5C17 8.77614 16.7761 9 16.5 9V7C15.6716 7 15 7.67157 15 8.5H17ZM16.5 9C16.2239 9 16 8.77614 16 8.5H18C18 7.67157 17.3284 7 16.5 7V9ZM16.3124 9.31247H16.6874V7.31247H16.3124V9.31247ZM16.3124 9.68747H16.6874V7.68747H16.3124V9.68747ZM7 7.5C7 7.22386 7.22386 7 7.5 7V9C8.32843 9 9 8.32843 9 7.5H7ZM7.5 7C7.77614 7 8 7.22386 8 7.5H6C6 8.32843 6.67157 9 7.5 9V7ZM8 7.5C8 7.77614 7.77614 8 7.5 8V6C6.67157 6 6 6.67157 6 7.5H8ZM7.5 8C7.22386 8 7 7.77614 7 7.5H9C9 6.67157 8.32843 6 7.5 6V8ZM7.31238 8.31247H7.68738V6.31247H7.31238V8.31247ZM7.31238 8.68747H7.68738V6.68747H7.31238V8.68747ZM12 22C6.47715 22 2 17.5228 2 12H0C0 18.6274 5.37258 24 12 24V22ZM2 12C2 6.47715 6.47715 2 12 2V0C5.37258 0 0 5.37258 0 12H2ZM12 2C17.5228 2 22 6.47715 22 12H24C24 5.37258 18.6274 0 12 0V2ZM15 18.5C15 16.567 16.567 15 18.5 15V13C15.4624 13 13 15.4624 13 18.5H15ZM18.5 15C18.864 15 19.2132 15.0552 19.5407 15.157L20.1344 13.2472C19.6169 13.0863 19.0676 13 18.5 13V15ZM22 12C22 12.3164 21.9853 12.6292 21.9567 12.9376L23.9481 13.1226C23.9825 12.7527 24 12.3783 24 12H22ZM12.9376 21.9567C12.6292 21.9853 12.3164 22 12 22V24C12.3783 24 12.7527 23.9825 13.1226 23.9481L12.9376 21.9567ZM15.157 19.5407C15.0552 19.2132 15 18.864 15 18.5H13C13 19.0676 13.0863 19.6169 13.2472 20.1344L15.157 19.5407ZM13.1226 23.9481C13.4803 23.9149 13.8085 23.8852 14.0722 23.8393C14.333 23.7938 14.6641 23.7132 14.9617 23.4978L13.7891 21.8776C13.8652 21.8225 13.8982 21.8395 13.7291 21.8689C13.5628 21.8979 13.3291 21.9203 12.9376 21.9567L13.1226 23.9481ZM13.2472 20.1344C13.4581 20.8128 13.6053 21.2872 13.6941 21.6269C13.7383 21.7961 13.7603 21.9037 13.7696 21.9689C13.7814 22.0526 13.7613 21.9953 13.7891 21.8776L15.7353 22.3384C15.7947 22.0876 15.7722 21.847 15.7498 21.6888C15.7249 21.5122 15.6809 21.3194 15.6291 21.1213C15.5259 20.7263 15.3616 20.1986 15.157 19.5407L13.2472 20.1344ZM14.9617 23.4978C15.1218 23.3819 15.3108 23.2266 15.4649 22.9957C15.6189 22.7648 15.6898 22.5307 15.7353 22.3384L13.7891 21.8776C13.7838 21.9002 13.7796 21.9157 13.7765 21.9261C13.7735 21.9363 13.7721 21.9398 13.7727 21.9384C13.7733 21.9368 13.7759 21.9302 13.7809 21.9203C13.7861 21.9101 13.7928 21.8982 13.8012 21.8857C13.8096 21.8731 13.8179 21.8623 13.8254 21.8537C13.8326 21.8452 13.8377 21.8402 13.839 21.8391C13.84 21.838 13.8373 21.8407 13.829 21.8474C13.8207 21.8542 13.8079 21.864 13.7891 21.8776L14.9617 23.4978ZM19.5407 15.157C20.1986 15.3616 20.7263 15.5259 21.1213 15.6291C21.3194 15.6809 21.5122 15.7249 21.6889 15.7499C21.847 15.7722 22.0876 15.7947 22.3384 15.7353L21.8776 13.7891C21.9953 13.7613 22.0526 13.7814 21.9689 13.7696C21.9037 13.7603 21.796 13.7383 21.6269 13.6941C21.2872 13.6053 20.8128 13.4581 20.1344 13.2472L19.5407 15.157ZM21.9567 12.9376C21.9203 13.3291 21.8979 13.5628 21.8689 13.7291C21.8395 13.8982 21.8225 13.8652 21.8776 13.7891L23.4978 14.9617C23.7132 14.6641 23.7938 14.333 23.8393 14.0722C23.8852 13.8085 23.9149 13.4803 23.9481 13.1226L21.9567 12.9376ZM22.3384 15.7353C22.5307 15.6898 22.7648 15.6189 22.9957 15.4649C23.2266 15.3108 23.3819 15.1218 23.4978 14.9617L21.8776 13.7891C21.864 13.8079 21.8542 13.8207 21.8474 13.829C21.8407 13.8373 21.838 13.84 21.8391 13.839C21.8402 13.8377 21.8452 13.8326 21.8537 13.8254C21.8623 13.8179 21.8731 13.8096 21.8857 13.8012C21.8982 13.7928 21.9101 13.7861 21.9203 13.7809C21.9302 13.7759 21.9368 13.7733 21.9384 13.7727C21.9398 13.7721 21.9363 13.7735 21.9261 13.7765C21.9157 13.7796 21.9002 13.7838 21.8776 13.7891L22.3384 15.7353Z" fill="currentColor"/>
</svg>
