<svg viewBox="0 0 24 24" fill="none" xmlns="http://www.w3.org/2000/svg">
<path d="M10 8H6.2C5.0799 8 4.51984 8 4.09202 8.21799C3.71569 8.40973 3.40973 8.71569 3.21799 9.09202C3 9.51984 3 10.0799 3 11.2V17.8C3 18.9201 3 19.4802 3.21799 19.908C3.40973 20.2843 3.71569 20.5903 4.09202 20.782C4.51984 21 5.0799 21 6.2 21H12.8C13.9201 21 14.4802 21 14.908 20.782C15.2843 20.5903 15.5903 20.2843 15.782 19.908C16 19.4802 16 18.9201 16 17.8V14M16 11C15.9992 10.0116 15.9866 9.49359 15.782 9.09202C15.5903 8.71569 15.2843 8.40973 14.908 8.21799C14.5064 8.01338 13.9883 8.00082 13 8.00005M11.2 16H17.8C18.9201 16 19.4802 16 19.908 15.782C20.2843 15.5903 20.5903 15.2843 20.782 14.908C21 14.4802 21 13.9201 21 12.8V6.2C21 5.0799 21 4.51984 20.782 4.09202C20.5903 3.71569 20.2843 3.40973 19.908 3.21799C19.4802 3 18.9201 3 17.8 3H11.2C10.0799 3 9.51984 3 9.09202 3.21799C8.71569 3.40973 8.40973 3.71569 8.21799 4.09202C8 4.51984 8 5.07989 8 6.2V12.8C8 13.9201 8 14.4802 8.21799 14.908C8.40973 15.2843 8.71569 15.5903 9.09202 15.782C9.51984 16 10.0799 16 11.2 16Z" stroke="black" stroke-width="2" stroke-linecap="round"/>
</svg>
