<svg viewBox="0 0 24 24" fill="none" xmlns="http://www.w3.org/2000/svg">
<path d="M15.8579 15.8579C18.7959 15.2335 21 12.6241 21 9.5C21 5.91015 18.0899 3 14.5 3C11.3759 3 8.7665 5.20406 8.14206 8.14206M15.8579 15.8579C15.951 15.42 16 14.9657 16 14.5C16 10.9101 13.0899 8 9.5 8C9.03429 8 8.58002 8.04898 8.14206 8.14206M15.8579 15.8579C15.2335 18.7959 12.6241 21 9.5 21C5.91015 21 3 18.0899 3 14.5C3 11.3759 5.20406 8.7665 8.14206 8.14206M9.14645 12.3536L7.35355 14.1464C7.15829 14.3417 7.15829 14.6583 7.35355 14.8536L9.14645 16.6464C9.34171 16.8417 9.65829 16.8417 9.85355 16.6464L11.6464 14.8536C11.8417 14.6583 11.8417 14.3417 11.6464 14.1464L9.85355 12.3536C9.65829 12.1583 9.34171 12.1583 9.14645 12.3536Z" stroke="currentColor" stroke-width="2" stroke-linecap="round"/>
</svg>
