<svg viewBox="0 0 24 24" fill="none" xmlns="http://www.w3.org/2000/svg">
<path fill-rule="evenodd" clip-rule="evenodd" d="M18.0325 3.02393C17.7492 3.00078 17.3769 3 16.8004 3H11.0002V7C11.0002 8.10457 10.1047 9 9.00016 9H4.24179C3.2618 9 2.77102 7.81515 3.46398 7.12219L8.70748 1.87868C9.27009 1.31607 10.0331 1 10.8288 1L16.8389 1C17.3661 0.999983 17.8208 0.999967 18.1954 1.03057C18.5907 1.06287 18.984 1.13419 19.3623 1.32698C19.9268 1.6146 20.3858 2.07354 20.6734 2.63803C20.8662 3.01641 20.9375 3.40963 20.9698 3.80497C21.0004 4.17954 21.0004 4.6343 21.0004 5.16144V8C21.0004 8.55229 20.5527 9 20.0004 9C19.4481 9 19.0004 8.55229 19.0004 8V5.2C19.0004 4.62345 18.9996 4.25117 18.9764 3.96784C18.9543 3.69617 18.9166 3.59545 18.8914 3.54601C18.7955 3.35785 18.6425 3.20487 18.4544 3.109C18.4049 3.0838 18.3042 3.04612 18.0325 3.02393ZM9.00016 4.41443L6.41459 7H9.00016V4.41443ZM3.95862 19.0019C4.50988 18.9682 4.98405 19.3878 5.0177 19.9391C5.03859 20.2811 5.08073 20.3978 5.10937 20.454C5.20524 20.6422 5.35822 20.7951 5.54639 20.891C5.59582 20.9162 5.69654 20.9539 5.96821 20.9761C6.25156 20.9992 6.62383 21 7.20037 21H16.8004C17.3769 21 17.7492 20.9992 18.0325 20.9761C18.3042 20.9539 18.4049 20.9162 18.4544 20.891C18.6425 20.7951 18.7955 20.6422 18.8914 20.454C18.92 20.3978 18.9622 20.2811 18.983 19.9391C19.0167 19.3878 19.4909 18.9682 20.0421 19.0019C20.5934 19.0355 21.013 19.5097 20.9793 20.0609C20.9523 20.5033 20.8868 20.9432 20.6734 21.362C20.3858 21.9265 19.9268 22.3854 19.3623 22.673C18.984 22.8658 18.5907 22.9371 18.1954 22.9694C17.8208 23 17.3661 23 16.8389 23H7.16181C6.63468 23 6.17992 23 5.80535 22.9694C5.41001 22.9371 5.01678 22.8658 4.6384 22.673C4.07392 22.3854 3.61498 21.9265 3.32736 21.362C3.11396 20.9432 3.04843 20.5033 3.02142 20.0609C2.98776 19.5097 3.40736 19.0355 3.95862 19.0019Z" fill="black"/>
<path d="M8.61749 16.3955C8.18963 17.0094 7.45471 17.404 6.56337 17.404C5.18983 17.404 4.09537 16.3977 4.09537 14.952V13.448C4.09537 12.0023 5.18983 10.996 6.56337 10.996C7.45471 10.996 8.18963 11.3906 8.61749 12.0045L8.62104 12.0096C8.70332 12.133 8.79137 12.3191 8.79137 12.528C8.79137 12.9886 8.44996 13.364 7.96337 13.364C7.64336 13.364 7.41502 13.1835 7.24439 12.9755C7.04585 12.739 6.83859 12.636 6.56337 12.636C6.11275 12.636 5.76737 12.9335 5.76737 13.424V14.976C5.76737 15.4665 6.11275 15.764 6.56337 15.764C6.84272 15.764 7.08384 15.6341 7.23706 15.4338L7.2391 15.4311C7.31986 15.3279 7.41408 15.2254 7.53607 15.1509C7.66496 15.0723 7.80615 15.036 7.96337 15.036C8.43378 15.036 8.79137 15.4192 8.79137 15.88C8.79137 16.0926 8.70016 16.2716 8.62098 16.3904L8.61749 16.3955Z" fill="black"/>
<path d="M11.0725 15.3297C11.3169 15.5877 11.7144 15.78 12.0147 15.78C12.271 15.78 12.4297 15.7222 12.5167 15.657C12.5935 15.5994 12.6347 15.5223 12.6347 15.408C12.6347 15.31 12.6076 15.2594 12.5585 15.2137C12.4939 15.1537 12.3757 15.0901 12.1637 15.0219L11.4044 14.7821C11.0316 14.6637 10.654 14.4669 10.3673 14.1565C10.0752 13.8402 9.89074 13.4195 9.89074 12.888C9.89074 12.343 10.1201 11.8616 10.5217 11.5212C10.9204 11.1832 11.4731 10.996 12.1107 10.996C13.0547 10.996 13.7213 11.4431 13.9822 11.7953C14.0706 11.9105 14.1547 12.0998 14.1547 12.296C14.1547 12.7355 13.8025 13.108 13.3507 13.108C13.1356 13.108 12.9644 13.0371 12.7978 12.8938C12.5733 12.7108 12.359 12.62 12.1107 12.62C11.9182 12.62 11.7924 12.6661 11.7232 12.7169C11.6622 12.7616 11.6347 12.8152 11.6347 12.888C11.6347 12.9922 11.693 13.0903 11.8905 13.1544L12.7682 13.4337C13.1055 13.5391 13.5066 13.7069 13.824 14.0161C14.1517 14.3351 14.3707 14.7854 14.3707 15.408C14.3707 16.4073 13.5303 17.404 12.0147 17.404C11.0273 17.404 10.2588 16.9393 9.81259 16.3291L9.81061 16.3264C9.73889 16.226 9.67474 16.078 9.67474 15.888C9.67474 15.4393 10.0441 15.076 10.4947 15.076C10.808 15.076 10.9853 15.2423 11.0669 15.3239L11.0725 15.3297Z" fill="black"/>
<path d="M17.5491 15.78C17.2487 15.78 16.8513 15.5877 16.6069 15.3297L16.6013 15.3239C16.5196 15.2423 16.3424 15.076 16.0291 15.076C15.5785 15.076 15.2091 15.4393 15.2091 15.888C15.2091 16.078 15.2733 16.226 15.345 16.3264L15.347 16.3291C15.7932 16.9393 16.5617 17.404 17.5491 17.404C19.0647 17.404 19.9051 16.4073 19.9051 15.408C19.9051 14.7854 19.6861 14.3351 19.3584 14.0161C19.041 13.7069 18.6399 13.5391 18.3026 13.4337L17.4248 13.1544C17.2274 13.0903 17.1691 12.9922 17.1691 12.888C17.1691 12.8152 17.1966 12.7616 17.2575 12.7169C17.3268 12.6661 17.4526 12.62 17.6451 12.62C17.8934 12.62 18.1077 12.7108 18.3322 12.8938C18.4988 13.0371 18.67 13.108 18.8851 13.108C19.3369 13.108 19.6891 12.7355 19.6891 12.296C19.6891 12.0998 19.6049 11.9105 19.5166 11.7953C19.2557 11.4431 18.5891 10.996 17.6451 10.996C17.0075 10.996 16.4548 11.1832 16.0561 11.5212C15.6545 11.8616 15.4251 12.343 15.4251 12.888C15.4251 13.4195 15.6096 13.8402 15.9017 14.1565C16.1883 14.4669 16.566 14.6637 16.9388 14.7821L17.6981 15.0219C17.9101 15.0901 18.0283 15.1537 18.0928 15.2137C18.142 15.2594 18.1691 15.31 18.1691 15.408C18.1691 15.5223 18.1279 15.5994 18.0511 15.657C17.9641 15.7222 17.8054 15.78 17.5491 15.78Z" fill="black"/>
</svg>
