<svg viewBox="0 0 24 24" fill="none" xmlns="http://www.w3.org/2000/svg">
<path fill-rule="evenodd" clip-rule="evenodd" d="M16.8004 3C17.3769 3 17.7492 3.00078 18.0325 3.02393C18.3042 3.04613 18.4049 3.0838 18.4544 3.109C18.6425 3.20487 18.7955 3.35785 18.8914 3.54601C18.9166 3.59545 18.9543 3.69617 18.9764 3.96784C18.9996 4.25118 19.0004 4.62345 19.0004 5.2V8C19.0004 8.55229 19.4481 9 20.0004 9C20.5527 9 21.0004 8.55229 21.0004 8V5.16144C21.0004 4.6343 21.0004 4.17954 20.9698 3.80497C20.9375 3.40963 20.8662 3.01641 20.6734 2.63803C20.3858 2.07354 19.9268 1.6146 19.3623 1.32698C18.984 1.13419 18.5907 1.06287 18.1954 1.03057C17.8208 0.999969 17.3661 0.999984 16.839 1H10.8288C10.0331 1 9.27009 1.31607 8.70748 1.87868L3.46398 7.12219C2.77102 7.81515 3.2618 9 4.24179 9H9.00016C10.1047 9 11.0002 8.10457 11.0002 7V3H16.8004ZM6.41459 7L9.00016 4.41443V7H6.41459Z" fill="black"/>
<path d="M5.0177 19.9391C4.98405 19.3878 4.50988 18.9682 3.95862 19.0019C3.40736 19.0355 2.98776 19.5097 3.02142 20.0609C3.04843 20.5033 3.11396 20.9432 3.32736 21.362C3.61498 21.9265 4.07392 22.3854 4.6384 22.673C5.01678 22.8658 5.41001 22.9371 5.80535 22.9694C6.17992 23 6.63468 23 7.16181 23H16.8389C17.3661 23 17.8208 23 18.1954 22.9694C18.5907 22.9371 18.984 22.8658 19.3623 22.673C19.9268 22.3854 20.3858 21.9265 20.6734 21.362C20.8868 20.9432 20.9523 20.5033 20.9793 20.0609C21.013 19.5097 20.5934 19.0355 20.0421 19.0019C19.4909 18.9682 19.0167 19.3878 18.983 19.9391C18.9622 20.2811 18.92 20.3978 18.8914 20.454C18.7955 20.6422 18.6425 20.7951 18.4544 20.891C18.4049 20.9162 18.3042 20.9539 18.0325 20.9761C17.7492 20.9992 17.3769 21 16.8004 21H7.20037C6.62383 21 6.25156 20.9992 5.96821 20.9761C5.69654 20.9539 5.59582 20.9162 5.54639 20.891C5.35822 20.7951 5.20524 20.6422 5.10937 20.454C5.08073 20.3978 5.03859 20.2811 5.0177 19.9391Z" fill="black"/>
<path d="M11.1961 16.4961C11.1961 16.9549 10.8247 17.3321 10.3681 17.3321C9.90134 17.3321 9.52412 16.9607 9.52412 16.4961V11.9041C9.52412 11.4395 9.90134 11.0681 10.3681 11.0681C10.8247 11.0681 11.1961 11.4454 11.1961 11.9041V13.3401H12.8041V11.9041C12.8041 11.4395 13.1813 11.0681 13.6481 11.0681C14.1047 11.0681 14.4761 11.4454 14.4761 11.9041V16.4961C14.4761 16.9549 14.1047 17.3321 13.6481 17.3321C13.1813 17.3321 12.8041 16.9607 12.8041 16.4961V14.9641H11.1961V16.4961Z" fill="black"/>
<path fill-rule="evenodd" clip-rule="evenodd" d="M5.59925 16.4961C5.59925 16.9549 5.22785 17.3321 4.77125 17.3321C4.30447 17.3321 3.92725 16.9607 3.92725 16.4961V11.9361C3.92725 11.4715 4.30447 11.1001 4.77125 11.1001H6.49125C7.75362 11.1001 8.56725 12.1722 8.56725 13.2001C8.56725 14.3079 7.74632 15.3001 6.49125 15.3001H5.59925V16.4961ZM5.59925 13.7081V12.6921H6.37125C6.64362 12.6921 6.87125 12.9159 6.87125 13.2001C6.87125 13.4844 6.64362 13.7081 6.37125 13.7081H5.59925Z" fill="black"/>
<path fill-rule="evenodd" clip-rule="evenodd" d="M16.4806 17.3321C16.9372 17.3321 17.3086 16.9549 17.3086 16.4961V15.3001H18.2006C19.4557 15.3001 20.2766 14.3079 20.2766 13.2001C20.2766 12.1722 19.463 11.1001 18.2006 11.1001H16.4806C16.0138 11.1001 15.6366 11.4715 15.6366 11.9361V16.4961C15.6366 16.9607 16.0138 17.3321 16.4806 17.3321ZM17.3086 12.6921H18.0806C18.353 12.6921 18.5806 12.9159 18.5806 13.2001C18.5806 13.4844 18.353 13.7081 18.0806 13.7081H17.3086V12.6921Z" fill="black"/>
</svg>
