<svg viewBox="0 0 24 24" fill="none" xmlns="http://www.w3.org/2000/svg">
<path d="M8 8H6.2C5.0799 8 4.51984 8 4.09202 8.21799C3.71569 8.40973 3.40973 8.71569 3.21799 9.09202C3 9.51984 3 10.0799 3 11.2V17.8C3 18.9201 3 19.4802 3.21799 19.908C3.40973 20.2843 3.71569 20.5903 4.09202 20.782C4.51984 21 5.0799 21 6.2 21H12.8C13.9201 21 14.4802 21 14.908 20.782C15.2843 20.5903 15.5903 20.2843 15.782 19.908C16 19.4802 16 18.9201 16 17.8V16M8 8V6.2C8 5.0799 8 4.51984 8.21799 4.09202C8.40973 3.71569 8.71569 3.40973 9.09202 3.21799C9.51984 3 10.0799 3 11.2 3H17.8C18.9201 3 19.4802 3 19.908 3.21799C20.2843 3.40973 20.5903 3.71569 20.782 4.09202C21 4.51984 21 5.0799 21 6.2V12.8C21 13.9201 21 14.4802 20.782 14.908C20.5903 15.2843 20.2843 15.5903 19.908 15.782C19.4802 16 18.9201 16 17.8 16H16M8 8H10M8 8V10M16 16H14M16 16V14M13 8.00005C13.9883 8.00082 14.5064 8.01338 14.908 8.21799C15.2843 8.40973 15.5903 8.71569 15.782 9.09202C15.9866 9.49359 15.9992 10.0117 16 11M11 15.9999C10.0117 15.9992 9.49359 15.9866 9.09202 15.782C8.71569 15.5903 8.40973 15.2843 8.21799 14.908C8.01338 14.5064 8.00082 13.9883 8.00005 13" stroke="black" stroke-width="2" stroke-linecap="round"/>
</svg>
