<svg viewBox="0 0 24 24" fill="none" xmlns="http://www.w3.org/2000/svg">
<path d="M8.90798 3.21799L8.45399 4.10899L8.90798 3.21799ZM9.78201 4.09202L8.89101 4.54601L9.78201 4.09202ZM4.09202 3.21799L4.54601 4.10899L4.09202 3.21799ZM3.21799 4.09202L4.10899 4.54601L3.21799 4.09202ZM20.782 19.908L21.673 20.362V20.362L20.782 19.908ZM19.908 20.782L20.362 21.673L19.908 20.782ZM20.782 15.092L21.673 14.638V14.638L20.782 15.092ZM19.908 14.218L19.454 15.109L19.908 14.218ZM16.5156 7.05994L17.2227 6.35283V6.35283L16.5156 7.05994ZM16.9399 7.4842L16.2328 8.19131L16.9399 7.4842ZM16.9399 12.0097L17.647 12.7168L16.9399 12.0097ZM8.94956 20L8.24246 19.2929L8.94956 20ZM4.70692 19.2929C4.3164 18.9024 3.68323 18.9024 3.29271 19.2929C2.90219 19.6834 2.90219 20.3166 3.29271 20.7071L4.70692 19.2929ZM18.2763 9.12891L17.3252 9.43793V9.43793L18.2763 9.12891ZM18.2763 10.365L17.3252 10.056V10.056L18.2763 10.365ZM14.8709 5.72351L15.1799 4.77246L14.8709 5.72351ZM11.9901 7.05994L12.6972 7.76705V7.76705L11.9901 7.05994ZM13.6348 5.72351L13.3258 4.77246L13.6348 5.72351ZM6.31238 16.3125C5.76009 16.3125 5.31238 16.7602 5.31238 17.3125C5.31238 17.8648 5.76009 18.3125 6.31238 18.3125V16.3125ZM6.68738 18.3125C7.23966 18.3125 7.68738 17.8648 7.68738 17.3125C7.68738 16.7602 7.23966 16.3125 6.68738 16.3125V18.3125ZM6.31238 16.6875C5.76009 16.6875 5.31238 17.1352 5.31238 17.6875C5.31238 18.2398 5.76009 18.6875 6.31238 18.6875V16.6875ZM6.68738 18.6875C7.23966 18.6875 7.68738 18.2398 7.68738 17.6875C7.68738 17.1352 7.23966 16.6875 6.68738 16.6875V18.6875ZM6.2 4H6.8V2H6.2V4ZM9 6.2V17.5H11V6.2H9ZM4 17.5V6.2H2V17.5H4ZM6.5 20C5.11929 20 4 18.8807 4 17.5H2C2 19.9853 4.01472 22 6.5 22V20ZM9 17.5C9 18.8807 7.88071 20 6.5 20V22C8.98528 22 11 19.9853 11 17.5H9ZM6.8 4C7.37655 4 7.74883 4.00078 8.03216 4.02393C8.30383 4.04612 8.40455 4.0838 8.45399 4.10899L9.36197 2.32698C8.98359 2.13419 8.59037 2.06287 8.19503 2.03057C7.81136 1.99922 7.34355 2 6.8 2V4ZM11 6.2C11 5.65645 11.0008 5.18864 10.9694 4.80497C10.9371 4.40963 10.8658 4.01641 10.673 3.63803L8.89101 4.54601C8.9162 4.59545 8.95388 4.69617 8.97607 4.96784C8.99922 5.25117 9 5.62345 9 6.2H11ZM8.45399 4.10899C8.64215 4.20487 8.79513 4.35785 8.89101 4.54601L10.673 3.63803C10.3854 3.07354 9.92646 2.6146 9.36197 2.32698L8.45399 4.10899ZM6.2 2C5.65645 2 5.18864 1.99922 4.80497 2.03057C4.40963 2.06287 4.01641 2.13419 3.63803 2.32698L4.54601 4.10899C4.59545 4.0838 4.69617 4.04612 4.96784 4.02393C5.25117 4.00078 5.62345 4 6.2 4V2ZM4 6.2C4 5.62345 4.00078 5.25117 4.02393 4.96784C4.04612 4.69617 4.0838 4.59545 4.10899 4.54601L2.32698 3.63803C2.13419 4.01641 2.06287 4.40963 2.03057 4.80497C1.99922 5.18864 2 5.65645 2 6.2H4ZM3.63803 2.32698C3.07354 2.6146 2.6146 3.07354 2.32698 3.63803L4.10899 4.54601C4.20487 4.35785 4.35785 4.20487 4.54601 4.10899L3.63803 2.32698ZM20 17.2V17.8H22V17.2H20ZM17.8 20H6.5V22H17.8V20ZM20 17.8C20 18.3766 19.9992 18.7488 19.9761 19.0322C19.9539 19.3038 19.9162 19.4045 19.891 19.454L21.673 20.362C21.8658 19.9836 21.9371 19.5904 21.9694 19.195C22.0008 18.8114 22 18.3436 22 17.8H20ZM17.8 22C18.3436 22 18.8114 22.0008 19.195 21.9694C19.5904 21.9371 19.9836 21.8658 20.362 21.673L19.454 19.891C19.4045 19.9162 19.3038 19.9539 19.0322 19.9761C18.7488 19.9992 18.3766 20 17.8 20V22ZM19.891 19.454C19.7951 19.6422 19.6422 19.7951 19.454 19.891L20.362 21.673C20.9265 21.3854 21.3854 20.9265 21.673 20.362L19.891 19.454ZM22 17.2C22 16.6564 22.0008 16.1886 21.9694 15.805C21.9371 15.4096 21.8658 15.0164 21.673 14.638L19.891 15.546C19.9162 15.5955 19.9539 15.6962 19.9761 15.9678C19.9992 16.2512 20 16.6234 20 17.2H22ZM17.8 15C18.3766 15 18.7488 15.0008 19.0322 15.0239C19.3038 15.0461 19.4045 15.0838 19.454 15.109L20.362 13.327C19.9836 13.1342 19.5904 13.0629 19.195 13.0306C18.8114 12.9992 18.3436 13 17.8 13V15ZM21.673 14.638C21.3854 14.0735 20.9265 13.6146 20.362 13.327L19.454 15.109C19.6422 15.2049 19.7951 15.3578 19.891 15.546L21.673 14.638ZM15 15H17.8V13H15V15ZM15.8085 7.76705L16.2328 8.19131L17.647 6.7771L17.2227 6.35283L15.8085 7.76705ZM16.2328 11.3026L8.24246 19.2929L9.65667 20.7071L17.647 12.7168L16.2328 11.3026ZM8.24246 19.2929C7.26615 20.2692 5.68323 20.2692 4.70692 19.2929L3.29271 20.7071C5.05007 22.4645 7.89931 22.4645 9.65667 20.7071L8.24246 19.2929ZM16.2328 8.19131C16.6404 8.59899 16.9031 8.86278 17.0871 9.0795C17.2635 9.2873 17.3081 9.38516 17.3252 9.43793L19.2274 8.8199C19.0961 8.41601 18.8685 8.08753 18.6118 7.78514C18.3627 7.49168 18.0313 7.16144 17.647 6.7771L16.2328 8.19131ZM17.647 12.7168C18.0313 12.3324 18.3627 12.0022 18.6118 11.7087C18.8685 11.4064 19.0961 11.0779 19.2274 10.674L17.3252 10.056C17.3081 10.1087 17.2635 10.2066 17.0871 10.4144C16.9031 10.6311 16.6405 10.8949 16.2328 11.3026L17.647 12.7168ZM17.3252 9.43793C17.3905 9.63877 17.3905 9.85512 17.3252 10.056L19.2274 10.674C19.4231 10.0715 19.4231 9.42242 19.2274 8.81989L17.3252 9.43793ZM17.2227 6.35283C16.8384 5.96848 16.5081 5.63715 16.2147 5.38802C15.9123 5.1313 15.5838 4.90369 15.1799 4.77246L14.5619 6.67457C14.6147 6.69172 14.7125 6.73629 14.9203 6.91269C15.137 7.09667 15.4008 7.35936 15.8085 7.76705L17.2227 6.35283ZM12.6972 7.76705C13.1049 7.35936 13.3687 7.09667 13.5854 6.91269C13.7932 6.73629 13.8911 6.69172 13.9438 6.67457L13.3258 4.77246C12.9219 4.90368 12.5935 5.1313 12.2911 5.38802C11.9976 5.63715 11.6674 5.96848 11.283 6.35283L12.6972 7.76705ZM15.1799 4.77246C14.5774 4.57668 13.9283 4.57668 13.3258 4.77246L13.9438 6.67457C14.1447 6.60931 14.361 6.60931 14.5619 6.67457L15.1799 4.77246ZM10.7072 9.75709L12.6972 7.76705L11.283 6.35283L9.29297 8.34287L10.7072 9.75709ZM6 17.5C6 17.2239 6.22386 17 6.5 17V19C7.32843 19 8 18.3284 8 17.5H6ZM6.5 17C6.77614 17 7 17.2239 7 17.5H5C5 18.3284 5.67157 19 6.5 19V17ZM7 17.5C7 17.7761 6.77614 18 6.5 18V16C5.67157 16 5 16.6716 5 17.5H7ZM6.5 18C6.22386 18 6 17.7761 6 17.5H8C8 16.6716 7.32843 16 6.5 16V18ZM6.31238 18.3125H6.68738V16.3125H6.31238V18.3125ZM6.31238 18.6875H6.68738V16.6875H6.31238V18.6875Z" fill="currentColor"/>
</svg>
