<svg viewBox="0 0 24 24" fill="none" xmlns="http://www.w3.org/2000/svg">
<path d="M4.00022 21H20.0002M6.90569 17H17.0945C18.6993 17 20.0002 15.6991 20.0002 14.0943C20.0002 12.8436 19.1999 11.7332 18.0134 11.3377L15.3676 10.4558C14.5509 10.1836 14 9.41933 14 8.55846V8.40319C14 7.49486 14.3091 6.61359 14.8766 5.90432L15.4005 5.24943C16.4482 3.93992 15.5159 2 13.8388 2H10.1613C8.48434 2 7.55199 3.93981 8.59956 5.24935L9.12354 5.90437C9.6909 6.61361 10 7.49481 10 8.40306V8.55848C10 9.41934 9.44914 10.1836 8.63246 10.4558L5.98683 11.3377C4.80032 11.7332 4 12.8436 4 14.0943C4 15.6991 5.30092 17 6.90569 17Z" stroke="black" stroke-width="2" stroke-linecap="round"/>
</svg>
