<svg viewBox="0 0 24 24" fill="none" xmlns="http://www.w3.org/2000/svg">
<path d="M15 17H4.99981M15 17C15 17.9319 15 18.3978 15.1522 18.7654C15.3552 19.2554 15.7446 19.6448 16.2346 19.8478C16.6022 20 17.0681 20 18 20C18.9319 20 19.3978 20 19.7654 19.8478C20.2554 19.6448 20.6448 19.2554 20.8478 18.7654C21 18.3978 21 17.9319 21 17C21 16.0681 21 15.6022 20.8478 15.2346C20.6448 14.7446 20.2554 14.3552 19.7654 14.1522C19.3978 14 18.9319 14 18 14C17.0681 14 16.6022 14 16.2346 14.1522C15.7446 14.3552 15.3552 14.7446 15.1522 15.2346C15 15.6022 15 16.0681 15 17ZM5.99981 20L3.70692 17.7071C3.31639 17.3166 3.31639 16.6834 3.70692 16.2929L5.99981 14M9 7C9 8.65685 7.65685 10 6 10C4.34315 10 3 8.65685 3 7C3 5.34315 4.34315 4 6 4C7.65685 4 9 5.34315 9 7ZM9 7L19 7M18 10L20.2929 7.70711C20.6834 7.31658 20.6834 6.68342 20.2929 6.29289L18 4" stroke="black" stroke-width="2" stroke-linecap="round"/>
</svg>
