<svg viewBox="0 0 24 24" fill="none" xmlns="http://www.w3.org/2000/svg">
<path d="M1.54497 20.27L2.43597 19.816H2.43597L1.54497 20.27ZM3.73005 22.455L3.27606 23.346L3.73005 22.455ZM20.27 1.54497L19.816 2.43597V2.43597L20.27 1.54497ZM22.455 3.73005L21.564 4.18404V4.18404L22.455 3.73005ZM3.73005 1.54497L4.18404 2.43597L3.73005 1.54497ZM1.54497 3.73005L2.43597 4.18404L1.54497 3.73005ZM22 12C22 12.5523 22.4477 13 23 13C23.5523 13 24 12.5523 24 12H22ZM7.99644 23.9989C8.54872 24.0008 8.99803 23.5547 8.99999 23.0024C9.00196 22.4502 8.55584 22.0009 8.00356 21.9989L7.99644 23.9989ZM6.70711 5.29289C6.31658 4.90237 5.68342 4.90237 5.29289 5.29289C4.90237 5.68342 4.90237 6.31658 5.29289 6.70711L6.70711 5.29289ZM8.64645 9.35355L9.35355 10.0607L8.64645 9.35355ZM5.29289 11.2929C4.90237 11.6834 4.90237 12.3166 5.29289 12.7071C5.68342 13.0976 6.31658 13.0976 6.70711 12.7071L5.29289 11.2929ZM22.0484 19.2343L21.1708 19.7136L22.0484 19.2343ZM19.5419 14.6445L20.4196 14.1652L19.5419 14.6445ZM14.4581 14.6445L13.5804 14.1652L14.4581 14.6445ZM11.9516 19.2343L12.8292 19.7136L11.9516 19.2343ZM17.7612 12.1569L18.1595 11.2396L17.7612 12.1569ZM16.2388 12.1569L16.6372 13.0741L16.2388 12.1569ZM22.2489 22.7064L22.7882 23.5485L22.7882 23.5485L22.2489 22.7064ZM22.988 21.6114L22.0008 21.4521L22.988 21.6114ZM11.7511 22.7064L11.2118 23.5485H11.2118L11.7511 22.7064ZM11.012 21.6114L11.9992 21.4521L11.012 21.6114ZM17.95 15.7355C17.9475 15.1833 17.4978 14.7376 16.9455 14.74C16.3932 14.7425 15.9475 15.1922 15.95 15.7445L17.95 15.7355ZM15.9599 17.9445C15.9624 18.4968 16.4121 18.9425 16.9644 18.94C17.5166 18.9375 17.9623 18.4878 17.9599 17.9355L15.9599 17.9445ZM17.95 20.5801C17.95 20.0278 17.5023 19.5801 16.95 19.5801C16.3977 19.5801 15.95 20.0278 15.95 20.5801H17.95ZM15.95 20.5901C15.95 21.1423 16.3977 21.5901 16.95 21.5901C17.5023 21.5901 17.95 21.1423 17.95 20.5901H15.95ZM9 2H15V0H9V2ZM2 15V9H0V15H2ZM0 15C0 16.3836 -0.000777721 17.4815 0.071442 18.3654C0.144616 19.261 0.297677 20.0247 0.653961 20.7239L2.43597 19.816C2.24729 19.4457 2.12787 18.9745 2.0648 18.2026C2.00078 17.419 2 16.4166 2 15H0ZM4.18404 21.564C3.43139 21.1805 2.81947 20.5686 2.43597 19.816L0.653961 20.7239C1.2292 21.8529 2.14708 22.7708 3.27606 23.346L4.18404 21.564ZM15 2C16.4166 2 17.419 2.00078 18.2026 2.0648C18.9745 2.12787 19.4457 2.24729 19.816 2.43597L20.7239 0.653961C20.0247 0.297677 19.261 0.144616 18.3654 0.071442C17.4815 -0.000777721 16.3836 0 15 0V2ZM24 9C24 7.61637 24.0008 6.51851 23.9286 5.63458C23.8554 4.73898 23.7023 3.9753 23.346 3.27606L21.564 4.18404C21.7527 4.55435 21.8721 5.02552 21.9352 5.79744C21.9992 6.58104 22 7.58337 22 9H24ZM19.816 2.43597C20.5686 2.81947 21.1805 3.43139 21.564 4.18404L23.346 3.27606C22.7708 2.14708 21.8529 1.2292 20.7239 0.653961L19.816 2.43597ZM9 0C7.61637 0 6.51851 -0.000777721 5.63458 0.071442C4.73898 0.144616 3.9753 0.297677 3.27606 0.653961L4.18404 2.43597C4.55435 2.24729 5.02552 2.12787 5.79744 2.0648C6.58104 2.00078 7.58337 2 9 2V0ZM2 9C2 7.58337 2.00078 6.58104 2.0648 5.79744C2.12787 5.02552 2.24729 4.55435 2.43597 4.18404L0.653961 3.27606C0.297677 3.9753 0.144616 4.73898 0.071442 5.63458C-0.000777721 6.51851 0 7.61637 0 9H2ZM3.27606 0.653961C2.14708 1.2292 1.2292 2.14708 0.653961 3.27606L2.43597 4.18404C2.81947 3.43139 3.43139 2.81947 4.18404 2.43597L3.27606 0.653961ZM22 9V12H24V9H22ZM8.00356 21.9989C5.78993 21.991 4.86497 21.911 4.18404 21.564L3.27606 23.346C4.46296 23.9508 5.90993 23.9915 7.99644 23.9989L8.00356 21.9989ZM5.29289 6.70711L7.93934 9.35355L9.35355 7.93934L6.70711 5.29289L5.29289 6.70711ZM7.93934 8.64645L5.29289 11.2929L6.70711 12.7071L9.35355 10.0607L7.93934 8.64645ZM7.93934 9.35355C7.74408 9.15829 7.74408 8.84171 7.93934 8.64645L9.35355 10.0607C9.93934 9.47487 9.93934 8.52513 9.35355 7.93934L7.93934 9.35355ZM14.4935 24H19.5065V22H14.4935V24ZM22.9261 18.755L20.4196 14.1652L18.6643 15.1238L21.1708 19.7136L22.9261 18.755ZM13.5804 14.1652L11.0739 18.755L12.8292 19.7136L15.3357 15.1238L13.5804 14.1652ZM20.4196 14.1652C20.0204 13.4342 19.6873 12.8221 19.3806 12.3687C19.0776 11.9209 18.7043 11.4762 18.1595 11.2396L17.3628 13.0741C17.3716 13.0779 17.4795 13.128 17.7241 13.4894C17.9648 13.8451 18.2453 14.3566 18.6643 15.1238L20.4196 14.1652ZM15.3357 15.1238C15.7547 14.3566 16.0352 13.8451 16.2759 13.4894C16.5205 13.128 16.6284 13.0779 16.6372 13.0741L15.8405 11.2396C15.2957 11.4762 14.9224 11.9209 14.6194 12.3687C14.3127 12.8221 13.9796 13.4342 13.5804 14.1652L15.3357 15.1238ZM18.1595 11.2396C17.4237 10.9201 16.5763 10.9201 15.8405 11.2396L16.6372 13.0741C16.8648 12.9753 17.1352 12.9753 17.3628 13.0741L18.1595 11.2396ZM19.5065 24C20.2499 24 20.8706 24.0008 21.3603 23.9598C21.845 23.9192 22.3495 23.8294 22.7882 23.5485L21.7097 21.8643C21.6898 21.8769 21.5844 21.934 21.1932 21.9668C20.8069 21.9992 20.2857 22 19.5065 22V24ZM21.1708 19.7136C21.5212 20.3553 21.748 20.7729 21.8845 21.0928C22.0224 21.4161 21.9958 21.4832 22.0008 21.4521L23.9753 21.7707C24.0621 21.2329 23.9062 20.7349 23.724 20.308C23.5405 19.8778 23.2565 19.3601 22.9261 18.755L21.1708 19.7136ZM22.7882 23.5485C23.4118 23.1492 23.8555 22.5129 23.9753 21.7707L22.0008 21.4521C21.9778 21.595 21.8867 21.7508 21.7096 21.8643L22.7882 23.5485ZM14.4935 22C13.7143 22 13.1931 21.9992 12.8068 21.9668C12.4156 21.934 12.3102 21.8769 12.2904 21.8643L11.2118 23.5485C11.6505 23.8294 12.155 23.9192 12.6397 23.9598C13.1294 24.0008 13.7501 24 14.4935 24V22ZM11.0739 18.755C10.7434 19.3601 10.4595 19.8778 10.276 20.308C10.0938 20.7349 9.93793 21.2329 10.0247 21.7707L11.9992 21.4521C12.0042 21.4832 11.9776 21.4161 12.1155 21.0928C12.252 20.7729 12.4788 20.3553 12.8292 19.7136L11.0739 18.755ZM12.2904 21.8643C12.1132 21.7508 12.0222 21.595 11.9992 21.4521L10.0247 21.7707C10.1445 22.5129 10.5882 23.1492 11.2118 23.5485L12.2904 21.8643ZM15.95 15.7445L15.9599 17.9445L17.9599 17.9355L17.95 15.7355L15.95 15.7445ZM15.95 20.5801V20.5901H17.95V20.5801H15.95Z" fill="black"/>
</svg>
