<svg viewBox="0 0 24 24" fill="none" xmlns="http://www.w3.org/2000/svg">
<path d="M4.09202 16.782L4.54601 15.891H4.54601L4.09202 16.782ZM3.21799 15.908L2.32698 16.362L3.21799 15.908ZM20.782 15.908L21.673 16.362L21.673 16.362L20.782 15.908ZM19.908 16.782L20.362 17.673L19.908 16.782ZM19.908 7.21799L20.362 6.32698V6.32698L19.908 7.21799ZM20.782 8.09202L21.673 7.63803V7.63803L20.782 8.09202ZM4.09202 7.21799L4.54601 8.10899H4.54601L4.09202 7.21799ZM3.21799 8.09202L4.10899 8.54601H4.10899L3.21799 8.09202ZM8 8C8.55228 8 9 7.55228 9 7C9 6.44772 8.55228 6 8 6V8ZM8 18C8.55228 18 9 17.5523 9 17C9 16.4477 8.55228 16 8 16V18ZM16 16C15.4477 16 15 16.4477 15 17C15 17.5523 15.4477 18 16 18V16ZM16 6C15.4477 6 15 6.44772 15 7C15 7.55228 15.4477 8 16 8V6ZM9 2C8.44772 2 8 2.44772 8 3C8 3.55228 8.44772 4 9 4V2ZM9 20C8.44772 20 8 20.4477 8 21C8 21.5523 8.44772 22 9 22V20ZM15 4C15.5523 4 16 3.55228 16 3C16 2.44772 15.5523 2 15 2V4ZM15 22C15.5523 22 16 21.5523 16 21C16 20.4477 15.5523 20 15 20V22ZM20 10.2V13.8H22V10.2H20ZM4 13.8V10.2H2V13.8H4ZM6.2 16C5.62345 16 5.25117 15.9992 4.96784 15.9761C4.69617 15.9539 4.59545 15.9162 4.54601 15.891L3.63803 17.673C4.01641 17.8658 4.40963 17.9371 4.80497 17.9694C5.18864 18.0008 5.65645 18 6.2 18V16ZM2 13.8C2 14.3436 1.99922 14.8114 2.03057 15.195C2.06287 15.5904 2.13419 15.9836 2.32698 16.362L4.10899 15.454C4.0838 15.4045 4.04612 15.3038 4.02393 15.0322C4.00078 14.7488 4 14.3766 4 13.8H2ZM4.54601 15.891C4.35785 15.7951 4.20487 15.6422 4.10899 15.454L2.32698 16.362C2.6146 16.9265 3.07354 17.3854 3.63803 17.673L4.54601 15.891ZM20 13.8C20 14.3766 19.9992 14.7488 19.9761 15.0322C19.9539 15.3038 19.9162 15.4045 19.891 15.454L21.673 16.362C21.8658 15.9836 21.9371 15.5904 21.9694 15.195C22.0008 14.8114 22 14.3436 22 13.8H20ZM17.8 18C18.3436 18 18.8114 18.0008 19.195 17.9694C19.5904 17.9371 19.9836 17.8658 20.362 17.673L19.454 15.891C19.4045 15.9162 19.3038 15.9539 19.0322 15.9761C18.7488 15.9992 18.3766 16 17.8 16V18ZM19.891 15.454C19.7951 15.6422 19.6422 15.7951 19.454 15.891L20.362 17.673C20.9265 17.3854 21.3854 16.9265 21.673 16.362L19.891 15.454ZM17.8 8C18.3766 8 18.7488 8.00078 19.0322 8.02393C19.3038 8.04612 19.4045 8.0838 19.454 8.10899L20.362 6.32698C19.9836 6.13419 19.5904 6.06287 19.195 6.03057C18.8114 5.99922 18.3436 6 17.8 6V8ZM22 10.2C22 9.65645 22.0008 9.18864 21.9694 8.80497C21.9371 8.40963 21.8658 8.01641 21.673 7.63803L19.891 8.54601C19.9162 8.59545 19.9539 8.69617 19.9761 8.96784C19.9992 9.25117 20 9.62345 20 10.2H22ZM19.454 8.10899C19.6422 8.20487 19.7951 8.35785 19.891 8.54601L21.673 7.63803C21.3854 7.07354 20.9265 6.6146 20.362 6.32698L19.454 8.10899ZM6.2 6C5.65645 6 5.18864 5.99922 4.80497 6.03057C4.40963 6.06287 4.01641 6.13419 3.63803 6.32698L4.54601 8.10899C4.59545 8.0838 4.69617 8.04612 4.96784 8.02393C5.25117 8.00078 5.62345 8 6.2 8V6ZM4 10.2C4 9.62345 4.00078 9.25117 4.02393 8.96784C4.04612 8.69617 4.0838 8.59545 4.10899 8.54601L2.32698 7.63803C2.13419 8.01641 2.06287 8.40963 2.03057 8.80497C1.99922 9.18864 2 9.65645 2 10.2H4ZM3.63803 6.32698C3.07354 6.6146 2.6146 7.07354 2.32698 7.63803L4.10899 8.54601C4.20487 8.35785 4.35785 8.20487 4.54601 8.10899L3.63803 6.32698ZM6.2 8H8V6H6.2V8ZM8 16H6.2V18H8V16ZM17.8 16H16V18H17.8V16ZM16 8H17.8V6H16V8ZM9 4H10V2H9V4ZM11 5V19H13V5H11ZM10 20H9V22H10V20ZM11 19C11 19.5523 10.5523 20 10 20V22C11.6569 22 13 20.6569 13 19H11ZM10 4C10.5523 4 11 4.44772 11 5H13C13 3.34315 11.6569 2 10 2V4ZM15 2H14V4H15V2ZM14 22H15V20H14V22ZM11 19C11 20.6569 12.3431 22 14 22V20C13.4477 20 13 19.5523 13 19H11ZM14 2C12.3431 2 11 3.34315 11 5H13C13 4.44772 13.4477 4 14 4V2Z" fill="currentColor"/>
</svg>
