<svg viewBox="0 0 24 24" fill="none" xmlns="http://www.w3.org/2000/svg">
<path d="M13.685 15.3298C13.9294 15.5878 14.3268 15.7801 14.6272 15.7801C14.8835 15.7801 15.0422 15.7223 15.1292 15.6571C15.206 15.5995 15.2472 15.5224 15.2472 15.4081C15.2472 15.3101 15.2201 15.2595 15.1709 15.2138C15.1064 15.1538 14.9882 15.0901 14.7762 15.0219L14.0169 14.7822C13.6441 14.6638 13.2664 14.467 12.9798 14.1566C12.6877 13.8403 12.5032 13.4196 12.5032 12.8881C12.5032 12.3431 12.7326 11.8617 13.1342 11.5213C13.5329 11.1833 14.0856 10.9961 14.7232 10.9961C15.6672 10.9961 16.3338 11.4432 16.5947 11.7954C16.6831 11.9106 16.7672 12.0999 16.7672 12.2961C16.7672 12.7356 16.415 13.1081 15.9632 13.1081C15.7481 13.1081 15.5769 13.0372 15.4103 12.8939C15.1858 12.7109 14.9715 12.6201 14.7232 12.6201C14.5307 12.6201 14.4049 12.6662 14.3356 12.717C14.2747 12.7617 14.2472 12.8153 14.2472 12.8881C14.2472 12.9923 14.3055 13.0904 14.5029 13.1544L15.3807 13.4338C15.718 13.5392 16.1191 13.707 16.4365 14.0162C16.7642 14.3352 16.9832 14.7855 16.9832 15.4081C16.9832 16.4074 16.1428 17.4041 14.6272 17.4041C13.6398 17.4041 12.8713 16.9394 12.4251 16.3292L12.4231 16.3265C12.3514 16.2261 12.2872 16.0781 12.2872 15.8881C12.2872 15.4394 12.6566 15.0761 13.1072 15.0761C13.4205 15.0761 13.5977 15.2423 13.6794 15.324L13.685 15.3298Z" fill="black"/>
<path d="M7.0272 16.2234C7.28958 16.8524 8.06424 17.4041 9.05448 17.4041C9.67736 17.4041 10.2474 17.2056 10.665 16.8234C11.0857 16.4384 11.3305 15.8858 11.3305 15.2241V11.9361C11.3305 11.4773 10.9591 11.1001 10.5025 11.1001H8.37448C7.92879 11.1001 7.56248 11.4664 7.56248 11.9121C7.56248 12.3578 7.92879 12.7241 8.37448 12.7241H9.65848V15.2241C9.65848 15.4078 9.60002 15.5484 9.50996 15.6414C9.42186 15.7324 9.27814 15.8041 9.05448 15.8041C8.79212 15.8041 8.57449 15.6503 8.43846 15.4277L8.43688 15.4251C8.38765 15.3463 8.31283 15.2428 8.19685 15.16C8.07549 15.0733 7.92441 15.0201 7.74248 15.0201C7.28567 15.0201 6.93848 15.3815 6.93848 15.8241C6.93848 15.9868 6.97536 16.1083 7.0272 16.2234Z" fill="black"/>
<path fill-rule="evenodd" clip-rule="evenodd" d="M15.0438 1.66705e-07H8.95624C7.5932 -7.76742e-06 6.50917 -1.42083e-05 5.63458 0.0714426C4.73898 0.144616 3.97531 0.297677 3.27606 0.653961C2.14709 1.2292 1.2292 2.14709 0.653961 3.27606C0.297677 3.97531 0.144616 4.73898 0.0714426 5.63458C0.063689 5.72948 0.0567768 5.82684 0.0506147 5.92676L0.0492204 5.94963C-1.25319e-05 6.76613 -6.81378e-06 7.75235 1.66704e-07 8.95623V15.0438C-7.76742e-06 16.4068 -1.42083e-05 17.4908 0.0714426 18.3654C0.144616 19.261 0.297677 20.0247 0.653961 20.7239C1.2292 21.8529 2.14709 22.7708 3.27606 23.346C3.9753 23.7023 4.73898 23.8554 5.63458 23.9286C6.50914 24 7.59313 24 8.95613 24H15.0438C16.4068 24 17.4909 24 18.3654 23.9286C19.261 23.8554 20.0247 23.7023 20.7239 23.346C21.8529 22.7708 22.7708 21.8529 23.346 20.7239C23.7023 20.0247 23.8554 19.261 23.9286 18.3654C24 17.4909 24 16.4069 24 15.0439V8.95622C24 7.7523 24 6.76605 23.9508 5.94954L23.9494 5.92686C23.9432 5.8269 23.9363 5.72951 23.9286 5.63458C23.8554 4.73898 23.7023 3.9753 23.346 3.27606C22.7708 2.14709 21.8529 1.2292 20.7239 0.653961C20.0247 0.297677 19.261 0.144616 18.3654 0.0714426C17.4908 -1.40816e-05 16.4068 -7.76744e-06 15.0438 1.66705e-07ZM2 9C2 8.21807 2.00024 7.56237 2.01122 7H21.9888C21.9998 7.56237 22 8.21807 22 9V15C22 16.4166 21.9992 17.419 21.9352 18.2026C21.8721 18.9745 21.7527 19.4457 21.564 19.816C21.1805 20.5686 20.5686 21.1805 19.816 21.564C19.4457 21.7527 18.9745 21.8721 18.2026 21.9352C17.419 21.9992 16.4166 22 15 22H9C7.58337 22 6.58104 21.9992 5.79744 21.9352C5.02552 21.8721 4.55435 21.7527 4.18404 21.564C3.43139 21.1805 2.81947 20.5686 2.43597 19.816C2.24729 19.4457 2.12787 18.9745 2.0648 18.2026C2.00078 17.419 2 16.4166 2 15V9ZM2.16889 5H21.8311C21.765 4.66334 21.6769 4.40563 21.564 4.18404C21.1805 3.43139 20.5686 2.81947 19.816 2.43597C19.4457 2.24729 18.9745 2.12787 18.2026 2.0648C17.419 2.00078 16.4166 2 15 2H9C7.58337 2 6.58104 2.00078 5.79744 2.0648C5.02552 2.12787 4.55435 2.24729 4.18404 2.43597C3.43139 2.81947 2.81947 3.43139 2.43597 4.18404C2.32307 4.40563 2.23496 4.66334 2.16889 5Z" fill="black"/>
</svg>
