<svg viewBox="0 0 24 24" fill="none" xmlns="http://www.w3.org/2000/svg">
<path fill-rule="evenodd" clip-rule="evenodd" d="M8.95624 1.66664e-07H15.0438C16.4068 -7.76748e-06 17.4908 -1.40816e-05 18.3654 0.0714426C19.261 0.144616 20.0247 0.297677 20.7239 0.653961C21.8529 1.2292 22.7708 2.14709 23.346 3.27606C23.7023 3.9753 23.8554 4.73898 23.9286 5.63458C23.9363 5.72951 23.9432 5.8269 23.9494 5.92686L23.9508 5.94954C24 6.76605 24 7.7523 24 8.95622V15.0438C24 16.4068 24 17.4909 23.9286 18.3654C23.8554 19.261 23.7023 20.0247 23.346 20.7239C22.7708 21.8529 21.8529 22.7708 20.7239 23.346C20.0247 23.7023 19.261 23.8554 18.3654 23.9286C17.4909 24 16.4069 24 15.0439 24H8.95622C7.59322 24 6.50914 24 5.63458 23.9286C4.73898 23.8554 3.9753 23.7023 3.27606 23.346C2.14709 22.7708 1.2292 21.8529 0.653961 20.7239C0.297677 20.0247 0.144616 19.261 0.0714426 18.3654C-1.40816e-05 17.4908 -7.76748e-06 16.4068 1.66664e-07 15.0438V8.95624C-6.81382e-06 7.75236 -1.25319e-05 6.76613 0.0492204 5.94963L0.0506147 5.92676C0.0567768 5.82684 0.063689 5.72948 0.0714426 5.63458C0.144616 4.73898 0.297677 3.97531 0.653961 3.27606C1.2292 2.14709 2.14709 1.2292 3.27606 0.653961C3.97531 0.297677 4.73898 0.144616 5.63458 0.0714426C6.50917 -1.40816e-05 7.5932 -7.76748e-06 8.95624 1.66664e-07ZM2.01122 7C2.00024 7.56237 2 8.21807 2 9V15C2 16.4166 2.00078 17.419 2.0648 18.2026C2.12787 18.9745 2.24729 19.4457 2.43597 19.816C2.81947 20.5686 3.43139 21.1805 4.18404 21.564C4.55435 21.7527 5.02552 21.8721 5.79744 21.9352C6.58104 21.9992 7.58337 22 9 22H15C16.4166 22 17.419 21.9992 18.2026 21.9352C18.9745 21.8721 19.4457 21.7527 19.816 21.564C20.5686 21.1805 21.1805 20.5686 21.564 19.816C21.7527 19.4457 21.8721 18.9745 21.9352 18.2026C21.9992 17.419 22 16.4166 22 15V9C22 8.21807 21.9998 7.56237 21.9888 7H2.01122ZM21.8311 5H2.16889C2.23496 4.66334 2.32307 4.40563 2.43597 4.18404C2.81947 3.43139 3.43139 2.81947 4.18404 2.43597C4.55435 2.24729 5.02552 2.12787 5.79744 2.0648C6.58104 2.00078 7.58337 2 9 2H15C16.4166 2 17.419 2.00078 18.2026 2.0648C18.9745 2.12787 19.4457 2.24729 19.816 2.43597C20.5686 2.81947 21.1805 3.43139 21.564 4.18404C21.6769 4.40563 21.765 4.66334 21.8311 5Z" fill="black"/>
<path fill-rule="evenodd" clip-rule="evenodd" d="M5.59876 16.4961C5.59876 16.9549 5.22737 17.3321 4.77076 17.3321C4.30398 17.3321 3.92676 16.9607 3.92676 16.4961V11.9361C3.92676 11.4715 4.30398 11.1001 4.77076 11.1001H6.49076C7.75313 11.1001 8.56676 12.1722 8.56676 13.2001C8.56676 14.3079 7.74584 15.3001 6.49076 15.3001H5.59876V16.4961ZM5.59876 13.7081V12.6921H6.37076C6.64313 12.6921 6.87076 12.9159 6.87076 13.2001C6.87076 13.4844 6.64313 13.7081 6.37076 13.7081H5.59876Z" fill="black"/>
<path d="M11.1956 16.4961C11.1956 16.9549 10.8242 17.3321 10.3676 17.3321C9.90086 17.3321 9.52363 16.9607 9.52363 16.4961V11.9041C9.52363 11.4395 9.90086 11.0681 10.3676 11.0681C10.8242 11.0681 11.1956 11.4454 11.1956 11.9041V13.3401H12.8036V11.9041C12.8036 11.4395 13.1809 11.0681 13.6476 11.0681C14.1042 11.0681 14.4756 11.4454 14.4756 11.9041V16.4961C14.4756 16.9549 14.1042 17.3321 13.6476 17.3321C13.1809 17.3321 12.8036 16.9607 12.8036 16.4961V14.9641H11.1956V16.4961Z" fill="black"/>
<path fill-rule="evenodd" clip-rule="evenodd" d="M17.3081 16.4961C17.3081 16.9549 16.9367 17.3321 16.4801 17.3321C16.0134 17.3321 15.6361 16.9607 15.6361 16.4961V11.9361C15.6361 11.4715 16.0134 11.1001 16.4801 11.1001H18.2001C19.4625 11.1001 20.2761 12.1722 20.2761 13.2001C20.2761 14.3079 19.4552 15.3001 18.2001 15.3001H17.3081V16.4961ZM18.0801 12.6921H17.3081V13.7081H18.0801C18.3525 13.7081 18.5801 13.4844 18.5801 13.2001C18.5801 12.9159 18.3525 12.6921 18.0801 12.6921Z" fill="black"/>
</svg>
