<svg width="24" height="24" viewBox="0 0 24 24" fill="none" xmlns="http://www.w3.org/2000/svg">
<path d="M12 13V18M18 22H6C4.89543 22 4 21.1046 4 20V4C4 2.89543 4.89543 2 6 2H14.5943C15.2019 2 15.7765 2.27618 16.156 2.75061L19.5617 7.00773C19.8454 7.36235 20 7.80298 20 8.25712V20C20 21.1046 19.1046 22 18 22ZM9.6 18H14.4C14.9601 18 15.2401 18 15.454 17.891C15.6422 17.7951 15.7951 17.6422 15.891 17.454C16 17.2401 16 16.9601 16 16.4V14.6C16 14.0399 16 13.7599 15.891 13.546C15.7951 13.3578 15.6422 13.2049 15.454 13.109C15.2401 13 14.9601 13 14.4 13H9.6C9.03995 13 8.75992 13 8.54601 13.109C8.35785 13.2049 8.20487 13.3578 8.10899 13.546C8 13.7599 8 14.0399 8 14.6V16.4C8 16.9601 8 17.2401 8.10899 17.454C8.20487 17.6422 8.35785 17.7951 8.54601 17.891C8.75992 18 9.03995 18 9.6 18Z" stroke="black" stroke-width="2" stroke-linecap="round"/>
</svg>
