<svg viewBox="0 0 24 24" fill="none" xmlns="http://www.w3.org/2000/svg">
<path d="M17 9.15789L16.9242 8.13566C16.8547 7.19922 16.0455 6.47368 15.0705 6.47368H13.084M6 19H4.85853C3.78 19 2.92798 18.1189 3.00482 17.083L3.66855 8.13566C3.73801 7.19922 4.54725 6.47368 5.52226 6.47368H7.5087M7.5087 6.47368V4.68421C7.5087 3.20176 8.75678 2 10.2964 2C11.8359 2 13.084 3.20176 13.084 4.68421V6.47368M7.5087 6.47368H13.084M17 15C17 16.1046 16.1046 17 15 17C13.8954 17 13 16.1046 13 15M11 21H19C20.1046 21 21 20.1046 21 19V14C21 12.8954 20.1046 12 19 12H11C9.89543 12 9 12.8954 9 14V19C9 20.1046 9.89543 21 11 21Z" stroke="black" stroke-width="2" stroke-linecap="round"/>
</svg>
