<svg width="24" height="24" viewBox="0 0 24 24" fill="none" xmlns="http://www.w3.org/2000/svg">
<path d="M4 9.99996H2M5 13H3M3.36116 18.8095C7.12199 23.5806 14.0385 24.3996 18.8096 20.6388C23.5807 16.878 24.3997 9.96149 20.6388 5.19039C16.878 0.419286 9.96152 -0.399702 5.19042 3.36113M6 6.99995H6.38271C7.02693 6.99995 7.56781 7.48027 7.63768 8.1144L8.14956 12.7605C8.21942 13.3946 8.7603 13.875 9.40452 13.875H14.8659C15.443 13.875 15.9466 13.4875 16.0892 12.9338L16.9602 9.5519C17.1638 8.76154 16.5607 7.99301 15.7369 7.99301H8.27234M8.28797 16.1405H8.76137M8.28797 16.6093H8.76137M15.2312 16.1405H15.7046M15.2312 16.6093H15.7046M9.15603 16.375C9.15603 16.7201 8.87343 17 8.52482 17C8.17622 17 7.89362 16.7201 7.89362 16.375C7.89362 16.0298 8.17622 15.75 8.52482 15.75C8.87343 15.75 9.15603 16.0298 9.15603 16.375ZM16.0993 16.375C16.0993 16.7201 15.8167 17 15.4681 17C15.1195 17 14.8369 16.7201 14.8369 16.375C14.8369 16.0298 15.1195 15.75 15.4681 15.75C15.8167 15.75 16.0993 16.0298 16.0993 16.375Z" stroke="black" stroke-width="2" stroke-linecap="round"/>
</svg>
