<svg viewBox="0 0 24 24" fill="none" xmlns="http://www.w3.org/2000/svg">
<g clip-path="url(#clip0_9_1524)">
<path d="M3.73005 22.455L4.18404 21.564H4.18404L3.73005 22.455ZM1.54497 20.27L2.43597 19.816H2.43597L1.54497 20.27ZM22.455 20.27L21.564 19.816V19.816L22.455 20.27ZM20.27 22.455L19.816 21.564H19.816L20.27 22.455ZM20.27 1.54497L19.816 2.43597V2.43597L20.27 1.54497ZM22.455 3.73005L21.564 4.18404V4.18404L22.455 3.73005ZM3.73005 1.54497L4.18404 2.43597L3.73005 1.54497ZM1.54497 3.73005L2.43597 4.18404L1.54497 3.73005ZM9.29289 18.2929C8.90237 18.6834 8.90237 19.3166 9.29289 19.7071C9.68342 20.0976 10.3166 20.0976 10.7071 19.7071L9.29289 18.2929ZM13.2929 19.7071C13.6834 20.0976 14.3166 20.0976 14.7071 19.7071C15.0976 19.3166 15.0976 18.6834 14.7071 18.2929L13.2929 19.7071ZM10.7071 4.29289C10.3166 3.90237 9.68342 3.90237 9.29289 4.29289C8.90237 4.68342 8.90237 5.31658 9.29289 5.70711L10.7071 4.29289ZM14.7071 5.70711C15.0976 5.31658 15.0976 4.68342 14.7071 4.29289C14.3166 3.90237 13.6834 3.90237 13.2929 4.29289L14.7071 5.70711ZM5.19676 12.8019C4.66329 12.659 4.11495 12.9756 3.97201 13.5091C3.82907 14.0425 4.14565 14.5909 4.67912 14.7338L5.19676 12.8019ZM5.97201 16.9732C5.82907 17.5066 6.14565 18.055 6.67912 18.1979C7.21259 18.3408 7.76092 18.0243 7.90386 17.4908L5.97201 16.9732ZM18.0282 7.02669C18.1712 6.49322 17.8546 5.94489 17.3211 5.80195C16.7876 5.659 16.2393 5.97559 16.0964 6.50905L18.0282 7.02669ZM18.8035 11.1979C19.3369 11.3408 19.8853 11.0243 20.0282 10.4908C20.1712 9.95733 19.8546 9.40899 19.3211 9.26605L18.8035 11.1979ZM7.90383 6.50876C7.76088 5.97529 7.21255 5.65871 6.67908 5.80165C6.14562 5.94459 5.82903 6.49293 5.97197 7.0264L7.90383 6.50876ZM4.67908 9.26575C4.14562 9.4087 3.82903 9.95703 3.97197 10.4905C4.11492 11.024 4.66325 11.3405 5.19672 11.1976L4.67908 9.26575ZM19.3211 14.7335C19.8545 14.5906 20.1711 14.0422 20.0282 13.5088C19.8852 12.9753 19.3369 12.6587 18.8034 12.8017L19.3211 14.7335ZM16.0963 17.4905C16.2393 18.024 16.7876 18.3405 17.3211 18.1976C17.8545 18.0547 18.1711 17.5063 18.0282 16.9729L16.0963 17.4905ZM9 2H15V0H9V2ZM22 9V15H24V9H22ZM15 22H9V24H15V22ZM2 15V9H0V15H2ZM9 22C7.58337 22 6.58104 21.9992 5.79744 21.9352C5.02552 21.8721 4.55435 21.7527 4.18404 21.564L3.27606 23.346C3.9753 23.7023 4.73898 23.8554 5.63458 23.9286C6.51851 24.0008 7.61637 24 9 24V22ZM0 15C0 16.3836 -0.000777721 17.4815 0.071442 18.3654C0.144616 19.261 0.297677 20.0247 0.653961 20.7239L2.43597 19.816C2.24729 19.4457 2.12787 18.9745 2.0648 18.2026C2.00078 17.419 2 16.4166 2 15H0ZM4.18404 21.564C3.43139 21.1805 2.81947 20.5686 2.43597 19.816L0.653961 20.7239C1.2292 21.8529 2.14708 22.7708 3.27606 23.346L4.18404 21.564ZM22 15C22 16.4166 21.9992 17.419 21.9352 18.2026C21.8721 18.9745 21.7527 19.4457 21.564 19.816L23.346 20.7239C23.7023 20.0247 23.8554 19.261 23.9286 18.3654C24.0008 17.4815 24 16.3836 24 15H22ZM15 24C16.3836 24 17.4815 24.0008 18.3654 23.9286C19.261 23.8554 20.0247 23.7023 20.7239 23.346L19.816 21.564C19.4457 21.7527 18.9745 21.8721 18.2026 21.9352C17.419 21.9992 16.4166 22 15 22V24ZM21.564 19.816C21.1805 20.5686 20.5686 21.1805 19.816 21.564L20.7239 23.346C21.8529 22.7708 22.7708 21.8529 23.346 20.7239L21.564 19.816ZM15 2C16.4166 2 17.419 2.00078 18.2026 2.0648C18.9745 2.12787 19.4457 2.24729 19.816 2.43597L20.7239 0.653961C20.0247 0.297677 19.261 0.144616 18.3654 0.071442C17.4815 -0.000777721 16.3836 0 15 0V2ZM24 9C24 7.61637 24.0008 6.51851 23.9286 5.63458C23.8554 4.73898 23.7023 3.9753 23.346 3.27606L21.564 4.18404C21.7527 4.55435 21.8721 5.02552 21.9352 5.79744C21.9992 6.58104 22 7.58337 22 9H24ZM19.816 2.43597C20.5686 2.81947 21.1805 3.43139 21.564 4.18404L23.346 3.27606C22.7708 2.14708 21.8529 1.2292 20.7239 0.653961L19.816 2.43597ZM9 0C7.61637 0 6.51851 -0.000777721 5.63458 0.071442C4.73898 0.144616 3.9753 0.297677 3.27606 0.653961L4.18404 2.43597C4.55435 2.24729 5.02552 2.12787 5.79744 2.0648C6.58104 2.00078 7.58337 2 9 2V0ZM2 9C2 7.58337 2.00078 6.58104 2.0648 5.79744C2.12787 5.02552 2.24729 4.55435 2.43597 4.18404L0.653961 3.27606C0.297677 3.9753 0.144616 4.73898 0.071442 5.63458C-0.000777721 6.51851 0 7.61637 0 9H2ZM3.27606 0.653961C2.14708 1.2292 1.2292 2.14708 0.653961 3.27606L2.43597 4.18404C2.81947 3.43139 3.43139 2.81947 4.18404 2.43597L3.27606 0.653961ZM11.2929 16.2929L9.29289 18.2929L10.7071 19.7071L12.7071 17.7071L11.2929 16.2929ZM11.2929 17.7071L13.2929 19.7071L14.7071 18.2929L12.7071 16.2929L11.2929 17.7071ZM12.7071 6.29289L10.7071 4.29289L9.29289 5.70711L11.2929 7.70711L12.7071 6.29289ZM12.7071 7.70711L14.7071 5.70711L13.2929 4.29289L11.2929 6.29289L12.7071 7.70711ZM11 7V17H13V7H11ZM7.92881 13.534L5.19676 12.8019L4.67912 14.7338L7.41117 15.4658L7.92881 13.534ZM6.70406 14.2411L5.97201 16.9732L7.90386 17.4908L8.63592 14.7587L6.70406 14.2411ZM17.2962 9.75874L18.0282 7.02669L16.0964 6.50905L15.3643 9.2411L17.2962 9.75874ZM16.0714 10.4658L18.8035 11.1979L19.3211 9.26605L16.5891 8.534L16.0714 10.4658ZM15.8302 8.6339L7.16999 13.6339L8.16999 15.3659L16.8302 10.3659L15.8302 8.6339ZM8.63588 9.24081L7.90383 6.50876L5.97197 7.0264L6.70403 9.75845L8.63588 9.24081ZM7.41113 8.5337L4.67908 9.26575L5.19672 11.1976L7.92877 10.4656L7.41113 8.5337ZM16.589 15.4656L19.3211 14.7335L18.8034 12.8017L16.0714 13.5337L16.589 15.4656ZM15.3643 14.7584L16.0963 17.4905L18.0282 16.9729L17.2961 14.2408L15.3643 14.7584ZM16.8302 13.6336L8.16995 8.6336L7.16995 10.3657L15.8302 15.3657L16.8302 13.6336Z" fill="currentColor"/>
</g>
<defs>
<clipPath id="clip0_9_1524">
<rect width="24" height="24" fill="white"/>
</clipPath>
</defs>
</svg>
