<svg width="24" height="24" viewBox="0 0 24 24" fill="none" xmlns="http://www.w3.org/2000/svg">
<g clip-path="url(#clip0_9_1521)">
<path d="M3.73005 22.455L4.18404 21.564H4.18404L3.73005 22.455ZM1.54497 20.27L2.43597 19.816H2.43597L1.54497 20.27ZM22.455 20.27L21.564 19.816V19.816L22.455 20.27ZM20.27 22.455L19.816 21.564H19.816L20.27 22.455ZM20.27 1.54497L19.816 2.43597V2.43597L20.27 1.54497ZM22.455 3.73005L21.564 4.18404V4.18404L22.455 3.73005ZM3.73005 1.54497L4.18404 2.43597L3.73005 1.54497ZM1.54497 3.73005L2.43597 4.18404L1.54497 3.73005ZM7 14C7 14.5523 7.44772 15 8 15C8.55228 15 9 14.5523 9 14H7ZM9 7.17247C9 6.62019 8.55228 6.17247 8 6.17247C7.44772 6.17247 7 6.62019 7 7.17247H9ZM5.33799 7.8951C4.92406 8.26072 4.88489 8.89267 5.25051 9.30661C5.61612 9.72054 6.24808 9.75971 6.66201 9.39409L5.33799 7.8951ZM7.7643 7.08624L7.10229 6.33674L7.7643 7.08624ZM8.2357 7.08624L8.89771 6.33674L8.2357 7.08624ZM9.33799 9.39409C9.75192 9.75971 10.3839 9.72054 10.7495 9.30661C11.1151 8.89267 11.0759 8.26072 10.662 7.8951L9.33799 9.39409ZM7 17C6.44772 17 6 17.4477 6 18C6 18.5523 6.44772 19 7 19V17ZM17 19C17.5523 19 18 18.5523 18 18C18 17.4477 17.5523 17 17 17V19ZM15 14C15 14.5523 15.4477 15 16 15C16.5523 15 17 14.5523 17 14H15ZM17 7.17247C17 6.62019 16.5523 6.17247 16 6.17247C15.4477 6.17247 15 6.62019 15 7.17247H17ZM13.338 7.8951C12.9241 8.26072 12.8849 8.89267 13.2505 9.30661C13.6161 9.72054 14.2481 9.75971 14.662 9.39409L13.338 7.8951ZM15.7643 7.08624L15.1023 6.33674L15.7643 7.08624ZM16.2357 7.08624L16.8977 6.33674L16.2357 7.08624ZM17.338 9.39409C17.7519 9.75971 18.3839 9.72054 18.7495 9.30661C19.1151 8.89267 19.0759 8.26072 18.662 7.8951L17.338 9.39409ZM9 2H15V0H9V2ZM22 9V15H24V9H22ZM15 22H9V24H15V22ZM2 15V9H0V15H2ZM9 22C7.58337 22 6.58104 21.9992 5.79744 21.9352C5.02552 21.8721 4.55435 21.7527 4.18404 21.564L3.27606 23.346C3.9753 23.7023 4.73898 23.8554 5.63458 23.9286C6.51851 24.0008 7.61637 24 9 24V22ZM0 15C0 16.3836 -0.000777721 17.4815 0.071442 18.3654C0.144616 19.261 0.297677 20.0247 0.653961 20.7239L2.43597 19.816C2.24729 19.4457 2.12787 18.9745 2.0648 18.2026C2.00078 17.419 2 16.4166 2 15H0ZM4.18404 21.564C3.43139 21.1805 2.81947 20.5686 2.43597 19.816L0.653961 20.7239C1.2292 21.8529 2.14708 22.7708 3.27606 23.346L4.18404 21.564ZM22 15C22 16.4166 21.9992 17.419 21.9352 18.2026C21.8721 18.9745 21.7527 19.4457 21.564 19.816L23.346 20.7239C23.7023 20.0247 23.8554 19.261 23.9286 18.3654C24.0008 17.4815 24 16.3836 24 15H22ZM15 24C16.3836 24 17.4815 24.0008 18.3654 23.9286C19.261 23.8554 20.0247 23.7023 20.7239 23.346L19.816 21.564C19.4457 21.7527 18.9745 21.8721 18.2026 21.9352C17.419 21.9992 16.4166 22 15 22V24ZM21.564 19.816C21.1805 20.5686 20.5686 21.1805 19.816 21.564L20.7239 23.346C21.8529 22.7708 22.7708 21.8529 23.346 20.7239L21.564 19.816ZM15 2C16.4166 2 17.419 2.00078 18.2026 2.0648C18.9745 2.12787 19.4457 2.24729 19.816 2.43597L20.7239 0.653961C20.0247 0.297677 19.261 0.144616 18.3654 0.071442C17.4815 -0.000777721 16.3836 0 15 0V2ZM24 9C24 7.61637 24.0008 6.51851 23.9286 5.63458C23.8554 4.73898 23.7023 3.9753 23.346 3.27606L21.564 4.18404C21.7527 4.55435 21.8721 5.02552 21.9352 5.79744C21.9992 6.58104 22 7.58337 22 9H24ZM19.816 2.43597C20.5686 2.81947 21.1805 3.43139 21.564 4.18404L23.346 3.27606C22.7708 2.14708 21.8529 1.2292 20.7239 0.653961L19.816 2.43597ZM9 0C7.61637 0 6.51851 -0.000777721 5.63458 0.071442C4.73898 0.144616 3.9753 0.297677 3.27606 0.653961L4.18404 2.43597C4.55435 2.24729 5.02552 2.12787 5.79744 2.0648C6.58104 2.00078 7.58337 2 9 2V0ZM2 9C2 7.58337 2.00078 6.58104 2.0648 5.79744C2.12787 5.02552 2.24729 4.55435 2.43597 4.18404L0.653961 3.27606C0.297677 3.9753 0.144616 4.73898 0.071442 5.63458C-0.000777721 6.51851 0 7.61637 0 9H2ZM3.27606 0.653961C2.14708 1.2292 1.2292 2.14708 0.653961 3.27606L2.43597 4.18404C2.81947 3.43139 3.43139 2.81947 4.18404 2.43597L3.27606 0.653961ZM9 14V7.17247H7V14H9ZM6.66201 9.39409L8.42631 7.83573L7.10229 6.33674L5.33799 7.8951L6.66201 9.39409ZM7.57369 7.83573L9.33799 9.39409L10.662 7.8951L8.89771 6.33674L7.57369 7.83573ZM8.42631 7.83573C8.29007 7.95606 8.13255 8 8 8C7.86745 8 7.70993 7.95606 7.57369 7.83573L8.89771 6.33674C8.38939 5.88775 7.61061 5.88775 7.10229 6.33674L8.42631 7.83573ZM7 19H17V17H7V19ZM17 14V7.17247H15V14H17ZM14.662 9.39409L16.4263 7.83573L15.1023 6.33674L13.338 7.8951L14.662 9.39409ZM15.5737 7.83573L17.338 9.39409L18.662 7.8951L16.8977 6.33674L15.5737 7.83573ZM16.4263 7.83573C16.2901 7.95606 16.1325 8 16 8C15.8675 8 15.7099 7.95606 15.5737 7.83573L16.8977 6.33674C16.3894 5.88775 15.6106 5.88775 15.1023 6.33674L16.4263 7.83573Z" fill="#111111"/>
</g>
<defs>
<clipPath id="clip0_9_1521">
<rect width="24" height="24" fill="white"/>
</clipPath>
</defs>
</svg>
