<svg viewBox="0 0 24 24" fill="none" xmlns="http://www.w3.org/2000/svg">
<g clip-path="url(#clip0_9_1515)">
<path d="M3.73005 22.455L4.18404 21.564H4.18404L3.73005 22.455ZM1.54497 20.27L2.43597 19.816H2.43597L1.54497 20.27ZM22.455 20.27L21.564 19.816V19.816L22.455 20.27ZM20.27 22.455L19.816 21.564H19.816L20.27 22.455ZM20.27 1.54497L19.816 2.43597V2.43597L20.27 1.54497ZM22.455 3.73005L21.564 4.18404V4.18404L22.455 3.73005ZM3.73005 1.54497L4.18404 2.43597L3.73005 1.54497ZM1.54497 3.73005L2.43597 4.18404L1.54497 3.73005ZM6.03714 10.4875L6.99855 10.7626L6.03714 10.4875ZM17.9629 10.4875L18.9243 10.2124V10.2124L17.9629 10.4875ZM13 11.8421C13 11.2898 12.5523 10.8421 12 10.8421C11.4477 10.8421 11 11.2898 11 11.8421H13ZM9 16.5H10H9ZM10 16C10 15.4477 9.55229 15 9 15C8.44772 15 8 15.4477 8 16H10ZM13 5C13 4.44772 12.5523 4 12 4C11.4477 4 11 4.44772 11 5H13ZM9 2H15V0H9V2ZM22 9V15H24V9H22ZM15 22H9V24H15V22ZM2 15V9H0V15H2ZM9 22C7.58337 22 6.58104 21.9992 5.79744 21.9352C5.02552 21.8721 4.55435 21.7527 4.18404 21.564L3.27606 23.346C3.9753 23.7023 4.73898 23.8554 5.63458 23.9286C6.51851 24.0008 7.61637 24 9 24V22ZM0 15C0 16.3836 -0.000777721 17.4815 0.071442 18.3654C0.144616 19.261 0.297677 20.0247 0.653961 20.7239L2.43597 19.816C2.24729 19.4457 2.12787 18.9745 2.0648 18.2026C2.00078 17.419 2 16.4166 2 15H0ZM4.18404 21.564C3.43139 21.1805 2.81947 20.5686 2.43597 19.816L0.653961 20.7239C1.2292 21.8529 2.14708 22.7708 3.27606 23.346L4.18404 21.564ZM22 15C22 16.4166 21.9992 17.419 21.9352 18.2026C21.8721 18.9745 21.7527 19.4457 21.564 19.816L23.346 20.7239C23.7023 20.0247 23.8554 19.261 23.9286 18.3654C24.0008 17.4815 24 16.3836 24 15H22ZM15 24C16.3836 24 17.4815 24.0008 18.3654 23.9286C19.261 23.8554 20.0247 23.7023 20.7239 23.346L19.816 21.564C19.4457 21.7527 18.9745 21.8721 18.2026 21.9352C17.419 21.9992 16.4166 22 15 22V24ZM21.564 19.816C21.1805 20.5686 20.5686 21.1805 19.816 21.564L20.7239 23.346C21.8529 22.7708 22.7708 21.8529 23.346 20.7239L21.564 19.816ZM15 2C16.4166 2 17.419 2.00078 18.2026 2.0648C18.9745 2.12787 19.4457 2.24729 19.816 2.43597L20.7239 0.653961C20.0247 0.297677 19.261 0.144616 18.3654 0.071442C17.4815 -0.000777721 16.3836 0 15 0V2ZM24 9C24 7.61637 24.0008 6.51851 23.9286 5.63458C23.8554 4.73898 23.7023 3.9753 23.346 3.27606L21.564 4.18404C21.7527 4.55435 21.8721 5.02552 21.9352 5.79744C21.9992 6.58104 22 7.58337 22 9H24ZM19.816 2.43597C20.5686 2.81947 21.1805 3.43139 21.564 4.18404L23.346 3.27606C22.7708 2.14708 21.8529 1.2292 20.7239 0.653961L19.816 2.43597ZM9 0C7.61637 0 6.51851 -0.000777721 5.63458 0.071442C4.73898 0.144616 3.9753 0.297677 3.27606 0.653961L4.18404 2.43597C4.55435 2.24729 5.02552 2.12787 5.79744 2.0648C6.58104 2.00078 7.58337 2 9 2V0ZM2 9C2 7.58337 2.00078 6.58104 2.0648 5.79744C2.12787 5.02552 2.24729 4.55435 2.43597 4.18404L0.653961 3.27606C0.297677 3.9753 0.144616 4.73898 0.071442 5.63458C-0.000777721 6.51851 0 7.61637 0 9H2ZM3.27606 0.653961C2.14708 1.2292 1.2292 2.14708 0.653961 3.27606L2.43597 4.18404C2.81947 3.43139 3.43139 2.81947 4.18404 2.43597L3.27606 0.653961ZM6.99855 10.7626C7.56354 8.78828 9.60979 7 12 7V5C8.64516 5 5.86591 7.45107 5.07573 10.2124L6.99855 10.7626ZM12 7C14.3902 7 16.4365 8.78828 17.0015 10.7626L18.9243 10.2124C18.1341 7.45107 15.3548 5 12 5V7ZM16.6145 10.8421H7.38546V12.8421H16.6145V10.8421ZM5.07573 10.2124C4.85307 10.9905 5.1416 11.6995 5.62119 12.1605C6.08258 12.6039 6.7285 12.8421 7.38546 12.8421V10.8421C7.19291 10.8421 7.05987 10.7692 7.00709 10.7185C6.98412 10.6964 6.98859 10.6912 6.99475 10.711C6.99779 10.7208 6.99986 10.7327 6.99999 10.7449C7.00013 10.7572 6.99825 10.7637 6.99855 10.7626L5.07573 10.2124ZM17.0015 10.7626C17.0018 10.7637 16.9999 10.7572 17 10.7449C17.0001 10.7327 17.0022 10.7208 17.0053 10.711C17.0114 10.6912 17.0159 10.6964 16.9929 10.7185C16.9401 10.7692 16.8071 10.8421 16.6145 10.8421V12.8421C17.2715 12.8421 17.9174 12.6039 18.3788 12.1605C18.8584 11.6995 19.1469 10.9905 18.9243 10.2124L17.0015 10.7626ZM11 11.8421V16.6316H13V11.8421H11ZM10 16.5V16H8V16.5H10ZM10.4618 17C10.0865 17 10.0415 16.9096 10.0692 16.939C10.0854 16.9562 10 16.8851 10 16.5H8C8 17.1149 8.12642 17.7938 8.61396 18.311C9.11306 18.8404 9.79891 19 10.4618 19V17ZM11 16.6316C11 16.7546 10.9821 16.8264 10.9688 16.862C10.9573 16.8929 10.948 16.9011 10.9445 16.9043C10.9389 16.9094 10.8352 17 10.4618 17V19C11.1266 19 11.792 18.8406 12.296 18.3786C12.8146 17.9031 13 17.2576 13 16.6316H11ZM13 6V5H11V6H13Z" fill="#111111"/>
</g>
<defs>
<clipPath id="clip0_9_1515">
<rect width="24" height="24" fill="white"/>
</clipPath>
</defs>
</svg>
