<svg viewBox="0 0 24 24" fill="none" xmlns="http://www.w3.org/2000/svg">
<path d="M6.29289 16.2929C5.90237 16.6834 5.90237 17.3166 6.29289 17.7071C6.68342 18.0976 7.31658 18.0976 7.70711 17.7071L6.29289 16.2929ZM17.7071 7.70711C18.0976 7.31658 18.0976 6.68342 17.7071 6.29289C17.3166 5.90237 16.6834 5.90237 16.2929 6.29289L17.7071 7.70711ZM7.62476 6.62494C7.07247 6.62494 6.62476 7.07265 6.62476 7.62494C6.62476 8.17722 7.07247 8.62494 7.62476 8.62494V6.62494ZM8.37476 8.62494C8.92704 8.62494 9.37476 8.17722 9.37476 7.62494C9.37476 7.07265 8.92704 6.62494 8.37476 6.62494V8.62494ZM7.62476 7.37494C7.07247 7.37494 6.62476 7.82265 6.62476 8.37494C6.62476 8.92722 7.07247 9.37494 7.62476 9.37494V7.37494ZM8.37476 9.37494C8.92704 9.37494 9.37476 8.92722 9.37476 8.37494C9.37476 7.82265 8.92704 7.37494 8.37476 7.37494V9.37494ZM15.6248 14.6249C15.0725 14.6249 14.6248 15.0727 14.6248 15.6249C14.6248 16.1772 15.0725 16.6249 15.6248 16.6249V14.6249ZM16.3748 16.6249C16.927 16.6249 17.3748 16.1772 17.3748 15.6249C17.3748 15.0727 16.927 14.6249 16.3748 14.6249V16.6249ZM15.6248 15.3749C15.0725 15.3749 14.6248 15.8227 14.6248 16.3749C14.6248 16.9272 15.0725 17.3749 15.6248 17.3749V15.3749ZM16.3748 17.3749C16.927 17.3749 17.3748 16.9272 17.3748 16.3749C17.3748 15.8227 16.927 15.3749 16.3748 15.3749V17.3749ZM11 0C10.4477 0 10 0.447715 10 1C10 1.55228 10.4477 2 11 2V0ZM13 2C13.5523 2 14 1.55228 14 1C14 0.447715 13.5523 0 13 0V2ZM24 11C24 10.4477 23.5523 10 23 10C22.4477 10 22 10.4477 22 11H24ZM22 13C22 13.5523 22.4477 14 23 14C23.5523 14 24 13.5523 24 13H22ZM11 22C10.4477 22 10 22.4477 10 23C10 23.5523 10.4477 24 11 24V22ZM13 24C13.5523 24 14 23.5523 14 23C14 22.4477 13.5523 22 13 22V24ZM2 11C2 10.4477 1.55228 10 1 10C0.447715 10 1.19209e-07 10.4477 5.96046e-08 11H2ZM0 13C0 13.5523 0.447715 14 1 14C1.55228 14 2 13.5523 2 13H0ZM3.72974 22.4552L4.18373 21.5642H4.18373L3.72974 22.4552ZM1.54466 20.2701L2.43567 19.8161H2.43567L1.54466 20.2701ZM22.4547 20.2701L21.5637 19.8161V19.8161L22.4547 20.2701ZM20.2696 22.4552L19.8157 21.5642H19.8157L20.2696 22.4552ZM20.2696 1.54515L19.8157 2.43616V2.43616L20.2696 1.54515ZM22.4547 3.73023L21.5637 4.18422V4.18422L22.4547 3.73023ZM3.72974 1.54515L4.18373 2.43616L3.72974 1.54515ZM1.54466 3.73023L2.43567 4.18422L1.54466 3.73023ZM7.01895 2.01105C7.57113 2.00048 8.0102 1.54428 7.99963 0.992092C7.98906 0.439908 7.53286 0.000843465 6.98067 0.0114136L7.01895 2.01105ZM0.0109255 6.98106C0.000353932 7.53324 0.439417 7.98944 0.991601 8.00002C1.54378 8.01059 1.99999 7.57152 2.01056 7.01934L0.0109255 6.98106ZM2.01056 16.981C1.99999 16.4288 1.54378 15.9898 0.991601 16.0004C0.439417 16.0109 0.000353932 16.4671 0.0109255 17.0193L2.01056 16.981ZM6.98067 23.989C7.53285 23.9995 7.98906 23.5605 7.99963 23.0083C8.0102 22.4561 7.57113 21.9999 7.01895 21.9893L6.98067 23.989ZM16.9805 21.9893C16.4283 21.9999 15.9892 22.4561 15.9998 23.0083C16.0103 23.5605 16.4665 23.9995 17.0187 23.989L16.9805 21.9893ZM23.9885 17.0193C23.999 16.4671 23.56 16.0109 23.0078 16.0004C22.4556 15.9898 21.9994 16.4288 21.9888 16.981L23.9885 17.0193ZM21.9888 7.01934C21.9994 7.57152 22.4556 8.01059 23.0078 8.00002C23.56 7.98944 23.999 7.53324 23.9885 6.98106L21.9888 7.01934ZM17.0187 0.0114136C16.4665 0.000843227 16.0103 0.439907 15.9998 0.992091C15.9892 1.54427 16.4283 2.00048 16.9805 2.01105L17.0187 0.0114136ZM7.70711 17.7071L17.7071 7.70711L16.2929 6.29289L6.29289 16.2929L7.70711 17.7071ZM8 8H8V10C9.10457 10 10 9.10457 10 8H8ZM8 8H8H6C6 9.10457 6.89543 10 8 10V8ZM8 8H8V6C6.89543 6 6 6.89543 6 8H8ZM8 8H8H10C10 6.89543 9.10457 6 8 6V8ZM7.62476 8.62494H8.37476V6.62494H7.62476V8.62494ZM7.62476 9.37494H8.37476V7.37494H7.62476V9.37494ZM16 16V18C17.1046 18 18 17.1046 18 16H16ZM16 16H14C14 17.1046 14.8954 18 16 18V16ZM16 16V14C14.8954 14 14 14.8954 14 16H16ZM16 16H18C18 14.8954 17.1046 14 16 14V16ZM15.6248 16.6249H16.3748V14.6249H15.6248V16.6249ZM15.6248 17.3749H16.3748V15.3749H15.6248V17.3749ZM11 2H13V0H11V2ZM22 11V13H24V11H22ZM11 24H13V22H11V24ZM5.96046e-08 11L0 13H2L2 11H5.96046e-08ZM4.18373 21.5642C3.43108 21.1807 2.81916 20.5688 2.43567 19.8161L0.653656 20.7241C1.2289 21.8531 2.14678 22.771 3.27575 23.3462L4.18373 21.5642ZM21.5637 19.8161C21.1802 20.5688 20.5683 21.1807 19.8157 21.5642L20.7236 23.3462C21.8526 22.771 22.7705 21.8531 23.3457 20.7241L21.5637 19.8161ZM19.8157 2.43616C20.5683 2.81965 21.1802 3.43157 21.5637 4.18422L23.3457 3.27624C22.7705 2.14727 21.8526 1.22939 20.7236 0.654146L19.8157 2.43616ZM3.27575 0.654146C2.14678 1.22939 1.2289 2.14727 0.653656 3.27624L2.43567 4.18422C2.81916 3.43157 3.43108 2.81965 4.18373 2.43616L3.27575 0.654146ZM6.98067 0.0114136C5.44533 0.0408038 4.27979 0.142561 3.27575 0.654146L4.18373 2.43616C4.73558 2.15498 5.47572 2.04059 7.01895 2.01105L6.98067 0.0114136ZM2.01056 7.01934C2.0401 5.47617 2.15449 4.73606 2.43567 4.18422L0.653656 3.27624C0.142082 4.28026 0.0403187 5.44577 0.0109255 6.98106L2.01056 7.01934ZM0.0109255 17.0193C0.0403187 18.5546 0.142082 19.7201 0.653656 20.7241L2.43567 19.8161C2.15449 19.2643 2.0401 18.5242 2.01056 16.981L0.0109255 17.0193ZM7.01895 21.9893C5.47572 21.9598 4.73558 21.8454 4.18373 21.5642L3.27575 23.3462C4.27979 23.8578 5.44533 23.9596 6.98067 23.989L7.01895 21.9893ZM17.0187 23.989C18.5541 23.9596 19.7196 23.8578 20.7236 23.3462L19.8157 21.5642C19.2638 21.8454 18.5237 21.9598 16.9805 21.9893L17.0187 23.989ZM21.9888 16.981C21.9593 18.5242 21.8449 19.2643 21.5637 19.8161L23.3457 20.7241C23.8573 19.7201 23.9591 18.5546 23.9885 17.0193L21.9888 16.981ZM23.9885 6.98106C23.9591 5.44577 23.8573 4.28026 23.3457 3.27624L21.5637 4.18422C21.8449 4.73606 21.9593 5.47617 21.9888 7.01934L23.9885 6.98106ZM16.9805 2.01105C18.5237 2.04059 19.2638 2.15498 19.8157 2.43616L20.7236 0.654146C19.7196 0.142563 18.5541 0.0408044 17.0187 0.0114136L16.9805 2.01105Z" fill="black"/>
</svg>
