<svg viewBox="0 0 24 24" fill="none" xmlns="http://www.w3.org/2000/svg">
<path d="M3.7292 22.4549L3.27521 23.3459L3.7292 22.4549ZM1.54412 20.2698L2.43513 19.8158H2.43513L1.54412 20.2698ZM22.4542 20.2698L21.5632 19.8158V19.8158L22.4542 20.2698ZM20.2691 22.4549L19.8151 21.5639L20.2691 22.4549ZM20.2691 1.54483L19.8151 2.43584L20.2691 1.54483ZM22.4542 3.72991L23.3452 3.27592L22.4542 3.72991ZM3.7292 1.54483L4.18319 2.43584V2.43584L3.7292 1.54483ZM1.54412 3.72991L2.43513 4.1839L1.54412 3.72991ZM8.00271 2.00097C8.55499 1.999 9.00111 1.5497 8.99915 0.997417C8.99718 0.445136 8.54787 -0.000982881 7.99559 0.000982881L8.00271 2.00097ZM16.0027 0.000982881C15.4504 -0.000982881 15.0011 0.445136 14.9992 0.997417C14.9972 1.5497 15.4433 1.999 15.9956 2.00097L16.0027 0.000982881ZM2 15.9156C1.99837 15.3633 1.54934 14.9169 0.997062 14.9186C0.444779 14.9202 -0.0016185 15.3692 4.29153e-06 15.9215L2 15.9156ZM23.9983 15.9215C23.9999 15.3692 23.5535 14.9202 23.0012 14.9186C22.449 14.9169 21.9999 15.3633 21.9983 15.9156L23.9983 15.9215ZM21.998 8.00342C22 8.55571 22.4493 9.00182 23.0016 8.99986C23.5539 8.99789 24 8.54859 23.998 7.99631L21.998 8.00342ZM7.99559 23.9987C8.54787 24.0007 8.99718 23.5546 8.99915 23.0023C9.00111 22.45 8.55499 22.0007 8.00271 21.9988L7.99559 23.9987ZM15.9957 21.9988C15.4434 22.0007 14.9973 22.45 14.9993 23.0023C15.0013 23.5546 15.4506 24.0007 16.0028 23.9987L15.9957 21.9988ZM0.000269949 7.99631C-0.00169587 8.54859 0.444423 8.99789 0.996704 8.99986C1.54899 9.00182 1.99829 8.55571 2.00026 8.00342L0.000269949 7.99631ZM14.3114 13.3125C13.7591 13.3125 13.3114 13.7602 13.3114 14.3125C13.3114 14.8648 13.7591 15.3125 14.3114 15.3125V13.3125ZM14.6864 15.3125C15.2387 15.3125 15.6864 14.8648 15.6864 14.3125C15.6864 13.7602 15.2387 13.3125 14.6864 13.3125V15.3125ZM14.3114 13.6875C13.7591 13.6875 13.3114 14.1352 13.3114 14.6875C13.3114 15.2398 13.7591 15.6875 14.3114 15.6875V13.6875ZM14.6864 15.6875C15.2387 15.6875 15.6864 15.2398 15.6864 14.6875C15.6864 14.1352 15.2387 13.6875 14.6864 13.6875V15.6875ZM14.3114 17.3125C13.7591 17.3125 13.3114 17.7602 13.3114 18.3125C13.3114 18.8648 13.7591 19.3125 14.3114 19.3125V17.3125ZM14.6864 19.3125C15.2387 19.3125 15.6864 18.8648 15.6864 18.3125C15.6864 17.7602 15.2387 17.3125 14.6864 17.3125V19.3125ZM14.3114 17.6875C13.7591 17.6875 13.3114 18.1352 13.3114 18.6875C13.3114 19.2398 13.7591 19.6875 14.3114 19.6875V17.6875ZM14.6864 19.6875C15.2387 19.6875 15.6864 19.2398 15.6864 18.6875C15.6864 18.1352 15.2387 17.6875 14.6864 17.6875V19.6875ZM18.3114 13.3125C17.7591 13.3125 17.3114 13.7602 17.3114 14.3125C17.3114 14.8648 17.7591 15.3125 18.3114 15.3125V13.3125ZM18.6864 15.3125C19.2387 15.3125 19.6864 14.8648 19.6864 14.3125C19.6864 13.7602 19.2387 13.3125 18.6864 13.3125V15.3125ZM18.3114 13.6875C17.7591 13.6875 17.3114 14.1352 17.3114 14.6875C17.3114 15.2398 17.7591 15.6875 18.3114 15.6875V13.6875ZM18.6864 15.6875C19.2387 15.6875 19.6864 15.2398 19.6864 14.6875C19.6864 14.1352 19.2387 13.6875 18.6864 13.6875V15.6875ZM18.3114 17.3125C17.7591 17.3125 17.3114 17.7602 17.3114 18.3125C17.3114 18.8648 17.7591 19.3125 18.3114 19.3125V17.3125ZM18.6864 19.3125C19.2387 19.3125 19.6864 18.8648 19.6864 18.3125C19.6864 17.7602 19.2387 17.3125 18.6864 17.3125V19.3125ZM18.3114 17.6875C17.7591 17.6875 17.3114 18.1352 17.3114 18.6875C17.3114 19.2398 17.7591 19.6875 18.3114 19.6875V17.6875ZM18.6864 19.6875C19.2387 19.6875 19.6864 19.2398 19.6864 18.6875C19.6864 18.1352 19.2387 17.6875 18.6864 17.6875V19.6875ZM6.99902 6H7.99902V4H6.99902V6ZM8.99902 7V8H10.999V7H8.99902ZM7.99902 9H6.99902V11H7.99902V9ZM5.99902 8V7H3.99902V8H5.99902ZM6.99902 9C6.44674 9 5.99902 8.55228 5.99902 8H3.99902C3.99902 9.65685 5.34217 11 6.99902 11V9ZM8.99902 8C8.99902 8.55228 8.55131 9 7.99902 9V11C9.65588 11 10.999 9.65685 10.999 8H8.99902ZM7.99902 6C8.55131 6 8.99902 6.44772 8.99902 7H10.999C10.999 5.34315 9.65588 4 7.99902 4V6ZM6.99902 4C5.34217 4 3.99902 5.34315 3.99902 7H5.99902C5.99902 6.44772 6.44674 6 6.99902 6V4ZM6.99902 15H7.99902V13H6.99902V15ZM8.99902 16V17H10.999V16H8.99902ZM7.99902 18H6.99902V20H7.99902V18ZM5.99902 17V16H3.99902V17H5.99902ZM6.99902 18C6.44674 18 5.99902 17.5523 5.99902 17H3.99902C3.99902 18.6569 5.34217 20 6.99902 20V18ZM8.99902 17C8.99902 17.5523 8.55131 18 7.99902 18V20C9.65588 20 10.999 18.6569 10.999 17H8.99902ZM7.99902 15C8.55131 15 8.99902 15.4477 8.99902 16H10.999C10.999 14.3431 9.65588 13 7.99902 13V15ZM6.99902 13C5.34217 13 3.99902 14.3431 3.99902 16H5.99902C5.99902 15.4477 6.44674 15 6.99902 15V13ZM15.999 6H16.999V4H15.999V6ZM17.999 7V8H19.999V7H17.999ZM16.999 9H15.999V11H16.999V9ZM14.999 8V7H12.999V8H14.999ZM15.999 9C15.4467 9 14.999 8.55228 14.999 8H12.999C12.999 9.65685 14.3422 11 15.999 11V9ZM17.999 8C17.999 8.55228 17.5513 9 16.999 9V11C18.6559 11 19.999 9.65685 19.999 8H17.999ZM16.999 6C17.5513 6 17.999 6.44772 17.999 7H19.999C19.999 5.34315 18.6559 4 16.999 4V6ZM15.999 4C14.3422 4 12.999 5.34315 12.999 7H14.999C14.999 6.44772 15.4467 6 15.999 6V4ZM4.18319 21.5639C3.43054 21.1804 2.81862 20.5685 2.43513 19.8158L0.653113 20.7238C1.22835 21.8528 2.14624 22.7707 3.27521 23.3459L4.18319 21.5639ZM21.5632 19.8158C21.1797 20.5685 20.5678 21.1804 19.8151 21.5639L20.7231 23.3459C21.8521 22.7707 22.77 21.8528 23.3452 20.7238L21.5632 19.8158ZM19.8151 2.43584C20.5678 2.81933 21.1797 3.43125 21.5632 4.1839L23.3452 3.27592C22.77 2.14695 21.8521 1.22907 20.7231 0.653826L19.8151 2.43584ZM3.27521 0.653826C2.14624 1.22907 1.22835 2.14695 0.653113 3.27592L2.43513 4.1839C2.81862 3.43125 3.43054 2.81933 4.18319 2.43584L3.27521 0.653826ZM7.99559 0.000982881C5.90908 0.0084098 4.46212 0.0490665 3.27521 0.653826L4.18319 2.43584C4.86412 2.08889 5.78908 2.00885 8.00271 2.00097L7.99559 0.000982881ZM15.9956 2.00097C18.2092 2.00885 19.1342 2.08889 19.8151 2.43584L20.7231 0.653826C19.5362 0.0490666 18.0892 0.0084098 16.0027 0.000982881L15.9956 2.00097ZM4.29153e-06 15.9215C0.00627285 18.0548 0.0415801 19.5236 0.653113 20.7238L2.43513 19.8158C2.08302 19.1248 2.00667 18.1856 2 15.9156L4.29153e-06 15.9215ZM21.9983 15.9156C21.9916 18.1856 21.9153 19.1248 21.5632 19.8158L23.3452 20.7238C23.9567 19.5236 23.992 18.0548 23.9983 15.9215L21.9983 15.9156ZM23.998 7.99631C23.9906 5.90979 23.9499 4.46283 23.3452 3.27592L21.5632 4.1839C21.9101 4.86483 21.9902 5.7898 21.998 8.00342L23.998 7.99631ZM8.00271 21.9988C5.78908 21.9909 4.86412 21.9108 4.18319 21.5639L3.27521 23.3459C4.46212 23.9507 5.90908 23.9913 7.99559 23.9987L8.00271 21.9988ZM16.0028 23.9987C18.0893 23.9913 19.5362 23.9507 20.7231 23.3459L19.8151 21.5639C19.1342 21.9108 18.2093 21.9909 15.9957 21.9988L16.0028 23.9987ZM2.00026 8.00342C2.00814 5.78979 2.08817 4.86483 2.43513 4.1839L0.653113 3.27592C0.0483536 4.46283 0.00769687 5.90979 0.000269949 7.99631L2.00026 8.00342ZM13.999 14.5C13.999 14.2239 14.2229 14 14.499 14V16C15.3275 16 15.999 15.3284 15.999 14.5H13.999ZM14.499 14C14.7752 14 14.999 14.2239 14.999 14.5H12.999C12.999 15.3284 13.6706 16 14.499 16V14ZM14.999 14.5C14.999 14.7761 14.7752 15 14.499 15V13C13.6706 13 12.999 13.6716 12.999 14.5H14.999ZM14.499 15C14.2229 15 13.999 14.7761 13.999 14.5H15.999C15.999 13.6716 15.3275 13 14.499 13V15ZM14.3114 15.3125H14.6864V13.3125H14.3114V15.3125ZM14.3114 15.6875H14.6864V13.6875H14.3114V15.6875ZM13.999 18.5C13.999 18.2239 14.2229 18 14.499 18V20C15.3275 20 15.999 19.3284 15.999 18.5H13.999ZM14.499 18C14.7752 18 14.999 18.2239 14.999 18.5H12.999C12.999 19.3284 13.6706 20 14.499 20V18ZM14.999 18.5C14.999 18.7761 14.7752 19 14.499 19V17C13.6706 17 12.999 17.6716 12.999 18.5H14.999ZM14.499 19C14.2229 19 13.999 18.7761 13.999 18.5H15.999C15.999 17.6716 15.3275 17 14.499 17V19ZM14.3114 19.3125H14.6864V17.3125H14.3114V19.3125ZM14.3114 19.6875H14.6864V17.6875H14.3114V19.6875ZM17.999 14.5C17.999 14.2239 18.2229 14 18.499 14V16C19.3274 16 19.999 15.3284 19.999 14.5H17.999ZM18.499 14C18.7752 14 18.999 14.2239 18.999 14.5H16.999C16.999 15.3284 17.6706 16 18.499 16V14ZM18.999 14.5C18.999 14.7761 18.7752 15 18.499 15V13C17.6706 13 16.999 13.6716 16.999 14.5H18.999ZM18.499 15C18.2229 15 17.999 14.7761 17.999 14.5H19.999C19.999 13.6716 19.3274 13 18.499 13V15ZM18.3114 15.3125H18.6864V13.3125H18.3114V15.3125ZM18.3114 15.6875H18.6864V13.6875H18.3114V15.6875ZM17.999 18.5C17.999 18.2239 18.2229 18 18.499 18V20C19.3274 20 19.999 19.3284 19.999 18.5H17.999ZM18.499 18C18.7752 18 18.999 18.2239 18.999 18.5H16.999C16.999 19.3284 17.6706 20 18.499 20V18ZM18.999 18.5C18.999 18.7761 18.7752 19 18.499 19V17C17.6706 17 16.999 17.6716 16.999 18.5H18.999ZM18.499 19C18.2229 19 17.999 18.7761 17.999 18.5H19.999C19.999 17.6716 19.3274 17 18.499 17V19ZM18.3114 19.3125H18.6864V17.3125H18.3114V19.3125ZM18.3114 19.6875H18.6864V17.6875H18.3114V19.6875Z" fill="black"/>
</svg>
