<svg width="24" height="24" viewBox="0 0 24 24" fill="none" xmlns="http://www.w3.org/2000/svg">
<path d="M10.999 6C10.999 5.44772 10.5513 5 9.99902 5C9.44674 5 8.99902 5.44772 8.99902 6H10.999ZM8.99902 14C8.99902 14.5523 9.44674 15 9.99902 15C10.5513 15 10.999 14.5523 10.999 14H8.99902ZM8.99902 18C8.99902 18.5523 9.44674 19 9.99902 19C10.5513 19 10.999 18.5523 10.999 18H8.99902ZM10.999 17C10.999 16.4477 10.5513 16 9.99902 16C9.44674 16 8.99902 16.4477 8.99902 17H10.999ZM12.999 18C12.999 18.5523 13.4467 19 13.999 19C14.5513 19 14.999 18.5523 14.999 18H12.999ZM14.999 17C14.999 16.4477 14.5513 16 13.999 16C13.4467 16 12.999 16.4477 12.999 17H14.999ZM14.999 6C14.999 5.44772 14.5513 5 13.999 5C13.4467 5 12.999 5.44772 12.999 6H14.999ZM12.999 14C12.999 14.5523 13.4467 15 13.999 15C14.5513 15 14.999 14.5523 14.999 14H12.999ZM18.999 6C18.999 5.44772 18.5513 5 17.999 5C17.4467 5 16.999 5.44772 16.999 6H18.999ZM16.999 18C16.999 18.5523 17.4467 19 17.999 19C18.5513 19 18.999 18.5523 18.999 18H16.999ZM6.99902 6C6.99902 5.44772 6.55131 5 5.99902 5C5.44674 5 4.99902 5.44772 4.99902 6H6.99902ZM4.99902 18C4.99902 18.5523 5.44674 19 5.99902 19C6.55131 19 6.99902 18.5523 6.99902 18H4.99902ZM3.7292 22.4549L3.27521 23.3459L3.7292 22.4549ZM1.54412 20.2698L2.43513 19.8158H2.43513L1.54412 20.2698ZM22.4542 20.2698L21.5632 19.8158V19.8158L22.4542 20.2698ZM20.2691 22.4549L19.8151 21.5639L20.2691 22.4549ZM20.2691 1.54483L19.8151 2.43584L20.2691 1.54483ZM22.4542 3.72991L23.3452 3.27592L22.4542 3.72991ZM3.7292 1.54483L4.18319 2.43584V2.43584L3.7292 1.54483ZM1.54412 3.72991L2.43513 4.1839L1.54412 3.72991ZM8.00271 2.00097C8.55499 1.999 9.00111 1.5497 8.99915 0.997417C8.99718 0.445136 8.54787 -0.000982881 7.99559 0.000982881L8.00271 2.00097ZM16.0027 0.000982881C15.4504 -0.000982881 15.0011 0.445136 14.9992 0.997417C14.9972 1.5497 15.4433 1.999 15.9956 2.00097L16.0027 0.000982881ZM2 15.9156C1.99837 15.3633 1.54934 14.9169 0.997062 14.9186C0.444779 14.9202 -0.0016185 15.3692 4.29153e-06 15.9215L2 15.9156ZM23.9983 15.9215C23.9999 15.3692 23.5535 14.9202 23.0012 14.9186C22.449 14.9169 21.9999 15.3633 21.9983 15.9156L23.9983 15.9215ZM21.998 8.00342C22 8.55571 22.4493 9.00182 23.0016 8.99986C23.5539 8.99789 24 8.54859 23.998 7.99631L21.998 8.00342ZM7.99559 23.9987C8.54787 24.0007 8.99718 23.5546 8.99915 23.0023C9.00111 22.45 8.55499 22.0007 8.00271 21.9988L7.99559 23.9987ZM15.9957 21.9988C15.4434 22.0007 14.9973 22.45 14.9993 23.0023C15.0013 23.5546 15.4506 24.0007 16.0028 23.9987L15.9957 21.9988ZM0.000269949 7.99631C-0.00169587 8.54859 0.444423 8.99789 0.996704 8.99986C1.54899 9.00182 1.99829 8.55571 2.00026 8.00342L0.000269949 7.99631ZM8.99902 6V14H10.999V6H8.99902ZM10.999 18V17H8.99902V18H10.999ZM14.999 18V17H12.999V18H14.999ZM12.999 6V14H14.999V6H12.999ZM16.999 6V18H18.999V6H16.999ZM4.99902 6V18H6.99902V6H4.99902ZM4.18319 21.5639C3.43054 21.1804 2.81862 20.5685 2.43513 19.8158L0.653113 20.7238C1.22835 21.8528 2.14624 22.7707 3.27521 23.3459L4.18319 21.5639ZM21.5632 19.8158C21.1797 20.5685 20.5678 21.1804 19.8151 21.5639L20.7231 23.3459C21.8521 22.7707 22.77 21.8528 23.3452 20.7238L21.5632 19.8158ZM19.8151 2.43584C20.5678 2.81933 21.1797 3.43125 21.5632 4.1839L23.3452 3.27592C22.77 2.14695 21.8521 1.22907 20.7231 0.653826L19.8151 2.43584ZM3.27521 0.653826C2.14624 1.22907 1.22835 2.14695 0.653113 3.27592L2.43513 4.1839C2.81862 3.43125 3.43054 2.81933 4.18319 2.43584L3.27521 0.653826ZM7.99559 0.000982881C5.90908 0.0084098 4.46212 0.0490665 3.27521 0.653826L4.18319 2.43584C4.86412 2.08889 5.78908 2.00885 8.00271 2.00097L7.99559 0.000982881ZM15.9956 2.00097C18.2092 2.00885 19.1342 2.08889 19.8151 2.43584L20.7231 0.653826C19.5362 0.0490666 18.0892 0.0084098 16.0027 0.000982881L15.9956 2.00097ZM4.29153e-06 15.9215C0.00627285 18.0548 0.0415801 19.5236 0.653113 20.7238L2.43513 19.8158C2.08302 19.1248 2.00667 18.1856 2 15.9156L4.29153e-06 15.9215ZM21.9983 15.9156C21.9916 18.1856 21.9153 19.1248 21.5632 19.8158L23.3452 20.7238C23.9567 19.5236 23.992 18.0548 23.9983 15.9215L21.9983 15.9156ZM23.998 7.99631C23.9906 5.90979 23.9499 4.46283 23.3452 3.27592L21.5632 4.1839C21.9101 4.86483 21.9902 5.7898 21.998 8.00342L23.998 7.99631ZM8.00271 21.9988C5.78908 21.9909 4.86412 21.9108 4.18319 21.5639L3.27521 23.3459C4.46212 23.9507 5.90908 23.9913 7.99559 23.9987L8.00271 21.9988ZM16.0028 23.9987C18.0893 23.9913 19.5362 23.9507 20.7231 23.3459L19.8151 21.5639C19.1342 21.9108 18.2093 21.9909 15.9957 21.9988L16.0028 23.9987ZM2.00026 8.00342C2.00814 5.78979 2.08817 4.86483 2.43513 4.1839L0.653113 3.27592C0.0483536 4.46283 0.00769687 5.90979 0.000269949 7.99631L2.00026 8.00342Z" fill="black"/>
</svg>
