<svg viewBox="0 0 24 24" fill="none" xmlns="http://www.w3.org/2000/svg">
<path d="M15.0006 7H17.1383C18.1876 7 19.0585 7.81089 19.1333 8.8575L19.8476 18.8575C19.9302 20.0152 19.0133 21 17.8526 21H6.14854C4.98786 21 4.07093 20.0152 4.15362 18.8575L4.86791 8.85751C4.94267 7.81089 5.81355 7 6.86283 7H9.00059M15.0006 7H9.00059M15.0006 7V5C15.0006 3.34315 13.6574 2 12.0006 2C10.3437 2 9.00059 3.34315 9.00059 5V7M15.0005 12L11.1407 15.8893C10.9942 16.0369 10.7568 16.0369 10.6103 15.8893L9.00049 14.2672" stroke="black" stroke-width="2" stroke-linecap="round"/>
</svg>
