<svg width="24" height="24" viewBox="0 0 24 24" fill="none" xmlns="http://www.w3.org/2000/svg">
<path d="M6.68261 10.8248L7.66061 10.6161L7.66061 10.6161L6.68261 10.8248ZM7.78563 15.9951L6.80764 16.2038L7.78563 15.9951ZM16.2144 15.9951L17.1924 16.2038V16.2038L16.2144 15.9951ZM17.3174 10.8248L18.2954 11.0334L18.2954 11.0334L17.3174 10.8248ZM6 9.75C5.44772 9.75 5 10.1977 5 10.75C5 11.3023 5.44772 11.75 6 11.75V9.75ZM18 11.75C18.5523 11.75 19 11.3023 19 10.75C19 10.1977 18.5523 9.75 18 9.75V11.75ZM9.54902 7.47059C9.80892 6.98328 9.62457 6.37755 9.13726 6.11765C8.64995 5.85775 8.04421 6.0421 7.78431 6.52941L9.54902 7.47059ZM16.2157 6.52941C15.9558 6.0421 15.3501 5.85775 14.8627 6.11765C14.3754 6.37755 14.1911 6.98328 14.451 7.47059L16.2157 6.52941ZM3.73005 22.455L4.18404 21.564H4.18404L3.73005 22.455ZM1.54497 20.27L2.43597 19.816H2.43597L1.54497 20.27ZM22.455 20.27L21.564 19.816V19.816L22.455 20.27ZM20.27 22.455L19.816 21.564H19.816L20.27 22.455ZM20.27 1.54497L19.816 2.43597V2.43597L20.27 1.54497ZM22.455 3.73005L21.564 4.18404V4.18404L22.455 3.73005ZM3.73005 1.54497L4.18404 2.43597L3.73005 1.54497ZM1.54497 3.73005L2.43597 4.18404L1.54497 3.73005ZM5.70462 11.0334L6.80764 16.2038L8.76362 15.7865L7.66061 10.6161L5.70462 11.0334ZM9.09307 18H14.9069V16H9.09307V18ZM17.1924 16.2038L18.2954 11.0334L16.3394 10.6161L15.2364 15.7865L17.1924 16.2038ZM17.252 9.75H6.74799V11.75H17.252V9.75ZM18.2954 11.0334C18.453 10.2945 17.8481 9.75 17.252 9.75V11.75C16.74 11.75 16.1983 11.2777 16.3394 10.6161L18.2954 11.0334ZM14.9069 18C15.9708 18 16.9604 17.2909 17.1924 16.2038L15.2364 15.7865C15.219 15.868 15.1142 16 14.9069 16V18ZM6.80764 16.2038C7.03955 17.2909 8.0292 18 9.09307 18V16C8.88579 16 8.781 15.868 8.76362 15.7865L6.80764 16.2038ZM7.66061 10.6161C7.80174 11.2777 7.25995 11.75 6.74799 11.75V9.75C6.15189 9.75 5.54698 10.2945 5.70462 11.0334L7.66061 10.6161ZM6 11.75H6.66667V9.75H6V11.75ZM6.66667 11.75H6.74799V9.75H6.66667V11.75ZM17.252 11.75H17.3333V9.75H17.252V11.75ZM17.3333 11.75H18V9.75H17.3333V11.75ZM7.54902 11.2206L9.54902 7.47059L7.78431 6.52941L5.78431 10.2794L7.54902 11.2206ZM14.451 7.47059L16.451 11.2206L18.2157 10.2794L16.2157 6.52941L14.451 7.47059ZM9 2H15V0H9V2ZM22 9V15H24V9H22ZM15 22H9V24H15V22ZM2 15V9H0V15H2ZM9 22C7.58337 22 6.58104 21.9992 5.79744 21.9352C5.02552 21.8721 4.55435 21.7527 4.18404 21.564L3.27606 23.346C3.9753 23.7023 4.73898 23.8554 5.63458 23.9286C6.51851 24.0008 7.61637 24 9 24V22ZM0 15C0 16.3836 -0.000777721 17.4815 0.071442 18.3654C0.144616 19.261 0.297677 20.0247 0.653961 20.7239L2.43597 19.816C2.24729 19.4457 2.12787 18.9745 2.0648 18.2026C2.00078 17.419 2 16.4166 2 15H0ZM4.18404 21.564C3.43139 21.1805 2.81947 20.5686 2.43597 19.816L0.653961 20.7239C1.2292 21.8529 2.14708 22.7708 3.27606 23.346L4.18404 21.564ZM22 15C22 16.4166 21.9992 17.419 21.9352 18.2026C21.8721 18.9745 21.7527 19.4457 21.564 19.816L23.346 20.7239C23.7023 20.0247 23.8554 19.261 23.9286 18.3654C24.0008 17.4815 24 16.3836 24 15H22ZM15 24C16.3836 24 17.4815 24.0008 18.3654 23.9286C19.261 23.8554 20.0247 23.7023 20.7239 23.346L19.816 21.564C19.4457 21.7527 18.9745 21.8721 18.2026 21.9352C17.419 21.9992 16.4166 22 15 22V24ZM21.564 19.816C21.1805 20.5686 20.5686 21.1805 19.816 21.564L20.7239 23.346C21.8529 22.7708 22.7708 21.8529 23.346 20.7239L21.564 19.816ZM15 2C16.4166 2 17.419 2.00078 18.2026 2.0648C18.9745 2.12787 19.4457 2.24729 19.816 2.43597L20.7239 0.653961C20.0247 0.297677 19.261 0.144616 18.3654 0.071442C17.4815 -0.000777721 16.3836 0 15 0V2ZM24 9C24 7.61637 24.0008 6.51851 23.9286 5.63458C23.8554 4.73898 23.7023 3.9753 23.346 3.27606L21.564 4.18404C21.7527 4.55435 21.8721 5.02552 21.9352 5.79744C21.9992 6.58104 22 7.58337 22 9H24ZM19.816 2.43597C20.5686 2.81947 21.1805 3.43139 21.564 4.18404L23.346 3.27606C22.7708 2.14708 21.8529 1.2292 20.7239 0.653961L19.816 2.43597ZM9 0C7.61637 0 6.51851 -0.000777721 5.63458 0.071442C4.73898 0.144616 3.9753 0.297677 3.27606 0.653961L4.18404 2.43597C4.55435 2.24729 5.02552 2.12787 5.79744 2.0648C6.58104 2.00078 7.58337 2 9 2V0ZM2 9C2 7.58337 2.00078 6.58104 2.0648 5.79744C2.12787 5.02552 2.24729 4.55435 2.43597 4.18404L0.653961 3.27606C0.297677 3.9753 0.144616 4.73898 0.071442 5.63458C-0.000777721 6.51851 0 7.61637 0 9H2ZM3.27606 0.653961C2.14708 1.2292 1.2292 2.14708 0.653961 3.27606L2.43597 4.18404C2.81947 3.43139 3.43139 2.81947 4.18404 2.43597L3.27606 0.653961Z" fill="black"/>
</svg>
