<svg viewBox="0 0 24 24" fill="none" xmlns="http://www.w3.org/2000/svg">
<path d="M11 0C10.4477 0 10 0.447715 10 1C10 1.55228 10.4477 2 11 2V0ZM13 2C13.5523 2 14 1.55228 14 1C14 0.447715 13.5523 0 13 0V2ZM24 11C24 10.4477 23.5523 10 23 10C22.4477 10 22 10.4477 22 11H24ZM22 13C22 13.5523 22.4477 14 23 14C23.5523 14 24 13.5523 24 13H22ZM11 22C10.4477 22 10 22.4477 10 23C10 23.5523 10.4477 24 11 24V22ZM13 24C13.5523 24 14 23.5523 14 23C14 22.4477 13.5523 22 13 22V24ZM2 11C2 10.4477 1.55228 10 1 10C0.447715 10 1.19209e-07 10.4477 5.96046e-08 11H2ZM0 13C0 13.5523 0.447715 14 1 14C1.55228 14 2 13.5523 2 13H0ZM3.72993 22.455L4.18392 21.564H4.18392L3.72993 22.455ZM1.54485 20.27L2.43586 19.816H2.43586L1.54485 20.27ZM22.4549 20.27L21.5639 19.816V19.816L22.4549 20.27ZM20.2698 22.455L19.8158 21.564H19.8158L20.2698 22.455ZM20.2698 1.54497L19.8158 2.43597V2.43597L20.2698 1.54497ZM22.4549 3.73005L21.5639 4.18404V4.18404L22.4549 3.73005ZM3.72993 1.54497L4.18392 2.43597L3.72993 1.54497ZM1.54485 3.73005L2.43586 4.18404L1.54485 3.73005ZM7.01914 2.01086C7.57132 2.00029 8.01039 1.54409 7.99982 0.991907C7.98925 0.439723 7.53305 0.000658691 6.98086 0.0112289L7.01914 2.01086ZM0.011115 6.98087C0.000543475 7.53306 0.439607 7.98926 0.99179 7.99983C1.54397 8.0104 2.00018 7.57134 2.01075 7.01916L0.011115 6.98087ZM2.01075 16.9808C2.00018 16.4287 1.54397 15.9896 0.99179 16.0002C0.439607 16.0107 0.000543475 16.4669 0.011115 17.0191L2.01075 16.9808ZM6.98086 23.9888C7.53304 23.9993 7.98925 23.5603 7.99982 23.0081C8.01039 22.4559 7.57132 21.9997 7.01914 21.9891L6.98086 23.9888ZM16.9806 21.9891C16.4285 21.9997 15.9894 22.4559 16 23.0081C16.0105 23.5603 16.4667 23.9993 17.0189 23.9888L16.9806 21.9891ZM23.9887 17.0191C23.9992 16.4669 23.5602 16.0107 23.008 16.0002C22.4558 15.9896 21.9996 16.4287 21.989 16.9808L23.9887 17.0191ZM21.989 7.01916C21.9996 7.57134 22.4558 8.0104 23.008 7.99983C23.5602 7.98926 23.9992 7.53306 23.9887 6.98087L21.989 7.01916ZM17.0189 0.0112289C16.4667 0.000658453 16.0105 0.439723 16 0.991906C15.9894 1.54409 16.4285 2.00029 16.9806 2.01086L17.0189 0.0112289ZM11.3816 7.36223L10.6745 6.65513V6.65513L11.3816 7.36223ZM7.36223 11.3816L8.06934 12.0887L7.36223 11.3816ZM7.36223 13.1306L8.06934 12.4235H8.06934L7.36223 13.1306ZM10.8694 16.6378L10.1623 17.3449L10.8694 16.6378ZM12.6184 16.6378L13.3255 17.3449L12.6184 16.6378ZM16.6378 12.6184L17.3449 13.3255L16.6378 12.6184ZM11 2H13V0H11V2ZM22 11V13H24V11H22ZM11 24H13V22H11V24ZM5.96046e-08 11L0 13H2L2 11H5.96046e-08ZM4.18392 21.564C3.43127 21.1805 2.81935 20.5686 2.43586 19.816L0.653845 20.7239C1.22909 21.8529 2.14697 22.7708 3.27594 23.346L4.18392 21.564ZM21.5639 19.816C21.1804 20.5686 20.5685 21.1805 19.8158 21.564L20.7238 23.346C21.8528 22.7708 22.7707 21.8529 23.3459 20.7239L21.5639 19.816ZM19.8158 2.43597C20.5685 2.81947 21.1804 3.43139 21.5639 4.18404L23.3459 3.27606C22.7707 2.14709 21.8528 1.2292 20.7238 0.653961L19.8158 2.43597ZM3.27594 0.653961C2.14697 1.2292 1.22909 2.14708 0.653846 3.27606L2.43586 4.18404C2.81935 3.43139 3.43127 2.81947 4.18392 2.43597L3.27594 0.653961ZM6.98086 0.0112289C5.44552 0.0406191 4.27998 0.142377 3.27594 0.653961L4.18392 2.43597C4.73577 2.15479 5.47591 2.0404 7.01914 2.01086L6.98086 0.0112289ZM2.01075 7.01916C2.04029 5.47599 2.15468 4.73588 2.43586 4.18404L0.653846 3.27606C0.142271 4.28008 0.0405082 5.44558 0.011115 6.98087L2.01075 7.01916ZM0.011115 17.0191C0.0405082 18.5544 0.142271 19.7199 0.653846 20.7239L2.43586 19.816C2.15468 19.2641 2.04029 18.524 2.01075 16.9808L0.011115 17.0191ZM7.01914 21.9891C5.47591 21.9596 4.73577 21.8452 4.18392 21.564L3.27594 23.346C4.27998 23.8576 5.44552 23.9594 6.98086 23.9888L7.01914 21.9891ZM17.0189 23.9888C18.5543 23.9594 19.7198 23.8576 20.7238 23.346L19.8158 21.564C19.264 21.8452 18.5239 21.9596 16.9806 21.9891L17.0189 23.9888ZM21.989 16.9808C21.9595 18.524 21.8451 19.2641 21.5639 19.816L23.3459 20.7239C23.8575 19.7199 23.9593 18.5544 23.9887 17.0191L21.989 16.9808ZM23.9887 6.98087C23.9593 5.44558 23.8575 4.28008 23.3459 3.27606L21.5639 4.18404C21.8451 4.73588 21.9595 5.47599 21.989 7.01916L23.9887 6.98087ZM16.9806 2.01086C18.5239 2.0404 19.264 2.15479 19.8158 2.43597L20.7238 0.653961C19.7198 0.142378 18.5543 0.0406197 17.0189 0.0112289L16.9806 2.01086ZM15.7633 6H12.2561V8H15.7633V6ZM10.6745 6.65513L6.65513 10.6745L8.06934 12.0887L12.0887 8.06934L10.6745 6.65513ZM6.65513 13.8377L10.1623 17.3449L11.5765 15.9307L8.06934 12.4235L6.65513 13.8377ZM13.3255 17.3449L17.3449 13.3255L15.9307 11.9113L11.9113 15.9307L13.3255 17.3449ZM18 11.7439V8.23674H16V11.7439H18ZM17.3449 13.3255C17.7643 12.906 18 12.3371 18 11.7439H16C16 11.8066 15.9751 11.8669 15.9307 11.9113L17.3449 13.3255ZM10.1623 17.3449C11.0358 18.2184 12.452 18.2184 13.3255 17.3449L11.9113 15.9307C11.8188 16.0231 11.6689 16.0231 11.5765 15.9307L10.1623 17.3449ZM6.65513 10.6745C5.78162 11.548 5.78162 12.9642 6.65513 13.8377L8.06934 12.4235C7.97689 12.3311 7.97689 12.1812 8.06934 12.0887L6.65513 10.6745ZM12.2561 6C11.6629 6 11.094 6.23566 10.6745 6.65513L12.0887 8.06934C12.1331 8.02494 12.1934 8 12.2561 8V6ZM15.7633 8C15.894 8 16 8.10599 16 8.23674H18C18 7.00142 16.9986 6 15.7633 6V8Z" fill="black"/>
</svg>
