<svg viewBox="0 0 24 24" fill="none" xmlns="http://www.w3.org/2000/svg">
  <path d="M19 15.0324C19 16.1191 18.1046 17 17 17C15.8954 17 15 16.1191 15 15.0324C15 14.0925 16.4962 12.4654 16.9004 12.043C16.9552 11.9857 17.0448 11.9857 17.0996 12.043C17.5038 12.4654 19 14.0925 19 15.0324Z" stroke="currentColor" stroke-width="2"/>
  <path d="M8.31238 8.31247H8.68738M8.31238 8.68747H8.68738M9 8.5C9 8.77614 8.77614 9 8.5 9C8.22386 9 8 8.77614 8 8.5C8 8.22386 8.22386 8 8.5 8C8.77614 8 9 8.22386 9 8.5Z" stroke="currentColor" stroke-width="2" stroke-linecap="round"/>
  <path d="M15.3124 8.31247H15.6874M15.3124 8.68747H15.6874M16 8.5C16 8.77614 15.7761 9 15.5 9C15.2239 9 15 8.77614 15 8.5C15 8.22386 15.2239 8 15.5 8C15.7761 8 16 8.22386 16 8.5Z" stroke="currentColor" stroke-width="2" stroke-linecap="round"/>
  <path d="M7 18C7.41667 17 9 15 12 15" stroke="currentColor" stroke-width="2" stroke-linecap="round"/>
  <path d="M12 23C18.0751 23 23 18.0751 23 12C23 5.92487 18.0751 1 12 1C5.92487 1 1 5.92487 1 12C1 18.0751 5.92487 23 12 23Z" stroke="currentColor" stroke-width="2" stroke-linecap="round"/>
</svg>
