<svg width="24" height="24" viewBox="0 0 24 24" fill="none" xmlns="http://www.w3.org/2000/svg">
<path d="M14 6H19M14 10H19M4 15H19M4 19H19M7 11C6.06812 11 5.60218 11 5.23463 10.8478C4.74458 10.6448 4.35523 10.2554 4.15224 9.76537C4 9.39782 4 8.93188 4 8C4 7.06812 4 6.60218 4.15224 6.23463C4.35523 5.74458 4.74458 5.35523 5.23463 5.15224C5.60218 5 6.06812 5 7 5C7.93188 5 8.39782 5 8.76537 5.15224C9.25542 5.35523 9.64477 5.74458 9.84776 6.23463C10 6.60218 10 7.06812 10 8C10 8.93188 10 9.39782 9.84776 9.76537C9.64477 10.2554 9.25542 10.6448 8.76537 10.8478C8.39782 11 7.93188 11 7 11Z" stroke="black" stroke-width="2" stroke-linecap="round"/>
</svg>
