<svg width="24" height="24" viewBox="0 0 24 24" fill="none" xmlns="http://www.w3.org/2000/svg">
<path d="M4 3C4 2.44772 3.55228 2 3 2C2.44772 2 2 2.44772 2 3H4ZM22 3C22 2.44772 21.5523 2 21 2C20.4477 2 20 2.44772 20 3H22ZM19.908 7.78201L20.362 8.67302L19.908 7.78201ZM20.782 6.90798L21.673 7.36197L21.673 7.36197L20.782 6.90798ZM3.21799 6.90798L4.10899 6.45399L4.10899 6.45399L3.21799 6.90798ZM4.09202 7.78201L4.54601 6.89101H4.54601L4.09202 7.78201ZM2 21C2 21.5523 2.44772 22 3 22C3.55228 22 4 21.5523 4 21H2ZM20 21C20 21.5523 20.4477 22 21 22C21.5523 22 22 21.5523 22 21H20ZM19.908 16.218L20.362 15.327L19.908 16.218ZM20.782 17.092L21.673 16.638L21.673 16.638L20.782 17.092ZM3.21799 17.092L4.10899 17.546H4.10899L3.21799 17.092ZM4.09202 16.218L4.54601 17.109H4.54601L4.09202 16.218ZM3 11C2.44772 11 2 11.4477 2 12C2 12.5523 2.44772 13 3 13V11ZM21 13C21.5523 13 22 12.5523 22 12C22 11.4477 21.5523 11 21 11V13ZM2 3V4.8H4V3H2ZM6.2 9H17.8V7H6.2V9ZM22 4.8V3H20V4.8H22ZM17.8 9C18.3436 9 18.8114 9.00078 19.195 8.96943C19.5904 8.93713 19.9836 8.86581 20.362 8.67302L19.454 6.89101C19.4045 6.9162 19.3038 6.95388 19.0322 6.97607C18.7488 6.99922 18.3766 7 17.8 7V9ZM20 4.8C20 5.37655 19.9992 5.74883 19.9761 6.03216C19.9539 6.30383 19.9162 6.40455 19.891 6.45399L21.673 7.36197C21.8658 6.98359 21.9371 6.59037 21.9694 6.19503C22.0008 5.81136 22 5.34355 22 4.8H20ZM20.362 8.67302C20.9265 8.3854 21.3854 7.92646 21.673 7.36197L19.891 6.45399C19.7951 6.64215 19.6422 6.79513 19.454 6.89101L20.362 8.67302ZM2 4.8C2 5.34355 1.99922 5.81136 2.03057 6.19503C2.06287 6.59037 2.13419 6.98359 2.32698 7.36197L4.10899 6.45399C4.0838 6.40455 4.04612 6.30383 4.02393 6.03216C4.00078 5.74883 4 5.37655 4 4.8H2ZM6.2 7C5.62345 7 5.25117 6.99922 4.96784 6.97607C4.69617 6.95388 4.59545 6.9162 4.54601 6.89101L3.63803 8.67302C4.01641 8.86581 4.40963 8.93713 4.80497 8.96943C5.18864 9.00078 5.65645 9 6.2 9V7ZM2.32698 7.36197C2.6146 7.92646 3.07354 8.3854 3.63803 8.67302L4.54601 6.89101C4.35785 6.79513 4.20487 6.64215 4.10899 6.45399L2.32698 7.36197ZM4 21V19.2H2V21H4ZM6.2 17H17.8V15H6.2V17ZM20 19.2V21H22V19.2H20ZM17.8 17C18.3766 17 18.7488 17.0008 19.0322 17.0239C19.3038 17.0461 19.4045 17.0838 19.454 17.109L20.362 15.327C19.9836 15.1342 19.5904 15.0629 19.195 15.0306C18.8114 14.9992 18.3436 15 17.8 15V17ZM22 19.2C22 18.6564 22.0008 18.1886 21.9694 17.805C21.9371 17.4096 21.8658 17.0164 21.673 16.638L19.891 17.546C19.9162 17.5955 19.9539 17.6962 19.9761 17.9678C19.9992 18.2512 20 18.6234 20 19.2H22ZM19.454 17.109C19.6422 17.2049 19.7951 17.3578 19.891 17.546L21.673 16.638C21.3854 16.0735 20.9265 15.6146 20.362 15.327L19.454 17.109ZM4 19.2C4 18.6234 4.00078 18.2512 4.02393 17.9678C4.04612 17.6962 4.0838 17.5955 4.10899 17.546L2.32698 16.638C2.13419 17.0164 2.06287 17.4096 2.03057 17.805C1.99922 18.1886 2 18.6564 2 19.2H4ZM6.2 15C5.65645 15 5.18864 14.9992 4.80497 15.0306C4.40963 15.0629 4.01641 15.1342 3.63803 15.327L4.54601 17.109C4.59545 17.0838 4.69617 17.0461 4.96784 17.0239C5.25117 17.0008 5.62345 17 6.2 17V15ZM4.10899 17.546C4.20487 17.3578 4.35785 17.2049 4.54601 17.109L3.63803 15.327C3.07354 15.6146 2.6146 16.0735 2.32698 16.638L4.10899 17.546ZM3 13H21V11H3V13Z" fill="black"/>
</svg>
