<svg width="24" height="24" viewBox="0 0 24 24" fill="none" xmlns="http://www.w3.org/2000/svg">
<path d="M5 7C5 3.68629 7.68629 1 11 1M18.7369 14.6308L18 22H9L8.29937 19.1975C8.10348 18.4139 7.69831 17.6983 7.1272 17.1272L6.02476 16.0248C5.4289 15.4289 5.33646 14.4953 5.80388 13.7942C6.42268 12.866 7.73595 12.7359 8.52476 13.5248L9 14V7.04233C9 5.94179 9.88915 5.04804 10.9897 5.04236C12.0983 5.03664 13 5.93373 13 7.04233V10.6226L16.4231 11.4084C17.8958 11.7465 18.8873 13.1273 18.7369 14.6308Z" stroke="black" stroke-width="2" stroke-linecap="round"/>
</svg>
