<svg viewBox="0 0 24 24" fill="none" xmlns="http://www.w3.org/2000/svg">
<path d="M22 14C22 12.8954 21.1046 12 20 12C18.8954 12 18 12.8954 18 14V18C18 19.1046 18.8954 20 20 20C21.1046 20 22 19.1046 22 18V14Z" stroke="currentColor" stroke-width="2"/>
<path d="M14 10C14 8.89543 13.1046 8 12 8C10.8954 8 10 8.89543 10 10V18C10 19.1046 10.8954 20 12 20C13.1046 20 14 19.1046 14 18V10Z" stroke="currentColor" stroke-width="2"/>
<path d="M6 6C6 4.89543 5.10457 4 4 4C2.89543 4 2 4.89543 2 6V18C2 19.1046 2.89543 20 4 20C5.10457 20 6 19.1046 6 18V6Z" stroke="currentColor" stroke-width="2"/>
</svg>
