<svg viewBox="0 0 24 24" fill="none" xmlns="http://www.w3.org/2000/svg">
<path d="M7.39726 14L5 10M13.4384 10L10.5616 14M19 14L16.6027 10M7 7C7 8.65685 5.65685 10 4 10C2.34315 10 1 8.65685 1 7C1 5.34315 2.34315 4 4 4C5.65685 4 7 5.34315 7 7ZM12 17C12 18.6569 10.6569 20 9 20C7.34315 20 6 18.6569 6 17C6 15.3431 7.34315 14 9 14C10.6569 14 12 15.3431 12 17ZM18 7C18 8.65685 16.6569 10 15 10C13.3431 10 12 8.65685 12 7C12 5.34315 13.3431 4 15 4C16.6569 4 18 5.34315 18 7ZM23 17C23 18.6569 21.6569 20 20 20C18.3431 20 17 18.6569 17 17C17 15.3431 18.3431 14 20 14C21.6569 14 23 15.3431 23 17Z" stroke="currentColor" stroke-width="2" stroke-linecap="round"/>
</svg>
