<svg viewBox="0 0 24 24" fill="none" xmlns="http://www.w3.org/2000/svg">
<path d="M3.73005 22.455L4.18404 21.564H4.18404L3.73005 22.455ZM1.54497 20.27L2.43597 19.816H2.43597L1.54497 20.27ZM22.455 20.27L21.564 19.816V19.816L22.455 20.27ZM20.27 22.455L19.816 21.564H19.816L20.27 22.455ZM20.27 1.54497L19.816 2.43597V2.43597L20.27 1.54497ZM22.455 3.73005L21.564 4.18404V4.18404L22.455 3.73005ZM3.73005 1.54497L4.18404 2.43597L3.73005 1.54497ZM1.54497 3.73005L2.43597 4.18404L1.54497 3.73005ZM12.4999 6.02052L12.4177 7.01714H12.4177L12.4999 6.02052ZM17.9795 11.5002L18.9761 11.418L17.9795 11.5002ZM12 6.5H11H12ZM12 11.5H13H12ZM12.5 12V11V12ZM17.5 12V13V12ZM8.60019 9.79949C9.04174 9.46775 9.13075 8.84087 8.79901 8.39933C8.46726 7.95778 7.84039 7.86876 7.39884 8.20051L8.60019 9.79949ZM15.7995 16.6012C16.1312 16.1596 16.0422 15.5327 15.6007 15.201C15.1591 14.8693 14.5322 14.9583 14.2005 15.3998L15.7995 16.6012ZM9 2H15V0H9V2ZM22 9V15H24V9H22ZM15 22H9V24H15V22ZM2 15V9H0V15H2ZM9 22C7.58337 22 6.58104 21.9992 5.79744 21.9352C5.02552 21.8721 4.55435 21.7527 4.18404 21.564L3.27606 23.346C3.9753 23.7023 4.73898 23.8554 5.63458 23.9286C6.51851 24.0008 7.61637 24 9 24V22ZM0 15C0 16.3836 -0.000777721 17.4815 0.071442 18.3654C0.144616 19.261 0.297677 20.0247 0.653961 20.7239L2.43597 19.816C2.24729 19.4457 2.12787 18.9745 2.0648 18.2026C2.00078 17.419 2 16.4166 2 15H0ZM4.18404 21.564C3.43139 21.1805 2.81947 20.5686 2.43597 19.816L0.653961 20.7239C1.2292 21.8529 2.14708 22.7708 3.27606 23.346L4.18404 21.564ZM22 15C22 16.4166 21.9992 17.419 21.9352 18.2026C21.8721 18.9745 21.7527 19.4457 21.564 19.816L23.346 20.7239C23.7023 20.0247 23.8554 19.261 23.9286 18.3654C24.0008 17.4815 24 16.3836 24 15H22ZM15 24C16.3836 24 17.4815 24.0008 18.3654 23.9286C19.261 23.8554 20.0247 23.7023 20.7239 23.346L19.816 21.564C19.4457 21.7527 18.9745 21.8721 18.2026 21.9352C17.419 21.9992 16.4166 22 15 22V24ZM21.564 19.816C21.1805 20.5686 20.5686 21.1805 19.816 21.564L20.7239 23.346C21.8529 22.7708 22.7708 21.8529 23.346 20.7239L21.564 19.816ZM15 2C16.4166 2 17.419 2.00078 18.2026 2.0648C18.9745 2.12787 19.4457 2.24729 19.816 2.43597L20.7239 0.653961C20.0247 0.297677 19.261 0.144616 18.3654 0.071442C17.4815 -0.000777721 16.3836 0 15 0V2ZM24 9C24 7.61637 24.0008 6.51851 23.9286 5.63458C23.8554 4.73898 23.7023 3.9753 23.346 3.27606L21.564 4.18404C21.7527 4.55435 21.8721 5.02552 21.9352 5.79744C21.9992 6.58104 22 7.58337 22 9H24ZM19.816 2.43597C20.5686 2.81947 21.1805 3.43139 21.564 4.18404L23.346 3.27606C22.7708 2.14708 21.8529 1.2292 20.7239 0.653961L19.816 2.43597ZM9 0C7.61637 0 6.51851 -0.000777721 5.63458 0.071442C4.73898 0.144616 3.9753 0.297677 3.27606 0.653961L4.18404 2.43597C4.55435 2.24729 5.02552 2.12787 5.79744 2.0648C6.58104 2.00078 7.58337 2 9 2V0ZM2 9C2 7.58337 2.00078 6.58104 2.0648 5.79744C2.12787 5.02552 2.24729 4.55435 2.43597 4.18404L0.653961 3.27606C0.297677 3.9753 0.144616 4.73898 0.071442 5.63458C-0.000777721 6.51851 0 7.61637 0 9H2ZM3.27606 0.653961C2.14708 1.2292 1.2292 2.14708 0.653961 3.27606L2.43597 4.18404C2.81947 3.43139 3.43139 2.81947 4.18404 2.43597L3.27606 0.653961ZM12.4177 7.01714C14.8453 7.21735 16.7826 9.15473 16.9829 11.5823L18.9761 11.418C18.6955 8.01554 15.9845 5.30452 12.582 5.02391L12.4177 7.01714ZM11 6.5V11.5H13V6.5H11ZM12.5 13L17.5 13V11L12.5 11V13ZM11 11.5C11 12.3284 11.6716 13 12.5 13V11C12.7761 11 13 11.2239 13 11.5H11ZM16.9829 11.5823C16.953 11.2209 17.247 11 17.5 11V13C18.3053 13 19.0513 12.3298 18.9761 11.418L16.9829 11.5823ZM12.582 5.02391C11.6702 4.9487 11 5.6947 11 6.5H13C13 6.75301 12.7791 7.04695 12.4177 7.01714L12.582 5.02391ZM11 17C8.79086 17 7 15.2091 7 13H5C5 16.3137 7.68629 19 11 19V17ZM7 13C7 11.6922 7.6266 10.531 8.60019 9.79949L7.39884 8.20051C5.94409 9.29349 5 11.0366 5 13H7ZM14.2005 15.3998C13.469 16.3734 12.3078 17 11 17V19C12.9634 19 14.7065 18.0559 15.7995 16.6012L14.2005 15.3998Z" fill="currentColor"/>
</svg>
