<svg viewBox="0 0 24 24" fill="none" xmlns="http://www.w3.org/2000/svg">
<path d="M5.09202 19.782L5.54601 18.891H5.54601L5.09202 19.782ZM4.21799 18.908L5.10899 18.454L5.10899 18.454L4.21799 18.908ZM18.908 19.782L18.454 18.891H18.454L18.908 19.782ZM19.782 18.908L18.891 18.454V18.454L19.782 18.908ZM18.908 6.21801L18.454 7.10902L18.454 7.10902L18.908 6.21801ZM19.782 7.09205L18.891 7.54604L19.782 7.09205ZM5.09202 6.21801L4.63803 5.32701H4.63803L5.09202 6.21801ZM4.21799 7.09205L3.32698 6.63806H3.32698L4.21799 7.09205ZM15.546 14.891L16 14L15.546 14.891ZM15.109 14.454L16 14L15.109 14.454ZM21.891 14.454L21 14L21.891 14.454ZM21.454 14.891L21 14L21.454 14.891ZM21.454 11.109L21 12L21.454 11.109ZM21.891 11.546L21 12L21.891 11.546ZM15.546 11.109L16 12L15.546 11.109ZM15.109 11.546L16 12L15.109 11.546ZM5.62861 5.07155C5.11583 5.27666 4.86641 5.85863 5.07152 6.37142C5.27664 6.8842 5.85861 7.13362 6.37139 6.9285L5.62861 5.07155ZM14.6286 2.54858L14.2572 1.62011V1.62011L14.6286 2.54858ZM15 6.00003C15 6.55231 15.4477 7.00003 16 7.00003C16.5523 7.00003 17 6.55231 17 6.00003H15ZM7.2 7.00003H16.8V5.00003H7.2V7.00003ZM16.8 19H7.2V21H16.8V19ZM5 16.8V9.20003H3V16.8H5ZM19 9.20003V11.25H21V9.20003H19ZM19 15.1875V16.8H21V15.1875H19ZM7.2 19C6.62345 19 6.25117 18.9992 5.96784 18.9761C5.69617 18.9539 5.59545 18.9162 5.54601 18.891L4.63803 20.673C5.01641 20.8658 5.40963 20.9372 5.80497 20.9695C6.18864 21.0008 6.65645 21 7.2 21V19ZM3 16.8C3 17.3436 2.99922 17.8114 3.03057 18.1951C3.06287 18.5904 3.13419 18.9836 3.32698 19.362L5.10899 18.454C5.0838 18.4046 5.04612 18.3039 5.02393 18.0322C5.00078 17.7489 5 17.3766 5 16.8H3ZM5.54601 18.891C5.35785 18.7952 5.20487 18.6422 5.10899 18.454L3.32698 19.362C3.6146 19.9265 4.07354 20.3854 4.63803 20.673L5.54601 18.891ZM16.8 21C17.3436 21 17.8114 21.0008 18.195 20.9695C18.5904 20.9372 18.9836 20.8658 19.362 20.673L18.454 18.891C18.4045 18.9162 18.3038 18.9539 18.0322 18.9761C17.7488 18.9992 17.3766 19 16.8 19V21ZM19 16.8C19 17.3766 18.9992 17.7489 18.9761 18.0322C18.9539 18.3039 18.9162 18.4046 18.891 18.454L20.673 19.362C20.8658 18.9836 20.9371 18.5904 20.9694 18.1951C21.0008 17.8114 21 17.3436 21 16.8H19ZM19.362 20.673C19.9265 20.3854 20.3854 19.9265 20.673 19.362L18.891 18.454C18.7951 18.6422 18.6422 18.7952 18.454 18.891L19.362 20.673ZM16.8 7.00003C17.3766 7.00003 17.7488 7.0008 18.0322 7.02395C18.3038 7.04615 18.4045 7.08383 18.454 7.10902L19.362 5.32701C18.9836 5.13421 18.5904 5.0629 18.195 5.0306C17.8114 4.99925 17.3436 5.00003 16.8 5.00003V7.00003ZM21 9.20003C21 8.65648 21.0008 8.18867 20.9694 7.805C20.9371 7.40965 20.8658 7.01644 20.673 6.63806L18.891 7.54604C18.9162 7.59548 18.9539 7.6962 18.9761 7.96786C18.9992 8.2512 19 8.62347 19 9.20003H21ZM18.454 7.10902C18.6422 7.20489 18.7951 7.35787 18.891 7.54604L20.673 6.63806C20.3854 6.07357 19.9265 5.61463 19.362 5.32701L18.454 7.10902ZM7.2 5.00003C6.65645 5.00003 6.18864 4.99925 5.80497 5.0306C5.40963 5.0629 5.01641 5.13421 4.63803 5.32701L5.54601 7.10902C5.59545 7.08383 5.69617 7.04615 5.96784 7.02395C6.25117 7.0008 6.62345 7.00003 7.2 7.00003V5.00003ZM5 9.20003C5 8.62347 5.00078 8.2512 5.02393 7.96786C5.04612 7.6962 5.0838 7.59548 5.10899 7.54604L3.32698 6.63806C3.13419 7.01644 3.06287 7.40965 3.03057 7.805C2.99922 8.18867 3 8.65648 3 9.20003H5ZM4.63803 5.32701C4.07354 5.61463 3.6146 6.07357 3.32698 6.63806L5.10899 7.54604C5.20487 7.35787 5.35785 7.20489 5.54601 7.10902L4.63803 5.32701ZM16.6 12H20.4V10H16.6V12ZM21 12.6V13.4H23V12.6H21ZM20.4 14H16.6V16H20.4V14ZM16 13.4V12.6H14V13.4H16ZM16.6 14C16.3035 14 16.1412 13.9993 16.0246 13.9897C15.9197 13.9812 15.9425 13.9707 16 14L15.092 15.782C15.3634 15.9203 15.6332 15.9644 15.8618 15.9831C16.0787 16.0008 16.3365 16 16.6 16V14ZM14 13.4C14 13.6636 13.9992 13.9213 14.0169 14.1383C14.0356 14.3668 14.0797 14.6366 14.218 14.908L16 14C16.0293 14.0575 16.0189 14.0803 16.0103 13.9754C16.0008 13.8588 16 13.6966 16 13.4H14ZM16 14V14L14.218 14.908C14.4097 15.2843 14.7157 15.5903 15.092 15.782L16 14ZM21 13.4C21 13.6966 20.9992 13.8588 20.9897 13.9754C20.9811 14.0803 20.9707 14.0575 21 14L22.782 14.908C22.9203 14.6366 22.9644 14.3668 22.9831 14.1383C23.0008 13.9213 23 13.6636 23 13.4H21ZM20.4 16C20.6635 16 20.9213 16.0008 21.1382 15.9831C21.3668 15.9644 21.6366 15.9203 21.908 15.782L21 14C21.0575 13.9707 21.0803 13.9812 20.9754 13.9897C20.8588 13.9993 20.6965 14 20.4 14V16ZM21 14V14L21.908 15.782C22.2843 15.5903 22.5903 15.2843 22.782 14.908L21 14ZM20.4 12C20.6965 12 20.8588 12.0008 20.9754 12.0103C21.0803 12.0189 21.0575 12.0293 21 12L21.908 10.218C21.6366 10.0797 21.3668 10.0356 21.1382 10.017C20.9213 9.99925 20.6635 10 20.4 10V12ZM23 12.6C23 12.3365 23.0008 12.0787 22.9831 11.8618C22.9644 11.6332 22.9203 11.3635 22.782 11.092L21 12C20.9707 11.9425 20.9811 11.9198 20.9897 12.0247C20.9992 12.1412 21 12.3035 21 12.6H23ZM21 12L22.782 11.092C22.5903 10.7157 22.2843 10.4098 21.908 10.218L21 12ZM16.6 10C16.3365 10 16.0787 9.99925 15.8618 10.017C15.6332 10.0356 15.3634 10.0797 15.092 10.218L16 12C15.9425 12.0293 15.9197 12.0189 16.0246 12.0103C16.1412 12.0008 16.3035 12 16.6 12V10ZM16 12.6C16 12.3035 16.0008 12.1412 16.0103 12.0247C16.0189 11.9198 16.0293 11.9425 16 12L14.218 11.092C14.0797 11.3635 14.0356 11.6332 14.0169 11.8618C13.9992 12.0787 14 12.3365 14 12.6H16ZM15.092 10.218C14.7157 10.4098 14.4097 10.7157 14.218 11.092L16 12L15.092 10.218ZM6.37139 6.9285L15 3.47706L14.2572 1.62011L5.62861 5.07155L6.37139 6.9285ZM15 3.47706V6.00003H17V3.47706H15ZM15 3.47706L15 3.47706H17C17 2.06213 15.5709 1.09462 14.2572 1.62011L15 3.47706Z" fill="currentColor"/>
</svg>
