<svg width="24" height="24" viewBox="0 0 24 24" fill="none" xmlns="http://www.w3.org/2000/svg">
<path d="M11 12C11 12.5523 11.4477 13 12 13C12.5523 13 13 12.5523 13 12H11ZM8 8C8 7.44772 7.55228 7 7 7C6.44772 7 6 7.44772 6 8H8ZM6 12C6 12.5523 6.44772 13 7 13C7.55228 13 8 12.5523 8 12H6ZM18 8C18 7.44772 17.5523 7 17 7C16.4477 7 16 7.44772 16 8H18ZM16 12C16 12.5523 16.4477 13 17 13C17.5523 13 18 12.5523 18 12H16ZM21 16V16.1538H23V16H21ZM20.1538 17H3.84615V19H20.1538V17ZM3 16.1538V16H1V16.1538H3ZM3.84615 17C3.37884 17 3 16.6212 3 16.1538H1C1 17.7257 2.27427 19 3.84615 19V17ZM21 16.1538C21 16.6212 20.6212 17 20.1538 17V19C21.7257 19 23 17.7257 23 16.1538H21ZM12 7C16.9706 7 21 11.0294 21 16H23C23 9.92487 18.0751 5 12 5V7ZM12 5C5.92487 5 1 9.92487 1 16H3C3 11.0294 7.02944 7 12 7V5ZM11 6V12H13V6H11ZM6 8V12H8V8H6ZM16 8V12H18V8H16Z" fill="black"/>
</svg>
