<svg width="24" height="24" viewBox="0 0 24 24" fill="none" xmlns="http://www.w3.org/2000/svg">
<path d="M6.18404 20.564L6.63803 19.673L6.18404 20.564ZM4.43597 18.816L5.32698 18.362L4.43597 18.816ZM19.564 18.816L18.673 18.362L19.564 18.816ZM17.816 20.564L17.362 19.673L17.816 20.564ZM19.727 10.0545L19.273 10.9455L19.727 10.0545ZM19.9455 10.273L19.0545 10.727L19.9455 10.273ZM4.273 10.0545L4.727 10.9455L4.273 10.0545ZM4.0545 10.273L4.9455 10.727L4.0545 10.273ZM4 6C3.44772 6 3 6.44772 3 7C3 7.55228 3.44772 8 4 8V6ZM20 8C20.5523 8 21 7.55228 21 7C21 6.44772 20.5523 6 20 6V8ZM20 12C19.4477 12 19 12.4477 19 13C19 13.5523 19.4477 14 20 14V12ZM22 14C22.5523 14 23 13.5523 23 13C23 12.4477 22.5523 12 22 12V14ZM2 12C1.44772 12 1 12.4477 1 13C1 13.5523 1.44772 14 2 14V12ZM4 14C4.55228 14 5 13.5523 5 13C5 12.4477 4.55228 12 4 12V14ZM4.8 11H19.2V9H4.8V11ZM19 10.8V14.6H21V10.8H19ZM13.6 20H10.4V22H13.6V20ZM5 14.6V10.8H3V14.6H5ZM10.4 20C9.26339 20 8.47108 19.9992 7.85424 19.9488C7.24907 19.8994 6.90138 19.8072 6.63803 19.673L5.73005 21.455C6.32234 21.7568 6.96253 21.8826 7.69138 21.9422C8.40855 22.0008 9.2964 22 10.4 22V20ZM3 14.6C3 15.7036 2.99922 16.5914 3.05782 17.3086C3.11737 18.0375 3.24318 18.6777 3.54497 19.27L5.32698 18.362C5.19279 18.0986 5.10062 17.7509 5.05118 17.1458C5.00078 16.5289 5 15.7366 5 14.6H3ZM6.63803 19.673C6.07354 19.3854 5.6146 18.9265 5.32698 18.362L3.54497 19.27C4.02433 20.2108 4.78924 20.9757 5.73005 21.455L6.63803 19.673ZM19 14.6C19 15.7366 18.9992 16.5289 18.9488 17.1458C18.8994 17.7509 18.8072 18.0986 18.673 18.362L20.455 19.27C20.7568 18.6777 20.8826 18.0375 20.9422 17.3086C21.0008 16.5914 21 15.7036 21 14.6H19ZM13.6 22C14.7036 22 15.5914 22.0008 16.3086 21.9422C17.0375 21.8826 17.6777 21.7568 18.27 21.455L17.362 19.673C17.0986 19.8072 16.7509 19.8994 16.1458 19.9488C15.5289 19.9992 14.7366 20 13.6 20V22ZM18.673 18.362C18.3854 18.9265 17.9265 19.3854 17.362 19.673L18.27 21.455C19.2108 20.9757 19.9757 20.2108 20.455 19.27L18.673 18.362ZM19.2 11C19.2723 11 19.325 11 19.3697 11.0007C19.4145 11.0014 19.4368 11.0027 19.447 11.0035C19.4567 11.0043 19.4405 11.0036 19.4097 10.9964C19.3757 10.9883 19.3273 10.9732 19.273 10.9455L20.181 9.16349C19.963 9.05244 19.755 9.022 19.6098 9.01013C19.4763 8.99922 19.3235 9 19.2 9V11ZM21 10.8C21 10.6765 21.0008 10.5237 20.9899 10.3902C20.978 10.245 20.9476 10.037 20.8365 9.81901L19.0545 10.727C19.0268 10.6727 19.0117 10.6243 19.0036 10.5903C18.9964 10.5595 18.9957 10.5433 18.9965 10.553C18.9973 10.5632 18.9986 10.5855 18.9993 10.6303C19 10.675 19 10.7277 19 10.8H21ZM19.273 10.9455C19.1789 10.8976 19.1024 10.8211 19.0545 10.727L20.8365 9.81901C20.6927 9.53677 20.4632 9.3073 20.181 9.16349L19.273 10.9455ZM4.8 9C4.67649 9 4.52371 8.99922 4.39017 9.01013C4.24495 9.022 4.03696 9.05244 3.81901 9.16349L4.727 10.9455C4.67267 10.9732 4.62435 10.9884 4.59032 10.9964C4.55946 11.0036 4.54326 11.0043 4.55303 11.0035C4.56319 11.0027 4.58554 11.0014 4.63028 11.0007C4.67499 11 4.72771 11 4.8 11V9ZM5 10.8C5 10.7277 5.00003 10.675 5.00073 10.6303C5.00143 10.5855 5.00266 10.5632 5.00349 10.553C5.00429 10.5433 5.00363 10.5595 4.99636 10.5903C4.98835 10.6243 4.97318 10.6727 4.9455 10.727L3.16349 9.81901C3.05244 10.037 3.022 10.245 3.01013 10.3902C2.99922 10.5237 3 10.6765 3 10.8H5ZM3.81901 9.16349C3.53677 9.3073 3.3073 9.53677 3.16349 9.81901L4.9455 10.727C4.89757 10.8211 4.82108 10.8976 4.727 10.9455L3.81901 9.16349ZM4 8H20V6H4V8ZM9 7C9 5.34315 10.3431 4 12 4V2C9.23858 2 7 4.23858 7 7H9ZM12 4C13.6569 4 15 5.34315 15 7H17C17 4.23858 14.7614 2 12 2V4ZM20 14H22V12H20V14ZM2 14H4V12H2V14Z" fill="black"/>
</svg>
