<svg viewBox="0 0 24 24" fill="none" xmlns="http://www.w3.org/2000/svg">
<path d="M15 8H16M17 11V12M8 15V16M12 16L11 17M15 16H16M13 12L14 13M21 12C21 16.9706 16.9706 21 12 21C7.02944 21 3 16.9706 3 12C3 11.5463 3.06127 11.1005 3.14069 10.6648C3.1752 10.4755 3.41377 10.4141 3.54982 10.5502C5.48292 12.4833 8.61708 12.4833 10.5502 10.5502C12.4833 8.61709 12.4833 5.48292 10.5502 3.54983C10.4146 3.41422 10.4762 3.17509 10.6648 3.1407C11.1005 3.06128 11.5463 3 12 3C16.9706 3 21 7.02944 21 12Z" stroke="currentColor" stroke-width="2" stroke-linecap="round"/>
</svg>
