<svg viewBox="0 0 24 24" fill="none" xmlns="http://www.w3.org/2000/svg">
<path d="M15.0003 12C15.0003 13.6569 13.6571 15 12.0003 15C10.3434 15 9.00028 13.6569 9.00028 12C9.00028 10.3431 10.3434 9 12.0003 9C13.6571 9 15.0003 10.3431 15.0003 12Z" stroke="currentColor" stroke-width="2"/>
<path d="M15.0003 5V6.42092C15.0003 6.59108 15.1845 6.69743 15.3318 6.61235L16.5624 5.90192C17.9972 5.07349 19.832 5.56511 20.6604 6.99999C21.4889 8.43487 20.9972 10.2696 19.5624 11.0981L18.3318 11.8086C18.1844 11.8936 18.1844 12.1063 18.3318 12.1914L19.5624 12.9019C20.9972 13.7303 21.4889 15.5651 20.6604 17C19.832 18.4349 17.9972 18.9265 16.5624 18.0981L15.3318 17.3876C15.1845 17.3026 15.0003 17.4089 15.0003 17.5791V19C15.0003 20.6569 13.6571 22 12.0003 22C10.3434 22 9.00028 20.6569 9.00028 19V17.579C9.00028 17.4088 8.81607 17.3024 8.6687 17.3875L7.438 18.0981C6.00312 18.9265 4.16835 18.4349 3.33992 17C2.5115 15.5651 3.00312 13.7303 4.438 12.9019L5.66861 12.1914C5.81597 12.1063 5.81597 11.8936 5.66861 11.8086L4.438 11.0981C3.00312 10.2696 2.5115 8.43487 3.33993 6.99999C4.16835 5.56511 6.00312 5.07349 7.438 5.90192L8.6687 6.61246C8.81607 6.69754 9.00028 6.59119 9.00028 6.42102V5C9.00028 3.34315 10.3434 2 12.0003 2C13.6571 2 15.0003 3.34314 15.0003 5Z" stroke="currentColor" stroke-width="2"/>
</svg>
