<svg width="24" height="24" viewBox="0 0 24 24" fill="none" xmlns="http://www.w3.org/2000/svg">
<path d="M3 11C2.44772 11 2 11.4477 2 12C2 12.5523 2.44772 13 3 13V11ZM21 13C21.5523 13 22 12.5523 22 12C22 11.4477 21.5523 11 21 11V13ZM4.97619 11.7831C4.85638 11.2439 4.3222 10.904 3.78307 11.0238C3.24394 11.1436 2.90401 11.6778 3.02381 12.2169L4.97619 11.7831ZM5.44315 18.4942L6.41934 18.2772L5.44315 18.4942ZM18.5568 18.4942L19.533 18.7111L19.533 18.7111L18.5568 18.4942ZM20.9762 12.2169C21.096 11.6778 20.7561 11.1436 20.2169 11.0238C19.6778 10.904 19.1436 11.2439 19.0238 11.7831L20.9762 12.2169ZM17.1849 20.8377L16.7903 19.9189H16.7903L17.1849 20.8377ZM18.0184 20.1691L17.207 19.5845L18.0184 20.1691ZM5.98161 20.1691L5.17024 20.7536L5.17024 20.7536L5.98161 20.1691ZM6.81513 20.8377L6.42053 21.7566H6.42053L6.81513 20.8377ZM13.1405 8.14567L12.2368 8.57401L12.7751 9.70959L13.7608 8.93001L13.1405 8.14567ZM3 13H21V11H3V13ZM3.02381 12.2169L4.46696 18.7111L6.41934 18.2772L4.97619 11.7831L3.02381 12.2169ZM8.56695 22H15.4331V20H8.56695V22ZM19.533 18.7111L20.9762 12.2169L19.0238 11.7831L17.5807 18.2772L19.533 18.7111ZM15.4331 22C15.8765 22 16.2627 22.0006 16.584 21.977C16.9178 21.9525 17.249 21.8985 17.5795 21.7566L16.7903 19.9189C16.7428 19.9392 16.656 19.9663 16.4375 19.9824C16.2063 19.9994 15.9056 20 15.4331 20V22ZM17.5807 18.2772C17.4782 18.7385 17.4123 19.032 17.3456 19.2539C17.2825 19.4638 17.2372 19.5427 17.207 19.5845L18.8298 20.7536C19.04 20.4618 19.1646 20.1502 19.2609 19.8296C19.3537 19.5211 19.4368 19.144 19.533 18.7111L17.5807 18.2772ZM17.5795 21.7566C18.0795 21.5418 18.5117 21.1951 18.8298 20.7536L17.207 19.5845C17.101 19.7317 16.9569 19.8473 16.7903 19.9189L17.5795 21.7566ZM4.46696 18.7111C4.56316 19.144 4.64632 19.5211 4.73906 19.8296C4.83542 20.1502 4.95999 20.4618 5.17024 20.7536L6.79297 19.5845C6.76281 19.5427 6.71749 19.4638 6.65441 19.2539C6.58769 19.032 6.52184 18.7385 6.41934 18.2772L4.46696 18.7111ZM8.56695 20C8.09445 20 7.79369 19.9994 7.56253 19.9824C7.34396 19.9663 7.25716 19.9392 7.20974 19.9189L6.42053 21.7566C6.75103 21.8985 7.08216 21.9525 7.41604 21.977C7.73733 22.0006 8.12352 22 8.56695 22V20ZM5.17024 20.7536C5.48833 21.1951 5.92052 21.5418 6.42053 21.7566L7.20974 19.9189C7.04307 19.8473 6.899 19.7317 6.79297 19.5845L5.17024 20.7536ZM7 9.75C7 8.23122 8.23122 7 9.75 7V5C7.12665 5 5 7.12665 5 9.75H7ZM9.75 7C10.8463 7 11.7948 7.64149 12.2368 8.57401L14.0441 7.71734C13.2836 6.11295 11.6477 5 9.75 5V7ZM13.7608 8.93001C14.1017 8.66036 14.5307 8.5 15 8.5V6.5C14.0645 6.5 13.2016 6.82236 12.5201 7.36134L13.7608 8.93001ZM15 8.5C16.1046 8.5 17 9.39543 17 10.5H19C19 8.29086 17.2091 6.5 15 6.5V8.5ZM17 10.5C17 10.8659 16.9026 11.2061 16.733 11.4993L18.4643 12.5007C18.8052 11.9114 19 11.2269 19 10.5H17ZM7.54929 11.3994C7.20413 10.9399 7 10.3702 7 9.75H5C5 10.8182 5.35378 11.8066 5.95016 12.6006L7.54929 11.3994Z" fill="black"/>
</svg>
