<svg width="24" height="24" viewBox="0 0 24 24" fill="none" xmlns="http://www.w3.org/2000/svg">
<path d="M10 18V20C10 21.1046 10.8954 22 12 22C13.1046 22 14 21.1046 14 20V18M18 8V16C18 17.1046 17.1046 18 16 18H8C6.89543 18 6 17.1046 6 16V8M18 8C18 4.68629 15.3137 2 12 2C8.68629 2 6 4.68629 6 8M18 8V12C18 13.1046 17.1046 14 16 14C14.8954 14 14 13.1046 14 12V10C14 8.89543 13.1046 8 12 8C10.8954 8 10 8.89543 10 10C10 11.1046 9.10457 12 8 12C6.89543 12 6 11.1046 6 10V8" stroke="black" stroke-width="2" stroke-linecap="round"/>
</svg>
