<svg width="24" height="24" viewBox="0 0 24 24" fill="none" xmlns="http://www.w3.org/2000/svg">
<path d="M15.809 17.4244L15.1985 16.6324L15.809 17.4244ZM4.91117 15.9612C4.52064 15.5707 3.88748 15.5707 3.49695 15.9612C3.10643 16.3517 3.10643 16.9849 3.49695 17.3754L4.91117 15.9612ZM17.425 15.8084L16.633 15.1979L17.425 15.8084ZM16.7179 16.7173C16.8542 16.581 16.9974 16.5348 17.0626 16.5196C17.1251 16.5051 17.1573 16.509 17.1355 16.5082C17.0833 16.5063 16.9935 16.4926 16.8125 16.4583C16.67 16.4312 16.4369 16.3843 16.2223 16.3685C16.1104 16.3603 15.9621 16.3566 15.8023 16.381C15.6453 16.4049 15.4156 16.465 15.1985 16.6324L16.4194 18.2165C16.277 18.3263 16.1453 18.3518 16.1036 18.3581C16.0592 18.3649 16.0435 18.3607 16.0757 18.3631C16.1494 18.3685 16.2502 18.3873 16.4401 18.4233C16.5916 18.452 16.8327 18.4985 17.0625 18.5069C17.2346 18.5132 17.7428 18.5209 18.1321 18.1315L16.7179 16.7173ZM15.1985 16.6324C12.1349 18.9937 7.7194 18.7694 4.91117 15.9612L3.49695 17.3754C7.02521 20.9037 12.57 21.1835 16.4194 18.2165L15.1985 16.6324ZM15.9618 4.9106C18.77 7.71884 18.9943 12.1344 16.633 15.1979L18.217 16.4189C21.1841 12.5694 20.9043 7.02465 17.376 3.49638L15.9618 4.9106ZM16.633 15.1979C16.4656 15.4151 16.4055 15.6448 16.3815 15.8017C16.3572 15.9615 16.3608 16.1098 16.3691 16.2218C16.3848 16.4363 16.4318 16.6694 16.4588 16.812C16.4931 16.993 16.5069 17.0827 16.5088 17.1349C16.5096 17.1568 16.5056 17.1245 16.5202 17.062C16.5353 16.9969 16.5815 16.8537 16.7179 16.7173L18.1321 18.1315C18.5215 17.7422 18.5138 17.234 18.5075 17.0619C18.4991 16.8321 18.4525 16.591 18.4238 16.4395C18.3878 16.2497 18.3691 16.1488 18.3637 16.0751C18.3613 16.0429 18.3655 16.0586 18.3587 16.1031C18.3524 16.1447 18.3268 16.2764 18.217 16.4189L16.633 15.1979ZM12.2002 12.1996C10.5415 13.8583 8.81801 15.0752 7.40197 15.7188C6.69036 16.0423 6.10663 16.1979 5.67722 16.2237C5.24626 16.2496 5.09268 16.1427 5.04483 16.0949L3.63061 17.5091C4.22815 18.1066 5.0382 18.2658 5.79722 18.2201C6.5578 18.1744 7.3904 17.921 8.22957 17.5395C9.91511 16.7734 11.831 15.3972 13.6144 13.6138L12.2002 12.1996ZM5.04483 16.0949C4.99697 16.047 4.89006 15.8934 4.91597 15.4625C4.94178 15.0331 5.09744 14.4493 5.4209 13.7377C6.06456 12.3217 7.2814 10.5982 8.94009 8.93952L7.52587 7.52531C5.7425 9.30869 4.36632 11.2246 3.60017 12.9101C3.21872 13.7493 2.96529 14.5819 2.91957 15.3425C2.87395 16.1015 3.03308 16.9116 3.63061 17.5091L5.04483 16.0949ZM8.94009 8.93952C10.5988 7.28083 12.3223 6.06399 13.7383 5.42034C14.4499 5.09688 15.0336 4.94121 15.4631 4.9154C15.894 4.8895 16.0476 4.99641 16.0954 5.04426L17.5097 3.63005C16.9121 3.03252 16.1021 2.87338 15.3431 2.91901C14.5825 2.96472 13.7499 3.21816 12.9107 3.5996C11.2252 4.36575 9.30925 5.74193 7.52587 7.52531L8.94009 8.93952ZM16.0954 5.04426C16.1433 5.09212 16.2502 5.2457 16.2243 5.67666C16.1985 6.10606 16.0428 6.6898 15.7194 7.4014C15.0757 8.81745 13.8589 10.5409 12.2002 12.1996L13.6144 13.6138C15.3978 11.8305 16.774 9.91454 17.5401 8.22901C17.9215 7.38983 18.175 6.55723 18.2207 5.79666C18.2663 5.03764 18.1072 4.22758 17.5097 3.63005L16.0954 5.04426Z" fill="black"/>
</svg>
