<svg viewBox="0 0 24 24" fill="none" xmlns="http://www.w3.org/2000/svg">
<path d="M17 17L18.3694 18.3694M18.3694 18.3694C19.23 19.23 20.6534 19.1289 21.3836 18.1552L21.5 18M18.3694 18.3694C19.23 19.23 19.1289 20.6534 18.1552 21.3836L18 21.5M6.03956 12.3763C4.2572 11.6543 3 9.90658 3 7.86523C3 5.17824 5.17824 3 7.86523 3C9.90658 3 11.6543 4.2572 12.3763 6.03956C12.8332 7.16736 13.1107 8.39753 13.8179 9.3877L16.6375 13.3351C17.1904 14.1092 17.1027 15.1696 16.43 15.8423L15.8423 16.43C15.1696 17.1027 14.1092 17.1904 13.3351 16.6375L9.3877 13.8179C8.39752 13.1107 7.16736 12.8332 6.03956 12.3763Z" stroke="black" stroke-width="2" stroke-linecap="round"/>
</svg>
