<svg viewBox="0 0 24 24" fill="none" xmlns="http://www.w3.org/2000/svg">
<path d="M8 20H14M18 8V10.186C18 12.8599 16.4767 15.3003 14.0745 16.4747L13.4157 16.7968C13.1422 16.9305 12.8417 17 12.5373 17H9.46272C9.15826 17 8.85782 16.9305 8.5843 16.7968L7.92553 16.4747C5.52331 15.3003 4 12.8599 4 10.186V8C4 6.89543 4.89543 6 6 6H16C17.1046 6 18 6.89543 18 8ZM18 8L20.3333 8C20.7015 8 21 8.29848 21 8.66667V9C21 10.6569 19.6569 12 18 12M14 6V9" stroke="currentColor" stroke-width="2" stroke-linecap="round"/>
</svg>
