<svg width="24" height="24" viewBox="0 0 24 24" fill="none" xmlns="http://www.w3.org/2000/svg">
<path d="M16.9106 20.4077L16.0423 19.9115L16.9106 20.4077ZM16.2375 21.5855L17.1058 22.0816H17.1058L16.2375 21.5855ZM7.7638 21.5855L6.89556 22.0816H6.89556L7.7638 21.5855ZM7.09076 20.4077L6.22251 20.9038H6.22251L7.09076 20.4077ZM15.2159 11.0127L15.8561 10.2445L15.2159 11.0127ZM8.78536 11.0127L8.14518 10.2445H8.14518L8.78536 11.0127ZM7.00065 14C6.44837 14 6.00065 14.4477 6.00065 15C6.00065 15.5523 6.44837 16 7.00065 16V14ZM17.5007 16C18.0529 16 18.5007 15.5523 18.5007 15C18.5007 14.4477 18.0529 14 17.5007 14V16ZM16.0423 19.9115L15.3693 21.0894L17.1058 22.0816L17.7788 20.9038L16.0423 19.9115ZM15.5233 21H8.47805V23H15.5233V21ZM8.63204 21.0894L7.959 19.9115L6.22251 20.9038L6.89556 22.0816L8.63204 21.0894ZM11.0007 8.41805V5H9.00065V8.41805H11.0007ZM13.0007 5V8.41805H15.0007V5H13.0007ZM12.0007 4C12.5529 4 13.0007 4.44772 13.0007 5H15.0007C15.0007 3.34315 13.6575 2 12.0007 2V4ZM15.8561 10.2445C15.3141 9.7928 15.0007 9.12365 15.0007 8.41805H13.0007C13.0007 9.71721 13.5777 10.9493 14.5758 11.781L15.8561 10.2445ZM9.42555 11.781C10.4236 10.9493 11.0007 9.71721 11.0007 8.41805H9.00065C9.00065 9.12365 8.68724 9.7928 8.14518 10.2445L9.42555 11.781ZM11.0007 5C11.0007 4.44772 11.4484 4 12.0007 4V2C10.3438 2 9.00065 3.34315 9.00065 5H11.0007ZM8.47805 21C8.5417 21 8.60046 21.0341 8.63204 21.0894L6.89556 22.0816C7.22006 22.6495 7.82398 23 8.47805 23V21ZM15.3693 21.0894C15.4008 21.0341 15.4596 21 15.5233 21V23C16.1773 23 16.7812 22.6495 17.1058 22.0816L15.3693 21.0894ZM17.7788 20.9038C19.807 17.3545 18.9966 12.8616 15.8561 10.2445L14.5758 11.781C16.9712 13.7772 17.5893 17.2042 16.0423 19.9115L17.7788 20.9038ZM7.959 19.9115C6.41196 17.2042 7.03012 13.7772 9.42555 11.781L8.14518 10.2445C5.00474 12.8616 4.19433 17.3545 6.22251 20.9038L7.959 19.9115ZM7.00065 16H17.5007V14H7.00065V16Z" fill="black"/>
</svg>
