<svg viewBox="0 0 24 24" fill="none" xmlns="http://www.w3.org/2000/svg">
<path d="M3 14H11M18 15C16.3431 15 15 13.6569 15 12V10C15 8.89543 15.8954 8 17 8H19C20.1046 8 21 8.89543 21 10V12C21 13.6569 19.6569 15 18 15ZM18 15V20M16 20H20M4.40145 9.21861L4.71971 8.68259C4.90318 8.3736 5 8.02088 5 7.66152V6C5 4.89543 5.89543 4 7 4C8.10457 4 9 4.89543 9 6V7.66152C9 8.02088 9.09682 8.3736 9.28029 8.68259L9.59855 9.21861C10.5159 10.7636 11 12.5272 11 14.324V18C11 19.1046 10.1046 20 9 20H5C3.89543 20 3 19.1046 3 18V14.324C3 12.5272 3.48412 10.7636 4.40145 9.21861Z" stroke="black" stroke-width="2" stroke-linecap="round"/>
</svg>
