<svg viewBox="0 0 1280 480" fill="none" xmlns="http://www.w3.org/2000/svg">
<rect width="1280" height="480" fill="#FFF8F5"/>
<path d="M121.329 96.208H129.649L128.141 91.84C127.656 90.488 127.205 89.136 126.789 87.784C126.373 86.3973 125.975 85.0107 125.593 83.624H125.489C125.108 84.9413 124.692 86.2933 124.241 87.68C123.791 89.032 123.323 90.4187 122.837 91.84L121.329 96.208ZM121.953 76.24H129.337L141.453 109H133.913L131.365 101.46H119.717L117.169 109H109.733L121.953 76.24ZM158.136 104.476C159.245 104.476 160.216 104.337 161.048 104.06C161.914 103.748 162.625 103.453 163.18 103.176L164.48 107.96C163.786 108.341 162.781 108.705 161.464 109.052C160.146 109.399 158.708 109.572 157.148 109.572C155.276 109.572 153.525 109.295 151.896 108.74C150.266 108.185 148.845 107.371 147.632 106.296C146.453 105.187 145.517 103.835 144.824 102.24C144.13 100.645 143.784 98.7907 143.784 96.676C143.784 94.7347 144.113 92.9667 144.772 91.372C145.43 89.7773 146.349 88.408 147.528 87.264C148.706 86.12 150.128 85.236 151.792 84.612C153.456 83.988 155.276 83.676 157.252 83.676C158.326 83.676 159.453 83.78 160.632 83.988C161.845 84.196 163.11 84.6467 164.428 85.34L162.972 90.124C162.244 89.708 161.446 89.3787 160.58 89.136C159.748 88.8587 158.898 88.72 158.032 88.72C155.882 88.72 154.132 89.3787 152.78 90.696C151.462 92.0133 150.804 93.9373 150.804 96.468C150.804 97.9587 151.012 99.224 151.428 100.264C151.878 101.269 152.45 102.084 153.144 102.708C153.837 103.332 154.617 103.783 155.484 104.06C156.35 104.337 157.234 104.476 158.136 104.476ZM191.658 96.416C191.658 98.4613 191.329 100.299 190.67 101.928C190.011 103.557 189.093 104.944 187.914 106.088C186.77 107.197 185.418 108.064 183.858 108.688C182.298 109.277 180.617 109.572 178.814 109.572C177.011 109.572 175.33 109.295 173.77 108.74C172.245 108.185 170.91 107.371 169.766 106.296C168.657 105.221 167.773 103.904 167.114 102.344C166.49 100.749 166.178 98.9467 166.178 96.936C166.178 94.8213 166.507 92.9493 167.166 91.32C167.825 89.656 168.726 88.2693 169.87 87.16C171.049 86.016 172.418 85.1493 173.978 84.56C175.538 83.9707 177.219 83.676 179.022 83.676C180.825 83.676 182.489 83.9533 184.014 84.508C185.574 85.0627 186.909 85.8773 188.018 86.952C189.162 87.992 190.046 89.3093 190.67 90.904C191.329 92.4987 191.658 94.336 191.658 96.416ZM184.534 96.676C184.534 95.2547 184.378 94.0413 184.066 93.036C183.754 92.0307 183.338 91.216 182.818 90.592C182.298 89.968 181.691 89.5173 180.998 89.24C180.305 88.928 179.594 88.772 178.866 88.772C178.138 88.772 177.445 88.9107 176.786 89.188C176.127 89.4307 175.538 89.864 175.018 90.488C174.498 91.0773 174.082 91.8747 173.77 92.88C173.458 93.8853 173.302 95.1507 173.302 96.676C173.302 98.028 173.458 99.2067 173.77 100.212C174.082 101.183 174.498 101.98 175.018 102.604C175.573 103.228 176.179 103.696 176.838 104.008C177.531 104.32 178.242 104.476 178.97 104.476C179.698 104.476 180.391 104.355 181.05 104.112C181.709 103.835 182.298 103.384 182.818 102.76C183.338 102.136 183.754 101.339 184.066 100.368C184.378 99.3627 184.534 98.132 184.534 96.676ZM203.493 109H196.577V84.196H201.985L202.817 87.368C203.926 86.224 205.14 85.3227 206.457 84.664C207.774 84.0053 209.265 83.676 210.929 83.676C214.465 83.676 216.874 84.9587 218.157 87.524C219.266 86.3107 220.532 85.3747 221.953 84.716C223.374 84.0227 224.9 83.676 226.529 83.676C229.164 83.676 231.174 84.3867 232.561 85.808C233.982 87.2293 234.693 89.292 234.693 91.996V109H227.777V92.776C227.777 91.5973 227.482 90.6787 226.893 90.02C226.338 89.3267 225.506 88.98 224.397 88.98C223.461 88.98 222.508 89.2053 221.537 89.656C220.601 90.1067 219.786 90.748 219.093 91.58V109H212.177V92.776C212.177 91.5973 211.882 90.6787 211.293 90.02C210.738 89.3267 209.906 88.98 208.797 88.98C207.861 88.98 206.908 89.24 205.937 89.76C205.001 90.2453 204.186 90.9213 203.493 91.788V109ZM252.66 109.572C251.759 109.572 250.857 109.451 249.956 109.208C249.089 109 248.361 108.723 247.772 108.376V120.96H240.908V84.092H246.16L246.888 86.848C247.893 85.8773 249.037 85.1147 250.32 84.56C251.603 83.9707 253.041 83.676 254.636 83.676C257.895 83.676 260.46 84.7853 262.332 87.004C264.239 89.188 265.192 92.2213 265.192 96.104C265.192 98.288 264.863 100.229 264.204 101.928C263.545 103.592 262.644 104.996 261.5 106.14C260.356 107.284 259.021 108.151 257.496 108.74C255.971 109.295 254.359 109.572 252.66 109.572ZM252.764 88.876C251.62 88.876 250.615 89.1533 249.748 89.708C248.881 90.228 248.223 90.7653 247.772 91.32V103.176C248.847 104.043 250.181 104.476 251.776 104.476C252.539 104.476 253.284 104.337 254.012 104.06C254.775 103.748 255.451 103.28 256.04 102.656C256.664 101.997 257.149 101.148 257.496 100.108C257.877 99.068 258.068 97.8027 258.068 96.312C258.068 95.2373 257.947 94.2493 257.704 93.348C257.496 92.4467 257.167 91.6667 256.716 91.008C256.265 90.3493 255.711 89.8293 255.052 89.448C254.393 89.0667 253.631 88.876 252.764 88.876ZM270.474 86.38C271.964 85.5133 273.542 84.8547 275.206 84.404C276.87 83.9187 278.638 83.676 280.51 83.676C282 83.676 283.352 83.8493 284.566 84.196C285.814 84.5427 286.871 85.0973 287.738 85.86C288.639 86.588 289.315 87.5413 289.766 88.72C290.251 89.864 290.494 91.2507 290.494 92.88V109H285.138L284.514 106.452H284.306C283.508 107.423 282.486 108.185 281.238 108.74C280.024 109.295 278.603 109.572 276.974 109.572C275.622 109.572 274.426 109.381 273.386 109C272.346 108.584 271.462 108.047 270.734 107.388C270.006 106.695 269.451 105.88 269.07 104.944C268.723 104.008 268.55 103.003 268.55 101.928C268.55 100.507 268.844 99.2933 269.434 98.288C270.057 97.248 270.907 96.3987 271.982 95.74C273.056 95.0813 274.304 94.596 275.726 94.284C277.182 93.972 278.742 93.816 280.406 93.816H283.526V92.308C283.526 91.164 283.162 90.332 282.434 89.812C281.74 89.2573 280.752 88.98 279.47 88.98C278.464 88.98 277.424 89.136 276.35 89.448C275.31 89.76 274.148 90.2627 272.866 90.956L270.474 86.38ZM283.578 98.132L281.342 98.184C279.227 98.2533 277.754 98.6173 276.922 99.276C276.09 99.9 275.674 100.663 275.674 101.564C275.674 102.743 276.02 103.557 276.714 104.008C277.442 104.424 278.256 104.632 279.158 104.632C280.059 104.632 280.908 104.372 281.706 103.852C282.538 103.332 283.162 102.725 283.578 102.032V98.132ZM303.278 109H296.362V84.196H301.77L302.602 87.368C303.746 86.1893 304.994 85.288 306.346 84.664C307.733 84.0053 309.258 83.676 310.922 83.676C313.661 83.676 315.758 84.4213 317.214 85.912C318.67 87.4027 319.398 89.5693 319.398 92.412V109H312.482V93.14C312.482 91.8573 312.17 90.852 311.546 90.124C310.922 89.3613 310.004 88.98 308.79 88.98C307.889 88.98 306.936 89.24 305.93 89.76C304.96 90.2453 304.076 90.9213 303.278 91.788V109ZM332.734 109H325.818V71.872H332.734V86.432C333.739 85.6347 334.883 84.976 336.166 84.456C337.483 83.936 338.904 83.676 340.43 83.676C341.886 83.676 343.151 83.9013 344.226 84.352C345.335 84.768 346.236 85.3747 346.93 86.172C347.658 86.9347 348.195 87.8707 348.542 88.98C348.888 90.0547 349.062 91.2333 349.062 92.516V109H342.146V93.712C342.146 92.0133 341.799 90.8 341.106 90.072C340.412 89.344 339.407 88.98 338.09 88.98C337.188 88.98 336.252 89.2053 335.282 89.656C334.346 90.072 333.496 90.644 332.734 91.372V109ZM377.521 98.392H361.037V98.6C361.037 100.576 361.73 102.049 363.117 103.02C364.503 103.991 366.289 104.476 368.473 104.476C369.859 104.476 371.073 104.337 372.113 104.06C373.187 103.783 374.158 103.453 375.025 103.072L376.273 107.908C375.337 108.359 374.158 108.74 372.737 109.052C371.315 109.399 369.634 109.572 367.693 109.572C365.821 109.572 364.053 109.329 362.389 108.844C360.759 108.324 359.321 107.544 358.073 106.504C356.859 105.464 355.889 104.147 355.161 102.552C354.433 100.957 354.069 99.0507 354.069 96.832C354.069 94.856 354.363 93.0707 354.953 91.476C355.542 89.8467 356.374 88.46 357.449 87.316C358.558 86.172 359.875 85.288 361.401 84.664C362.926 84.0053 364.625 83.676 366.497 83.676C369.859 83.676 372.529 84.6987 374.505 86.744C376.515 88.7893 377.521 91.6493 377.521 95.324V98.392ZM370.449 93.66C370.449 93.0013 370.362 92.36 370.189 91.736C370.05 91.112 369.807 90.5747 369.461 90.124C369.114 89.6387 368.681 89.2573 368.161 88.98C367.641 88.7027 366.999 88.564 366.237 88.564C364.85 88.564 363.706 89.032 362.805 89.968C361.903 90.904 361.366 92.1693 361.193 93.764L370.449 93.66ZM401.286 109H394.37V84.196H399.778L400.61 87.368C401.754 86.1893 403.002 85.288 404.354 84.664C405.741 84.0053 407.266 83.676 408.93 83.676C411.669 83.676 413.766 84.4213 415.222 85.912C416.678 87.4027 417.406 89.5693 417.406 92.412V109H410.49V93.14C410.49 91.8573 410.178 90.852 409.554 90.124C408.93 89.3613 408.011 88.98 406.798 88.98C405.897 88.98 404.943 89.24 403.938 89.76C402.967 90.2453 402.083 90.9213 401.286 91.788V109ZM447.85 96.416C447.85 98.4613 447.52 100.299 446.862 101.928C446.203 103.557 445.284 104.944 444.106 106.088C442.962 107.197 441.61 108.064 440.05 108.688C438.49 109.277 436.808 109.572 435.006 109.572C433.203 109.572 431.522 109.295 429.962 108.74C428.436 108.185 427.102 107.371 425.958 106.296C424.848 105.221 423.964 103.904 423.306 102.344C422.682 100.749 422.37 98.9467 422.37 96.936C422.37 94.8213 422.699 92.9493 423.358 91.32C424.016 89.656 424.918 88.2693 426.062 87.16C427.24 86.016 428.61 85.1493 430.17 84.56C431.73 83.9707 433.411 83.676 435.214 83.676C437.016 83.676 438.68 83.9533 440.206 84.508C441.766 85.0627 443.1 85.8773 444.21 86.952C445.354 87.992 446.238 89.3093 446.862 90.904C447.52 92.4987 447.85 94.336 447.85 96.416ZM440.726 96.676C440.726 95.2547 440.57 94.0413 440.258 93.036C439.946 92.0307 439.53 91.216 439.01 90.592C438.49 89.968 437.883 89.5173 437.19 89.24C436.496 88.928 435.786 88.772 435.058 88.772C434.33 88.772 433.636 88.9107 432.978 89.188C432.319 89.4307 431.73 89.864 431.21 90.488C430.69 91.0773 430.274 91.8747 429.962 92.88C429.65 93.8853 429.494 95.1507 429.494 96.676C429.494 98.028 429.65 99.2067 429.962 100.212C430.274 101.183 430.69 101.98 431.21 102.604C431.764 103.228 432.371 103.696 433.03 104.008C433.723 104.32 434.434 104.476 435.162 104.476C435.89 104.476 436.583 104.355 437.242 104.112C437.9 103.835 438.49 103.384 439.01 102.76C439.53 102.136 439.946 101.339 440.258 100.368C440.57 99.3627 440.726 98.132 440.726 96.676ZM467.744 90.124C465.699 89.1533 463.723 88.668 461.816 88.668C460.707 88.668 459.84 88.8587 459.216 89.24C458.627 89.6213 458.332 90.1413 458.332 90.8C458.332 91.4587 458.592 91.996 459.112 92.412C459.667 92.828 460.759 93.2787 462.388 93.764L463.948 94.232C466.098 94.856 467.727 95.7573 468.836 96.936C469.946 98.1147 470.5 99.64 470.5 101.512C470.5 103.973 469.547 105.932 467.64 107.388C465.768 108.844 463.22 109.572 459.996 109.572C456.703 109.572 453.878 108.983 451.52 107.804L453.08 102.708C454.086 103.228 455.143 103.661 456.252 104.008C457.362 104.32 458.488 104.476 459.632 104.476C461.019 104.476 462.024 104.268 462.648 103.852C463.307 103.401 463.636 102.829 463.636 102.136C463.636 101.408 463.324 100.853 462.7 100.472C462.076 100.056 460.898 99.6053 459.164 99.12L457.552 98.652C455.472 97.9587 453.947 97.04 452.976 95.896C452.006 94.752 451.52 93.2267 451.52 91.32C451.52 89.0667 452.37 87.2293 454.068 85.808C455.767 84.3867 458.142 83.676 461.192 83.676C464.208 83.676 466.878 84.2133 469.2 85.288L467.744 90.124ZM490.342 90.124C488.297 89.1533 486.321 88.668 484.414 88.668C483.305 88.668 482.438 88.8587 481.814 89.24C481.225 89.6213 480.93 90.1413 480.93 90.8C480.93 91.4587 481.19 91.996 481.71 92.412C482.265 92.828 483.357 93.2787 484.986 93.764L486.546 94.232C488.695 94.856 490.325 95.7573 491.434 96.936C492.543 98.1147 493.098 99.64 493.098 101.512C493.098 103.973 492.145 105.932 490.238 107.388C488.366 108.844 485.818 109.572 482.594 109.572C479.301 109.572 476.475 108.983 474.118 107.804L475.678 102.708C476.683 103.228 477.741 103.661 478.85 104.008C479.959 104.32 481.086 104.476 482.23 104.476C483.617 104.476 484.622 104.268 485.246 103.852C485.905 103.401 486.234 102.829 486.234 102.136C486.234 101.408 485.922 100.853 485.298 100.472C484.674 100.056 483.495 99.6053 481.762 99.12L480.15 98.652C478.07 97.9587 476.545 97.04 475.574 95.896C474.603 94.752 474.118 93.2267 474.118 91.32C474.118 89.0667 474.967 87.2293 476.666 85.808C478.365 84.3867 480.739 83.676 483.79 83.676C486.806 83.676 489.475 84.2133 491.798 85.288L490.342 90.124ZM522.092 96.416C522.092 98.4613 521.762 100.299 521.104 101.928C520.445 103.557 519.526 104.944 518.348 106.088C517.204 107.197 515.852 108.064 514.292 108.688C512.732 109.277 511.05 109.572 509.248 109.572C507.445 109.572 505.764 109.295 504.204 108.74C502.678 108.185 501.344 107.371 500.2 106.296C499.09 105.221 498.206 103.904 497.548 102.344C496.924 100.749 496.612 98.9467 496.612 96.936C496.612 94.8213 496.941 92.9493 497.6 91.32C498.258 89.656 499.16 88.2693 500.304 87.16C501.482 86.016 502.852 85.1493 504.412 84.56C505.972 83.9707 507.653 83.676 509.456 83.676C511.258 83.676 512.922 83.9533 514.448 84.508C516.008 85.0627 517.342 85.8773 518.452 86.952C519.596 87.992 520.48 89.3093 521.104 90.904C521.762 92.4987 522.092 94.336 522.092 96.416ZM514.968 96.676C514.968 95.2547 514.812 94.0413 514.5 93.036C514.188 92.0307 513.772 91.216 513.252 90.592C512.732 89.968 512.125 89.5173 511.432 89.24C510.738 88.928 510.028 88.772 509.3 88.772C508.572 88.772 507.878 88.9107 507.22 89.188C506.561 89.4307 505.972 89.864 505.452 90.488C504.932 91.0773 504.516 91.8747 504.204 92.88C503.892 93.8853 503.736 95.1507 503.736 96.676C503.736 98.028 503.892 99.2067 504.204 100.212C504.516 101.183 504.932 101.98 505.452 102.604C506.006 103.228 506.613 103.696 507.272 104.008C507.965 104.32 508.676 104.476 509.404 104.476C510.132 104.476 510.825 104.355 511.484 104.112C512.142 103.835 512.732 103.384 513.252 102.76C513.772 102.136 514.188 101.339 514.5 100.368C514.812 99.3627 514.968 98.132 514.968 96.676ZM83.0555 176.476C84.1649 176.476 85.1355 176.337 85.9675 176.06C86.8342 175.748 87.5449 175.453 88.0995 175.176L89.3995 179.96C88.7062 180.341 87.7009 180.705 86.3835 181.052C85.0662 181.399 83.6275 181.572 82.0675 181.572C80.1955 181.572 78.4449 181.295 76.8155 180.74C75.1862 180.185 73.7649 179.371 72.5515 178.296C71.3729 177.187 70.4369 175.835 69.7435 174.24C69.0502 172.645 68.7035 170.791 68.7035 168.676C68.7035 166.735 69.0329 164.967 69.6915 163.372C70.3502 161.777 71.2689 160.408 72.4475 159.264C73.6262 158.12 75.0475 157.236 76.7115 156.612C78.3755 155.988 80.1955 155.676 82.1715 155.676C83.2462 155.676 84.3729 155.78 85.5515 155.988C86.7649 156.196 88.0302 156.647 89.3475 157.34L87.8915 162.124C87.1635 161.708 86.3662 161.379 85.4995 161.136C84.6675 160.859 83.8182 160.72 82.9515 160.72C80.8022 160.72 79.0515 161.379 77.6995 162.696C76.3822 164.013 75.7235 165.937 75.7235 168.468C75.7235 169.959 75.9315 171.224 76.3475 172.264C76.7982 173.269 77.3702 174.084 78.0635 174.708C78.7569 175.332 79.5369 175.783 80.4035 176.06C81.2702 176.337 82.1542 176.476 83.0555 176.476ZM93.9325 158.38C95.4232 157.513 97.0005 156.855 98.6645 156.404C100.328 155.919 102.096 155.676 103.968 155.676C105.459 155.676 106.811 155.849 108.024 156.196C109.272 156.543 110.33 157.097 111.196 157.86C112.098 158.588 112.774 159.541 113.224 160.72C113.71 161.864 113.952 163.251 113.952 164.88V181H108.596L107.972 178.452H107.764C106.967 179.423 105.944 180.185 104.696 180.74C103.483 181.295 102.062 181.572 100.432 181.572C99.0805 181.572 97.8845 181.381 96.8445 181C95.8045 180.584 94.9205 180.047 94.1925 179.388C93.4645 178.695 92.9098 177.88 92.5285 176.944C92.1818 176.008 92.0085 175.003 92.0085 173.928C92.0085 172.507 92.3032 171.293 92.8925 170.288C93.5165 169.248 94.3658 168.399 95.4405 167.74C96.5152 167.081 97.7632 166.596 99.1845 166.284C100.64 165.972 102.2 165.816 103.864 165.816H106.984V164.308C106.984 163.164 106.62 162.332 105.892 161.812C105.199 161.257 104.211 160.98 102.928 160.98C101.923 160.98 100.883 161.136 99.8085 161.448C98.7685 161.76 97.6072 162.263 96.3245 162.956L93.9325 158.38ZM107.036 170.132L104.8 170.184C102.686 170.253 101.212 170.617 100.38 171.276C99.5485 171.9 99.1325 172.663 99.1325 173.564C99.1325 174.743 99.4792 175.557 100.172 176.008C100.9 176.424 101.715 176.632 102.616 176.632C103.518 176.632 104.367 176.372 105.164 175.852C105.996 175.332 106.62 174.725 107.036 174.032V170.132ZM120.537 181V143.872H127.349V181H120.537ZM155.886 170.392H139.402V170.6C139.402 172.576 140.095 174.049 141.482 175.02C142.869 175.991 144.654 176.476 146.838 176.476C148.225 176.476 149.438 176.337 150.478 176.06C151.553 175.783 152.523 175.453 153.39 175.072L154.638 179.908C153.702 180.359 152.523 180.74 151.102 181.052C149.681 181.399 147.999 181.572 146.058 181.572C144.186 181.572 142.418 181.329 140.754 180.844C139.125 180.324 137.686 179.544 136.438 178.504C135.225 177.464 134.254 176.147 133.526 174.552C132.798 172.957 132.434 171.051 132.434 168.832C132.434 166.856 132.729 165.071 133.318 163.476C133.907 161.847 134.739 160.46 135.814 159.316C136.923 158.172 138.241 157.288 139.766 156.664C141.291 156.005 142.99 155.676 144.862 155.676C148.225 155.676 150.894 156.699 152.87 158.744C154.881 160.789 155.886 163.649 155.886 167.324V170.392ZM148.814 165.66C148.814 165.001 148.727 164.36 148.554 163.736C148.415 163.112 148.173 162.575 147.826 162.124C147.479 161.639 147.046 161.257 146.526 160.98C146.006 160.703 145.365 160.564 144.602 160.564C143.215 160.564 142.071 161.032 141.17 161.968C140.269 162.904 139.731 164.169 139.558 165.764L148.814 165.66ZM167.667 181H160.751V156.196H166.159L166.991 159.368C168.135 158.189 169.383 157.288 170.735 156.664C172.122 156.005 173.647 155.676 175.311 155.676C178.05 155.676 180.147 156.421 181.603 157.912C183.059 159.403 183.787 161.569 183.787 164.412V181H176.871V165.14C176.871 163.857 176.559 162.852 175.935 162.124C175.311 161.361 174.392 160.98 173.179 160.98C172.278 160.98 171.324 161.24 170.319 161.76C169.348 162.245 168.464 162.921 167.667 163.788V181ZM206.118 143.872H213.034V181H208.094L207.366 178.296H207.106C206.482 179.163 205.581 179.925 204.402 180.584C203.258 181.243 201.75 181.572 199.878 181.572C198.318 181.572 196.862 181.277 195.51 180.688C194.158 180.099 192.98 179.249 191.974 178.14C190.969 177.031 190.172 175.679 189.582 174.084C189.028 172.489 188.75 170.669 188.75 168.624C188.75 166.648 189.01 164.863 189.53 163.268C190.05 161.673 190.796 160.321 191.766 159.212C192.737 158.068 193.933 157.201 195.354 156.612C196.776 155.988 198.405 155.676 200.242 155.676C201.421 155.676 202.53 155.849 203.57 156.196C204.645 156.543 205.494 156.993 206.118 157.548V143.872ZM206.118 162.696C205.668 162.141 205.078 161.673 204.35 161.292C203.622 160.911 202.825 160.72 201.958 160.72C201.126 160.72 200.329 160.859 199.566 161.136C198.838 161.413 198.18 161.864 197.59 162.488C197.036 163.077 196.585 163.875 196.238 164.88C195.892 165.851 195.718 167.047 195.718 168.468C195.718 169.855 195.874 171.051 196.186 172.056C196.498 173.061 196.914 173.893 197.434 174.552C197.954 175.211 198.561 175.696 199.254 176.008C199.982 176.32 200.745 176.476 201.542 176.476C202.652 176.476 203.588 176.216 204.35 175.696C205.148 175.141 205.737 174.5 206.118 173.772V162.696ZM219.819 158.38C221.31 157.513 222.887 156.855 224.551 156.404C226.215 155.919 227.983 155.676 229.855 155.676C231.346 155.676 232.698 155.849 233.911 156.196C235.159 156.543 236.217 157.097 237.083 157.86C237.985 158.588 238.661 159.541 239.111 160.72C239.597 161.864 239.839 163.251 239.839 164.88V181H234.483L233.859 178.452H233.651C232.854 179.423 231.831 180.185 230.583 180.74C229.37 181.295 227.949 181.572 226.319 181.572C224.967 181.572 223.771 181.381 222.731 181C221.691 180.584 220.807 180.047 220.079 179.388C219.351 178.695 218.797 177.88 218.415 176.944C218.069 176.008 217.895 175.003 217.895 173.928C217.895 172.507 218.19 171.293 218.779 170.288C219.403 169.248 220.253 168.399 221.327 167.74C222.402 167.081 223.65 166.596 225.071 166.284C226.527 165.972 228.087 165.816 229.751 165.816H232.871V164.308C232.871 163.164 232.507 162.332 231.779 161.812C231.086 161.257 230.098 160.98 228.815 160.98C227.81 160.98 226.77 161.136 225.695 161.448C224.655 161.76 223.494 162.263 222.211 162.956L219.819 158.38ZM232.923 170.132L230.687 170.184C228.573 170.253 227.099 170.617 226.267 171.276C225.435 171.9 225.019 172.663 225.019 173.564C225.019 174.743 225.366 175.557 226.059 176.008C226.787 176.424 227.602 176.632 228.503 176.632C229.405 176.632 230.254 176.372 231.051 175.852C231.883 175.332 232.507 174.725 232.923 174.032V170.132ZM231.363 152.504H226.475L230.115 144.756H237.031L231.363 152.504ZM245.708 181V156.196H251.064L251.844 160.668C252.433 159.351 253.369 158.189 254.652 157.184C255.935 156.179 257.547 155.676 259.488 155.676C260.285 155.676 260.996 155.763 261.62 155.936C262.244 156.109 262.764 156.317 263.18 156.56L262.036 162.02C261.655 161.812 261.169 161.639 260.58 161.5C259.991 161.327 259.297 161.24 258.5 161.24C256.801 161.24 255.38 161.812 254.236 162.956C253.127 164.065 252.572 165.903 252.572 168.468V181H245.708ZM266.288 181V156.196H273.204V181H266.288ZM269.772 150.892C268.593 150.892 267.674 150.563 267.016 149.904C266.357 149.211 266.028 148.361 266.028 147.356C266.028 146.351 266.357 145.519 267.016 144.86C267.674 144.167 268.593 143.82 269.772 143.82C270.916 143.82 271.817 144.167 272.476 144.86C273.169 145.519 273.516 146.351 273.516 147.356C273.516 148.361 273.186 149.211 272.528 149.904C271.869 150.563 270.95 150.892 269.772 150.892ZM304.215 168.416C304.215 170.461 303.885 172.299 303.227 173.928C302.568 175.557 301.649 176.944 300.471 178.088C299.327 179.197 297.975 180.064 296.415 180.688C294.855 181.277 293.173 181.572 291.371 181.572C289.568 181.572 287.887 181.295 286.327 180.74C284.801 180.185 283.467 179.371 282.323 178.296C281.213 177.221 280.329 175.904 279.671 174.344C279.047 172.749 278.735 170.947 278.735 168.936C278.735 166.821 279.064 164.949 279.723 163.32C280.381 161.656 281.283 160.269 282.427 159.16C283.605 158.016 284.975 157.149 286.535 156.56C288.095 155.971 289.776 155.676 291.579 155.676C293.381 155.676 295.045 155.953 296.571 156.508C298.131 157.063 299.465 157.877 300.575 158.952C301.719 159.992 302.603 161.309 303.227 162.904C303.885 164.499 304.215 166.336 304.215 168.416ZM297.091 168.676C297.091 167.255 296.935 166.041 296.623 165.036C296.311 164.031 295.895 163.216 295.375 162.592C294.855 161.968 294.248 161.517 293.555 161.24C292.861 160.928 292.151 160.772 291.423 160.772C290.695 160.772 290.001 160.911 289.343 161.188C288.684 161.431 288.095 161.864 287.575 162.488C287.055 163.077 286.639 163.875 286.327 164.88C286.015 165.885 285.859 167.151 285.859 168.676C285.859 170.028 286.015 171.207 286.327 172.212C286.639 173.183 287.055 173.98 287.575 174.604C288.129 175.228 288.736 175.696 289.395 176.008C290.088 176.32 290.799 176.476 291.527 176.476C292.255 176.476 292.948 176.355 293.607 176.112C294.265 175.835 294.855 175.384 295.375 174.76C295.895 174.136 296.311 173.339 296.623 172.368C296.935 171.363 297.091 170.132 297.091 168.676ZM337.134 143.872H344.05V181H339.11L338.382 178.296H338.122C337.498 179.163 336.597 179.925 335.418 180.584C334.274 181.243 332.766 181.572 330.894 181.572C329.334 181.572 327.878 181.277 326.526 180.688C325.174 180.099 323.995 179.249 322.99 178.14C321.985 177.031 321.187 175.679 320.598 174.084C320.043 172.489 319.766 170.669 319.766 168.624C319.766 166.648 320.026 164.863 320.546 163.268C321.066 161.673 321.811 160.321 322.782 159.212C323.753 158.068 324.949 157.201 326.37 156.612C327.791 155.988 329.421 155.676 331.258 155.676C332.437 155.676 333.546 155.849 334.586 156.196C335.661 156.543 336.51 156.993 337.134 157.548V143.872ZM337.134 162.696C336.683 162.141 336.094 161.673 335.366 161.292C334.638 160.911 333.841 160.72 332.974 160.72C332.142 160.72 331.345 160.859 330.582 161.136C329.854 161.413 329.195 161.864 328.606 162.488C328.051 163.077 327.601 163.875 327.254 164.88C326.907 165.851 326.734 167.047 326.734 168.468C326.734 169.855 326.89 171.051 327.202 172.056C327.514 173.061 327.93 173.893 328.45 174.552C328.97 175.211 329.577 175.696 330.27 176.008C330.998 176.32 331.761 176.476 332.558 176.476C333.667 176.476 334.603 176.216 335.366 175.696C336.163 175.141 336.753 174.5 337.134 173.772V162.696ZM372.519 170.392H356.035V170.6C356.035 172.576 356.728 174.049 358.115 175.02C359.501 175.991 361.287 176.476 363.471 176.476C364.857 176.476 366.071 176.337 367.111 176.06C368.185 175.783 369.156 175.453 370.023 175.072L371.271 179.908C370.335 180.359 369.156 180.74 367.735 181.052C366.313 181.399 364.632 181.572 362.691 181.572C360.819 181.572 359.051 181.329 357.387 180.844C355.757 180.324 354.319 179.544 353.071 178.504C351.857 177.464 350.887 176.147 350.159 174.552C349.431 172.957 349.067 171.051 349.067 168.832C349.067 166.856 349.361 165.071 349.951 163.476C350.54 161.847 351.372 160.46 352.447 159.316C353.556 158.172 354.873 157.288 356.399 156.664C357.924 156.005 359.623 155.676 361.495 155.676C364.857 155.676 367.527 156.699 369.503 158.744C371.513 160.789 372.519 163.649 372.519 167.324V170.392ZM365.447 165.66C365.447 165.001 365.36 164.36 365.187 163.736C365.048 163.112 364.805 162.575 364.459 162.124C364.112 161.639 363.679 161.257 363.159 160.98C362.639 160.703 361.997 160.564 361.235 160.564C359.848 160.564 358.704 161.032 357.803 161.968C356.901 162.904 356.364 164.169 356.191 165.764L365.447 165.66ZM411.468 170.392H394.984V170.6C394.984 172.576 395.677 174.049 397.064 175.02C398.451 175.991 400.236 176.476 402.42 176.476C403.807 176.476 405.02 176.337 406.06 176.06C407.135 175.783 408.105 175.453 408.972 175.072L410.22 179.908C409.284 180.359 408.105 180.74 406.684 181.052C405.263 181.399 403.581 181.572 401.64 181.572C399.768 181.572 398 181.329 396.336 180.844C394.707 180.324 393.268 179.544 392.02 178.504C390.807 177.464 389.836 176.147 389.108 174.552C388.38 172.957 388.016 171.051 388.016 168.832C388.016 166.856 388.311 165.071 388.9 163.476C389.489 161.847 390.321 160.46 391.396 159.316C392.505 158.172 393.823 157.288 395.348 156.664C396.873 156.005 398.572 155.676 400.444 155.676C403.807 155.676 406.476 156.699 408.452 158.744C410.463 160.789 411.468 163.649 411.468 167.324V170.392ZM404.396 165.66C404.396 165.001 404.309 164.36 404.136 163.736C403.997 163.112 403.755 162.575 403.408 162.124C403.061 161.639 402.628 161.257 402.108 160.98C401.588 160.703 400.947 160.564 400.184 160.564C398.797 160.564 397.653 161.032 396.752 161.968C395.851 162.904 395.313 164.169 395.14 165.764L404.396 165.66ZM431.217 156.196H438.549L429.761 181H421.753L413.225 156.196H420.609L424.249 168.572L425.757 176.06H425.965L427.473 168.572L431.217 156.196ZM463.722 170.392H447.238V170.6C447.238 172.576 447.931 174.049 449.318 175.02C450.705 175.991 452.49 176.476 454.674 176.476C456.061 176.476 457.274 176.337 458.314 176.06C459.389 175.783 460.359 175.453 461.226 175.072L462.474 179.908C461.538 180.359 460.359 180.74 458.938 181.052C457.517 181.399 455.835 181.572 453.894 181.572C452.022 181.572 450.254 181.329 448.59 180.844C446.961 180.324 445.522 179.544 444.274 178.504C443.061 177.464 442.09 176.147 441.362 174.552C440.634 172.957 440.27 171.051 440.27 168.832C440.27 166.856 440.565 165.071 441.154 163.476C441.743 161.847 442.575 160.46 443.65 159.316C444.759 158.172 446.077 157.288 447.602 156.664C449.127 156.005 450.826 155.676 452.698 155.676C456.061 155.676 458.73 156.699 460.706 158.744C462.717 160.789 463.722 163.649 463.722 167.324V170.392ZM456.65 165.66C456.65 165.001 456.563 164.36 456.39 163.736C456.251 163.112 456.009 162.575 455.662 162.124C455.315 161.639 454.882 161.257 454.362 160.98C453.842 160.703 453.201 160.564 452.438 160.564C451.051 160.564 449.907 161.032 449.006 161.968C448.105 162.904 447.567 164.169 447.394 165.764L456.65 165.66ZM475.503 181H468.587V156.196H473.995L474.827 159.368C475.971 158.189 477.219 157.288 478.571 156.664C479.957 156.005 481.483 155.676 483.147 155.676C485.885 155.676 487.983 156.421 489.439 157.912C490.895 159.403 491.623 161.569 491.623 164.412V181H484.707V165.14C484.707 163.857 484.395 162.852 483.771 162.124C483.147 161.361 482.228 160.98 481.015 160.98C480.113 160.98 479.16 161.24 478.155 161.76C477.184 162.245 476.3 162.921 475.503 163.788V181ZM512.504 161.188H505.9V172.628C505.9 173.807 506.16 174.621 506.68 175.072C507.235 175.488 507.963 175.696 508.864 175.696C509.558 175.696 510.268 175.627 510.996 175.488C511.724 175.349 512.314 175.159 512.764 174.916L513.804 179.752C513.215 180.029 512.331 180.307 511.152 180.584C509.974 180.861 508.726 181 507.408 181C504.392 181 502.243 180.411 500.96 179.232C499.678 178.019 499.036 176.216 499.036 173.824V161.188H495.188V156.196H499.036V148.552H505.9V156.196H512.504V161.188ZM541.668 168.416C541.668 170.461 541.339 172.299 540.68 173.928C540.021 175.557 539.103 176.944 537.924 178.088C536.78 179.197 535.428 180.064 533.868 180.688C532.308 181.277 530.627 181.572 528.824 181.572C527.021 181.572 525.34 181.295 523.78 180.74C522.255 180.185 520.92 179.371 519.776 178.296C518.667 177.221 517.783 175.904 517.124 174.344C516.5 172.749 516.188 170.947 516.188 168.936C516.188 166.821 516.517 164.949 517.176 163.32C517.835 161.656 518.736 160.269 519.88 159.16C521.059 158.016 522.428 157.149 523.988 156.56C525.548 155.971 527.229 155.676 529.032 155.676C530.835 155.676 532.499 155.953 534.024 156.508C535.584 157.063 536.919 157.877 538.028 158.952C539.172 159.992 540.056 161.309 540.68 162.904C541.339 164.499 541.668 166.336 541.668 168.416ZM534.544 168.676C534.544 167.255 534.388 166.041 534.076 165.036C533.764 164.031 533.348 163.216 532.828 162.592C532.308 161.968 531.701 161.517 531.008 161.24C530.315 160.928 529.604 160.772 528.876 160.772C528.148 160.772 527.455 160.911 526.796 161.188C526.137 161.431 525.548 161.864 525.028 162.488C524.508 163.077 524.092 163.875 523.78 164.88C523.468 165.885 523.312 167.151 523.312 168.676C523.312 170.028 523.468 171.207 523.78 172.212C524.092 173.183 524.508 173.98 525.028 174.604C525.583 175.228 526.189 175.696 526.848 176.008C527.541 176.32 528.252 176.476 528.98 176.476C529.708 176.476 530.401 176.355 531.06 176.112C531.719 175.835 532.308 175.384 532.828 174.76C533.348 174.136 533.764 173.339 534.076 172.368C534.388 171.363 534.544 170.132 534.544 168.676ZM561.563 162.124C559.517 161.153 557.541 160.668 555.635 160.668C554.525 160.668 553.659 160.859 553.035 161.24C552.445 161.621 552.151 162.141 552.151 162.8C552.151 163.459 552.411 163.996 552.931 164.412C553.485 164.828 554.577 165.279 556.207 165.764L557.767 166.232C559.916 166.856 561.545 167.757 562.655 168.936C563.764 170.115 564.319 171.64 564.319 173.512C564.319 175.973 563.365 177.932 561.459 179.388C559.587 180.844 557.039 181.572 553.815 181.572C550.521 181.572 547.696 180.983 545.339 179.804L546.899 174.708C547.904 175.228 548.961 175.661 550.071 176.008C551.18 176.32 552.307 176.476 553.451 176.476C554.837 176.476 555.843 176.268 556.467 175.852C557.125 175.401 557.455 174.829 557.455 174.136C557.455 173.408 557.143 172.853 556.519 172.472C555.895 172.056 554.716 171.605 552.983 171.12L551.371 170.652C549.291 169.959 547.765 169.04 546.795 167.896C545.824 166.752 545.339 165.227 545.339 163.32C545.339 161.067 546.188 159.229 547.887 157.808C549.585 156.387 551.96 155.676 555.011 155.676C558.027 155.676 560.696 156.213 563.019 157.288L561.563 162.124Z" fill="#242424"/>
<g filter="url(#filter0_d_106_13220)">
<path d="M308.932 374.412L255.614 320.869C251.462 316.7 251.462 309.839 255.614 305.67L308.932 252.127C313.084 247.958 319.916 247.958 324.068 252.127L377.386 305.67C381.538 309.839 381.538 316.7 377.386 320.869L324.068 374.412C322.115 376.372 319.084 376.985 316.296 377C313.703 377.014 310.722 376.208 308.932 374.412Z" fill="#28BF40"/>
</g>
<g filter="url(#filter1_d_106_13220)">
<path fill-rule="evenodd" clip-rule="evenodd" d="M352.077 298.905C348.575 298.905 345.677 301.676 345.677 305.028C345.677 307.717 347.537 310.116 350.175 310.902V322.279C350.175 328.733 345.937 332.291 336.423 333.739L333.267 334.194C328.077 335.104 323.71 336.635 320.25 338.827V324.729L320.294 323.897V320.877C322.11 319.346 324.661 318.395 328.164 317.981H328.207C334.218 317.112 337.288 314.382 337.288 309.955V303.294C340.056 302.632 342.175 300.233 342.175 297.337C342.175 293.945 339.277 291.173 335.775 291.173C332.272 291.173 329.375 293.945 329.375 297.378C329.375 300.316 331.58 302.798 334.434 303.377V309.996C334.434 313.058 332.445 314.63 327.775 315.333C324.748 315.664 322.283 316.409 320.337 317.567V294.983C322.672 293.659 324.229 291.26 324.229 288.529C324.229 284.392 320.726 281 316.358 281C312.034 281 308.488 284.351 308.488 288.529C308.488 291.301 310.045 293.701 312.38 294.983V309.55C310.607 308.723 308.488 308.144 305.98 307.854C300.142 307.027 299.407 304.627 299.407 302.6V297.925C302.218 297.305 304.38 294.864 304.38 291.926C304.38 288.575 301.483 285.804 297.98 285.804C294.477 285.804 291.58 288.534 291.58 291.885C291.58 294.822 293.742 297.222 296.553 297.884V302.559C296.553 306.985 299.58 309.674 305.591 310.502C308.488 310.916 310.694 311.536 312.38 312.653V327.496C308.358 325.055 303.299 323.442 296.986 322.697C287.256 321.29 282.931 317.774 282.931 311.196V308.59C285.483 307.762 287.299 305.487 287.299 302.756C287.299 299.405 284.402 296.633 280.899 296.633C277.396 296.633 274.499 299.405 274.499 302.756C274.499 305.445 276.315 307.762 278.867 308.59V311.196C278.867 315.995 280.726 319.76 284.445 322.366C287.256 324.393 291.191 325.717 296.423 326.462H296.467C303.472 327.33 308.661 329.233 312.423 332.212V375.49C312.423 375.49 314.084 376.246 316.423 376.246C318.763 376.246 320.423 375.503 320.423 375.503V355.012L320.337 351.702V343.668C323.71 340.813 328.294 338.951 334.348 337.958L337.331 337.545C342.261 336.759 346.023 335.435 348.748 333.49C352.467 330.884 354.326 327.119 354.326 322.32V310.902C356.661 310.033 358.434 307.758 358.434 305.069C358.434 303.455 357.786 301.925 356.618 300.725C355.407 299.567 353.807 298.905 352.077 298.905ZM335.688 293.49C333.483 293.49 331.667 295.227 331.667 297.378C331.667 299.447 333.526 301.226 335.688 301.226C337.894 301.226 339.71 299.53 339.71 297.378C339.71 295.227 337.937 293.49 335.688 293.49ZM293.872 291.885C293.872 293.995 295.688 295.733 297.894 295.733C300.056 295.733 301.915 293.995 301.915 291.885C301.915 289.775 300.099 288.038 297.894 288.038C295.688 288.038 293.872 289.734 293.872 291.885ZM276.791 302.674C276.791 304.825 278.607 306.521 280.813 306.521C282.975 306.521 284.834 304.783 284.834 302.674C284.834 300.564 283.018 298.826 280.813 298.826C278.607 298.826 276.791 300.522 276.791 302.674ZM310.78 288.447C310.78 291.343 313.245 293.701 316.272 293.701C319.299 293.701 321.764 291.301 321.764 288.405C321.764 285.509 319.299 283.151 316.272 283.151C313.245 283.151 310.78 285.509 310.78 288.447ZM348.056 305.069C348.056 307.179 349.829 308.916 352.077 308.916C354.283 308.916 356.099 307.179 356.099 305.028C356.099 304.035 355.753 303.083 354.975 302.338C354.196 301.635 353.158 301.221 352.077 301.221C349.872 301.221 348.056 302.959 348.056 305.069Z" fill="#FAF8F9"/>
</g>
<g clip-path="url(#clip0_106_13220)">
<path d="M1055.61 478.588C1055.05 479.068 1054.47 479.535 1053.88 479.997H982.676C982.268 479.535 981.859 479.068 981.456 478.588C978.168 474.649 975.274 470.397 972.815 465.895C966.969 455.373 964.955 441.579 964.955 427.53C964.955 426.672 964.961 425.814 964.979 424.956C965.044 421.015 965.263 417.068 965.589 413.185C965.648 412.511 965.707 411.842 965.772 411.173C966.3 405.605 967.04 400.184 967.881 395.119C967.987 394.474 968.094 393.834 968.207 393.201C969.921 383.14 972.219 373.188 975.089 363.394C975.089 363.394 975.184 363.417 975.367 363.465C975.894 363.613 977.156 363.962 979.01 364.512C984.115 366.027 993.704 369.081 1004.76 373.619C1005.37 373.862 1005.98 374.117 1006.59 374.377C1015.95 378.23 1025 382.774 1033.68 387.97C1034.22 388.295 1034.76 388.627 1035.29 388.958V389.006L1034.12 426.743L1044.55 395.326C1046.67 396.941 1048.7 398.616 1050.64 400.35C1051.17 400.823 1051.71 401.309 1052.22 401.812C1056.62 405.841 1060.38 410.521 1063.36 415.689C1078.95 443.78 1072.41 464.433 1055.61 478.588Z" fill="#25B462"/>
<path d="M1045.57 479.997H1043.68C1043.66 479.529 1043.65 479.062 1043.62 478.588C1042.85 464.392 1036.76 448.716 1028.46 433.584C1028.16 433.034 1027.86 432.472 1027.54 431.921C1023.51 424.725 1019.02 417.683 1014.39 410.99C1014.03 410.469 1013.66 409.943 1013.3 409.422C1007.13 400.622 1000.75 392.479 994.996 385.526C994.593 385.029 994.178 384.544 993.77 384.064C985.235 373.838 978.192 366.388 975.367 363.465C974.947 363.033 974.621 362.701 974.396 362.471C974.189 362.246 974.064 362.127 974.041 362.104L974.704 361.441L974.71 361.423L975.385 360.76C975.409 360.79 975.817 361.18 976.54 361.932C977.15 362.553 977.985 363.423 979.01 364.512C982.587 368.299 988.504 374.744 995.351 382.916C995.748 383.39 996.156 383.881 996.565 384.372C1001.24 390.012 1006.3 396.403 1011.32 403.273C1012.58 405.001 1013.8 406.715 1014.99 408.416C1015.36 408.937 1015.73 409.457 1016.09 409.978C1021.1 417.21 1025.48 424.165 1029.23 430.844L1030.17 432.519C1039.71 449.917 1044.85 465.327 1045.52 478.588C1045.54 479.062 1045.56 479.529 1045.57 479.997Z" fill="white"/>
<path d="M1005.8 372.235C1005.47 372.702 1005.12 373.164 1004.76 373.619C1002.05 377.117 998.882 380.242 995.351 382.916C994.836 383.295 994.308 383.685 993.77 384.064C992.299 385.089 990.777 386.037 989.209 386.905C982.748 390.5 975.581 392.648 968.206 393.201C967.97 393.225 967.727 393.243 967.49 393.254C967.383 393.888 967.282 394.521 967.17 395.166C967.407 395.154 967.644 395.142 967.881 395.119C975.693 394.61 983.293 392.373 990.133 388.568C991.806 387.64 993.43 386.625 994.995 385.526C995.528 385.153 996.05 384.762 996.565 384.372C1000.34 381.506 1003.71 378.144 1006.59 374.377C1006.94 373.921 1007.27 373.46 1007.61 372.998C1006.99 372.738 1006.39 372.483 1005.8 372.235Z" fill="white"/>
<path d="M1034.33 386.633C1034.12 387.082 1033.9 387.526 1033.68 387.97C1029.46 396.378 1022.99 403.454 1014.99 408.416C1014.43 408.765 1013.87 409.102 1013.3 409.422C1013.13 409.522 1012.94 409.629 1012.77 409.724C1005.62 413.689 997.622 415.889 989.447 416.141C981.272 416.393 973.155 414.69 965.772 411.173C965.594 411.091 965.423 411.008 965.251 410.925C965.186 411.6 965.126 412.274 965.079 412.955C965.245 413.032 965.417 413.114 965.589 413.185C973.183 416.684 981.497 418.344 989.854 418.031C998.211 417.719 1006.38 415.442 1013.69 411.386C1013.93 411.256 1014.16 411.126 1014.39 410.99C1014.96 410.659 1015.53 410.321 1016.09 409.978C1024.29 404.872 1030.93 397.618 1035.29 389.006C1035.52 388.562 1035.74 388.112 1035.95 387.656C1035.41 387.313 1034.87 386.97 1034.33 386.633Z" fill="white"/>
<path d="M1050.95 399.007C1050.85 399.456 1050.75 399.906 1050.64 400.35C1047.59 412.842 1039.95 423.73 1029.23 430.844C1028.68 431.217 1028.11 431.572 1027.54 431.921C1026.93 432.288 1026.32 432.655 1025.69 432.998C1016.05 438.333 1004.94 440.432 994.008 438.984C983.078 437.536 972.901 432.618 964.979 424.956C964.842 424.832 964.712 424.701 964.582 424.571C964.582 425.453 964.576 426.323 964.588 427.199C964.706 427.311 964.83 427.424 964.955 427.53C973.204 434.997 983.584 439.699 994.642 440.978C1005.7 442.257 1016.88 440.048 1026.62 434.661C1027.25 434.318 1027.86 433.963 1028.46 433.584C1029.04 433.241 1029.6 432.886 1030.17 432.519C1041.04 425.332 1048.89 414.403 1052.22 401.812C1052.33 401.386 1052.45 400.959 1052.55 400.527C1052.03 400.007 1051.49 399.516 1050.95 399.007Z" fill="white"/>
<path d="M1001.3 302.642H664V49.8H1001.3V302.642Z" fill="white"/>
<path d="M745.733 102.57C753.148 102.57 759.159 96.5642 759.159 89.1555C759.159 81.7469 753.148 75.741 745.733 75.741C738.318 75.741 732.307 81.7469 732.307 89.1555C732.307 96.5642 738.318 102.57 745.733 102.57Z" fill="#E6E6E6"/>
<path d="M776.741 80.2124C776.148 80.2135 775.58 80.4495 775.162 80.8687C774.743 81.2878 774.508 81.8559 774.508 82.4482C774.508 83.0404 774.743 83.6085 775.162 84.0277C775.58 84.4468 776.148 84.6828 776.741 84.6839H940.119C940.711 84.6828 941.28 84.4468 941.698 84.0277C942.117 83.6085 942.352 83.0404 942.352 82.4482C942.352 81.8559 942.117 81.2878 941.698 80.8687C941.28 80.4495 940.711 80.2135 940.119 80.2124H776.741Z" fill="#E6E6E6"/>
<path d="M776.741 93.627C776.148 93.6257 775.578 93.8601 775.158 94.2785C774.737 94.6969 774.5 95.265 774.499 95.858C774.498 96.451 774.732 97.0201 775.151 97.4403C775.57 97.8605 776.139 98.0972 776.732 98.0985H880.021C880.315 98.099 880.606 98.0415 880.878 97.9294C881.15 97.8173 881.398 97.6527 881.606 97.445C881.814 97.2374 881.979 96.9907 882.092 96.7192C882.205 96.4477 882.263 96.1566 882.263 95.8627C882.263 95.5688 882.205 95.2777 882.092 95.0062C881.979 94.7347 881.814 94.488 881.606 94.2804C881.398 94.0727 881.15 93.9081 880.878 93.796C880.606 93.6839 880.315 93.6264 880.021 93.627H776.741Z" fill="#E6E6E6"/>
<path d="M1001.3 302.642H664V49.8H1001.3V302.642ZM667.775 298.87H997.521V53.572H667.775V298.87Z" fill="#E6E6E6"/>
<path d="M682.852 126.906V277.292H982.444V126.906H682.852ZM981.004 164.143H907.906V128.345H981.004V164.143ZM833.368 164.143V128.345H906.466V164.143H833.368ZM906.466 165.582V201.38H833.368V165.582H906.466ZM831.928 164.143H758.83V128.345H831.928V164.143ZM831.928 165.582V201.38H758.83V165.582H831.928ZM757.39 201.38H684.293V165.582H757.39V201.38ZM757.39 202.819V238.617H684.293V202.819H757.39ZM758.83 202.819H831.928V238.617H758.83V202.819ZM831.928 240.056V275.853H758.83V240.056H831.928ZM833.368 240.056H906.466V275.853H833.368V240.056ZM833.368 238.617V202.819H906.466V238.617H833.368ZM907.906 202.819H981.004V238.617H907.906V202.819ZM907.906 201.38V165.582H981.004V201.38H907.906ZM757.39 128.345V164.143H684.293V128.345H757.39ZM684.293 240.056H757.39V275.853H684.293V240.056ZM907.906 275.853V240.056H981.004V275.853H907.906Z" fill="#E4E4E4"/>
<path d="M805.838 167.365L776.028 166.69C773.046 155.15 774.388 144.161 776.768 134.036L806.578 134.71C803.562 145.356 803.308 156.593 805.838 167.365Z" fill="#00A656"/>
<path d="M781.875 141.253L781.891 140.119L797.335 140.67L797.318 141.804L781.875 141.253Z" fill="white"/>
<path d="M781.81 145.786L781.826 144.652L797.269 145.204L797.253 146.338L781.81 145.786Z" fill="white"/>
<path d="M781.745 150.319L781.761 149.186L797.205 149.738L797.189 150.871L781.745 150.319Z" fill="white"/>
<path d="M781.68 154.852L781.696 153.719L797.14 154.271L797.123 155.404L781.68 154.852Z" fill="white"/>
<path d="M781.615 159.385L781.631 158.252L797.075 158.804L797.058 159.937L781.615 159.385Z" fill="white"/>
<path d="M741.022 250.833L711.212 250.158C708.23 238.618 709.573 227.629 711.952 217.503L741.762 218.178C738.747 228.824 738.492 240.061 741.022 250.833Z" fill="#F0F0F0"/>
<path d="M717.059 224.72L717.075 223.587L732.519 224.138L732.503 225.272L717.059 224.72Z" fill="white"/>
<path d="M716.995 229.254L717.01 228.12L732.454 228.672L732.438 229.806L716.995 229.254Z" fill="white"/>
<path d="M716.929 233.787L716.946 232.653L732.389 233.205L732.373 234.339L716.929 233.787Z" fill="white"/>
<path d="M716.864 238.32L716.88 237.187L732.324 237.739L732.308 238.872L716.864 238.32Z" fill="white"/>
<path d="M716.799 242.853L716.815 241.72L732.259 242.272L732.243 243.405L716.799 242.853Z" fill="white"/>
<path d="M896.579 212.696L866.769 212.022C863.788 200.481 865.13 189.493 867.509 179.367L897.319 180.042C894.304 190.688 894.049 201.925 896.579 212.696Z" fill="#F0F0F0"/>
<path d="M872.617 186.584L872.633 185.451L888.077 186.002L888.06 187.135L872.617 186.584Z" fill="white"/>
<path d="M872.552 191.117L872.568 189.984L888.011 190.536L887.995 191.669L872.552 191.117Z" fill="white"/>
<path d="M872.486 195.651L872.503 194.517L887.946 195.069L887.93 196.203L872.486 195.651Z" fill="white"/>
<path d="M872.421 200.184L872.437 199.05L887.881 199.602L887.865 200.736L872.421 200.184Z" fill="white"/>
<path d="M872.357 204.717L872.373 203.584L887.817 204.136L887.8 205.269L872.357 204.717Z" fill="white"/>
<path d="M883.616 205.501L853.806 204.827C850.824 193.286 852.167 182.298 854.546 172.172L884.356 172.846C881.341 183.492 881.086 194.73 883.616 205.501Z" fill="#00A656"/>
<path d="M859.654 179.389L859.669 178.255L875.114 178.807L875.097 179.94L859.654 179.389Z" fill="white"/>
<path d="M859.589 183.922L859.604 182.789L875.048 183.34L875.032 184.474L859.589 183.922Z" fill="white"/>
<path d="M859.523 188.455L859.54 187.322L874.983 187.874L874.967 189.007L859.523 188.455Z" fill="white"/>
<path d="M859.458 192.988L859.474 191.855L874.918 192.407L874.902 193.54L859.458 192.988Z" fill="white"/>
<path d="M859.394 197.521L859.409 196.388L874.854 196.94L874.837 198.073L859.394 197.521Z" fill="white"/>
<path d="M993.562 271.232L963.752 270.557C960.77 259.017 962.113 248.028 964.492 237.902L994.302 238.577C991.287 249.223 991.032 260.46 993.562 271.232Z" fill="#00A656"/>
<path d="M969.599 245.119L969.616 243.986L985.059 244.537L985.043 245.671L969.599 245.119Z" fill="white"/>
<path d="M969.535 249.652L969.55 248.519L984.995 249.071L984.978 250.204L969.535 249.652Z" fill="white"/>
<path d="M969.469 254.186L969.486 253.053L984.929 253.604L984.913 254.737L969.469 254.186Z" fill="white"/>
<path d="M969.404 258.719L969.421 257.586L984.864 258.137L984.848 259.27L969.404 258.719Z" fill="white"/>
<path d="M969.339 263.252L969.355 262.119L984.799 262.671L984.783 263.804L969.339 263.252Z" fill="white"/>
<path d="M961.395 173.121L931.585 172.447C928.603 160.906 929.945 149.918 932.325 139.792L962.135 140.466C959.119 151.112 958.865 162.35 961.395 173.121Z" fill="#F0F0F0"/>
<path d="M937.432 147.009L937.448 145.876L952.892 146.427L952.876 147.56L937.432 147.009Z" fill="white"/>
<path d="M937.367 151.542L937.383 150.409L952.826 150.961L952.811 152.094L937.367 151.542Z" fill="white"/>
<path d="M937.302 156.075L937.318 154.942L952.762 155.494L952.746 156.627L937.302 156.075Z" fill="white"/>
<path d="M937.237 160.609L937.253 159.475L952.697 160.027L952.68 161.16L937.237 160.609Z" fill="white"/>
<path d="M937.172 165.142L937.188 164.008L952.632 164.56L952.615 165.693L937.172 165.142Z" fill="white"/>
<path d="M991.955 247.166C992.983 246.913 993.943 246.438 994.767 245.775C995.591 245.111 996.26 244.275 996.726 243.325C997.192 242.375 997.444 241.335 997.464 240.277C997.484 239.219 997.271 238.17 996.842 237.203L1015.64 219.64L1002.63 216.517L986.779 233.675C985.201 234.504 983.983 235.882 983.355 237.549C982.726 239.215 982.731 241.054 983.369 242.717C984.007 244.38 985.234 245.752 986.816 246.572C988.398 247.392 990.227 247.603 991.955 247.166Z" fill="#FFB6B6"/>
<path d="M1001.66 233.019L992.898 220.67L1025.82 186.645L1033.47 133.013C1033.85 130.362 1034.8 127.827 1036.27 125.587C1037.74 123.347 1039.69 121.458 1041.97 120.053C1044.25 118.649 1046.81 117.764 1049.48 117.46C1052.14 117.157 1054.84 117.443 1057.38 118.298C1061.96 119.848 1065.74 123.152 1067.89 127.485C1070.04 131.818 1070.39 136.827 1068.85 141.412L1049.34 199.233L1001.66 233.019Z" fill="#E4E4E4"/>
<path d="M1063.49 461.54L1053.75 461.539L1049.12 424.038L1063.49 424.039L1063.49 461.54Z" fill="#FFB6B6"/>
<path d="M1068.72 480H1061.82L1060.58 473.487L1057.43 480H1039.11C1038.24 480 1037.38 479.72 1036.67 479.2C1035.97 478.68 1035.44 477.948 1035.18 477.111C1034.92 476.274 1034.93 475.375 1035.22 474.546C1035.51 473.716 1036.05 473.001 1036.77 472.502L1051.4 462.411V455.826L1066.78 456.743L1068.72 480Z" fill="#2F2E41"/>
<path d="M1123.52 451.646L1114.97 456.292L1092.97 425.563L1105.58 418.705L1123.52 451.646Z" fill="#FFB6B6"/>
<path d="M1136.95 465.361L1130.88 468.658L1126.69 463.526L1127.03 470.754L1110.94 479.5C1110.17 479.919 1109.29 480.081 1108.42 479.963C1107.55 479.844 1106.74 479.45 1106.11 478.839C1105.48 478.229 1105.06 477.433 1104.91 476.568C1104.77 475.703 1104.9 474.814 1105.3 474.031L1113.32 458.183L1110.17 452.399L1124.12 445.859L1136.95 465.361Z" fill="#2F2E41"/>
<path d="M1067.59 448.186H1047.48V376.637L1035.03 329.992C1026.09 296.634 1023.72 261.86 1028.03 227.599L1028.05 227.459L1028.16 227.368C1028.48 227.1 1060.34 200.775 1080.5 220.913C1094.08 234.487 1081.32 283.295 1080.6 285.974V370.114L1067.59 448.186Z" fill="#2F2E41"/>
<path d="M1021.91 240.595L1028.39 175.836C1027.55 174.07 1015.43 162.884 1028.1 143.217L1041.79 111.112L1067.43 110.714L1067.53 110.822C1073.57 116.835 1078.01 124.245 1080.48 132.392C1082.95 140.54 1083.36 149.171 1081.68 157.516L1074.13 195.255L1080.68 221.413L1021.91 240.595Z" fill="#E4E4E4"/>
<path d="M1055.59 377.007L1096.9 435.065L1112.75 423.808L1078.24 352.967L1055.59 377.007Z" fill="#2F2E41"/>
<path d="M1052.21 104.586C1065.29 104.586 1075.89 93.9969 1075.89 80.9345C1075.89 67.872 1065.29 57.2828 1052.21 57.2828C1039.14 57.2828 1028.54 67.872 1028.54 80.9345C1028.54 93.9969 1039.14 104.586 1052.21 104.586Z" fill="#FFB6B6"/>
<path opacity="0.1" d="M1046.39 166.481L1052.88 205.337L1046.39 237.717H1033.43L1039.32 205.337L1046.39 166.481Z" fill="black"/>
<path d="M1052.58 271.079C1053.37 270.372 1053.99 269.502 1054.4 268.528C1054.82 267.555 1055.01 266.503 1054.98 265.445C1054.94 264.388 1054.67 263.352 1054.19 262.41C1053.71 261.467 1053.03 260.641 1052.2 259.991L1060.5 235.653L1047.56 239.016L1041.66 261.612C1040.65 263.085 1040.23 264.874 1040.46 266.64C1040.69 268.406 1041.56 270.026 1042.91 271.193C1044.25 272.36 1045.98 272.993 1047.77 272.972C1049.55 272.951 1051.26 272.277 1052.58 271.079Z" fill="#FFB6B6"/>
<path d="M1054.48 254.03L1040.93 247.26L1053.94 201.753L1035.41 150.841C1034.49 148.325 1034.14 145.637 1034.38 142.971C1034.62 140.304 1035.45 137.722 1036.8 135.41C1038.15 133.097 1040 131.11 1042.2 129.59C1044.41 128.07 1046.92 127.053 1049.57 126.613C1054.34 125.823 1059.24 126.958 1063.18 129.769C1067.11 132.581 1069.78 136.838 1070.58 141.608L1080.62 201.796L1054.48 254.03Z" fill="#E4E4E4"/>
<path d="M1144.28 79.7779C1141.29 84.622 1134.97 86.7575 1129.36 85.7876C1123.74 84.8177 1118.87 81.1993 1115.27 76.7921C1111.67 72.3849 1109.18 67.1973 1106.72 62.0621C1104.27 56.9269 1101.79 51.7352 1098.21 47.3135C1094.63 42.8916 1089.78 39.2454 1084.17 38.2299C1081.12 37.6772 1077.67 38.042 1075.45 40.1974C1073.91 41.8129 1073.07 43.9658 1073.11 46.1922C1072.14 45.8511 1071.11 45.7536 1070.09 45.9082C1069.07 46.0628 1068.11 46.4648 1067.29 47.0789C1066.46 47.6929 1065.8 48.5 1065.36 49.4292C1064.93 50.3583 1064.72 51.3809 1064.77 52.4068C1064.69 52.4052 1064.61 52.3997 1064.52 52.3997C1054.09 46.4695 1038.24 49.9145 1038.24 56.3904C1032.51 56.3904 1025.51 62.0427 1025.51 70.6257C1037.36 70.6257 1044.33 85.7901 1037.41 96.6631C1035.63 99.4365 1033.66 102.088 1031.52 104.6H1046.33C1047.58 102.819 1048.33 100.741 1048.51 98.5767C1049.05 100.543 1049.38 102.563 1049.48 104.6C1049.48 104.6 1089.94 109.81 1079.5 69.5129C1080.19 69.4784 1080.86 69.2749 1081.45 68.9202C1083.03 67.9706 1083.89 65.9621 1084.04 63.9241C1084.43 64.0284 1084.82 64.1324 1085.21 64.2362C1087.99 64.987 1090.88 65.96 1092.79 68.1177C1096.02 71.7645 1095.34 77.2997 1096.52 82.026C1097.93 87.7256 1102.16 92.3357 1106.86 95.8618C1111.91 99.6503 1117.81 102.529 1124.09 103.126C1130.38 103.724 1137.07 101.814 1141.42 97.2458C1145.78 92.678 1147.3 85.3195 1144.28 79.7779Z" fill="#8954EB"/>
</g>
<defs>
<filter id="filter0_d_106_13220" x="252.5" y="249" width="132" height="132" filterUnits="userSpaceOnUse" color-interpolation-filters="sRGB">
<feFlood flood-opacity="0" result="BackgroundImageFix"/>
<feColorMatrix in="SourceAlpha" type="matrix" values="0 0 0 0 0 0 0 0 0 0 0 0 0 0 0 0 0 0 127 0" result="hardAlpha"/>
<feOffset dx="4" dy="4"/>
<feComposite in2="hardAlpha" operator="out"/>
<feColorMatrix type="matrix" values="0 0 0 0 0.133513 0 0 0 0 0.616585 0 0 0 0 0.212062 0 0 0 1 0"/>
<feBlend mode="normal" in2="BackgroundImageFix" result="effect1_dropShadow_106_13220"/>
<feBlend mode="normal" in="SourceGraphic" in2="effect1_dropShadow_106_13220" result="shape"/>
</filter>
<filter id="filter1_d_106_13220" x="274.499" y="281" width="85.9351" height="97.2461" filterUnits="userSpaceOnUse" color-interpolation-filters="sRGB">
<feFlood flood-opacity="0" result="BackgroundImageFix"/>
<feColorMatrix in="SourceAlpha" type="matrix" values="0 0 0 0 0 0 0 0 0 0 0 0 0 0 0 0 0 0 127 0" result="hardAlpha"/>
<feOffset dx="2" dy="2"/>
<feComposite in2="hardAlpha" operator="out"/>
<feColorMatrix type="matrix" values="0 0 0 0 0.133333 0 0 0 0 0.615686 0 0 0 0 0.211765 0 0 0 0.5 0"/>
<feBlend mode="normal" in2="BackgroundImageFix" result="effect1_dropShadow_106_13220"/>
<feBlend mode="normal" in="SourceGraphic" in2="effect1_dropShadow_106_13220" result="shape"/>
</filter>
<clipPath id="clip0_106_13220">
<rect width="577" height="442" fill="white" transform="translate(664 38)"/>
</clipPath>
</defs>
</svg>
