<svg viewBox="0 0 1280 480" fill="none" xmlns="http://www.w3.org/2000/svg">
<g clip-path="url(#clip0_109_13686)">
<rect width="1280" height="480" fill="#FFF8F5"/>
<path d="M772.883 138.92C774.845 138.92 776.509 138.749 777.875 138.408C779.24 138.067 780.413 137.597 781.395 137L783.187 143.4C782.163 143.997 780.712 144.531 778.835 145C776.957 145.469 774.675 145.704 771.987 145.704C768.957 145.704 766.163 145.235 763.603 144.296C761.043 143.315 758.824 141.928 756.947 140.136C755.112 138.301 753.683 136.104 752.659 133.544C751.635 130.941 751.123 128.019 751.123 124.776C751.123 121.619 751.613 118.76 752.595 116.2C753.619 113.64 755.027 111.464 756.819 109.672C758.653 107.837 760.872 106.429 763.475 105.448C766.077 104.467 768.979 103.976 772.179 103.976C774.909 103.976 777.149 104.232 778.899 104.744C780.691 105.256 782.141 105.811 783.251 106.408L781.267 112.872C780.157 112.275 778.92 111.784 777.555 111.4C776.232 110.973 774.739 110.76 773.075 110.76C771.325 110.76 769.683 111.016 768.147 111.528C766.611 112.04 765.267 112.872 764.115 114.024C762.963 115.133 762.045 116.584 761.363 118.376C760.723 120.125 760.403 122.259 760.403 124.776C760.403 127.208 760.723 129.32 761.363 131.112C762.003 132.861 762.877 134.312 763.987 135.464C765.139 136.616 766.461 137.491 767.955 138.088C769.491 138.643 771.133 138.92 772.883 138.92ZM817.349 129.512C817.349 132.029 816.943 134.291 816.132 136.296C815.322 138.301 814.191 140.008 812.741 141.416C811.333 142.781 809.669 143.848 807.749 144.616C805.829 145.341 803.759 145.704 801.541 145.704C799.322 145.704 797.253 145.363 795.333 144.68C793.455 143.997 791.813 142.995 790.405 141.672C789.039 140.349 787.951 138.728 787.141 136.808C786.373 134.845 785.989 132.627 785.989 130.152C785.989 127.549 786.394 125.245 787.205 123.24C788.015 121.192 789.125 119.485 790.533 118.12C791.983 116.712 793.669 115.645 795.589 114.92C797.509 114.195 799.578 113.832 801.797 113.832C804.015 113.832 806.063 114.173 807.941 114.856C809.861 115.539 811.503 116.541 812.869 117.864C814.277 119.144 815.365 120.765 816.132 122.728C816.943 124.691 817.349 126.952 817.349 129.512ZM808.581 129.832C808.581 128.083 808.389 126.589 808.005 125.352C807.621 124.115 807.109 123.112 806.469 122.344C805.829 121.576 805.082 121.021 804.229 120.68C803.375 120.296 802.501 120.104 801.605 120.104C800.709 120.104 799.855 120.275 799.045 120.616C798.234 120.915 797.509 121.448 796.869 122.216C796.229 122.941 795.717 123.923 795.333 125.16C794.949 126.397 794.757 127.955 794.757 129.832C794.757 131.496 794.949 132.947 795.333 134.184C795.717 135.379 796.229 136.36 796.869 137.128C797.551 137.896 798.298 138.472 799.109 138.856C799.962 139.24 800.837 139.432 801.733 139.432C802.629 139.432 803.482 139.283 804.293 138.984C805.103 138.643 805.829 138.088 806.469 137.32C807.109 136.552 807.621 135.571 808.005 134.376C808.389 133.139 808.581 131.624 808.581 129.832ZM831.915 145H823.403V114.472H830.059L831.083 118.376C832.491 116.925 834.027 115.816 835.691 115.048C837.397 114.237 839.275 113.832 841.323 113.832C844.693 113.832 847.275 114.749 849.067 116.584C850.859 118.419 851.755 121.085 851.755 124.584V145H843.243V125.48C843.243 123.901 842.859 122.664 842.091 121.768C841.323 120.829 840.192 120.36 838.699 120.36C837.589 120.36 836.416 120.68 835.179 121.32C833.984 121.917 832.896 122.749 831.915 123.816V145ZM877.455 120.616H869.327V134.696C869.327 136.147 869.647 137.149 870.287 137.704C870.97 138.216 871.866 138.472 872.975 138.472C873.828 138.472 874.703 138.387 875.599 138.216C876.495 138.045 877.22 137.811 877.775 137.512L879.055 143.464C878.33 143.805 877.242 144.147 875.791 144.488C874.34 144.829 872.804 145 871.183 145C867.471 145 864.826 144.275 863.247 142.824C861.668 141.331 860.879 139.112 860.879 136.168V120.616H856.143V114.472H860.879V105.064H869.327V114.472H877.455V120.616ZM910.853 131.944H890.565V132.2C890.565 134.632 891.418 136.445 893.125 137.64C894.831 138.835 897.029 139.432 899.717 139.432C901.423 139.432 902.917 139.261 904.197 138.92C905.519 138.579 906.714 138.173 907.781 137.704L909.317 143.656C908.165 144.211 906.714 144.68 904.965 145.064C903.215 145.491 901.146 145.704 898.757 145.704C896.453 145.704 894.277 145.405 892.229 144.808C890.223 144.168 888.453 143.208 886.917 141.928C885.423 140.648 884.229 139.027 883.333 137.064C882.437 135.101 881.989 132.755 881.989 130.024C881.989 127.592 882.351 125.395 883.077 123.432C883.802 121.427 884.826 119.72 886.149 118.312C887.514 116.904 889.135 115.816 891.013 115.048C892.89 114.237 894.981 113.832 897.285 113.832C901.423 113.832 904.709 115.091 907.141 117.608C909.615 120.125 910.853 123.645 910.853 128.168V131.944ZM902.149 126.12C902.149 125.309 902.042 124.52 901.829 123.752C901.658 122.984 901.359 122.323 900.933 121.768C900.506 121.171 899.973 120.701 899.333 120.36C898.693 120.019 897.903 119.848 896.965 119.848C895.258 119.848 893.85 120.424 892.741 121.576C891.631 122.728 890.97 124.285 890.757 126.248L902.149 126.12ZM950.022 121.768C947.505 120.573 945.073 119.976 942.726 119.976C941.361 119.976 940.294 120.211 939.526 120.68C938.801 121.149 938.438 121.789 938.438 122.6C938.438 123.411 938.758 124.072 939.398 124.584C940.081 125.096 941.425 125.651 943.43 126.248L945.35 126.824C947.995 127.592 950.001 128.701 951.366 130.152C952.731 131.603 953.414 133.48 953.414 135.784C953.414 138.813 952.241 141.224 949.894 143.016C947.59 144.808 944.454 145.704 940.486 145.704C936.433 145.704 932.955 144.979 930.054 143.528L931.974 137.256C933.211 137.896 934.513 138.429 935.878 138.856C937.243 139.24 938.63 139.432 940.038 139.432C941.745 139.432 942.982 139.176 943.75 138.664C944.561 138.109 944.966 137.405 944.966 136.552C944.966 135.656 944.582 134.973 943.814 134.504C943.046 133.992 941.595 133.437 939.462 132.84L937.478 132.264C934.918 131.411 933.041 130.28 931.846 128.872C930.651 127.464 930.054 125.587 930.054 123.24C930.054 120.467 931.099 118.205 933.19 116.456C935.281 114.707 938.203 113.832 941.958 113.832C945.67 113.832 948.955 114.493 951.814 115.816L950.022 121.768ZM989.099 129.512C989.099 132.029 988.693 134.291 987.882 136.296C987.072 138.301 985.941 140.008 984.491 141.416C983.083 142.781 981.419 143.848 979.499 144.616C977.579 145.341 975.509 145.704 973.291 145.704C971.072 145.704 969.003 145.363 967.083 144.68C965.205 143.997 963.563 142.995 962.155 141.672C960.789 140.349 959.701 138.728 958.891 136.808C958.123 134.845 957.739 132.627 957.739 130.152C957.739 127.549 958.144 125.245 958.955 123.24C959.765 121.192 960.875 119.485 962.283 118.12C963.733 116.712 965.419 115.645 967.339 114.92C969.259 114.195 971.328 113.832 973.547 113.832C975.765 113.832 977.813 114.173 979.691 114.856C981.611 115.539 983.253 116.541 984.619 117.864C986.027 119.144 987.115 120.765 987.882 122.728C988.693 124.691 989.099 126.952 989.099 129.512ZM980.331 129.832C980.331 128.083 980.139 126.589 979.755 125.352C979.371 124.115 978.859 123.112 978.219 122.344C977.579 121.576 976.832 121.021 975.979 120.68C975.125 120.296 974.251 120.104 973.355 120.104C972.459 120.104 971.605 120.275 970.795 120.616C969.984 120.915 969.259 121.448 968.619 122.216C967.979 122.941 967.467 123.923 967.083 125.16C966.699 126.397 966.507 127.955 966.507 129.832C966.507 131.496 966.699 132.947 967.083 134.184C967.467 135.379 967.979 136.36 968.619 137.128C969.301 137.896 970.048 138.472 970.859 138.856C971.712 139.24 972.587 139.432 973.483 139.432C974.379 139.432 975.232 139.283 976.043 138.984C976.853 138.643 977.579 138.088 978.219 137.32C978.859 136.552 979.371 135.571 979.755 134.376C980.139 133.139 980.331 131.624 980.331 129.832ZM1025.42 129.832C1025.42 132.264 1025.06 134.461 1024.34 136.424C1023.61 138.387 1022.61 140.072 1021.33 141.48C1020.05 142.845 1018.53 143.891 1016.78 144.616C1015.04 145.341 1013.14 145.704 1011.09 145.704C1009.08 145.704 1007.38 145.405 1005.97 144.808C1004.56 144.168 1003.32 143.293 1002.26 142.184H1002L1001.42 145H995.281V99.304H1003.73V116.968C1004.8 115.987 1006.03 115.219 1007.44 114.664C1008.89 114.109 1010.43 113.832 1012.05 113.832C1016.23 113.832 1019.49 115.24 1021.84 118.056C1024.23 120.872 1025.42 124.797 1025.42 129.832ZM1016.66 130.024C1016.66 126.867 1016.04 124.477 1014.8 122.856C1013.56 121.192 1011.81 120.36 1009.55 120.36C1008.36 120.36 1007.25 120.659 1006.22 121.256C1005.2 121.811 1004.39 122.451 1003.79 123.176V137.192C1004.35 137.832 1005.05 138.365 1005.9 138.792C1006.8 139.219 1007.74 139.432 1008.72 139.432C1009.74 139.432 1010.73 139.24 1011.66 138.856C1012.65 138.472 1013.5 137.896 1014.22 137.128C1014.99 136.36 1015.59 135.4 1016.02 134.248C1016.44 133.053 1016.66 131.645 1016.66 130.024ZM1031.53 145V114.472H1038.12L1039.08 119.976C1039.8 118.355 1040.96 116.925 1042.54 115.688C1044.11 114.451 1046.1 113.832 1048.49 113.832C1049.47 113.832 1050.34 113.939 1051.11 114.152C1051.88 114.365 1052.52 114.621 1053.03 114.92L1051.62 121.64C1051.15 121.384 1050.56 121.171 1049.83 121C1049.11 120.787 1048.25 120.68 1047.27 120.68C1045.18 120.68 1043.43 121.384 1042.02 122.792C1040.66 124.157 1039.98 126.419 1039.98 129.576V145H1031.53ZM1082.04 131.944H1061.75V132.2C1061.75 134.632 1062.61 136.445 1064.31 137.64C1066.02 138.835 1068.22 139.432 1070.9 139.432C1072.61 139.432 1074.1 139.261 1075.38 138.92C1076.71 138.579 1077.9 138.173 1078.97 137.704L1080.5 143.656C1079.35 144.211 1077.9 144.68 1076.15 145.064C1074.4 145.491 1072.33 145.704 1069.94 145.704C1067.64 145.704 1065.46 145.405 1063.42 144.808C1061.41 144.168 1059.64 143.208 1058.1 141.928C1056.61 140.648 1055.42 139.027 1054.52 137.064C1053.62 135.101 1053.18 132.755 1053.18 130.024C1053.18 127.592 1053.54 125.395 1054.26 123.432C1054.99 121.427 1056.01 119.72 1057.34 118.312C1058.7 116.904 1060.32 115.816 1062.2 115.048C1064.08 114.237 1066.17 113.832 1068.47 113.832C1072.61 113.832 1075.9 115.091 1078.33 117.608C1080.8 120.125 1082.04 123.645 1082.04 128.168V131.944ZM1073.34 126.12C1073.34 125.309 1073.23 124.52 1073.02 123.752C1072.85 122.984 1072.55 122.323 1072.12 121.768C1071.69 121.171 1071.16 120.701 1070.52 120.36C1069.88 120.019 1069.09 119.848 1068.15 119.848C1066.45 119.848 1065.04 120.424 1063.93 121.576C1062.82 122.728 1062.16 124.285 1061.94 126.248L1073.34 126.12ZM1121.72 114.472H1130.75L1119.93 145H1110.07L1099.58 114.472H1108.67L1113.15 129.704L1115 138.92H1115.26L1117.11 129.704L1121.72 114.472ZM1164.22 129.512C1164.22 132.029 1163.82 134.291 1163.01 136.296C1162.2 138.301 1161.07 140.008 1159.62 141.416C1158.21 142.781 1156.54 143.848 1154.62 144.616C1152.7 145.341 1150.63 145.704 1148.42 145.704C1146.2 145.704 1144.13 145.363 1142.21 144.68C1140.33 143.997 1138.69 142.995 1137.28 141.672C1135.91 140.349 1134.83 138.728 1134.02 136.808C1133.25 134.845 1132.86 132.627 1132.86 130.152C1132.86 127.549 1133.27 125.245 1134.08 123.24C1134.89 121.192 1136 119.485 1137.41 118.12C1138.86 116.712 1140.54 115.645 1142.46 114.92C1144.38 114.195 1146.45 113.832 1148.67 113.832C1150.89 113.832 1152.94 114.173 1154.82 114.856C1156.74 115.539 1158.38 116.541 1159.74 117.864C1161.15 119.144 1162.24 120.765 1163.01 122.728C1163.82 124.691 1164.22 126.952 1164.22 129.512ZM1155.46 129.832C1155.46 128.083 1155.26 126.589 1154.88 125.352C1154.5 124.115 1153.98 123.112 1153.34 122.344C1152.7 121.576 1151.96 121.021 1151.1 120.68C1150.25 120.296 1149.38 120.104 1148.48 120.104C1147.58 120.104 1146.73 120.275 1145.92 120.616C1145.11 120.915 1144.38 121.448 1143.74 122.216C1143.1 122.941 1142.59 123.923 1142.21 125.16C1141.82 126.397 1141.63 127.955 1141.63 129.832C1141.63 131.496 1141.82 132.947 1142.21 134.184C1142.59 135.379 1143.1 136.36 1143.74 137.128C1144.43 137.896 1145.17 138.472 1145.98 138.856C1146.84 139.24 1147.71 139.432 1148.61 139.432C1149.5 139.432 1150.36 139.283 1151.17 138.984C1151.98 138.643 1152.7 138.088 1153.34 137.32C1153.98 136.552 1154.5 135.571 1154.88 134.376C1155.26 133.139 1155.46 131.624 1155.46 129.832ZM1186.28 139.432C1187.64 139.432 1188.84 139.261 1189.86 138.92C1190.93 138.536 1191.8 138.173 1192.49 137.832L1194.09 143.72C1193.23 144.189 1191.99 144.637 1190.37 145.064C1188.75 145.491 1186.98 145.704 1185.06 145.704C1182.76 145.704 1180.6 145.363 1178.6 144.68C1176.59 143.997 1174.84 142.995 1173.35 141.672C1171.9 140.307 1170.75 138.643 1169.89 136.68C1169.04 134.717 1168.61 132.435 1168.61 129.832C1168.61 127.443 1169.02 125.267 1169.83 123.304C1170.64 121.341 1171.77 119.656 1173.22 118.248C1174.67 116.84 1176.42 115.752 1178.47 114.984C1180.52 114.216 1182.76 113.832 1185.19 113.832C1186.51 113.832 1187.9 113.96 1189.35 114.216C1190.84 114.472 1192.4 115.027 1194.02 115.88L1192.23 121.768C1191.33 121.256 1190.35 120.851 1189.29 120.552C1188.26 120.211 1187.22 120.04 1186.15 120.04C1183.5 120.04 1181.35 120.851 1179.69 122.472C1178.06 124.093 1177.25 126.461 1177.25 129.576C1177.25 131.411 1177.51 132.968 1178.02 134.248C1178.58 135.485 1179.28 136.488 1180.13 137.256C1180.99 138.024 1181.95 138.579 1183.01 138.92C1184.08 139.261 1185.17 139.432 1186.28 139.432ZM1225.29 131.496H1205V131.752C1205 134.355 1205.86 136.296 1207.56 137.576C1209.27 138.813 1211.47 139.432 1214.15 139.432C1215.86 139.432 1217.35 139.261 1218.63 138.92C1219.96 138.579 1221.15 138.173 1222.22 137.704L1223.75 143.656C1222.6 144.211 1221.15 144.68 1219.4 145.064C1217.65 145.491 1215.58 145.704 1213.19 145.704C1210.89 145.704 1208.71 145.405 1206.67 144.808C1204.66 144.168 1202.89 143.208 1201.35 141.928C1199.86 140.648 1198.67 139.027 1197.77 137.064C1196.87 135.101 1196.43 132.755 1196.43 130.024C1196.43 127.592 1196.79 125.395 1197.51 123.432C1198.24 121.427 1199.26 119.72 1200.59 118.312C1201.95 116.904 1203.57 115.816 1205.45 115.048C1207.33 114.237 1209.42 113.832 1211.72 113.832C1215.86 113.832 1219.15 115.091 1221.58 117.608C1224.05 120.125 1225.29 123.645 1225.29 128.168V131.496ZM1216.59 126.12C1216.59 125.309 1216.48 124.52 1216.27 123.752C1216.1 122.984 1215.8 122.323 1215.37 121.768C1214.94 121.171 1214.41 120.701 1213.77 120.36C1213.13 120.019 1212.34 119.848 1211.4 119.848C1209.7 119.848 1208.29 120.424 1207.18 121.576C1206.07 122.728 1205.41 124.285 1205.19 126.248L1216.59 126.12ZM1221.9 109.928H1215.56L1211.59 105L1207.56 109.928H1201.03L1209.1 100.84H1214.03L1221.9 109.928ZM827.602 217H819.09V186.472H825.746L826.77 190.376C828.178 188.925 829.714 187.816 831.378 187.048C833.085 186.237 834.962 185.832 837.01 185.832C840.381 185.832 842.962 186.749 844.754 188.584C846.546 190.419 847.442 193.085 847.442 196.584V217H838.93V197.48C838.93 195.901 838.546 194.664 837.778 193.768C837.01 192.829 835.879 192.36 834.386 192.36C833.277 192.36 832.103 192.68 830.866 193.32C829.671 193.917 828.583 194.749 827.602 195.816V217ZM884.911 201.512C884.911 204.029 884.506 206.291 883.695 208.296C882.884 210.301 881.754 212.008 880.303 213.416C878.895 214.781 877.231 215.848 875.311 216.616C873.391 217.341 871.322 217.704 869.103 217.704C866.884 217.704 864.815 217.363 862.895 216.68C861.018 215.997 859.375 214.995 857.967 213.672C856.602 212.349 855.514 210.728 854.703 208.808C853.935 206.845 853.551 204.627 853.551 202.152C853.551 199.549 853.956 197.245 854.767 195.24C855.578 193.192 856.687 191.485 858.095 190.12C859.546 188.712 861.231 187.645 863.151 186.92C865.071 186.195 867.14 185.832 869.359 185.832C871.578 185.832 873.626 186.173 875.503 186.856C877.423 187.539 879.066 188.541 880.431 189.864C881.839 191.144 882.927 192.765 883.695 194.728C884.506 196.691 884.911 198.952 884.911 201.512ZM876.143 201.832C876.143 200.083 875.951 198.589 875.567 197.352C875.183 196.115 874.671 195.112 874.031 194.344C873.391 193.576 872.644 193.021 871.791 192.68C870.938 192.296 870.063 192.104 869.167 192.104C868.271 192.104 867.418 192.275 866.607 192.616C865.796 192.915 865.071 193.448 864.431 194.216C863.791 194.941 863.279 195.923 862.895 197.16C862.511 198.397 862.319 199.955 862.319 201.832C862.319 203.496 862.511 204.947 862.895 206.184C863.279 207.379 863.791 208.36 864.431 209.128C865.114 209.896 865.86 210.472 866.671 210.856C867.524 211.24 868.399 211.432 869.295 211.432C870.191 211.432 871.044 211.283 871.855 210.984C872.666 210.643 873.391 210.088 874.031 209.32C874.671 208.552 875.183 207.571 875.567 206.376C875.951 205.139 876.143 203.624 876.143 201.832ZM924.147 193.768C921.63 192.573 919.198 191.976 916.851 191.976C915.486 191.976 914.419 192.211 913.651 192.68C912.926 193.149 912.563 193.789 912.563 194.6C912.563 195.411 912.883 196.072 913.523 196.584C914.206 197.096 915.55 197.651 917.555 198.248L919.475 198.824C922.12 199.592 924.126 200.701 925.491 202.152C926.856 203.603 927.539 205.48 927.539 207.784C927.539 210.813 926.366 213.224 924.019 215.016C921.715 216.808 918.579 217.704 914.611 217.704C910.558 217.704 907.08 216.979 904.179 215.528L906.099 209.256C907.336 209.896 908.638 210.429 910.003 210.856C911.368 211.24 912.755 211.432 914.163 211.432C915.87 211.432 917.107 211.176 917.875 210.664C918.686 210.109 919.091 209.405 919.091 208.552C919.091 207.656 918.707 206.973 917.939 206.504C917.171 205.992 915.72 205.437 913.587 204.84L911.603 204.264C909.043 203.411 907.166 202.28 905.971 200.872C904.776 199.464 904.179 197.587 904.179 195.24C904.179 192.467 905.224 190.205 907.315 188.456C909.406 186.707 912.328 185.832 916.083 185.832C919.795 185.832 923.08 186.493 925.939 187.816L924.147 193.768ZM960.415 203.944H940.127V204.2C940.127 206.632 940.98 208.445 942.687 209.64C944.394 210.835 946.591 211.432 949.279 211.432C950.986 211.432 952.479 211.261 953.759 210.92C955.082 210.579 956.276 210.173 957.343 209.704L958.879 215.656C957.727 216.211 956.276 216.68 954.527 217.064C952.778 217.491 950.708 217.704 948.319 217.704C946.015 217.704 943.839 217.405 941.791 216.808C939.786 216.168 938.015 215.208 936.479 213.928C934.986 212.648 933.791 211.027 932.895 209.064C931.999 207.101 931.551 204.755 931.551 202.024C931.551 199.592 931.914 197.395 932.639 195.432C933.364 193.427 934.388 191.72 935.711 190.312C937.076 188.904 938.698 187.816 940.575 187.048C942.452 186.237 944.543 185.832 946.847 185.832C950.986 185.832 954.271 187.091 956.703 189.608C959.178 192.125 960.415 195.645 960.415 200.168V203.944ZM951.711 198.12C951.711 197.309 951.604 196.52 951.391 195.752C951.22 194.984 950.922 194.323 950.495 193.768C950.068 193.171 949.535 192.701 948.895 192.36C948.255 192.019 947.466 191.848 946.527 191.848C944.82 191.848 943.412 192.424 942.303 193.576C941.194 194.728 940.532 196.285 940.319 198.248L951.711 198.12ZM986.115 186.472H994.627V217H988.291L987.395 213.544H987.139C986.669 214.013 986.115 214.504 985.475 215.016C984.877 215.485 984.152 215.933 983.299 216.36C982.488 216.744 981.549 217.064 980.483 217.32C979.459 217.576 978.307 217.704 977.027 217.704C973.741 217.704 971.139 216.787 969.219 214.952C967.341 213.117 966.403 210.408 966.403 206.824V186.472H974.915V206.12C974.915 207.955 975.341 209.277 976.195 210.088C977.091 210.899 978.221 211.304 979.587 211.304C981.123 211.304 982.424 210.984 983.491 210.344C984.6 209.704 985.475 208.957 986.115 208.104V186.472ZM1031.43 217.704C1030.32 217.704 1029.21 217.555 1028.1 217.256C1027.03 217 1026.14 216.659 1025.41 216.232V231.72H1016.96V186.344H1023.43L1024.32 189.736C1025.56 188.541 1026.97 187.603 1028.55 186.92C1030.13 186.195 1031.9 185.832 1033.86 185.832C1037.87 185.832 1041.03 187.197 1043.33 189.928C1045.68 192.616 1046.85 196.349 1046.85 201.128C1046.85 203.816 1046.45 206.205 1045.64 208.296C1044.82 210.344 1043.72 212.072 1042.31 213.48C1040.9 214.888 1039.26 215.955 1037.38 216.68C1035.5 217.363 1033.52 217.704 1031.43 217.704ZM1031.56 192.232C1030.15 192.232 1028.91 192.573 1027.84 193.256C1026.78 193.896 1025.97 194.557 1025.41 195.24V209.832C1026.73 210.899 1028.38 211.432 1030.34 211.432C1031.28 211.432 1032.2 211.261 1033.09 210.92C1034.03 210.536 1034.86 209.96 1035.59 209.192C1036.36 208.381 1036.95 207.336 1037.38 206.056C1037.85 204.776 1038.08 203.219 1038.08 201.384C1038.08 200.061 1037.93 198.845 1037.64 197.736C1037.38 196.627 1036.97 195.667 1036.42 194.856C1035.86 194.045 1035.18 193.405 1034.37 192.936C1033.56 192.467 1032.62 192.232 1031.56 192.232ZM1080.04 203.944H1059.75V204.2C1059.75 206.632 1060.61 208.445 1062.31 209.64C1064.02 210.835 1066.22 211.432 1068.9 211.432C1070.61 211.432 1072.1 211.261 1073.38 210.92C1074.71 210.579 1075.9 210.173 1076.97 209.704L1078.5 215.656C1077.35 216.211 1075.9 216.68 1074.15 217.064C1072.4 217.491 1070.33 217.704 1067.94 217.704C1065.64 217.704 1063.46 217.405 1061.42 216.808C1059.41 216.168 1057.64 215.208 1056.1 213.928C1054.61 212.648 1053.42 211.027 1052.52 209.064C1051.62 207.101 1051.18 204.755 1051.18 202.024C1051.18 199.592 1051.54 197.395 1052.26 195.432C1052.99 193.427 1054.01 191.72 1055.34 190.312C1056.7 188.904 1058.32 187.816 1060.2 187.048C1062.08 186.237 1064.17 185.832 1066.47 185.832C1070.61 185.832 1073.9 187.091 1076.33 189.608C1078.8 192.125 1080.04 195.645 1080.04 200.168V203.944ZM1071.34 198.12C1071.34 197.309 1071.23 196.52 1071.02 195.752C1070.85 194.984 1070.55 194.323 1070.12 193.768C1069.69 193.171 1069.16 192.701 1068.52 192.36C1067.88 192.019 1067.09 191.848 1066.15 191.848C1064.45 191.848 1063.04 192.424 1061.93 193.576C1060.82 194.728 1060.16 196.285 1059.94 198.248L1071.34 198.12ZM1086.03 217V186.472H1092.62L1093.58 191.976C1094.3 190.355 1095.46 188.925 1097.04 187.688C1098.61 186.451 1100.6 185.832 1102.99 185.832C1103.97 185.832 1104.84 185.939 1105.61 186.152C1106.38 186.365 1107.02 186.621 1107.53 186.92L1106.12 193.64C1105.65 193.384 1105.06 193.171 1104.33 193C1103.61 192.787 1102.75 192.68 1101.77 192.68C1099.68 192.68 1097.93 193.384 1096.52 194.792C1095.16 196.157 1094.48 198.419 1094.48 201.576V217H1086.03ZM1131.57 217V192.616H1121.27V217H1112.82V192.616H1108.15V186.472H1112.82V183.656C1112.82 181.651 1113.12 179.88 1113.72 178.344C1114.31 176.808 1115.17 175.507 1116.28 174.44C1117.39 173.373 1118.71 172.584 1120.25 172.072C1121.82 171.517 1123.57 171.24 1125.49 171.24C1127.11 171.24 1128.74 171.453 1130.36 171.88C1131.98 172.264 1133.41 172.776 1134.65 173.416L1132.92 178.984C1132.15 178.643 1131.34 178.365 1130.49 178.152C1129.63 177.896 1128.74 177.768 1127.8 177.768C1125.62 177.768 1123.98 178.28 1122.87 179.304C1121.8 180.328 1121.27 182.099 1121.27 184.616V186.472H1140.09V217H1131.57ZM1148.28 217V171.304H1156.67V217H1148.28Z" fill="#242424"/>
<g filter="url(#filter0_d_109_13686)">
<path d="M980.432 407.412L927.114 353.869C922.962 349.7 922.962 342.839 927.114 338.67L980.432 285.127C984.584 280.958 991.416 280.958 995.568 285.127L1048.89 338.67C1053.04 342.839 1053.04 349.7 1048.89 353.869L995.568 407.412C993.615 409.372 990.584 409.985 987.796 410C985.203 410.014 982.222 409.208 980.432 407.412Z" fill="#28BF40"/>
</g>
<g filter="url(#filter1_d_109_13686)">
<path fill-rule="evenodd" clip-rule="evenodd" d="M1023.58 331.905C1020.07 331.905 1017.18 334.676 1017.18 338.028C1017.18 340.717 1019.04 343.116 1021.67 343.902V355.279C1021.67 361.733 1017.44 365.291 1007.92 366.739L1004.77 367.194C999.577 368.104 995.21 369.635 991.75 371.827V357.729L991.794 356.897V353.877C993.61 352.346 996.161 351.395 999.664 350.981H999.707C1005.72 350.112 1008.79 347.382 1008.79 342.955V336.294C1011.56 335.632 1013.67 333.233 1013.67 330.337C1013.67 326.945 1010.78 324.173 1007.27 324.173C1003.77 324.173 1000.87 326.945 1000.87 330.378C1000.87 333.316 1003.08 335.798 1005.93 336.377V342.996C1005.93 346.058 1003.94 347.63 999.275 348.333C996.248 348.664 993.783 349.409 991.837 350.567V327.983C994.172 326.659 995.729 324.26 995.729 321.529C995.729 317.392 992.226 314 987.858 314C983.534 314 979.988 317.351 979.988 321.529C979.988 324.301 981.545 326.701 983.88 327.983V342.55C982.107 341.723 979.988 341.144 977.48 340.854C971.642 340.027 970.907 337.627 970.907 335.6V330.925C973.718 330.305 975.88 327.864 975.88 324.926C975.88 321.575 972.983 318.804 969.48 318.804C965.977 318.804 963.08 321.534 963.08 324.885C963.08 327.822 965.242 330.222 968.053 330.884V335.559C968.053 339.985 971.08 342.674 977.091 343.502C979.988 343.916 982.194 344.536 983.88 345.653V360.496C979.858 358.055 974.799 356.442 968.486 355.697C958.756 354.29 954.431 350.774 954.431 344.196V341.59C956.983 340.762 958.799 338.487 958.799 335.756C958.799 332.405 955.902 329.633 952.399 329.633C948.896 329.633 945.999 332.405 945.999 335.756C945.999 338.445 947.815 340.762 950.367 341.59V344.196C950.367 348.995 952.226 352.76 955.945 355.366C958.756 357.393 962.691 358.717 967.923 359.462H967.967C974.972 360.33 980.161 362.233 983.923 365.212V408.49C983.923 408.49 985.584 409.246 987.923 409.246C990.263 409.246 991.923 408.503 991.923 408.503V388.012L991.837 384.702V376.668C995.21 373.813 999.794 371.951 1005.85 370.958L1008.83 370.545C1013.76 369.759 1017.52 368.435 1020.25 366.49C1023.97 363.884 1025.83 360.119 1025.83 355.32V343.902C1028.16 343.033 1029.93 340.758 1029.93 338.069C1029.93 336.455 1029.29 334.925 1028.12 333.725C1026.91 332.567 1025.31 331.905 1023.58 331.905ZM1007.19 326.49C1004.98 326.49 1003.17 328.227 1003.17 330.378C1003.17 332.447 1005.03 334.226 1007.19 334.226C1009.39 334.226 1011.21 332.53 1011.21 330.378C1011.21 328.227 1009.44 326.49 1007.19 326.49ZM965.372 324.885C965.372 326.995 967.188 328.733 969.394 328.733C971.556 328.733 973.415 326.995 973.415 324.885C973.415 322.775 971.599 321.038 969.394 321.038C967.188 321.038 965.372 322.734 965.372 324.885ZM948.291 335.674C948.291 337.825 950.107 339.521 952.313 339.521C954.475 339.521 956.334 337.783 956.334 335.674C956.334 333.564 954.518 331.826 952.313 331.826C950.107 331.826 948.291 333.522 948.291 335.674ZM982.28 321.447C982.28 324.343 984.745 326.701 987.772 326.701C990.799 326.701 993.264 324.301 993.264 321.405C993.264 318.509 990.799 316.151 987.772 316.151C984.745 316.151 982.28 318.509 982.28 321.447ZM1019.56 338.069C1019.56 340.179 1021.33 341.916 1023.58 341.916C1025.78 341.916 1027.6 340.179 1027.6 338.028C1027.6 337.035 1027.25 336.083 1026.47 335.338C1025.7 334.635 1024.66 334.221 1023.58 334.221C1021.37 334.221 1019.56 335.959 1019.56 338.069Z" fill="#FAF8F9"/>
</g>
<g clip-path="url(#clip1_109_13686)">
<path d="M144.4 468.79L155.832 468.789L161.269 424.693L144.396 424.695L144.4 468.79Z" fill="#FFB8B8"/>
<path d="M177.881 479.403L141.951 479.406L141.95 465.524L163.998 465.522C167.679 465.522 171.21 466.984 173.814 469.587C176.418 472.19 177.881 475.721 177.881 479.403Z" fill="#2F2E41"/>
<path d="M236.4 468.79L247.832 468.789L253.269 424.693L236.396 424.695L236.4 468.79Z" fill="#FFB8B8"/>
<path d="M269.881 479.403L233.951 479.406L233.95 465.524L255.998 465.522C259.679 465.522 263.21 466.984 265.814 469.587C268.418 472.19 269.881 475.721 269.881 479.403Z" fill="#2F2E41"/>
<path d="M141.927 452.55C140.884 452.551 139.873 452.188 139.067 451.525C138.262 450.862 137.712 449.939 137.512 448.915L130.171 356.67C122.268 278.553 135.796 251.033 135.933 250.764L136.082 250.474L136.407 250.493L199.86 254.145L213.329 298.205L248.933 346.043C254.566 353.64 257.558 362.872 257.454 372.329L256.553 442.077C256.532 443.205 256.091 444.284 255.317 445.104C254.542 445.923 253.49 446.424 252.365 446.508L233.778 447.801C232.616 447.886 231.466 447.515 230.573 446.767C229.68 446.019 229.112 444.953 228.991 443.794L224.386 368.069C224.373 367.99 224.336 367.917 224.28 367.861L171.475 318.644C171.3 318.459 171.082 318.321 170.84 318.243C170.598 318.165 170.34 318.15 170.09 318.199C169.84 318.248 169.607 318.36 169.413 318.524C169.219 318.688 169.069 318.899 168.978 319.137L163.653 447.332C163.712 447.941 163.644 448.556 163.454 449.138C163.265 449.72 162.957 450.256 162.55 450.714C162.136 451.181 161.63 451.558 161.064 451.82C160.497 452.082 159.882 452.223 159.258 452.235L142.01 452.549C141.983 452.55 141.955 452.55 141.927 452.55Z" fill="#2F2E41"/>
<path d="M186.536 155.325C202.063 146.837 207.77 127.368 199.282 111.841C190.794 96.3137 171.326 90.6073 155.798 99.0953C140.271 107.583 134.564 127.051 143.052 142.579C151.54 158.106 171.009 163.813 186.536 155.325Z" fill="#001506"/>
<path d="M308.798 190.104C307.605 189.431 306.278 189.027 304.911 188.921C303.544 188.816 302.171 189.011 300.888 189.494C299.605 189.977 298.443 190.735 297.485 191.715C296.526 192.696 295.795 193.874 295.341 195.168L273.947 196.367L271.504 209.546L301.694 207.428C303.917 208.046 306.291 207.827 308.363 206.812C310.436 205.797 312.065 204.057 312.941 201.922C313.817 199.787 313.879 197.404 313.115 195.226C312.352 193.048 310.816 191.226 308.798 190.104Z" fill="#FFB8B8"/>
<path d="M132.011 298.847C132.604 297.611 132.918 296.26 132.932 294.889C132.946 293.519 132.66 292.161 132.093 290.913C131.526 289.665 130.692 288.557 129.65 287.666C128.608 286.775 127.384 286.123 126.063 285.757L123.442 264.49L110.129 262.93L114.252 292.911C113.784 295.171 114.161 297.525 115.311 299.525C116.462 301.526 118.306 303.035 120.495 303.767C122.684 304.499 125.065 304.402 127.188 303.495C129.31 302.588 131.026 300.935 132.011 298.847Z" fill="#FFB8B8"/>
<path d="M169.765 161.579C183.329 161.579 194.326 150.582 194.326 137.018C194.326 123.453 183.329 112.457 169.765 112.457C156.2 112.457 145.204 123.453 145.204 137.018C145.204 150.582 156.2 161.579 169.765 161.579Z" fill="#FFB8B8"/>
<path d="M174.607 262.824C161.547 262.824 150.603 261.767 139.749 257.886C135.281 256.289 134.803 254.309 134.175 251.832C133.189 247.944 132.648 201.966 137.74 186.706C139.121 182.605 141.637 178.978 144.995 176.248C148.353 173.517 152.416 171.794 156.713 171.278C161.561 170.707 176.063 168.657 184.276 167.486C188.312 166.879 192.424 167.887 195.722 170.29C197.899 171.925 199.03 173.68 199.082 175.509L201.314 253.248C201.386 255.495 200.583 257.682 199.074 259.347C197.564 261.013 195.467 262.026 193.224 262.174C188.205 262.513 181.682 262.824 174.607 262.824Z" fill="#8954EB"/>
<path d="M109.642 281.863C109.037 281.863 108.438 281.741 107.881 281.503C107.323 281.266 106.82 280.919 106.4 280.483C105.981 280.046 105.653 279.53 105.438 278.964C105.222 278.398 105.124 277.794 105.147 277.189L105.927 241.534C106.098 237.128 107.414 232.842 109.744 229.099L140.01 180.55C140.958 179.037 142.276 177.79 143.838 176.927C145.401 176.063 147.157 175.612 148.942 175.614C150.73 175.614 152.487 176.074 154.045 176.95C155.603 177.826 156.909 179.089 157.838 180.616C158.803 182.194 159.334 183.999 159.378 185.848C159.421 187.697 158.975 189.525 158.086 191.146L128.728 244.502L130.749 277.25C130.76 277.847 130.651 278.44 130.431 278.995C130.21 279.549 129.881 280.055 129.463 280.481C129.045 280.907 128.547 281.246 127.997 281.478C127.447 281.71 126.856 281.83 126.259 281.831L109.652 281.863L109.642 281.863Z" fill="#8954EB"/>
<path d="M289.009 214.856C288.608 215.31 288.119 215.677 287.571 215.934C287.023 216.192 286.429 216.336 285.824 216.356L250.193 218.246C245.789 218.404 241.42 217.412 237.516 215.369L186.839 188.819C185.257 187.991 183.913 186.771 182.934 185.277C181.956 183.782 181.376 182.063 181.249 180.281C181.122 178.499 181.452 176.715 182.209 175.097C182.965 173.479 184.123 172.081 185.572 171.036C187.073 169.956 188.833 169.291 190.674 169.109C192.514 168.928 194.37 169.236 196.054 170.002L251.456 195.286L283.986 190.819C284.578 190.767 285.175 190.833 285.742 191.014C286.309 191.194 286.835 191.485 287.288 191.87C287.742 192.255 288.115 192.726 288.386 193.255C288.656 193.785 288.819 194.363 288.865 194.957L290.139 211.514C290.145 211.597 290.149 211.68 290.151 211.762C290.18 212.902 289.772 214.009 289.009 214.856Z" fill="#8954EB"/>
<path d="M151.571 133.539L145.199 116.332L173.851 108.039L194.33 114.332V133.539H151.571Z" fill="#001506"/>
<path d="M181.69 94.7463C181.082 87.8425 178.432 81.2763 174.078 75.884C169.724 70.4917 163.864 66.5174 157.243 64.4676C150.623 62.4177 143.542 62.385 136.903 64.3736C130.264 66.3622 124.367 70.2821 119.964 75.6339C113.94 82.9549 111.157 92.3731 109.12 101.632C107.083 110.891 105.608 120.394 101.652 129.01C97.6972 137.626 90.7236 145.454 81.5169 147.716C72.3101 149.977 61.1283 144.884 59 135.646C59.3302 141.89 60.9069 148.004 63.6373 153.629C66.3676 159.254 70.1964 164.275 74.8979 168.397C82.8748 175.315 95.8988 172.869 103.752 165.81C111.604 158.752 115.491 148.393 118.853 138.384C122.216 128.374 125.531 117.938 132.664 110.152C139.796 102.367 160.01 94.0914 169.171 99.342C176.355 103.46 178.933 100.842 181.69 94.7463Z" fill="#001506"/>
<path d="M668.145 299.559H320.145C315.77 299.554 311.576 297.814 308.483 294.721C305.39 291.628 303.65 287.434 303.645 283.059V106.059C303.65 101.685 305.39 97.4908 308.483 94.3975C311.576 91.3042 315.77 89.5643 320.145 89.5593H668.145C672.52 89.5643 676.714 91.3042 679.807 94.3975C682.9 97.4908 684.64 101.685 684.645 106.059V283.059C684.64 287.434 682.9 291.628 679.807 294.721C676.714 297.814 672.52 299.554 668.145 299.559Z" fill="#E6E6E6"/>
<path d="M664.145 287.559H324.145C321.891 287.557 319.731 286.66 318.137 285.067C316.544 283.473 315.648 281.313 315.645 279.059V110.059C315.648 107.806 316.544 105.645 318.137 104.052C319.731 102.458 321.891 101.562 324.145 101.559H664.145C666.399 101.562 668.559 102.458 670.153 104.052C671.746 105.645 672.643 107.806 672.645 110.059V279.059C672.643 281.313 671.746 283.473 670.153 285.067C668.559 286.66 666.399 287.557 664.145 287.559Z" fill="white"/>
<path d="M627.145 263.059H361.145C359.023 263.059 356.988 262.216 355.488 260.716C353.988 259.216 353.145 257.181 353.145 255.059C353.145 252.938 353.988 250.903 355.488 249.402C356.988 247.902 359.023 247.059 361.145 247.059H627.145C629.267 247.059 631.302 247.902 632.802 249.402C634.302 250.903 635.145 252.938 635.145 255.059C635.145 257.181 634.302 259.216 632.802 260.716C631.302 262.216 629.267 263.059 627.145 263.059Z" fill="#E6E6E6"/>
<path d="M627.145 229.059H361.145C359.023 229.059 356.988 228.216 355.488 226.716C353.988 225.216 353.145 223.181 353.145 221.059C353.145 218.938 353.988 216.903 355.488 215.402C356.988 213.902 359.023 213.059 361.145 213.059H627.145C629.267 213.059 631.302 213.902 632.802 215.402C634.302 216.903 635.145 218.938 635.145 221.059C635.145 223.181 634.302 225.216 632.802 226.716C631.302 228.216 629.267 229.059 627.145 229.059Z" fill="#E6E6E6"/>
<path d="M419.145 189.687H361.145C358.891 189.684 356.731 188.788 355.137 187.194C353.544 185.601 352.648 183.44 352.645 181.187V138.932C352.648 136.678 353.544 134.518 355.137 132.924C356.731 131.331 358.891 130.434 361.145 130.432H419.145C421.399 130.434 423.559 131.331 425.153 132.924C426.746 134.518 427.643 136.678 427.645 138.932V181.187C427.643 183.44 426.746 185.601 425.153 187.194C423.559 188.788 421.399 189.684 419.145 189.687Z" fill="#00A656"/>
<path d="M627.44 185.059H492.44C490.318 185.059 488.284 184.216 486.783 182.716C485.283 181.216 484.44 179.181 484.44 177.059C484.44 174.938 485.283 172.903 486.783 171.402C488.284 169.902 490.318 169.059 492.44 169.059H627.44C629.562 169.059 631.597 169.902 633.097 171.402C634.597 172.903 635.44 174.938 635.44 177.059C635.44 179.181 634.597 181.216 633.097 182.716C631.597 184.216 629.562 185.059 627.44 185.059Z" fill="#CCCCCC"/>
<path d="M571.44 151.059H492.44C490.318 151.059 488.284 150.216 486.783 148.716C485.283 147.216 484.44 145.181 484.44 143.059C484.44 140.938 485.283 138.903 486.783 137.402C488.284 135.902 490.318 135.059 492.44 135.059H571.44C573.562 135.059 575.597 135.902 577.097 137.402C578.597 138.903 579.44 140.938 579.44 143.059C579.44 145.181 578.597 147.216 577.097 148.716C575.597 150.216 573.562 151.059 571.44 151.059Z" fill="#CCCCCC"/>
</g>
</g>
<defs>
<filter id="filter0_d_109_13686" x="924" y="282" width="132" height="132" filterUnits="userSpaceOnUse" color-interpolation-filters="sRGB">
<feFlood flood-opacity="0" result="BackgroundImageFix"/>
<feColorMatrix in="SourceAlpha" type="matrix" values="0 0 0 0 0 0 0 0 0 0 0 0 0 0 0 0 0 0 127 0" result="hardAlpha"/>
<feOffset dx="4" dy="4"/>
<feComposite in2="hardAlpha" operator="out"/>
<feColorMatrix type="matrix" values="0 0 0 0 0.133513 0 0 0 0 0.616585 0 0 0 0 0.212062 0 0 0 1 0"/>
<feBlend mode="normal" in2="BackgroundImageFix" result="effect1_dropShadow_109_13686"/>
<feBlend mode="normal" in="SourceGraphic" in2="effect1_dropShadow_109_13686" result="shape"/>
</filter>
<filter id="filter1_d_109_13686" x="945.999" y="314" width="85.9351" height="97.2461" filterUnits="userSpaceOnUse" color-interpolation-filters="sRGB">
<feFlood flood-opacity="0" result="BackgroundImageFix"/>
<feColorMatrix in="SourceAlpha" type="matrix" values="0 0 0 0 0 0 0 0 0 0 0 0 0 0 0 0 0 0 127 0" result="hardAlpha"/>
<feOffset dx="2" dy="2"/>
<feComposite in2="hardAlpha" operator="out"/>
<feColorMatrix type="matrix" values="0 0 0 0 0.133333 0 0 0 0 0.615686 0 0 0 0 0.211765 0 0 0 0.5 0"/>
<feBlend mode="normal" in2="BackgroundImageFix" result="effect1_dropShadow_109_13686"/>
<feBlend mode="normal" in="SourceGraphic" in2="effect1_dropShadow_109_13686" result="shape"/>
</filter>
<clipPath id="clip0_109_13686">
<rect width="1280" height="480" fill="white"/>
</clipPath>
<clipPath id="clip1_109_13686">
<rect width="625.645" height="417.059" fill="white" transform="translate(59 63)"/>
</clipPath>
</defs>
</svg>
