<svg width="24" height="24" viewBox="0 0 24 24" fill="none" xmlns="http://www.w3.org/2000/svg">
<g clip-path="url(#clip0_9_1230)">
<path d="M9 12L11 14L15 10M4 8V16M16 4L8 4M20 8V16M16 20H8M2.6 7H5.4C5.96005 7 6.24008 7 6.45399 6.89101C6.64215 6.79513 6.79513 6.64215 6.89101 6.45399C7 6.24008 7 5.96005 7 5.4V2.6C7 2.03995 7 1.75992 6.89101 1.54601C6.79513 1.35785 6.64215 1.20487 6.45399 1.10899C6.24008 1 5.96005 1 5.4 1H2.6C2.03995 1 1.75992 1 1.54601 1.10899C1.35785 1.20487 1.20487 1.35785 1.10899 1.54601C1 1.75992 1 2.03995 1 2.6V5.4C1 5.96005 1 6.24008 1.10899 6.45399C1.20487 6.64215 1.35785 6.79513 1.54601 6.89101C1.75992 7 2.03995 7 2.6 7ZM2.6 23H5.4C5.96005 23 6.24008 23 6.45399 22.891C6.64215 22.7951 6.79513 22.6422 6.89101 22.454C7 22.2401 7 21.9601 7 21.4V18.6C7 18.0399 7 17.7599 6.89101 17.546C6.79513 17.3578 6.64215 17.2049 6.45399 17.109C6.24008 17 5.96005 17 5.4 17H2.6C2.03995 17 1.75992 17 1.54601 17.109C1.35785 17.2049 1.20487 17.3578 1.10899 17.546C1 17.7599 1 18.0399 1 18.6V21.4C1 21.9601 1 22.2401 1.10899 22.454C1.20487 22.6422 1.35785 22.7951 1.54601 22.891C1.75992 23 2.03995 23 2.6 23ZM18.6 7H21.4C21.9601 7 22.2401 7 22.454 6.89101C22.6422 6.79513 22.7951 6.64215 22.891 6.45399C23 6.24008 23 5.96005 23 5.4V2.6C23 2.03995 23 1.75992 22.891 1.54601C22.7951 1.35785 22.6422 1.20487 22.454 1.10899C22.2401 1 21.9601 1 21.4 1H18.6C18.0399 1 17.7599 1 17.546 1.10899C17.3578 1.20487 17.2049 1.35785 17.109 1.54601C17 1.75992 17 2.03995 17 2.6V5.4C17 5.96005 17 6.24008 17.109 6.45399C17.2049 6.64215 17.3578 6.79513 17.546 6.89101C17.7599 7 18.0399 7 18.6 7ZM18.6 23H21.4C21.9601 23 22.2401 23 22.454 22.891C22.6422 22.7951 22.7951 22.6422 22.891 22.454C23 22.2401 23 21.9601 23 21.4V18.6C23 18.0399 23 17.7599 22.891 17.546C22.7951 17.3578 22.6422 17.2049 22.454 17.109C22.2401 17 21.9601 17 21.4 17H18.6C18.0399 17 17.7599 17 17.546 17.109C17.3578 17.2049 17.2049 17.3578 17.109 17.546C17 17.7599 17 18.0399 17 18.6V21.4C17 21.9601 17 22.2401 17.109 22.454C17.2049 22.6422 17.3578 22.7951 17.546 22.891C17.7599 23 18.0399 23 18.6 23Z" stroke="black" stroke-width="2" stroke-linecap="round"/>
</g>
<defs>
<clipPath id="clip0_9_1230">
<rect width="24" height="24" fill="white"/>
</clipPath>
</defs>
</svg>
