<svg viewBox="0 0 24 24" fill="none" xmlns="http://www.w3.org/2000/svg">
<path d="M16.0007 21H8.0007C6.89613 21 6.0007 20.1046 6.0007 19V11.5671C6.0007 10.9888 5.30151 10.6992 4.8926 11.1081C4.51927 11.4814 3.88013 11.2766 3.79333 10.7558L3.22456 7.34318C3.08949 6.53273 3.46382 5.72212 4.16836 5.2994L7.81524 3.11127C7.92145 3.04754 8.05843 3.07216 8.13581 3.16888C10.1172 5.64563 13.8842 5.64563 15.8656 3.16888C15.943 3.07216 16.0799 3.04754 16.1862 3.11127L19.833 5.2994C20.5376 5.72212 20.9119 6.53273 20.7768 7.34318L20.2081 10.7558C20.1213 11.2766 19.4821 11.4814 19.1088 11.1081C18.6999 10.6992 18.0007 10.9888 18.0007 11.5671V19C18.0007 20.1046 17.1053 21 16.0007 21Z" stroke="currentColor" stroke-width="2"/>
</svg>
