<svg width="24" height="24" viewBox="0 0 24 24" fill="none" xmlns="http://www.w3.org/2000/svg">
<g clip-path="url(#clip0_9_1128)">
<path d="M12 23L12 1M23 15V9C23 6.19974 23 4.79961 22.455 3.73005C21.9757 2.78924 21.2108 2.02433 20.27 1.54497C19.2004 1 17.8003 1 15 1L9 1C6.19974 1 4.79961 1 3.73005 1.54497C2.78924 2.02433 2.02433 2.78924 1.54497 3.73005C1 4.79961 1 6.19974 1 9L1 15C1 17.8003 1 19.2004 1.54497 20.27C2.02433 21.2108 2.78924 21.9757 3.73005 22.455C4.79961 23 6.19974 23 9 23H15C17.8003 23 19.2004 23 20.27 22.455C21.2108 21.9757 21.9757 21.2108 22.455 20.27C23 19.2004 23 17.8003 23 15Z" stroke="black" stroke-width="2" stroke-linecap="round"/>
</g>
<defs>
<clipPath id="clip0_9_1128">
<rect width="24" height="24" fill="white"/>
</clipPath>
</defs>
</svg>
