<svg width="24" height="24" viewBox="0 0 24 24" fill="none" xmlns="http://www.w3.org/2000/svg">
<path d="M4 12V12C3.01608 12 2.32131 11.0361 2.63246 10.1026L3.31623 8.05132C3.53455 7.39636 3.64371 7.06888 3.8302 6.81524C4.07886 6.47705 4.42763 6.22567 4.8271 6.09672C5.12669 6 5.47189 6 6.16228 6H17.8377C18.5281 6 18.8733 6 19.1729 6.09672C19.5724 6.22567 19.9211 6.47705 20.1698 6.81524C20.3563 7.06888 20.4655 7.39636 20.6838 8.05132L21.3675 10.1026C21.6787 11.0361 20.9839 12 20 12V12M4 12V17.8C4 18.9201 4 19.4802 4.21799 19.908C4.40973 20.2843 4.71569 20.5903 5.09202 20.782C5.51984 21 6.0799 21 7.2 21H10M4 12H12H20M20 12V17.8C20 18.9201 20 19.4802 19.782 19.908C19.5903 20.2843 19.2843 20.5903 18.908 20.782C18.4802 21 17.9201 21 16.8 21H15H14M10 21V17.6C10 17.0399 10 16.7599 10.109 16.546C10.2049 16.3578 10.3578 16.2049 10.546 16.109C10.7599 16 11.0399 16 11.6 16H12.4C12.9601 16 13.2401 16 13.454 16.109C13.6422 16.2049 13.7951 16.3578 13.891 16.546C14 16.7599 14 17.0399 14 17.6V21M10 21H14" stroke="black" stroke-width="2" stroke-linecap="round"/>
<path d="M6 3H18" stroke="black" stroke-width="2" stroke-linecap="round"/>
</svg>
