<svg width="5854" height="4885" viewBox="0 0 5854 4885" fill="none" xmlns="http://www.w3.org/2000/svg">
<g id="Frame 12">
<rect width="5854" height="4884.97" fill="white"/>
<g id="Group 13">
<g id="C4 Model">
<rect x="2468.16" y="1899.7" width="1147.11" height="628.677" rx="50.9829" fill="#089C16"/>
<g id="Group 1">
<circle id="Ellipse 12" cx="2519.14" cy="2214.03" r="25.4914" fill="#05B716"/>
</g>
<g id="Area">
<rect x="2570.12" y="1925.19" width="963.577" height="577.694" rx="15.2949" fill="#05B716"/>
<g id="Heading">
<text id="Name" fill="white" xml:space="preserve" style="white-space: pre" font-family="Segoe UI" font-size="81.5726" font-weight="bold" letter-spacing="0em"><tspan x="2642.09" y="2038.45">Progressive Web App</tspan></text>
<text id="[Container: Angular]" fill="white" xml:space="preserve" style="white-space: pre" font-family="Segoe UI" font-size="45.8846" letter-spacing="0em"><tspan x="2847.74" y="2120.92">[Container: Angular]</tspan></text>
</g>
<text id="Oferece funcionalidades limitadas mas integradas ao portal para dispositivos m&#195;&#179;veis" fill="white" xml:space="preserve" style="white-space: pre" font-family="Segoe UI" font-size="61.1795" letter-spacing="0em"><tspan x="2597.01" y="2274.73">Oferece funcionalidades limitadas </tspan><tspan x="2648.18" y="2355.73">mas integradas ao portal para </tspan><tspan x="2790.43" y="2436.73">dispositivos m&#xf3;veis</tspan></text>
</g>
<g id="Group 3">
<rect id="Rectangle 9" x="3559.19" y="2150.31" width="5.09829" height="127.457" rx="2.54914" fill="#05B716"/>
</g>
</g>
<g id="C4 Model / People / Person" clip-path="url(#clip0_2125_550)">
<path id="Head" d="M3267.31 3802.63C3267.31 3870.67 3237.19 3931.67 3189.56 3973.03C3096.52 3973.03 2999.65 3973.03 2893.86 3973.03C2846.23 3931.67 2816.11 3870.67 2816.11 3802.63C2816.11 3678.04 2917.12 3577.03 3041.71 3577.03C3166.31 3577.03 3267.31 3678.04 3267.31 3802.63Z" fill="#089C16"/>
<g id="Body">
<rect x="2452.86" y="3973.03" width="1177.7" height="585.932" rx="178.44" fill="#089C16"/>
<g id="Heading_2">
<text id="Name_2" fill="white" xml:space="preserve" style="white-space: pre" font-family="Segoe UI" font-size="81.5726" font-weight="bold" letter-spacing="0em"><tspan x="2650.94" y="4127.09">Carlos S&#xe1;bio Ernesto</tspan></text>
<text id="[Person]" fill="white" xml:space="preserve" style="white-space: pre" font-family="Segoe UI" font-size="45.8846" letter-spacing="0em"><tspan x="2959.53" y="4217.2">[Person]</tspan></text>
</g>
<g id="Textbox">
<text id="Description" fill="white" xml:space="preserve" style="white-space: pre" font-family="Segoe UI" font-size="53.532" letter-spacing="0em"><tspan x="2608.65" y="4337.35">Uma pessoa interessada nos eventos </tspan><tspan x="2527.75" y="4408.35">menores organizados pelos grupos durante </tspan><tspan x="2697.13" y="4479.35">o ano dentro da comunidade</tspan></text>
</g>
</g>
</g>
<g id="Recebe notifica&#195;&#167;&#195;&#163;o com c&#195;&#179;digo de autentica&#195;&#167;&#195;&#163;o e confirma a leitura">
<path id="Shape" d="M3059.47 2571.69C3061.68 2571.69 3063.25 2568.99 3062.14 2567.07L3044.38 2536.31C3043.28 2534.4 3040.15 2534.4 3039.05 2536.31L3021.29 2567.07C3020.18 2568.99 3021.74 2571.69 3023.95 2571.69H3059.47ZM3023.95 3533.71C3021.74 3533.71 3020.18 3536.42 3021.29 3538.33L3039.05 3569.09C3040.15 3571.01 3043.28 3571.01 3044.38 3569.09L3062.14 3538.33C3063.25 3536.42 3061.68 3533.71 3059.47 3533.71H3023.95ZM3037.71 2572.99V2610.54H3045.71V2572.99H3037.71ZM3037.71 2633.07V2670.61H3045.71V2633.07H3037.71ZM3037.71 2693.14V2730.68H3045.71V2693.14H3037.71ZM3037.71 2753.21V2790.76H3045.71V2753.21H3037.71ZM3037.71 2813.28V2850.83H3045.71V2813.28H3037.71ZM3037.71 2873.36V2910.9H3045.71V2873.36H3037.71ZM3037.71 2933.43V2952.2H3045.71V2933.43H3037.71ZM3037.71 3153.2V3171.98H3045.71V3153.2H3037.71ZM3037.71 3194.5V3232.05H3045.71V3194.5H3037.71ZM3037.71 3254.58V3292.12H3045.71V3254.58H3037.71ZM3037.71 3314.65V3352.19H3045.71V3314.65H3037.71ZM3037.71 3374.72V3412.27H3045.71V3374.72H3037.71ZM3037.71 3434.79V3472.34H3045.71V3434.79H3037.71ZM3037.71 3494.87V3532.41H3045.71V3494.87H3037.71Z" fill="#B3B3B3"/>
<g id="Text Background">
<text id="Text" fill="black" fill-opacity="0.8" xml:space="preserve" style="white-space: pre" font-family="Segoe UI" font-size="40" letter-spacing="-0.022em"><tspan x="2841.21" y="3009.27">Recebe notifica&#xe7;&#xe3;o com&#10;</tspan><tspan x="2841.21" y="3069.27">c&#xf3;digo de autentica&#xe7;&#xe3;o&#10;</tspan><tspan x="2841.21" y="3129.27">e confirma a leitura</tspan></text>
</g>
</g>
<g id="C4 Model_2">
<rect x="2469.43" y="101.275" width="1144.57" height="728.094" rx="14.0203" fill="#05B716"/>
<rect x="2469.43" y="101.275" width="1144.57" height="728.094" rx="14.0203" stroke="#089C16" stroke-width="2.54914"/>
<g id="Heading_3">
<text id="Name_3" fill="white" xml:space="preserve" style="white-space: pre" font-family="Segoe UI" font-size="81.5726" font-weight="bold" letter-spacing="0em"><tspan x="2798.59" y="289.742">API Gateway</tspan></text>
<text id="[Container: Java and Spring MVC]" fill="white" xml:space="preserve" style="white-space: pre" font-family="Segoe UI" font-size="45.8846" letter-spacing="0em"><tspan x="2748.86" y="372.211">[Container: NodeJS e NestJS]</tspan></text>
</g>
<text id="Fornece informa&#195;&#167;&#195;&#181;es necess&#195;&#161;rias para associa&#195;&#167;&#195;&#163;o de membros e respectivos dispositivos via API" fill="white" xml:space="preserve" style="white-space: pre" font-family="Segoe UI" font-size="61.1795" letter-spacing="0em"><tspan x="2532.86" y="500.526">Fornece informa&#xe7;&#xf5;es necess&#xe1;rias para </tspan><tspan x="2626.75" y="581.526">associa&#xe7;&#xe3;o de membros e seus </tspan><tspan x="2625.41" y="662.526">respectivos dispositivos via API</tspan></text>
</g>
<g id="C4 Model_3">
<rect x="4606.89" y="1894.6" width="1147.11" height="624.152" rx="25.4914" fill="#089C16"/>
<g id="Toolbar">
<rect id="Rectangle 5" x="4861.8" y="1920.09" width="866.709" height="50.9829" rx="25.4914" fill="#05B716"/>
<circle id="Ellipse 9" cx="4657.87" cy="1945.58" r="25.4914" fill="#05B716"/>
<circle id="Ellipse 10" cx="4734.34" cy="1945.58" r="25.4914" fill="#05B716"/>
<circle id="Ellipse 11" cx="4810.82" cy="1945.58" r="25.4914" fill="#05B716"/>
</g>
<g id="Area_2">
<rect x="4632.38" y="1996.56" width="1096.13" height="496.694" rx="15.2949" fill="#05B716"/>
<g id="Heading_4">
<text id="Name_4" fill="white" xml:space="preserve" style="white-space: pre" font-family="Segoe UI" font-size="81.5726" font-weight="bold" letter-spacing="0em"><tspan x="4720.24" y="2109.83">Single-Page Application</tspan></text>
<text id="[Container: TypeScript and Angular]" fill="white" xml:space="preserve" style="white-space: pre" font-family="Segoe UI" font-size="45.8846" letter-spacing="0em"><tspan x="4846.73" y="2192.3">[Container: TypeScript e Angular]</tspan></text>
</g>
<text id="Oferece todas as funcionalidades da DevParan&#195;&#161; MX em navegadores Web" fill="white" xml:space="preserve" style="white-space: pre" font-family="Segoe UI" font-size="61.1795" letter-spacing="0em"><tspan x="4693.07" y="2346.11">Oferece todas as funcionalidades da </tspan><tspan x="4682.08" y="2427.11">DevParan&#xe1; MX em navegadores Web</tspan></text>
</g>
</g>
<g id="C4 Model_4" clip-path="url(#clip1_2125_550)">
<path id="Vector 6" d="M1247 184.858C1237.31 139.326 909.456 110.197 673.557 110.197C437.658 110.197 101.572 140.226 100.111 184.858H1247Z" fill="#05B716"/>
<g id="Body_2">
<path d="M100 184.857H1247.11V749.05H100V184.857Z" fill="#05B716"/>
<g id="Heading_5">
<text id="Name_5" fill="white" xml:space="preserve" style="white-space: pre" font-family="Segoe UI" font-size="81.5726" font-weight="bold" letter-spacing="0em"><tspan x="353.719" y="323.616">NoSQL Database</tspan></text>
<text id="[Container: MongoDB Database Schema]" fill="white" xml:space="preserve" style="white-space: pre" font-family="Segoe UI" font-size="45.8846" letter-spacing="0em"><tspan x="260.036" y="400.342">[Container: MongoDB Database Schema]</tspan></text>
</g>
<g id="Textbox_2">
<text id="Description_2" fill="white" xml:space="preserve" style="white-space: pre" font-family="Segoe UI" font-size="61.1795" letter-spacing="0em"><tspan x="197.863" y="520.899">Armazena dados sobre dispositivos </tspan><tspan x="160.552" y="601.899">registrados para autentica&#xe7;&#xe3;o e dados </tspan><tspan x="337.966" y="682.899">relacionados ao membro</tspan></text>
</g>
</g>
<path id="Vector 7" d="M673.558 824.249C909.392 824.249 1245.39 794.004 1246.85 749.05L100.27 749.05C109.957 794.91 437.724 824.249 673.558 824.249Z" fill="#05B716"/>
</g>
<g id="C4 Model_5">
<rect x="101.275" y="1883.13" width="1144.57" height="647.094" rx="14.0203" fill="#999999"/>
<rect x="101.275" y="1883.13" width="1144.57" height="647.094" rx="14.0203" stroke="#3C7FC0" stroke-width="2.54914"/>
<g id="Heading_6">
<text id="Name_6" fill="white" xml:space="preserve" style="white-space: pre" font-family="Segoe UI" font-size="81.5726" font-weight="bold" letter-spacing="0em"><tspan x="344.598" y="2071.59">Cloud Messaging</tspan></text>
<text id="[Software System]" fill="white" xml:space="preserve" style="white-space: pre" font-family="Segoe UI" font-size="45.8846" letter-spacing="0em"><tspan x="493.021" y="2154.06">[Software System]</tspan></text>
</g>
<text id="Servi&#195;&#167;o externo para envio de notifica&#195;&#167;&#195;&#181;es Push" fill="white" xml:space="preserve" style="white-space: pre" font-family="Segoe UI" font-size="61.1795" letter-spacing="0em"><tspan x="273.023" y="2282.38">Servi&#xe7;o externo para envio de </tspan><tspan x="439.593" y="2363.38">notifica&#xe7;&#xf5;es Push</tspan></text>
</g>
<g id="Envia chamadas para API usando [ JSON / HTTPS ]">
<path id="Shape_2" d="M5169.99 1890.47C5171.63 1891.96 5174.16 1891.85 5175.65 1890.21C5177.13 1888.58 5177.02 1886.05 5175.39 1884.56L5169.99 1890.47ZM4816.04 1561.83L4818.73 1558.87L4818.73 1558.87L4816.04 1561.83ZM4727.33 1480.83L4724.64 1483.78L4724.64 1483.78L4727.33 1480.83ZM4673.95 1432.08L4671.25 1435.03L4671.25 1435.03L4673.95 1432.08ZM4659.8 1419.15L4657.1 1422.11L4657.1 1422.11L4659.8 1419.15ZM4631.46 1393.28L4634.16 1390.32L4634.16 1390.32L4631.46 1393.28ZM4519.54 1291.08L4522.24 1288.13L4522.24 1288.13L4519.54 1291.08ZM4312.54 1102.05L4309.84 1105.01L4309.84 1105.01L4312.54 1102.05ZM4158.96 961.802L4156.26 964.756L4156.26 964.756L4158.96 961.802ZM4156 959.105L4158.7 956.151L4158.7 956.151L4156 959.105ZM3693.51 536.77L3690.82 539.724L3690.82 539.724L3693.51 536.77ZM3639.13 487.11L3641.83 484.156L3641.83 484.156L3639.13 487.11ZM3659.24 481.418C3660.73 479.787 3659.78 476.809 3657.62 476.334L3622.93 468.706C3620.77 468.231 3618.67 470.538 3619.34 472.644L3630.07 506.503C3630.74 508.609 3633.79 509.28 3635.28 507.648L3659.24 481.418ZM4469.71 1250.99L4484.44 1264.44L4489.84 1258.54L4475.11 1245.09L4469.71 1250.99ZM4502.12 1280.58L4516.85 1294.03L4522.24 1288.13L4507.51 1274.68L4502.12 1280.58ZM4516.85 1294.03L4534.33 1310L4539.73 1304.09L4522.24 1288.13L4516.85 1294.03ZM4555.32 1329.16L4590.29 1361.1L4595.68 1355.19L4560.71 1323.26L4555.32 1329.16ZM4611.27 1380.26L4628.76 1396.23L4634.16 1390.32L4616.67 1374.35L4611.27 1380.26ZM4628.76 1396.23L4637.62 1404.32L4643.01 1398.41L4634.16 1390.32L4628.76 1396.23ZM4648.24 1414.02L4657.1 1422.11L4662.49 1416.2L4653.64 1408.11L4648.24 1414.02ZM4657.1 1422.11L4661.52 1426.15L4666.92 1420.24L4662.49 1416.2L4657.1 1422.11ZM4666.83 1430.99L4671.25 1435.03L4676.65 1429.13L4672.22 1425.09L4666.83 1430.99ZM4671.25 1435.03L4687.93 1450.27L4693.33 1444.36L4676.65 1429.13L4671.25 1435.03ZM4707.95 1468.55L4724.64 1483.78L4730.03 1477.87L4713.35 1462.64L4707.95 1468.55ZM4724.64 1483.78L4738.5 1496.44L4743.89 1490.53L4730.03 1477.87L4724.64 1483.78ZM4755.13 1511.63L4782.85 1536.94L4788.24 1531.03L4760.52 1505.72L4755.13 1511.63ZM4799.48 1552.13L4813.34 1564.78L4818.73 1558.87L4804.87 1546.22L4799.48 1552.13ZM4813.34 1564.78L4827.27 1577.5L4832.66 1571.6L4818.73 1558.87L4813.34 1564.78ZM4843.99 1592.77L4871.85 1618.22L4877.25 1612.31L4849.38 1586.86L4843.99 1592.77ZM4888.57 1633.48L4916.43 1658.93L4921.83 1653.02L4893.96 1627.57L4888.57 1633.48ZM4933.15 1674.19L4961.02 1699.64L4966.41 1693.73L4938.55 1668.29L4933.15 1674.19ZM4977.73 1714.9L5005.6 1740.35L5010.99 1734.44L4983.13 1709L4977.73 1714.9ZM5022.32 1755.62L5050.18 1781.06L5055.57 1775.15L5027.71 1749.71L5022.32 1755.62ZM5066.9 1796.33L5094.76 1821.77L5100.16 1815.86L5072.29 1790.42L5066.9 1796.33ZM5111.48 1837.04L5139.34 1862.48L5144.74 1856.57L5116.87 1831.13L5111.48 1837.04ZM5156.06 1877.75L5169.99 1890.47L5175.39 1884.56L5161.46 1871.84L5156.06 1877.75ZM3629.74 483.954L3636.43 490.063L3641.83 484.156L3635.14 478.047L3629.74 483.954ZM3636.43 490.063L3653.43 505.582L3658.82 499.675L3641.83 484.156L3636.43 490.063ZM3673.82 524.205L3690.82 539.724L3696.21 533.816L3679.22 518.297L3673.82 524.205ZM3690.82 539.724L3705.27 552.922L3710.66 547.014L3696.21 533.816L3690.82 539.724ZM3722.61 568.759L3751.52 595.155L3756.91 589.248L3728.01 562.852L3722.61 568.759ZM3768.86 610.993L3797.77 637.389L3803.16 631.481L3774.26 605.085L3768.86 610.993ZM3815.11 653.226L3844.02 679.622L3849.41 673.715L3820.5 647.319L3815.11 653.226ZM3861.36 695.46L3890.26 721.856L3895.66 715.948L3866.75 689.552L3861.36 695.46ZM3907.61 737.693L3936.51 764.089L3941.91 758.182L3913 731.786L3907.61 737.693ZM3953.86 779.927L3982.76 806.323L3988.16 800.415L3959.25 774.019L3953.86 779.927ZM4000.11 822.16L4029.01 848.556L4034.41 842.649L4005.5 816.253L4000.11 822.16ZM4046.36 864.394L4075.26 890.79L4080.66 884.882L4051.75 858.486L4046.36 864.394ZM4092.6 906.627L4121.51 933.023L4126.91 927.116L4098 900.72L4092.6 906.627ZM4138.85 948.861L4153.31 962.059L4158.7 956.151L4144.25 942.953L4138.85 948.861ZM4153.31 962.059L4154.23 962.902L4159.62 956.994L4158.7 956.151L4153.31 962.059ZM4155.34 963.913L4156.26 964.756L4161.66 958.848L4160.73 958.006L4155.34 963.913ZM4156.26 964.756L4172.26 979.365L4177.65 973.458L4161.66 958.848L4156.26 964.756ZM4191.46 996.896L4223.45 1026.11L4228.85 1020.21L4196.85 990.989L4191.46 996.896ZM4242.65 1043.65L4274.65 1072.86L4280.04 1066.96L4248.05 1037.74L4242.65 1043.65ZM4293.85 1090.4L4309.84 1105.01L4315.24 1099.1L4299.24 1084.49L4293.85 1090.4ZM4309.84 1105.01L4311.55 1106.56L4316.95 1100.66L4315.24 1099.1L4309.84 1105.01ZM4313.6 1108.43L4315.31 1109.99L4320.7 1104.09L4318.99 1102.53L4313.6 1108.43Z" fill="#B3B3B3"/>
<g id="Text Background_2">
<text id="Text_2" fill="black" fill-opacity="0.8" xml:space="preserve" style="white-space: pre" font-family="Segoe UI" font-size="40" letter-spacing="-0.022em"><tspan x="4185.21" y="1164.1">Envia chamadas para API&#10;</tspan><tspan x="4185.21" y="1224.1">usando [ JSON / HTTPS ]</tspan></text>
</g>
</g>
<g id="Encaminha notifica&#195;&#167;&#195;&#163;o para o dispositivo registrado">
<path id="Shape_3" d="M1257.64 2202.74C1255.43 2202.72 1253.63 2204.5 1253.62 2206.71C1253.6 2208.92 1255.38 2210.72 1257.59 2210.74L1257.64 2202.74ZM1292.4 2206.95L1292.38 2210.95L1292.38 2210.95L1292.4 2206.95ZM2424.73 2231.53C2424.72 2233.74 2427.41 2235.32 2429.33 2234.23L2460.2 2216.65C2462.12 2215.56 2462.14 2212.44 2460.23 2211.32L2429.58 2193.37C2427.67 2192.26 2424.96 2193.8 2424.94 2196.01L2424.73 2231.53ZM1257.59 2210.74L1268.46 2210.8L1268.51 2202.8L1257.64 2202.74L1257.59 2210.74ZM1281.51 2210.88L1292.38 2210.95L1292.43 2202.95L1281.56 2202.88L1281.51 2210.88ZM1292.38 2210.95L1311.85 2211.06L1311.9 2203.06L1292.43 2202.95L1292.38 2210.95ZM1335.22 2211.2L1374.17 2211.44L1374.22 2203.44L1335.27 2203.2L1335.22 2211.2ZM1397.54 2211.58L1436.48 2211.82L1436.53 2203.82L1397.58 2203.58L1397.54 2211.58ZM1459.85 2211.96L1498.8 2212.19L1498.84 2204.19L1459.9 2203.96L1459.85 2211.96ZM1522.16 2212.33L1561.11 2212.57L1561.16 2204.57L1522.21 2204.33L1522.16 2212.33ZM1584.48 2212.71L1603.95 2212.82L1604 2204.82L1584.53 2204.71L1584.48 2212.71ZM2118.45 2215.93L2140.1 2216.06L2140.15 2208.06L2118.5 2207.93L2118.45 2215.93ZM2166.08 2216.21L2209.37 2216.47L2209.42 2208.47L2166.12 2208.21L2166.08 2216.21ZM2235.35 2216.63L2278.64 2216.89L2278.69 2208.89L2235.4 2208.63L2235.35 2216.63ZM2304.62 2217.05L2347.91 2217.31L2347.96 2209.31L2304.67 2209.05L2304.62 2217.05ZM2373.89 2217.47L2417.19 2217.73L2417.24 2209.73L2373.94 2209.47L2373.89 2217.47Z" fill="#B3B3B3"/>
<g id="Text Background_3">
<text id="Text_3" fill="black" fill-opacity="0.8" xml:space="preserve" style="white-space: pre" font-family="Segoe UI" font-size="40" letter-spacing="-0.022em"><tspan x="1630.23" y="2196.94">Encaminha notifica&#xe7;&#xe3;o para&#10;</tspan><tspan x="1630.23" y="2256.94">o dispositivo registrado</tspan></text>
</g>
</g>
<g id="Envia confirma&#195;&#167;&#195;&#163;o de leitura do c&#195;&#179;digo para autentica&#195;&#167;&#195;&#163;o">
<path id="Shape_4" d="M3037.71 1889.2C3037.71 1891.41 3039.5 1893.2 3041.71 1893.2C3043.92 1893.2 3045.71 1891.41 3045.71 1889.2H3037.71ZM3059.47 873.963C3061.68 873.963 3063.24 871.258 3062.14 869.344L3044.38 838.582C3043.27 836.669 3040.15 836.669 3039.05 838.582L3021.29 869.344C3020.18 871.258 3021.74 873.963 3023.95 873.963H3059.47ZM3037.71 1432.08V1452.49H3045.71V1432.08H3037.71ZM3037.71 1476.97V1517.79H3045.71V1476.97H3037.71ZM3037.71 1542.28V1583.09H3045.71V1542.28H3037.71ZM3037.71 1607.58V1648.39H3045.71V1607.58H3037.71ZM3037.71 1672.88V1713.7H3045.71V1672.88H3037.71ZM3037.71 1738.18V1779H3045.71V1738.18H3037.71ZM3037.71 1803.49V1844.3H3045.71V1803.49H3037.71ZM3037.71 1868.79V1889.2H3045.71V1868.79H3037.71ZM3037.71 878.858V919.672H3045.71V878.858H3037.71ZM3037.71 944.161V984.975H3045.71V944.161H3037.71ZM3037.71 1009.46V1050.28H3045.71V1009.46H3037.71ZM3037.71 1074.77V1115.58H3045.71V1074.77H3037.71ZM3037.71 1140.07V1180.88H3045.71V1140.07H3037.71ZM3037.71 1205.37V1246.18H3045.71V1205.37H3037.71ZM3037.71 1270.67V1291.08H3045.71V1270.67H3037.71Z" fill="#B3B3B3"/>
<g id="Text Background_4">
<text id="Text_4" fill="black" fill-opacity="0.8" xml:space="preserve" style="white-space: pre" font-family="Segoe UI" font-size="40" letter-spacing="-0.022em"><tspan x="2801.21" y="1348.14">Envia confirma&#xe7;&#xe3;o de leitura&#10;</tspan><tspan x="2801.21" y="1408.14">do c&#xf3;digo para autentica&#xe7;&#xe3;o</tspan></text>
</g>
</g>
<g id="Libera o acesso usando [ HTTPS / SSE ]">
<path id="Shape_5" d="M3380.07 835.778C3378.59 834.135 3376.06 834 3374.42 835.477C3372.78 836.954 3372.64 839.483 3374.12 841.126L3380.07 835.778ZM3614.02 1102.05L3617 1099.38L3617 1099.38L3614.02 1102.05ZM3618.51 1107.04L3621.48 1104.36L3621.48 1104.36L3618.51 1107.04ZM3639.13 1129.98L3636.16 1132.66L3636.16 1132.66L3639.13 1129.98ZM3740.76 1243.05L3743.73 1240.38L3743.73 1240.38L3740.76 1243.05ZM3745.24 1248.04L3742.27 1250.71L3742.27 1250.71L3745.24 1248.04ZM3783.93 1291.08L3780.95 1293.75L3780.95 1293.75L3783.93 1291.08ZM3910.66 1432.08L3913.64 1429.41L3913.64 1429.41L3910.66 1432.08ZM4156.3 1705.36L4153.32 1708.04L4153.32 1708.04L4156.3 1705.36ZM4158.97 1708.34L4161.94 1705.66L4161.94 1705.66L4158.97 1708.34ZM4342.63 1912.67L4345.6 1910L4345.6 1910L4342.63 1912.67ZM4564.72 2186.33C4563.08 2187.8 4563.72 2190.86 4565.82 2191.55L4599.6 2202.55C4601.7 2203.24 4604.02 2201.15 4603.56 2198.99L4596.21 2164.24C4595.75 2162.07 4592.78 2161.11 4591.14 2162.58L4564.72 2186.33ZM3374.12 841.126L3386.46 854.855L3392.41 849.507L3380.07 835.778L3374.12 841.126ZM3401.27 871.33L3425.95 898.788L3431.9 893.441L3407.22 865.982L3401.27 871.33ZM3440.75 915.263L3465.43 942.722L3471.38 937.374L3446.7 909.915L3440.75 915.263ZM3480.24 959.196L3504.92 986.655L3510.87 981.307L3486.19 953.849L3480.24 959.196ZM3519.73 1003.13L3544.41 1030.59L3550.36 1025.24L3525.68 997.782L3519.73 1003.13ZM3559.22 1047.06L3583.9 1074.52L3589.85 1069.17L3565.17 1041.71L3559.22 1047.06ZM3598.71 1091L3611.05 1104.73L3617 1099.38L3604.66 1085.65L3598.71 1091ZM3611.05 1104.73L3612.45 1106.28L3618.4 1100.94L3617 1099.38L3611.05 1104.73ZM3614.13 1108.15L3615.53 1109.71L3621.48 1104.36L3620.08 1102.81L3614.13 1108.15ZM3615.53 1109.71L3621.98 1116.88L3627.93 1111.54L3621.48 1104.36L3615.53 1109.71ZM3629.71 1125.49L3636.16 1132.66L3642.1 1127.31L3635.66 1120.14L3629.71 1125.49ZM3636.16 1132.66L3652.03 1150.33L3657.98 1144.98L3642.1 1127.31L3636.16 1132.66ZM3671.09 1171.53L3702.85 1206.86L3708.8 1201.51L3677.04 1166.18L3671.09 1171.53ZM3721.9 1228.06L3737.78 1245.73L3743.73 1240.38L3727.85 1222.71L3721.9 1228.06ZM3737.78 1245.73L3739.18 1247.28L3745.13 1241.94L3743.73 1240.38L3737.78 1245.73ZM3740.86 1249.15L3742.27 1250.71L3748.22 1245.36L3746.81 1243.81L3740.86 1249.15ZM3742.27 1250.71L3754.35 1264.16L3760.3 1258.81L3748.22 1245.36L3742.27 1250.71ZM3768.86 1280.3L3780.95 1293.75L3786.9 1288.41L3774.81 1274.96L3768.86 1280.3ZM3780.95 1293.75L3794.15 1308.44L3800.1 1303.09L3786.9 1288.41L3780.95 1293.75ZM3809.99 1326.07L3836.4 1355.44L3842.35 1350.09L3815.94 1320.72L3809.99 1326.07ZM3852.24 1373.07L3878.64 1402.44L3884.59 1397.09L3858.19 1367.72L3852.24 1373.07ZM3894.48 1420.07L3907.69 1434.75L3913.64 1429.41L3900.43 1414.72L3894.48 1420.07ZM3907.69 1434.75L3921.38 1449.99L3927.33 1444.64L3913.64 1429.41L3907.69 1434.75ZM3937.81 1468.27L3951.5 1483.5L3957.45 1478.15L3943.76 1462.92L3937.81 1468.27ZM4024.31 1564.5L4037.75 1579.45L4043.7 1574.11L4030.26 1559.15L4024.31 1564.5ZM4053.87 1597.4L4080.75 1627.3L4086.7 1621.95L4059.82 1592.05L4053.87 1597.4ZM4096.88 1645.24L4123.75 1675.14L4129.7 1669.8L4102.83 1639.89L4096.88 1645.24ZM4139.88 1693.08L4153.32 1708.04L4159.27 1702.69L4145.83 1687.74L4139.88 1693.08ZM4153.32 1708.04L4154.16 1708.97L4160.11 1703.62L4159.27 1702.69L4153.32 1708.04ZM4155.16 1710.08L4155.99 1711.01L4161.94 1705.66L4161.11 1704.73L4155.16 1710.08ZM4155.99 1711.01L4170.34 1726.97L4176.29 1721.63L4161.94 1705.66L4155.99 1711.01ZM4187.56 1746.13L4216.26 1778.06L4222.21 1772.71L4193.51 1740.78L4187.56 1746.13ZM4233.48 1797.21L4262.17 1829.14L4268.12 1823.79L4239.43 1791.87L4233.48 1797.21ZM4279.39 1848.3L4308.09 1880.23L4314.04 1874.88L4285.34 1842.95L4279.39 1848.3ZM4325.31 1899.38L4339.66 1915.35L4345.6 1910L4331.26 1894.03L4325.31 1899.38ZM4339.66 1915.35L4353.3 1930.53L4359.25 1925.18L4345.6 1910L4339.66 1915.35ZM4369.68 1948.75L4396.98 1979.12L4402.93 1973.77L4375.63 1943.4L4369.68 1948.75ZM4413.35 1997.34L4440.65 2027.71L4446.6 2022.36L4419.3 1991.99L4413.35 1997.34ZM4457.03 2045.93L4484.32 2076.3L4490.27 2070.95L4462.98 2040.58L4457.03 2045.93ZM4500.7 2094.52L4527.99 2124.88L4533.94 2119.54L4506.65 2089.17L4500.7 2094.52ZM4544.37 2143.11L4571.67 2173.47L4577.62 2168.13L4550.32 2137.76L4544.37 2143.11Z" fill="#B3B3B3"/>
<g id="Text Background_5">
<text id="Text_5" fill="black" fill-opacity="0.8" xml:space="preserve" style="white-space: pre" font-family="Segoe UI" font-size="40" letter-spacing="-0.022em"><tspan x="3665.38" y="1537.89">Libera o acesso usando [ HTTPS / SSE ]</tspan></text>
</g>
</g>
<g id="Acessa e escreve informa&#195;&#167;&#195;&#181;es &#195;&#186;teis para autentica&#195;&#167;&#195;&#163;o e uso">
<path id="Shape_6" d="M2457.65 469.322C2459.86 469.322 2461.65 467.531 2461.65 465.322C2461.65 463.112 2459.86 461.322 2457.65 461.322V469.322ZM2448.15 465.322V461.322L2448.15 461.322L2448.15 465.322ZM1292.4 467.151L1292.41 471.151L1292.41 471.151L1292.4 467.151ZM1290.41 449.394C1290.4 447.185 1287.69 445.627 1285.78 446.734L1255.05 464.544C1253.14 465.651 1253.14 468.776 1255.06 469.877L1285.85 487.589C1287.76 488.691 1290.47 487.124 1290.46 484.915L1290.41 449.394ZM2124.55 469.834L2144.78 469.802L2144.76 461.802L2124.54 461.834L2124.55 469.834ZM2169.05 469.763L2209.5 469.699L2209.49 461.699L2169.03 461.763L2169.05 469.763ZM2233.77 469.661L2274.22 469.597L2274.21 461.597L2233.76 461.661L2233.77 469.661ZM2298.49 469.558L2338.94 469.494L2338.93 461.494L2298.48 461.558L2298.49 469.558ZM2363.21 469.456L2403.66 469.392L2403.65 461.392L2363.2 461.456L2363.21 469.456ZM2427.94 469.354L2448.16 469.322L2448.15 461.322L2427.92 461.354L2427.94 469.354ZM2448.15 469.322H2451.12V461.322H2448.15V469.322ZM2454.69 469.322H2457.65V461.322H2454.69V469.322ZM1279.29 471.172L1292.41 471.151L1292.4 463.151L1279.28 463.172L1279.29 471.172ZM1292.41 471.151L1314.41 471.117L1314.4 463.117L1292.4 463.151L1292.41 471.151ZM1340.82 471.075L1384.82 471.005L1384.81 463.005L1340.8 463.075L1340.82 471.075ZM1411.23 470.963L1455.23 470.894L1455.22 462.894L1411.21 462.963L1411.23 470.963ZM1481.64 470.852L1525.64 470.782L1525.63 462.782L1481.62 462.852L1481.64 470.852ZM1552.05 470.74L1574.05 470.705L1574.04 462.705L1552.03 462.74L1552.05 470.74Z" fill="#B3B3B3"/>
<g id="Text Background_6">
<text id="Text_6" fill="black" fill-opacity="0.8" xml:space="preserve" style="white-space: pre" font-family="Segoe UI" font-size="40" letter-spacing="-0.022em"><tspan x="1600.29" y="452.832">Acessa e escreve informa&#xe7;&#xf5;es&#10;</tspan><tspan x="1600.29" y="512.832">&#xfa;teis para autentica&#xe7;&#xe3;o e uso</tspan></text>
</g>
</g>
<g id="Envia c&#195;&#179;digo de confirma&#195;&#167;&#195;&#163;o para a solicita&#195;&#167;&#195;&#163;o de login">
<path id="Shape_7" d="M2457.66 469.322C2459.86 469.322 2461.66 467.531 2461.66 465.322C2461.66 463.112 2459.86 461.322 2457.66 461.322V469.322ZM2358.65 536.77L2356.15 533.644L2356.15 533.644L2358.65 536.77ZM2124.55 723.636L2122.05 720.51L2122.05 720.51L2124.55 723.636ZM2118.47 728.481L2120.97 731.607L2120.97 731.607L2118.47 728.481ZM1831.9 957.229L1829.41 954.103L1829.41 954.103L1831.9 957.229ZM1467.58 1248.04L1470.08 1251.16L1470.08 1251.16L1467.58 1248.04ZM1413.66 1291.08L1411.17 1287.95L1411.17 1287.95L1413.66 1291.08ZM1292.4 1387.87L1294.9 1391L1294.9 1391L1292.4 1387.87ZM1237.02 1432.08L1239.52 1435.21L1239.52 1435.21L1237.02 1432.08ZM1175.95 1480.83L1173.46 1477.7L1173.46 1477.7L1175.95 1480.83ZM1074.48 1561.83L1076.97 1564.95L1076.97 1564.95L1074.48 1561.83ZM696.334 1840.95C694.956 1839.22 691.867 1839.69 691.061 1841.74L678.099 1874.82C677.292 1876.87 679.241 1879.31 681.426 1878.98L716.548 1873.67C718.732 1873.34 719.872 1870.43 718.494 1868.71L696.334 1840.95ZM2447.06 466.195L2444.57 463.069L2447.06 466.195ZM1652.97 1105.18L1667.14 1093.86L1662.15 1087.61L1647.98 1098.93L1652.97 1105.18ZM1684.15 1080.29L1712.5 1057.66L1707.51 1051.41L1679.16 1074.03L1684.15 1080.29ZM1729.51 1044.08L1757.86 1021.45L1752.87 1015.2L1724.52 1037.83L1729.51 1044.08ZM1774.87 1007.88L1803.22 985.247L1798.23 978.994L1769.88 1001.62L1774.87 1007.88ZM1820.23 971.67L1834.4 960.355L1829.41 954.103L1815.23 965.417L1820.23 971.67ZM1834.4 960.355L1849.33 948.441L1844.33 942.189L1829.41 954.103L1834.4 960.355ZM1867.24 934.145L1897.09 910.317L1892.1 904.064L1862.25 927.892L1867.24 934.145ZM1915 896.02L1944.85 872.192L1939.86 865.94L1910.01 889.768L1915 896.02ZM1962.76 857.895L1992.61 834.067L1987.62 827.815L1957.77 851.643L1962.76 857.895ZM2010.52 819.771L2040.37 795.943L2035.38 789.69L2005.53 813.518L2010.52 819.771ZM2058.28 781.646L2088.13 757.818L2083.14 751.566L2053.29 775.394L2058.28 781.646ZM2106.04 743.521L2120.97 731.607L2115.98 725.355L2101.05 737.269L2106.04 743.521ZM2120.97 731.607L2122.87 730.093L2117.88 723.841L2115.98 725.355L2120.97 731.607ZM2125.14 728.276L2127.04 726.762L2122.05 720.51L2120.15 722.024L2125.14 728.276ZM2127.04 726.762L2141.67 715.083L2136.68 708.83L2122.05 720.51L2127.04 726.762ZM2159.23 701.068L2188.49 677.71L2183.5 671.457L2154.24 694.816L2159.23 701.068ZM2206.05 663.695L2235.31 640.336L2230.32 634.084L2201.06 657.442L2206.05 663.695ZM2252.87 626.321L2282.13 602.963L2277.14 596.711L2247.88 620.069L2252.87 626.321ZM2299.69 588.948L2328.95 565.59L2323.96 559.338L2294.7 582.696L2299.69 588.948ZM2346.51 551.575L2361.14 539.896L2356.15 533.644L2341.52 545.323L2346.51 551.575ZM2361.14 539.896L2374.96 528.869L2369.97 522.616L2356.15 533.644L2361.14 539.896ZM2391.53 515.636L2419.16 493.581L2414.17 487.329L2386.54 509.384L2391.53 515.636ZM2435.74 480.349L2449.56 469.322L2444.57 463.069L2430.75 474.096L2435.74 480.349ZM2449.56 469.322L2449.56 469.322L2445.98 462.164C2445.48 462.414 2445.01 462.717 2444.57 463.069L2449.56 469.322ZM2449.56 469.322L2449.56 469.322V461.322C2448.99 461.322 2448.43 461.381 2447.88 461.498L2449.56 469.322ZM2449.56 469.322H2452.09V461.322H2449.56V469.322ZM2455.12 469.322H2457.66V461.322H2455.12V469.322ZM712.879 1855.58L743.998 1830.74L739.007 1824.49L707.888 1849.33L712.879 1855.58ZM762.669 1815.84L793.788 1791L788.798 1784.75L757.678 1809.59L762.669 1815.84ZM812.46 1776.09L843.579 1751.25L838.588 1745L807.469 1769.84L812.46 1776.09ZM862.25 1736.35L893.369 1711.51L888.379 1705.26L857.259 1730.1L862.25 1736.35ZM912.041 1696.61L943.16 1671.77L938.169 1665.51L907.05 1690.35L912.041 1696.61ZM961.831 1656.86L992.95 1632.02L987.96 1625.77L956.84 1650.61L961.831 1656.86ZM1011.62 1617.12L1042.74 1592.28L1037.75 1586.03L1006.63 1610.87L1011.62 1617.12ZM1061.41 1577.37L1076.97 1564.95L1071.98 1558.7L1056.42 1571.12L1061.41 1577.37ZM1076.97 1564.95L1092.83 1552.3L1087.84 1546.05L1071.98 1558.7L1076.97 1564.95ZM1111.85 1537.11L1143.56 1511.8L1138.57 1505.55L1106.86 1530.86L1111.85 1537.11ZM1162.59 1496.61L1178.45 1483.95L1173.46 1477.7L1157.6 1490.36L1162.59 1496.61ZM1178.45 1483.95L1197.53 1468.72L1192.54 1462.47L1173.46 1477.7L1178.45 1483.95ZM1220.43 1450.44L1239.52 1435.21L1234.53 1428.95L1215.44 1444.19L1220.43 1450.44ZM1239.52 1435.21L1256.83 1421.39L1251.83 1415.14L1234.53 1428.95L1239.52 1435.21ZM1277.59 1404.81L1294.9 1391L1289.91 1384.75L1272.6 1398.56L1277.59 1404.81ZM1294.9 1391L1313.85 1375.87L1308.86 1369.62L1289.91 1384.75L1294.9 1391ZM1336.58 1357.73L1374.48 1327.48L1369.49 1321.23L1331.59 1351.47L1336.58 1357.73ZM1397.21 1309.33L1416.16 1294.21L1411.17 1287.95L1392.22 1303.08L1397.21 1309.33ZM1416.16 1294.21L1433.01 1280.76L1428.02 1274.5L1411.17 1287.95L1416.16 1294.21ZM1453.23 1264.62L1470.08 1251.16L1465.09 1244.91L1448.24 1258.36L1453.23 1264.62ZM1470.08 1251.16L1472.03 1249.61L1467.04 1243.35L1465.09 1244.91L1470.08 1251.16ZM1474.38 1247.74L1476.33 1246.18L1471.34 1239.93L1469.38 1241.48L1474.38 1247.74Z" fill="#B3B3B3"/>
<g id="Text Background_7">
<text id="Text_7" fill="black" fill-opacity="0.8" xml:space="preserve" style="white-space: pre" font-family="Segoe UI" font-size="40" letter-spacing="-0.022em"><tspan x="1318.65" y="1159.11">Envia c&#xf3;digo de confirma&#xe7;&#xe3;o&#10;</tspan><tspan x="1318.65" y="1219.11">para a solicita&#xe7;&#xe3;o de login</tspan></text>
</g>
</g>
<g id="Envia solicita&#195;&#167;&#195;&#163;o de login e aguarda pela confirma&#195;&#167;&#195;&#163;o">
<path id="Shape_8" d="M3635.16 4057.75C3633.6 4059.31 3633.6 4061.84 3635.16 4063.4C3636.73 4064.97 3639.26 4064.97 3640.82 4063.4L3635.16 4057.75ZM3640.82 4057.75L3637.99 4054.92L3637.99 4054.92L3640.82 4057.75ZM4156.29 3542.48L4159.12 3545.31L4159.12 3545.31L4156.29 3542.48ZM4159.12 3539.66L4156.3 3536.83L4156.3 3536.83L4159.12 3539.66ZM4545.73 3153.2L4548.56 3156.03L4548.56 3156.03L4545.73 3153.2ZM4631.46 3067.51L4634.28 3070.34L4634.28 3070.34L4631.46 3067.51ZM4659.79 3039.19L4656.97 3036.36L4656.97 3036.36L4659.79 3039.19ZM4746.81 2952.2L4749.64 2955.03L4749.64 2955.03L4746.81 2952.2ZM5162.36 2561.94C5163.92 2563.5 5166.94 2562.69 5167.51 2560.56L5176.71 2526.25C5177.29 2524.11 5175.08 2521.9 5172.94 2522.48L5138.63 2531.66C5136.5 2532.23 5135.69 2535.25 5137.25 2536.81L5162.36 2561.94ZM3640.82 4063.4L3643.65 4060.58L3637.99 4054.92L3635.16 4057.75L3640.82 4063.4ZM3643.65 4060.58L4159.12 3545.31L4153.47 3539.65L3637.99 4054.92L3643.65 4060.58ZM4159.12 3545.31L4161.95 3542.48L4156.3 3536.83L4153.47 3539.65L4159.12 3545.31ZM4161.95 3542.48L4340.34 3364.16L4334.69 3358.51L4156.3 3536.83L4161.95 3542.48ZM4481.4 3223.16L4548.56 3156.03L4542.91 3150.37L4475.75 3217.51L4481.4 3223.16ZM4548.56 3156.03L4634.28 3070.34L4628.63 3064.68L4542.91 3150.37L4548.56 3156.03ZM4634.28 3070.34L4662.62 3042.02L4656.97 3036.36L4628.63 3064.68L4634.28 3070.34ZM4662.62 3042.02L4749.64 2955.03L4743.99 2949.37L4656.97 3036.36L4662.62 3042.02ZM4749.64 2955.03L5155.46 2549.38L5149.81 2543.72L4743.99 2949.37L4749.64 2955.03Z" fill="#B3B3B3"/>
<g id="Text Background_8">
<text id="Text_8" fill="black" fill-opacity="0.8" xml:space="preserve" style="white-space: pre" font-family="Segoe UI" font-size="40" letter-spacing="-0.022em"><tspan x="4182.54" y="3277.4">Envia solicita&#xe7;&#xe3;o de login e&#10;</tspan><tspan x="4182.54" y="3337.4">aguarda pela confirma&#xe7;&#xe3;o</tspan></text>
</g>
</g>
</g>
<g id="Frame 11">
<text id="[Container] Fluxo de autentica&#195;&#167;&#195;&#163;o sem senha" fill="#1E1E1E" xml:space="preserve" style="white-space: pre" font-family="Segoe UI" font-size="96" letter-spacing="-0.023em"><tspan x="100" y="4680.72">[Container] Fluxo de autentica&#xe7;&#xe3;o sem senha</tspan></text>
<g id="Diagrama de container para fluxo de autentica&#195;&#167;&#195;&#163;o - criado com The C4 model for Figma">
<text fill="#3064F4" xml:space="preserve" style="white-space: pre" font-family="Segoe UI" font-size="48" letter-spacing="-0.023em" text-decoration="underline"><tspan x="1381.6" y="4768.84"><a href="https://www.figma.com/community/file/1122907722147721168">The C4 model for Figma</a></tspan></text>
<text fill="#ADADAD" xml:space="preserve" style="white-space: pre" font-family="Segoe UI" font-size="48" letter-spacing="-0.023em"><tspan x="100" y="4768.84">Diagrama de container para fluxo de autentica&#xe7;&#xe3;o - criado com </tspan></text>
</g>
</g>
</g>
<defs>
<clipPath id="clip0_2125_550">
<rect width="1177.7" height="981.933" fill="white" transform="translate(2452.86 3577.03)"/>
</clipPath>
<clipPath id="clip1_2125_550">
<rect width="1147.11" height="714.053" fill="white" transform="translate(100 110.197)"/>
</clipPath>
</defs>
</svg>
