<svg viewBox="0 0 24 24" fill="none" xmlns="http://www.w3.org/2000/svg">
<path d="M4 22H5M8 22H10H12M8 22V13M8 22H5M16 22H14H12M16 22V13M16 22H19M20 22H19M12 7L8.93726 10.0627C8.59135 10.4086 8.4184 10.5816 8.29472 10.7834C8.18506 10.9624 8.10425 11.1575 8.05526 11.3615C8 11.5917 8 11.8363 8 12.3255V13M12 7L15.0627 10.0627C15.4086 10.4086 15.5816 10.5816 15.7053 10.7834C15.8149 10.9624 15.8957 11.1575 15.9447 11.3615C16 11.5917 16 11.8363 16 12.3255V13M12 7V2M16 13L18.2875 14.525C18.548 14.6987 18.6783 14.7855 18.7725 14.9002C18.856 15.0018 18.9186 15.1188 18.9568 15.2446C19 15.3867 19 15.5432 19 15.8563V22M12 22V17M8 13L5.71248 14.525C5.45199 14.6987 5.32174 14.7855 5.22745 14.9002C5.14398 15.0018 5.08135 15.1188 5.04315 15.2446C5 15.3867 5 15.5432 5 15.8563V22M10 4H14" stroke="currentColor" stroke-width="2" stroke-linecap="round"/>
<path d="M12 12V12.01" stroke="currentColor" stroke-width="2" stroke-linecap="round"/>
</svg>
