<svg viewBox="0 0 24 24" fill="none" xmlns="http://www.w3.org/2000/svg">
<path d="M4 10V10C3.10883 10 2.55013 9.03727 2.99228 8.26351L5.07865 4.61236C5.41422 4.02512 5.582 3.7315 5.81776 3.51789C6.02635 3.32889 6.27249 3.18605 6.54007 3.09871C6.84251 3 7.18068 3 7.85703 3H10M4 10V17.8C4 18.9201 4 19.4802 4.21799 19.908C4.40973 20.2843 4.71569 20.5903 5.09202 20.782C5.51984 21 6.07989 21 7.2 21H12M4 10H8M20 10V10C20.8912 10 21.4499 9.03727 21.0077 8.26351L18.9213 4.61236C18.5858 4.02512 18.418 3.7315 18.1822 3.51789C17.9737 3.32889 17.7275 3.18605 17.4599 3.09871C17.1575 3 16.8193 3 16.143 3H14M20 10V17.8C20 18.9201 20 19.4802 19.782 19.908C19.5903 20.2843 19.2843 20.5903 18.908 20.782C18.4802 21 17.9201 21 16.8 21H16M20 10H16M16 21H12M16 21V15.6C16 15.0399 16 14.7599 15.891 14.546C15.7951 14.3578 15.6422 14.2049 15.454 14.109C15.2401 14 14.9601 14 14.4 14H13.6C13.0399 14 12.7599 14 12.546 14.109C12.3578 14.2049 12.2049 14.3578 12.109 14.546C12 14.7599 12 15.0399 12 15.6V21M8 14V14.01M8 10H12H16M8 10L10 3M10 3H14M14 3L16 10" stroke="black" stroke-width="2" stroke-linecap="round"/>
</svg>
