<svg viewBox="0 0 24 24" fill="none" xmlns="http://www.w3.org/2000/svg">
<path d="M4 10V10C3.10883 10 2.55013 9.03727 2.99228 8.26351L5.07865 4.61236C5.41422 4.02512 5.582 3.7315 5.81776 3.51789C6.02635 3.32889 6.27249 3.18605 6.54007 3.09871C6.84251 3 7.18068 3 7.85703 3H16.143C16.8193 3 17.1575 3 17.4599 3.09871C17.7275 3.18605 17.9737 3.32889 18.1822 3.51789C18.418 3.7315 18.5858 4.02512 18.9213 4.61236L21.0077 8.26351C21.4499 9.03727 20.8912 10 20 10V10M4 10V17.8C4 18.9201 4 19.4802 4.21799 19.908C4.40973 20.2843 4.71569 20.5903 5.09202 20.782C5.51984 21 6.0799 21 7.2 21H10M4 10H12H20M20 10V17.8C20 18.9201 20 19.4802 19.782 19.908C19.5903 20.2843 19.2843 20.5903 18.908 20.782C18.4802 21 17.9201 21 16.8 21H15H14M10 21V15.6C10 15.0399 10 14.7599 10.109 14.546C10.2049 14.3578 10.3578 14.2049 10.546 14.109C10.7599 14 11.0399 14 11.6 14H12.4C12.9601 14 13.2401 14 13.454 14.109C13.6422 14.2049 13.7951 14.3578 13.891 14.546C14 14.7599 14 15.0399 14 15.6V21M10 21H14" stroke="currentColor" stroke-width="2" stroke-linecap="round"/>
</svg>
