<svg viewBox="0 0 24 24" fill="none" xmlns="http://www.w3.org/2000/svg">
<path d="M9 9L8.04703 9.95297C6.87245 11.1275 5.01293 11.2597 3.68405 10.263V10.263C2.73924 9.55443 2.51257 8.23115 3.16768 7.24848L4.81253 4.7812C5.5544 3.6684 6.80332 3 8.14074 3H15.8593C17.1967 3 18.4456 3.6684 19.1875 4.7812L20.8323 7.24848C21.4874 8.23115 21.2608 9.55443 20.3159 10.263V10.263C18.9871 11.2597 17.1275 11.1275 15.953 9.95297L15 9M9 9V9C10.6569 10.6569 13.3431 10.6569 15 9V9M9 9V8M15 9V8" stroke="currentColor" stroke-width="2" stroke-linecap="round"/>
<path d="M4 11V14.6C4 16.8402 4 17.9603 4.43597 18.816C4.81947 19.5686 5.43139 20.1805 6.18404 20.564C7.03968 21 8.15979 21 10.4 21H13.6C15.8402 21 16.9603 21 17.816 20.564C18.5686 20.1805 19.1805 19.5686 19.564 18.816C20 17.9603 20 16.8402 20 14.6V11" stroke="currentColor" stroke-width="2" stroke-linecap="round"/>
<path d="M8 16H10" stroke="currentColor" stroke-width="2" stroke-linecap="round"/>
<path d="M15 16V21" stroke="currentColor" stroke-width="2" stroke-linecap="round"/>
</svg>
