<svg viewBox="0 0 24 24" fill="none" xmlns="http://www.w3.org/2000/svg">
<path d="M3 21H4M21 21H20M4 21V8.66667C4 8.04669 4 7.7367 4.06815 7.48236C4.25308 6.79218 4.79218 6.25308 5.48236 6.06815C5.7367 6 6.04669 6 6.66667 6V6C6.97666 6 7.13165 6 7.25882 5.96593C7.60391 5.87346 7.87346 5.60391 7.96593 5.25882C8 5.13165 8 4.97666 8 4.66667V4.66667C8 4.04669 8 3.7367 8.06815 3.48236C8.25308 2.79218 8.79218 2.25308 9.48236 2.06815C9.7367 2 10.0467 2 10.6667 2L12.8 2C13.9201 2 14.4802 2 14.908 2.21799C15.2843 2.40973 15.5903 2.71569 15.782 3.09202C16 3.51984 16 4.0799 16 5.2V8M4 21H16M16 21V8M16 21H20M16 8H18.4C18.9601 8 19.2401 8 19.454 8.10899C19.6422 8.20487 19.7951 8.35785 19.891 8.54601C20 8.75992 20 9.03995 20 9.6V21" stroke="currentColor" stroke-width="2" stroke-linecap="round"/>
<path d="M8 10H12M8 13.5H12M8 17H12" stroke="currentColor" stroke-width="2" stroke-linecap="round"/>
<path d="M12 6.51V6.5" stroke="currentColor" stroke-width="2" stroke-linecap="round"/>
</svg>
