<svg viewBox="0 0 24 24" fill="none" xmlns="http://www.w3.org/2000/svg">
<path d="M3 21H4M21 21H20M4 21V6.2C4 5.07989 4 4.51984 4.21799 4.09202C4.40973 3.71569 4.71569 3.40973 5.09202 3.21799C5.51984 3 6.07989 3 7.2 3H10.8C11.9201 3 12.4802 3 12.908 3.21799C13.2843 3.40973 13.5903 3.71569 13.782 4.09202C14 4.51984 14 5.07989 14 6.2V8M4 21H9H14M14 21V8M14 21H20M14 8H18.4C18.9601 8 19.2401 8 19.454 8.10899C19.6422 8.20487 19.7951 8.35785 19.891 8.54601C20 8.75992 20 9.03995 20 9.6V21M17 11.99V12M17 17V17.01" stroke="black" stroke-width="2" stroke-linecap="round"/>
<path d="M8 7H10M8 12H10M8 17H10" stroke="black" stroke-width="2" stroke-linecap="round"/>
</svg>
