<svg viewBox="0 0 24 24" fill="none" xmlns="http://www.w3.org/2000/svg">
<path d="M15.2448 16.0197L15.6777 15.1183L15.6777 15.1183L15.2448 16.0197ZM12.2881 12.7119C11.8976 12.3214 11.2644 12.3214 10.8739 12.7119C10.4834 13.1024 10.4834 13.7356 10.8739 14.1261L12.2881 12.7119ZM16.2425 20.7793L16.5156 19.8173H16.5156L16.2425 20.7793ZM9.38071 15.6193C8.99019 15.2288 8.35702 15.2288 7.9665 15.6193C7.57597 16.0098 7.57597 16.643 7.9665 17.0335L9.38071 15.6193ZM5.26193 5.20102L4.55483 4.49392L4.55483 4.49392L5.26193 5.20102ZM5.40597 5.05699L6.11307 5.7641L6.11307 5.7641L5.40597 5.05699ZM9.03383 5.05699L8.32673 5.7641V5.7641L9.03383 5.05699ZM9.21189 5.23504L9.91899 4.52794L9.91899 4.52794L9.21189 5.23504ZM19.943 15.9662L19.2359 16.6733L19.2359 16.6733L19.943 15.9662ZM19.765 15.7881L20.4721 15.081L20.4721 15.081L19.765 15.7881ZM19.1252 15.2045L19.6703 14.3662L19.6703 14.3662L19.1252 15.2045ZM17.133 15.2045L17.6781 16.0429L17.133 15.2045ZM20.8033 18.6049L19.9109 18.1536V18.1536L20.8033 18.6049ZM20.8033 16.9553L19.9109 17.4066L19.9109 17.4066L20.8033 16.9553ZM9.79547 5.87481L10.6338 5.32972L10.6338 5.32972L9.79547 5.87481ZM9.21189 8.5068L9.91899 9.21391L9.91899 9.21391L9.21189 8.5068ZM9.79547 7.86703L8.95709 7.32194L8.95709 7.32195L9.79547 7.86703ZM6.3951 4.19672L5.94375 3.30438L5.94375 3.30438L6.3951 4.19672ZM8.0447 4.19672L8.49605 3.30438V3.30438L8.0447 4.19672ZM17.3935 21L17.3905 22H17.3905L17.3935 21ZM18.7441 20.6487L19.2339 21.5206L19.2339 21.5206L18.7441 20.6487ZM4.22071 8.75746L5.18271 8.48441V8.48441L4.22071 8.75746ZM4.00001 7.60653L5 7.60356V7.60356L4.00001 7.60653ZM4.35126 6.25587L3.4794 5.76611L3.4794 5.76611L4.35126 6.25587ZM15.4878 16.1228L15.7677 15.1628L15.7677 15.1628L15.4878 16.1228ZM16.2755 15.9885L16.8577 16.8016H16.8577L16.2755 15.9885ZM8.07878 10.188C8.31783 10.6859 8.91521 10.8957 9.41309 10.6566C9.91096 10.4176 10.1208 9.8202 9.88174 9.32233L8.07878 10.188ZM8.8772 9.51218L7.91715 9.79203L7.91715 9.79203L8.8772 9.51218ZM9.0115 8.72452L8.19845 8.14233L8.19845 8.14233L9.0115 8.72452ZM4.61164 12.4507C4.86521 12.9413 5.46851 13.1335 5.95914 12.8799C6.44977 12.6263 6.64194 12.023 6.38836 11.5324L4.61164 12.4507ZM20.7071 4.70711C21.0976 4.31658 21.0976 3.68342 20.7071 3.29289C20.3166 2.90237 19.6834 2.90237 19.2929 3.29289L20.7071 4.70711ZM3.29289 19.2929C2.90237 19.6834 2.90237 20.3166 3.29289 20.7071C3.68342 21.0976 4.31658 21.0976 4.70711 20.7071L3.29289 19.2929ZM15.6777 15.1183C14.4535 14.5305 13.3051 13.7289 12.2881 12.7119L10.8739 14.1261C12.0527 15.3049 13.3872 16.2371 14.812 16.9212L15.6777 15.1183ZM16.5156 19.8173C13.9038 19.076 11.439 17.6776 9.38071 15.6193L7.9665 17.0335C10.2721 19.3391 13.038 20.9093 15.9695 21.7413L16.5156 19.8173ZM5.96904 5.90813L6.11307 5.7641L4.69886 4.34988L4.55483 4.49392L5.96904 5.90813ZM8.32673 5.7641L8.50478 5.94215L9.91899 4.52794L9.74094 4.34988L8.32673 5.7641ZM20.5061 20.4452L20.6501 20.3011L19.2359 18.8869L19.0919 19.031L20.5061 20.4452ZM20.6501 15.2591L20.4721 15.081L19.0578 16.4952L19.2359 16.6733L20.6501 15.2591ZM20.4721 15.081C20.1887 14.7977 19.9409 14.5421 19.6703 14.3662L18.5801 16.0429C18.6307 16.0758 18.7023 16.1397 19.0579 16.4952L20.4721 15.081ZM17.2003 16.4952C17.5559 16.1397 17.6275 16.0758 17.6781 16.0429L16.5879 14.3662C16.3172 14.5421 16.0694 14.7977 15.7861 15.081L17.2003 16.4952ZM19.6703 14.3662C18.7331 13.7569 17.525 13.7569 16.5879 14.3662L17.6781 16.0429C17.9523 15.8646 18.3059 15.8646 18.5801 16.0429L19.6703 14.3662ZM20.6501 20.3011C21.0801 19.8711 21.4734 19.4957 21.6956 19.0562L19.9109 18.1536C19.8694 18.2357 19.7771 18.3458 19.2359 18.8869L20.6501 20.3011ZM19.2359 16.6733C19.7771 17.2144 19.8694 17.3246 19.9109 17.4066L21.6956 16.504C21.4734 16.0645 21.0801 15.6891 20.6501 15.2591L19.2359 16.6733ZM21.6956 19.0562C22.1015 18.2539 22.1015 17.3063 21.6956 16.504L19.9109 17.4066C20.0297 17.6415 20.0297 17.9187 19.9109 18.1536L21.6956 19.0562ZM8.50478 5.94215C8.86032 6.29769 8.92421 6.36934 8.95709 6.4199L10.6338 5.32972C10.4579 5.05907 10.2023 4.81127 9.91899 4.52794L8.50478 5.94215ZM9.91899 9.21391C10.2023 8.93059 10.4579 8.68277 10.6338 8.41212L8.95709 7.32195C8.92422 7.3725 8.86031 7.44416 8.50478 7.79969L9.91899 9.21391ZM8.95709 6.4199C9.1354 6.69415 9.1354 7.0477 8.95709 7.32194L10.6338 8.41212C11.2431 7.47499 11.2431 6.26686 10.6338 5.32972L8.95709 6.4199ZM6.11307 5.7641C6.65424 5.22293 6.76435 5.1306 6.84645 5.08907L5.94375 3.30438C5.50434 3.52663 5.12886 3.91988 4.69886 4.34988L6.11307 5.7641ZM9.74094 4.34988C9.31093 3.91988 8.93546 3.52663 8.49605 3.30438L7.59335 5.08907C7.67545 5.1306 7.78556 5.22293 8.32673 5.7641L9.74094 4.34988ZM6.84644 5.08907C7.08125 4.97031 7.35855 4.97031 7.59335 5.08907L8.49605 3.30438C7.69368 2.89854 6.74612 2.89854 5.94375 3.30438L6.84644 5.08907ZM15.9695 21.7413C16.4674 21.8826 16.8544 21.9984 17.3905 22L17.3964 20C17.1779 19.9993 17.0491 19.9687 16.5156 19.8173L15.9695 21.7413ZM19.0919 19.031C18.5774 19.5455 18.4382 19.6736 18.2544 19.7769L19.2339 21.5206C19.708 21.2543 20.0528 20.8985 20.5061 20.4452L19.0919 19.031ZM17.3905 22C17.9817 22.0017 18.7184 21.8102 19.2339 21.5206L18.2544 19.7769C18.0398 19.8974 17.6426 20.0007 17.3964 20L17.3905 22ZM5.18271 8.48441C5.03127 7.95087 5.00065 7.82213 5 7.60356L3.00001 7.60951C3.00161 8.14556 3.11738 8.53258 3.2587 9.03051L5.18271 8.48441ZM4.55483 4.49392C4.1015 4.94724 3.74573 5.29199 3.4794 5.76611L5.22311 6.74563C5.32637 6.56182 5.45452 6.42265 5.96904 5.90813L4.55483 4.49392ZM5 7.60356C4.99927 7.35743 5.10257 6.96022 5.22311 6.74563L3.4794 5.76611C3.18983 6.28158 2.99825 7.01828 3.00001 7.60951L5 7.60356ZM14.812 16.9212C14.9071 16.9669 15.0417 17.0344 15.208 17.0828L15.7677 15.1628C15.7724 15.1641 15.7775 15.1658 15.7819 15.1675C15.7859 15.1689 15.7862 15.1692 15.7808 15.1668C15.7747 15.1642 15.7646 15.1596 15.7466 15.1512C15.7283 15.1426 15.7071 15.1324 15.6777 15.1183L14.812 16.9212ZM15.7861 15.081C15.7593 15.1078 15.739 15.1281 15.7213 15.1456C15.7038 15.1629 15.6925 15.1737 15.6848 15.1809C15.6712 15.1937 15.6773 15.1869 15.6933 15.1754L16.8577 16.8016C17.0005 16.6993 17.1171 16.5784 17.2003 16.4952L15.7861 15.081ZM15.208 17.0828C15.7588 17.2434 16.3912 17.1356 16.8577 16.8016L15.6933 15.1754C15.7093 15.164 15.7203 15.1591 15.7242 15.1576C15.7282 15.156 15.7293 15.156 15.7283 15.1561C15.7273 15.1563 15.7283 15.156 15.7326 15.1561C15.7368 15.1563 15.7487 15.1572 15.7677 15.1628L15.208 17.0828ZM9.88174 9.32233C9.8676 9.29288 9.85744 9.2717 9.84882 9.2534C9.84037 9.23545 9.83579 9.22528 9.83316 9.21924C9.83081 9.21384 9.83109 9.21414 9.83254 9.21807C9.83417 9.22249 9.83587 9.22763 9.83724 9.23232L7.91715 9.79203C7.96562 9.95828 8.03315 10.0929 8.07878 10.188L9.88174 9.32233ZM8.50478 7.79969C8.42155 7.88292 8.30072 7.9995 8.19845 8.14233L9.82455 9.30671C9.81313 9.32266 9.80635 9.32881 9.81908 9.31521C9.82632 9.30747 9.83712 9.29625 9.85445 9.27869C9.87191 9.261 9.89222 9.24068 9.91899 9.21391L8.50478 7.79969ZM9.83724 9.23232C9.84276 9.25127 9.84368 9.26325 9.84386 9.26739C9.84405 9.27169 9.8437 9.27273 9.84387 9.27173C9.84404 9.27073 9.84403 9.27183 9.84242 9.27582C9.84088 9.27967 9.83605 9.29066 9.82456 9.30671L8.19845 8.14233C7.86441 8.60883 7.75658 9.24119 7.91715 9.79203L9.83724 9.23232ZM6.38836 11.5324C5.88131 10.5513 5.47941 9.52978 5.18271 8.48441L3.2587 9.0305C3.59151 10.203 4.04246 11.3494 4.61164 12.4507L6.38836 11.5324ZM19.2929 3.29289L3.29289 19.2929L4.70711 20.7071L20.7071 4.70711L19.2929 3.29289Z" fill="black"/>
</svg>
