<svg viewBox="0 0 24 24" fill="none" xmlns="http://www.w3.org/2000/svg">
<path d="M11 3L13 3M17 18.8V9.2C17 8.07989 17 7.51984 16.782 7.09202C16.5903 6.71569 16.2843 6.40973 15.908 6.21799C15.4802 6 14.9201 6 13.8 6L10.2 6C9.07989 6 8.51984 6 8.09202 6.21799C7.71569 6.40973 7.40973 6.71569 7.21799 7.09202C7 7.51984 7 8.07989 7 9.2L7 18.8C7 19.9201 7 20.4802 7.21799 20.908C7.40973 21.2843 7.7157 21.5903 8.09202 21.782C8.51984 22 9.0799 22 10.2 22H13.8C14.9201 22 15.4802 22 15.908 21.782C16.2843 21.5903 16.5903 21.2843 16.782 20.908C17 20.4802 17 19.9201 17 18.8Z" stroke="black" stroke-width="2" stroke-linecap="round"/>
</svg>
