<svg viewBox="0 0 24 24" fill="none" xmlns="http://www.w3.org/2000/svg">
<path d="M6 12H18M6 16H18M12 8V6C12 4.89543 12.8954 4 14 4H20M5.2 20H18.8C19.9201 20 20.4802 20 20.908 19.782C21.2843 19.5903 21.5903 19.2843 21.782 18.908C22 18.4802 22 17.9201 22 16.8V11.2C22 10.0799 22 9.51984 21.782 9.09202C21.5903 8.71569 21.2843 8.40973 20.908 8.21799C20.4802 8 19.9201 8 18.8 8H5.2C4.07989 8 3.51984 8 3.09202 8.21799C2.71569 8.40973 2.40973 8.71569 2.21799 9.09202C2 9.51984 2 10.0799 2 11.2V16.8C2 17.9201 2 18.4802 2.21799 18.908C2.40973 19.2843 2.71569 19.5903 3.09202 19.782C3.51984 20 4.0799 20 5.2 20Z" stroke="black" stroke-width="2" stroke-linecap="round"/>
</svg>
