<svg width="24" height="24" viewBox="0 0 24 24" fill="none" xmlns="http://www.w3.org/2000/svg">
<path d="M7 7C7 7.55228 7.44772 8 8 8C8.55228 8 9 7.55228 9 7H7ZM15 7C15 7.55228 15.4477 8 16 8C16.5523 8 17 7.55228 17 7H15ZM9.09202 20.782L9.54601 19.891L9.09202 20.782ZM8.21799 19.908L9.10899 19.454L8.21799 19.908ZM15.782 19.908L14.891 19.454L15.782 19.908ZM14.908 20.782L14.454 19.891L14.908 20.782ZM14.908 13.218L14.454 14.109L14.908 13.218ZM15.782 14.092L14.891 14.546L15.782 14.092ZM9.09202 13.218L9.54601 14.109L9.09202 13.218ZM8.21799 14.092L9.10899 14.546L8.21799 14.092ZM16.3124 9.31247C15.7601 9.31247 15.3124 9.76018 15.3124 10.3125C15.3124 10.8648 15.7601 11.3125 16.3124 11.3125V9.31247ZM16.6874 11.3125C17.2397 11.3125 17.6874 10.8648 17.6874 10.3125C17.6874 9.76018 17.2397 9.31247 16.6874 9.31247V11.3125ZM16.3124 9.68747C15.7601 9.68747 15.3124 10.1352 15.3124 10.6875C15.3124 11.2398 15.7601 11.6875 16.3124 11.6875V9.68747ZM16.6874 11.6875C17.2397 11.6875 17.6874 11.2398 17.6874 10.6875C17.6874 10.1352 17.2397 9.68747 16.6874 9.68747V11.6875ZM6 8H18V6H6V8ZM19 9V14H21V9H19ZM5 14V9H3V14H5ZM18 15H15.2V17H18V15ZM8.8 15H6V17H8.8V15ZM3 14C3 15.6569 4.34314 17 6 17V15C5.44771 15 5 14.5523 5 14H3ZM19 14C19 14.5523 18.5523 15 18 15V17C19.6569 17 21 15.6569 21 14H19ZM18 8C18.5523 8 19 8.44772 19 9H21C21 7.34315 19.6569 6 18 6V8ZM6 6C4.34315 6 3 7.34315 3 9H5C5 8.44772 5.44772 8 6 8V6ZM9 7V5H7V7H9ZM10 4H14V2H10V4ZM15 5V7H17V5H15ZM14 4C14.5523 4 15 4.44772 15 5H17C17 3.34315 15.6569 2 14 2V4ZM9 5C9 4.44772 9.44772 4 10 4V2C8.34315 2 7 3.34315 7 5H9ZM11.2 14H12.8V12H11.2V14ZM15 16.2V17.8H17V16.2H15ZM12.8 20H11.2V22H12.8V20ZM9 17.8V16.2H7V17.8H9ZM11.2 20C10.6234 20 10.2512 19.9992 9.96784 19.9761C9.69617 19.9539 9.59545 19.9162 9.54601 19.891L8.63803 21.673C9.01641 21.8658 9.40963 21.9371 9.80497 21.9694C10.1886 22.0008 10.6564 22 11.2 22V20ZM7 17.8C7 18.3436 6.99922 18.8114 7.03057 19.195C7.06287 19.5904 7.13419 19.9836 7.32698 20.362L9.10899 19.454C9.0838 19.4045 9.04612 19.3038 9.02393 19.0322C9.00078 18.7488 9 18.3766 9 17.8H7ZM9.54601 19.891C9.35785 19.7951 9.20487 19.6422 9.10899 19.454L7.32698 20.362C7.6146 20.9265 8.07354 21.3854 8.63803 21.673L9.54601 19.891ZM15 17.8C15 18.3766 14.9992 18.7488 14.9761 19.0322C14.9539 19.3038 14.9162 19.4045 14.891 19.454L16.673 20.362C16.8658 19.9836 16.9371 19.5904 16.9694 19.195C17.0008 18.8114 17 18.3436 17 17.8H15ZM12.8 22C13.3436 22 13.8114 22.0008 14.195 21.9694C14.5904 21.9371 14.9836 21.8658 15.362 21.673L14.454 19.891C14.4045 19.9162 14.3038 19.9539 14.0322 19.9761C13.7488 19.9992 13.3766 20 12.8 20V22ZM14.891 19.454C14.7951 19.6422 14.6422 19.7951 14.454 19.891L15.362 21.673C15.9265 21.3854 16.3854 20.9265 16.673 20.362L14.891 19.454ZM12.8 14C13.3766 14 13.7488 14.0008 14.0322 14.0239C14.3038 14.0461 14.4045 14.0838 14.454 14.109L15.362 12.327C14.9836 12.1342 14.5904 12.0629 14.195 12.0306C13.8114 11.9992 13.3436 12 12.8 12V14ZM17 16.2C17 15.6564 17.0008 15.1886 16.9694 14.805C16.9371 14.4096 16.8658 14.0164 16.673 13.638L14.891 14.546C14.9162 14.5955 14.9539 14.6962 14.9761 14.9678C14.9992 15.2512 15 15.6234 15 16.2H17ZM14.454 14.109C14.6422 14.2049 14.7951 14.3578 14.891 14.546L16.673 13.638C16.3854 13.0735 15.9265 12.6146 15.362 12.327L14.454 14.109ZM11.2 12C10.6564 12 10.1886 11.9992 9.80497 12.0306C9.40963 12.0629 9.01641 12.1342 8.63803 12.327L9.54601 14.109C9.59545 14.0838 9.69617 14.0461 9.96784 14.0239C10.2512 14.0008 10.6234 14 11.2 14V12ZM9 16.2C9 15.6234 9.00078 15.2512 9.02393 14.9678C9.04612 14.6962 9.0838 14.5955 9.10899 14.546L7.32698 13.638C7.13419 14.0164 7.06287 14.4096 7.03057 14.805C6.99922 15.1886 7 15.6564 7 16.2H9ZM8.63803 12.327C8.07354 12.6146 7.6146 13.0735 7.32698 13.638L9.10899 14.546C9.20487 14.3578 9.35785 14.2049 9.54601 14.109L8.63803 12.327ZM16 10.5C16 10.2239 16.2239 10 16.5 10V12C17.3284 12 18 11.3284 18 10.5H16ZM16.5 10C16.7761 10 17 10.2239 17 10.5H15C15 11.3284 15.6716 12 16.5 12V10ZM17 10.5C17 10.7761 16.7761 11 16.5 11V9C15.6716 9 15 9.67157 15 10.5H17ZM16.5 11C16.2239 11 16 10.7761 16 10.5H18C18 9.67157 17.3284 9 16.5 9V11ZM16.3124 11.3125H16.6874V9.31247H16.3124V11.3125ZM16.3124 11.6875H16.6874V9.68747H16.3124V11.6875Z" fill="black"/>
</svg>
