<svg width="24" height="24" viewBox="0 0 24 24" fill="none" xmlns="http://www.w3.org/2000/svg">
<path d="M16 6.66673C17.7866 8.50768 17.7866 11.4924 16 13.3334M18.588 4C21.804 7.31371 21.804 12.6863 18.588 16M8 6.66673C6.21337 8.50768 6.21337 11.4924 8 13.3334M5.41195 4C2.19602 7.31371 2.19602 12.6863 5.41195 16M12 10V21M12 21H14M12 21H10M12 11C11.4477 11 11 10.5523 11 10C11 9.44772 11.4477 9 12 9C12.5523 9 13 9.44772 13 10C13 10.5523 12.5523 11 12 11Z" stroke="black" stroke-width="2" stroke-linecap="round"/>
</svg>
