<svg viewBox="0 0 24 24" height="128" fill="none" xmlns="http://www.w3.org/2000/svg">
  <path fill-rule="evenodd" clip-rule="evenodd" d="M8.855 19.0609L11.987 14.1379L8.943 9.37894L8.938 13.3769L3.691 4.54395H0V19.4559H3.65L3.662 10.6339L8.855 19.0609ZM12.5962 5.72471C12.5992 6.83985 12.6032 8.34658 12.588 8.37695H8.943C8.942 8.34847 8.94325 7.40685 8.9445 6.46405L8.9445 6.4621C8.94575 5.51805 8.947 4.57345 8.946 4.54395H12.596C12.5931 4.56194 12.5944 5.07734 12.5962 5.72471ZM23.8954 14.5657C23.8345 14.6777 23.745 14.7717 23.636 14.8379C23.5296 14.9007 23.4086 14.9345 23.285 14.9359C23.1615 14.9373 23.0397 14.9063 22.9319 14.846C22.824 14.7857 22.7339 14.6982 22.6704 14.5923C22.6069 14.4863 22.5723 14.3655 22.57 14.2419C22.57 13.626 22.1559 13.4807 21.6828 13.3147C21.3287 13.1904 20.9414 13.0546 20.67 12.7009C20.6156 12.6301 20.5633 12.5457 20.5067 12.4544C20.2293 12.0069 19.8489 11.3929 18.613 11.3929H18.612C18.2587 11.3929 17.9088 11.4626 17.5823 11.5978C17.2559 11.7331 16.9593 11.9313 16.7095 12.1812C16.4597 12.4311 16.2616 12.7277 16.1265 13.0542C15.9913 13.3807 15.9219 13.7306 15.922 14.0839C15.924 14.1958 15.9528 14.3055 16.006 14.4039L19.216 19.4559H15.675L14.107 17.0899L12.567 19.4559H9.027L12.406 14.1359L8.943 8.71295H12.588C12.5936 8.72267 12.7796 9.01428 13.0206 9.39185C13.4732 10.1012 14.1195 11.114 14.126 11.1309C14.6147 10.3874 15.2807 9.77705 16.0639 9.35494C16.8472 8.93284 17.7232 8.71221 18.613 8.71295C21.573 8.71295 23.973 11.2429 23.983 14.1999C23.9866 14.3274 23.9564 14.4536 23.8954 14.5657Z" fill="#012F55"/>
  <path d="M23.231 15.6097C23.055 15.8807 23.345 16.0217 23.345 16.0217C23.345 16.0217 23.682 16.1777 23.883 15.7107C23.987 15.4797 24.023 15.2227 23.986 14.9707C23.892 15.1728 23.7349 15.2551 23.5797 15.3363C23.4492 15.4046 23.3201 15.4722 23.231 15.6097Z" fill="white"/>
  <path d="M20.3271 12.6261C20.1932 12.3793 20.0121 12.1611 19.7941 11.9841C19.5001 11.7681 19.1141 11.6621 18.6141 11.6621C18.1226 11.6622 17.6422 11.8083 17.2338 12.0817C16.8254 12.3552 16.5074 12.7437 16.3201 13.1981C16.5576 12.8675 16.8777 12.605 17.2484 12.437C17.6192 12.2689 18.0276 12.2011 18.4327 12.2404C18.8379 12.2797 19.2256 12.4247 19.5572 12.6608C19.8888 12.897 20.1525 13.216 20.3221 13.5861C20.4065 13.7248 20.5336 13.8323 20.6844 13.8925C20.8351 13.9527 21.0013 13.9624 21.1581 13.9201C21.4111 13.8662 21.5256 13.9625 21.6776 14.0904C21.8217 14.2116 21.9995 14.3612 22.3611 14.4381V14.3051C22.3581 13.8591 22.1161 13.7551 21.6121 13.5721L21.6108 13.5717C21.2361 13.4418 20.8117 13.2947 20.5031 12.8911C20.4476 12.8172 20.3956 12.7347 20.3406 12.6476L20.3271 12.6261Z" fill="#48C4E5"/>
  <path d="M18.2219 12.5111C17.7959 12.5029 17.3778 12.627 17.0252 12.8663C16.6725 13.1055 16.4027 13.4482 16.2529 13.8471C16.5011 13.4758 16.8685 13.2001 17.2945 13.0658C17.7205 12.9314 18.1796 12.9464 18.5959 13.1081C18.9919 13.2691 19.5129 13.5301 19.9259 13.3911C19.7322 13.1197 19.4766 12.8983 19.1803 12.7452C18.8839 12.5922 18.5554 12.512 18.2219 12.5111Z" fill="#96D8E9"/>
</svg>
