<svg viewBox="0 0 24 24" fill="none" xmlns="http://www.w3.org/2000/svg">
<path d="M21.6963 12.7336L20.7024 12.6232L21.6963 12.7336ZM21 19V20H21.895L21.9939 19.1104L21 19ZM13 19L12.0513 19.3162L12.2792 20H13V19ZM12.4733 17.4199L13.422 17.1037L12.4733 17.4199ZM10.6613 15.3307L10.2141 16.2251L10.6613 15.3307ZM9.87548 14.9377L9.42827 15.8322H9.42827L9.87548 14.9377ZM11.9764 11.3176L11.4217 12.1496L11.9764 11.3176ZM13 12L12.4453 12.8321L14 13.8685V12H13ZM17 9H16V9.8198L16.8039 9.98058L17 9ZM19.303 9.46059L19.1068 10.4412L19.303 9.46059ZM8.93774 12.1245L8.04331 11.6773L8.93774 12.1245ZM4 12C4 12.5523 4.44772 13 5 13C5.55228 13 6 12.5523 6 12H4ZM5 10.0492H6H5ZM3.01194 8.49701L3.25448 9.46716L3.01194 8.49701ZM0.757464 8.02986C0.22167 8.16381 -0.104091 8.70674 0.0298575 9.24254C0.163806 9.77833 0.706741 10.1041 1.24254 9.97014L0.757464 8.02986ZM4.85527 8.76259L4 9.28078L4 9.28078L4.85527 8.76259ZM4.29529 8.32537L4.59057 7.36996H4.59057L4.29529 8.32537ZM7 2C7 1.44772 6.55228 1 6 1C5.44772 1 5 1.44772 5 2H7ZM7.98806 5.50299L7.74552 4.53284V4.53284L7.98806 5.50299ZM10.2425 5.97014C10.7783 5.83619 11.1041 5.29326 10.9701 4.75746C10.8362 4.22167 10.2933 3.89591 9.75746 4.02986L10.2425 5.97014ZM6.14473 5.23741L5.28947 5.7556L5.28947 5.7556L6.14473 5.23741ZM6.70472 5.67463L6.40943 6.63004L6.70472 5.67463ZM20.7024 12.6232L20.0061 18.8896L21.9939 19.1104L22.6901 12.8441L20.7024 12.6232ZM13.9487 18.6838L13.422 17.1037L11.5246 17.7361L12.0513 19.3162L13.9487 18.6838ZM11.1085 14.4362L10.3227 14.0433L9.42827 15.8322L10.2141 16.2251L11.1085 14.4362ZM11.4217 12.1496L12.4453 12.8321L13.5547 11.1679L12.5311 10.4855L11.4217 12.1496ZM14 12V6H12V12H14ZM16 6V9H18V6H16ZM19.4991 8.48001L17.1961 8.01942L16.8039 9.98058L19.1068 10.4412L19.4991 8.48001ZM21 18L13 18V20L21 20V18ZM18 6C18 4.34315 16.6569 3 15 3V5C15.5523 5 16 5.44772 16 6H18ZM14 6C14 5.44772 14.4477 5 15 5V3C13.3431 3 12 4.34315 12 6H14ZM10.3227 14.0433C9.78087 13.7724 9.56126 13.1136 9.83217 12.5717L8.04331 11.6773C7.27842 13.2071 7.89849 15.0673 9.42827 15.8322L10.3227 14.0433ZM13.422 17.1037C13.0351 15.9429 12.2029 14.9834 11.1085 14.4362L10.2141 16.2251C10.834 16.535 11.3054 17.0786 11.5246 17.7361L13.422 17.1037ZM12.5311 10.4855C10.9811 9.45225 8.87636 10.0112 8.04331 11.6773L9.83217 12.5717C10.1272 11.9816 10.8727 11.7837 11.4217 12.1496L12.5311 10.4855ZM22.6901 12.8441C22.9193 10.7819 21.5336 8.88692 19.4991 8.48001L19.1068 10.4412C20.1241 10.6446 20.8169 11.5921 20.7024 12.6232L22.6901 12.8441ZM6 12L6 10.0492H4L4 12H6ZM2.76941 7.52687L0.757464 8.02986L1.24254 9.97014L3.25448 9.46716L2.76941 7.52687ZM6 10.0492C6 9.71834 6.00092 9.4043 5.97802 9.14542C5.95445 8.87909 5.89854 8.5547 5.71053 8.2444L4 9.28078C3.95673 9.20936 3.97318 9.17903 3.9858 9.32168C3.99908 9.47178 4 9.68163 4 10.0492H6ZM3.25448 9.46716C3.61111 9.378 3.81492 9.328 3.96376 9.30447C4.10521 9.28212 4.07978 9.30543 4 9.28078L4.59057 7.36996C4.24394 7.26283 3.91566 7.28725 3.65157 7.32899C3.39487 7.36956 3.09043 7.44662 2.76941 7.52687L3.25448 9.46716ZM5.71053 8.2444C5.45683 7.82566 5.05834 7.51453 4.59057 7.36996L4 9.28078V9.28078L5.71053 8.2444ZM5 2V3.95076H7V2H5ZM8.23059 6.47313L10.2425 5.97014L9.75746 4.02986L7.74552 4.53284L8.23059 6.47313ZM5 3.95076C5 4.28166 4.99908 4.5957 5.02198 4.85458C5.04555 5.12091 5.10146 5.4453 5.28947 5.7556L7 4.71922C7.04327 4.79064 7.02682 4.82097 7.0142 4.67832C7.00092 4.52822 7 4.31837 7 3.95076H5ZM7.74552 4.53284C7.38889 4.622 7.18508 4.672 7.03624 4.69553C6.89479 4.71788 6.92022 4.69457 7 4.71922L6.40943 6.63004C6.75606 6.73717 7.08434 6.71275 7.34843 6.67101C7.60513 6.63044 7.90957 6.55338 8.23059 6.47313L7.74552 4.53284ZM5.28947 5.7556C5.54317 6.17434 5.94166 6.48547 6.40943 6.63004L7 4.71922L5.28947 5.7556Z" fill="black"/>
</svg>
