<svg viewBox="0 0 24 24" fill="none" xmlns="http://www.w3.org/2000/svg">
<path d="M11.9998 9.00009L11.9998 5.00009M11.9998 19.0001V15.0001M14.9998 12.0001H18.9998M4.99985 12.0001L8.99985 12.0001M14.9998 18.0001L12.707 20.293C12.3164 20.6835 11.6833 20.6835 11.2927 20.293L8.99985 18.0001M5.99985 15.0001L3.70696 12.7072C3.31643 12.3167 3.31643 11.6835 3.70696 11.293L5.99985 9.00009M14.9998 6.00009L12.707 3.7072C12.3164 3.31668 11.6833 3.31668 11.2927 3.7072L8.99985 6.00009M17.9998 15.0001L20.2927 12.7072C20.6833 12.3167 20.6833 11.6835 20.2927 11.293L17.9998 9.00009" stroke="black" stroke-width="2" stroke-linecap="round"/>
</svg>
