<svg viewBox="0 0 391 251" fill="none" xmlns="http://www.w3.org/2000/svg">
  <path d="M329.2 130.3H336.7" stroke="#1C1B1B" stroke-width="0.5" stroke-miterlimit="10"/>
  <path d="M313 130.3H325.2" stroke="#1C1B1B" stroke-width="0.5" stroke-miterlimit="10"/>
  <path d="M319.3 249.6L316.4 246.7V238.2L319.3 235.3H328.2C337.2 235.3 341.8 230 341.8 219.6V159.4C341.8 150.8 343.9 143.6 347.9 137.9C352 132.2 357.5 128.8 364.4 127.8H364.6V125.4H364.4C357.5 124.4 351.9 120.9 347.9 115.1C343.8 109.3 341.8 101.9 341.8 93.1V33.6C341.8 23.2 337.2 17.9 328.2 17.9H319.3L316.4 15V6.40001L319.3 3.5H331.6C342.8 3.5 351.5 6.60001 357.3 12.7C363.1 18.8 366.1 27.9 366.1 39.8V97.2C366.1 103.6 367.5 108.6 370.3 111.9C373.1 115.2 377.2 116.9 382.4 116.9H387.2L390.1 119.8V133.2L387.2 136.1H382.4C377.2 136.1 373.1 137.8 370.3 141.1C367.5 144.4 366.1 149.4 366.1 155.8V213.2C366.1 225 363.2 234.2 357.3 240.3C351.5 246.4 342.9 249.5 331.6 249.5H319.3V249.6Z" fill="#1C1B1B"/>
  <path d="M331.6 3.20001C343 3.20001 351.6 6.3 357.4 12.5C363.3 18.7 366.2 27.8 366.2 39.7V97.1C366.2 103.5 367.6 108.3 370.4 111.6C373.2 114.9 377.2 116.6 382.3 116.6H387.3L390.4 119.7V133.3L387.3 136.4H382.3C377.1 136.4 373.2 138 370.4 141.4C367.6 144.7 366.2 149.5 366.2 155.9V213.3C366.2 225.3 363.3 234.4 357.4 240.5C351.5 246.7 342.9 249.8 331.6 249.8H319.2L316.1 246.7V238L319.2 234.9H328.2C337.1 234.9 341.5 229.7 341.5 219.4V159.2C341.5 150.5 343.6 143.3 347.7 137.5C351.8 131.7 357.4 128.3 364.4 127.3V125.4C357.4 124.4 351.8 120.9 347.7 115C343.6 109.1 341.5 101.7 341.5 92.9V33.4C341.5 23.1 337.1 17.9 328.2 17.9H319.2L316.1 14.8V6.10001L319.2 3H331.6V3.20001Z" fill="#1C1B1B"/>
  <path d="M331.6 3.69922C342.8 3.69922 351.3 6.79921 357.1 12.7992C362.9 18.8992 365.8 27.8992 365.8 39.6992V97.0992C365.8 103.599 367.2 108.599 370.1 111.999C373 115.399 377.1 117.099 382.4 117.099H387.1L389.9 119.899V133.099L387.1 135.899H382.4C377.1 135.899 373 137.599 370.1 140.999C367.2 144.399 365.8 149.399 365.8 155.899V213.299C365.8 225.099 362.9 234.099 357.1 240.199C351.3 246.299 342.8 249.299 331.6 249.299H319.4L316.6 246.499V238.199L319.4 235.399H328.2C337.4 235.399 342 229.999 342 219.399V159.199C342 150.699 344.1 143.499 348.1 137.799C352.1 132.199 357.6 128.799 364.5 127.799L364.9 127.699V127.399V125.499V125.099L364.5 124.999C357.7 123.999 352.1 120.599 348.1 114.799C344.1 108.999 342 101.699 342 92.9992V33.4992C342 22.8992 337.4 17.4992 328.2 17.4992H319.4L316.6 14.6992V6.39922L319.4 3.59921H331.6V3.69922ZM331.6 3.19922H319.2L316.1 6.29921V14.9992L319.2 18.0992H328.2C337.1 18.0992 341.5 23.2992 341.5 33.5992V93.0992C341.5 101.999 343.6 109.399 347.7 115.199C351.8 121.099 357.4 124.499 364.4 125.599V127.499C357.4 128.499 351.8 131.899 347.7 137.699C343.6 143.499 341.5 150.699 341.5 159.399V219.599C341.5 229.899 337.1 235.099 328.2 235.099H319.2L316.1 238.199V246.899L319.2 249.999H331.6C343 249.999 351.6 246.899 357.4 240.699C363.3 234.499 366.2 225.399 366.2 213.499V156.099C366.2 149.699 367.6 144.799 370.4 141.599C373.2 138.299 377.2 136.599 382.3 136.599H387.3L390.4 133.499V119.899L387.3 116.799H382.3C377.1 116.799 373.2 115.099 370.4 111.799C367.6 108.499 366.2 103.599 366.2 97.2992V39.8992C366.2 27.8992 363.3 18.8992 357.4 12.6992C351.5 6.29922 342.9 3.19922 331.6 3.19922Z" fill="#1C1B1B"/>
  <path d="M319.3 246.6L316.4 243.7V235.2L319.3 232.3H328.2C337.2 232.3 341.8 227 341.8 216.6V156.4C341.8 147.8 343.9 140.6 347.9 134.9C352 129.2 357.5 125.8 364.4 124.8H364.6V122.4H364.4C357.5 121.4 351.9 117.9 347.9 112.1C343.8 106.3 341.8 98.9 341.8 90.1V30.6C341.8 20.2 337.2 14.9 328.2 14.9H319.3L316.4 12V3.40001L319.3 0.5H331.6C342.8 0.5 351.5 3.60001 357.3 9.70001C363.1 15.8 366.1 24.9 366.1 36.8V94.2C366.1 100.6 367.5 105.6 370.3 108.9C373.1 112.2 377.2 113.9 382.4 113.9H387.2L390.1 116.8V130.2L387.2 133.1H382.4C377.2 133.1 373.1 134.8 370.3 138.1C367.5 141.4 366.1 146.4 366.1 152.8V210.2C366.1 222 363.2 231.2 357.3 237.3C351.5 243.4 342.9 246.5 331.6 246.5H319.3V246.6Z" fill="white"/>
  <path d="M331.6 0.200012C343 0.200012 351.6 3.3 357.4 9.5C363.3 15.7 366.2 24.8 366.2 36.7V94.1C366.2 100.5 367.6 105.3 370.4 108.6C373.2 111.9 377.2 113.6 382.3 113.6H387.3L390.4 116.7V130.3L387.3 133.4H382.3C377.1 133.4 373.2 135 370.4 138.4C367.6 141.7 366.2 146.5 366.2 152.9V210.3C366.2 222.3 363.3 231.4 357.4 237.5C351.5 243.7 342.9 246.8 331.6 246.8H319.2L316.1 243.7V235L319.2 231.9H328.2C337.1 231.9 341.5 226.7 341.5 216.4V156.2C341.5 147.5 343.6 140.3 347.7 134.5C351.8 128.7 357.4 125.3 364.4 124.3V122.4C357.4 121.4 351.8 117.9 347.7 112C343.6 106.1 341.5 98.7 341.5 89.9V30.4C341.5 20.1 337.1 14.9 328.2 14.9H319.2L316.1 11.8V3.10001L319.2 0H331.6V0.200012Z" fill="#48D95C"/>
  <path d="M331.6 0.699219C342.8 0.699219 351.3 3.79921 357.1 9.79921C362.9 15.8992 365.8 24.8992 365.8 36.6992V94.0992C365.8 100.599 367.2 105.599 370.1 108.999C373 112.399 377.1 114.099 382.4 114.099H387.1L389.9 116.899V130.099L387.1 132.899H382.4C377.1 132.899 373 134.599 370.1 137.999C367.2 141.399 365.8 146.399 365.8 152.899V210.299C365.8 222.099 362.9 231.099 357.1 237.199C351.3 243.299 342.8 246.299 331.6 246.299H319.4L316.6 243.499V235.199L319.4 232.399H328.2C337.4 232.399 342 226.999 342 216.399V156.199C342 147.699 344.1 140.499 348.1 134.799C352.1 129.199 357.6 125.799 364.5 124.799L364.9 124.699V124.399V122.499V122.099L364.5 121.999C357.7 120.999 352.1 117.599 348.1 111.799C344.1 105.999 342 98.6992 342 89.9992V30.4992C342 19.8992 337.4 14.4992 328.2 14.4992H319.4L316.6 11.6992V3.39922L319.4 0.599213H331.6V0.699219ZM331.6 0.199219H319.2L316.1 3.29921V11.9992L319.2 15.0992H328.2C337.1 15.0992 341.5 20.2992 341.5 30.5992V90.0992C341.5 98.9992 343.6 106.399 347.7 112.199C351.8 118.099 357.4 121.499 364.4 122.599V124.499C357.4 125.499 351.8 128.899 347.7 134.699C343.6 140.499 341.5 147.699 341.5 156.399V216.599C341.5 226.899 337.1 232.099 328.2 232.099H319.2L316.1 235.199V243.899L319.2 246.999H331.6C343 246.999 351.6 243.899 357.4 237.699C363.3 231.499 366.2 222.399 366.2 210.499V153.099C366.2 146.699 367.6 141.799 370.4 138.599C373.2 135.299 377.2 133.599 382.3 133.599H387.3L390.4 130.499V116.899L387.3 113.799H382.3C377.1 113.799 373.2 112.099 370.4 108.799C367.6 105.499 366.2 100.599 366.2 94.2992V36.8992C366.2 24.8992 363.3 15.8992 357.4 9.69922C351.5 3.29922 342.9 0.199219 331.6 0.199219Z" fill="black"/>
  <path d="M58.7998 250.4C47.5998 250.4 38.8999 247.3 33.0999 241.2C27.2999 235.1 24.2999 226 24.2999 214.1V157.7C24.2999 151.3 22.8999 146.3 20.0999 143C17.2999 139.7 13.1998 138 7.99985 138H3.19995L0.199951 135.1V121.7L3.19995 118.8H7.99985C13.1998 118.8 17.2999 117.1 20.0999 113.8C22.8999 110.5 24.2999 105.5 24.2999 99.1002V40.7002C24.2999 28.9004 27.1999 19.7004 33.0999 13.6004C38.8999 7.50039 47.4998 4.40039 58.7998 4.40039H71.0998L73.9999 7.30039V15.8004L71.0998 18.7004H62.1999C53.1999 18.7004 48.5998 24.0004 48.5998 34.4002V95.6002C48.5998 104.2 46.4999 111.4 42.4999 117.1C38.3999 122.8 32.8998 126.2 25.9998 127.2H25.7999V129.5H25.9998C32.8998 130.5 38.4999 134 42.4999 139.8C46.5999 145.6 48.5998 153 48.5998 161.8V220.3C48.5998 230.7 53.1999 236 62.1999 236H71.0998L73.9999 238.9V247.4L71.0998 250.3H58.7998V250.4Z" fill="#1C1B1B"/>
  <path d="M58.7999 250.6C47.3999 250.6 38.7999 247.5 32.9999 241.3C27.0999 235.1 24.1999 226 24.1999 214.1V156.7C24.1999 150.3 22.7999 145.5 19.9999 142.2C17.1999 138.9 13.1999 137.2 8.09991 137.2H3.10001L0 134.1V120.5L3.10001 117.4H8.09991C13.2999 117.4 17.1999 115.8 19.9999 112.4C22.7999 109.1 24.1999 104.3 24.1999 97.8997V40.4997C24.1999 28.5 27.0999 19.4 32.9999 13.3C38.8999 7.1 47.4999 4 58.7999 4H71.1999L74.2999 7.1V15.8L71.1999 18.9H62.1999C53.2999 18.9 48.8999 24.1 48.8999 34.3997V94.5997C48.8999 103.3 46.7999 110.5 42.6999 116.3C38.5999 122.1 32.9999 125.5 25.9999 126.5V128.4C32.9999 129.4 38.5999 132.9 42.6999 138.8C46.7999 144.7 48.8999 152.1 48.8999 160.9V220.4C48.8999 230.7 53.2999 235.9 62.1999 235.9H71.1999L74.2999 239V247.7L71.1999 250.8H58.7999V250.6Z" fill="#1C1B1B"/>
  <path d="M70.9999 4.5L73.7999 7.3V15.6L70.9999 18.4H62.1999C52.9999 18.4 48.3999 23.8 48.3999 34.3997V94.5997C48.3999 103.1 46.2999 110.3 42.2999 116C38.2999 121.6 32.7999 125 25.8999 126L25.4999 126.1V126.5V128.4V128.8L25.8999 128.9C32.6999 129.9 38.2999 133.3 42.2999 139.1C46.2999 144.9 48.3999 152.2 48.3999 160.9V220.4C48.3999 231 52.9999 236.4 62.1999 236.4H70.9999L73.7999 239.2V247.5L70.9999 250.3H58.7999C47.5999 250.3 39.0999 247.2 33.2999 241.2C27.4999 235.1 24.5999 226.1 24.5999 214.3V156.9C24.5999 150.4 23.1999 145.4 20.2999 142C17.3999 138.6 13.2999 136.9 7.9999 136.9H3.3L0.5 134.1V120.9L3.3 118.1H7.9999C13.2999 118.1 17.3999 116.4 20.2999 113C23.1999 109.6 24.5999 104.6 24.5999 98.0997V40.6997C24.5999 28.9 27.4999 19.9 33.2999 13.8C39.0999 7.7 47.5999 4.7 58.7999 4.7H70.9999V4.5ZM71.1999 4H58.7999C47.3999 4 38.7999 7.1 32.9999 13.3C27.0999 19.5 24.1999 28.6 24.1999 40.4997V97.8997C24.1999 104.3 22.7999 109.2 19.9999 112.4C17.1999 115.7 13.1999 117.4 8.09991 117.4H3.10001L0 120.5V134.1L3.10001 137.2H8.09991C13.2999 137.2 17.1999 138.9 19.9999 142.2C22.7999 145.5 24.1999 150.4 24.1999 156.7V214.1C24.1999 226.1 27.0999 235.1 32.9999 241.3C38.8999 247.5 47.4999 250.6 58.7999 250.6H71.1999L74.2999 247.5V238.8L71.1999 235.7H62.1999C53.2999 235.7 48.8999 230.5 48.8999 220.2V160.7C48.8999 151.8 46.7999 144.4 42.6999 138.6C38.5999 132.7 32.9999 129.3 25.9999 128.2V126.3C32.9999 125.3 38.5999 121.9 42.6999 116.1C46.7999 110.3 48.8999 103.1 48.8999 94.3997V34.1997C48.8999 23.9 53.2999 18.7 62.1999 18.7H71.1999L74.2999 15.8V7.1L71.1999 4Z" fill="#1C1B1B"/>
  <path d="M58.7998 247.4C47.5998 247.4 38.8999 244.3 33.0999 238.2C27.2999 232.1 24.2999 223 24.2999 211.1V153.7C24.2999 147.3 22.8999 142.3 20.0999 139C17.2999 135.7 13.1998 134 7.99985 134H3.19995L0.199951 131.1V117.7L3.19995 114.8H7.99985C13.1998 114.8 17.2999 113.1 20.0999 109.8C22.8999 106.5 24.2999 101.5 24.2999 95.1V37.5002C24.2999 25.7002 27.1999 16.5002 33.0999 10.4002C38.8999 4.3002 47.4998 1.2002 58.7998 1.2002H71.0998L73.9999 4.1002V12.6002L71.0998 15.5002H62.1999C53.1999 15.5002 48.5998 20.8002 48.5998 31.2002V91.4C48.5998 100 46.4999 107.2 42.4999 112.9C38.3999 118.6 32.8998 122 25.9998 123H25.7999V125.3H25.9998C32.8998 126.3 38.4999 129.8 42.4999 135.6C46.5999 141.4 48.5998 148.8 48.5998 157.6V217.1C48.5998 227.5 53.1999 232.8 62.1999 232.8H71.0998L73.9999 235.7V244.2L71.0998 247.1H58.7998V247.4Z" fill="white"/>
  <path d="M58.7999 247.6C47.3999 247.6 38.7999 244.5 32.9999 238.3C27.0999 232.1 24.1999 223 24.1999 211.1V153.7C24.1999 147.3 22.7999 142.5 19.9999 139.2C17.1999 135.9 13.1999 134.2 8.09991 134.2H3.10001L0 131.1V117.5L3.10001 114.4H8.09991C13.2999 114.4 17.1999 112.8 19.9999 109.4C22.7999 106.1 24.1999 101.3 24.1999 94.8997V37.5C24.1999 25.5 27.0999 16.4 32.9999 10.3C38.8999 4.1 47.4999 1 58.7999 1H71.1999L74.2999 4.1V12.8L71.1999 15.9H62.1999C53.2999 15.9 48.8999 21.1 48.8999 31.4V91.5997C48.8999 100.3 46.7999 107.5 42.6999 113.3C38.5999 119.1 32.9999 122.5 25.9999 123.5V125.4C32.9999 126.4 38.5999 129.9 42.6999 135.8C46.7999 141.7 48.8999 149.1 48.8999 157.9V217.4C48.8999 227.7 53.2999 232.9 62.1999 232.9H71.1999L74.2999 236V244.7L71.1999 247.8H58.7999V247.6Z" fill="#48D95C"/>
  <path d="M70.9999 1.5L73.7999 4.3V12.6L70.9999 15.4H62.1999C52.9999 15.4 48.3999 20.8 48.3999 31.4V91.5997C48.3999 100.1 46.2999 107.3 42.2999 113C38.2999 118.6 32.7999 122 25.8999 123L25.4999 123.1V123.5V125.4V125.8L25.8999 125.9C32.6999 126.9 38.2999 130.3 42.2999 136.1C46.2999 141.9 48.3999 149.2 48.3999 157.9V217.4C48.3999 228 52.9999 233.4 62.1999 233.4H70.9999L73.7999 236.2V244.5L70.9999 247.3H58.7999C47.5999 247.3 39.0999 244.2 33.2999 238.2C27.4999 232.1 24.5999 223.1 24.5999 211.3V153.9C24.5999 147.4 23.1999 142.4 20.2999 139C17.3999 135.6 13.2999 133.9 7.9999 133.9H3.3L0.5 131.1V117.9L3.3 115.1H7.9999C13.2999 115.1 17.3999 113.4 20.2999 110C23.1999 106.6 24.5999 101.6 24.5999 95.0997V37.7C24.5999 25.9 27.4999 16.9 33.2999 10.8C39.0999 4.7 47.5999 1.7 58.7999 1.7H70.9999V1.5ZM71.1999 1H58.7999C47.3999 1 38.7999 4.1 32.9999 10.3C27.0999 16.5 24.1999 25.6 24.1999 37.5V94.8997C24.1999 101.3 22.7999 106.2 19.9999 109.4C17.1999 112.7 13.1999 114.4 8.09991 114.4H3.10001L0 117.5V131.1L3.10001 134.2H8.09991C13.2999 134.2 17.1999 135.9 19.9999 139.2C22.7999 142.5 24.1999 147.4 24.1999 153.7V211.1C24.1999 223.1 27.0999 232.1 32.9999 238.3C38.8999 244.5 47.4999 247.6 58.7999 247.6H71.1999L74.2999 244.5V235.8L71.1999 232.7H62.1999C53.2999 232.7 48.8999 227.5 48.8999 217.2V157.7C48.8999 148.8 46.7999 141.4 42.6999 135.6C38.5999 129.7 32.9999 126.3 25.9999 125.2V123.3C32.9999 122.3 38.5999 118.9 42.6999 113.1C46.7999 107.3 48.8999 100.1 48.8999 91.3997V31.3C48.8999 21 53.2999 15.8 62.1999 15.8H71.1999L74.2999 12.8V4.1L71.1999 1Z" fill="black"/>
  <path d="M53.8999 128.1H61.3999" stroke="#1C1B1B" stroke-width="0.5" stroke-miterlimit="10"/>
  <path d="M64.6997 128.1H89.1997" stroke="#1C1B1B" stroke-width="0.5" stroke-miterlimit="10"/>
  <path d="M121.6 106.8H280C289.2 106.8 296.7 99.2998 296.7 90.0998V85.2998H105V90.0998C105 99.2998 112.5 106.8 121.6 106.8Z" fill="#1C1B1B" stroke="#1C1B1B" stroke-width="0.5" stroke-miterlimit="10"/>
  <path d="M119.4 99.8H282.5C290.4 99.8 296.9 93.3 296.9 85.4C296.9 77.5 290.4 71 282.5 71H119.4C111.5 71 105 77.5 105 85.4C105 93.3 111.5 99.8 119.4 99.8Z" fill="white" stroke="#161E15" stroke-width="0.5" stroke-miterlimit="10"/>
  <path d="M279 85.4004H120.2" stroke="#3D4A3B" stroke-width="2" stroke-miterlimit="10" stroke-linecap="round" stroke-linejoin="round" stroke-dasharray="4 4"/>
  <path d="M130.72 199.8H121.7C112.5 199.8 105 194.3 105 185.1V180.3H147.32V185.1C147.32 194.3 139.82 199.8 130.72 199.8Z" fill="#1C1B1B" stroke="#1C1B1B" stroke-width="0.5" stroke-miterlimit="10"/>
  <path d="M133.32 194.8H119.5C111.6 194.8 105.1 188.3 105.1 180.4C105.1 172.5 111.6 166 119.5 166H133.32C141.22 166 147.72 172.5 147.72 180.4C147.72 188.3 141.22 194.8 133.32 194.8Z" fill="#B5F2B0" stroke="#002105" stroke-width="0.5" stroke-miterlimit="10"/>
  <path d="M133.72 180.3H120.7" stroke="#1C1B1B" stroke-width="0.5" stroke-miterlimit="10" stroke-dasharray="2 2"/>
  <path d="M180.44 199.8H171.42C162.22 199.8 154.72 194.3 154.72 185.1V180.3H197.04V185.1C197.04 194.3 189.54 199.8 180.44 199.8Z" fill="#1C1B1B" stroke="#1C1B1B" stroke-width="0.5" stroke-miterlimit="10"/>
  <path d="M183.04 194.8H169.22C161.32 194.8 154.82 188.3 154.82 180.4C154.82 172.5 161.32 166 169.22 166H183.04C190.94 166 197.44 172.5 197.44 180.4C197.44 188.3 190.94 194.8 183.04 194.8Z" fill="#B5F2B0" stroke="#002105" stroke-width="0.5" stroke-miterlimit="10"/>
  <path d="M183.44 180.3H170.42" stroke="#1C1B1B" stroke-width="0.5" stroke-miterlimit="10" stroke-dasharray="2 2"/>
  <path d="M230.16 199.8H221.14C211.94 199.8 204.44 194.3 204.44 185.1V180.3H246.76V185.1C246.76 194.3 239.26 199.8 230.16 199.8Z" fill="#1C1B1B" stroke="#1C1B1B" stroke-width="0.5" stroke-miterlimit="10"/>
  <path d="M232.76 194.8H218.94C211.04 194.8 204.54 188.3 204.54 180.4C204.54 172.5 211.04 166 218.94 166H232.76C240.66 166 247.16 172.5 247.16 180.4C247.16 188.3 240.66 194.8 232.76 194.8Z" fill="#B5F2B0" stroke="#002105" stroke-width="0.5" stroke-miterlimit="10"/>
  <path d="M233.16 180.3H220.14" stroke="#1C1B1B" stroke-width="0.5" stroke-miterlimit="10" stroke-dasharray="2 2"/>
  <path d="M279.88 199.8H270.86C261.66 199.8 254.16 194.3 254.16 185.1V180.3H296.48V185.1C296.48 194.3 288.98 199.8 279.88 199.8Z" fill="#1C1B1B" stroke="#1C1B1B" stroke-width="0.5" stroke-miterlimit="10"/>
  <path d="M282.48 194.8H268.66C260.76 194.8 254.26 188.3 254.26 180.4C254.26 172.5 260.76 166 268.66 166H282.48C290.38 166 296.88 172.5 296.88 180.4C296.88 188.3 290.38 194.8 282.48 194.8Z" fill="#B5F2B0" stroke="#002105" stroke-width="0.5" stroke-miterlimit="10"/>
  <path d="M282.88 180.3H269.86" stroke="#1C1B1B" stroke-width="0.5" stroke-miterlimit="10" stroke-dasharray="2 2"/>
</svg>
