<svg width="66" height="60" viewBox="0 0 66 60" fill="none" xmlns="http://www.w3.org/2000/svg">
  <path d="M1 58.5062V33.1847C1 31.1869 2.61954 29.5674 4.61735 29.5674H10.3537C11.3131 29.5674 12.2332 29.9485 12.9115 30.6269L14.4099 32.1252C15.0883 32.8036 16.0084 33.1847 16.9677 33.1847H29.9388C31.9366 33.1847 33.5561 34.8043 33.5561 36.8021V40.4194M1.17463 57.9241L5.65265 42.9973C6.11167 41.4673 7.51999 40.4194 9.11744 40.4194H32.5405C34.8938 40.4194 36.6206 42.631 36.0498 44.9141L33.3368 55.7662C32.9342 57.3765 31.4873 58.5062 29.8275 58.5062H1.60773C1.30484 58.5062 1.08759 58.2142 1.17463 57.9241Z" stroke="black" stroke-width="2" stroke-linecap="round"/>
  <path fill-rule="evenodd" clip-rule="evenodd" d="M55.0024 2.28269L37.6501 6.93222C35.9746 7.38118 35.1368 7.60566 34.5842 8.10322C34.0981 8.54089 33.7631 9.12121 33.6271 9.761C33.4725 10.4884 33.6969 11.3261 34.1459 13.0017L34.4666 14.1984L51.5369 24.054L60.2131 21.7292C61.8886 21.2802 62.7264 21.0558 63.279 20.5582C63.7651 20.1205 64.1001 19.5402 64.2361 18.9004C64.3907 18.1731 64.1662 17.3353 63.7173 15.6597L61.0719 5.78689C60.6229 4.11134 60.3984 3.27357 59.9008 2.72097C59.4632 2.23489 58.8829 1.89984 58.2431 1.76385C57.5157 1.60924 56.6779 1.83373 55.0024 2.28269ZM55.8098 10.0828C56.6359 9.86141 57.1262 9.01222 56.9049 8.18607C56.6835 7.35991 55.8343 6.86963 55.0081 7.091C54.182 7.31237 53.6917 8.16155 53.9131 8.98771C54.1344 9.81386 54.9836 10.3041 55.8098 10.0828Z" fill="#F1F1F1"/>
  <path d="M42.8608 26.3787L51.5369 24.054L34.4666 14.1984L36.7913 22.8745C37.2403 24.5501 37.4648 25.3878 37.9623 25.9404C38.4 26.4265 38.9803 26.7616 39.6201 26.8976C40.3475 27.0522 41.1852 26.8277 42.8608 26.3787Z" fill="#F9F9F9"/>
  <path d="M56.9049 8.18607C57.1262 9.01222 56.6359 9.86141 55.8098 10.0828C54.9836 10.3041 54.1344 9.81386 53.9131 8.98771C53.6917 8.16155 54.182 7.31237 55.0081 7.091C55.8343 6.86963 56.6835 7.35991 56.9049 8.18607Z" fill="#EAEAEA"/>
  <path d="M42.8608 26.3787L60.2131 21.7292M42.8608 26.3787C41.1852 26.8277 40.3475 27.0522 39.6201 26.8976C38.9803 26.7616 38.4 26.4265 37.9623 25.9404C37.4648 25.3878 37.2403 24.5501 36.7913 22.8745M42.8608 26.3787L51.5369 24.054M36.7913 22.8745L34.1459 13.0017M36.7913 22.8745L34.4666 14.1984M60.2131 21.7292C61.8886 21.2802 62.7264 21.0558 63.279 20.5582C63.7651 20.1205 64.1001 19.5402 64.2361 18.9004C64.3907 18.1731 64.1662 17.3353 63.7173 15.6597L61.0719 5.78689C60.6229 4.11134 60.3984 3.27357 59.9008 2.72097C59.4632 2.23489 58.8829 1.89984 58.2431 1.76385C57.5157 1.60924 56.6779 1.83373 55.0024 2.28269L37.6501 6.93222C35.9746 7.38118 35.1368 7.60566 34.5842 8.10322C34.0981 8.54089 33.7631 9.12121 33.6271 9.761C33.4725 10.4884 33.6969 11.3261 34.1459 13.0017M60.2131 21.7292L51.5369 24.054M34.1459 13.0017L34.4666 14.1984M34.4666 14.1984L51.5369 24.054M43.7497 18.9258L46.9445 13.0667C47.1561 12.6787 47.649 12.5462 48.0266 12.7758L61.0598 20.7007M56.9049 8.18607C57.1262 9.01222 56.6359 9.86141 55.8098 10.0828C54.9836 10.3041 54.1344 9.81386 53.9131 8.98771C53.6917 8.16155 54.182 7.31237 55.0081 7.091C55.8343 6.86963 56.6835 7.35991 56.9049 8.18607Z" stroke="black" stroke-width="2" stroke-linecap="round"/>
  <path fill-rule="evenodd" clip-rule="evenodd" d="M59.3947 3.28955L41.4303 3.28955C39.6956 3.28955 38.8283 3.28955 38.1658 3.62714C37.583 3.92409 37.1091 4.39791 36.8122 4.98071C36.4746 5.64326 36.4746 6.51059 36.4746 8.24525V9.48417L50.4125 23.4221H59.3947C61.1294 23.4221 61.9967 23.4221 62.6592 23.0845C63.242 22.7875 63.7159 22.3137 64.0128 21.7309C64.3504 21.0684 64.3504 20.201 64.3504 18.4664V8.24525C64.3504 6.51059 64.3504 5.64326 64.0128 4.98071C63.7159 4.39791 63.242 3.92409 62.6592 3.62714C61.9967 3.28955 61.1294 3.28955 59.3947 3.28955ZM58.1558 11.0328C59.0111 11.0328 59.7044 10.3395 59.7044 9.48417C59.7044 8.62887 59.0111 7.93552 58.1558 7.93552C57.3005 7.93552 56.6071 8.62887 56.6071 9.48417C56.6071 10.3395 57.3005 11.0328 58.1558 11.0328Z" fill="#F1F1F1"/>
  <path d="M41.4303 23.4221H50.4125L36.4746 9.48417V18.4664C36.4746 20.201 36.4746 21.0684 36.8122 21.7309C37.1091 22.3137 37.583 22.7875 38.1658 23.0845C38.8283 23.4221 39.6956 23.4221 41.4303 23.4221Z" fill="#F9F9F9"/>
  <path d="M59.7044 9.48417C59.7044 10.3395 59.0111 11.0328 58.1558 11.0328C57.3005 11.0328 56.6071 10.3395 56.6071 9.48417C56.6071 8.62887 57.3005 7.93552 58.1558 7.93552C59.0111 7.93552 59.7044 8.62887 59.7044 9.48417Z" fill="#EAEAEA"/>
  <path d="M41.4303 23.4221H59.3947M41.4303 23.4221C39.6956 23.4221 38.8283 23.4221 38.1658 23.0845C37.583 22.7875 37.1091 22.3137 36.8122 21.7309C36.4746 21.0684 36.4746 20.201 36.4746 18.4664M41.4303 23.4221H50.4125M36.4746 18.4664V8.24525M36.4746 18.4664V9.48417M59.3947 23.4221C61.1294 23.4221 61.9967 23.4221 62.6592 23.0845C63.242 22.7875 63.7159 22.3137 64.0128 21.7309C64.3504 21.0684 64.3504 20.201 64.3504 18.4664V8.24525C64.3504 6.51059 64.3504 5.64326 64.0128 4.98071C63.7159 4.39791 63.242 3.92409 62.6592 3.62714C61.9967 3.28955 61.1294 3.28955 59.3947 3.28955L41.4303 3.28955C39.6956 3.28955 38.8283 3.28955 38.1658 3.62714C37.583 3.92409 37.1091 4.39791 36.8122 4.98071C36.4746 5.64326 36.4746 6.51059 36.4746 8.24525M59.3947 23.4221H50.4125M36.4746 8.24525V9.48417M36.4746 9.48417L50.4125 23.4221M44.2179 16.4531L48.8203 11.6206C49.1251 11.3006 49.6355 11.3001 49.9408 11.6197L60.4788 22.6477M59.7044 9.48417C59.7044 10.3395 59.0111 11.0328 58.1558 11.0328C57.3005 11.0328 56.6071 10.3395 56.6071 9.48417C56.6071 8.62887 57.3005 7.93552 58.1558 7.93552C59.0111 7.93552 59.7044 8.62887 59.7044 9.48417Z" stroke="black" stroke-width="2" stroke-linecap="round"/>
  <path d="M19.6786 22.975L16.0605 26.593C15.6315 27.0221 14.9358 27.0221 14.5067 26.593L10.8887 22.975M27.3697 14.1851L17.4811 14.1851C16.2675 14.1851 15.2836 15.1689 15.2836 16.3825L15.2836 26.2712" stroke="black" stroke-width="2" stroke-linecap="round"/>
</svg>
