<svg width="180" height="260" viewBox="0 0 180 260" fill="none" xmlns="http://www.w3.org/2000/svg">
<path d="M146.749 123H33.0493V240.3H146.749V123Z" fill="#48D95C" stroke="#1C1B1B" stroke-width="0.75" stroke-miterlimit="10"/>
<path d="M52.8493 123.5H33.5493V239.8H52.8493V123.5Z" fill="#002105"/>
<path d="M52.2493 124V239.3H34.0493V159.4V124H52.2493ZM53.2493 123H33.0493V159.4V240.3H53.3493V123H53.2493Z" fill="#002105"/>
<path d="M82.0493 175.7V170L85.9493 173.4V179.2L82.0493 175.7Z" fill="#002105" stroke="#002105" stroke-miterlimit="10" stroke-linejoin="round"/>
<path d="M85.9705 173.398L85.9575 179.198L93.7575 179.216L93.7705 173.416L85.9705 173.398Z" fill="#00A836" stroke="#1C1B1B" stroke-miterlimit="10" stroke-linejoin="round"/>
<path d="M93.7495 179.2V173.4L97.6495 170V175.8L93.7495 179.2Z" fill="#48D95C" stroke="#1C1B1B" stroke-miterlimit="10" stroke-linejoin="round"/>
<path d="M45.5493 170V164.2L49.4493 167.6V173.4L45.5493 170Z" fill="#002105" stroke="#002105" stroke-miterlimit="10" stroke-linejoin="round"/>
<path d="M49.4041 167.581L49.3901 173.381L57.1901 173.4L57.2041 167.6L49.4041 167.581Z" fill="#00A836" stroke="#1C1B1B" stroke-miterlimit="10" stroke-linejoin="round"/>
<path d="M57.2495 173.4V167.7L61.1495 164.3V170L57.2495 173.4Z" fill="#48D95C" stroke="#1C1B1B" stroke-miterlimit="10" stroke-linejoin="round"/>
<path d="M117.049 170L117.149 164.2L120.949 167.6V173.4L117.049 170Z" fill="#002105" stroke="#002105" stroke-miterlimit="10" stroke-linejoin="round"/>
<path d="M120.967 167.544L120.953 173.344L128.753 173.363L128.767 167.563L120.967 167.544Z" fill="#00A836" stroke="#1C1B1B" stroke-miterlimit="10" stroke-linejoin="round"/>
<path d="M128.75 173.4V167.7L132.65 164.3V170L128.75 173.4Z" fill="#48D95C" stroke="#1C1B1B" stroke-miterlimit="10" stroke-linejoin="round"/>
<path d="M138.949 155.2V149.5L142.849 152.9V158.6L138.949 155.2Z" fill="#002105" stroke="#002105" stroke-miterlimit="10" stroke-linejoin="round"/>
<path d="M142.853 152.81L142.839 158.61L150.639 158.628L150.653 152.828L142.853 152.81Z" fill="#00A836" stroke="#1C1B1B" stroke-miterlimit="10" stroke-linejoin="round"/>
<path d="M150.549 158.6L150.649 152.9L154.549 149.5L154.449 155.3L150.549 158.6Z" fill="#48D95C" stroke="#1C1B1B" stroke-miterlimit="10" stroke-linejoin="round"/>
<path d="M26.4492 157V151.3L30.3492 154.7V160.4L26.4492 157Z" fill="#002105" stroke="#002105" stroke-miterlimit="10" stroke-linejoin="round"/>
<path d="M30.4173 154.662L30.4033 160.462L38.2033 160.481L38.2173 154.681L30.4173 154.662Z" fill="#00A836" stroke="#1C1B1B" stroke-miterlimit="10" stroke-linejoin="round"/>
<path d="M38.1494 160.4V154.7L42.0494 151.3V157L38.1494 160.4Z" fill="#48D95C" stroke="#1C1B1B" stroke-miterlimit="10" stroke-linejoin="round"/>
<path d="M22.0493 123V141.2C22.0493 159.6 52.4493 174.6 89.8493 174.6C127.349 174.6 157.649 159.7 157.649 141.2V123C157.649 104.6 127.249 89.6001 89.8493 89.6001C52.4493 89.6001 22.0493 104.6 22.0493 123Z" fill="#00A836" stroke="#1C1B1B" stroke-width="0.75" stroke-miterlimit="10"/>
<path d="M89.8493 147.8C121.219 147.8 146.649 136.697 146.649 123C146.649 109.303 121.219 98.2002 89.8493 98.2002C58.4793 98.2002 33.0493 109.303 33.0493 123C33.0493 136.697 58.4793 147.8 89.8493 147.8Z" fill="#1C1B1B" stroke="#002105" stroke-miterlimit="10" stroke-linejoin="round"/>
<path d="M22.0492 122.7V141.8C22.0492 141.8 22.0492 148.3 28.0492 154.9C31.8492 159.1 36.2492 162.6 47.5492 167.3C47.6492 167.4 47.5492 149.1 47.5492 149.1C47.5492 149.1 36.3492 145.2 29.1492 137.9C20.9492 129.7 22.0492 122.7 22.0492 122.7Z" fill="#002105"/>
<path d="M157.649 123C157.649 141.4 127.249 156.4 89.8493 156.4C52.4493 156.4 22.0493 141.5 22.0493 123C22.0493 104.5 52.4493 89.6001 89.8493 89.6001C127.249 89.6001 157.649 104.6 157.649 123ZM89.8493 98.2001C58.4493 98.2001 33.0493 109.3 33.0493 123C33.0493 136.7 58.5493 147.8 89.8493 147.8C121.149 147.8 146.649 136.7 146.649 123C146.649 109.3 121.249 98.2001 89.8493 98.2001Z" fill="#00A836" stroke="#1C1B1B" stroke-width="0.75" stroke-miterlimit="10"/>
<path d="M67.5495 100.2L42.2495 86.6L67.5495 73L92.8495 86.6L67.5495 100.2Z" fill="#FDF8F8" stroke="#002105" stroke-miterlimit="10" stroke-linejoin="round"/>
<path d="M67.5495 126.9L42.2495 113.3L67.5495 99.7002L92.8495 113.3L67.5495 126.9Z" fill="#002105" stroke="#002105" stroke-miterlimit="10" stroke-linejoin="round"/>
<path d="M42.2495 86.6001V113.3L67.5495 126.9V99.7001L42.2495 86.6001Z" fill="#002105" stroke="#002105" stroke-miterlimit="10" stroke-linejoin="round"/>
<path d="M67.5493 99.7001V126.9L92.8493 113.3V86.6001L67.5493 99.7001Z" fill="#FDF8F8" stroke="#002105" stroke-miterlimit="10" stroke-linejoin="round"/>
<path d="M89.7493 147.4C86.1493 147.4 82.5493 147.3 79.0493 147L98.8493 121.4V147C95.9493 147.3 92.8493 147.4 89.7493 147.4Z" fill="#002105"/>
<path d="M98.4494 122.8V146.6C95.6494 146.8 92.7494 146.9 89.8494 146.9C86.5494 146.9 83.3494 146.8 80.1494 146.5L98.4494 122.8ZM99.4494 119.9L78.1494 147.3C81.9494 147.6 85.8494 147.8 89.8494 147.8C93.1494 147.8 96.3494 147.7 99.4494 147.4V119.9Z" fill="#002105"/>
<path d="M99.9492 121.3L117.849 144.1C112.249 145.5 106.249 146.4 99.9492 146.9V121.3Z" fill="#FDF8F8"/>
<path d="M100.449 122.8L116.949 143.8C111.749 145 106.249 145.9 100.449 146.4V122.8ZM99.4492 119.9V147.5C106.349 147 112.849 145.9 118.649 144.4L99.4492 119.9Z" fill="#002105"/>
<path d="M119.049 116.7C127.941 116.7 135.149 109.313 135.149 100.2C135.149 91.0875 127.941 83.7002 119.049 83.7002C110.157 83.7002 102.949 91.0875 102.949 100.2C102.949 109.313 110.157 116.7 119.049 116.7Z" fill="#FDF8F8" stroke="#002105" stroke-miterlimit="10"/>
<path d="M110.95 104.7C114.65 111.6 122.45 114.8 129.55 112.7C128.65 113.5 127.75 114.1 126.75 114.7C118.95 119 109.15 116 104.95 108C100.75 99.9999 103.65 89.9999 111.45 85.6999C112.45 85.0999 113.55 84.6999 114.65 84.3999C108.95 89.2999 107.25 97.6999 110.95 104.7Z" fill="#002105" stroke="#002105" stroke-miterlimit="10"/>
<path d="M119.049 41C119.049 40.4477 118.602 40 118.049 40C117.497 40 117.049 40.4477 117.049 41L119.049 41ZM117.342 69.7071C117.733 70.0976 118.366 70.0976 118.756 69.7071L125.12 63.3431C125.511 62.9526 125.511 62.3195 125.12 61.9289C124.73 61.5384 124.097 61.5384 123.706 61.9289L118.049 67.5858L112.392 61.9289C112.002 61.5384 111.369 61.5384 110.978 61.9289C110.588 62.3195 110.588 62.9526 110.978 63.3431L117.342 69.7071ZM117.049 41L117.049 69L119.049 69L119.049 41L117.049 41Z" fill="#1C1B1B"/>
<path d="M68.0493 19C68.0493 18.4477 67.6016 18 67.0493 18C66.497 18 66.0493 18.4477 66.0493 19L68.0493 19ZM66.3422 58.7071C66.7327 59.0976 67.3659 59.0976 67.7564 58.7071L74.1204 52.3431C74.5109 51.9526 74.5109 51.3195 74.1204 50.9289C73.7299 50.5384 73.0967 50.5384 72.7062 50.9289L67.0493 56.5858L61.3925 50.9289C61.0019 50.5384 60.3688 50.5384 59.9782 50.9289C59.5877 51.3195 59.5877 51.9526 59.9782 52.3431L66.3422 58.7071ZM66.0493 19L66.0493 58L68.0493 58L68.0493 19L66.0493 19Z" fill="#1C1B1B"/>
</svg>
