<svg viewBox="0 0 24 24" fill="none" xmlns="http://www.w3.org/2000/svg">
<path d="M10.4052 6.98687L9.51063 6.53987V6.53987L10.4052 6.98687ZM6.19622 15.4099L7.09076 15.8569H7.09076L6.19622 15.4099ZM8.51666 17.8396L8.11032 16.9259L8.51666 17.8396ZM11.2764 16.6124L10.87 15.6986H10.87L11.2764 16.6124ZM12.7256 16.6124L12.3193 17.5261H12.3193L12.7256 16.6124ZM15.4853 17.8396L15.8916 16.9259L15.4853 17.8396ZM17.8057 15.4099L16.9112 15.8569L17.8057 15.4099ZM13.5968 6.98687L12.7023 7.43386V7.43386L13.5968 6.98687ZM3.73072 22.4547L4.18471 21.5637H4.18471L3.73072 22.4547ZM1.54564 20.2696L2.43665 19.8157H2.43665L1.54564 20.2696ZM22.4557 20.2696L21.5647 19.8157V19.8157L22.4557 20.2696ZM20.2706 22.4547L19.8166 21.5637H19.8166L20.2706 22.4547ZM20.2706 1.54466L19.8166 2.43567V2.43567L20.2706 1.54466ZM22.4557 3.72974L21.5647 4.18373V4.18374L22.4557 3.72974ZM3.73072 1.54466L4.18471 2.43567L3.73072 1.54466ZM1.54564 3.72974L2.43665 4.18373H2.43665L1.54564 3.72974ZM7.01993 2.01056C7.57211 1.99999 8.01117 1.54379 8.0006 0.991603C7.99003 0.43942 7.53383 0.000355244 6.98165 0.0109254L7.01993 2.01056ZM0.011902 6.98057C0.00133038 7.53275 0.440394 7.98896 0.992577 7.99953C1.54476 8.0101 2.00096 7.57104 2.01154 7.01885L0.011902 6.98057ZM2.01154 16.9805C2.00096 16.4284 1.54476 15.9893 0.992577 15.9999C0.440394 16.0104 0.00133038 16.4666 0.011902 17.0188L2.01154 16.9805ZM6.98165 23.9885C7.53383 23.999 7.99003 23.56 8.0006 23.0078C8.01117 22.4556 7.57211 21.9994 7.01993 21.9888L6.98165 23.9885ZM16.9814 21.9888C16.4292 21.9994 15.9902 22.4556 16.0008 23.0078C16.0113 23.56 16.4675 23.999 17.0197 23.9885L16.9814 21.9888ZM23.9894 17.0188C24 16.4666 23.5609 16.0104 23.0088 15.9999C22.4566 15.9893 22.0004 16.4284 21.9898 16.9805L23.9894 17.0188ZM21.9898 7.01885C22.0004 7.57104 22.4566 8.0101 23.0088 7.99953C23.5609 7.98896 24 7.53275 23.9894 6.98057L21.9898 7.01885ZM17.0197 0.0109254C16.4675 0.000355005 16.0113 0.439419 16.0008 0.991603C15.9902 1.54379 16.4292 1.99999 16.9814 2.01056L17.0197 0.0109254ZM9.51063 6.53987L5.30169 14.9629L7.09076 15.8569L11.2997 7.43386L9.51063 6.53987ZM8.92301 18.7534L11.6827 17.5261L10.87 15.6986L8.11032 16.9259L8.92301 18.7534ZM12.3193 17.5261L15.0789 18.7534L15.8916 16.9259L13.1319 15.6986L12.3193 17.5261ZM18.7003 14.9629L14.4913 6.53987L12.7023 7.43386L16.9112 15.8569L18.7003 14.9629ZM15.0789 18.7534C17.4677 19.8157 19.8673 17.2983 18.7003 14.9629L16.9112 15.8569C17.2414 16.5176 16.5621 17.2241 15.8916 16.9259L15.0789 18.7534ZM11.6827 17.5261C11.8853 17.436 12.1166 17.436 12.3193 17.5261L13.1319 15.6986C12.4119 15.3784 11.59 15.3784 10.87 15.6986L11.6827 17.5261ZM5.30169 14.9629C4.13468 17.2983 6.53421 19.8157 8.92301 18.7534L8.11032 16.9259C7.43986 17.2241 6.76059 16.5176 7.09076 15.8569L5.30169 14.9629ZM11.2997 7.43387C11.5888 6.85538 12.4132 6.85538 12.7023 7.43386L14.4913 6.53987C13.4654 4.4867 10.5366 4.48671 9.51063 6.53987L11.2997 7.43387ZM4.18471 21.5637C3.43206 21.1802 2.82014 20.5683 2.43665 19.8157L0.654632 20.7236C1.22987 21.8526 2.14776 22.7705 3.27673 23.3457L4.18471 21.5637ZM21.5647 19.8157C21.1812 20.5683 20.5693 21.1802 19.8166 21.5637L20.7246 23.3457C21.8536 22.7705 22.7715 21.8526 23.3467 20.7236L21.5647 19.8157ZM19.8166 2.43567C20.5693 2.81916 21.1812 3.43109 21.5647 4.18373L23.3467 3.27575C22.7715 2.14678 21.8536 1.2289 20.7246 0.653658L19.8166 2.43567ZM3.27673 0.653658C2.14776 1.2289 1.22987 2.14678 0.654632 3.27575L2.43665 4.18373C2.82014 3.43109 3.43206 2.81916 4.18471 2.43567L3.27673 0.653658ZM6.98165 0.0109254C5.4463 0.0403156 4.28077 0.142073 3.27673 0.653658L4.18471 2.43567C4.73656 2.15449 5.47669 2.0401 7.01993 2.01056L6.98165 0.0109254ZM2.01154 7.01885C2.04108 5.47569 2.15547 4.73557 2.43665 4.18373L0.654633 3.27575C0.143058 4.27977 0.0412951 5.44528 0.011902 6.98057L2.01154 7.01885ZM0.011902 17.0188C0.0412951 18.5541 0.143058 19.7196 0.654633 20.7236L2.43665 19.8157C2.15547 19.2638 2.04108 18.5237 2.01154 16.9805L0.011902 17.0188ZM7.01993 21.9888C5.47669 21.9593 4.73656 21.8449 4.18471 21.5637L3.27673 23.3457C4.28077 23.8573 5.44631 23.9591 6.98165 23.9885L7.01993 21.9888ZM17.0197 23.9885C18.555 23.9591 19.7206 23.8573 20.7246 23.3457L19.8166 21.5637C19.2648 21.8449 18.5247 21.9593 16.9814 21.9888L17.0197 23.9885ZM21.9898 16.9805C21.9603 18.5237 21.8459 19.2638 21.5647 19.8157L23.3467 20.7236C23.8583 19.7196 23.96 18.5541 23.9894 17.0188L21.9898 16.9805ZM23.9894 6.98057C23.96 5.44528 23.8583 4.27977 23.3467 3.27575L21.5647 4.18374C21.8459 4.73557 21.9603 5.47569 21.9898 7.01885L23.9894 6.98057ZM16.9814 2.01056C18.5247 2.0401 19.2648 2.15449 19.8166 2.43567L20.7246 0.653658C19.7206 0.142074 18.555 0.0403162 17.0197 0.0109254L16.9814 2.01056Z" fill="black"/>
</svg>
