<svg viewBox="0 0 24 24" fill="none" xmlns="http://www.w3.org/2000/svg">
<path d="M8 11H16M7.24348 2.37832L6.703 2.64856C5.04642 3.47685 4 5.16999 4 7.0221C4 7.56221 4.43785 8.00006 4.97795 8.00006H6C7.10457 8.00006 8 8.89549 8 10.0001V11.2985C8 11.7526 7.84544 12.1933 7.56174 12.5479L5.53392 15.0827C4.54097 16.3239 4 17.866 4 19.4555V20.0001C4 21.1046 4.89543 22.0001 6 22.0001H18C19.1046 22.0001 20 21.1046 20 20.0001V19.4555C20 17.866 19.459 16.3239 18.4661 15.0827L16.4383 12.5479C16.1546 12.1933 16 11.7526 16 11.2985V10.0001C16 8.89549 16.8954 8.00006 18 8.00006H19.022C19.5622 8.00006 20 7.56221 20 7.0221C20 5.16999 18.9536 3.47685 17.297 2.64856L16.7565 2.37832C16.3047 2.15242 15.7591 2.24097 15.4019 2.59814C13.5231 4.47697 10.4769 4.47697 8.59808 2.59814C8.24091 2.24097 7.69527 2.15242 7.24348 2.37832Z" stroke="currentColor" stroke-width="2" stroke-linecap="round"/>
</svg>
