<svg width="24" height="24" viewBox="0 0 24 24" fill="none" xmlns="http://www.w3.org/2000/svg">
<path d="M13.0009 8.99435C12.9978 8.44208 12.5476 7.99688 11.9953 7.99999C11.443 8.00309 10.9978 8.45331 11.0009 9.00559L13.0009 8.99435ZM11.0233 12.9993C11.0264 13.5515 11.4767 13.9967 12.0289 13.9936C12.5812 13.9905 13.0264 13.5403 13.0233 12.988L11.0233 12.9993ZM13.0009 15.99C13.0009 15.4377 12.5532 14.99 12.0009 14.99C11.4486 14.99 11.0009 15.4377 11.0009 15.99H13.0009ZM11.0009 16C11.0009 16.5523 11.4486 17 12.0009 17C12.5532 17 13.0009 16.5523 13.0009 16H11.0009ZM10.27 3.98962L9.40461 3.48859V3.48859L10.27 3.98962ZM2.73894 16.9979L1.87351 16.4969L2.73894 16.9979ZM21.2628 16.9979L20.3974 17.4989L21.2628 16.9979ZM13.7317 3.98963L12.8663 4.49066V4.49067L13.7317 3.98963ZM11.0009 9.00559L11.0233 12.9993L13.0233 12.988L13.0009 8.99435L11.0009 9.00559ZM11.0009 15.99V16H13.0009V15.99H11.0009ZM9.40461 3.48859L1.87351 16.4969L3.60436 17.4989L11.1355 4.49066L9.40461 3.48859ZM4.46979 21H19.532V19H4.46979V21ZM22.1283 16.4969L14.5972 3.48859L12.8663 4.49067L20.3974 17.4989L22.1283 16.4969ZM19.532 21C21.843 21 23.2862 18.4969 22.1283 16.4969L20.3974 17.4989C20.7834 18.1656 20.3023 19 19.532 19V21ZM1.87351 16.4969C0.715619 18.4969 2.15878 21 4.46979 21V19C3.69946 19 3.2184 18.1656 3.60436 17.4989L1.87351 16.4969ZM11.1355 4.49066C11.5206 3.82538 12.4812 3.82538 12.8663 4.49066L14.5972 3.48859C13.4417 1.49274 10.5601 1.49273 9.40461 3.48859L11.1355 4.49066Z" fill="black"/>
</svg>
