<svg width="24" height="24" viewBox="0 0 24 24" fill="none" xmlns="http://www.w3.org/2000/svg">
<path d="M20 8C20 8.55228 20.4477 9 21 9C21.5523 9 22 8.55228 22 8H20ZM16 2C15.4477 2 15 2.44772 15 3C15 3.55228 15.4477 4 16 4V2ZM11.2929 11.2929C10.9024 11.6834 10.9024 12.3166 11.2929 12.7071C11.6834 13.0976 12.3166 13.0976 12.7071 12.7071L11.2929 11.2929ZM20.9455 3.273L20.0545 3.72699L20.0545 3.727L20.9455 3.273ZM20.727 3.0545L20.273 3.9455L20.273 3.9455L20.727 3.0545ZM12 6C12.5523 6 13 5.55228 13 5C13 4.44772 12.5523 4 12 4V6ZM20 12C20 11.4477 19.5523 11 19 11C18.4477 11 18 11.4477 18 12H20ZM5.18404 20.564L5.63803 19.673H5.63803L5.18404 20.564ZM3.43597 18.816L2.54497 19.27L3.43597 18.816ZM16.816 20.564L16.362 19.673H16.362L16.816 20.564ZM18.564 18.816L17.673 18.362V18.362L18.564 18.816ZM3.43597 7.18404L2.54497 6.73005H2.54497L3.43597 7.18404ZM5.18404 5.43597L4.73005 4.54497L4.73005 4.54497L5.18404 5.43597ZM22 8V3.8H20V8H22ZM20.2 2H16V4H20.2V2ZM20.1464 2.43934L11.2929 11.2929L12.7071 12.7071L21.5607 3.85355L20.1464 2.43934ZM22 3.8C22 3.67649 22.0008 3.52371 21.9899 3.39017C21.978 3.24495 21.9476 3.03696 21.8365 2.81901L20.0545 3.727C20.0268 3.67267 20.0117 3.62435 20.0036 3.59032C19.9964 3.55946 19.9957 3.54326 19.9965 3.55303C19.9973 3.56319 19.9986 3.58554 19.9993 3.63028C20 3.67499 20 3.72771 20 3.8H22ZM20.2 4C20.2723 4 20.325 4.00003 20.3697 4.00073C20.4145 4.00143 20.4368 4.00266 20.447 4.00349C20.4567 4.00429 20.4405 4.00363 20.4097 3.99636C20.3757 3.98835 20.3273 3.97318 20.273 3.9455L21.181 2.16349C20.963 2.05244 20.755 2.022 20.6098 2.01013C20.4763 1.99922 20.3235 2 20.2 2V4ZM21.8365 2.81902C21.7646 2.6779 21.6713 2.54995 21.5607 2.43934L20.1464 3.85355C20.1096 3.81669 20.0785 3.77403 20.0545 3.72699L21.8365 2.81902ZM21.5607 2.43934C21.45 2.32873 21.3221 2.23539 21.181 2.16349L20.273 3.9455C20.226 3.92154 20.1833 3.89042 20.1464 3.85355L21.5607 2.43934ZM12.6 20H9.4V22H12.6V20ZM4 14.6V11.4H2V14.6H4ZM9.4 6H12V4H9.4V6ZM18 12V14.6H20V12H18ZM9.4 20C8.26339 20 7.47108 19.9992 6.85424 19.9488C6.24907 19.8994 5.90138 19.8072 5.63803 19.673L4.73005 21.455C5.32234 21.7568 5.96253 21.8826 6.69138 21.9422C7.40855 22.0008 8.2964 22 9.4 22V20ZM2 14.6C2 15.7036 1.99922 16.5914 2.05782 17.3086C2.11737 18.0375 2.24318 18.6777 2.54497 19.27L4.32698 18.362C4.19279 18.0986 4.10062 17.7509 4.05118 17.1458C4.00078 16.5289 4 15.7366 4 14.6H2ZM5.63803 19.673C5.07354 19.3854 4.6146 18.9265 4.32698 18.362L2.54497 19.27C3.02433 20.2108 3.78924 20.9757 4.73005 21.455L5.63803 19.673ZM12.6 22C13.7036 22 14.5914 22.0008 15.3086 21.9422C16.0375 21.8826 16.6777 21.7568 17.27 21.455L16.362 19.673C16.0986 19.8072 15.7509 19.8994 15.1458 19.9488C14.5289 19.9992 13.7366 20 12.6 20V22ZM18 14.6C18 15.7366 17.9992 16.5289 17.9488 17.1458C17.8994 17.7509 17.8072 18.0986 17.673 18.362L19.455 19.27C19.7568 18.6777 19.8826 18.0375 19.9422 17.3086C20.0008 16.5914 20 15.7036 20 14.6H18ZM17.27 21.455C18.2108 20.9757 18.9757 20.2108 19.455 19.27L17.673 18.362C17.3854 18.9265 16.9265 19.3854 16.362 19.673L17.27 21.455ZM4 11.4C4 10.2634 4.00078 9.47108 4.05118 8.85424C4.10062 8.24907 4.19279 7.90138 4.32698 7.63803L2.54497 6.73005C2.24318 7.32234 2.11737 7.96253 2.05782 8.69138C1.99922 9.40855 2 10.2964 2 11.4H4ZM9.4 4C8.2964 4 7.40855 3.99922 6.69138 4.05782C5.96253 4.11737 5.32234 4.24318 4.73005 4.54497L5.63803 6.32698C5.90138 6.19279 6.24907 6.10062 6.85424 6.05118C7.47108 6.00078 8.26339 6 9.4 6V4ZM4.32698 7.63803C4.6146 7.07354 5.07354 6.6146 5.63803 6.32698L4.73005 4.54497C3.78924 5.02433 3.02433 5.78924 2.54497 6.73005L4.32698 7.63803Z" fill="black"/>
</svg>
