<svg width="24" height="24" viewBox="0 0 24 24" fill="none" xmlns="http://www.w3.org/2000/svg">
<path d="M4 4L7 7M17 17L20 20M21 14H18M6 10H3M10 6V3M14 21V18M17.8579 10.8284L19.0294 9.65685C20.3235 8.36277 20.3235 6.26465 19.0294 4.97056C17.7354 3.67648 15.6372 3.67648 14.3431 4.97056L13.1716 6.14214M6.14214 13.1716L4.97056 14.3431C3.67648 15.6372 3.67648 17.7354 4.97056 19.0294C6.26465 20.3235 8.36277 20.3235 9.65685 19.0294L11.1716 17.5147M10 10L10.245 10.7351C10.4968 11.4905 11.2037 12 12 12C12.7963 12 13.5032 12.5095 13.755 13.2649L14 14" stroke="black" stroke-width="2" stroke-linecap="round"/>
</svg>
