<svg width="24" height="24" viewBox="0 0 24 24" fill="none" xmlns="http://www.w3.org/2000/svg">
<path d="M8 15.9999L3 20.9999M3.28284 10.2827L13.7172 20.717C13.8337 20.8336 14.0333 20.7671 14.0566 20.6039L14.9057 14.6598C14.9669 14.2315 15.1654 13.8345 15.4714 13.5285L17.6083 11.3916C17.8646 11.1353 18.1858 10.9534 18.5374 10.8655L21.1433 10.2141C21.5203 10.1198 21.6504 9.65025 21.3756 9.37544L14.6244 2.62432C14.3496 2.34951 13.8801 2.47956 13.7858 2.85661L13.1344 5.46245C13.0464 5.81412 12.8646 6.13528 12.6083 6.39159L10.4714 8.52848C10.1654 8.83447 9.76842 9.03296 9.34003 9.09416L3.39598 9.94331C3.23283 9.96662 3.16631 10.1662 3.28284 10.2827Z" stroke="black" stroke-width="2" stroke-linecap="round"/>
</svg>
