<svg width="24" height="24" viewBox="0 0 24 24" fill="none" xmlns="http://www.w3.org/2000/svg">
<path d="M11.5526 1.9086C11.736 1.53698 12.2659 1.53698 12.4493 1.9086L15.1175 7.31479C15.1903 7.46236 15.3311 7.56465 15.4939 7.58831L21.46 8.45524C21.8701 8.51483 22.0339 9.01882 21.7371 9.30808L17.42 13.5162C17.3022 13.6311 17.2484 13.7966 17.2762 13.9588L18.2953 19.9008C18.3654 20.3092 17.9367 20.6207 17.5699 20.4279L12.2336 17.6224C12.088 17.5458 11.914 17.5458 11.7683 17.6224L6.43207 20.4279C6.06525 20.6207 5.63654 20.3092 5.70659 19.9008L6.72572 13.9588C6.75354 13.7966 6.69977 13.6311 6.58192 13.5162L2.26482 9.30808C1.96806 9.01882 2.13182 8.51483 2.54193 8.45524L8.50802 7.58831C8.67087 7.56465 8.81165 7.46236 8.88448 7.31479L11.5526 1.9086Z" stroke="black" stroke-width="2"/>
</svg>
