<svg width="24" height="24" viewBox="0 0 24 24" fill="none" xmlns="http://www.w3.org/2000/svg">
<path d="M12 4C7.02944 4 3 8.02944 3 13C3 17.9706 7.02944 22 12 22C16.9706 22 21 17.9706 21 13C21 8.02944 16.9706 4 12 4ZM12 4V1M18 6L19 5M10 1H14M12.999 9L10.0004 11.9987M10.0004 11.9987L10.0007 12.0008M10.0004 11.9987C10.0001 11.9989 10.0003 11.9983 10.0004 11.9987ZM10.0007 12.0008L13.9973 13.9992M10.0007 12.0008C10.0004 12.0007 10.0008 12.0012 10.0007 12.0008ZM13.9973 13.9992L13.9977 14.0013M13.9973 13.9992C13.9976 13.9993 13.9973 13.9988 13.9973 13.9992ZM13.9977 14.0013L10.999 17M13.9977 14.0013C13.9979 14.0011 13.9977 14.0017 13.9977 14.0013Z" stroke="black" stroke-width="2" stroke-linecap="round"/>
</svg>
