<svg width="24" height="24" viewBox="0 0 24 24" fill="none" xmlns="http://www.w3.org/2000/svg">
<path d="M17.252 10.75H6.74799M17.252 10.75C17.2941 10.75 17.3256 10.7861 17.3174 10.8248L16.2144 15.9951C16.0897 16.5794 15.5425 17 14.9069 17H9.09307C8.4575 17 7.91028 16.5794 7.78563 15.9951L6.68261 10.8248C6.67436 10.7861 6.70592 10.75 6.74799 10.75M17.252 10.75H17.3333M6.74799 10.75H6.66667M6 10.75H6.66667M6.66667 10.75L8.66667 7M17.3333 10.75H18M17.3333 10.75L15.3333 7M23 12C23 18.0751 18.0751 23 12 23C5.92487 23 1 18.0751 1 12C1 5.92487 5.92487 1 12 1C18.0751 1 23 5.92487 23 12Z" stroke="black" stroke-width="2" stroke-linecap="round"/>
</svg>
