<svg viewBox="0 0 24 24" fill="none" xmlns="http://www.w3.org/2000/svg">
<path d="M13 20.6076H19.2759C19.6257 20.6076 19.8674 20.2576 19.7434 19.9304L19.2459 18.6172C18.9845 17.9272 19.1275 17.1516 19.5491 16.5461C20.1826 15.6363 21 14.225 21 12.9999M8 13L13 8M8.31238 8.31247H8.68738M8.31238 8.68747H8.68738M12.3124 12.3125H12.6874M12.3124 12.6875H12.6874M18 10.5C18 14.6421 14.6421 18 10.5 18H3.72413C3.3743 18 3.13262 17.65 3.25656 17.3228L3.89762 15.6309C4.12684 15.0259 4.03271 14.355 3.75001 13.7731C3.26951 12.784 3 11.6735 3 10.5C3 6.35786 6.35786 3 10.5 3C14.6421 3 18 6.35786 18 10.5ZM9 8.5C9 8.77614 8.77614 9 8.5 9C8.22386 9 8 8.77614 8 8.5C8 8.22386 8.22386 8 8.5 8C8.77614 8 9 8.22386 9 8.5ZM13 12.5C13 12.7761 12.7761 13 12.5 13C12.2239 13 12 12.7761 12 12.5C12 12.2239 12.2239 12 12.5 12C12.7761 12 13 12.2239 13 12.5Z" stroke="currentColor" stroke-width="2" stroke-linecap="round"/>
</svg>
