<svg viewBox="0 0 24 24" fill="none" xmlns="http://www.w3.org/2000/svg">
<path d="M15.0006 7H17.1383C18.1876 7 19.0585 7.81089 19.1333 8.8575L19.8476 18.8575C19.9302 20.0152 19.0133 21 17.8526 21H6.14854C4.98786 21 4.07093 20.0152 4.15362 18.8575L4.86791 8.85751C4.94267 7.81089 5.81355 7 6.86283 7H9.00059M15.0006 7H9.00059M15.0006 7V5C15.0006 3.34315 13.6574 2 12.0006 2C10.3437 2 9.00059 3.34315 9.00059 5V7M9.00049 15.5C9.25049 16 10.2005 17 12.0005 17C13.8005 17 14.7505 16 15.0005 15.5M9.23477 11.2344H9.51602M9.23477 11.5156H9.51602M14.4848 11.2344H14.766M14.4848 11.5156H14.766M9.75049 11.375C9.75049 11.5821 9.5826 11.75 9.37549 11.75C9.16838 11.75 9.00049 11.5821 9.00049 11.375C9.00049 11.1679 9.16838 11 9.37549 11C9.5826 11 9.75049 11.1679 9.75049 11.375ZM15.0005 11.375C15.0005 11.5821 14.8326 11.75 14.6255 11.75C14.4184 11.75 14.2505 11.5821 14.2505 11.375C14.2505 11.1679 14.4184 11 14.6255 11C14.8326 11 15.0005 11.1679 15.0005 11.375Z" stroke="currentColor" stroke-width="2" stroke-linecap="round"/>
</svg>
