<svg viewBox="0 0 24 24" fill="none" xmlns="http://www.w3.org/2000/svg">
<path d="M6 8H9M6 12H9M6 16H9M5.2 20H18.8C19.9201 20 20.4802 20 20.908 19.782C21.2843 19.5903 21.5903 19.2843 21.782 18.908C22 18.4802 22 17.9201 22 16.8V7.2C22 6.0799 22 5.51984 21.782 5.09202C21.5903 4.71569 21.2843 4.40973 20.908 4.21799C20.4802 4 19.9201 4 18.8 4H5.2C4.07989 4 3.51984 4 3.09202 4.21799C2.71569 4.40973 2.40973 4.71569 2.21799 5.09202C2 5.51984 2 6.07989 2 7.2V16.8C2 17.9201 2 18.4802 2.21799 18.908C2.40973 19.2843 2.71569 19.5903 3.09202 19.782C3.51984 20 4.0799 20 5.2 20ZM13.8 13H17.2C17.48 13 17.62 13 17.727 12.9455C17.8211 12.8976 17.8976 12.8211 17.9455 12.727C18 12.62 18 12.48 18 12.2V8.8C18 8.51997 18 8.37996 17.9455 8.273C17.8976 8.17892 17.8211 8.10243 17.727 8.0545C17.62 8 17.48 8 17.2 8H13.8C13.52 8 13.38 8 13.273 8.0545C13.1789 8.10243 13.1024 8.17892 13.0545 8.273C13 8.37996 13 8.51997 13 8.8V12.2C13 12.48 13 12.62 13.0545 12.727C13.1024 12.8211 13.1789 12.8976 13.273 12.9455C13.38 13 13.52 13 13.8 13Z" stroke="currentColor" stroke-width="2" stroke-linecap="round"/>
</svg>
