<svg viewBox="0 0 24 24" fill="none" xmlns="http://www.w3.org/2000/svg">
<path d="M5.12283 17.379L6.12114 17.4371L6.18649 16.3153L5.06463 16.3807L5.12283 17.379ZM6.84436 19.4895L6.74667 20.4847L6.84436 19.4895ZM9 17.7682L9.99444 17.8735C9.99814 17.8386 10 17.8034 10 17.7682H9ZM4.73375 13.5V12.5C4.69855 12.5 4.66338 12.5019 4.62838 12.5056L4.73375 13.5ZM9 16.5L8.29289 15.7929C8.10536 15.9804 8 16.2348 8 16.5H9ZM11.5 14L12.2071 14.7071C12.5976 14.3166 12.5976 13.6834 12.2071 13.2929L11.5 14ZM8.5 11L9.20711 10.2929C8.81658 9.90237 8.18342 9.90237 7.79289 10.2929L8.5 11ZM6 13.5V14.5C6.26522 14.5 6.51957 14.3946 6.70711 14.2071L6 13.5ZM19.3772 6.12102L18.3789 6.06287L18.3135 7.18473L19.4354 7.11932L19.3772 6.12102ZM17.6556 4.01054L17.7533 3.01532L17.6556 4.01054ZM15.5 5.73175L14.5056 5.62648C14.5019 5.66145 14.5 5.69659 14.5 5.73175L15.5 5.73175ZM19.7663 10V11C19.8014 11 19.8366 10.9981 19.8716 10.9944L19.7663 10ZM15.5 7L16.2071 7.70711C16.3946 7.51957 16.5 7.26522 16.5 7L15.5 7ZM13 9.5L12.2929 8.79289C11.9024 9.18342 11.9024 9.81658 12.2929 10.2071L13 9.5ZM16 12.5L15.2929 13.2071C15.4804 13.3946 15.7348 13.5 16 13.5C16.2652 13.5 16.5196 13.3946 16.7071 13.2071L16 12.5ZM18.5 10V9C18.2348 9 17.9804 9.10536 17.7929 9.29289L18.5 10ZM6.29289 7.70711C6.68342 8.09763 7.31658 8.09763 7.70711 7.70711C8.09763 7.31658 8.09763 6.68342 7.70711 6.29289L6.29289 7.70711ZM6.70711 5.29289C6.31658 4.90237 5.68342 4.90237 5.29289 5.29289C4.90237 5.68342 4.90237 6.31658 5.29289 6.70711L6.70711 5.29289ZM17.7071 15.2929C17.3166 14.9024 16.6834 14.9024 16.2929 15.2929C15.9024 15.6834 15.9024 16.3166 16.2929 16.7071L17.7071 15.2929ZM17.2929 17.7071C17.6834 18.0976 18.3166 18.0976 18.7071 17.7071C19.0976 17.3166 19.0976 16.6834 18.7071 16.2929L17.2929 17.7071ZM9 7C9 7.55228 9.44771 8 10 8C10.5523 8 11 7.55228 11 7H9ZM11 4C11 3.44772 10.5523 3 10 3C9.44771 3 9 3.44772 9 4H11ZM15 16C15 15.4477 14.5523 15 14 15C13.4477 15 13 15.4477 13 16H15ZM13 19C13 19.5523 13.4477 20 14 20C14.5523 20 15 19.5523 15 19H13ZM4.12452 17.3208C4.03798 18.8066 5.0136 20.3146 6.74667 20.4847L6.94206 18.4942C6.44525 18.4455 6.08674 18.0276 6.12114 17.4371L4.12452 17.3208ZM6.74667 20.4847C8.39514 20.6465 9.82134 19.5087 9.99444 17.8735L8.00556 17.663C7.95087 18.1795 7.52347 18.5513 6.94206 18.4942L6.74667 20.4847ZM4.62838 12.5056C3.00765 12.6773 1.83207 14.0898 2.01952 15.7677L4.00716 15.5456C3.94419 14.982 4.30909 14.5506 4.83912 14.4944L4.62838 12.5056ZM2.01952 15.7677C2.21137 17.4849 3.68385 18.4646 5.18104 18.3773L5.06463 16.3807C4.48652 16.4144 4.06572 16.0698 4.00716 15.5456L2.01952 15.7677ZM10 17.7682V16.5H8V17.7682H10ZM9.70711 17.2071L12.2071 14.7071L10.7929 13.2929L8.29289 15.7929L9.70711 17.2071ZM12.2071 13.2929L9.20711 10.2929L7.79289 11.7071L10.7929 14.7071L12.2071 13.2929ZM4.73375 14.5H6V12.5H4.73375V14.5ZM7.79289 10.2929L5.29289 12.7929L6.70711 14.2071L9.20711 11.7071L7.79289 10.2929ZM20.3755 6.17917C20.462 4.69338 19.4864 3.18544 17.7533 3.01532L17.5579 5.00575C18.0548 5.05452 18.4133 5.47239 18.3789 6.06287L20.3755 6.17917ZM17.7533 3.01532C16.1049 2.8535 14.6787 3.99129 14.5056 5.62648L16.4944 5.83702C16.5491 5.32046 16.9765 4.94868 17.5579 5.00575L17.7533 3.01532ZM19.8716 10.9944C21.4923 10.8227 22.6679 9.41016 22.4805 7.73233L20.4928 7.95439C20.5558 8.51796 20.1909 8.94941 19.6609 9.00557L19.8716 10.9944ZM22.4805 7.73233C22.2886 6.01509 20.8162 5.03542 19.319 5.12272L19.4354 7.11932C20.0135 7.08562 20.4343 7.43022 20.4928 7.95439L22.4805 7.73233ZM14.5 5.73175L14.5 7L16.5 7L16.5 5.73175L14.5 5.73175ZM14.7929 6.29289L12.2929 8.79289L13.7071 10.2071L16.2071 7.70711L14.7929 6.29289ZM12.2929 10.2071L15.2929 13.2071L16.7071 11.7929L13.7071 8.79289L12.2929 10.2071ZM19.7663 9H18.5V11H19.7663V9ZM16.7071 13.2071L19.2071 10.7071L17.7929 9.29289L15.2929 11.7929L16.7071 13.2071ZM7.70711 6.29289L6.70711 5.29289L5.29289 6.70711L6.29289 7.70711L7.70711 6.29289ZM16.2929 16.7071L17.2929 17.7071L18.7071 16.2929L17.7071 15.2929L16.2929 16.7071ZM11 7V4H9V7H11ZM13 16V19H15V16H13Z" fill="black"/>
</svg>
