<svg width="24" height="24" viewBox="0 0 24 24" fill="none" xmlns="http://www.w3.org/2000/svg">
<path d="M12.0003 4.76565C12.0003 3.75701 12.7603 2.88516 13.7617 3.00598C15.0523 3.16169 16.4738 3.68388 17.0003 5.00009M12.0003 4.76565C12.0003 3.75701 11.2403 2.88516 10.2389 3.00598C8.94834 3.16169 7.52678 3.68388 7.0003 5.00009M12.0003 4.76565V19.3334M17.0003 5.00009C18.0003 7.50009 19.0003 6.50006 20.0003 8.00006C21.0003 9.50006 20.0003 10.5001 20.0003 12.0001M17.0003 5.00009C17.3336 6.00009 17.6003 8.40006 16.0003 10.0001M20.0003 12.0001C20.0003 13.5001 21.6575 14.2643 20.5003 16.0001C19.5003 17.5001 18.2909 16.7095 17.5003 17.5001C16.5003 18.5001 17.0003 19.0001 15.5003 20.0001C14.3602 20.7601 13.2202 20.7499 12.5191 20.4086C12.1301 20.2191 12.0003 19.7661 12.0003 19.3334M20.0003 12.0001C19.8336 12.6667 19.0003 14.0001 17.0003 14.0001M12.0003 19.3334C12.0003 19.7661 11.8705 20.2191 11.4815 20.4086C10.7804 20.7499 9.64037 20.7601 8.5003 20.0001C7.0003 19.0001 7.5003 18.5001 6.5003 17.5001C5.70973 16.7095 4.5003 17.5001 3.5003 16.0001C2.3431 14.2643 4.0003 13.5001 4.0003 12.0001M7.0003 5.00009C6.0003 7.50009 5.0003 6.50006 4.0003 8.00006C3.0003 9.50006 4.0003 10.5001 4.0003 12.0001M7.0003 5.00009C6.66696 6.00009 6.4003 8.40006 8.0003 10.0001M4.0003 12.0001C4.16697 12.6667 5.0003 14.0001 7.0003 14.0001" stroke="black" stroke-width="2" stroke-linecap="round"/>
</svg>
