<svg width="24" height="24" viewBox="0 0 24 24" fill="none" xmlns="http://www.w3.org/2000/svg">
<path d="M8 7V6C8 3.79086 9.79086 2 12 2C14.2091 2 16 3.79086 16 6V7M9 14H15M12 11V17M6.2 21H17.8C18.9201 21 19.4802 21 19.908 20.782C20.2843 20.5903 20.5903 20.2843 20.782 19.908C21 19.4802 21 18.9201 21 17.8V10.2C21 9.07989 21 8.51984 20.782 8.09202C20.5903 7.71569 20.2843 7.40973 19.908 7.21799C19.4802 7 18.9201 7 17.8 7H6.2C5.0799 7 4.51984 7 4.09202 7.21799C3.71569 7.40973 3.40973 7.71569 3.21799 8.09202C3 8.51984 3 9.07989 3 10.2V17.8C3 18.9201 3 19.4802 3.21799 19.908C3.40973 20.2843 3.71569 20.5903 4.09202 20.782C4.51984 21 5.07989 21 6.2 21Z" stroke="black" stroke-width="2" stroke-linecap="round"/>
</svg>
