<svg width="24" height="24" viewBox="0 0 24 24" fill="none" xmlns="http://www.w3.org/2000/svg">
<path d="M8.0003 15V18M16.0003 15V18M12.0003 12V15M14.1908 8.19047L17.8098 11.8095C17.915 11.9147 18.0856 11.9147 18.1908 11.8095L20.0003 10C21.1049 8.89543 21.1049 7.10457 20.0003 6C18.8957 4.89543 17.1049 4.89543 16.0003 6L14.1908 7.80952C14.0856 7.91472 14.0856 8.08528 14.1908 8.19047ZM9.80983 8.19047L6.19078 11.8095C6.08558 11.9147 5.91502 11.9147 5.80983 11.8095L4.0003 10C2.89573 8.89543 2.89573 7.10457 4.0003 6C5.10487 4.89543 6.89573 4.89543 8.0003 6L9.80983 7.80952C9.91502 7.91472 9.91502 8.08528 9.80983 8.19047Z" stroke="black" stroke-width="2" stroke-linecap="round"/>
</svg>
