<svg width="24" height="24" viewBox="0 0 24 24" fill="none" xmlns="http://www.w3.org/2000/svg">
<path d="M5.73696 18.7372L6.44406 18.0301H6.44406L5.73696 18.7372ZM5.26244 18.2627L4.55533 18.9698H4.55533L5.26244 18.2627ZM5.26244 13.7372L4.55533 13.0301H4.55533L5.26244 13.7372ZM13.737 5.26268L13.0298 4.55558V4.55558L13.737 5.26268ZM18.2624 5.26268L18.9695 4.55558V4.55558L18.2624 5.26268ZM18.737 5.7372L18.0299 6.44431V6.44431L18.737 5.7372ZM18.737 10.2627L19.4441 10.9698H19.4441L18.737 10.2627ZM10.2624 18.7372L9.55533 18.0301L10.2624 18.7372ZM20.0734 7.38191L21.0244 7.07289V7.07289L20.0734 7.38191ZM20.0734 8.61798L21.0244 8.927V8.92699L20.0734 8.61798ZM15.3817 3.92626L15.0726 2.9752L15.0726 2.9752L15.3817 3.92626ZM16.6177 3.92626L16.9267 2.9752L16.9267 2.9752L16.6177 3.92626ZM3.92601 16.618L2.97496 16.927L2.97496 16.927L3.92601 16.618ZM3.92601 15.3819L2.97496 15.0729L2.97496 15.0729L3.92601 15.3819ZM7.38166 20.0736L7.07264 21.0247H7.07265L7.38166 20.0736ZM8.61773 20.0736L8.92675 21.0247H8.92675L8.61773 20.0736ZM12.3545 6.6979C11.964 6.30738 11.3308 6.30738 10.9403 6.6979C10.5497 7.08842 10.5497 7.72159 10.9403 8.11211L12.3545 6.6979ZM15.8875 13.0593C16.278 13.4499 16.9112 13.4499 17.3017 13.0593C17.6922 12.6688 17.6922 12.0357 17.3017 11.6451L15.8875 13.0593ZM11.6449 17.302C12.0354 17.6925 12.6685 17.6925 13.0591 17.302C13.4496 16.9115 13.4496 16.2783 13.0591 15.8878L11.6449 17.302ZM8.11183 10.9405C7.72131 10.55 7.08814 10.55 6.69762 10.9405C6.3071 11.3311 6.3071 11.9642 6.69762 12.3548L8.11183 10.9405ZM6.44406 18.0301L5.96954 17.5556L4.55533 18.9698L5.02985 19.4443L6.44406 18.0301ZM5.96955 14.4443L14.4441 5.96979L13.0298 4.55558L4.55533 13.0301L5.96955 14.4443ZM17.5553 5.96979L18.0299 6.44431L19.4441 5.0301L18.9695 4.55558L17.5553 5.96979ZM18.0298 9.55558L9.55533 18.0301L10.9695 19.4443L19.4441 10.9698L18.0298 9.55558ZM18.0299 6.44431C18.4375 6.85199 18.7002 7.11578 18.8842 7.3325C19.0606 7.54029 19.1052 7.63815 19.1223 7.69093L21.0244 7.07289C20.8932 6.66901 20.6656 6.34053 20.4089 6.03814C20.1598 5.74468 19.8284 5.41444 19.4441 5.0301L18.0299 6.44431ZM19.4441 10.9698C19.8284 10.5854 20.1597 10.2552 20.4089 9.96174C20.6656 9.65935 20.8932 9.33088 21.0244 8.927L19.1223 8.30896C19.1052 8.36173 19.0606 8.4596 18.8842 8.66739C18.7002 8.8841 18.4375 9.14789 18.0298 9.55558L19.4441 10.9698ZM19.1223 7.69093C19.1876 7.89177 19.1876 8.10812 19.1223 8.30896L21.0244 8.92699C21.2202 8.32446 21.2202 7.67542 21.0244 7.07289L19.1223 7.69093ZM14.4441 5.96979C14.8517 5.56211 15.1155 5.29942 15.3323 5.11544C15.54 4.93904 15.6379 4.89446 15.6907 4.87731L15.0726 2.9752C14.6688 3.10643 14.3403 3.33405 14.0379 3.59076C13.7444 3.83989 13.4142 4.17123 13.0298 4.55558L14.4441 5.96979ZM18.9695 4.55558C18.5852 4.17123 18.255 3.83989 17.9615 3.59076C17.6591 3.33405 17.3306 3.10643 16.9267 2.9752L16.3087 4.87731C16.3615 4.89446 16.4594 4.93904 16.6671 5.11544C16.8839 5.29942 17.1476 5.56211 17.5553 5.96979L18.9695 4.55558ZM15.6907 4.87731C15.8915 4.81205 16.1079 4.81205 16.3087 4.87731L16.9267 2.9752C16.3242 2.77943 15.6752 2.77943 15.0726 2.9752L15.6907 4.87731ZM5.96954 17.5556C5.56186 17.1479 5.29917 16.8841 5.11519 16.6674C4.93879 16.4596 4.89422 16.3617 4.87707 16.309L2.97496 16.927C3.10618 17.3309 3.3338 17.6593 3.59051 17.9617C3.83964 18.2552 4.17098 18.5854 4.55533 18.9698L5.96954 17.5556ZM4.55533 13.0301C4.17098 13.4144 3.83965 13.7447 3.59052 14.0381C3.3338 14.3405 3.10618 14.669 2.97496 15.0729L4.87707 15.6909C4.89422 15.6381 4.93879 15.5403 5.11519 15.3325C5.29917 15.1158 5.56186 14.852 5.96955 14.4443L4.55533 13.0301ZM4.87707 16.309C4.81181 16.1081 4.81181 15.8918 4.87707 15.6909L2.97496 15.0729C2.77918 15.6754 2.77918 16.3245 2.97496 16.927L4.87707 16.309ZM5.02985 19.4443C5.4142 19.8287 5.74444 20.16 6.0379 20.4091C6.34029 20.6658 6.66877 20.8935 7.07264 21.0247L7.69068 19.1226C7.63791 19.1054 7.54004 19.0608 7.33225 18.8844C7.11554 18.7005 6.85175 18.4378 6.44406 18.0301L5.02985 19.4443ZM9.55533 18.0301C9.14765 18.4378 8.88386 18.7005 8.66714 18.8844C8.45935 19.0608 8.36149 19.1054 8.30871 19.1226L8.92675 21.0247C9.33063 20.8935 9.65911 20.6658 9.9615 20.4091C10.255 20.16 10.5852 19.8287 10.9695 19.4443L9.55533 18.0301ZM7.07265 21.0247C7.67518 21.2205 8.32422 21.2205 8.92675 21.0247L8.30871 19.1226C8.10787 19.1878 7.89152 19.1878 7.69068 19.1226L7.07265 21.0247ZM10.9403 8.11211L15.8875 13.0593L17.3017 11.6451L12.3545 6.6979L10.9403 8.11211ZM13.0591 15.8878L8.11183 10.9405L6.69762 12.3548L11.6449 17.302L13.0591 15.8878Z" fill="black"/>
</svg>
