<svg width="24" height="24" viewBox="0 0 24 24" fill="none" xmlns="http://www.w3.org/2000/svg">
<path d="M5.52442 5.33253L5.26991 5.77793C4.44695 7.2181 4.12751 8.8915 4.36209 10.5336C4.78213 13.4738 5.85531 16.2827 7.50285 18.754L7.64776 18.9714C8.15947 19.739 9.34094 19.5233 9.54837 18.6244L10.5386 14.3335C10.8963 12.7833 13.104 12.7833 13.4617 14.3335L14.4519 18.6244C14.6594 19.5233 15.8408 19.739 16.3525 18.9714L16.4975 18.754C18.145 16.2827 19.2182 13.4738 19.6382 10.5336C19.8728 8.8915 19.5534 7.2181 18.7304 5.77793L18.4759 5.33253C17.2881 3.25383 14.3785 3.02701 12.8829 4.89654C12.4304 5.46225 11.5699 5.46225 11.1174 4.89654C9.62176 3.02701 6.71225 3.25382 5.52442 5.33253Z" stroke="black" stroke-width="2" stroke-linecap="round"/>
</svg>
