<svg viewBox="0 0 24 24" fill="none" xmlns="http://www.w3.org/2000/svg">
<path d="M12.0009 16C15.3146 16 18.0009 13.3137 18.0009 10C18.0009 6.68629 15.3146 4 12.0009 4C8.68722 4 6.00093 6.68629 6.00093 10C6.00093 13.3137 8.68722 16 12.0009 16ZM12.0009 16L7.85448 20.1464C7.5395 20.4614 7.00093 20.2383 7.00093 19.7929V19C7.00093 17.8954 6.1055 17 5.00093 17H4.20803C3.76258 17 3.5395 16.4614 3.85448 16.1464L6.50093 13.5M12.0009 16L16.1474 20.1464C16.4624 20.4614 17.0009 20.2383 17.0009 19.7929V19C17.0009 17.8954 17.8964 17 19.0009 17H19.7938C20.2393 17 20.4624 16.4614 20.1474 16.1464L17.5009 13.5" stroke="black" stroke-width="2" stroke-linecap="round"/>
</svg>
