<svg width="24" height="24" viewBox="0 0 24 24" fill="none" xmlns="http://www.w3.org/2000/svg">
<path d="M10 2C11.1046 2 12 2.89543 12 4C12 5.10457 11.1046 6 10 6H6C4.89543 6 4 5.10457 4 4C4 2.89543 4.89543 2 6 2L10 2Z" stroke="black" stroke-width="2"/>
<path d="M14 10C15.1046 10 16 10.8954 16 12C16 13.1046 15.1046 14 14 14H6C4.89543 14 4 13.1046 4 12C4 10.8954 4.89543 10 6 10H14Z" stroke="black" stroke-width="2"/>
<path d="M18 18C19.1046 18 20 18.8954 20 20C20 21.1046 19.1046 22 18 22H6C4.89543 22 4 21.1046 4 20C4 18.8954 4.89543 18 6 18H18Z" stroke="black" stroke-width="2"/>
</svg>
