<svg width="24" height="24" viewBox="0 0 24 24" fill="none" xmlns="http://www.w3.org/2000/svg">
<path d="M2 6C2 4.89543 2.89543 4 4 4C5.10457 4 6 4.89543 6 6V18C6 19.1046 5.10457 20 4 20C2.89543 20 2 19.1046 2 18V6Z" stroke="black" stroke-width="2"/>
<path d="M10 16C10 14.8954 10.8954 14 12 14C13.1046 14 14 14.8954 14 16V18C14 19.1046 13.1046 20 12 20C10.8954 20 10 19.1046 10 18V16Z" stroke="black" stroke-width="2"/>
<path d="M18 10C18 8.89543 18.8954 8 20 8C21.1046 8 22 8.89543 22 10V18C22 19.1046 21.1046 20 20 20C18.8954 20 18 19.1046 18 18V10Z" stroke="black" stroke-width="2"/>
</svg>
