<svg viewBox="0 0 24 24" fill="none" xmlns="http://www.w3.org/2000/svg">
<path d="M9.18182 17.4545C9.18182 18.0068 9.62953 18.4545 10.1818 18.4545C10.7341 18.4545 11.1818 18.0068 11.1818 17.4545H9.18182ZM11.1818 6.54545C11.1818 5.99317 10.7341 5.54545 10.1818 5.54545C9.62953 5.54545 9.18182 5.99317 9.18182 6.54545L11.1818 6.54545ZM5.54545 17.4545C5.54545 18.0068 5.99317 18.4545 6.54545 18.4545C7.09774 18.4545 7.54545 18.0068 7.54545 17.4545H5.54545ZM7.54545 14.7273C7.54545 14.175 7.09774 13.7273 6.54545 13.7273C5.99317 13.7273 5.54545 14.175 5.54545 14.7273H7.54545ZM12.8182 17.4545C12.8182 18.0068 13.2659 18.4545 13.8182 18.4545C14.3705 18.4545 14.8182 18.0068 14.8182 17.4545H12.8182ZM14.8182 9.27273C14.8182 8.72044 14.3705 8.27273 13.8182 8.27273C13.2659 8.27273 12.8182 8.72044 12.8182 9.27273H14.8182ZM16.4545 17.4545C16.4545 18.0068 16.9023 18.4545 17.4545 18.4545C18.0068 18.4545 18.4545 18.0068 18.4545 17.4545H16.4545ZM18.4545 12C18.4545 11.4477 18.0068 11 17.4545 11C16.9023 11 16.4545 11.4477 16.4545 12H18.4545ZM4.48186 21.5046L4.93585 20.6136H4.93585L4.48186 21.5046ZM2.49542 19.5181L3.38643 19.0641L2.49542 19.5181ZM21.5046 19.5181L20.6136 19.0641V19.0641L21.5046 19.5181ZM19.5181 21.5046L19.0641 20.6136H19.0641L19.5181 21.5046ZM19.5181 2.49542L19.0641 3.38643L19.5181 2.49542ZM21.5046 4.48186L20.6136 4.93585V4.93585L21.5046 4.48186ZM4.48186 2.49542L4.93585 3.38643L4.48186 2.49542ZM2.49542 4.48186L3.38643 4.93585L2.49542 4.48186ZM11.1818 17.4545L11.1818 6.54545L9.18182 6.54545L9.18182 17.4545H11.1818ZM7.54545 17.4545V14.7273H5.54545V17.4545H7.54545ZM14.8182 17.4545V9.27273H12.8182V17.4545H14.8182ZM18.4545 17.4545V12H16.4545V17.4545H18.4545ZM9.27273 3H14.7273V1H9.27273V3ZM21 9.27273V14.7273H23V9.27273H21ZM14.7273 21H9.27273V23H14.7273V21ZM3 14.7273V9.27273H1V14.7273H3ZM9.27273 21C7.98338 21 7.07651 20.9992 6.36871 20.9414C5.67259 20.8845 5.25755 20.7775 4.93585 20.6136L4.02787 22.3956C4.6785 22.7271 5.38604 22.8678 6.20585 22.9348C7.01398 23.0008 8.01638 23 9.27273 23V21ZM1 14.7273C1 15.9836 0.999222 16.986 1.06525 17.7942C1.13223 18.614 1.27291 19.3215 1.60442 19.9721L3.38643 19.0641C3.22252 18.7425 3.11548 18.3274 3.05861 17.6313C3.00078 16.9235 3 16.0166 3 14.7273H1ZM4.93585 20.6136C4.26873 20.2737 3.72635 19.7313 3.38643 19.0641L1.60442 19.9721C2.13608 21.0156 2.98443 21.8639 4.02787 22.3956L4.93585 20.6136ZM21 14.7273C21 16.0166 20.9992 16.9235 20.9414 17.6313C20.8845 18.3274 20.7775 18.7425 20.6136 19.0641L22.3956 19.9721C22.7271 19.3215 22.8678 18.614 22.9348 17.7942C23.0008 16.986 23 15.9836 23 14.7273H21ZM14.7273 23C15.9836 23 16.986 23.0008 17.7942 22.9348C18.614 22.8678 19.3215 22.7271 19.9721 22.3956L19.0641 20.6136C18.7425 20.7775 18.3274 20.8845 17.6313 20.9414C16.9235 20.9992 16.0166 21 14.7273 21V23ZM20.6136 19.0641C20.2737 19.7313 19.7313 20.2737 19.0641 20.6136L19.9721 22.3956C21.0156 21.8639 21.8639 21.0156 22.3956 19.9721L20.6136 19.0641ZM14.7273 3C16.0166 3 16.9235 3.00078 17.6313 3.05861C18.3274 3.11548 18.7425 3.22252 19.0641 3.38643L19.9721 1.60442C19.3215 1.27291 18.614 1.13223 17.7942 1.06525C16.986 0.999222 15.9836 1 14.7273 1V3ZM23 9.27273C23 8.01638 23.0008 7.01398 22.9348 6.20585C22.8678 5.38604 22.7271 4.6785 22.3956 4.02787L20.6136 4.93585C20.7775 5.25755 20.8845 5.67259 20.9414 6.36871C20.9992 7.07651 21 7.98338 21 9.27273H23ZM19.0641 3.38643C19.7313 3.72635 20.2737 4.26873 20.6136 4.93585L22.3956 4.02787C21.8639 2.98443 21.0156 2.13608 19.9721 1.60442L19.0641 3.38643ZM9.27273 1C8.01638 1 7.01398 0.999222 6.20585 1.06525C5.38604 1.13223 4.6785 1.27291 4.02787 1.60442L4.93585 3.38643C5.25755 3.22252 5.67259 3.11548 6.36871 3.05861C7.07651 3.00078 7.98338 3 9.27273 3V1ZM3 9.27273C3 7.98338 3.00078 7.07651 3.05861 6.36871C3.11548 5.67259 3.22252 5.25755 3.38643 4.93585L1.60442 4.02787C1.27291 4.6785 1.13223 5.38604 1.06525 6.20585C0.999222 7.01398 1 8.01638 1 9.27273H3ZM4.02787 1.60442C2.98443 2.13608 2.13608 2.98443 1.60442 4.02787L3.38643 4.93585C3.72635 4.26873 4.26873 3.72635 4.93585 3.38643L4.02787 1.60442Z" fill="black"/>
</svg>
