<svg viewBox="0 0 24 24" fill="none" xmlns="http://www.w3.org/2000/svg">
<path d="M4 16C4 15.4477 3.55228 15 3 15C2.44772 15 2 15.4477 2 16H4ZM22 16C22 15.4477 21.5523 15 21 15C20.4477 15 20 15.4477 20 16H22ZM19.362 20.673L18.908 19.782H18.908L19.362 20.673ZM20.673 19.362L21.564 19.816L20.673 19.362ZM3.32698 19.362L2.43597 19.816L3.32698 19.362ZM4.63803 20.673L4.18404 21.564H4.18404L4.63803 20.673ZM11 16C11 16.5523 11.4477 17 12 17C12.5523 17 13 16.5523 13 16H11ZM20 9C20.5523 9 21 8.55228 21 8C21 7.44772 20.5523 7 20 7V9ZM17.7071 3.29289C17.3166 2.90237 16.6834 2.90237 16.2929 3.29289C15.9024 3.68342 15.9024 4.31658 16.2929 4.70711L17.7071 3.29289ZM20.2929 7.29289L19.5858 8L20.2929 7.29289ZM20.2929 8.70711L19.5858 8L19.5858 8L20.2929 8.70711ZM16.2929 11.2929C15.9024 11.6834 15.9024 12.3166 16.2929 12.7071C16.6834 13.0976 17.3166 13.0976 17.7071 12.7071L16.2929 11.2929ZM2 16V16.2H4V16H2ZM7.8 22H16.2V20H7.8V22ZM22 16.2V16H20V16.2H22ZM16.2 22C17.0236 22 17.7014 22.0008 18.2518 21.9558C18.8139 21.9099 19.3306 21.8113 19.816 21.564L18.908 19.782C18.7516 19.8617 18.5274 19.9266 18.089 19.9624C17.6389 19.9992 17.0566 20 16.2 20V22ZM20 16.2C20 17.0566 19.9992 17.6389 19.9624 18.089C19.9266 18.5274 19.8617 18.7516 19.782 18.908L21.564 19.816C21.8113 19.3306 21.9099 18.8139 21.9558 18.2518C22.0008 17.7014 22 17.0236 22 16.2H20ZM19.816 21.564C20.5686 21.1805 21.1805 20.5686 21.564 19.816L19.782 18.908C19.5903 19.2843 19.2843 19.5903 18.908 19.782L19.816 21.564ZM2 16.2C2 17.0236 1.99922 17.7014 2.04419 18.2518C2.09012 18.8139 2.18868 19.3306 2.43597 19.816L4.21799 18.908C4.1383 18.7516 4.07337 18.5274 4.03755 18.089C4.00078 17.6389 4 17.0566 4 16.2H2ZM7.8 20C6.94342 20 6.36113 19.9992 5.91104 19.9624C5.47262 19.9266 5.24842 19.8617 5.09202 19.782L4.18404 21.564C4.66937 21.8113 5.18608 21.9099 5.74817 21.9558C6.2986 22.0008 6.97642 22 7.8 22V20ZM2.43597 19.816C2.81947 20.5686 3.43139 21.1805 4.18404 21.564L5.09202 19.782C4.71569 19.5903 4.40973 19.2843 4.21799 18.908L2.43597 19.816ZM13 16V11H11V16H13ZM15 9H20V7H15V9ZM13 11C13 9.89543 13.8954 9 15 9V7C12.7909 7 11 8.79086 11 11H13ZM16.2929 4.70711L19.5858 8L21 6.58579L17.7071 3.29289L16.2929 4.70711ZM19.5858 8L16.2929 11.2929L17.7071 12.7071L21 9.41421L19.5858 8ZM19.5858 8L19.5858 8L21 9.41421C21.781 8.63317 21.781 7.36684 21 6.58579L19.5858 8Z" fill="black"/>
</svg>
