<svg viewBox="0 0 24 24" fill="none" xmlns="http://www.w3.org/2000/svg">
<path d="M8 13.416C5.03656 14.0706 3 15.4297 3 17.0002C3 19.2094 7.02944 21.0002 12 21.0002C16.9706 21.0002 21 19.2094 21 17.0002C21 15.4297 18.9634 14.0706 16 13.416M12 17V7.44444M12 7.44444V3.29355C12 3.13143 12.1352 3 12.3019 3H13.8123C14.8472 3 15.8397 3.39968 16.5714 4.11111C17.3032 4.82254 18.2957 5.22222 19.3305 5.22222H19.7987C19.9099 5.22222 20 5.30984 20 5.41792V9.33705C20 9.51909 19.8482 9.66667 19.661 9.66667H18.1877C17.1528 9.66667 16.1603 9.26699 15.4286 8.55556C14.6968 7.84412 13.7043 7.44444 12.6695 7.44444H12Z" stroke="black" stroke-width="2" stroke-linecap="round"/>
</svg>
