<svg viewBox="0 0 24 24" fill="none" xmlns="http://www.w3.org/2000/svg">
<path d="M12 1C5.92487 1 1 5.92487 1 12C1 18.0751 5.92487 23 12 23C17.3921 23 21.8781 19.1202 22.8186 14M7.35069 21.6248C7.44006 18.7155 8.28106 13.9025 11.4478 15.9933C15.4062 18.6069 14.5697 17.8651 16.7604 17.4168C18.5129 17.0582 20.0664 17.9576 20.6241 18.4521M2.46055 16.6909C2.52681 15.1558 3.17509 11.706 5.23821 10.1883C7.81711 8.2911 10.5855 9.55052 8.53352 1.75376M20 6L17.4268 7.94466C17.3291 8.01845 17.1709 8.01845 17.0732 7.94466L16 7.1336M23 7C23 9.76142 20.7614 12 18 12C15.2386 12 13 9.76142 13 7C13 4.23858 15.2386 2 18 2C20.7614 2 23 4.23858 23 7Z" stroke="black" stroke-width="2" stroke-linecap="round"/>
</svg>
