<svg viewBox="0 0 24 24" fill="none" xmlns="http://www.w3.org/2000/svg">
<path d="M9 8.0002V13.0002M15 11.0002V16.0002M4.64018 19.6333L7.71963 17.0671C8.46132 16.449 9.53868 16.449 10.2804 17.0671L13.7196 19.9331C14.4613 20.5512 15.5387 20.5512 16.2804 19.9331L20.2804 16.5998C20.7364 16.2198 21 15.6569 21 15.0633V5.13514C21 4.2873 20.0111 3.82415 19.3598 4.36692L16.2804 6.93313C15.5387 7.5512 14.4613 7.5512 13.7196 6.93313L10.2804 4.06707C9.53868 3.449 8.46132 3.449 7.71963 4.06707L3.71963 7.40041C3.26365 7.7804 3 8.34329 3 8.93685V18.8651C3 19.7129 3.98886 20.1761 4.64018 19.6333Z" stroke="currentColor" stroke-width="2" stroke-linecap="round"/>
</svg>
