<svg viewBox="0 0 24 24" fill="none" xmlns="http://www.w3.org/2000/svg">
<path d="M8 19C8 20.1046 7.10457 21 6 21C4.89543 21 4 20.1046 4 19C4 17.8954 4.89543 17 6 17C7.10457 17 8 17.8954 8 19ZM8 19H16C17.1046 19 18 18.1046 18 17V13M16 5C16 6.10457 16.8954 7 18 7C19.1046 7 20 6.10457 20 5C20 3.89543 19.1046 3 18 3C16.8954 3 16 3.89543 16 5ZM16 5H8C6.89543 5 6 5.89543 6 7V11M21 15L18.3536 12.1573C18.1583 11.9476 17.8417 11.9476 17.6464 12.1573L15 15M9 9L6.35355 11.8427C6.15829 12.0524 5.84171 12.0524 5.64645 11.8427L3 9" stroke="black" stroke-width="2" stroke-linecap="round"/>
</svg>
