<svg width="24" height="24" viewBox="0 0 24 24" fill="none" xmlns="http://www.w3.org/2000/svg">
<path d="M6 4V6M18 4V6M6 15V20M18 15V20M11 15L20 6M4 15L13 6M2 11L7 6M17 15L22 10M5.2 15H18.8C19.9201 15 20.4802 15 20.908 14.782C21.2843 14.5903 21.5903 14.2843 21.782 13.908C22 13.4802 22 12.9201 22 11.8V9.2C22 8.0799 22 7.51984 21.782 7.09202C21.5903 6.71569 21.2843 6.40973 20.908 6.21799C20.4802 6 19.9201 6 18.8 6H5.2C4.07989 6 3.51984 6 3.09202 6.21799C2.71569 6.40973 2.40973 6.71569 2.21799 7.09202C2 7.51984 2 8.07989 2 9.2V11.8C2 12.9201 2 13.4802 2.21799 13.908C2.40973 14.2843 2.71569 14.5903 3.09202 14.782C3.51984 15 4.0799 15 5.2 15Z" stroke="black" stroke-width="2" stroke-linecap="round"/>
</svg>
