<svg width="24" height="24" viewBox="0 0 24 24" fill="none" xmlns="http://www.w3.org/2000/svg">
<path d="M9 6.5L5.7305 8.13475C4.66993 8.66503 4 9.74901 4 10.9348C4 13.2619 6.44902 14.7755 8.53049 13.7348L15.4695 10.2652C17.551 9.22451 20 10.7381 20 13.0652C20 14.251 19.3301 15.335 18.2695 15.8652L15 17.5M15 5C15 6.65685 13.6569 8 12 8C10.3431 8 9 6.65685 9 5C9 3.34315 10.3431 2 12 2C13.6569 2 15 3.34315 15 5ZM15 19C15 20.6569 13.6569 22 12 22C10.3431 22 9 20.6569 9 19C9 17.3431 10.3431 16 12 16C13.6569 16 15 17.3431 15 19Z" stroke="black" stroke-width="2" stroke-linecap="round"/>
</svg>
