<svg viewBox="0 0 24 24" fill="none" xmlns="http://www.w3.org/2000/svg">
<g clip-path="url(#clip0_9_1914)">
<path d="M7 14.9451V9.05489C7 7.66228 8.73259 7.02135 9.63888 8.0787L11.0476 9.72223C12.1711 11.0329 12.1711 12.9671 11.0476 14.2778L9.63888 15.9213C8.73259 16.9786 7 16.3377 7 14.9451Z" stroke="black" stroke-width="2"/>
<path d="M12 14.9451V9.05489C12 7.66228 13.7326 7.02135 14.6389 8.0787L16.8844 10.6984C17.5263 11.4474 17.5263 12.5526 16.8844 13.3016L14.6389 15.9213C13.7326 16.9786 12 16.3377 12 14.9451Z" stroke="black" stroke-width="2"/>
<path d="M23 12C23 18.0751 18.0751 23 12 23C5.92487 23 1 18.0751 1 12C1 5.92487 5.92487 1 12 1C18.0751 1 23 5.92487 23 12Z" stroke="black" stroke-width="2"/>
</g>
<defs>
<clipPath id="clip0_9_1914">
<rect width="24" height="24" fill="white"/>
</clipPath>
</defs>
</svg>
