<svg width="24" height="24" viewBox="0 0 24 24" fill="none" xmlns="http://www.w3.org/2000/svg">
<path d="M1 8.5C1 6.17029 1 5.00544 1.3806 4.08658C1.88807 2.86144 2.86144 1.88807 4.08658 1.3806C5.00544 1 6.17029 1 8.5 1C8.96594 1 9.19891 1 9.38268 1.07612C9.62771 1.17761 9.82239 1.37229 9.92388 1.61732C10 1.80109 10 2.03406 10 2.5V9.2C10 9.48003 10 9.62004 9.9455 9.727C9.89757 9.82108 9.82108 9.89757 9.727 9.9455C9.62004 10 9.48003 10 9.2 10H2.5C2.03406 10 1.80109 10 1.61732 9.92388C1.37229 9.82239 1.17761 9.62771 1.07612 9.38268C1 9.19891 1 8.96594 1 8.5Z" stroke="black" stroke-width="2"/>
<path d="M1 15.5C1 15.0341 1 14.8011 1.07612 14.6173C1.17761 14.3723 1.37229 14.1776 1.61732 14.0761C1.80109 14 2.03406 14 2.5 14H9.2C9.48003 14 9.62004 14 9.727 14.0545C9.82108 14.1024 9.89757 14.1789 9.9455 14.273C10 14.38 10 14.52 10 14.8V21.5C10 21.9659 10 22.1989 9.92388 22.3827C9.82239 22.6277 9.62771 22.8224 9.38268 22.9239C9.19891 23 8.96594 23 8.5 23C6.17029 23 5.00544 23 4.08658 22.6194C2.86144 22.1119 1.88807 21.1386 1.3806 19.9134C1 18.9946 1 17.8297 1 15.5Z" stroke="black" stroke-width="2"/>
<path d="M14 2.5C14 2.03406 14 1.80109 14.0761 1.61732C14.1776 1.37229 14.3723 1.17761 14.6173 1.07612C14.8011 1 15.0341 1 15.5 1C17.8297 1 18.9946 1 19.9134 1.3806C21.1386 1.88807 22.1119 2.86144 22.6194 4.08658C23 5.00544 23 6.17029 23 8.5C23 8.96594 23 9.19891 22.9239 9.38268C22.8224 9.62771 22.6277 9.82239 22.3827 9.92388C22.1989 10 21.9659 10 21.5 10H14.8C14.52 10 14.38 10 14.273 9.9455C14.1789 9.89757 14.1024 9.82108 14.0545 9.727C14 9.62004 14 9.48003 14 9.2V2.5Z" stroke="black" stroke-width="2"/>
<path d="M14 14.8C14 14.52 14 14.38 14.0545 14.273C14.1024 14.1789 14.1789 14.1024 14.273 14.0545C14.38 14 14.52 14 14.8 14H21.5C21.9659 14 22.1989 14 22.3827 14.0761C22.6277 14.1776 22.8224 14.3723 22.9239 14.6173C23 14.8011 23 15.0341 23 15.5C23 17.8297 23 18.9946 22.6194 19.9134C22.1119 21.1386 21.1386 22.1119 19.9134 22.6194C18.9946 23 17.8297 23 15.5 23C15.0341 23 14.8011 23 14.6173 22.9239C14.3723 22.8224 14.1776 22.6277 14.0761 22.3827C14 22.1989 14 21.9659 14 21.5V14.8Z" stroke="black" stroke-width="2"/>
</svg>
