<svg width="24" height="24" viewBox="0 0 24 24" fill="none" xmlns="http://www.w3.org/2000/svg">
<path d="M11.6248 11.6249H12.3748M11.6248 12.3749H12.3748M11.6248 4.62494H12.3748M11.6248 5.37494H12.3748M11.6248 18.6249H12.3748M11.6248 19.3749H12.3748M4.62476 11.6249H5.37476M4.62476 12.3749H5.37476M4.62476 4.62494H5.37476M4.62476 5.37494H5.37476M4.62476 18.6249H5.37476M4.62476 19.3749H5.37476M18.6248 11.6249H19.3748M18.6248 12.3749H19.3748M18.6248 4.62494H19.3748M18.6248 5.37494H19.3748M18.6248 18.6249H19.3748M18.6248 19.3749H19.3748M13 12C13 12.5523 12.5523 13 12 13C11.4477 13 11 12.5523 11 12C11 11.4477 11.4477 11 12 11C12.5523 11 13 11.4477 13 12ZM13 5C13 5.55228 12.5523 6 12 6C11.4477 6 11 5.55228 11 5C11 4.44772 11.4477 4 12 4C12.5523 4 13 4.44772 13 5ZM13 19C13 19.5523 12.5523 20 12 20C11.4477 20 11 19.5523 11 19C11 18.4477 11.4477 18 12 18C12.5523 18 13 18.4477 13 19ZM6 12C6 12.5523 5.55229 13 5 13C4.44772 13 4 12.5523 4 12C4 11.4477 4.44772 11 5 11C5.55229 11 6 11.4477 6 12ZM6 5C6 5.55228 5.55229 6 5 6C4.44772 6 4 5.55228 4 5C4 4.44772 4.44772 4 5 4C5.55229 4 6 4.44772 6 5ZM6 19C6 19.5523 5.55229 20 5 20C4.44772 20 4 19.5523 4 19C4 18.4477 4.44772 18 5 18C5.55229 18 6 18.4477 6 19ZM20 12C20 12.5523 19.5523 13 19 13C18.4477 13 18 12.5523 18 12C18 11.4477 18.4477 11 19 11C19.5523 11 20 11.4477 20 12ZM20 5C20 5.55228 19.5523 6 19 6C18.4477 6 18 5.55228 18 5C18 4.44772 18.4477 4 19 4C19.5523 4 20 4.44772 20 5ZM20 19C20 19.5523 19.5523 20 19 20C18.4477 20 18 19.5523 18 19C18 18.4477 18.4477 18 19 18C19.5523 18 20 18.4477 20 19Z" stroke="black" stroke-width="2" stroke-linecap="round"/>
</svg>
