<svg width="24" height="24" viewBox="0 0 24 24" fill="none" xmlns="http://www.w3.org/2000/svg">
<g clip-path="url(#clip0_9_1031)">
<path d="M8 8H16M8 8V16M8 8H3C1.89543 8 1 7.10457 1 6C1 3.23858 3.23858 1 6 1C7.10457 1 8 1.89543 8 3V8ZM16 8V16M16 8H21C22.1046 8 23 7.10457 23 6C23 3.23858 20.7614 1 18 1C16.8954 1 16 1.89543 16 3V8ZM16 16H8M16 16H21C22.1046 16 23 16.8954 23 18C23 20.7614 20.7614 23 18 23C16.8954 23 16 22.1046 16 21V16ZM8 16H3C1.89543 16 1 16.8954 1 18C1 20.7614 3.23858 23 6 23C7.10457 23 8 22.1046 8 21V16Z" stroke="black" stroke-width="2"/>
</g>
<defs>
<clipPath id="clip0_9_1031">
<rect width="24" height="24" fill="white"/>
</clipPath>
</defs>
</svg>
